<svg width="306" height="74" viewBox="0 0 306 74" fill="none" xmlns="http://www.w3.org/2000/svg">
<path d="M23 21C23 18.2386 25.2386 16 28 16H278C280.761 16 283 18.2386 283 21V53C283 55.7614 280.761 58 278 58H28C25.2386 58 23 55.7614 23 53V21Z" fill="#1877F2"/>
<path d="M71.2937 41.71C71.0057 41.71 70.7283 41.662 70.4617 41.566C70.195 41.47 69.9763 41.2993 69.8057 41.054C69.635 40.8087 69.5497 40.4673 69.5497 40.03V32.782H70.9737V39.854C70.9737 40.0993 71.027 40.2753 71.1337 40.382C71.2403 40.4887 71.411 40.542 71.6457 40.542C71.7417 40.542 71.843 40.5313 71.9497 40.51C72.0563 40.4887 72.1577 40.462 72.2537 40.43L72.4457 41.47C72.243 41.566 72.0457 41.63 71.8537 41.662C71.6617 41.694 71.475 41.71 71.2937 41.71ZM76.6889 41.71C75.6862 41.71 74.9076 41.47 74.3529 40.99C73.8089 40.4993 73.5369 39.7687 73.5369 38.798V37.822C73.5369 37.2887 73.6116 36.8673 73.7609 36.558C73.9102 36.2487 74.0702 35.982 74.2409 35.758C74.4222 35.5127 74.5769 35.2993 74.7049 35.118C74.8436 34.9367 74.9129 34.718 74.9129 34.462C74.9129 34.238 74.8542 34.078 74.7369 33.982C74.6302 33.886 74.4916 33.838 74.3209 33.838C74.1929 33.838 74.0542 33.8593 73.9049 33.902C73.7662 33.9447 73.6276 33.998 73.4889 34.062L73.1689 33.038C73.3609 32.91 73.5956 32.8193 73.8729 32.766C74.1609 32.7127 74.4116 32.686 74.6249 32.686C75.2222 32.686 75.6436 32.8407 75.8889 33.15C76.1342 33.4487 76.2569 33.8327 76.2569 34.302C76.2569 34.6967 76.1876 35.022 76.0489 35.278C75.9209 35.534 75.7662 35.7847 75.5849 36.03C75.4036 36.2967 75.2542 36.5527 75.1369 36.798C75.0196 37.0433 74.9609 37.3633 74.9609 37.758V38.702C74.9609 39.1927 75.0409 39.5713 75.2009 39.838C75.3609 40.1047 75.5742 40.2913 75.8409 40.398C76.1076 40.494 76.3902 40.542 76.6889 40.542C77.7876 40.542 78.3369 40.03 78.3369 39.006V32.782H79.7609V39.086C79.7609 39.9073 79.4996 40.5527 78.9769 41.022C78.4649 41.4807 77.7022 41.71 76.6889 41.71ZM75.0363 31.39V30.686C75.2496 30.6433 75.4683 30.5847 75.6923 30.51C75.9163 30.4247 76.103 30.318 76.2523 30.19C76.4016 30.0513 76.4763 29.886 76.4763 29.694C76.4763 29.566 76.439 29.4593 76.3643 29.374C76.279 29.278 76.151 29.23 75.9803 29.23C75.8736 29.23 75.767 29.2513 75.6603 29.294C75.543 29.3367 75.4416 29.374 75.3563 29.406L75.0363 28.526C75.2496 28.3553 75.4896 28.2433 75.7563 28.19C76.0123 28.1367 76.2203 28.11 76.3803 28.11C76.807 28.11 77.143 28.2273 77.3883 28.462C77.623 28.6967 77.7403 28.9953 77.7403 29.358C77.7403 29.5393 77.7083 29.71 77.6443 29.87C77.5803 30.0193 77.5003 30.1527 77.4043 30.27H79.9963V31.39H75.0363ZM84.3509 41.55V35.326C84.3509 34.8033 84.2282 34.4193 83.9829 34.174C83.7482 33.9287 83.3482 33.806 82.7829 33.806C82.3989 33.806 82.0362 33.8593 81.6949 33.966C81.3642 34.062 81.0442 34.2007 80.7349 34.382V33.102C80.9482 32.9953 81.2522 32.8887 81.6469 32.782C82.0416 32.6753 82.5109 32.622 83.0549 32.622C83.8869 32.622 84.5482 32.8087 85.0389 33.182C85.5296 33.5553 85.7749 34.2007 85.7749 35.118V41.55H84.3509ZM90.5149 41.71C89.5762 41.71 88.8562 41.4967 88.3549 41.07C87.8642 40.6327 87.6189 40.0087 87.6189 39.198C87.6189 38.3127 87.9389 37.63 88.5789 37.15C89.2296 36.67 90.2802 36.3873 91.7309 36.302L93.2669 36.206V35.71C93.2669 35.0167 93.1069 34.526 92.7869 34.238C92.4776 33.9393 91.9549 33.79 91.2189 33.79C90.6856 33.79 90.1736 33.8647 89.6829 34.014C89.2029 34.1527 88.7442 34.35 88.3069 34.606V33.278C88.6162 33.118 89.0322 32.9687 89.5549 32.83C90.0882 32.6913 90.6856 32.622 91.3469 32.622C91.7736 32.622 92.1522 32.6593 92.4829 32.734C92.8242 32.8087 93.1069 32.9367 93.3309 33.118C93.5122 33.0327 93.6669 32.9153 93.7949 32.766C93.9229 32.6167 93.9869 32.43 93.9869 32.206H95.3789C95.3789 32.6113 95.2616 32.9527 95.0269 33.23C94.8029 33.5073 94.5149 33.7207 94.1629 33.87C94.3442 34.062 94.4722 34.3073 94.5469 34.606C94.6322 34.9047 94.6749 35.246 94.6749 35.63V41.55H93.2669V37.39L91.9229 37.486C90.8349 37.5607 90.0829 37.7313 89.6669 37.998C89.2616 38.2647 89.0589 38.654 89.0589 39.166C89.0589 39.646 89.2082 39.998 89.5069 40.222C89.8162 40.446 90.2429 40.558 90.7869 40.558C91.1389 40.558 91.4482 40.51 91.7149 40.414L91.9389 41.486C91.7362 41.5607 91.5122 41.614 91.2669 41.646C91.0322 41.6887 90.7816 41.71 90.5149 41.71ZM92.3565 45.79C91.6739 45.79 91.1565 45.6513 90.8045 45.374C90.4419 45.1073 90.2605 44.7233 90.2605 44.222V43.95C90.2605 43.7687 90.2179 43.6567 90.1325 43.614C90.0365 43.582 89.9085 43.5873 89.7485 43.63L89.6525 42.67C89.8019 42.6273 89.9512 42.6007 90.1005 42.59C90.2392 42.5793 90.3459 42.574 90.4205 42.574C90.8045 42.574 91.0819 42.6593 91.2525 42.83C91.4125 43.0007 91.4925 43.2407 91.4925 43.55V44.094C91.4925 44.2967 91.5565 44.4673 91.6845 44.606C91.8125 44.7447 92.0312 44.814 92.3405 44.814C92.6605 44.814 92.8845 44.7447 93.0125 44.606C93.1299 44.4673 93.1885 44.2967 93.1885 44.094V42.622H94.4365V44.174C94.4365 45.2513 93.7432 45.79 92.3565 45.79ZM92.7725 31.39V28.014H94.1805V31.39H92.7725ZM99.0312 41.71C98.4018 41.71 97.8152 41.6513 97.2712 41.534C96.7378 41.406 96.2845 41.2567 95.9112 41.086L96.3272 39.934C96.6685 40.0727 97.0738 40.206 97.5432 40.334C98.0232 40.462 98.5298 40.526 99.0632 40.526C99.6285 40.526 100.098 40.4193 100.471 40.206C100.844 39.9927 101.031 39.6833 101.031 39.278C101.031 38.9153 100.882 38.6167 100.583 38.382C100.284 38.1473 99.8045 37.9287 99.1432 37.726C98.4712 37.5127 97.9005 37.2887 97.4312 37.054C96.9725 36.8087 96.6205 36.5207 96.3752 36.19C96.1405 35.8487 96.0232 35.4273 96.0232 34.926C96.0232 34.2647 96.2952 33.7153 96.8392 33.278C97.3832 32.8407 98.2525 32.622 99.4472 32.622C99.9592 32.622 100.439 32.67 100.887 32.766C101.346 32.8513 101.703 32.974 101.959 33.134V34.334C101.692 34.206 101.324 34.0833 100.855 33.966C100.386 33.8487 99.9005 33.79 99.3992 33.79C98.6845 33.79 98.1778 33.902 97.8792 34.126C97.5912 34.3393 97.4472 34.5847 97.4472 34.862C97.4472 35.0967 97.5112 35.294 97.6392 35.454C97.7778 35.614 98.0072 35.7687 98.3272 35.918C98.6578 36.0673 99.1005 36.238 99.6552 36.43C100.167 36.6007 100.636 36.798 101.063 37.022C101.49 37.246 101.826 37.5287 102.071 37.87C102.327 38.2007 102.455 38.6273 102.455 39.15C102.455 39.598 102.343 40.0193 102.119 40.414C101.906 40.798 101.548 41.1127 101.047 41.358C100.546 41.5927 99.8738 41.71 99.0312 41.71ZM105.292 36.046C104.63 36.046 104.161 35.9073 103.884 35.63C103.606 35.342 103.468 35.022 103.468 34.67C103.468 34.3073 103.553 33.998 103.724 33.742L104.924 33.934C104.902 33.9873 104.876 34.062 104.844 34.158C104.822 34.254 104.812 34.35 104.812 34.446C104.812 34.5847 104.849 34.702 104.924 34.798C104.998 34.8833 105.137 34.926 105.34 34.926H107.628V36.046H105.292ZM105.292 40.526C104.63 40.526 104.161 40.3873 103.884 40.11C103.606 39.822 103.468 39.502 103.468 39.15C103.468 38.7873 103.553 38.478 103.724 38.222L104.924 38.414C104.902 38.4673 104.876 38.542 104.844 38.638C104.822 38.734 104.812 38.83 104.812 38.926C104.812 39.0647 104.849 39.182 104.924 39.278C104.998 39.3633 105.137 39.406 105.34 39.406H107.628V40.526H105.292ZM112.826 41.71C111.567 41.71 110.666 41.422 110.122 40.846C109.578 40.27 109.306 39.4487 109.306 38.382V32.782H110.73V38.398C110.73 39.8167 111.429 40.526 112.826 40.526C113.551 40.526 114.085 40.35 114.426 39.998C114.778 39.646 114.954 39.1127 114.954 38.398V32.782H116.378V38.382C116.378 39.4487 116.101 40.27 115.546 40.846C115.002 41.422 114.095 41.71 112.826 41.71ZM122.242 41.71C120.983 41.71 120.082 41.422 119.538 40.846C118.994 40.27 118.722 39.4487 118.722 38.382V32.782H120.146V38.398C120.146 39.8167 120.845 40.526 122.242 40.526C122.967 40.526 123.501 40.35 123.842 39.998C124.194 39.646 124.37 39.1127 124.37 38.398V32.782H125.794V38.382C125.794 39.4487 125.517 40.27 124.962 40.846C124.418 41.422 123.511 41.71 122.242 41.71ZM131.13 41.71C130.277 41.71 129.605 41.5127 129.114 41.118C128.634 40.7127 128.293 40.1687 128.09 39.486C127.898 38.8033 127.802 38.0513 127.802 37.23C127.802 36.0247 127.968 35.0913 128.298 34.43C128.629 33.758 129.088 33.2887 129.674 33.022C130.272 32.7553 130.96 32.622 131.738 32.622C133.018 32.622 133.946 32.8993 134.522 33.454C135.109 34.0087 135.402 34.7607 135.402 35.71V41.55H133.994V35.838C133.994 35.1767 133.829 34.6753 133.498 34.334C133.168 33.982 132.597 33.806 131.786 33.806C131.296 33.806 130.853 33.8967 130.458 34.078C130.074 34.2593 129.77 34.5953 129.546 35.086C129.333 35.5767 129.226 36.2967 129.226 37.246C129.226 37.8647 129.285 38.4247 129.402 38.926C129.53 39.4167 129.749 39.806 130.058 40.094C130.368 40.382 130.8 40.526 131.354 40.526C131.514 40.526 131.664 40.5153 131.802 40.494C131.941 40.4727 132.074 40.4407 132.202 40.398L132.346 41.502C132.176 41.5767 131.978 41.63 131.754 41.662C131.541 41.694 131.333 41.71 131.13 41.71ZM130.574 31.39V30.686C130.787 30.6433 131.006 30.5847 131.23 30.51C131.454 30.4247 131.64 30.318 131.79 30.19C131.939 30.0513 132.014 29.886 132.014 29.694C132.014 29.566 131.976 29.4593 131.902 29.374C131.816 29.278 131.688 29.23 131.518 29.23C131.411 29.23 131.304 29.2513 131.198 29.294C131.08 29.3367 130.979 29.374 130.894 29.406L130.574 28.526C130.787 28.3553 131.027 28.2433 131.294 28.19C131.55 28.1367 131.758 28.11 131.918 28.11C132.344 28.11 132.68 28.2273 132.926 28.462C133.16 28.6967 133.278 28.9953 133.278 29.358C133.278 29.5393 133.246 29.71 133.182 29.87C133.118 30.0193 133.038 30.1527 132.942 30.27H135.534V31.39H130.574ZM139.278 41.71C138.862 41.71 138.456 41.6673 138.062 41.582C137.678 41.4967 137.267 41.3367 136.83 41.102L137.278 40.014C137.512 40.1527 137.779 40.2753 138.078 40.382C138.376 40.478 138.723 40.526 139.118 40.526C139.907 40.526 140.52 40.238 140.958 39.662C141.406 39.0753 141.63 38.2327 141.63 37.134C141.63 36.0567 141.4 35.2353 140.942 34.67C140.494 34.094 139.8 33.806 138.862 33.806C138.52 33.806 138.174 33.8433 137.822 33.918C137.47 33.9927 137.16 34.1047 136.894 34.254V33.054C137.203 32.894 137.539 32.782 137.902 32.718C138.275 32.654 138.648 32.622 139.022 32.622C139.982 32.622 140.76 32.814 141.358 33.198C141.955 33.5713 142.392 34.094 142.67 34.766C142.947 35.438 143.086 36.2273 143.086 37.134C143.086 38.542 142.766 39.6567 142.126 40.478C141.496 41.2993 140.547 41.71 139.278 41.71ZM148.529 41.694C147.238 41.694 146.326 41.4487 145.793 40.958C145.259 40.4673 144.993 39.806 144.993 38.974C144.993 38.4833 145.062 38.094 145.201 37.806C145.35 37.5073 145.531 37.2887 145.745 37.15C145.969 37.0113 146.198 36.9207 146.433 36.878V36.814C146.219 36.75 145.995 36.6433 145.761 36.494C145.526 36.3447 145.329 36.1367 145.169 35.87C145.019 35.6033 144.945 35.2673 144.945 34.862C144.945 34.4887 145.03 34.1367 145.201 33.806C145.371 33.4753 145.649 33.2033 146.033 32.99C146.417 32.7767 146.923 32.67 147.553 32.67C147.809 32.67 148.075 32.6913 148.353 32.734C148.63 32.766 148.843 32.8247 148.993 32.91L148.737 34.014C148.619 33.9713 148.465 33.934 148.273 33.902C148.091 33.8593 147.899 33.838 147.697 33.838C147.249 33.838 146.918 33.9447 146.705 34.158C146.491 34.3607 146.385 34.6327 146.385 34.974C146.385 35.3473 146.475 35.63 146.657 35.822C146.849 36.014 147.089 36.1473 147.377 36.222C147.675 36.286 147.985 36.318 148.305 36.318H148.609V37.358H148.305C147.665 37.358 147.19 37.4753 146.881 37.71C146.582 37.934 146.433 38.3127 146.433 38.846C146.433 39.1553 146.491 39.438 146.609 39.694C146.737 39.95 146.95 40.1527 147.249 40.302C147.558 40.4513 147.985 40.526 148.529 40.526C149.339 40.526 149.894 40.3607 150.193 40.03C150.491 39.6887 150.641 39.2247 150.641 38.638V32.782H152.065V38.542C152.065 39.662 151.777 40.4673 151.201 40.958C150.635 41.4487 149.745 41.694 148.529 41.694ZM160.454 31.742V35.646H166.07V37.022H160.454V41.55H158.854V30.35H166.758V31.742H160.454ZM171.337 32.99C172.51 32.99 173.406 33.278 174.025 33.854C174.654 34.43 174.969 35.2887 174.969 36.43V41.55H173.513V40.43C173.257 40.8247 172.889 41.1287 172.409 41.342C171.94 41.5447 171.38 41.646 170.729 41.646C169.78 41.646 169.017 41.4167 168.441 40.958C167.876 40.4993 167.593 39.8967 167.593 39.15C167.593 38.4033 167.865 37.806 168.409 37.358C168.953 36.8993 169.817 36.67 171.001 36.67H173.433V36.366C173.433 35.7047 173.241 35.198 172.857 34.846C172.473 34.494 171.908 34.318 171.161 34.318C170.66 34.318 170.169 34.4033 169.689 34.574C169.209 34.734 168.804 34.9527 168.473 35.23L167.833 34.078C168.27 33.726 168.793 33.4593 169.401 33.278C170.009 33.086 170.654 32.99 171.337 32.99ZM170.985 40.462C171.572 40.462 172.078 40.334 172.505 40.078C172.932 39.8113 173.241 39.438 173.433 38.958V37.774H171.065C169.764 37.774 169.113 38.2113 169.113 39.086C169.113 39.5127 169.278 39.8487 169.609 40.094C169.94 40.3393 170.398 40.462 170.985 40.462ZM181.314 41.646C180.45 41.646 179.677 41.4593 178.994 41.086C178.322 40.7127 177.794 40.2007 177.41 39.55C177.026 38.8887 176.834 38.142 176.834 37.31C176.834 36.478 177.026 35.7367 177.41 35.086C177.794 34.4247 178.322 33.9127 178.994 33.55C179.677 33.1767 180.45 32.99 181.314 32.99C182.082 32.99 182.765 33.1447 183.362 33.454C183.97 33.7633 184.44 34.2113 184.77 34.798L183.602 35.55C183.336 35.1447 183.005 34.8407 182.61 34.638C182.216 34.4353 181.778 34.334 181.298 34.334C180.744 34.334 180.242 34.4567 179.794 34.702C179.357 34.9473 179.01 35.2993 178.754 35.758C178.509 36.206 178.386 36.7233 178.386 37.31C178.386 37.9073 178.509 38.4353 178.754 38.894C179.01 39.342 179.357 39.6887 179.794 39.934C180.242 40.1793 180.744 40.302 181.298 40.302C181.778 40.302 182.216 40.2007 182.61 39.998C183.005 39.7953 183.336 39.4913 183.602 39.086L184.77 39.822C184.44 40.4087 183.97 40.862 183.362 41.182C182.765 41.4913 182.082 41.646 181.314 41.646ZM194.058 37.358C194.058 37.4753 194.047 37.63 194.026 37.822H187.146C187.242 38.5687 187.567 39.1713 188.122 39.63C188.687 40.078 189.386 40.302 190.218 40.302C191.231 40.302 192.047 39.9607 192.666 39.278L193.514 40.27C193.13 40.718 192.65 41.0593 192.074 41.294C191.509 41.5287 190.874 41.646 190.17 41.646C189.274 41.646 188.479 41.4647 187.786 41.102C187.093 40.7287 186.554 40.2113 186.17 39.55C185.797 38.8887 185.61 38.142 185.61 37.31C185.61 36.4887 185.791 35.7473 186.154 35.086C186.527 34.4247 187.034 33.9127 187.674 33.55C188.325 33.1767 189.055 32.99 189.866 32.99C190.677 32.99 191.397 33.1767 192.026 33.55C192.666 33.9127 193.162 34.4247 193.514 35.086C193.877 35.7473 194.058 36.5047 194.058 37.358ZM189.866 34.286C189.13 34.286 188.511 34.51 188.01 34.958C187.519 35.406 187.231 35.9927 187.146 36.718H192.586C192.501 36.0033 192.207 35.422 191.706 34.974C191.215 34.5153 190.602 34.286 189.866 34.286ZM200.447 32.99C201.268 32.99 202.004 33.1713 202.655 33.534C203.306 33.8967 203.812 34.4033 204.175 35.054C204.548 35.7047 204.735 36.4567 204.735 37.31C204.735 38.1633 204.548 38.9207 204.175 39.582C203.812 40.2327 203.306 40.7393 202.655 41.102C202.004 41.4647 201.268 41.646 200.447 41.646C199.818 41.646 199.242 41.5233 198.719 41.278C198.196 41.0327 197.764 40.6753 197.423 40.206V41.55H195.951V29.678H197.487V34.35C197.828 33.902 198.255 33.566 198.767 33.342C199.279 33.1073 199.839 32.99 200.447 32.99ZM200.319 40.302C200.863 40.302 201.348 40.1793 201.775 39.934C202.212 39.678 202.554 39.326 202.799 38.878C203.055 38.4193 203.183 37.8967 203.183 37.31C203.183 36.7233 203.055 36.206 202.799 35.758C202.554 35.2993 202.212 34.9473 201.775 34.702C201.348 34.4567 200.863 34.334 200.319 34.334C199.786 34.334 199.3 34.4567 198.863 34.702C198.426 34.9473 198.084 35.2993 197.839 35.758C197.594 36.206 197.471 36.7233 197.471 37.31C197.471 37.8967 197.594 38.4193 197.839 38.878C198.084 39.326 198.426 39.678 198.863 39.934C199.3 40.1793 199.786 40.302 200.319 40.302ZM210.249 41.646C209.406 41.646 208.649 41.4593 207.977 41.086C207.305 40.7127 206.777 40.2007 206.393 39.55C206.02 38.8887 205.833 38.142 205.833 37.31C205.833 36.478 206.02 35.7367 206.393 35.086C206.777 34.4247 207.305 33.9127 207.977 33.55C208.649 33.1767 209.406 32.99 210.249 32.99C211.092 32.99 211.844 33.1767 212.505 33.55C213.177 33.9127 213.7 34.4247 214.073 35.086C214.457 35.7367 214.649 36.478 214.649 37.31C214.649 38.142 214.457 38.8887 214.073 39.55C213.7 40.2007 213.177 40.7127 212.505 41.086C211.844 41.4593 211.092 41.646 210.249 41.646ZM210.249 40.302C210.793 40.302 211.278 40.1793 211.705 39.934C212.142 39.678 212.484 39.326 212.729 38.878C212.974 38.4193 213.097 37.8967 213.097 37.31C213.097 36.7233 212.974 36.206 212.729 35.758C212.484 35.2993 212.142 34.9473 211.705 34.702C211.278 34.4567 210.793 34.334 210.249 34.334C209.705 34.334 209.214 34.4567 208.777 34.702C208.35 34.9473 208.009 35.2993 207.753 35.758C207.508 36.206 207.385 36.7233 207.385 37.31C207.385 37.8967 207.508 38.4193 207.753 38.878C208.009 39.326 208.35 39.678 208.777 39.934C209.214 40.1793 209.705 40.302 210.249 40.302ZM220.165 41.646C219.323 41.646 218.565 41.4593 217.893 41.086C217.221 40.7127 216.693 40.2007 216.309 39.55C215.936 38.8887 215.749 38.142 215.749 37.31C215.749 36.478 215.936 35.7367 216.309 35.086C216.693 34.4247 217.221 33.9127 217.893 33.55C218.565 33.1767 219.323 32.99 220.165 32.99C221.008 32.99 221.76 33.1767 222.421 33.55C223.093 33.9127 223.616 34.4247 223.989 35.086C224.373 35.7367 224.565 36.478 224.565 37.31C224.565 38.142 224.373 38.8887 223.989 39.55C223.616 40.2007 223.093 40.7127 222.421 41.086C221.76 41.4593 221.008 41.646 220.165 41.646ZM220.165 40.302C220.709 40.302 221.195 40.1793 221.621 39.934C222.059 39.678 222.4 39.326 222.645 38.878C222.891 38.4193 223.013 37.8967 223.013 37.31C223.013 36.7233 222.891 36.206 222.645 35.758C222.4 35.2993 222.059 34.9473 221.621 34.702C221.195 34.4567 220.709 34.334 220.165 34.334C219.621 34.334 219.131 34.4567 218.693 34.702C218.267 34.9473 217.925 35.2993 217.669 35.758C217.424 36.206 217.301 36.7233 217.301 37.31C217.301 37.8967 217.424 38.4193 217.669 38.878C217.925 39.326 218.267 39.678 218.693 39.934C219.131 40.1793 219.621 40.302 220.165 40.302ZM229.746 37.598L227.986 39.23V41.55H226.45V29.678H227.986V37.294L232.61 33.07H234.466L230.898 36.574L234.818 41.55H232.93L229.746 37.598Z" fill="white"/>
<path fill-rule="evenodd" clip-rule="evenodd" d="M273.01 39.4398C272.886 38.9787 272.584 38.5855 272.171 38.3469C271.757 38.1082 271.266 38.0436 270.805 38.1672C270.343 38.2909 269.95 38.5926 269.712 39.0062C269.473 39.4197 269.408 39.9111 269.532 40.3722L269.998 42.111C270.122 42.5722 270.424 42.9653 270.837 43.204C271.251 43.4427 271.742 43.5073 272.203 43.3836C272.664 43.26 273.058 42.9582 273.296 42.5447C273.535 42.1312 273.599 41.6398 273.476 41.1786L273.008 39.4398H273.01ZM265.372 44.532C265.143 44.4697 264.905 44.4531 264.669 44.4833C264.434 44.5135 264.207 44.5899 264.002 44.708C263.796 44.8261 263.616 44.9837 263.472 45.1717C263.327 45.3597 263.221 45.5743 263.16 45.8033C263.099 46.0324 263.083 46.2713 263.115 46.5063C263.146 46.7413 263.223 46.9678 263.342 47.1728C263.461 47.3778 263.62 47.5573 263.808 47.7009C263.997 47.8445 264.212 47.9494 264.442 48.0096L266.18 48.4758C266.641 48.5967 267.13 48.5304 267.542 48.2913C267.953 48.0522 268.253 47.6599 268.376 47.2002C268.499 46.7404 268.435 46.2506 268.198 45.838C267.961 45.4253 267.57 45.1234 267.111 44.9982L265.372 44.5302V44.532ZM281.237 43.5078C281.405 43.3406 281.537 43.1421 281.627 42.9236C281.718 42.7051 281.764 42.471 281.764 42.2346C281.764 41.9982 281.718 41.7641 281.627 41.5457C281.536 41.3273 281.404 41.1288 281.236 40.9617C281.069 40.7946 280.871 40.6621 280.652 40.5717C280.434 40.4813 280.2 40.4348 279.963 40.4349C279.727 40.4349 279.493 40.4816 279.274 40.5721C279.056 40.6627 278.858 40.7954 278.69 40.9626L277.418 42.2352C277.251 42.4025 277.118 42.601 277.027 42.8195C276.937 43.038 276.89 43.2722 276.89 43.5087C276.89 43.7452 276.937 43.9794 277.027 44.1979C277.118 44.4164 277.251 44.615 277.418 44.7822C277.585 44.9495 277.784 45.0821 278.002 45.1726C278.221 45.2631 278.455 45.3097 278.691 45.3097C278.928 45.3097 279.162 45.2631 279.381 45.1726C279.599 45.0821 279.798 44.9495 279.965 44.7822L281.237 43.5078V43.5078ZM268.51 56.2374L269.782 54.9648C270.12 54.6273 270.31 54.1693 270.311 53.6917C270.311 53.214 270.122 52.7558 269.784 52.4178C269.446 52.0798 268.989 51.8898 268.511 51.8894C268.033 51.8891 267.575 52.0785 267.237 52.416L265.963 53.6886C265.625 54.0264 265.435 54.4845 265.435 54.9621C265.435 55.4398 265.625 55.8979 265.963 56.2356C266.3 56.5734 266.758 56.7631 267.236 56.7631C267.714 56.7631 268.172 56.5734 268.51 56.2356V56.2374ZM274.27 46.9296C273.942 46.7987 273.584 46.7666 273.239 46.8374C272.894 46.9082 272.577 47.0788 272.328 47.3279C272.079 47.5771 271.908 47.8939 271.837 48.239C271.767 48.5842 271.799 48.9425 271.93 49.2696L279.13 67.2696C279.259 67.5918 279.478 67.8698 279.761 68.0701C280.045 68.2705 280.38 68.3847 280.727 68.399C281.073 68.4132 281.417 68.327 281.716 68.1506C282.014 67.9741 282.256 67.7151 282.411 67.4046L284.895 62.4384L290.327 67.8744C290.665 68.2119 291.123 68.4015 291.601 68.4013C292.078 68.4011 292.536 68.2113 292.873 67.8735C293.211 67.5358 293.401 67.0778 293.4 66.6003C293.4 66.1228 293.21 65.6649 292.873 65.3274L287.438 59.8914L292.406 57.4092C292.716 57.2538 292.975 57.0122 293.151 56.7135C293.326 56.4148 293.412 56.0716 293.398 55.7252C293.383 55.3788 293.269 55.044 293.069 54.761C292.869 54.4779 292.591 54.2587 292.27 54.1296L274.27 46.9296V46.9296Z" fill="black"/>
</svg>
