<svg width="384" height="446" viewBox="0 0 384 446" fill="none" xmlns="http://www.w3.org/2000/svg">
<path d="M94.1199 330.168C119.536 330.168 140.139 325.614 140.139 319.997C140.139 314.38 119.536 309.827 94.1199 309.827C68.704 309.827 48.1004 314.38 48.1004 319.997C48.1004 325.614 68.704 330.168 94.1199 330.168Z" fill="black"/>
<path d="M94.1199 319.997L68.2699 400.887" stroke="black" stroke-width="4" stroke-miterlimit="10" stroke-linecap="round"/>
<path d="M94.1198 319.997L119.97 400.887" stroke="black" stroke-width="4" stroke-miterlimit="10" stroke-linecap="round"/>
<path d="M76.7577 374.327L105.575 355.853" stroke="black" stroke-width="2" stroke-miterlimit="10" stroke-linecap="round"/>
<path d="M82.5475 355.853L111.373 374.327" stroke="black" stroke-width="2" stroke-miterlimit="10" stroke-linecap="round"/>
<path d="M139.41 232.437C139.293 236.024 139.344 248.585 138.754 253.959" stroke="#1F161E" stroke-miterlimit="10" stroke-linecap="round"/>
<path d="M234.807 167H197.209C195.989 167 195 167.989 195 169.209V181.487C195 182.707 195.989 183.696 197.209 183.696H234.807C236.027 183.696 237.016 182.707 237.016 181.487V169.209C237.016 167.989 236.027 167 234.807 167Z" fill="#78E5E1"/>
<path d="M216.001 195.142L221.061 179.817H210.94L216.001 195.142Z" fill="#78E5E1"/>
<path d="M205.974 171.448L201.73 178.789H210.211L205.974 171.448Z" fill="white"/>
<path d="M226.035 178.789L230.278 171.448H221.791L226.035 178.789Z" fill="white"/>
<path d="M216.001 178.308C217.761 178.308 219.187 176.881 219.187 175.122C219.187 173.362 217.761 171.936 216.001 171.936C214.241 171.936 212.814 173.362 212.814 175.122C212.814 176.881 214.241 178.308 216.001 178.308Z" fill="white"/>
<path d="M260.608 92.1628H235.932C234.865 92.1628 234 93.0278 234 94.0949V109.012C234 110.079 234.865 110.944 235.932 110.944H260.608C261.676 110.944 262.541 110.079 262.541 109.012V94.0949C262.541 93.0278 261.676 92.1628 260.608 92.1628Z" fill="#D8D8D8"/>
<path d="M234.897 92.7534L248.27 101.553" stroke="#969696" stroke-width="0.82" stroke-linecap="round" stroke-linejoin="round"/>
<path d="M262.541 92.1628L248.27 101.553" stroke="#969696" stroke-width="0.82" stroke-linecap="round" stroke-linejoin="round"/>
<path d="M262.541 96.2456C264.796 96.2456 266.624 94.4177 266.624 92.1628C266.624 89.908 264.796 88.0801 262.541 88.0801C260.285 88.0801 258.457 89.908 258.457 92.1628C258.457 94.4177 260.285 96.2456 262.541 96.2456Z" fill="#FBDC8E"/>
<path d="M263.264 95H262.601V90.605L261.272 91.0934V90.4945L263.161 89.7852H263.264V95Z" fill="white"/>
<path d="M294.347 165.885H298.722C299.182 165.883 299.622 165.699 299.947 165.374C300.272 165.049 300.456 164.609 300.457 164.149V137.261C300.458 137.034 300.413 136.808 300.326 136.598C300.238 136.387 300.109 136.197 299.947 136.037L294.42 130.51C294.259 130.349 294.068 130.221 293.858 130.133C293.648 130.045 293.422 130 293.195 130H276.868C276.408 130.002 275.968 130.185 275.643 130.51C275.318 130.835 275.134 131.276 275.133 131.735V134.331" fill="#FBDC8E"/>
<path d="M286.997 134.331H270.954C270.697 134.331 270.442 134.381 270.205 134.48C269.967 134.579 269.751 134.723 269.57 134.905C269.388 135.088 269.244 135.304 269.147 135.542C269.049 135.78 268.999 136.035 269 136.292V168.225C269 168.744 269.206 169.241 269.572 169.609C269.938 169.977 270.435 170.184 270.954 170.186H292.385C292.904 170.184 293.401 169.977 293.768 169.609C294.134 169.241 294.339 168.744 294.339 168.225V141.687C294.34 141.43 294.291 141.175 294.193 140.938C294.096 140.7 293.952 140.484 293.771 140.302L288.375 134.907C288.01 134.54 287.514 134.333 286.997 134.331Z" fill="#D8D8D8"/>
<path d="M294.347 140.921H288.9C288.61 140.921 288.331 140.806 288.126 140.601C287.921 140.396 287.806 140.118 287.806 139.828V134.331" fill="#969696"/>
<path d="M300.479 136.598H295.032C294.741 136.596 294.462 136.48 294.256 136.273C294.05 136.067 293.933 135.789 293.931 135.497V130" fill="#64CCC4"/>
<path d="M277.714 137.626H272.551C272.173 137.626 271.866 137.933 271.866 138.311C271.866 138.69 272.173 138.997 272.551 138.997H277.714C278.092 138.997 278.399 138.69 278.399 138.311C278.399 137.933 278.092 137.626 277.714 137.626Z" fill="#969696"/>
<path d="M277.714 140.921H272.551C272.173 140.921 271.866 141.228 271.866 141.607C271.866 141.985 272.173 142.292 272.551 142.292H277.714C278.092 142.292 278.399 141.985 278.399 141.607C278.399 141.228 278.092 140.921 277.714 140.921Z" fill="#969696"/>
<path d="M291.102 146.557H272.252C271.874 146.557 271.567 146.864 271.567 147.242C271.567 147.621 271.874 147.928 272.252 147.928H291.102C291.48 147.928 291.787 147.621 291.787 147.242C291.787 146.864 291.48 146.557 291.102 146.557Z" fill="#969696"/>
<path d="M291.102 149.794H272.252C271.874 149.794 271.567 150.101 271.567 150.479C271.567 150.858 271.874 151.165 272.252 151.165H291.102C291.48 151.165 291.787 150.858 291.787 150.479C291.787 150.101 291.48 149.794 291.102 149.794Z" fill="#969696"/>
<path d="M291.102 153.031H272.252C271.874 153.031 271.567 153.338 271.567 153.716C271.567 154.095 271.874 154.402 272.252 154.402H291.102C291.48 154.402 291.787 154.095 291.787 153.716C291.787 153.338 291.48 153.031 291.102 153.031Z" fill="#969696"/>
<path d="M207.373 110H180.75C175.918 110 172 113.917 172 118.749V131.733C172 136.565 175.918 140.482 180.75 140.482H207.373C212.206 140.482 216.124 136.565 216.124 131.733V118.749C216.124 113.917 212.206 110 207.373 110Z" fill="#D8D8D8"/>
<path d="M187.765 114.906H181.13V135.576H187.765V114.906Z" fill="#AB8DE5"/>
<path d="M197.383 128.657H190.748V135.583H197.383V128.657Z" fill="#AB8DE5"/>
<path d="M206.994 122.824H200.358V135.576H206.994V122.824Z" fill="#AB8DE5"/>
<path d="M205.796 391.241C205.796 392.969 204.782 403.869 206.802 404.875C208.822 405.881 231.026 406.493 232.032 405.48C233.039 404.467 233.644 402.352 232.762 401.747C231.879 401.142 223.282 399.429 222.115 398.62C220.949 397.81 219.337 393.516 219.928 391.241" fill="#1F161E"/>
<path d="M139.41 248.76L151.908 244.277C151.369 221.479 146.038 170.539 138.469 162.964C136.69 161.192 101.499 158.101 95.2209 158.101C57.7549 158.101 46.642 162.373 43.82 165.202C35.0696 173.951 32.3425 214.487 32.3425 228.682C32.3425 242.877 72.4482 250.24 72.4482 250.24L119.459 253.47C119.459 253.47 129.77 254.535 138.688 255.059C138.885 252.325 139.41 248.76 139.41 248.76Z" fill="white"/>
<path d="M176.65 261.978C180.07 260.965 214.08 255.417 221.488 262.707C228.897 269.998 252.216 374.524 252.216 376.93H233.44L208.093 322.389" fill="#1F161E"/>
<path d="M52.8256 252.683C51.9724 256.948 46.8462 261.526 46.8462 284.761C46.8462 316.891 73.1701 317.569 82.6204 317.569C112.065 317.569 159.704 308.821 162.919 307.217C165.056 310.789 204.381 391.059 204.564 392.853H222.669C222.669 392.853 211.447 272.761 191.197 259.142C184.62 254.768 67.9272 250.087 52.8256 252.683Z" fill="#55B79D"/>
<path d="M158.85 229.192C154.096 229.192 150.173 230.322 139.41 232.436L138.849 253.025C149.057 248.913 151.427 243.197 154.388 243.197C161.782 243.197 165.647 247.01 170.014 247.01C173.062 247.01 178.546 244.619 178.546 241.368C178.546 234.558 164.742 229.192 158.85 229.192Z" fill="#F8CDBA"/>
<path d="M234.504 375.486C234.504 377.222 233.491 388.114 235.511 389.127C237.53 390.141 259.734 390.738 260.741 389.732C261.747 388.726 262.352 386.605 261.47 385.999C260.588 385.394 251.99 383.674 250.824 382.864C249.657 382.055 248.045 377.761 248.636 375.486" fill="#1F161E"/>
<path d="M101.849 162.949C101.849 165.698 85.8872 165.778 85.8872 162.949V140.596H101.849V162.949Z" fill="#F8CDBA"/>
<path d="M96.6501 147.967C95.1918 147.967 85.8872 152.079 85.8872 154.375V142.244C88.2061 142.244 96.6501 147.967 96.6501 147.967Z" fill="#1F161E"/>
<path d="M99.7346 148.915C110.407 148.915 119.058 140.265 119.058 129.595C119.058 118.924 110.407 110.274 99.7346 110.274C89.0625 110.274 80.411 118.924 80.411 129.595C80.411 140.265 89.0625 148.915 99.7346 148.915Z" fill="#F8CDBA"/>
<path d="M119.678 114.43C117.286 118.228 112.284 119.971 106.866 119.971C102.25 119.971 95.5272 118.629 90.7437 121.356C88.155 122.814 85.1872 126.131 84.5893 132.773C84.5893 133.911 83.2986 138.321 83.2986 139.743C83.2986 140.713 82.2048 141.347 80.3818 141.347C79.4412 141.347 77.5817 139.823 77.5817 137.498C77.5817 134.807 78.6536 133.852 78.6536 131.57C78.6536 129.288 75.8608 127.094 75.8608 120.751C75.8608 111.616 81.6944 105.987 85.8216 105.987C89.5842 105.987 90.7655 106.862 91.2395 107.234C91.2395 98.9301 102.177 95.1389 106.516 95.1389C111.475 95.1389 113.808 97.173 113.808 99.7612C113.808 103.888 111.839 107.395 110.84 108.182C113.101 106.148 116.039 105.028 119.08 105.04C124.761 105.04 126.671 108.772 126.671 111.324C126.671 116.872 120.014 122.012 117.534 122.012C116.911 120.693 116.179 119.427 115.347 118.228" fill="#1F161E"/>
<path d="M85.1872 136.266C87.4626 136.266 89.3072 134.421 89.3072 132.146C89.3072 129.871 87.4626 128.027 85.1872 128.027C82.9118 128.027 81.0673 129.871 81.0673 132.146C81.0673 134.421 82.9118 136.266 85.1872 136.266Z" fill="#F8CDBA"/>
<path d="M119.248 133.138C121.012 133.138 122.442 132.394 122.442 131.476C122.442 130.557 121.012 129.813 119.248 129.813C117.484 129.813 116.054 130.557 116.054 131.476C116.054 132.394 117.484 133.138 119.248 133.138Z" fill="#FA9E9F"/>
<path d="M99.1586 133.138C100.923 133.138 102.352 132.394 102.352 131.476C102.352 130.557 100.923 129.813 99.1586 129.813C97.3947 129.813 95.9647 130.557 95.9647 131.476C95.9647 132.394 97.3947 133.138 99.1586 133.138Z" fill="#FA9E9F"/>
<path d="M111.445 128.027C112.043 128.88 115.091 132.46 111.876 133.911" stroke="#1F161E" stroke-miterlimit="10" stroke-linecap="round"/>
<path d="M105.437 138.088C104.474 138.088 102.994 136.893 102.214 135.821" stroke="#1F161E" stroke-miterlimit="10" stroke-linecap="round"/>
<path d="M130.915 189.976C132.373 193.074 139.41 222.966 139.41 232.436" stroke="#1F161E" stroke-miterlimit="10" stroke-linecap="round"/>
<path d="M32.3425 226.276C32.3425 259.879 32.656 269.626 46.1461 269.626C77.239 269.626 124.243 244.109 132.621 244.109C140.023 244.109 143.887 247.929 148.255 247.929C151.296 247.929 156.779 245.53 156.779 242.286C156.779 235.469 142.976 230.103 137.091 230.103C123.842 230.103 70.9679 242.877 69.6772 242.877C68.3865 242.877 66.2135 242.315 66.2135 240.143C66.2135 236.198 68.7949 227.085 69.1303 226.29L32.3425 226.276Z" fill="#F8CDBA"/>
<path d="M76.8963 196.968C76.0067 199.527 69.072 225.97 68.2699 229.192" stroke="#1F161E" stroke-miterlimit="10" stroke-linecap="round"/>
<path d="M340.163 401.497C340.688 403.491 342.729 404.682 344.723 404.158C346.717 403.634 347.909 401.592 347.385 399.599L310.051 257.619C309.527 255.625 307.485 254.434 305.491 254.958C303.497 255.482 302.305 257.523 302.829 259.517L340.163 401.497Z" fill="#969696"/>
<path d="M302.459 259.523C302.983 257.529 301.791 255.488 299.797 254.964C297.803 254.44 295.761 255.631 295.237 257.625L257.903 399.605C257.379 401.599 258.571 403.64 260.565 404.164C262.559 404.688 264.601 403.497 265.125 401.503L302.459 259.523Z" fill="#969696"/>
<path d="M250.942 259.522C251.466 257.528 250.275 255.487 248.281 254.963C246.286 254.439 244.245 255.63 243.721 257.624L206.387 399.604C205.863 401.598 207.054 403.639 209.048 404.163C211.042 404.687 213.084 403.496 213.608 401.502L250.942 259.522Z" fill="#D8D8D8"/>
<path d="M287.998 398.876C288.513 400.876 290.552 402.079 292.552 401.564C294.553 401.049 295.756 399.01 295.241 397.01L258.533 254.61C258.017 252.61 255.978 251.407 253.978 251.922C251.978 252.437 250.775 254.476 251.29 256.476L287.998 398.876Z" fill="#D8D8D8"/>
<path d="M40.6272 259.526C41.1514 257.532 39.9598 255.491 37.9657 254.967C35.9715 254.443 33.9299 255.634 33.4056 257.628L-3.92818 399.608C-4.45246 401.601 -3.26088 403.643 -1.2667 404.167C0.727473 404.691 2.76909 403.5 3.29337 401.506L40.6272 259.526Z" fill="#969696"/>
<path d="M77.6976 401.506C78.2219 403.5 80.2635 404.691 82.2577 404.167C84.2519 403.643 85.4435 401.602 84.9192 399.608L47.5854 257.628C47.0611 255.634 45.0195 254.443 43.0253 254.967C41.0311 255.491 39.8395 257.532 40.3638 259.526L77.6976 401.506Z" fill="#969696"/>
<path d="M325.442 247.951H-35.633C-37.4574 247.951 -38.9363 249.43 -38.9363 251.254V255.694C-38.9363 257.518 -37.4574 258.996 -35.633 258.996H325.442C327.266 258.996 328.745 257.518 328.745 255.694V251.254C328.745 249.43 327.266 247.951 325.442 247.951Z" fill="#D8D8D8"/>
<path d="M24.3386 401.506C24.8628 403.5 26.9045 404.692 28.8986 404.167C30.8928 403.643 32.0844 401.602 31.5601 399.608L-5.7737 257.628C-6.29798 255.634 -8.33959 254.443 -10.3338 254.967C-12.3279 255.491 -13.5195 257.533 -12.9953 259.527L24.3386 401.506Z" fill="#D8D8D8"/>
<path d="M231.383 247.951H163.926L176.147 205.928C176.452 204.914 177.077 204.026 177.929 203.396C178.781 202.767 179.813 202.43 180.872 202.435H238.114C238.866 202.423 239.61 202.587 240.287 202.913C240.965 203.24 241.557 203.72 242.016 204.315C242.475 204.911 242.788 205.606 242.931 206.344C243.074 207.082 243.042 207.843 242.839 208.567L231.383 247.951Z" fill="black"/>
<path d="M205.934 229.316C208.214 229.316 210.062 227.469 210.062 225.19C210.062 222.91 208.214 221.063 205.934 221.063C203.655 221.063 201.807 222.91 201.807 225.19C201.807 227.469 203.655 229.316 205.934 229.316Z" fill="white"/>
<path d="M171.939 244.998H124.607V247.951H171.939V244.998Z" fill="black"/>
<path d="M382.359 78.6165H275.897C275.402 78.6165 275 79.0179 275 79.5132V80.0673C275 80.5626 275.402 80.964 275.897 80.964H382.359C382.855 80.964 383.256 80.5626 383.256 80.0673V79.5132C383.256 79.0179 382.855 78.6165 382.359 78.6165Z" fill="#D8D8D8"/>
<path d="M320.866 32H314.398C313.367 32 312.532 32.8356 312.532 33.8664V76.75C312.532 77.7808 313.367 78.6164 314.398 78.6164H320.866C321.897 78.6164 322.733 77.7808 322.733 76.75V33.8664C322.733 32.8356 321.897 32 320.866 32Z" fill="#969696"/>
<path d="M326.284 42.9287H324.286C323.428 42.9287 322.733 43.624 322.733 44.4816V77.0635C322.733 77.9212 323.428 78.6165 324.286 78.6165H326.284C327.142 78.6165 327.837 77.9212 327.837 77.0635V44.4816C327.837 43.624 327.142 42.9287 326.284 42.9287Z" fill="#D8D8D8"/>
<path d="M331.44 42.9287H329.34C328.51 42.9287 327.837 43.6011 327.837 44.4306V77.1146C327.837 77.944 328.51 78.6165 329.34 78.6165H331.44C332.269 78.6165 332.942 77.944 332.942 77.1146V44.4306C332.942 43.6011 332.269 42.9287 331.44 42.9287Z" fill="#969696"/>
<path d="M335.141 45.4828L333.418 46.2737C332.613 46.6433 332.26 47.5955 332.629 48.4005L346.183 77.9182C346.553 78.7233 347.505 79.0763 348.311 78.7067L350.034 77.9158C350.839 77.5462 351.192 76.5939 350.822 75.7889L337.268 46.2712C336.899 45.4662 335.946 45.1132 335.141 45.4828Z" fill="#D8D8D8"/>
<path d="M317.629 66.8202C319.203 66.8202 320.48 65.5439 320.48 63.9695C320.48 62.3952 319.203 61.1189 317.629 61.1189C316.054 61.1189 314.778 62.3952 314.778 63.9695C314.778 65.5439 316.054 66.8202 317.629 66.8202Z" fill="#D8D8D8"/>
<path d="M320.21 68.5261H315.047C314.669 68.5261 314.362 68.8329 314.362 69.2114C314.362 69.5899 314.669 69.8968 315.047 69.8968H320.21C320.589 69.8968 320.896 69.5899 320.896 69.2114C320.896 68.8329 320.589 68.5261 320.21 68.5261Z" fill="#D8D8D8"/>
<path d="M320.21 72.033H315.047C314.669 72.033 314.362 72.3398 314.362 72.7183C314.362 73.0968 314.669 73.4036 315.047 73.4036H320.21C320.589 73.4036 320.896 73.0968 320.896 72.7183C320.896 72.3398 320.589 72.033 320.21 72.033Z" fill="#D8D8D8"/>
<path d="M303.424 79.7903H298.859C297.856 79.7903 297.044 80.603 297.044 81.6056C297.044 82.6082 297.856 83.421 298.859 83.421H303.424C304.427 83.421 305.24 82.6082 305.24 81.6056C305.24 80.603 304.427 79.7903 303.424 79.7903Z" fill="#D8D8D8"/>
<path d="M359.397 79.7903H354.832C353.829 79.7903 353.016 80.603 353.016 81.6056C353.016 82.6082 353.829 83.421 354.832 83.421H359.397C360.4 83.421 361.213 82.6082 361.213 81.6056C361.213 80.603 360.4 79.7903 359.397 79.7903Z" fill="#D8D8D8"/>
</svg>
