<svg width="442" height="472" viewBox="0 0 442 472" fill="none" xmlns="http://www.w3.org/2000/svg">
<path d="M152.12 396.168C177.536 396.168 198.139 391.614 198.139 385.997C198.139 380.38 177.536 375.827 152.12 375.827C126.704 375.827 106.1 380.38 106.1 385.997C106.1 391.614 126.704 396.168 152.12 396.168Z" fill="black"/>
<path d="M152.12 385.997L126.27 466.887" stroke="black" stroke-width="4" stroke-miterlimit="10" stroke-linecap="round"/>
<path d="M152.12 385.997L177.97 466.887" stroke="black" stroke-width="4" stroke-miterlimit="10" stroke-linecap="round"/>
<path d="M134.758 440.327L163.576 421.853" stroke="black" stroke-width="2" stroke-miterlimit="10" stroke-linecap="round"/>
<path d="M140.548 421.853L169.373 440.327" stroke="black" stroke-width="2" stroke-miterlimit="10" stroke-linecap="round"/>
<path d="M197.41 298.437C197.293 302.024 197.345 314.585 196.754 319.959" stroke="#1F161E" stroke-miterlimit="10" stroke-linecap="round"/>
<path d="M292.807 233H255.21C253.989 233 253 233.989 253 235.209V247.487C253 248.707 253.989 249.696 255.21 249.696H292.807C294.027 249.696 295.016 248.707 295.016 247.487V235.209C295.016 233.989 294.027 233 292.807 233Z" fill="#78E5E1"/>
<path d="M274.001 261.142L279.061 245.817H268.94L274.001 261.142Z" fill="#78E5E1"/>
<path d="M263.974 237.447L259.731 244.789H268.211L263.974 237.447Z" fill="white"/>
<path d="M284.035 244.789L288.278 237.447H279.791L284.035 244.789Z" fill="white"/>
<path d="M274.001 244.308C275.761 244.308 277.187 242.881 277.187 241.122C277.187 239.362 275.761 237.936 274.001 237.936C272.241 237.936 270.814 239.362 270.814 241.122C270.814 242.881 272.241 244.308 274.001 244.308Z" fill="white"/>
<path d="M318.608 158.163H293.932C292.865 158.163 292 159.028 292 160.095V175.012C292 176.079 292.865 176.944 293.932 176.944H318.608C319.676 176.944 320.541 176.079 320.541 175.012V160.095C320.541 159.028 319.676 158.163 318.608 158.163Z" fill="#D8D8D8"/>
<path d="M292.897 158.753L306.27 167.553" stroke="#969696" stroke-width="0.82" stroke-linecap="round" stroke-linejoin="round"/>
<path d="M320.541 158.163L306.27 167.553" stroke="#969696" stroke-width="0.82" stroke-linecap="round" stroke-linejoin="round"/>
<path d="M320.541 162.246C322.796 162.246 324.624 160.418 324.624 158.163C324.624 155.908 322.796 154.08 320.541 154.08C318.286 154.08 316.457 155.908 316.457 158.163C316.457 160.418 318.286 162.246 320.541 162.246Z" fill="#FBDC8E"/>
<path d="M321.264 161H320.601V156.605L319.272 157.093V156.495L321.161 155.785H321.264V161Z" fill="white"/>
<path d="M352.347 231.885H356.722C357.182 231.883 357.622 231.699 357.947 231.374C358.272 231.049 358.456 230.609 358.457 230.149V203.261C358.458 203.034 358.413 202.808 358.326 202.598C358.238 202.387 358.109 202.197 357.947 202.037L352.42 196.51C352.259 196.349 352.068 196.221 351.858 196.133C351.648 196.045 351.422 196 351.195 196H334.868C334.408 196.002 333.968 196.185 333.643 196.51C333.318 196.835 333.134 197.276 333.133 197.735V200.331" fill="#FBDC8E"/>
<path d="M344.997 200.331H328.954C328.697 200.331 328.442 200.381 328.205 200.48C327.967 200.579 327.751 200.723 327.57 200.905C327.388 201.088 327.244 201.304 327.147 201.542C327.049 201.78 326.999 202.035 327 202.292V234.225C327 234.744 327.206 235.241 327.572 235.609C327.938 235.977 328.435 236.184 328.954 236.186H350.385C350.904 236.184 351.401 235.977 351.768 235.609C352.134 235.241 352.34 234.744 352.34 234.225V207.687C352.34 207.43 352.291 207.175 352.193 206.938C352.096 206.7 351.952 206.484 351.771 206.302L346.375 200.907C346.01 200.54 345.514 200.333 344.997 200.331V200.331Z" fill="#D8D8D8"/>
<path d="M352.347 206.921H346.9C346.61 206.921 346.331 206.806 346.126 206.601C345.921 206.396 345.806 206.118 345.806 205.828V200.331" fill="#969696"/>
<path d="M358.479 202.598H353.032C352.741 202.596 352.462 202.48 352.256 202.273C352.05 202.067 351.933 201.789 351.931 201.497V196" fill="#64CCC4"/>
<path d="M335.714 203.626H330.551C330.173 203.626 329.866 203.933 329.866 204.311C329.866 204.69 330.173 204.997 330.551 204.997H335.714C336.092 204.997 336.399 204.69 336.399 204.311C336.399 203.933 336.092 203.626 335.714 203.626Z" fill="#969696"/>
<path d="M335.714 206.921H330.551C330.173 206.921 329.866 207.228 329.866 207.607C329.866 207.985 330.173 208.292 330.551 208.292H335.714C336.092 208.292 336.399 207.985 336.399 207.607C336.399 207.228 336.092 206.921 335.714 206.921Z" fill="#969696"/>
<path d="M349.102 212.557H330.252C329.874 212.557 329.567 212.863 329.567 213.242C329.567 213.62 329.874 213.927 330.252 213.927H349.102C349.48 213.927 349.787 213.62 349.787 213.242C349.787 212.863 349.48 212.557 349.102 212.557Z" fill="#969696"/>
<path d="M349.102 215.794H330.252C329.874 215.794 329.567 216.101 329.567 216.479C329.567 216.858 329.874 217.165 330.252 217.165H349.102C349.48 217.165 349.787 216.858 349.787 216.479C349.787 216.101 349.48 215.794 349.102 215.794Z" fill="#969696"/>
<path d="M349.102 219.031H330.252C329.874 219.031 329.567 219.338 329.567 219.717C329.567 220.095 329.874 220.402 330.252 220.402H349.102C349.48 220.402 349.787 220.095 349.787 219.717C349.787 219.338 349.48 219.031 349.102 219.031Z" fill="#969696"/>
<path d="M265.373 176H238.75C233.918 176 230 179.917 230 184.749V197.733C230 202.565 233.918 206.482 238.75 206.482H265.373C270.206 206.482 274.124 202.565 274.124 197.733V184.749C274.124 179.917 270.206 176 265.373 176Z" fill="#D8D8D8"/>
<path d="M245.765 180.906H239.13V201.575H245.765V180.906Z" fill="#AB8DE5"/>
<path d="M255.383 194.657H248.748V201.583H255.383V194.657Z" fill="#AB8DE5"/>
<path d="M264.994 188.824H258.358V201.576H264.994V188.824Z" fill="#AB8DE5"/>
<path d="M263.796 457.241C263.796 458.969 262.782 469.869 264.802 470.875C266.822 471.881 289.026 472.493 290.032 471.48C291.039 470.466 291.644 468.352 290.762 467.747C289.879 467.142 281.282 465.429 280.115 464.619C278.949 463.81 277.337 459.516 277.928 457.241" fill="#1F161E"/>
<path d="M197.41 314.76L209.909 310.277C209.369 287.479 204.038 236.539 196.469 228.964C194.69 227.192 159.499 224.101 153.221 224.101C115.755 224.101 104.642 228.373 101.82 231.202C93.0697 239.951 90.3425 280.487 90.3425 294.682C90.3425 308.877 130.448 316.24 130.448 316.24L177.459 319.47C177.459 319.47 187.77 320.535 196.688 321.059C196.885 318.325 197.41 314.76 197.41 314.76Z" fill="white"/>
<path d="M234.65 327.978C238.07 326.965 272.08 321.416 279.488 328.707C286.897 335.998 310.217 440.524 310.217 442.93H291.44L266.093 388.388" fill="#1F161E"/>
<path d="M110.826 318.683C109.972 322.948 104.846 327.526 104.846 350.762C104.846 382.892 131.17 383.57 140.62 383.57C170.065 383.57 217.704 374.821 220.919 373.217C223.056 376.789 262.381 457.059 262.564 458.853H280.67C280.67 458.853 269.447 338.761 249.198 325.142C242.62 320.768 125.927 316.087 110.826 318.683Z" fill="#55B79D"/>
<path d="M216.85 295.192C212.096 295.192 208.173 296.322 197.41 298.437L196.849 319.026C207.057 314.914 209.427 309.198 212.388 309.198C219.782 309.198 223.647 313.011 228.014 313.011C231.062 313.011 236.546 310.619 236.546 307.368C236.546 300.558 222.742 295.192 216.85 295.192Z" fill="#F8CDBA"/>
<path d="M292.504 441.486C292.504 443.222 291.491 454.114 293.511 455.127C295.531 456.141 317.734 456.738 318.741 455.732C319.747 454.726 320.352 452.605 319.47 451.999C318.588 451.394 309.99 449.674 308.824 448.864C307.657 448.055 306.046 443.761 306.636 441.486" fill="#1F161E"/>
<path d="M159.849 228.949C159.849 231.698 143.887 231.778 143.887 228.949V206.596H159.849V228.949Z" fill="#F8CDBA"/>
<path d="M154.65 213.967C153.192 213.967 143.887 218.079 143.887 220.375V208.244C146.206 208.244 154.65 213.967 154.65 213.967Z" fill="#1F161E"/>
<path d="M157.735 214.915C168.407 214.915 177.058 206.265 177.058 195.595C177.058 184.924 168.407 176.274 157.735 176.274C147.063 176.274 138.411 184.924 138.411 195.595C138.411 206.265 147.063 214.915 157.735 214.915Z" fill="#F8CDBA"/>
<path d="M177.678 180.43C175.286 184.228 170.284 185.971 164.866 185.971C160.25 185.971 153.527 184.629 148.744 187.356C146.155 188.814 143.187 192.131 142.589 198.773C142.589 199.91 141.299 204.321 141.299 205.743C141.299 206.713 140.205 207.347 138.382 207.347C137.441 207.347 135.582 205.823 135.582 203.497C135.582 200.807 136.654 199.852 136.654 197.57C136.654 195.288 133.861 193.094 133.861 186.751C133.861 177.616 139.694 171.987 143.822 171.987C147.584 171.987 148.766 172.862 149.24 173.234C149.24 164.93 160.177 161.139 164.516 161.139C169.475 161.139 171.808 163.173 171.808 165.761C171.808 169.887 169.839 173.394 168.84 174.182C171.102 172.148 174.039 171.028 177.08 171.039C182.761 171.039 184.671 174.772 184.671 177.324C184.671 182.872 178.014 188.012 175.534 188.012C174.911 186.693 174.179 185.427 173.347 184.228" fill="#1F161E"/>
<path d="M143.187 202.265C145.463 202.265 147.307 200.421 147.307 198.146C147.307 195.871 145.463 194.027 143.187 194.027C140.912 194.027 139.067 195.871 139.067 198.146C139.067 200.421 140.912 202.265 143.187 202.265Z" fill="#F8CDBA"/>
<path d="M177.248 199.138C179.012 199.138 180.442 198.394 180.442 197.476C180.442 196.558 179.012 195.813 177.248 195.813C175.484 195.813 174.054 196.558 174.054 197.476C174.054 198.394 175.484 199.138 177.248 199.138Z" fill="#FA9E9F"/>
<path d="M157.159 199.138C158.923 199.138 160.352 198.394 160.352 197.476C160.352 196.558 158.923 195.813 157.159 195.813C155.395 195.813 153.965 196.558 153.965 197.476C153.965 198.394 155.395 199.138 157.159 199.138Z" fill="#FA9E9F"/>
<path d="M169.446 194.027C170.043 194.88 173.091 198.46 169.876 199.91" stroke="#1F161E" stroke-miterlimit="10" stroke-linecap="round"/>
<path d="M163.437 204.088C162.474 204.088 160.994 202.893 160.214 201.821" stroke="#1F161E" stroke-miterlimit="10" stroke-linecap="round"/>
<path d="M188.915 255.976C190.373 259.074 197.41 288.966 197.41 298.436" stroke="#1F161E" stroke-miterlimit="10" stroke-linecap="round"/>
<path d="M90.3425 292.276C90.3425 325.879 90.656 335.626 104.146 335.626C135.239 335.626 182.243 310.109 190.621 310.109C198.023 310.109 201.887 313.929 206.255 313.929C209.296 313.929 214.78 311.53 214.78 308.286C214.78 301.469 200.976 296.103 195.091 296.103C181.842 296.103 128.968 308.877 127.677 308.877C126.387 308.877 124.214 308.315 124.214 306.143C124.214 302.198 126.795 293.085 127.13 292.29L90.3425 292.276Z" fill="#F8CDBA"/>
<path d="M134.896 262.967C134.007 265.526 127.072 291.97 126.27 295.192" stroke="#1F161E" stroke-miterlimit="10" stroke-linecap="round"/>
<path d="M398.163 467.497C398.688 469.491 400.729 470.682 402.723 470.158C404.718 469.634 405.909 467.593 405.385 465.599L368.051 323.619C367.527 321.625 365.485 320.434 363.491 320.958C361.497 321.482 360.305 323.523 360.829 325.517L398.163 467.497Z" fill="#969696"/>
<path d="M360.459 325.523C360.983 323.529 359.791 321.488 357.797 320.964C355.803 320.44 353.761 321.631 353.237 323.625L315.903 465.605C315.379 467.598 316.571 469.64 318.565 470.164C320.559 470.688 322.601 469.497 323.125 467.503L360.459 325.523Z" fill="#969696"/>
<path d="M308.942 325.522C309.466 323.528 308.275 321.487 306.281 320.963C304.286 320.439 302.245 321.63 301.721 323.624L264.387 465.604C263.863 467.597 265.054 469.639 267.048 470.163C269.042 470.687 271.084 469.496 271.608 467.502L308.942 325.522Z" fill="#D8D8D8"/>
<path d="M345.998 464.876C346.513 466.876 348.552 468.079 350.553 467.564C352.553 467.049 353.756 465.01 353.241 463.01L316.533 320.61C316.018 318.61 313.978 317.407 311.978 317.922C309.978 318.437 308.775 320.476 309.29 322.476L345.998 464.876Z" fill="#D8D8D8"/>
<path d="M98.6272 325.526C99.1515 323.532 97.9599 321.491 95.9657 320.967C93.9715 320.443 91.9299 321.634 91.4056 323.628L54.0718 465.608C53.5476 467.601 54.7392 469.643 56.7333 470.167C58.7275 470.691 60.7691 469.5 61.2934 467.506L98.6272 325.526Z" fill="#969696"/>
<path d="M135.698 467.506C136.222 469.5 138.264 470.691 140.258 470.167C142.252 469.643 143.443 467.601 142.919 465.608L105.585 323.628C105.061 321.634 103.019 320.443 101.025 320.967C99.0311 321.491 97.8396 323.532 98.3638 325.526L135.698 467.506Z" fill="#969696"/>
<path d="M383.442 313.951H22.367C20.5427 313.951 19.0638 315.43 19.0638 317.254V321.694C19.0638 323.518 20.5427 324.997 22.367 324.997H383.442C385.267 324.997 386.745 323.518 386.745 321.694V317.254C386.745 315.43 385.267 313.951 383.442 313.951Z" fill="#D8D8D8"/>
<path d="M45.2685 325.528C45.7927 323.534 44.6012 321.493 42.607 320.969C40.6128 320.444 38.5712 321.636 38.0469 323.63L0.713157 465.609C0.188879 467.603 1.38046 469.645 3.37464 470.169C5.36881 470.693 7.41042 469.502 7.9347 467.508L45.2685 325.528Z" fill="#D8D8D8"/>
<path d="M82.3386 467.506C82.8629 469.5 84.9045 470.692 86.8987 470.167C88.8928 469.643 90.0844 467.602 89.5601 465.608L52.2263 323.628C51.702 321.634 49.6604 320.443 47.6663 320.967C45.6721 321.491 44.4805 323.533 45.0048 325.527L82.3386 467.506Z" fill="#D8D8D8"/>
<path d="M289.383 313.951H221.926L234.147 271.927C234.452 270.914 235.077 270.026 235.929 269.396C236.781 268.767 237.813 268.43 238.872 268.435H296.114C296.866 268.423 297.61 268.587 298.287 268.913C298.965 269.24 299.557 269.72 300.016 270.315C300.475 270.911 300.788 271.605 300.931 272.343C301.074 273.082 301.042 273.843 300.839 274.567L289.383 313.951Z" fill="black"/>
<path d="M263.935 295.316C266.214 295.316 268.062 293.469 268.062 291.19C268.062 288.91 266.214 287.063 263.935 287.063C261.655 287.063 259.807 288.91 259.807 291.19C259.807 293.469 261.655 295.316 263.935 295.316Z" fill="white"/>
<path d="M229.94 310.998H182.608V313.951H229.94V310.998Z" fill="black"/>
<path d="M440.359 144.616H333.897C333.402 144.616 333 145.018 333 145.513V146.067C333 146.562 333.402 146.964 333.897 146.964H440.359C440.855 146.964 441.256 146.562 441.256 146.067V145.513C441.256 145.018 440.855 144.616 440.359 144.616Z" fill="#D8D8D8"/>
<path d="M378.866 98H372.398C371.367 98 370.532 98.8356 370.532 99.8664V142.75C370.532 143.781 371.367 144.616 372.398 144.616H378.866C379.897 144.616 380.733 143.781 380.733 142.75V99.8664C380.733 98.8356 379.897 98 378.866 98Z" fill="#969696"/>
<path d="M384.284 108.929H382.286C381.428 108.929 380.733 109.624 380.733 110.482V143.064C380.733 143.921 381.428 144.616 382.286 144.616H384.284C385.142 144.616 385.837 143.921 385.837 143.064V110.482C385.837 109.624 385.142 108.929 384.284 108.929Z" fill="#D8D8D8"/>
<path d="M389.44 108.929H387.34C386.51 108.929 385.837 109.601 385.837 110.431V143.115C385.837 143.944 386.51 144.616 387.34 144.616H389.44C390.269 144.616 390.942 143.944 390.942 143.115V110.431C390.942 109.601 390.269 108.929 389.44 108.929Z" fill="#969696"/>
<path d="M393.141 111.483L391.418 112.274C390.613 112.643 390.26 113.595 390.629 114.401L404.183 143.918C404.553 144.723 405.505 145.076 406.311 144.707L408.034 143.916C408.839 143.546 409.192 142.594 408.822 141.789L395.268 112.271C394.899 111.466 393.946 111.113 393.141 111.483Z" fill="#D8D8D8"/>
<path d="M375.629 132.82C377.203 132.82 378.48 131.544 378.48 129.97C378.48 128.395 377.203 127.119 375.629 127.119C374.054 127.119 372.778 128.395 372.778 129.97C372.778 131.544 374.054 132.82 375.629 132.82Z" fill="#D8D8D8"/>
<path d="M378.21 134.526H373.047C372.669 134.526 372.362 134.833 372.362 135.212C372.362 135.59 372.669 135.897 373.047 135.897H378.21C378.589 135.897 378.896 135.59 378.896 135.212C378.896 134.833 378.589 134.526 378.21 134.526Z" fill="#D8D8D8"/>
<path d="M378.21 138.033H373.047C372.669 138.033 372.362 138.34 372.362 138.719C372.362 139.097 372.669 139.404 373.047 139.404H378.21C378.589 139.404 378.896 139.097 378.896 138.719C378.896 138.34 378.589 138.033 378.21 138.033Z" fill="#D8D8D8"/>
<path d="M361.424 145.79H356.859C355.856 145.79 355.044 146.603 355.044 147.605C355.044 148.608 355.856 149.421 356.859 149.421H361.424C362.427 149.421 363.24 148.608 363.24 147.605C363.24 146.603 362.427 145.79 361.424 145.79Z" fill="#D8D8D8"/>
<path d="M417.397 145.79H412.832C411.829 145.79 411.016 146.603 411.016 147.605C411.016 148.608 411.829 149.421 412.832 149.421H417.397C418.4 149.421 419.213 148.608 419.213 147.605C419.213 146.603 418.4 145.79 417.397 145.79Z" fill="#D8D8D8"/>
</svg>
