<svg width="496" height="512" viewBox="0 0 496 512" fill="none" xmlns="http://www.w3.org/2000/svg">
<path d="M242.12 396.168C267.536 396.168 288.139 391.614 288.139 385.997C288.139 380.38 267.536 375.827 242.12 375.827C216.704 375.827 196.1 380.38 196.1 385.997C196.1 391.614 216.704 396.168 242.12 396.168Z" fill="black"/>
<path d="M242.12 385.997L216.27 466.887" stroke="black" stroke-width="4" stroke-miterlimit="10" stroke-linecap="round"/>
<path d="M242.12 385.997L267.97 466.887" stroke="black" stroke-width="4" stroke-miterlimit="10" stroke-linecap="round"/>
<path d="M224.758 440.327L253.576 421.853" stroke="black" stroke-width="2" stroke-miterlimit="10" stroke-linecap="round"/>
<path d="M230.548 421.853L259.373 440.327" stroke="black" stroke-width="2" stroke-miterlimit="10" stroke-linecap="round"/>
<path d="M287.41 298.437C287.293 302.024 287.345 314.585 286.754 319.959" stroke="#1F161E" stroke-miterlimit="10" stroke-linecap="round"/>
<path d="M64.2109 351.76C78.0656 354.385 75.5936 437.061 48.9999 432.06C23.8864 427.292 47.3082 348.545 64.2109 351.76Z" fill="black"/>
<path d="M3.38162 361.967C14.407 355.726 60.5577 413.789 39.4476 425.731C19.5041 437.061 -10.0429 369.579 3.38162 361.967Z" fill="white"/>
<path d="M59.566 471.998H31.7254C30.604 471.998 29.5222 471.584 28.6867 470.836C27.8513 470.088 27.3209 469.059 27.1971 467.944L23.6824 436.39C23.6062 435.75 23.6664 435.101 23.8591 434.486C24.0518 433.871 24.3727 433.304 24.8004 432.822C25.2282 432.34 25.7533 431.954 26.3411 431.689C26.9289 431.425 27.5661 431.287 28.2107 431.287H62.9349C63.5744 431.287 64.2066 431.422 64.7905 431.683C65.3744 431.944 65.8968 432.324 66.3239 432.8C66.751 433.276 67.0732 433.836 67.2695 434.445C67.4658 435.053 67.5318 435.696 67.4632 436.332L64.1016 467.886C63.9896 469.011 63.4636 470.055 62.6256 470.815C61.7876 471.575 60.6973 471.996 59.566 471.998Z" fill="#969696"/>
<path d="M72.0353 319.565C82.5867 322.627 74.5 386.442 54.294 380.566C35.2183 375.025 59.1942 315.832 72.0353 319.565Z" fill="#00767A"/>
<path d="M89.4338 370.337C96.7258 376.621 67.0621 424.696 53.047 412.623C39.8121 401.271 80.5303 362.696 89.4338 370.337Z" fill="white"/>
<path d="M45.7187 326.199C61.5131 326.199 75.973 427.029 45.7187 427.029C17.1489 427.029 26.4899 326.199 45.7187 326.199Z" fill="#86CEDD"/>
<path d="M73.4353 424.463H17.8707C16.2397 424.463 14.9175 425.785 14.9175 427.415V432.796C14.9175 434.427 16.2397 435.749 17.8707 435.749H73.4353C75.0663 435.749 76.3886 434.427 76.3886 432.796V427.415C76.3886 425.785 75.0663 424.463 73.4353 424.463Z" fill="#D8D8D8"/>
<path d="M382.807 233H345.209C343.989 233 343 233.989 343 235.209V247.487C343 248.707 343.989 249.696 345.209 249.696H382.807C384.027 249.696 385.016 248.707 385.016 247.487V235.209C385.016 233.989 384.027 233 382.807 233Z" fill="#D8D8D8"/>
<path d="M364.001 261.142L369.061 245.817H358.94L364.001 261.142Z" fill="#D8D8D8"/>
<path d="M353.974 237.448L349.73 244.789H358.211L353.974 237.448Z" fill="#57A3B3"/>
<path d="M374.034 244.789L378.278 237.448H369.791L374.034 244.789Z" fill="#57A3B3"/>
<path d="M364.001 244.308C365.761 244.308 367.187 242.881 367.187 241.122C367.187 239.362 365.761 237.936 364.001 237.936C362.241 237.936 360.814 239.362 360.814 241.122C360.814 242.881 362.241 244.308 364.001 244.308Z" fill="#57A3B3"/>
<path d="M408.608 158.163H383.932C382.865 158.163 382 159.028 382 160.095V175.012C382 176.079 382.865 176.944 383.932 176.944H408.608C409.676 176.944 410.541 176.079 410.541 175.012V160.095C410.541 159.028 409.676 158.163 408.608 158.163Z" fill="#D8D8D8"/>
<path d="M382.897 158.753L396.27 167.553" stroke="#969696" stroke-width="0.82" stroke-linecap="round" stroke-linejoin="round"/>
<path d="M410.541 158.163L396.271 167.553" stroke="#969696" stroke-width="0.82" stroke-linecap="round" stroke-linejoin="round"/>
<path d="M410.541 162.246C412.796 162.246 414.624 160.418 414.624 158.163C414.624 155.908 412.796 154.08 410.541 154.08C408.286 154.08 406.457 155.908 406.457 158.163C406.457 160.418 408.286 162.246 410.541 162.246Z" fill="#57A3B3"/>
<path d="M411.265 161H410.602V156.605L409.272 157.093V156.495L411.161 155.785H411.265V161Z" fill="white"/>
<path d="M442.347 231.885H446.722C447.182 231.883 447.622 231.699 447.947 231.374C448.272 231.049 448.456 230.609 448.457 230.149V203.261C448.458 203.034 448.413 202.808 448.326 202.598C448.238 202.387 448.109 202.197 447.947 202.037L442.42 196.51C442.259 196.349 442.068 196.221 441.858 196.133C441.648 196.045 441.422 196 441.195 196H424.868C424.408 196.002 423.968 196.185 423.643 196.51C423.318 196.835 423.134 197.276 423.133 197.735V200.331" fill="white"/>
<path d="M434.997 200.331H418.954C418.697 200.331 418.442 200.381 418.205 200.48C417.967 200.579 417.751 200.723 417.57 200.905C417.388 201.088 417.244 201.304 417.147 201.542C417.049 201.78 416.999 202.035 417 202.292V234.225C417 234.744 417.206 235.241 417.572 235.609C417.938 235.977 418.435 236.184 418.954 236.186H440.385C440.904 236.184 441.401 235.977 441.768 235.609C442.134 235.241 442.339 234.744 442.339 234.225V207.687C442.34 207.43 442.291 207.175 442.193 206.938C442.096 206.7 441.952 206.484 441.771 206.302L436.375 200.907C436.01 200.54 435.514 200.333 434.997 200.331V200.331Z" fill="#D8D8D8"/>
<path d="M442.347 206.921H436.9C436.61 206.921 436.331 206.806 436.126 206.601C435.921 206.396 435.806 206.118 435.806 205.828V200.331" fill="#969696"/>
<path d="M448.479 202.598H443.032C442.741 202.596 442.462 202.48 442.256 202.273C442.05 202.067 441.933 201.789 441.931 201.497V196" fill="#999E9E"/>
<path d="M425.714 203.626H420.551C420.173 203.626 419.866 203.933 419.866 204.311C419.866 204.69 420.173 204.997 420.551 204.997H425.714C426.092 204.997 426.399 204.69 426.399 204.311C426.399 203.933 426.092 203.626 425.714 203.626Z" fill="#969696"/>
<path d="M425.714 206.921H420.551C420.173 206.921 419.866 207.228 419.866 207.607C419.866 207.985 420.173 208.292 420.551 208.292H425.714C426.092 208.292 426.399 207.985 426.399 207.607C426.399 207.228 426.092 206.921 425.714 206.921Z" fill="#969696"/>
<path d="M439.102 212.557H420.252C419.874 212.557 419.567 212.864 419.567 213.242C419.567 213.621 419.874 213.928 420.252 213.928H439.102C439.481 213.928 439.787 213.621 439.787 213.242C439.787 212.864 439.481 212.557 439.102 212.557Z" fill="#969696"/>
<path d="M439.102 215.794H420.252C419.874 215.794 419.567 216.101 419.567 216.479C419.567 216.858 419.874 217.165 420.252 217.165H439.102C439.481 217.165 439.787 216.858 439.787 216.479C439.787 216.101 439.481 215.794 439.102 215.794Z" fill="#969696"/>
<path d="M439.102 219.031H420.252C419.874 219.031 419.567 219.338 419.567 219.716C419.567 220.095 419.874 220.402 420.252 220.402H439.102C439.481 220.402 439.787 220.095 439.787 219.716C439.787 219.338 439.481 219.031 439.102 219.031Z" fill="#969696"/>
<path d="M355.373 176H328.75C323.918 176 320 179.917 320 184.749V197.733C320 202.565 323.918 206.482 328.75 206.482H355.373C360.206 206.482 364.124 202.565 364.124 197.733V184.749C364.124 179.917 360.206 176 355.373 176Z" fill="#D8D8D8"/>
<path d="M335.765 180.906H329.129V201.576H335.765V180.906Z" fill="#57A3B3"/>
<path d="M345.383 194.657H338.748V201.583H345.383V194.657Z" fill="#57A3B3"/>
<path d="M354.994 188.824H348.358V201.576H354.994V188.824Z" fill="#57A3B3"/>
<path d="M353.796 457.241C353.796 458.969 352.782 469.869 354.802 470.875C356.822 471.881 379.026 472.493 380.032 471.48C381.039 470.467 381.644 468.352 380.762 467.747C379.879 467.142 371.282 465.429 370.115 464.62C368.949 463.81 367.337 459.516 367.928 457.241" fill="#1F161E"/>
<path d="M287.41 314.76L299.909 310.277C299.369 287.479 294.039 236.539 286.469 228.964C284.69 227.192 249.499 224.101 243.221 224.101C205.755 224.101 194.642 228.373 191.82 231.202C183.07 239.951 180.343 280.487 180.343 294.682C180.343 308.877 220.448 316.24 220.448 316.24L267.459 319.47C267.459 319.47 277.77 320.535 286.688 321.059C286.885 318.325 287.41 314.76 287.41 314.76Z" fill="white"/>
<path d="M324.65 327.978C328.07 326.965 362.08 321.417 369.488 328.707C376.897 335.998 400.217 440.524 400.217 442.93H381.44L356.093 388.389" fill="#1F161E"/>
<path d="M200.826 318.683C199.972 322.948 194.846 327.526 194.846 350.761C194.846 382.891 221.17 383.569 230.62 383.569C260.065 383.569 307.704 374.821 310.919 373.217C313.056 376.789 352.381 457.059 352.564 458.853H370.67C370.67 458.853 359.447 338.761 339.198 325.142C332.62 320.768 215.927 316.087 200.826 318.683Z" fill="#525252"/>
<path d="M306.85 295.192C302.096 295.192 298.173 296.322 287.41 298.436L286.849 319.025C297.057 314.913 299.427 309.197 302.388 309.197C309.782 309.197 313.647 313.01 318.014 313.01C321.062 313.01 326.546 310.619 326.546 307.368C326.546 300.558 312.742 295.192 306.85 295.192Z" fill="#F8CDBA"/>
<path d="M382.504 441.486C382.504 443.222 381.491 454.114 383.511 455.127C385.53 456.141 407.734 456.738 408.741 455.732C409.747 454.726 410.352 452.605 409.47 451.999C408.588 451.394 399.99 449.674 398.824 448.864C397.657 448.055 396.045 443.761 396.636 441.486" fill="#1F161E"/>
<path d="M249.849 228.949C249.849 231.698 233.887 231.778 233.887 228.949V206.596H249.849V228.949Z" fill="#F8CDBA"/>
<path d="M244.65 213.967C243.192 213.967 233.887 218.079 233.887 220.375V208.244C236.206 208.244 244.65 213.967 244.65 213.967Z" fill="#1F161E"/>
<path d="M247.735 214.915C258.407 214.915 267.058 206.265 267.058 195.595C267.058 184.924 258.407 176.274 247.735 176.274C237.062 176.274 228.411 184.924 228.411 195.595C228.411 206.265 237.062 214.915 247.735 214.915Z" fill="#F8CDBA"/>
<path d="M267.678 180.43C265.286 184.228 260.284 185.971 254.866 185.971C250.25 185.971 243.527 184.629 238.744 187.356C236.155 188.814 233.187 192.131 232.589 198.773C232.589 199.911 231.299 204.321 231.299 205.743C231.299 206.713 230.205 207.347 228.382 207.347C227.441 207.347 225.582 205.823 225.582 203.498C225.582 200.807 226.654 199.852 226.654 197.57C226.654 195.288 223.861 193.094 223.861 186.751C223.861 177.616 229.694 171.987 233.822 171.987C237.584 171.987 238.766 172.862 239.24 173.234C239.24 164.93 250.177 161.139 254.516 161.139C259.475 161.139 261.808 163.173 261.808 165.761C261.808 169.888 259.839 173.395 258.84 174.182C261.102 172.148 264.039 171.028 267.08 171.04C272.761 171.04 274.671 174.772 274.671 177.324C274.671 182.872 268.014 188.012 265.534 188.012C264.911 186.693 264.179 185.427 263.347 184.228" fill="#1F161E"/>
<path d="M233.187 202.266C235.462 202.266 237.307 200.421 237.307 198.146C237.307 195.871 235.462 194.027 233.187 194.027C230.912 194.027 229.067 195.871 229.067 198.146C229.067 200.421 230.912 202.266 233.187 202.266Z" fill="#F8CDBA"/>
<path d="M267.248 199.138C269.012 199.138 270.442 198.394 270.442 197.476C270.442 196.557 269.012 195.813 267.248 195.813C265.484 195.813 264.054 196.557 264.054 197.476C264.054 198.394 265.484 199.138 267.248 199.138Z" fill="#FA9E9F"/>
<path d="M247.158 199.138C248.922 199.138 250.352 198.394 250.352 197.476C250.352 196.557 248.922 195.813 247.158 195.813C245.395 195.813 243.965 196.557 243.965 197.476C243.965 198.394 245.395 199.138 247.158 199.138Z" fill="#FA9E9F"/>
<path d="M259.446 194.027C260.043 194.88 263.091 198.46 259.876 199.911" stroke="#1F161E" stroke-miterlimit="10" stroke-linecap="round"/>
<path d="M253.437 204.088C252.474 204.088 250.994 202.893 250.214 201.821" stroke="#1F161E" stroke-miterlimit="10" stroke-linecap="round"/>
<path d="M278.915 255.976C280.373 259.074 287.41 288.966 287.41 298.436" stroke="#1F161E" stroke-miterlimit="10" stroke-linecap="round"/>
<path d="M180.343 292.276C180.343 325.879 180.656 335.626 194.146 335.626C225.239 335.626 272.243 310.109 280.621 310.109C288.023 310.109 291.887 313.929 296.255 313.929C299.296 313.929 304.78 311.53 304.78 308.286C304.78 301.469 290.976 296.103 285.091 296.103C271.842 296.103 218.968 308.877 217.677 308.877C216.387 308.877 214.214 308.315 214.214 306.143C214.214 302.198 216.795 293.085 217.13 292.29L180.343 292.276Z" fill="#F8CDBA"/>
<path d="M224.896 262.967C224.007 265.526 217.072 291.97 216.27 295.192" stroke="#1F161E" stroke-miterlimit="10" stroke-linecap="round"/>
<path d="M488.163 467.497C488.687 469.491 490.729 470.682 492.723 470.158C494.717 469.634 495.909 467.592 495.385 465.599L458.051 323.619C457.527 321.625 455.485 320.434 453.491 320.958C451.497 321.482 450.305 323.523 450.829 325.517L488.163 467.497Z" fill="#969696"/>
<path d="M450.459 325.523C450.983 323.529 449.791 321.488 447.797 320.964C445.803 320.44 443.761 321.631 443.237 323.625L405.903 465.605C405.379 467.599 406.571 469.64 408.565 470.164C410.559 470.688 412.601 469.497 413.125 467.503L450.459 325.523Z" fill="#969696"/>
<path d="M398.942 325.522C399.466 323.528 398.275 321.487 396.281 320.963C394.286 320.439 392.245 321.63 391.721 323.624L354.387 465.604C353.863 467.598 355.054 469.639 357.048 470.163C359.043 470.687 361.084 469.496 361.608 467.502L398.942 325.522Z" fill="#D8D8D8"/>
<path d="M435.998 464.876C436.513 466.876 438.552 468.079 440.553 467.564C442.553 467.049 443.756 465.01 443.241 463.01L406.533 320.61C406.018 318.61 403.978 317.407 401.978 317.922C399.978 318.437 398.775 320.476 399.29 322.476L435.998 464.876Z" fill="#D8D8D8"/>
<path d="M188.627 325.526C189.152 323.532 187.96 321.491 185.966 320.967C183.972 320.443 181.93 321.634 181.406 323.628L144.072 465.608C143.548 467.601 144.739 469.643 146.733 470.167C148.728 470.691 150.769 469.5 151.293 467.506L188.627 325.526Z" fill="#969696"/>
<path d="M225.698 467.506C226.222 469.5 228.263 470.691 230.258 470.167C232.252 469.643 233.443 467.602 232.919 465.608L195.585 323.628C195.061 321.634 193.019 320.443 191.025 320.967C189.031 321.491 187.839 323.532 188.364 325.526L225.698 467.506Z" fill="#969696"/>
<path d="M473.442 313.951H112.367C110.543 313.951 109.064 315.43 109.064 317.254V321.694C109.064 323.518 110.543 324.996 112.367 324.996H473.442C475.266 324.996 476.745 323.518 476.745 321.694V317.254C476.745 315.43 475.266 313.951 473.442 313.951Z" fill="#D8D8D8"/>
<path d="M135.268 325.528C135.793 323.534 134.601 321.493 132.607 320.969C130.613 320.445 128.571 321.636 128.047 323.63L90.713 465.61C90.1888 467.604 91.3803 469.645 93.3745 470.169C95.3687 470.693 97.4103 469.502 97.9346 467.508L135.268 325.528Z" fill="#D8D8D8"/>
<path d="M172.338 467.506C172.863 469.5 174.904 470.692 176.899 470.167C178.893 469.643 180.084 467.602 179.56 465.608L142.226 323.628C141.702 321.634 139.66 320.443 137.666 320.967C135.672 321.491 134.48 323.533 135.005 325.527L172.338 467.506Z" fill="#D8D8D8"/>
<path d="M379.383 313.951H311.926L324.147 271.928C324.452 270.914 325.077 270.026 325.929 269.396C326.781 268.767 327.813 268.43 328.872 268.435H386.114C386.866 268.423 387.61 268.587 388.287 268.913C388.965 269.24 389.557 269.72 390.016 270.315C390.474 270.911 390.788 271.606 390.931 272.344C391.074 273.082 391.042 273.843 390.839 274.567L379.383 313.951Z" fill="black"/>
<path d="M353.934 295.316C356.214 295.316 358.062 293.469 358.062 291.19C358.062 288.91 356.214 287.063 353.934 287.063C351.655 287.063 349.807 288.91 349.807 291.19C349.807 293.469 351.655 295.316 353.934 295.316Z" fill="white"/>
<path d="M319.939 310.998H272.607V313.951H319.939V310.998Z" fill="black"/>
</svg>
