<svg width="200" height="95" viewBox="0 0 200 95" fill="none" xmlns="http://www.w3.org/2000/svg">
<rect x="0.5" y="0.5" width="199" height="47" fill="white"/>
<rect x="1" y="7" width="198" height="33" fill="#F4F9FA"/>
<path d="M20.816 31.16C19.5573 31.16 18.656 30.872 18.112 30.296C17.568 29.72 17.296 28.8987 17.296 27.832V22.232H18.72V27.848C18.72 29.2667 19.4187 29.976 20.816 29.976C21.5413 29.976 22.0747 29.8 22.416 29.448C22.768 29.096 22.944 28.5627 22.944 27.848V22.232H24.368V27.832C24.368 28.8987 24.0907 29.72 23.536 30.296C22.992 30.872 22.0853 31.16 20.816 31.16ZM22.3252 20.84C21.6532 20.84 21.1786 20.7067 20.9012 20.44C20.6239 20.1627 20.4852 19.8533 20.4852 19.512C20.4852 19.352 20.5119 19.1813 20.5652 19C20.6079 18.808 20.6666 18.6533 20.7412 18.536L21.9412 18.744C21.8772 18.872 21.8452 19.0373 21.8452 19.24C21.8452 19.3787 21.8879 19.5013 21.9732 19.608C22.0586 19.704 22.2026 19.752 22.4052 19.752H26.4533V20.84H22.3252ZM35.2243 33.784C34.7869 33.784 34.3443 33.736 33.8963 33.64C33.4589 33.5547 33.0429 33.4213 32.6483 33.24V31.864C32.9896 32.088 33.3896 32.2533 33.8483 32.36C34.3176 32.4773 34.7656 32.536 35.1923 32.536C35.6189 32.536 35.9976 32.4667 36.3283 32.328C36.6589 32.2 36.9203 31.9707 37.1123 31.64C37.3043 31.3093 37.4003 30.84 37.4003 30.232V29.816H37.3363C37.1229 30.1467 36.8083 30.424 36.3923 30.648C35.9763 30.872 35.4696 30.984 34.8723 30.984C34.3709 30.984 33.9123 30.888 33.4963 30.696C33.0909 30.504 32.7709 30.1947 32.5363 29.768C32.3016 29.3413 32.1843 28.7813 32.1843 28.088V25.224C32.1843 24.712 32.0883 24.312 31.8963 24.024C31.7043 23.736 31.4483 23.5387 31.1283 23.432C30.8189 23.3147 30.4883 23.256 30.1363 23.256C29.5709 23.256 29.1016 23.3787 28.7283 23.624C28.3656 23.8693 28.1789 24.2267 28.1683 24.696L29.9923 25.56L29.8643 26.328C29.4696 26.328 29.1283 26.4507 28.8403 26.696C28.5629 26.9413 28.4243 27.3467 28.4243 27.912V29.32C28.4243 29.768 28.6429 29.992 29.0803 29.992C29.3149 29.992 29.5176 29.96 29.6883 29.896L29.8963 30.92C29.6936 31.016 29.4963 31.08 29.3043 31.112C29.1229 31.144 28.9416 31.16 28.7603 31.16C28.4616 31.16 28.1736 31.112 27.8963 31.016C27.6296 30.92 27.4109 30.7493 27.2403 30.504C27.0803 30.2587 27.0003 29.9173 27.0003 29.48V27.928C27.0003 27.2667 27.1389 26.7867 27.4163 26.488C27.7043 26.1893 28.0776 25.9813 28.5363 25.864L28.5523 25.816L26.7122 25.144V24.616C26.7122 24.1467 26.8509 23.72 27.1283 23.336C27.4163 22.952 27.8163 22.648 28.3283 22.424C28.8509 22.1893 29.4589 22.072 30.1523 22.072C30.7389 22.072 31.2936 22.168 31.8163 22.36C32.3496 22.552 32.7816 22.872 33.1123 23.32C33.4429 23.7573 33.6083 24.344 33.6083 25.08V27.976C33.6083 28.6053 33.7523 29.064 34.0403 29.352C34.3389 29.64 34.7283 29.784 35.2083 29.784C35.8696 29.784 36.3923 29.5493 36.7763 29.08C37.1709 28.6 37.3683 27.9707 37.3683 27.192V22.232H38.7923V30.2C38.7923 31.3947 38.4829 32.2907 37.8643 32.888C37.2563 33.4853 36.3763 33.784 35.2243 33.784ZM44.6031 31.16C43.5898 31.16 42.8058 30.92 42.2511 30.44C41.7071 29.9493 41.4351 29.2187 41.4351 28.248V27.272C41.4351 26.7387 41.5098 26.3173 41.6591 26.008C41.8085 25.6987 41.9685 25.432 42.1391 25.208C42.3205 24.9627 42.4751 24.7493 42.6031 24.568C42.7418 24.3867 42.8111 24.168 42.8111 23.912C42.8111 23.688 42.7525 23.528 42.6351 23.432C42.5285 23.336 42.3898 23.288 42.2191 23.288C42.0911 23.288 41.9525 23.3093 41.8031 23.352C41.6645 23.3947 41.5258 23.448 41.3871 23.512L41.0671 22.488C41.2591 22.36 41.4938 22.2693 41.7711 22.216C42.0591 22.1627 42.3098 22.136 42.5231 22.136C43.1205 22.136 43.5418 22.2907 43.7871 22.6C44.0325 22.8987 44.1551 23.2827 44.1551 23.752C44.1551 24.1467 44.0858 24.472 43.9471 24.728C43.8191 24.984 43.6645 25.2347 43.4831 25.48C43.3018 25.7467 43.1525 26.0027 43.0351 26.248C42.9178 26.4933 42.8591 26.8133 42.8591 27.208V28.152C42.8591 28.6427 42.9391 29.0213 43.0991 29.288C43.2591 29.5547 43.4725 29.7413 43.7391 29.848C44.0058 29.944 44.2938 29.992 44.6031 29.992C45.6911 29.992 46.2351 29.48 46.2351 28.456V26.216C46.2351 25.8213 46.1445 25.5227 45.9631 25.32C45.7818 25.1067 45.4885 25 45.0831 25H45.0191V24.088H45.0991C45.5365 24.088 45.8458 23.9867 46.0271 23.784C46.2085 23.5813 46.3151 23.336 46.3471 23.048C46.3898 22.7493 46.4111 22.4773 46.4111 22.232H47.8351C47.8351 22.7973 47.7658 23.2773 47.6271 23.672C47.4885 24.0667 47.1738 24.3547 46.6831 24.536V24.6C46.9818 24.6747 47.1951 24.8027 47.3231 24.984C47.4618 25.1547 47.5525 25.352 47.5951 25.576C47.6378 25.7893 47.6591 25.9973 47.6591 26.2V28.536C47.6591 29.3573 47.4031 30.0027 46.8911 30.472C46.3791 30.9307 45.6165 31.16 44.6031 31.16ZM41.0416 20.84V20.216L42.2096 19.704H46.5136V18.408H47.8576V20.216H47.8416V20.84H41.0416ZM53.384 31.16C52.3813 31.16 51.6027 30.92 51.048 30.44C50.504 29.9493 50.232 29.2187 50.232 28.248V27.272C50.232 26.7387 50.3067 26.3173 50.456 26.008C50.6053 25.6987 50.7653 25.432 50.936 25.208C51.1173 24.9627 51.272 24.7493 51.4 24.568C51.5387 24.3867 51.608 24.168 51.608 23.912C51.608 23.688 51.5493 23.528 51.432 23.432C51.3253 23.336 51.1867 23.288 51.016 23.288C50.888 23.288 50.7493 23.3093 50.6 23.352C50.4613 23.3947 50.3227 23.448 50.184 23.512L49.864 22.488C50.056 22.36 50.2907 22.2693 50.568 22.216C50.856 22.1627 51.1067 22.136 51.32 22.136C51.9173 22.136 52.3387 22.2907 52.584 22.6C52.8293 22.8987 52.952 23.2827 52.952 23.752C52.952 24.1467 52.8827 24.472 52.744 24.728C52.616 24.984 52.4613 25.2347 52.28 25.48C52.0987 25.7467 51.9493 26.0027 51.832 26.248C51.7147 26.4933 51.656 26.8133 51.656 27.208V28.152C51.656 28.6427 51.736 29.0213 51.896 29.288C52.056 29.5547 52.2693 29.7413 52.536 29.848C52.8027 29.944 53.0853 29.992 53.384 29.992C54.4827 29.992 55.032 29.48 55.032 28.456V22.232H56.456V28.536C56.456 29.3573 56.1947 30.0027 55.672 30.472C55.16 30.9307 54.3973 31.16 53.384 31.16ZM62.15 31.16C60.998 31.16 60.134 30.8613 59.558 30.264C58.9927 29.656 58.71 28.7067 58.71 27.416C58.71 27.2027 58.7153 26.9733 58.726 26.728C58.7473 26.472 58.7687 26.2213 58.79 25.976H62.15V27.096H60.134V27.416C60.134 28.088 60.2087 28.616 60.358 29C60.5073 29.3733 60.726 29.6347 61.014 29.784C61.3127 29.9333 61.6807 30.008 62.118 30.008C62.598 30.008 63.014 29.9173 63.366 29.736C63.718 29.5547 63.99 29.224 64.182 28.744C64.374 28.264 64.47 27.576 64.47 26.68C64.47 25.5067 64.2673 24.6427 63.862 24.088C63.4673 23.5333 62.7793 23.256 61.798 23.256C61.286 23.256 60.7953 23.3253 60.326 23.464C59.8673 23.592 59.4247 23.7787 58.998 24.024V22.696C59.318 22.5253 59.7393 22.3813 60.262 22.264C60.7847 22.136 61.3553 22.072 61.974 22.072C62.9127 22.072 63.67 22.264 64.246 22.648C64.8327 23.0213 65.2593 23.5547 65.526 24.248C65.7927 24.9307 65.926 25.7413 65.926 26.68C65.926 27.6187 65.8033 28.424 65.558 29.096C65.3127 29.768 64.9127 30.28 64.358 30.632C63.814 30.984 63.078 31.16 62.15 31.16ZM69.6735 31L66.9375 22.232H68.3775L70.7455 29.768H70.9375C71.1935 29.768 71.4442 29.7093 71.6895 29.592C71.9348 29.464 72.1428 29.304 72.3135 29.112C72.6335 28.76 72.8682 28.3173 73.0175 27.784C73.1668 27.24 73.2415 26.7067 73.2415 26.184C73.2415 25.2987 73.0388 24.6053 72.6335 24.104C72.2388 23.592 71.6895 23.336 70.9855 23.336C70.6975 23.336 70.4522 23.3733 70.2495 23.448L69.8975 22.312C70.1215 22.248 70.3295 22.2053 70.5215 22.184C70.7242 22.1627 70.9055 22.152 71.0655 22.152C72.1108 22.152 72.9482 22.456 73.5775 23.064C73.9508 23.4267 74.2228 23.88 74.3935 24.424C74.5748 24.968 74.6655 25.5707 74.6655 26.232C74.6655 27.064 74.5375 27.8053 74.2815 28.456C74.0255 29.096 73.7055 29.608 73.3215 29.992C73.0122 30.3013 72.6335 30.5467 72.1855 30.728C71.7375 30.9093 71.1668 31 70.4735 31H69.6735ZM79.7713 31.16C78.8646 31.16 78.1446 30.9253 77.6113 30.456C77.0886 29.976 76.8273 29.2293 76.8273 28.216V25.992H78.2353V28.104C78.2353 28.6907 78.3899 29.1493 78.6993 29.48C79.0086 29.8 79.4726 29.96 80.0913 29.96C80.8486 29.96 81.4353 29.7253 81.8513 29.256C82.2673 28.776 82.4753 28.1467 82.4753 27.368V25.928C82.4753 25.224 82.3686 24.68 82.1553 24.296C81.9526 23.912 81.6593 23.6453 81.2753 23.496C80.8913 23.336 80.4273 23.256 79.8833 23.256C79.3713 23.256 78.8699 23.32 78.3793 23.448C77.8993 23.576 77.4299 23.784 76.9713 24.072V22.744C77.2806 22.5627 77.7073 22.408 78.2513 22.28C78.8059 22.1413 79.4086 22.072 80.0593 22.072C81.4246 22.072 82.4059 22.392 83.0033 23.032C83.6006 23.672 83.8993 24.6053 83.8993 25.832V31H82.7313L82.6513 29.704H82.5873C82.4059 30.1307 82.0699 30.4827 81.5793 30.76C81.0993 31.0267 80.4966 31.16 79.7713 31.16ZM81.7002 20.84C81.0282 20.84 80.5536 20.7067 80.2762 20.44C79.9989 20.1627 79.8602 19.8533 79.8602 19.512C79.8602 19.352 79.8869 19.1813 79.9402 19C79.9829 18.808 80.0416 18.6533 80.1162 18.536L81.3162 18.744C81.2522 18.872 81.2202 19.0373 81.2202 19.24C81.2202 19.3787 81.2629 19.5013 81.3482 19.608C81.4336 19.704 81.5776 19.752 81.7802 19.752H85.8283V20.84H81.7002ZM89.5075 31.16C88.5688 31.16 87.8275 30.9147 87.2835 30.424C86.7502 29.9333 86.4835 29.1547 86.4835 28.088V22.232H87.9075V28.008C87.9075 29.3093 88.5422 29.96 89.8115 29.96C90.5582 29.96 91.1342 29.72 91.5395 29.24C91.9555 28.76 92.1635 28.1147 92.1635 27.304V22.232H93.5875V31H92.4035L92.3395 29.704H92.2595C92.0675 30.1307 91.7315 30.4827 91.2515 30.76C90.7822 31.0267 90.2008 31.16 89.5075 31.16Z" fill="#57A3B3"/>
<rect x="0.5" y="0.5" width="199" height="47" stroke="#D0D0D0"/>
<rect x="0.5" y="46.5" width="199" height="47" fill="white"/>
<path d="M20.4 77.16C19.248 77.16 18.384 76.8613 17.808 76.264C17.2427 75.656 16.96 74.7067 16.96 73.416C16.96 73.2027 16.9653 72.9733 16.976 72.728C16.9973 72.472 17.0187 72.2213 17.04 71.976H20.4V73.096H18.384V73.416C18.384 74.088 18.4587 74.616 18.608 75C18.7573 75.3733 18.976 75.6347 19.264 75.784C19.5627 75.9333 19.9307 76.008 20.368 76.008C20.848 76.008 21.264 75.9173 21.616 75.736C21.968 75.5547 22.24 75.224 22.432 74.744C22.624 74.264 22.72 73.576 22.72 72.68C22.72 71.5067 22.5173 70.6427 22.112 70.088C21.7173 69.5333 21.0293 69.256 20.048 69.256C19.536 69.256 19.0453 69.3253 18.576 69.464C18.1173 69.592 17.6747 69.7787 17.248 70.024V68.696C17.568 68.5253 17.9893 68.3813 18.512 68.264C19.0347 68.136 19.6053 68.072 20.224 68.072C21.1627 68.072 21.92 68.264 22.496 68.648C23.0827 69.0213 23.5093 69.5547 23.776 70.248C24.0427 70.9307 24.176 71.7413 24.176 72.68C24.176 73.6187 24.0533 74.424 23.808 75.096C23.5627 75.768 23.1627 76.28 22.608 76.632C22.064 76.984 21.328 77.16 20.4 77.16ZM29.5875 77.16C28.4355 77.16 27.5715 76.8613 26.9955 76.264C26.4302 75.656 26.1475 74.7067 26.1475 73.416C26.1475 73.2027 26.1528 72.9733 26.1635 72.728C26.1848 72.472 26.2062 72.2213 26.2275 71.976H29.5875V73.096H27.5715V73.416C27.5715 74.088 27.6462 74.616 27.7955 75C27.9448 75.3733 28.1635 75.6347 28.4515 75.784C28.7502 75.9333 29.1182 76.008 29.5555 76.008C30.0355 76.008 30.4515 75.9173 30.8035 75.736C31.1555 75.5547 31.4275 75.224 31.6195 74.744C31.8115 74.264 31.9075 73.576 31.9075 72.68C31.9075 71.5067 31.7048 70.6427 31.2995 70.088C30.9048 69.5333 30.2168 69.256 29.2355 69.256C28.7235 69.256 28.2328 69.3253 27.7635 69.464C27.3048 69.592 26.8622 69.7787 26.4355 70.024V68.696C26.7555 68.5253 27.1768 68.3813 27.6995 68.264C28.2222 68.136 28.7928 68.072 29.4115 68.072C30.3502 68.072 31.1075 68.264 31.6835 68.648C32.2702 69.0213 32.6968 69.5547 32.9635 70.248C33.2302 70.9307 33.3635 71.7413 33.3635 72.68C33.3635 73.6187 33.2408 74.424 32.9955 75.096C32.7502 75.768 32.3502 76.28 31.7955 76.632C31.2515 76.984 30.5155 77.16 29.5875 77.16ZM35.591 77V73.96C35.591 73.288 35.7403 72.8027 36.039 72.504C36.3377 72.1947 36.7163 71.9813 37.175 71.864L37.191 71.816L35.431 71.144V70.616C35.431 70.1787 35.575 69.768 35.863 69.384C36.151 68.9893 36.5617 68.6747 37.095 68.44C37.639 68.1947 38.2843 68.072 39.031 68.072C39.6817 68.072 40.2843 68.1787 40.839 68.392C41.3937 68.5947 41.8363 68.92 42.167 69.368C42.5083 69.8053 42.679 70.3813 42.679 71.096V77H41.255V71.24C41.255 70.5253 41.0363 70.0187 40.599 69.72C40.1723 69.4107 39.6443 69.256 39.015 69.256C38.3643 69.256 37.847 69.3947 37.463 69.672C37.079 69.9387 36.887 70.28 36.887 70.696L38.615 71.56L38.487 72.328C38.0923 72.328 37.7457 72.4613 37.447 72.728C37.159 72.984 37.015 73.3947 37.015 73.96V77H35.591ZM46.3207 77V73.096H45.1048V71.976H47.6808V75.848H47.8888C48.6141 75.848 49.1528 75.6027 49.5048 75.112C49.8674 74.6107 50.0488 73.768 50.0488 72.584C50.0488 71.4 49.8461 70.552 49.4408 70.04C49.0354 69.5173 48.3421 69.256 47.3608 69.256C46.8594 69.256 46.3741 69.3253 45.9048 69.464C45.4461 69.592 45.0034 69.7947 44.5768 70.072V68.744C44.8968 68.552 45.3181 68.392 45.8408 68.264C46.3634 68.136 46.9288 68.072 47.5368 68.072C48.5074 68.072 49.2808 68.2533 49.8568 68.616C50.4434 68.968 50.8648 69.48 51.1208 70.152C51.3768 70.824 51.5048 71.64 51.5048 72.6C51.5048 73.528 51.3768 74.3227 51.1208 74.984C50.8754 75.6347 50.4701 76.136 49.9048 76.488C49.3501 76.8293 48.6034 77 47.6648 77H46.3207ZM56.2604 77V70.776C56.2604 70.2533 56.1377 69.8693 55.8924 69.624C55.6577 69.3787 55.2577 69.256 54.6924 69.256C54.3084 69.256 53.9457 69.3093 53.6044 69.416C53.2737 69.512 52.9537 69.6507 52.6444 69.832V68.552C52.8577 68.4453 53.1617 68.3387 53.5564 68.232C53.951 68.1253 54.4204 68.072 54.9644 68.072C55.7964 68.072 56.4577 68.2587 56.9484 68.632C57.439 69.0053 57.6844 69.6507 57.6844 70.568V77H56.2604ZM60.2004 77V73.96C60.2004 73.288 60.3497 72.8027 60.6484 72.504C60.947 72.1947 61.3257 71.9813 61.7844 71.864L61.8004 71.816L60.0404 71.144V70.616C60.0404 70.1787 60.1844 69.768 60.4724 69.384C60.7604 68.9893 61.171 68.6747 61.7044 68.44C62.2484 68.1947 62.8937 68.072 63.6404 68.072C64.291 68.072 64.8937 68.1787 65.4484 68.392C66.003 68.5947 66.4457 68.92 66.7764 69.368C67.1177 69.8053 67.2884 70.3813 67.2884 71.096V77H65.8644V71.24C65.8644 70.5253 65.6457 70.0187 65.2084 69.72C64.7817 69.4107 64.2537 69.256 63.6244 69.256C62.9737 69.256 62.4564 69.3947 62.0724 69.672C61.6884 69.9387 61.4964 70.28 61.4964 70.696L63.2244 71.56L63.0964 72.328C62.7017 72.328 62.355 72.4613 62.0564 72.728C61.7684 72.984 61.6244 73.3947 61.6244 73.96V77H60.2004ZM72.3381 77.16C71.7088 77.16 71.1221 77.1013 70.5781 76.984C70.0448 76.856 69.5915 76.7067 69.2181 76.536L69.6341 75.384C69.9755 75.5227 70.3808 75.656 70.8501 75.784C71.3301 75.912 71.8368 75.976 72.3701 75.976C72.9355 75.976 73.4048 75.8693 73.7781 75.656C74.1515 75.4427 74.3381 75.1333 74.3381 74.728C74.3381 74.3653 74.1888 74.0667 73.8901 73.832C73.5915 73.5973 73.1115 73.3787 72.4501 73.176C71.7781 72.9627 71.2075 72.7387 70.7381 72.504C70.2795 72.2587 69.9275 71.9707 69.6821 71.64C69.4475 71.2987 69.3301 70.8773 69.3301 70.376C69.3301 69.7147 69.6021 69.1653 70.1461 68.728C70.6901 68.2907 71.5595 68.072 72.7541 68.072C73.2661 68.072 73.7461 68.12 74.1941 68.216C74.6528 68.3013 75.0101 68.424 75.2661 68.584V69.784C74.9995 69.656 74.6315 69.5333 74.1621 69.416C73.6928 69.2987 73.2075 69.24 72.7061 69.24C71.9915 69.24 71.4848 69.352 71.1861 69.576C70.8981 69.7893 70.7541 70.0347 70.7541 70.312C70.7541 70.5467 70.8181 70.744 70.9461 70.904C71.0848 71.064 71.3141 71.2187 71.6341 71.368C71.9648 71.5173 72.4075 71.688 72.9621 71.88C73.4741 72.0507 73.9435 72.248 74.3701 72.472C74.7968 72.696 75.1328 72.9787 75.3781 73.32C75.6341 73.6507 75.7621 74.0773 75.7621 74.6C75.7621 75.048 75.6501 75.4693 75.4261 75.864C75.2128 76.248 74.8555 76.5627 74.3541 76.808C73.8528 77.0427 73.1808 77.16 72.3381 77.16ZM78.8386 71.496C78.1773 71.496 77.708 71.3573 77.4306 71.08C77.1533 70.792 77.0146 70.472 77.0146 70.12C77.0146 69.7573 77.1 69.448 77.2706 69.192L78.4706 69.384C78.4493 69.4373 78.4226 69.512 78.3906 69.608C78.3693 69.704 78.3586 69.8 78.3586 69.896C78.3586 70.0347 78.396 70.152 78.4706 70.248C78.5453 70.3333 78.684 70.376 78.8866 70.376H81.1746V71.496H78.8386ZM78.8386 75.976C78.1773 75.976 77.708 75.8373 77.4306 75.56C77.1533 75.272 77.0146 74.952 77.0146 74.6C77.0146 74.2373 77.1 73.928 77.2706 73.672L78.4706 73.864C78.4493 73.9173 78.4226 73.992 78.3906 74.088C78.3693 74.184 78.3586 74.28 78.3586 74.376C78.3586 74.5147 78.396 74.632 78.4706 74.728C78.5453 74.8133 78.684 74.856 78.8866 74.856H81.1746V75.976H78.8386ZM86.6129 77.16C85.3542 77.16 84.4529 76.872 83.9089 76.296C83.3649 75.72 83.0929 74.8987 83.0929 73.832V68.232H84.5169V73.848C84.5169 75.2667 85.2155 75.976 86.6129 75.976C87.3382 75.976 87.8715 75.8 88.2129 75.448C88.5649 75.096 88.7409 74.5627 88.7409 73.848V68.232H90.1649V73.832C90.1649 74.8987 89.8875 75.72 89.3329 76.296C88.7889 76.872 87.8822 77.16 86.6129 77.16ZM96.2691 77.16C95.0105 77.16 94.1091 76.872 93.5651 76.296C93.0211 75.72 92.7491 74.8987 92.7491 73.832V68.232H94.1731V73.848C94.1731 75.2667 94.8718 75.976 96.2691 75.976C96.9945 75.976 97.5278 75.8 97.8691 75.448C98.2211 75.096 98.3971 74.5627 98.3971 73.848V68.232H99.8211V73.832C99.8211 74.8987 99.5438 75.72 98.9891 76.296C98.4451 76.872 97.5385 77.16 96.2691 77.16Z" fill="#49474A"/>
<rect x="0.5" y="46.5" width="199" height="47" stroke="#D0D0D0"/>
</svg>
