<svg width="439" height="170" viewBox="0 0 439 170" fill="none" xmlns="http://www.w3.org/2000/svg">
<g filter="url(#filter0_d)">
<path d="M10 6H429V146C429 151.523 424.523 156 419 156H20C14.4772 156 10 151.523 10 146V6Z" fill="white"/>
<path d="M197.502 124.16C196.563 124.16 195.843 123.947 195.342 123.52C194.851 123.083 194.606 122.459 194.606 121.648C194.606 120.763 194.926 120.08 195.566 119.6C196.216 119.12 197.267 118.837 198.718 118.752L200.254 118.656V118.16C200.254 117.467 200.094 116.976 199.774 116.688C199.464 116.389 198.942 116.24 198.206 116.24C197.672 116.24 197.16 116.315 196.67 116.464C196.19 116.603 195.731 116.8 195.294 117.056V115.728C195.603 115.568 196.019 115.419 196.542 115.28C197.075 115.141 197.672 115.072 198.334 115.072C199.454 115.072 200.286 115.317 200.83 115.808C201.384 116.288 201.662 117.045 201.662 118.08V124H200.254V119.84L198.91 119.936C197.822 120.011 197.07 120.181 196.654 120.448C196.248 120.715 196.046 121.104 196.046 121.616C196.046 122.096 196.195 122.448 196.494 122.672C196.803 122.896 197.23 123.008 197.774 123.008C198.126 123.008 198.435 122.96 198.702 122.864L198.926 123.936C198.723 124.011 198.499 124.064 198.254 124.096C198.019 124.139 197.768 124.16 197.502 124.16ZM207.538 124.16C206.28 124.16 205.378 123.872 204.834 123.296C204.29 122.72 204.018 121.899 204.018 120.832V115.232H205.442V120.848C205.442 122.267 206.141 122.976 207.538 122.976C208.264 122.976 208.797 122.8 209.138 122.448C209.49 122.096 209.666 121.563 209.666 120.848V115.232H211.09V120.832C211.09 121.899 210.813 122.72 210.258 123.296C209.714 123.872 208.808 124.16 207.538 124.16ZM216.954 124.16C215.696 124.16 214.794 123.872 214.25 123.296C213.706 122.72 213.434 121.899 213.434 120.832V115.232H214.858V120.848C214.858 122.267 215.557 122.976 216.954 122.976C217.68 122.976 218.213 122.8 218.554 122.448C218.906 122.096 219.082 121.563 219.082 120.848V115.232H220.506V120.832C220.506 121.899 220.229 122.72 219.674 123.296C219.13 123.872 218.224 124.16 216.954 124.16ZM218.224 113.84C217.552 113.84 217.077 113.707 216.8 113.44C216.522 113.163 216.384 112.853 216.384 112.512C216.384 112.352 216.41 112.181 216.464 112C216.506 111.808 216.565 111.653 216.64 111.536L217.84 111.744C217.776 111.872 217.744 112.037 217.744 112.24C217.744 112.379 217.786 112.501 217.872 112.608C217.957 112.704 218.101 112.752 218.304 112.752H222.352V113.84H218.224ZM230.883 126.784C230.445 126.784 230.003 126.736 229.555 126.64C229.117 126.555 228.701 126.421 228.307 126.24V124.864C228.648 125.088 229.048 125.253 229.507 125.36C229.976 125.477 230.424 125.536 230.851 125.536C231.277 125.536 231.656 125.467 231.987 125.328C232.317 125.2 232.579 124.971 232.771 124.64C232.963 124.309 233.059 123.84 233.059 123.232V122.816H232.995C232.781 123.147 232.467 123.424 232.051 123.648C231.635 123.872 231.128 123.984 230.531 123.984C230.029 123.984 229.571 123.888 229.155 123.696C228.749 123.504 228.429 123.195 228.195 122.768C227.96 122.341 227.843 121.781 227.843 121.088V118.224C227.843 117.712 227.747 117.312 227.555 117.024C227.363 116.736 227.107 116.539 226.787 116.432C226.477 116.315 226.147 116.256 225.795 116.256C225.229 116.256 224.76 116.379 224.387 116.624C224.024 116.869 223.837 117.227 223.827 117.696L225.651 118.56L225.523 119.328C225.128 119.328 224.787 119.451 224.499 119.696C224.221 119.941 224.083 120.347 224.083 120.912V122.32C224.083 122.768 224.301 122.992 224.739 122.992C224.973 122.992 225.176 122.96 225.347 122.896L225.555 123.92C225.352 124.016 225.155 124.08 224.963 124.112C224.781 124.144 224.6 124.16 224.419 124.16C224.12 124.16 223.832 124.112 223.555 124.016C223.288 123.92 223.069 123.749 222.899 123.504C222.739 123.259 222.659 122.917 222.659 122.48V120.928C222.659 120.267 222.797 119.787 223.075 119.488C223.363 119.189 223.736 118.981 224.195 118.864L224.211 118.816L222.371 118.144V117.616C222.371 117.147 222.509 116.72 222.787 116.336C223.075 115.952 223.475 115.648 223.987 115.424C224.509 115.189 225.117 115.072 225.811 115.072C226.397 115.072 226.952 115.168 227.475 115.36C228.008 115.552 228.44 115.872 228.771 116.32C229.101 116.757 229.267 117.344 229.267 118.08V120.976C229.267 121.605 229.411 122.064 229.699 122.352C229.997 122.64 230.387 122.784 230.867 122.784C231.528 122.784 232.051 122.549 232.435 122.08C232.829 121.6 233.027 120.971 233.027 120.192V115.232H234.451V123.2C234.451 124.395 234.141 125.291 233.523 125.888C232.915 126.485 232.035 126.784 230.883 126.784ZM240.022 124.16C239.008 124.16 238.224 123.92 237.67 123.44C237.126 122.949 236.854 122.219 236.854 121.248V120.272C236.854 119.739 236.928 119.317 237.078 119.008C237.227 118.699 237.387 118.432 237.558 118.208C237.739 117.963 237.894 117.749 238.022 117.568C238.16 117.387 238.23 117.168 238.23 116.912C238.23 116.688 238.171 116.528 238.054 116.432C237.947 116.336 237.808 116.288 237.638 116.288C237.51 116.288 237.371 116.309 237.222 116.352C237.083 116.395 236.944 116.448 236.806 116.512L236.486 115.488C236.678 115.36 236.912 115.269 237.19 115.216C237.478 115.163 237.728 115.136 237.942 115.136C238.539 115.136 238.96 115.291 239.206 115.6C239.451 115.899 239.574 116.283 239.574 116.752C239.574 117.147 239.504 117.472 239.366 117.728C239.238 117.984 239.083 118.235 238.902 118.48C238.72 118.747 238.571 119.003 238.454 119.248C238.336 119.493 238.278 119.813 238.278 120.208V121.152C238.278 121.643 238.358 122.021 238.518 122.288C238.678 122.555 238.891 122.741 239.158 122.848C239.424 122.944 239.712 122.992 240.022 122.992C241.11 122.992 241.654 122.48 241.654 121.456V119.216C241.654 118.821 241.563 118.523 241.382 118.32C241.2 118.107 240.907 118 240.502 118H240.438V117.088H240.518C240.955 117.088 241.264 116.987 241.446 116.784C241.627 116.581 241.734 116.336 241.766 116.048C241.808 115.749 241.83 115.477 241.83 115.232H243.254C243.254 115.797 243.184 116.277 243.046 116.672C242.907 117.067 242.592 117.355 242.102 117.536V117.6C242.4 117.675 242.614 117.803 242.742 117.984C242.88 118.155 242.971 118.352 243.014 118.576C243.056 118.789 243.078 118.997 243.078 119.2V121.536C243.078 122.357 242.822 123.003 242.31 123.472C241.798 123.931 241.035 124.16 240.022 124.16ZM236.22 113.84V113.216L237.388 112.704H241.692V111.408H243.036V113.216H243.02V113.84H236.22Z" fill="#57A3B3"/>
<path d="M74 39C74 36.2386 76.2386 34 79 34H359C361.761 34 364 36.2386 364 39V77C364 79.7614 361.761 82 359 82H79C76.2386 82 74 79.7614 74 77V39Z" fill="#57A3B3"/>
<path d="M205.516 63.36C205.228 63.36 204.95 63.312 204.684 63.216C204.417 63.12 204.198 62.9493 204.028 62.704C203.857 62.4586 203.772 62.1173 203.772 61.68V54.432H205.196V61.504C205.196 61.7493 205.249 61.9253 205.356 62.032C205.462 62.1386 205.633 62.192 205.868 62.192C205.964 62.192 206.065 62.1813 206.172 62.16C206.278 62.1386 206.38 62.112 206.476 62.08L206.668 63.12C206.465 63.216 206.268 63.28 206.076 63.312C205.884 63.344 205.697 63.36 205.516 63.36ZM209.884 63.36C209.596 63.36 209.318 63.312 209.052 63.216C208.785 63.12 208.566 62.9493 208.396 62.704C208.225 62.4586 208.14 62.1173 208.14 61.68V54.432H209.564V61.504C209.564 61.7493 209.617 61.9253 209.724 62.032C209.83 62.1386 210.001 62.192 210.236 62.192C210.332 62.192 210.433 62.1813 210.54 62.16C210.646 62.1386 210.748 62.112 210.844 62.08L211.036 63.12C210.833 63.216 210.636 63.28 210.444 63.312C210.252 63.344 210.065 63.36 209.884 63.36ZM212.305 63.2V60.16C212.305 59.488 212.455 59.0026 212.753 58.704C213.052 58.3946 213.431 58.1813 213.889 58.064L213.905 58.016L212.145 57.344V56.816C212.145 56.3786 212.289 55.968 212.577 55.584C212.865 55.1893 213.276 54.8746 213.809 54.64C214.353 54.3946 214.999 54.272 215.745 54.272C216.396 54.272 216.999 54.3786 217.553 54.592C218.108 54.7946 218.551 55.12 218.881 55.568C219.223 56.0053 219.393 56.5813 219.393 57.296V63.2H217.969V57.44C217.969 56.7253 217.751 56.2186 217.313 55.92C216.887 55.6106 216.359 55.456 215.729 55.456C215.079 55.456 214.561 55.5946 214.177 55.872C213.793 56.1386 213.601 56.48 213.601 56.896L215.329 57.76L215.201 58.528C214.807 58.528 214.46 58.6613 214.161 58.928C213.873 59.184 213.729 59.5946 213.729 60.16V63.2H212.305ZM214.524 53.04V52.336C214.737 52.2933 214.956 52.2346 215.18 52.16C215.404 52.0746 215.591 51.968 215.74 51.84C215.889 51.7013 215.964 51.536 215.964 51.344C215.964 51.216 215.927 51.1093 215.852 51.024C215.767 50.928 215.639 50.88 215.468 50.88C215.361 50.88 215.255 50.9013 215.148 50.944C215.031 50.9866 214.929 51.024 214.844 51.056L214.524 50.176C214.737 50.0053 214.977 49.8933 215.244 49.84C215.5 49.7866 215.708 49.76 215.868 49.76C216.295 49.76 216.631 49.8773 216.876 50.112C217.111 50.3466 217.228 50.6453 217.228 51.008C217.228 51.1893 217.196 51.36 217.132 51.52C217.068 51.6693 216.988 51.8026 216.892 51.92H219.484V53.04H214.524ZM223.707 63.36C223.419 63.36 223.142 63.312 222.875 63.216C222.608 63.12 222.39 62.9493 222.219 62.704C222.048 62.4586 221.963 62.1173 221.963 61.68V53.168C221.963 52.5706 222.043 52.128 222.203 51.84C222.374 51.552 222.571 51.328 222.795 51.168L222.779 51.104H219.995L220.363 49.984H224.875V51.104C224.48 51.104 224.134 51.232 223.835 51.488C223.536 51.744 223.387 52.2133 223.387 52.896V61.504C223.387 61.7493 223.44 61.9253 223.547 62.032C223.654 62.1386 223.824 62.192 224.059 62.192C224.155 62.192 224.256 62.1813 224.363 62.16C224.47 62.1386 224.571 62.112 224.667 62.08L224.859 63.12C224.656 63.216 224.459 63.28 224.267 63.312C224.075 63.344 223.888 63.36 223.707 63.36ZM229.019 63.36C228.016 63.36 227.238 63.12 226.683 62.64C226.139 62.1493 225.867 61.4186 225.867 60.448V59.472C225.867 58.9386 225.942 58.5173 226.091 58.208C226.24 57.8986 226.4 57.632 226.571 57.408C226.752 57.1626 226.907 56.9493 227.035 56.768C227.174 56.5866 227.243 56.368 227.243 56.112C227.243 55.888 227.184 55.728 227.067 55.632C226.96 55.536 226.822 55.488 226.651 55.488C226.523 55.488 226.384 55.5093 226.235 55.552C226.096 55.5946 225.958 55.648 225.819 55.712L225.499 54.688C225.691 54.56 225.926 54.4693 226.203 54.416C226.491 54.3626 226.742 54.336 226.955 54.336C227.552 54.336 227.974 54.4906 228.219 54.8C228.464 55.0986 228.587 55.4826 228.587 55.952C228.587 56.3466 228.518 56.672 228.379 56.928C228.251 57.184 228.096 57.4346 227.915 57.68C227.734 57.9466 227.584 58.2026 227.467 58.448C227.35 58.6933 227.291 59.0133 227.291 59.408V60.352C227.291 60.8426 227.371 61.2213 227.531 61.488C227.691 61.7546 227.904 61.9413 228.171 62.048C228.438 62.144 228.72 62.192 229.019 62.192C230.118 62.192 230.667 61.68 230.667 60.656V54.432H232.091V60.736C232.091 61.5573 231.83 62.2026 231.307 62.672C230.795 63.1306 230.032 63.36 229.019 63.36Z" fill="white"/>
</g>
<defs>
<filter id="filter0_d" x="0" y="0" width="439" height="170" filterUnits="userSpaceOnUse" color-interpolation-filters="sRGB">
<feFlood flood-opacity="0" result="BackgroundImageFix"/>
<feColorMatrix in="SourceAlpha" type="matrix" values="0 0 0 0 0 0 0 0 0 0 0 0 0 0 0 0 0 0 127 0"/>
<feOffset dy="4"/>
<feGaussianBlur stdDeviation="5"/>
<feColorMatrix type="matrix" values="0 0 0 0 0 0 0 0 0 0 0 0 0 0 0 0 0 0 0.08 0"/>
<feBlend mode="normal" in2="BackgroundImageFix" result="effect1_dropShadow"/>
<feBlend mode="normal" in="SourceGraphic" in2="effect1_dropShadow" result="shape"/>
</filter>
</defs>
</svg>
