<svg width="439" height="214" viewBox="0 0 439 214" fill="none" xmlns="http://www.w3.org/2000/svg">
<g filter="url(#filter0_d)">
<rect x="10" y="6" width="419" height="194" rx="10" fill="white"/>
<path d="M57 112C57 109.239 59.2386 107 62 107H202C204.761 107 207 109.239 207 112V150C207 152.761 204.761 155 202 155H62C59.2386 155 57 152.761 57 150V112Z" fill="#F43240"/>
<path d="M115.461 136.344C114.171 136.344 113.259 136.099 112.725 135.608C112.192 135.117 111.925 134.456 111.925 133.624C111.925 133.133 111.995 132.744 112.133 132.456C112.283 132.157 112.464 131.939 112.677 131.8C112.901 131.661 113.131 131.571 113.365 131.528V131.464C113.152 131.4 112.928 131.293 112.693 131.144C112.459 130.995 112.261 130.787 112.101 130.52C111.952 130.253 111.877 129.917 111.877 129.512C111.877 129.139 111.963 128.787 112.133 128.456C112.304 128.125 112.581 127.853 112.965 127.64C113.349 127.427 113.856 127.32 114.485 127.32C114.741 127.32 115.008 127.341 115.285 127.384C115.563 127.416 115.776 127.475 115.925 127.56L115.669 128.664C115.552 128.621 115.397 128.584 115.205 128.552C115.024 128.509 114.832 128.488 114.629 128.488C114.181 128.488 113.851 128.595 113.637 128.808C113.424 129.011 113.317 129.283 113.317 129.624C113.317 129.997 113.408 130.28 113.589 130.472C113.781 130.664 114.021 130.797 114.309 130.872C114.608 130.936 114.917 130.968 115.237 130.968H115.541V132.008H115.237C114.597 132.008 114.123 132.125 113.813 132.36C113.515 132.584 113.365 132.963 113.365 133.496C113.365 133.805 113.424 134.088 113.541 134.344C113.669 134.6 113.883 134.803 114.181 134.952C114.491 135.101 114.917 135.176 115.461 135.176C116.272 135.176 116.827 135.011 117.125 134.68C117.424 134.339 117.573 133.875 117.573 133.288V127.432H118.997V133.192C118.997 134.312 118.709 135.117 118.133 135.608C117.568 136.099 116.677 136.344 115.461 136.344ZM121.265 136.2V133.16C121.265 132.488 121.415 132.003 121.713 131.704C122.012 131.395 122.391 131.181 122.849 131.064L122.865 131.016L121.105 130.344V129.816C121.105 129.379 121.249 128.968 121.537 128.584C121.825 128.189 122.236 127.875 122.769 127.64C123.313 127.395 123.959 127.272 124.705 127.272C125.356 127.272 125.959 127.379 126.513 127.592C127.068 127.795 127.511 128.12 127.841 128.568C128.183 129.005 128.353 129.581 128.353 130.296V136.2H126.929V130.44C126.929 129.725 126.711 129.219 126.273 128.92C125.847 128.611 125.319 128.456 124.689 128.456C124.039 128.456 123.521 128.595 123.137 128.872C122.753 129.139 122.561 129.48 122.561 129.896L124.289 130.76L124.161 131.528C123.767 131.528 123.42 131.661 123.121 131.928C122.833 132.184 122.689 132.595 122.689 133.16V136.2H121.265ZM132.683 136.36C132.395 136.36 132.118 136.312 131.851 136.216C131.584 136.12 131.366 135.949 131.195 135.704C131.024 135.459 130.939 135.117 130.939 134.68V127.432H132.363V134.504C132.363 134.749 132.416 134.925 132.523 135.032C132.63 135.139 132.8 135.192 133.035 135.192C133.131 135.192 133.232 135.181 133.339 135.16C133.446 135.139 133.547 135.112 133.643 135.08L133.835 136.12C133.632 136.216 133.435 136.28 133.243 136.312C133.051 136.344 132.864 136.36 132.683 136.36ZM137.405 136.36C136.467 136.36 135.747 136.147 135.245 135.72C134.755 135.283 134.509 134.659 134.509 133.848C134.509 132.963 134.829 132.28 135.469 131.8C136.12 131.32 137.171 131.037 138.621 130.952L140.157 130.856V130.36C140.157 129.667 139.997 129.176 139.677 128.888C139.368 128.589 138.845 128.44 138.109 128.44C137.576 128.44 137.064 128.515 136.573 128.664C136.093 128.803 135.635 129 135.197 129.256V127.928C135.507 127.768 135.923 127.619 136.445 127.48C136.979 127.341 137.576 127.272 138.237 127.272C139.357 127.272 140.189 127.517 140.733 128.008C141.288 128.488 141.565 129.245 141.565 130.28V136.2H140.157V132.04L138.813 132.136C137.725 132.211 136.973 132.381 136.557 132.648C136.152 132.915 135.949 133.304 135.949 133.816C135.949 134.296 136.099 134.648 136.397 134.872C136.707 135.096 137.133 135.208 137.677 135.208C138.029 135.208 138.339 135.16 138.605 135.064L138.829 136.136C138.627 136.211 138.403 136.264 138.157 136.296C137.923 136.339 137.672 136.36 137.405 136.36ZM134.293 126.04V125.416L135.461 124.904H141.093V126.04H134.293ZM143.602 136.2V133.16C143.602 132.488 143.751 132.003 144.05 131.704C144.349 131.395 144.727 131.181 145.186 131.064L145.202 131.016L143.442 130.344V129.816C143.442 129.379 143.586 128.968 143.874 128.584C144.162 128.189 144.573 127.875 145.106 127.64C145.65 127.395 146.295 127.272 147.042 127.272C147.693 127.272 148.295 127.379 148.85 127.592C149.405 127.795 149.847 128.12 150.178 128.568C150.519 129.005 150.69 129.581 150.69 130.296V136.2H149.266V130.44C149.266 129.725 149.047 129.219 148.61 128.92C148.183 128.611 147.655 128.456 147.026 128.456C146.375 128.456 145.858 128.595 145.474 128.872C145.09 129.139 144.898 129.48 144.898 129.896L146.626 130.76L146.498 131.528C146.103 131.528 145.757 131.661 145.458 131.928C145.17 132.184 145.026 132.595 145.026 133.16V136.2H143.602Z" fill="white"/>
<path d="M300.286 136.36C299.347 136.36 298.627 136.147 298.126 135.72C297.635 135.283 297.39 134.659 297.39 133.848C297.39 132.963 297.71 132.28 298.35 131.8C299.001 131.32 300.051 131.037 301.502 130.952L303.038 130.856V130.36C303.038 129.667 302.878 129.176 302.558 128.888C302.249 128.589 301.726 128.44 300.99 128.44C300.457 128.44 299.945 128.515 299.454 128.664C298.974 128.803 298.515 129 298.078 129.256V127.928C298.387 127.768 298.803 127.619 299.326 127.48C299.859 127.341 300.457 127.272 301.118 127.272C302.238 127.272 303.07 127.517 303.614 128.008C304.169 128.488 304.446 129.245 304.446 130.28V136.2H303.038V132.04L301.694 132.136C300.606 132.211 299.854 132.381 299.438 132.648C299.033 132.915 298.83 133.304 298.83 133.816C298.83 134.296 298.979 134.648 299.278 134.872C299.587 135.096 300.014 135.208 300.558 135.208C300.91 135.208 301.219 135.16 301.486 135.064L301.71 136.136C301.507 136.211 301.283 136.264 301.038 136.296C300.803 136.339 300.553 136.36 300.286 136.36ZM310.323 136.36C309.064 136.36 308.163 136.072 307.619 135.496C307.075 134.92 306.803 134.099 306.803 133.032V127.432H308.227V133.048C308.227 134.467 308.925 135.176 310.323 135.176C311.048 135.176 311.581 135 311.923 134.648C312.275 134.296 312.451 133.763 312.451 133.048V127.432H313.875V133.032C313.875 134.099 313.597 134.92 313.043 135.496C312.499 136.072 311.592 136.36 310.323 136.36Z" fill="#F43240"/>
<path d="M236 108H376V106H236V108ZM380 112V150H382V112H380ZM376 154H236V156H376V154ZM232 150V112H230V150H232ZM236 154C233.791 154 232 152.209 232 150H230C230 153.314 232.686 156 236 156V154ZM380 150C380 152.209 378.209 154 376 154V156C379.314 156 382 153.314 382 150H380ZM376 108C378.209 108 380 109.791 380 112H382C382 108.686 379.314 106 376 106V108ZM236 106C232.686 106 230 108.686 230 112H232C232 109.791 233.791 108 236 108V106Z" fill="#F43240"/>
<path d="M67.1896 67.18C66.1816 67.18 65.4016 66.952 64.8496 66.496C64.2976 66.028 63.9136 65.398 63.6976 64.606C63.4816 63.802 63.3736 62.89 63.3736 61.87C63.3736 60.118 63.6196 58.864 64.1116 58.108C64.6156 57.34 65.3356 56.956 66.2716 56.956C66.6916 56.956 67.0456 57.028 67.3336 57.172C67.6336 57.316 67.8436 57.556 67.9636 57.892H68.0356C68.1556 57.544 68.3716 57.304 68.6836 57.172C68.9956 57.028 69.3616 56.956 69.7816 56.956C70.5616 56.956 71.1616 57.166 71.5816 57.586C72.0136 57.994 72.2296 58.624 72.2296 59.476V67H70.6276V59.494C70.6276 59.026 70.5256 58.708 70.3216 58.54C70.1176 58.372 69.8596 58.288 69.5476 58.288C69.1996 58.288 68.9416 58.372 68.7736 58.54C68.6176 58.708 68.5216 58.984 68.4856 59.368H67.4776C67.4296 58.948 67.3036 58.666 67.0996 58.522C66.8956 58.366 66.6676 58.288 66.4156 58.288C65.9356 58.288 65.5756 58.57 65.3356 59.134C65.0956 59.686 64.9756 60.604 64.9756 61.888C64.9756 62.716 65.0356 63.424 65.1556 64.012C65.2876 64.6 65.5276 65.056 65.8756 65.38C66.2236 65.692 66.7276 65.848 67.3876 65.848C67.6276 65.848 67.8256 65.836 67.9816 65.812C68.1376 65.788 68.2876 65.758 68.4316 65.722L68.5936 66.946C68.4136 67.03 68.1976 67.09 67.9456 67.126C67.6936 67.162 67.4416 67.18 67.1896 67.18ZM66.7186 55.57V54.778C66.9586 54.73 67.2046 54.664 67.4566 54.58C67.7086 54.484 67.9186 54.364 68.0866 54.22C68.2546 54.064 68.3386 53.878 68.3386 53.662C68.3386 53.518 68.2966 53.398 68.2126 53.302C68.1166 53.194 67.9726 53.14 67.7806 53.14C67.6606 53.14 67.5406 53.164 67.4206 53.212C67.2886 53.26 67.1746 53.302 67.0786 53.338L66.7186 52.348C66.9586 52.156 67.2286 52.03 67.5286 51.97C67.8166 51.91 68.0506 51.88 68.2306 51.88C68.7106 51.88 69.0886 52.012 69.3646 52.276C69.6286 52.54 69.7606 52.876 69.7606 53.284C69.7606 53.488 69.7246 53.68 69.6526 53.86C69.5806 54.028 69.4906 54.178 69.3826 54.31H72.2986V55.57H66.7186ZM78.0929 67.18C76.7969 67.18 75.8249 66.844 75.1769 66.172C74.5409 65.488 74.2229 64.42 74.2229 62.968C74.2229 62.728 74.2289 62.47 74.2409 62.194C74.2649 61.906 74.2889 61.624 74.3129 61.348H78.0929V62.608H75.8249V62.968C75.8249 63.724 75.9089 64.318 76.0769 64.75C76.2449 65.17 76.4909 65.464 76.8149 65.632C77.1509 65.8 77.5649 65.884 78.0569 65.884C78.5969 65.884 79.0649 65.782 79.4609 65.578C79.8569 65.374 80.1629 65.002 80.3789 64.462C80.5949 63.922 80.7029 63.148 80.7029 62.14C80.7029 60.82 80.4749 59.848 80.0189 59.224C79.5749 58.6 78.8009 58.288 77.6969 58.288C77.1209 58.288 76.5689 58.366 76.0409 58.522C75.5249 58.666 75.0269 58.876 74.5469 59.152V57.658C74.9069 57.466 75.3809 57.304 75.9689 57.172C76.5569 57.028 77.1989 56.956 77.8949 56.956C78.9509 56.956 79.8029 57.172 80.4509 57.604C81.1109 58.024 81.5909 58.624 81.8909 59.404C82.1909 60.172 82.3409 61.084 82.3409 62.14C82.3409 63.196 82.2029 64.102 81.9269 64.858C81.6509 65.614 81.2009 66.19 80.5769 66.586C79.9649 66.982 79.1369 67.18 78.0929 67.18ZM86.2869 67L83.2089 57.136H84.8289L87.4929 65.614H87.7089C87.9969 65.614 88.2789 65.548 88.5549 65.416C88.8309 65.272 89.0649 65.092 89.2569 64.876C89.6169 64.48 89.8809 63.982 90.0489 63.382C90.2169 62.77 90.3009 62.17 90.3009 61.582C90.3009 60.586 90.0729 59.806 89.6169 59.242C89.1729 58.666 88.5549 58.378 87.7629 58.378C87.4389 58.378 87.1629 58.42 86.9349 58.504L86.5389 57.226C86.7909 57.154 87.0249 57.106 87.2409 57.082C87.4689 57.058 87.6729 57.046 87.8529 57.046C89.0289 57.046 89.9709 57.388 90.6789 58.072C91.0989 58.48 91.4049 58.99 91.5969 59.602C91.8009 60.214 91.9029 60.892 91.9029 61.636C91.9029 62.572 91.7589 63.406 91.4709 64.138C91.1829 64.858 90.8229 65.434 90.3909 65.866C90.0429 66.214 89.6169 66.49 89.1129 66.694C88.6089 66.898 87.9669 67 87.1869 67H86.2869ZM93.9748 67V63.58C93.9748 62.824 94.1428 62.278 94.4788 61.942C94.8148 61.594 95.2408 61.354 95.7568 61.222L95.7748 61.168L93.7948 60.412V59.818C93.7948 59.326 93.9568 58.864 94.2808 58.432C94.6048 57.988 95.0668 57.634 95.6668 57.37C96.2788 57.094 97.0048 56.956 97.8448 56.956C98.5768 56.956 99.2548 57.076 99.8788 57.316C100.503 57.544 101.001 57.91 101.373 58.414C101.757 58.906 101.949 59.554 101.949 60.358V67H100.347V60.52C100.347 59.716 100.101 59.146 99.6088 58.81C99.1288 58.462 98.5348 58.288 97.8268 58.288C97.0948 58.288 96.5128 58.444 96.0808 58.756C95.6488 59.056 95.4328 59.44 95.4328 59.908L97.3768 60.88L97.2328 61.744C96.7888 61.744 96.3988 61.894 96.0628 62.194C95.7388 62.482 95.5768 62.944 95.5768 63.58V67H93.9748ZM107.378 67V59.998C107.378 59.41 107.24 58.978 106.964 58.702C106.7 58.426 106.25 58.288 105.614 58.288C105.182 58.288 104.774 58.348 104.39 58.468C104.018 58.576 103.658 58.732 103.31 58.936V57.496C103.55 57.376 103.892 57.256 104.336 57.136C104.78 57.016 105.308 56.956 105.92 56.956C106.856 56.956 107.6 57.166 108.152 57.586C108.704 58.006 108.98 58.732 108.98 59.764V67H107.378ZM114.402 67.18C113.694 67.18 113.034 67.114 112.422 66.982C111.822 66.838 111.312 66.67 110.892 66.478L111.36 65.182C111.744 65.338 112.2 65.488 112.728 65.632C113.268 65.776 113.838 65.848 114.438 65.848C115.074 65.848 115.602 65.728 116.022 65.488C116.442 65.248 116.652 64.9 116.652 64.444C116.652 64.036 116.484 63.7 116.148 63.436C115.812 63.172 115.272 62.926 114.528 62.698C113.772 62.458 113.13 62.206 112.602 61.942C112.086 61.666 111.69 61.342 111.414 60.97C111.15 60.586 111.018 60.112 111.018 59.548C111.018 58.804 111.324 58.186 111.936 57.694C112.548 57.202 113.526 56.956 114.87 56.956C115.446 56.956 115.986 57.01 116.49 57.118C117.006 57.214 117.408 57.352 117.696 57.532V58.882C117.396 58.738 116.982 58.6 116.454 58.468C115.926 58.336 115.38 58.27 114.816 58.27C114.012 58.27 113.442 58.396 113.106 58.648C112.782 58.888 112.62 59.164 112.62 59.476C112.62 59.74 112.692 59.962 112.836 60.142C112.992 60.322 113.25 60.496 113.61 60.664C113.982 60.832 114.48 61.024 115.104 61.24C115.68 61.432 116.208 61.654 116.688 61.906C117.168 62.158 117.546 62.476 117.822 62.86C118.11 63.232 118.254 63.712 118.254 64.3C118.254 64.804 118.128 65.278 117.876 65.722C117.636 66.154 117.234 66.508 116.67 66.784C116.106 67.048 115.35 67.18 114.402 67.18ZM121.337 67V62.608H119.969V61.348H122.867V65.704H123.101C123.917 65.704 124.523 65.428 124.919 64.876C125.327 64.312 125.531 63.364 125.531 62.032C125.531 60.7 125.303 59.746 124.847 59.17C124.391 58.582 123.611 58.288 122.507 58.288C121.943 58.288 121.397 58.366 120.869 58.522C120.353 58.666 119.855 58.894 119.375 59.206V57.712C119.735 57.496 120.209 57.316 120.797 57.172C121.385 57.028 122.021 56.956 122.705 56.956C123.797 56.956 124.667 57.16 125.315 57.568C125.975 57.964 126.449 58.54 126.737 59.296C127.025 60.052 127.169 60.97 127.169 62.05C127.169 63.094 127.025 63.988 126.737 64.732C126.461 65.464 126.005 66.028 125.369 66.424C124.745 66.808 123.905 67 122.849 67H121.337ZM130.755 60.808C130.011 60.808 129.483 60.652 129.171 60.34C128.859 60.016 128.703 59.656 128.703 59.26C128.703 58.852 128.799 58.504 128.991 58.216L130.341 58.432C130.317 58.492 130.287 58.576 130.251 58.684C130.227 58.792 130.215 58.9 130.215 59.008C130.215 59.164 130.257 59.296 130.341 59.404C130.425 59.5 130.581 59.548 130.809 59.548H133.383V60.808H130.755ZM130.755 65.848C130.011 65.848 129.483 65.692 129.171 65.38C128.859 65.056 128.703 64.696 128.703 64.3C128.703 63.892 128.799 63.544 128.991 63.256L130.341 63.472C130.317 63.532 130.287 63.616 130.251 63.724C130.227 63.832 130.215 63.94 130.215 64.048C130.215 64.204 130.257 64.336 130.341 64.444C130.425 64.54 130.581 64.588 130.809 64.588H133.383V65.848H130.755ZM137.953 67.18C136.897 67.18 136.087 66.94 135.523 66.46C134.971 65.968 134.695 65.266 134.695 64.354C134.695 63.358 135.055 62.59 135.775 62.05C136.507 61.51 137.689 61.192 139.321 61.096L141.049 60.988V60.43C141.049 59.65 140.869 59.098 140.509 58.774C140.161 58.438 139.573 58.27 138.745 58.27C138.145 58.27 137.569 58.354 137.017 58.522C136.477 58.678 135.961 58.9 135.469 59.188V57.694C135.817 57.514 136.285 57.346 136.873 57.19C137.473 57.034 138.145 56.956 138.889 56.956C140.149 56.956 141.085 57.232 141.697 57.784C142.321 58.324 142.633 59.176 142.633 60.34V67H141.049V62.32L139.537 62.428C138.313 62.512 137.467 62.704 136.999 63.004C136.543 63.304 136.315 63.742 136.315 64.318C136.315 64.858 136.483 65.254 136.819 65.506C137.167 65.758 137.647 65.884 138.259 65.884C138.655 65.884 139.003 65.83 139.303 65.722L139.555 66.928C139.327 67.012 139.075 67.072 138.799 67.108C138.535 67.156 138.253 67.18 137.953 67.18ZM149.245 67.18C147.829 67.18 146.815 66.856 146.203 66.208C145.591 65.56 145.285 64.636 145.285 63.436V57.136H146.887V63.454C146.887 65.05 147.673 65.848 149.245 65.848C150.061 65.848 150.661 65.65 151.045 65.254C151.441 64.858 151.639 64.258 151.639 63.454V57.136H153.241V63.436C153.241 64.636 152.929 65.56 152.305 66.208C151.693 66.856 150.673 67.18 149.245 67.18ZM159.838 67.18C158.422 67.18 157.408 66.856 156.796 66.208C156.184 65.56 155.878 64.636 155.878 63.436V57.136H157.48V63.454C157.48 65.05 158.266 65.848 159.838 65.848C160.654 65.848 161.254 65.65 161.638 65.254C162.034 64.858 162.232 64.258 162.232 63.454V57.136H163.834V63.436C163.834 64.636 163.522 65.56 162.898 66.208C162.286 66.856 161.266 67.18 159.838 67.18ZM161.266 55.57C160.51 55.57 159.976 55.42 159.664 55.12C159.352 54.808 159.196 54.46 159.196 54.076C159.196 53.896 159.226 53.704 159.286 53.5C159.334 53.284 159.4 53.11 159.484 52.978L160.834 53.212C160.762 53.356 160.726 53.542 160.726 53.77C160.726 53.926 160.774 54.064 160.87 54.184C160.966 54.292 161.128 54.346 161.356 54.346H165.91V55.57H161.266ZM175.507 70.132C175.015 70.132 174.517 70.078 174.013 69.97C173.521 69.874 173.053 69.724 172.609 69.52V67.972C172.993 68.224 173.443 68.41 173.959 68.53C174.487 68.662 174.991 68.728 175.471 68.728C175.951 68.728 176.377 68.65 176.749 68.494C177.121 68.35 177.415 68.092 177.631 67.72C177.847 67.348 177.955 66.82 177.955 66.136V65.668H177.883C177.643 66.04 177.289 66.352 176.821 66.604C176.353 66.856 175.783 66.982 175.111 66.982C174.547 66.982 174.031 66.874 173.563 66.658C173.107 66.442 172.747 66.094 172.483 65.614C172.219 65.134 172.087 64.504 172.087 63.724V60.502C172.087 59.926 171.979 59.476 171.763 59.152C171.547 58.828 171.259 58.606 170.899 58.486C170.551 58.354 170.179 58.288 169.783 58.288C169.147 58.288 168.619 58.426 168.199 58.702C167.791 58.978 167.581 59.38 167.569 59.908L169.621 60.88L169.477 61.744C169.033 61.744 168.649 61.882 168.325 62.158C168.013 62.434 167.857 62.89 167.857 63.526V65.11C167.857 65.614 168.103 65.866 168.595 65.866C168.859 65.866 169.087 65.83 169.279 65.758L169.513 66.91C169.285 67.018 169.063 67.09 168.847 67.126C168.643 67.162 168.439 67.18 168.235 67.18C167.899 67.18 167.575 67.126 167.263 67.018C166.963 66.91 166.717 66.718 166.525 66.442C166.345 66.166 166.255 65.782 166.255 65.29V63.544C166.255 62.8 166.411 62.26 166.723 61.924C167.047 61.588 167.467 61.354 167.983 61.222L168.001 61.168L165.931 60.412V59.818C165.931 59.29 166.087 58.81 166.399 58.378C166.723 57.946 167.173 57.604 167.749 57.352C168.337 57.088 169.021 56.956 169.801 56.956C170.461 56.956 171.085 57.064 171.673 57.28C172.273 57.496 172.759 57.856 173.131 58.36C173.503 58.852 173.689 59.512 173.689 60.34V63.598C173.689 64.306 173.851 64.822 174.175 65.146C174.511 65.47 174.949 65.632 175.489 65.632C176.233 65.632 176.821 65.368 177.253 64.84C177.697 64.3 177.919 63.592 177.919 62.716V57.136H179.521V66.1C179.521 67.444 179.173 68.452 178.477 69.124C177.793 69.796 176.803 70.132 175.507 70.132ZM185.788 67.18C184.648 67.18 183.766 66.91 183.142 66.37C182.53 65.818 182.224 64.996 182.224 63.904V62.806C182.224 62.206 182.308 61.732 182.476 61.384C182.644 61.036 182.824 60.736 183.016 60.484C183.22 60.208 183.394 59.968 183.538 59.764C183.694 59.56 183.772 59.314 183.772 59.026C183.772 58.774 183.706 58.594 183.574 58.486C183.454 58.378 183.298 58.324 183.106 58.324C182.962 58.324 182.806 58.348 182.638 58.396C182.482 58.444 182.326 58.504 182.17 58.576L181.81 57.424C182.026 57.28 182.29 57.178 182.602 57.118C182.926 57.058 183.208 57.028 183.448 57.028C184.12 57.028 184.594 57.202 184.87 57.55C185.146 57.886 185.284 58.318 185.284 58.846C185.284 59.29 185.206 59.656 185.05 59.944C184.906 60.232 184.732 60.514 184.528 60.79C184.324 61.09 184.156 61.378 184.024 61.654C183.892 61.93 183.826 62.29 183.826 62.734V63.796C183.826 64.348 183.916 64.774 184.096 65.074C184.276 65.374 184.516 65.584 184.816 65.704C185.116 65.812 185.44 65.866 185.788 65.866C187.012 65.866 187.624 65.29 187.624 64.138V61.618C187.624 61.174 187.522 60.838 187.318 60.61C187.114 60.37 186.784 60.25 186.328 60.25H186.256V59.224H186.346C186.838 59.224 187.186 59.11 187.39 58.882C187.594 58.654 187.714 58.378 187.75 58.054C187.798 57.718 187.822 57.412 187.822 57.136H189.424C189.424 57.772 189.346 58.312 189.19 58.756C189.034 59.2 188.68 59.524 188.128 59.728V59.8C188.464 59.884 188.704 60.028 188.848 60.232C189.004 60.424 189.106 60.646 189.154 60.898C189.202 61.138 189.226 61.372 189.226 61.6V64.228C189.226 65.152 188.938 65.878 188.362 66.406C187.786 66.922 186.928 67.18 185.788 67.18ZM181.512 55.57V54.868L182.826 54.292H187.668V52.834H189.18V54.868H189.162V55.57H181.512ZM191.743 67V58.882C191.743 58.366 191.845 57.97 192.049 57.694C192.253 57.418 192.517 57.226 192.841 57.118C193.165 57.01 193.513 56.956 193.885 56.956C194.017 56.956 194.185 56.974 194.389 57.01C194.605 57.046 194.791 57.1 194.947 57.172L194.749 58.378C194.629 58.342 194.509 58.318 194.389 58.306C194.269 58.282 194.173 58.27 194.101 58.27C193.801 58.27 193.591 58.342 193.471 58.486C193.363 58.63 193.309 58.834 193.309 59.098V61.888C193.309 62.26 193.303 62.65 193.291 63.058C193.291 63.454 193.273 63.934 193.237 64.498H193.309C193.549 63.97 193.771 63.532 193.975 63.184C194.179 62.824 194.371 62.488 194.551 62.176L195.505 60.556H196.513L197.467 62.176C197.743 62.656 197.977 63.07 198.169 63.418C198.361 63.754 198.541 64.114 198.709 64.498H198.781C198.745 63.934 198.721 63.454 198.709 63.058C198.709 62.65 198.709 62.26 198.709 61.888V57.136H200.275V67H198.853L196.063 62.284H195.991L193.165 67H191.743ZM197.672 71.77C196.904 71.77 196.322 71.614 195.926 71.302C195.518 71.002 195.314 70.57 195.314 70.006V69.7C195.314 69.496 195.266 69.37 195.17 69.322C195.062 69.286 194.918 69.292 194.738 69.34L194.63 68.26C194.798 68.212 194.966 68.182 195.134 68.17C195.29 68.158 195.41 68.152 195.494 68.152C195.926 68.152 196.238 68.248 196.43 68.44C196.61 68.632 196.7 68.902 196.7 69.25V69.862C196.7 70.09 196.772 70.282 196.916 70.438C197.06 70.594 197.306 70.672 197.654 70.672C198.014 70.672 198.266 70.594 198.41 70.438C198.542 70.282 198.608 70.09 198.608 69.862V68.206H200.012V69.952C200.012 71.164 199.232 71.77 197.672 71.77ZM194.72 55.57V54.778C194.96 54.73 195.206 54.664 195.458 54.58C195.71 54.484 195.92 54.364 196.088 54.22C196.256 54.064 196.34 53.878 196.34 53.662C196.34 53.518 196.298 53.398 196.214 53.302C196.118 53.194 195.974 53.14 195.782 53.14C195.662 53.14 195.542 53.164 195.422 53.212C195.29 53.26 195.176 53.302 195.08 53.338L194.72 52.348C194.96 52.156 195.23 52.03 195.53 51.97C195.818 51.91 196.052 51.88 196.232 51.88C196.712 51.88 197.09 52.012 197.366 52.276C197.63 52.54 197.762 52.876 197.762 53.284C197.762 53.488 197.726 53.68 197.654 53.86C197.582 54.028 197.492 54.178 197.384 54.31H200.3V55.57H194.72ZM204.585 67.18C204.249 67.18 203.931 67.126 203.631 67.018C203.331 66.91 203.085 66.718 202.893 66.442C202.701 66.166 202.605 65.782 202.605 65.29V58.252C202.605 57.916 202.635 57.646 202.695 57.442C202.755 57.226 202.851 57.016 202.983 56.812C203.127 56.608 203.325 56.35 203.577 56.038C203.877 55.666 204.099 55.36 204.243 55.12C204.387 54.88 204.459 54.616 204.459 54.328C204.459 53.632 204.033 53.284 203.181 53.284C202.809 53.284 202.467 53.338 202.155 53.446C201.855 53.554 201.603 53.662 201.399 53.77V52.402C201.567 52.306 201.819 52.216 202.155 52.132C202.503 52.036 202.911 51.988 203.379 51.988C204.171 51.988 204.807 52.168 205.287 52.528C205.779 52.876 206.025 53.416 206.025 54.148C206.025 54.628 205.935 55.048 205.755 55.408C205.575 55.768 205.365 56.092 205.125 56.38C204.921 56.644 204.747 56.866 204.603 57.046C204.471 57.214 204.369 57.388 204.297 57.568C204.237 57.748 204.207 57.988 204.207 58.288V65.092C204.207 65.368 204.267 65.566 204.387 65.686C204.507 65.806 204.693 65.866 204.945 65.866C205.077 65.866 205.203 65.854 205.323 65.83C205.443 65.806 205.551 65.776 205.647 65.74L205.863 66.91C205.635 67.018 205.413 67.09 205.197 67.126C204.993 67.162 204.789 67.18 204.585 67.18ZM210.729 67.18C209.589 67.18 208.707 66.91 208.083 66.37C207.471 65.818 207.165 64.996 207.165 63.904V62.806C207.165 62.206 207.249 61.732 207.417 61.384C207.585 61.036 207.765 60.736 207.957 60.484C208.161 60.208 208.335 59.968 208.479 59.764C208.635 59.56 208.713 59.314 208.713 59.026C208.713 58.774 208.647 58.594 208.515 58.486C208.395 58.378 208.239 58.324 208.047 58.324C207.903 58.324 207.747 58.348 207.579 58.396C207.423 58.444 207.267 58.504 207.111 58.576L206.751 57.424C206.967 57.28 207.231 57.178 207.543 57.118C207.867 57.058 208.149 57.028 208.389 57.028C209.061 57.028 209.535 57.202 209.811 57.55C210.087 57.886 210.225 58.318 210.225 58.846C210.225 59.29 210.147 59.656 209.991 59.944C209.847 60.232 209.673 60.514 209.469 60.79C209.265 61.09 209.097 61.378 208.965 61.654C208.833 61.93 208.767 62.29 208.767 62.734V63.796C208.767 64.348 208.857 64.774 209.037 65.074C209.217 65.374 209.457 65.584 209.757 65.704C210.057 65.812 210.381 65.866 210.729 65.866C211.953 65.866 212.565 65.29 212.565 64.138V61.618C212.565 61.174 212.463 60.838 212.259 60.61C212.055 60.37 211.725 60.25 211.269 60.25H211.197V59.224H211.287C211.779 59.224 212.127 59.11 212.331 58.882C212.535 58.654 212.655 58.378 212.691 58.054C212.739 57.718 212.763 57.412 212.763 57.136H214.365C214.365 57.772 214.287 58.312 214.131 58.756C213.975 59.2 213.621 59.524 213.069 59.728V59.8C213.405 59.884 213.645 60.028 213.789 60.232C213.945 60.424 214.047 60.646 214.095 60.898C214.143 61.138 214.167 61.372 214.167 61.6V64.228C214.167 65.152 213.879 65.878 213.303 66.406C212.727 66.922 211.869 67.18 210.729 67.18ZM209.08 55.57V54.778C209.32 54.73 209.566 54.664 209.818 54.58C210.07 54.484 210.28 54.364 210.448 54.22C210.616 54.064 210.7 53.878 210.7 53.662C210.7 53.518 210.658 53.398 210.574 53.302C210.478 53.194 210.334 53.14 210.142 53.14C210.022 53.14 209.902 53.164 209.782 53.212C209.65 53.26 209.536 53.302 209.44 53.338L209.08 52.348C209.32 52.156 209.59 52.03 209.89 51.97C210.178 51.91 210.412 51.88 210.592 51.88C211.072 51.88 211.45 52.012 211.726 52.276C211.99 52.54 212.122 52.876 212.122 53.284C212.122 53.488 212.086 53.68 212.014 53.86C211.942 54.028 211.852 54.178 211.744 54.31H214.66V55.57H209.08ZM218.213 67L215.135 57.136H216.755L219.419 65.614H219.635C219.923 65.614 220.205 65.548 220.481 65.416C220.757 65.272 220.991 65.092 221.183 64.876C221.543 64.48 221.807 63.982 221.975 63.382C222.143 62.77 222.227 62.17 222.227 61.582C222.227 60.586 221.999 59.806 221.543 59.242C221.099 58.666 220.481 58.378 219.689 58.378C219.365 58.378 219.089 58.42 218.861 58.504L218.465 57.226C218.717 57.154 218.951 57.106 219.167 57.082C219.395 57.058 219.599 57.046 219.779 57.046C220.955 57.046 221.897 57.388 222.605 58.072C223.025 58.48 223.331 58.99 223.523 59.602C223.727 60.214 223.829 60.892 223.829 61.636C223.829 62.572 223.685 63.406 223.397 64.138C223.109 64.858 222.749 65.434 222.317 65.866C221.969 66.214 221.543 66.49 221.039 66.694C220.535 66.898 219.893 67 219.113 67H218.213ZM228.781 67V59.998C228.781 59.41 228.643 58.978 228.367 58.702C228.103 58.426 227.653 58.288 227.017 58.288C226.585 58.288 226.177 58.348 225.793 58.468C225.421 58.576 225.061 58.732 224.713 58.936V57.496C224.953 57.376 225.295 57.256 225.739 57.136C226.183 57.016 226.711 56.956 227.323 56.956C228.259 56.956 229.003 57.166 229.555 57.586C230.107 58.006 230.383 58.732 230.383 59.764V67H228.781ZM236.436 67.18C235.38 67.18 234.546 66.904 233.934 66.352C233.334 65.8 233.034 64.924 233.034 63.724V57.136H234.636V63.634C234.636 65.098 235.35 65.83 236.778 65.83C237.618 65.83 238.266 65.56 238.722 65.02C239.19 64.48 239.424 63.754 239.424 62.842V57.136H241.026V67H239.694L239.622 65.542H239.532C239.316 66.022 238.938 66.418 238.398 66.73C237.87 67.03 237.216 67.18 236.436 67.18ZM250.599 67.18C250.275 67.18 249.963 67.126 249.663 67.018C249.363 66.91 249.117 66.718 248.925 66.442C248.733 66.166 248.637 65.782 248.637 65.29V57.136H250.239V65.092C250.239 65.368 250.299 65.566 250.419 65.686C250.539 65.806 250.731 65.866 250.995 65.866C251.103 65.866 251.217 65.854 251.337 65.83C251.457 65.806 251.571 65.776 251.679 65.74L251.895 66.91C251.667 67.018 251.445 67.09 251.229 67.126C251.013 67.162 250.803 67.18 250.599 67.18ZM255.513 67.18C255.189 67.18 254.877 67.126 254.577 67.018C254.277 66.91 254.031 66.718 253.839 66.442C253.647 66.166 253.551 65.782 253.551 65.29V57.136H255.153V65.092C255.153 65.368 255.213 65.566 255.333 65.686C255.453 65.806 255.645 65.866 255.909 65.866C256.017 65.866 256.131 65.854 256.251 65.83C256.371 65.806 256.485 65.776 256.593 65.74L256.809 66.91C256.581 67.018 256.359 67.09 256.143 67.126C255.927 67.162 255.717 67.18 255.513 67.18ZM260.834 67.18C259.778 67.18 258.968 66.94 258.404 66.46C257.852 65.968 257.576 65.266 257.576 64.354C257.576 63.358 257.936 62.59 258.656 62.05C259.388 61.51 260.57 61.192 262.202 61.096L263.93 60.988V60.43C263.93 59.65 263.75 59.098 263.39 58.774C263.042 58.438 262.454 58.27 261.626 58.27C261.026 58.27 260.45 58.354 259.898 58.522C259.358 58.678 258.842 58.9 258.35 59.188V57.694C258.698 57.514 259.166 57.346 259.754 57.19C260.354 57.034 261.026 56.956 261.77 56.956C263.03 56.956 263.966 57.232 264.578 57.784C265.202 58.324 265.514 59.176 265.514 60.34V67H263.93V62.32L262.418 62.428C261.194 62.512 260.348 62.704 259.88 63.004C259.424 63.304 259.196 63.742 259.196 64.318C259.196 64.858 259.364 65.254 259.7 65.506C260.048 65.758 260.528 65.884 261.14 65.884C261.536 65.884 261.884 65.83 262.184 65.722L262.436 66.928C262.208 67.012 261.956 67.072 261.68 67.108C261.416 67.156 261.134 67.18 260.834 67.18ZM269.461 60.808C268.717 60.808 268.189 60.652 267.877 60.34C267.565 60.016 267.409 59.656 267.409 59.26C267.409 58.852 267.505 58.504 267.697 58.216L269.047 58.432C269.023 58.492 268.993 58.576 268.957 58.684C268.933 58.792 268.921 58.9 268.921 59.008C268.921 59.164 268.963 59.296 269.047 59.404C269.131 59.5 269.287 59.548 269.515 59.548H272.089V60.808H269.461ZM269.461 65.848C268.717 65.848 268.189 65.692 267.877 65.38C267.565 65.056 267.409 64.696 267.409 64.3C267.409 63.892 267.505 63.544 267.697 63.256L269.047 63.472C269.023 63.532 268.993 63.616 268.957 63.724C268.933 63.832 268.921 63.94 268.921 64.048C268.921 64.204 268.963 64.336 269.047 64.444C269.131 64.54 269.287 64.588 269.515 64.588H272.089V65.848H269.461ZM277.451 67.18C276.323 67.18 275.447 66.91 274.823 66.37C274.211 65.818 273.905 64.996 273.905 63.904V62.806C273.905 62.206 273.989 61.732 274.157 61.384C274.325 61.036 274.505 60.736 274.697 60.484C274.901 60.208 275.075 59.968 275.219 59.764C275.375 59.56 275.453 59.314 275.453 59.026C275.453 58.774 275.387 58.594 275.255 58.486C275.135 58.378 274.979 58.324 274.787 58.324C274.643 58.324 274.487 58.348 274.319 58.396C274.163 58.444 274.007 58.504 273.851 58.576L273.491 57.424C273.707 57.28 273.971 57.178 274.283 57.118C274.607 57.058 274.889 57.028 275.129 57.028C275.801 57.028 276.275 57.202 276.551 57.55C276.827 57.886 276.965 58.318 276.965 58.846C276.965 59.29 276.887 59.656 276.731 59.944C276.587 60.232 276.413 60.514 276.209 60.79C276.005 61.09 275.837 61.378 275.705 61.654C275.573 61.93 275.507 62.29 275.507 62.734V63.796C275.507 64.348 275.597 64.774 275.777 65.074C275.957 65.374 276.197 65.584 276.497 65.704C276.797 65.812 277.115 65.866 277.451 65.866C278.687 65.866 279.305 65.29 279.305 64.138V57.136H280.907V64.228C280.907 65.152 280.613 65.878 280.025 66.406C279.449 66.922 278.591 67.18 277.451 67.18ZM275.592 55.57V54.778C275.832 54.73 276.078 54.664 276.33 54.58C276.582 54.484 276.792 54.364 276.96 54.22C277.128 54.064 277.212 53.878 277.212 53.662C277.212 53.518 277.17 53.398 277.086 53.302C276.99 53.194 276.846 53.14 276.654 53.14C276.534 53.14 276.414 53.164 276.294 53.212C276.162 53.26 276.048 53.302 275.952 53.338L275.592 52.348C275.832 52.156 276.102 52.03 276.402 51.97C276.69 51.91 276.924 51.88 277.104 51.88C277.584 51.88 277.962 52.012 278.238 52.276C278.502 52.54 278.634 52.876 278.634 53.284C278.634 53.488 278.598 53.68 278.526 53.86C278.454 54.028 278.364 54.178 278.256 54.31H281.172V55.57H275.592ZM286.773 67.18C285.477 67.18 284.505 66.844 283.857 66.172C283.221 65.488 282.903 64.42 282.903 62.968C282.903 62.728 282.909 62.47 282.921 62.194C282.945 61.906 282.969 61.624 282.993 61.348H286.773V62.608H284.505V62.968C284.505 63.724 284.589 64.318 284.757 64.75C284.925 65.17 285.171 65.464 285.495 65.632C285.831 65.8 286.245 65.884 286.737 65.884C287.277 65.884 287.745 65.782 288.141 65.578C288.537 65.374 288.843 65.002 289.059 64.462C289.275 63.922 289.383 63.148 289.383 62.14C289.383 60.82 289.155 59.848 288.699 59.224C288.255 58.6 287.481 58.288 286.377 58.288C285.801 58.288 285.249 58.366 284.721 58.522C284.205 58.666 283.707 58.876 283.227 59.152V57.658C283.587 57.466 284.061 57.304 284.649 57.172C285.237 57.028 285.879 56.956 286.575 56.956C287.631 56.956 288.483 57.172 289.131 57.604C289.791 58.024 290.271 58.624 290.571 59.404C290.871 60.172 291.021 61.084 291.021 62.14C291.021 63.196 290.883 64.102 290.607 64.858C290.331 65.614 289.881 66.19 289.257 66.586C288.645 66.982 287.817 67.18 286.773 67.18ZM298.099 67.18C297.331 67.18 296.665 67.03 296.101 66.73C295.549 66.418 295.171 65.986 294.967 65.434H294.895L294.805 67H293.491V57.136H295.093V62.842C295.093 63.754 295.327 64.48 295.795 65.02C296.263 65.56 296.923 65.83 297.775 65.83C299.179 65.83 299.881 65.098 299.881 63.634V57.136H301.483V63.742C301.483 64.93 301.183 65.8 300.583 66.352C299.995 66.904 299.167 67.18 298.099 67.18ZM298.47 71.77C297.702 71.77 297.12 71.614 296.724 71.302C296.316 71.002 296.112 70.57 296.112 70.006V69.7C296.112 69.496 296.064 69.37 295.968 69.322C295.86 69.286 295.716 69.292 295.536 69.34L295.428 68.26C295.596 68.212 295.764 68.182 295.932 68.17C296.088 68.158 296.208 68.152 296.292 68.152C296.724 68.152 297.036 68.248 297.228 68.44C297.408 68.632 297.498 68.902 297.498 69.25V69.862C297.498 70.09 297.57 70.282 297.714 70.438C297.858 70.594 298.104 70.672 298.452 70.672C298.812 70.672 299.064 70.594 299.208 70.438C299.34 70.282 299.406 70.09 299.406 69.862V68.206H300.81V69.952C300.81 71.164 300.03 71.77 298.47 71.77ZM306.545 67.18C305.489 67.18 304.679 66.94 304.115 66.46C303.563 65.968 303.287 65.266 303.287 64.354C303.287 63.358 303.647 62.59 304.367 62.05C305.099 61.51 306.281 61.192 307.913 61.096L309.641 60.988V60.43C309.641 59.65 309.461 59.098 309.101 58.774C308.753 58.438 308.165 58.27 307.337 58.27C306.737 58.27 306.161 58.354 305.609 58.522C305.069 58.678 304.553 58.9 304.061 59.188V57.694C304.409 57.514 304.877 57.346 305.465 57.19C306.065 57.034 306.737 56.956 307.481 56.956C308.741 56.956 309.677 57.232 310.289 57.784C310.913 58.324 311.225 59.176 311.225 60.34V67H309.641V62.32L308.129 62.428C306.905 62.512 306.059 62.704 305.591 63.004C305.135 63.304 304.907 63.742 304.907 64.318C304.907 64.858 305.075 65.254 305.411 65.506C305.759 65.758 306.239 65.884 306.851 65.884C307.247 65.884 307.595 65.83 307.895 65.722L308.147 66.928C307.919 67.012 307.667 67.072 307.391 67.108C307.127 67.156 306.845 67.18 306.545 67.18ZM313.93 67V57.136H315.046L315.334 58.702H315.406C315.61 58.162 315.982 57.736 316.522 57.424C317.062 57.112 317.716 56.956 318.484 56.956C319.552 56.956 320.392 57.232 321.004 57.784C321.616 58.336 321.922 59.212 321.922 60.412V67H320.32V60.502C320.32 59.038 319.606 58.306 318.178 58.306C317.614 58.306 317.134 58.438 316.738 58.702C316.342 58.966 316.042 59.326 315.838 59.782C315.634 60.226 315.532 60.73 315.532 61.294V67H313.93ZM319.176 55.57C318.42 55.57 317.886 55.42 317.574 55.12C317.262 54.808 317.106 54.46 317.106 54.076C317.106 53.896 317.136 53.704 317.196 53.5C317.244 53.284 317.31 53.11 317.394 52.978L318.744 53.212C318.672 53.356 318.636 53.542 318.636 53.77C318.636 53.926 318.684 54.064 318.78 54.184C318.876 54.292 319.038 54.346 319.266 54.346H323.82V55.57H319.176ZM318.695 50.772V50.142C318.935 50.082 319.193 49.986 319.469 49.854C319.733 49.722 319.865 49.524 319.865 49.26C319.865 48.984 319.727 48.846 319.451 48.846C319.259 48.846 319.061 48.906 318.857 49.026L318.533 48.198C318.749 48.054 318.995 47.958 319.271 47.91C319.535 47.862 319.745 47.838 319.901 47.838C320.213 47.838 320.495 47.922 320.747 48.09C320.999 48.246 321.125 48.516 321.125 48.9C321.125 48.996 321.113 49.104 321.089 49.224C321.065 49.344 321.023 49.458 320.963 49.566H323.231V50.772H318.695ZM325.655 67L322.577 57.136H324.197L326.861 65.614H327.077C327.365 65.614 327.647 65.548 327.923 65.416C328.199 65.272 328.433 65.092 328.625 64.876C328.985 64.48 329.249 63.982 329.417 63.382C329.585 62.77 329.669 62.17 329.669 61.582C329.669 60.586 329.441 59.806 328.985 59.242C328.541 58.666 327.923 58.378 327.131 58.378C326.807 58.378 326.531 58.42 326.303 58.504L325.907 57.226C326.159 57.154 326.393 57.106 326.609 57.082C326.837 57.058 327.041 57.046 327.221 57.046C328.397 57.046 329.339 57.388 330.047 58.072C330.467 58.48 330.773 58.99 330.965 59.602C331.169 60.214 331.271 60.892 331.271 61.636C331.271 62.572 331.127 63.406 330.839 64.138C330.551 64.858 330.191 65.434 329.759 65.866C329.411 66.214 328.985 66.49 328.481 66.694C327.977 66.898 327.335 67 326.555 67H325.655ZM333.577 67V57.136H335.179V61.402H335.233L339.337 57.136H341.209V57.19L338.311 60.124C339.283 60.208 340.021 60.55 340.525 61.15C341.041 61.738 341.299 62.518 341.299 63.49V67H339.697V63.526C339.697 62.854 339.499 62.32 339.103 61.924C338.719 61.528 338.071 61.312 337.159 61.276L335.179 63.292V67H333.577ZM348.48 67.18C347.712 67.18 347.046 67.03 346.482 66.73C345.93 66.418 345.552 65.986 345.348 65.434H345.276L345.186 67H343.872V57.136H345.474V62.842C345.474 63.754 345.708 64.48 346.176 65.02C346.644 65.56 347.304 65.83 348.156 65.83C349.56 65.83 350.262 65.098 350.262 63.634V57.136H351.864V63.742C351.864 64.93 351.564 65.8 350.964 66.352C350.376 66.904 349.548 67.18 348.48 67.18ZM357.88 67.18C356.92 67.18 356.164 66.958 355.612 66.514C355.072 66.058 354.688 65.446 354.46 64.678C354.244 63.91 354.136 63.064 354.136 62.14C354.136 60.784 354.322 59.734 354.694 58.99C355.066 58.234 355.582 57.706 356.242 57.406C356.914 57.106 357.688 56.956 358.564 56.956C360.004 56.956 361.048 57.268 361.696 57.892C362.356 58.516 362.686 59.362 362.686 60.43V67H361.102V60.574C361.102 59.83 360.916 59.266 360.544 58.882C360.172 58.486 359.53 58.288 358.618 58.288C358.066 58.288 357.568 58.39 357.124 58.594C356.692 58.798 356.35 59.176 356.098 59.728C355.858 60.28 355.738 61.09 355.738 62.158C355.738 62.854 355.804 63.484 355.936 64.048C356.08 64.6 356.326 65.038 356.674 65.362C357.022 65.686 357.508 65.848 358.132 65.848C358.312 65.848 358.48 65.836 358.636 65.812C358.792 65.788 358.942 65.752 359.086 65.704L359.248 66.946C359.056 67.03 358.834 67.09 358.582 67.126C358.342 67.162 358.108 67.18 357.88 67.18ZM372.546 63.022C372.546 62.542 372.624 62.122 372.78 61.762C372.948 61.39 373.146 61.078 373.374 60.826C373.614 60.574 373.926 60.274 374.31 59.926C374.79 59.506 375.144 59.146 375.372 58.846C375.6 58.534 375.714 58.162 375.714 57.73C375.714 57.142 375.486 56.674 375.03 56.326C374.574 55.966 373.944 55.786 373.14 55.786C371.736 55.786 370.662 56.26 369.918 57.208L368.604 56.272C369.108 55.624 369.75 55.126 370.53 54.778C371.322 54.43 372.234 54.256 373.266 54.256C374.574 54.256 375.612 54.544 376.38 55.12C377.148 55.684 377.532 56.464 377.532 57.46C377.532 57.952 377.448 58.39 377.28 58.774C377.124 59.146 376.932 59.458 376.704 59.71C376.476 59.962 376.17 60.262 375.786 60.61C375.294 61.054 374.928 61.444 374.688 61.78C374.46 62.116 374.346 62.53 374.346 63.022H372.546ZM373.464 67.108C373.128 67.108 372.846 67 372.618 66.784C372.402 66.556 372.294 66.28 372.294 65.956C372.294 65.632 372.402 65.362 372.618 65.146C372.846 64.918 373.128 64.804 373.464 64.804C373.8 64.804 374.076 64.918 374.292 65.146C374.508 65.362 374.616 65.632 374.616 65.956C374.616 66.28 374.502 66.556 374.274 66.784C374.058 67 373.788 67.108 373.464 67.108Z" fill="#525252"/>
</g>
<defs>
<filter id="filter0_d" x="0" y="0" width="439" height="214" filterUnits="userSpaceOnUse" color-interpolation-filters="sRGB">
<feFlood flood-opacity="0" result="BackgroundImageFix"/>
<feColorMatrix in="SourceAlpha" type="matrix" values="0 0 0 0 0 0 0 0 0 0 0 0 0 0 0 0 0 0 127 0"/>
<feOffset dy="4"/>
<feGaussianBlur stdDeviation="5"/>
<feColorMatrix type="matrix" values="0 0 0 0 0 0 0 0 0 0 0 0 0 0 0 0 0 0 0.08 0"/>
<feBlend mode="normal" in2="BackgroundImageFix" result="effect1_dropShadow"/>
<feBlend mode="normal" in="SourceGraphic" in2="effect1_dropShadow" result="shape"/>
</filter>
</defs>
</svg>
