<svg width="427" height="170" viewBox="0 0 427 170" fill="none" xmlns="http://www.w3.org/2000/svg">
<g filter="url(#filter0_d)">
<path d="M10 6H417V146C417 151.523 412.523 156 407 156H20C14.4772 156 10 151.523 10 146V6Z" fill="white"/>
<path d="M192.502 127.16C191.563 127.16 190.843 126.947 190.342 126.52C189.851 126.083 189.606 125.459 189.606 124.648C189.606 123.763 189.926 123.08 190.566 122.6C191.216 122.12 192.267 121.837 193.718 121.752L195.254 121.656V121.16C195.254 120.467 195.094 119.976 194.774 119.688C194.464 119.389 193.942 119.24 193.206 119.24C192.672 119.24 192.16 119.315 191.67 119.464C191.19 119.603 190.731 119.8 190.294 120.056V118.728C190.603 118.568 191.019 118.419 191.542 118.28C192.075 118.141 192.672 118.072 193.334 118.072C194.454 118.072 195.286 118.317 195.83 118.808C196.384 119.288 196.662 120.045 196.662 121.08V127H195.254V122.84L193.91 122.936C192.822 123.011 192.07 123.181 191.654 123.448C191.248 123.715 191.046 124.104 191.046 124.616C191.046 125.096 191.195 125.448 191.494 125.672C191.803 125.896 192.23 126.008 192.774 126.008C193.126 126.008 193.435 125.96 193.702 125.864L193.926 126.936C193.723 127.011 193.499 127.064 193.254 127.096C193.019 127.139 192.768 127.16 192.502 127.16ZM202.538 127.16C201.28 127.16 200.378 126.872 199.834 126.296C199.29 125.72 199.018 124.899 199.018 123.832V118.232H200.442V123.848C200.442 125.267 201.141 125.976 202.538 125.976C203.264 125.976 203.797 125.8 204.138 125.448C204.49 125.096 204.666 124.563 204.666 123.848V118.232H206.09V123.832C206.09 124.899 205.813 125.72 205.258 126.296C204.714 126.872 203.808 127.16 202.538 127.16ZM211.954 127.16C210.696 127.16 209.794 126.872 209.25 126.296C208.706 125.72 208.434 124.899 208.434 123.832V118.232H209.858V123.848C209.858 125.267 210.557 125.976 211.954 125.976C212.68 125.976 213.213 125.8 213.554 125.448C213.906 125.096 214.082 124.563 214.082 123.848V118.232H215.506V123.832C215.506 124.899 215.229 125.72 214.674 126.296C214.13 126.872 213.224 127.16 211.954 127.16ZM213.224 116.84C212.552 116.84 212.077 116.707 211.8 116.44C211.522 116.163 211.384 115.853 211.384 115.512C211.384 115.352 211.41 115.181 211.464 115C211.506 114.808 211.565 114.653 211.64 114.536L212.84 114.744C212.776 114.872 212.744 115.037 212.744 115.24C212.744 115.379 212.786 115.501 212.872 115.608C212.957 115.704 213.101 115.752 213.304 115.752H217.352V116.84H213.224ZM225.883 129.784C225.445 129.784 225.003 129.736 224.555 129.64C224.117 129.555 223.701 129.421 223.307 129.24V127.864C223.648 128.088 224.048 128.253 224.507 128.36C224.976 128.477 225.424 128.536 225.851 128.536C226.277 128.536 226.656 128.467 226.987 128.328C227.317 128.2 227.579 127.971 227.771 127.64C227.963 127.309 228.059 126.84 228.059 126.232V125.816H227.995C227.781 126.147 227.467 126.424 227.051 126.648C226.635 126.872 226.128 126.984 225.531 126.984C225.029 126.984 224.571 126.888 224.155 126.696C223.749 126.504 223.429 126.195 223.195 125.768C222.96 125.341 222.843 124.781 222.843 124.088V121.224C222.843 120.712 222.747 120.312 222.555 120.024C222.363 119.736 222.107 119.539 221.787 119.432C221.477 119.315 221.147 119.256 220.795 119.256C220.229 119.256 219.76 119.379 219.387 119.624C219.024 119.869 218.837 120.227 218.827 120.696L220.651 121.56L220.523 122.328C220.128 122.328 219.787 122.451 219.499 122.696C219.221 122.941 219.083 123.347 219.083 123.912V125.32C219.083 125.768 219.301 125.992 219.739 125.992C219.973 125.992 220.176 125.96 220.347 125.896L220.555 126.92C220.352 127.016 220.155 127.08 219.963 127.112C219.781 127.144 219.6 127.16 219.419 127.16C219.12 127.16 218.832 127.112 218.555 127.016C218.288 126.92 218.069 126.749 217.899 126.504C217.739 126.259 217.659 125.917 217.659 125.48V123.928C217.659 123.267 217.797 122.787 218.075 122.488C218.363 122.189 218.736 121.981 219.195 121.864L219.211 121.816L217.371 121.144V120.616C217.371 120.147 217.509 119.72 217.787 119.336C218.075 118.952 218.475 118.648 218.987 118.424C219.509 118.189 220.117 118.072 220.811 118.072C221.397 118.072 221.952 118.168 222.475 118.36C223.008 118.552 223.44 118.872 223.771 119.32C224.101 119.757 224.267 120.344 224.267 121.08V123.976C224.267 124.605 224.411 125.064 224.699 125.352C224.997 125.64 225.387 125.784 225.867 125.784C226.528 125.784 227.051 125.549 227.435 125.08C227.829 124.6 228.027 123.971 228.027 123.192V118.232H229.451V126.2C229.451 127.395 229.141 128.291 228.523 128.888C227.915 129.485 227.035 129.784 225.883 129.784ZM235.022 127.16C234.008 127.16 233.224 126.92 232.67 126.44C232.126 125.949 231.854 125.219 231.854 124.248V123.272C231.854 122.739 231.928 122.317 232.078 122.008C232.227 121.699 232.387 121.432 232.558 121.208C232.739 120.963 232.894 120.749 233.022 120.568C233.16 120.387 233.23 120.168 233.23 119.912C233.23 119.688 233.171 119.528 233.054 119.432C232.947 119.336 232.808 119.288 232.638 119.288C232.51 119.288 232.371 119.309 232.222 119.352C232.083 119.395 231.944 119.448 231.806 119.512L231.486 118.488C231.678 118.36 231.912 118.269 232.19 118.216C232.478 118.163 232.728 118.136 232.942 118.136C233.539 118.136 233.96 118.291 234.206 118.6C234.451 118.899 234.574 119.283 234.574 119.752C234.574 120.147 234.504 120.472 234.366 120.728C234.238 120.984 234.083 121.235 233.902 121.48C233.72 121.747 233.571 122.003 233.454 122.248C233.336 122.493 233.278 122.813 233.278 123.208V124.152C233.278 124.643 233.358 125.021 233.518 125.288C233.678 125.555 233.891 125.741 234.158 125.848C234.424 125.944 234.712 125.992 235.022 125.992C236.11 125.992 236.654 125.48 236.654 124.456V122.216C236.654 121.821 236.563 121.523 236.382 121.32C236.2 121.107 235.907 121 235.502 121H235.438V120.088H235.518C235.955 120.088 236.264 119.987 236.446 119.784C236.627 119.581 236.734 119.336 236.766 119.048C236.808 118.749 236.83 118.477 236.83 118.232H238.254C238.254 118.797 238.184 119.277 238.046 119.672C237.907 120.067 237.592 120.355 237.102 120.536V120.6C237.4 120.675 237.614 120.803 237.742 120.984C237.88 121.155 237.971 121.352 238.014 121.576C238.056 121.789 238.078 121.997 238.078 122.2V124.536C238.078 125.357 237.822 126.003 237.31 126.472C236.798 126.931 236.035 127.16 235.022 127.16ZM231.22 116.84V116.216L232.388 115.704H236.692V114.408H238.036V116.216H238.02V116.84H231.22Z" fill="#57A3B3"/>
<path d="M64 36C64 33.2386 66.2386 31 69 31H359C361.761 31 364 33.2386 364 36V74C364 76.7614 361.761 79 359 79H69C66.2386 79 64 76.7614 64 74V36Z" fill="#57A3B3"/>
<path d="M200.475 60.36C200.187 60.36 199.91 60.312 199.643 60.216C199.376 60.12 199.158 59.9493 198.987 59.704C198.816 59.4586 198.731 59.1173 198.731 58.68V51.432H200.155V58.504C200.155 58.7493 200.208 58.9253 200.315 59.032C200.422 59.1386 200.592 59.192 200.827 59.192C200.923 59.192 201.024 59.1813 201.131 59.16C201.238 59.1386 201.339 59.112 201.435 59.08L201.627 60.12C201.424 60.216 201.227 60.28 201.035 60.312C200.843 60.344 200.656 60.36 200.475 60.36ZM204.843 60.36C204.555 60.36 204.278 60.312 204.011 60.216C203.744 60.12 203.526 59.9493 203.355 59.704C203.184 59.4586 203.099 59.1173 203.099 58.68V51.432H204.523V58.504C204.523 58.7493 204.576 58.9253 204.683 59.032C204.79 59.1386 204.96 59.192 205.195 59.192C205.291 59.192 205.392 59.1813 205.499 59.16C205.606 59.1386 205.707 59.112 205.803 59.08L205.995 60.12C205.792 60.216 205.595 60.28 205.403 60.312C205.211 60.344 205.024 60.36 204.843 60.36ZM207.265 60.2V57.16C207.265 56.488 207.414 56.0026 207.713 55.704C208.011 55.3946 208.39 55.1813 208.849 55.064L208.865 55.016L207.105 54.344V53.816C207.105 53.3786 207.249 52.968 207.537 52.584C207.825 52.1893 208.235 51.8746 208.769 51.64C209.313 51.3946 209.958 51.272 210.705 51.272C211.355 51.272 211.958 51.3786 212.513 51.592C213.067 51.7946 213.51 52.12 213.841 52.568C214.182 53.0053 214.353 53.5813 214.353 54.296V60.2H212.929V54.44C212.929 53.7253 212.71 53.2186 212.273 52.92C211.846 52.6106 211.318 52.456 210.689 52.456C210.038 52.456 209.521 52.5946 209.137 52.872C208.753 53.1386 208.561 53.48 208.561 53.896L210.289 54.76L210.161 55.528C209.766 55.528 209.419 55.6613 209.121 55.928C208.833 56.184 208.689 56.5946 208.689 57.16V60.2H207.265ZM209.483 50.04V49.336C209.696 49.2933 209.915 49.2346 210.139 49.16C210.363 49.0746 210.55 48.968 210.699 48.84C210.848 48.7013 210.923 48.536 210.923 48.344C210.923 48.216 210.886 48.1093 210.811 48.024C210.726 47.928 210.598 47.88 210.427 47.88C210.32 47.88 210.214 47.9013 210.107 47.944C209.99 47.9866 209.888 48.024 209.803 48.056L209.483 47.176C209.696 47.0053 209.936 46.8933 210.203 46.84C210.459 46.7866 210.667 46.76 210.827 46.76C211.254 46.76 211.59 46.8773 211.835 47.112C212.07 47.3466 212.187 47.6453 212.187 48.008C212.187 48.1893 212.155 48.36 212.091 48.52C212.027 48.6693 211.947 48.8026 211.851 48.92H214.443V50.04H209.483ZM218.666 60.36C218.378 60.36 218.101 60.312 217.834 60.216C217.568 60.12 217.349 59.9493 217.178 59.704C217.008 59.4586 216.922 59.1173 216.922 58.68V50.168C216.922 49.5706 217.002 49.128 217.162 48.84C217.333 48.552 217.53 48.328 217.754 48.168L217.738 48.104H214.954L215.322 46.984H219.834V48.104C219.44 48.104 219.093 48.232 218.794 48.488C218.496 48.744 218.346 49.2133 218.346 49.896V58.504C218.346 58.7493 218.4 58.9253 218.506 59.032C218.613 59.1386 218.784 59.192 219.018 59.192C219.114 59.192 219.216 59.1813 219.322 59.16C219.429 59.1386 219.53 59.112 219.626 59.08L219.818 60.12C219.616 60.216 219.418 60.28 219.226 60.312C219.034 60.344 218.848 60.36 218.666 60.36ZM223.978 60.36C222.976 60.36 222.197 60.12 221.642 59.64C221.098 59.1493 220.826 58.4186 220.826 57.448V56.472C220.826 55.9386 220.901 55.5173 221.05 55.208C221.2 54.8986 221.36 54.632 221.53 54.408C221.712 54.1626 221.866 53.9493 221.994 53.768C222.133 53.5866 222.202 53.368 222.202 53.112C222.202 52.888 222.144 52.728 222.026 52.632C221.92 52.536 221.781 52.488 221.61 52.488C221.482 52.488 221.344 52.5093 221.194 52.552C221.056 52.5946 220.917 52.648 220.778 52.712L220.458 51.688C220.65 51.56 220.885 51.4693 221.162 51.416C221.45 51.3626 221.701 51.336 221.914 51.336C222.512 51.336 222.933 51.4906 223.178 51.8C223.424 52.0986 223.546 52.4826 223.546 52.952C223.546 53.3466 223.477 53.672 223.338 53.928C223.21 54.184 223.056 54.4346 222.874 54.68C222.693 54.9466 222.544 55.2026 222.426 55.448C222.309 55.6933 222.25 56.0133 222.25 56.408V57.352C222.25 57.8426 222.33 58.2213 222.49 58.488C222.65 58.7546 222.864 58.9413 223.13 59.048C223.397 59.144 223.68 59.192 223.978 59.192C225.077 59.192 225.626 58.68 225.626 57.656V51.432H227.05V57.736C227.05 58.5573 226.789 59.2026 226.266 59.672C225.754 60.1306 224.992 60.36 223.978 60.36Z" fill="white"/>
</g>
<defs>
<filter id="filter0_d" x="0" y="0" width="427" height="170" filterUnits="userSpaceOnUse" color-interpolation-filters="sRGB">
<feFlood flood-opacity="0" result="BackgroundImageFix"/>
<feColorMatrix in="SourceAlpha" type="matrix" values="0 0 0 0 0 0 0 0 0 0 0 0 0 0 0 0 0 0 127 0"/>
<feOffset dy="4"/>
<feGaussianBlur stdDeviation="5"/>
<feColorMatrix type="matrix" values="0 0 0 0 0 0 0 0 0 0 0 0 0 0 0 0 0 0 0.08 0"/>
<feBlend mode="normal" in2="BackgroundImageFix" result="effect1_dropShadow"/>
<feBlend mode="normal" in="SourceGraphic" in2="effect1_dropShadow" result="shape"/>
</filter>
</defs>
</svg>
