<svg width="745" height="444" viewBox="0 0 745 444" fill="none" xmlns="http://www.w3.org/2000/svg">
<path d="M332.04 339.02C366.895 339.02 395.15 332.774 395.15 325.07C395.15 317.366 366.895 311.12 332.04 311.12C297.185 311.12 268.93 317.366 268.93 325.07C268.93 332.774 297.185 339.02 332.04 339.02Z" fill="black"/>
<path d="M332.04 325.07L296.59 436.02" stroke="black" stroke-width="4" stroke-miterlimit="10" stroke-linecap="round"/>
<path d="M332.04 325.07L367.49 436.02" stroke="black" stroke-width="4" stroke-miterlimit="10" stroke-linecap="round"/>
<path d="M308.23 399.59L347.75 374.25" stroke="black" stroke-width="2" stroke-miterlimit="10" stroke-linecap="round"/>
<path d="M316.17 374.25L355.7 399.59" stroke="black" stroke-width="2" stroke-miterlimit="10" stroke-linecap="round"/>
<path d="M394.15 204.97C393.99 209.89 394.06 227.12 393.25 234.49" stroke="#1F161E" stroke-miterlimit="10" stroke-linecap="round"/>
<path d="M609.37 190.11H615.37C616 190.107 616.604 189.856 617.05 189.41C617.496 188.964 617.747 188.36 617.75 187.73V150.85C617.751 150.538 617.689 150.228 617.569 149.94C617.449 149.651 617.273 149.389 617.05 149.17L609.47 141.59C609.25 141.368 608.988 141.192 608.7 141.072C608.412 140.952 608.102 140.89 607.79 140.89H585.4C584.77 140.893 584.166 141.144 583.72 141.59C583.274 142.036 583.023 142.64 583.02 143.27V146.83" fill="#FBDC8E"/>
<path d="M88.06 278.11C107.06 281.71 103.67 395.11 67.2 388.25C32.76 381.71 64.88 273.7 88.06 278.11Z" fill="black"/>
<path d="M4.64003 292.11C19.76 283.55 83.05 363.19 54.1 379.57C26.75 395.11 -13.77 302.55 4.64003 292.11Z" fill="#FBDC8E"/>
<path d="M81.6901 443.03H43.51C41.9722 443.029 40.4886 442.462 39.3428 441.436C38.1971 440.41 37.4698 438.998 37.3 437.47L32.4801 394.19C32.3755 393.312 32.4582 392.422 32.7224 391.578C32.9867 390.735 33.4267 389.957 34.0133 389.296C34.6 388.634 35.3201 388.105 36.1261 387.742C36.9322 387.379 37.806 387.191 38.69 387.19H86.31C87.187 387.191 88.054 387.376 88.8547 387.733C89.6555 388.091 90.372 388.613 90.9577 389.266C91.5434 389.918 91.9852 390.687 92.2544 391.521C92.5235 392.356 92.6141 393.238 92.52 394.11L87.9101 437.39C87.7564 438.934 87.035 440.365 85.8858 441.407C84.7366 442.449 83.2414 443.028 81.6901 443.03Z" fill="#969696"/>
<path d="M98.79 233.95C113.26 238.15 102.17 325.68 74.46 317.62C48.3 310.02 81.18 228.83 98.79 233.95Z" fill="#AB8DE5"/>
<path d="M122.65 303.59C132.65 312.21 91.9701 378.15 72.7501 361.59C54.6001 346.02 110.44 293.11 122.65 303.59Z" fill="#FBDC8E"/>
<path d="M62.7001 243.05C84.3601 243.05 104.19 381.35 62.7001 381.35C23.5201 381.35 36.3301 243.05 62.7001 243.05Z" fill="#78E5E1"/>
<path d="M100.71 377.83H24.5101C22.2733 377.83 20.4601 379.643 20.4601 381.88V389.26C20.4601 391.497 22.2733 393.31 24.5101 393.31H100.71C102.947 393.31 104.76 391.497 104.76 389.26V381.88C104.76 379.643 102.947 377.83 100.71 377.83Z" fill="#D8D8D8"/>
<path d="M599.29 146.83H577.29C576.937 146.83 576.588 146.9 576.262 147.035C575.936 147.17 575.64 147.369 575.391 147.618C575.143 147.868 574.945 148.165 574.811 148.491C574.677 148.818 574.609 149.167 574.61 149.52V193.32C574.61 194.032 574.892 194.714 575.394 195.219C575.897 195.723 576.578 196.007 577.29 196.01H606.68C607.392 196.007 608.073 195.723 608.576 195.219C609.078 194.714 609.36 194.032 609.36 193.32V156.92C609.361 156.568 609.293 156.218 609.159 155.892C609.025 155.566 608.829 155.27 608.58 155.02L601.18 147.62C600.68 147.117 600 146.833 599.29 146.83V146.83Z" fill="#D8D8D8"/>
<path d="M609.37 155.87H601.9C601.502 155.87 601.121 155.712 600.839 155.431C600.558 155.149 600.4 154.768 600.4 154.37V146.83" fill="#969696"/>
<path d="M617.78 149.94H610.31C609.91 149.937 609.528 149.777 609.245 149.495C608.963 149.212 608.803 148.83 608.8 148.43V140.89" fill="#64CCC4"/>
<path d="M574.64 96.76H523.08C521.407 96.76 520.05 98.1166 520.05 99.79V116.63C520.05 118.303 521.407 119.66 523.08 119.66H574.64C576.313 119.66 577.67 118.303 577.67 116.63V99.79C577.67 98.1166 576.313 96.76 574.64 96.76Z" fill="#78E5E1"/>
<path d="M548.85 135.36L555.79 114.34H541.91L548.85 135.36Z" fill="#78E5E1"/>
<path d="M535.1 102.86L529.28 112.93H540.91L535.1 102.86Z" fill="white"/>
<path d="M562.61 112.93L568.43 102.86H556.79L562.61 112.93Z" fill="white"/>
<path d="M548.85 112.27C551.264 112.27 553.22 110.314 553.22 107.9C553.22 105.487 551.264 103.53 548.85 103.53C546.437 103.53 544.48 105.487 544.48 107.9C544.48 110.314 546.437 112.27 548.85 112.27Z" fill="white"/>
<path d="M544.36 48.23H510.52C509.056 48.23 507.87 49.4164 507.87 50.88V71.34C507.87 72.8035 509.056 73.99 510.52 73.99H544.36C545.824 73.99 547.01 72.8035 547.01 71.34V50.88C547.01 49.4164 545.824 48.23 544.36 48.23Z" fill="#D8D8D8"/>
<path d="M509.1 49.04L527.44 61.11" stroke="#969696" stroke-width="0.82" stroke-linecap="round" stroke-linejoin="round"/>
<path d="M547.01 48.23L527.44 61.11" stroke="#969696" stroke-width="0.82" stroke-linecap="round" stroke-linejoin="round"/>
<path d="M547.01 53.83C550.103 53.83 552.61 51.3228 552.61 48.23C552.61 45.1372 550.103 42.63 547.01 42.63C543.917 42.63 541.41 45.1372 541.41 48.23C541.41 51.3228 543.917 53.83 547.01 53.83Z" fill="#FBDC8E"/>
<path d="M547.989 50.09H547.326V45.695L545.996 46.1833V45.5845L547.885 44.8752H547.989V50.09Z" fill="white"/>
<path d="M743.43 63.9399H597.43C596.751 63.9399 596.2 64.4906 596.2 65.1699V65.9299C596.2 66.6093 596.751 67.1599 597.43 67.1599H743.43C744.109 67.1599 744.66 66.6093 744.66 65.9299V65.1699C744.66 64.4906 744.109 63.9399 743.43 63.9399Z" fill="#D8D8D8"/>
<path d="M659.1 0H650.23C648.816 0 647.67 1.14615 647.67 2.56V61.38C647.67 62.7939 648.816 63.94 650.23 63.94H659.1C660.514 63.94 661.66 62.7939 661.66 61.38V2.56C661.66 1.14615 660.514 0 659.1 0Z" fill="#969696"/>
<path d="M666.53 14.99H663.79C662.614 14.99 661.66 15.9436 661.66 17.12V61.81C661.66 62.9863 662.614 63.94 663.79 63.94H666.53C667.706 63.94 668.66 62.9863 668.66 61.81V17.12C668.66 15.9436 667.706 14.99 666.53 14.99Z" fill="#D8D8D8"/>
<path d="M673.6 14.99H670.72C669.582 14.99 668.66 15.9123 668.66 17.05V61.88C668.66 63.0177 669.582 63.94 670.72 63.94H673.6C674.738 63.94 675.66 63.0177 675.66 61.88V17.05C675.66 15.9123 674.738 14.99 673.6 14.99Z" fill="#969696"/>
<path d="M678.676 18.4934L676.313 19.5782C675.209 20.0852 674.725 21.3912 675.232 22.4955L693.819 62.9825C694.326 64.0867 695.632 64.5709 696.737 64.0639L699.1 62.9791C700.204 62.4722 700.688 61.1661 700.181 60.0619L681.593 19.5748C681.086 18.4706 679.78 17.9864 678.676 18.4934Z" fill="#D8D8D8"/>
<path d="M654.66 47.7599C656.819 47.7599 658.57 46.0094 658.57 43.8499C658.57 41.6905 656.819 39.9399 654.66 39.9399C652.501 39.9399 650.75 41.6905 650.75 43.8499C650.75 46.0094 652.501 47.7599 654.66 47.7599Z" fill="#D8D8D8"/>
<path d="M658.2 50.1H651.12C650.601 50.1 650.18 50.5208 650.18 51.04C650.18 51.5591 650.601 51.98 651.12 51.98H658.2C658.719 51.98 659.14 51.5591 659.14 51.04C659.14 50.5208 658.719 50.1 658.2 50.1Z" fill="#D8D8D8"/>
<path d="M658.2 54.91H651.12C650.601 54.91 650.18 55.3309 650.18 55.85C650.18 56.3692 650.601 56.79 651.12 56.79H658.2C658.719 56.79 659.14 56.3692 659.14 55.85C659.14 55.3309 658.719 54.91 658.2 54.91Z" fill="#D8D8D8"/>
<path d="M586.56 151.35H579.48C578.961 151.35 578.54 151.771 578.54 152.29C578.54 152.809 578.961 153.23 579.48 153.23H586.56C587.079 153.23 587.5 152.809 587.5 152.29C587.5 151.771 587.079 151.35 586.56 151.35Z" fill="#969696"/>
<path d="M586.56 155.87H579.48C578.961 155.87 578.54 156.291 578.54 156.81C578.54 157.329 578.961 157.75 579.48 157.75H586.56C587.079 157.75 587.5 157.329 587.5 156.81C587.5 156.291 587.079 155.87 586.56 155.87Z" fill="#969696"/>
<path d="M604.92 163.6H579.07C578.551 163.6 578.13 164.021 578.13 164.54C578.13 165.059 578.551 165.48 579.07 165.48H604.92C605.439 165.48 605.86 165.059 605.86 164.54C605.86 164.021 605.439 163.6 604.92 163.6Z" fill="#969696"/>
<path d="M604.92 168.04H579.07C578.551 168.04 578.13 168.461 578.13 168.98C578.13 169.499 578.551 169.92 579.07 169.92H604.92C605.439 169.92 605.86 169.499 605.86 168.98C605.86 168.461 605.439 168.04 604.92 168.04Z" fill="#969696"/>
<path d="M604.92 172.48H579.07C578.551 172.48 578.13 172.901 578.13 173.42C578.13 173.939 578.551 174.36 579.07 174.36H604.92C605.439 174.36 605.86 173.939 605.86 173.42C605.86 172.901 605.439 172.48 604.92 172.48Z" fill="#969696"/>
<path d="M665.89 22.38C665.89 21.9769 665.563 21.65 665.16 21.65C664.757 21.65 664.43 21.9769 664.43 22.38V56.54C664.43 56.9432 664.757 57.27 665.16 57.27C665.563 57.27 665.89 56.9432 665.89 56.54V22.38Z" fill="#969696"/>
<path d="M635.18 65.55H628.92C627.545 65.55 626.43 66.6648 626.43 68.04C626.43 69.4152 627.545 70.53 628.92 70.53H635.18C636.555 70.53 637.67 69.4152 637.67 68.04C637.67 66.6648 636.555 65.55 635.18 65.55Z" fill="#D8D8D8"/>
<path d="M711.94 65.55H705.68C704.305 65.55 703.19 66.6648 703.19 68.04C703.19 69.4152 704.305 70.53 705.68 70.53H711.94C713.315 70.53 714.43 69.4152 714.43 68.04C714.43 66.6648 713.315 65.55 711.94 65.55Z" fill="#D8D8D8"/>
<path d="M475.65 70.42H439.14C432.513 70.42 427.14 75.7926 427.14 82.42V100.23C427.14 106.857 432.513 112.23 439.14 112.23H475.65C482.277 112.23 487.65 106.857 487.65 100.23V82.42C487.65 75.7926 482.277 70.42 475.65 70.42Z" fill="#D8D8D8"/>
<path d="M448.76 77.15H439.66V105.5H448.76V77.15Z" fill="#AB8DE5"/>
<path d="M461.95 96.01H452.85V105.51H461.95V96.01Z" fill="#AB8DE5"/>
<path d="M475.13 88.01H466.03V105.5H475.13V88.01Z" fill="#AB8DE5"/>
<path d="M485.19 422.79C485.19 425.16 483.8 440.11 486.57 441.49C489.34 442.87 519.79 443.71 521.17 442.32C522.55 440.93 523.38 438.03 522.17 437.2C520.96 436.37 509.17 434.02 507.57 432.91C505.97 431.8 503.76 425.91 504.57 422.79" fill="#1F161E"/>
<path d="M394.15 227.36L411.29 221.21C410.55 189.94 403.24 120.07 392.86 109.68C390.42 107.25 342.16 103.01 333.55 103.01C282.17 103.01 266.93 108.87 263.06 112.75C251.06 124.75 247.32 180.35 247.32 199.82C247.32 219.29 302.32 229.39 302.32 229.39L366.79 233.82C366.79 233.82 380.93 235.28 393.16 236C393.43 232.25 394.15 227.36 394.15 227.36Z" fill="#78E5E1"/>
<path d="M445.22 245.49C449.91 244.1 496.55 236.49 506.71 246.49C516.87 256.49 548.85 399.86 548.85 403.16H523.1L488.34 328.35" fill="#1F161E"/>
<path d="M275.41 232.74C274.24 238.59 267.21 244.87 267.21 276.74C267.21 320.81 303.31 321.74 316.27 321.74C356.65 321.74 421.98 309.74 426.39 307.54C429.32 312.44 483.25 422.54 483.5 425H508.33C508.33 425 492.94 260.28 465.17 241.6C456.15 235.6 296.12 229.18 275.41 232.74Z" fill="#55B79D"/>
<path d="M420.81 200.52C414.29 200.52 408.91 202.07 394.15 204.97L393.38 233.21C407.38 227.57 410.63 219.73 414.69 219.73C424.83 219.73 430.13 224.96 436.12 224.96C440.3 224.96 447.82 221.68 447.82 217.22C447.82 207.88 428.89 200.52 420.81 200.52Z" fill="#F8CDBA"/>
<path d="M524.56 401.18C524.56 403.56 523.17 418.5 525.94 419.89C528.71 421.28 559.16 422.1 560.54 420.72C561.92 419.34 562.75 416.43 561.54 415.6C560.33 414.77 548.54 412.41 546.94 411.3C545.34 410.19 543.13 404.3 543.94 401.18" fill="#1F161E"/>
<path d="M342.64 109.66C342.64 113.43 320.75 113.54 320.75 109.66V79H342.64V109.66Z" fill="#F8CDBA"/>
<path d="M335.51 89.11C333.51 89.11 320.75 94.75 320.75 97.9V81.26C323.93 81.26 335.51 89.11 335.51 89.11Z" fill="#1F161E"/>
<path d="M339.74 90.41C354.376 90.41 366.24 78.5456 366.24 63.91C366.24 49.2745 354.376 37.41 339.74 37.41C325.104 37.41 313.24 49.2745 313.24 63.91C313.24 78.5456 325.104 90.41 339.74 90.41Z" fill="#F8CDBA"/>
<path d="M367.09 43.11C363.81 48.32 356.95 50.71 349.52 50.71C343.19 50.71 333.97 48.87 327.41 52.61C323.86 54.61 319.79 59.16 318.97 68.27C318.97 69.83 317.2 75.88 317.2 77.83C317.2 79.16 315.7 80.03 313.2 80.03C311.91 80.03 309.36 77.94 309.36 74.75C309.36 71.06 310.83 69.75 310.83 66.62C310.83 63.49 307 60.48 307 51.78C307 39.25 315 31.53 320.66 31.53C325.82 31.53 327.44 32.73 328.09 33.24C328.09 21.85 343.09 16.65 349.04 16.65C355.84 16.65 359.04 19.44 359.04 22.99C359.04 28.65 356.34 33.46 354.97 34.54C358.071 31.7504 362.099 30.2141 366.27 30.23C374.06 30.23 376.68 35.35 376.68 38.85C376.68 46.46 367.55 53.51 364.15 53.51C363.295 51.7003 362.291 49.9644 361.15 48.32" fill="#1F161E"/>
<path d="M319.79 73.06C322.91 73.06 325.44 70.5304 325.44 67.41C325.44 64.2896 322.91 61.76 319.79 61.76C316.67 61.76 314.14 64.2896 314.14 67.41C314.14 70.5304 316.67 73.06 319.79 73.06Z" fill="#F8CDBA"/>
<path d="M366.5 68.77C368.919 68.77 370.88 67.7492 370.88 66.49C370.88 65.2308 368.919 64.21 366.5 64.21C364.081 64.21 362.12 65.2308 362.12 66.49C362.12 67.7492 364.081 68.77 366.5 68.77Z" fill="#FA9E9F"/>
<path d="M338.95 68.77C341.369 68.77 343.33 67.7492 343.33 66.49C343.33 65.2308 341.369 64.21 338.95 64.21C336.531 64.21 334.57 65.2308 334.57 66.49C334.57 67.7492 336.531 68.77 338.95 68.77Z" fill="#FA9E9F"/>
<path d="M355.8 61.76C356.62 62.93 360.8 67.84 356.39 69.83" stroke="#1F161E" stroke-miterlimit="10" stroke-linecap="round"/>
<path d="M347.56 75.56C346.24 75.56 344.21 73.92 343.14 72.45" stroke="#1F161E" stroke-miterlimit="10" stroke-linecap="round"/>
<path d="M382.5 146.73C384.5 150.98 394.15 191.98 394.15 204.97" stroke="#1F161E" stroke-miterlimit="10" stroke-linecap="round"/>
<path d="M247.32 196.52C247.32 242.61 247.75 255.98 266.25 255.98C308.89 255.98 373.35 220.98 384.84 220.98C394.99 220.98 400.29 226.22 406.28 226.22C410.45 226.22 417.97 222.93 417.97 218.48C417.97 209.13 399.04 201.77 390.97 201.77C372.8 201.77 300.29 219.29 298.52 219.29C296.75 219.29 293.77 218.52 293.77 215.54C293.77 210.13 297.31 197.63 297.77 196.54L247.32 196.52Z" fill="#F8CDBA"/>
<path d="M308.42 156.32C307.2 159.83 297.69 196.1 296.59 200.52" stroke="#1F161E" stroke-miterlimit="10" stroke-linecap="round"/>
<path d="M669.458 436.857C670.177 439.591 672.977 441.225 675.712 440.506C678.447 439.787 680.081 436.988 679.362 434.253L628.163 239.511C627.444 236.776 624.644 235.142 621.909 235.861C619.175 236.58 617.541 239.379 618.26 242.114L669.458 436.857Z" fill="#969696"/>
<path d="M617.751 242.123C618.47 239.388 616.836 236.588 614.101 235.869C611.366 235.15 608.566 236.784 607.847 239.519L556.649 434.261C555.93 436.996 557.564 439.796 560.299 440.515C563.033 441.234 565.833 439.6 566.552 436.865L617.751 242.123Z" fill="#969696"/>
<path d="M547.102 242.122C547.821 239.387 546.187 236.587 543.453 235.868C540.718 235.149 537.918 236.783 537.199 239.518L486 434.26C485.281 436.995 486.915 439.795 489.65 440.514C492.385 441.233 495.185 439.599 495.904 436.864L547.102 242.122Z" fill="#D8D8D8"/>
<path d="M597.92 433.262C598.626 436.005 601.423 437.656 604.166 436.949C606.909 436.242 608.559 433.445 607.852 430.702L557.512 235.383C556.805 232.64 554.009 230.99 551.266 231.697C548.523 232.404 546.873 235.2 547.58 237.943L597.92 433.262Z" fill="#D8D8D8"/>
<path d="M258.681 242.127C259.4 239.392 257.766 236.592 255.032 235.873C252.297 235.154 249.497 236.788 248.778 239.523L197.579 434.265C196.86 437 198.494 439.8 201.229 440.519C203.964 441.238 206.764 439.604 207.483 436.869L258.681 242.127Z" fill="#969696"/>
<path d="M309.519 436.869C310.238 439.604 313.038 441.238 315.773 440.519C318.507 439.8 320.141 437 319.422 434.266L268.224 239.523C267.505 236.789 264.705 235.154 261.97 235.873C259.235 236.592 257.601 239.392 258.32 242.127L309.519 436.869Z" fill="#969696"/>
<path d="M649.27 226.25H154.1C151.598 226.25 149.57 228.278 149.57 230.78V236.87C149.57 239.372 151.598 241.4 154.1 241.4H649.27C651.772 241.4 653.8 239.372 653.8 236.87V230.78C653.8 228.278 651.772 226.25 649.27 226.25Z" fill="#D8D8D8"/>
<path d="M185.507 242.129C186.226 239.395 184.591 236.595 181.857 235.876C179.122 235.157 176.322 236.791 175.603 239.526L124.404 434.268C123.685 437.003 125.32 439.803 128.054 440.522C130.789 441.241 133.589 439.607 134.308 436.872L185.507 242.129Z" fill="#D8D8D8"/>
<path d="M236.344 436.87C237.063 439.604 239.862 441.239 242.597 440.52C245.332 439.801 246.966 437.001 246.247 434.266L195.048 239.524C194.329 236.789 191.53 235.155 188.795 235.874C186.06 236.593 184.426 239.393 185.145 242.127L236.344 436.87Z" fill="#D8D8D8"/>
<path d="M520.28 226.25H427.77L444.53 168.61C444.949 167.219 445.806 166.001 446.974 165.138C448.142 164.275 449.558 163.812 451.01 163.82H529.51C530.541 163.803 531.562 164.028 532.491 164.476C533.42 164.923 534.231 165.582 534.861 166.399C535.49 167.215 535.92 168.168 536.116 169.181C536.312 170.193 536.269 171.237 535.99 172.23L520.28 226.25Z" fill="black"/>
<path d="M485.38 200.69C488.506 200.69 491.04 198.156 491.04 195.03C491.04 191.904 488.506 189.37 485.38 189.37C482.254 189.37 479.72 191.904 479.72 195.03C479.72 198.156 482.254 200.69 485.38 200.69Z" fill="white"/>
<path d="M438.76 222.2H373.85V226.25H438.76V222.2Z" fill="black"/>
</svg>
