<svg width="673" height="400" viewBox="0 0 673 400" fill="none" xmlns="http://www.w3.org/2000/svg">
<path d="M299.786 306.09C331.255 306.09 356.766 300.451 356.766 293.495C356.766 286.539 331.255 280.9 299.786 280.9C268.317 280.9 242.806 286.539 242.806 293.495C242.806 300.451 268.317 306.09 299.786 306.09Z" fill="black"/>
<path d="M299.786 293.495L267.779 393.668" stroke="black" stroke-width="4" stroke-miterlimit="10" stroke-linecap="round"/>
<path d="M299.786 293.495L331.792 393.668" stroke="black" stroke-width="4" stroke-miterlimit="10" stroke-linecap="round"/>
<path d="M278.288 360.777L313.97 337.898" stroke="black" stroke-width="2" stroke-miterlimit="10" stroke-linecap="round"/>
<path d="M285.457 337.898L321.148 360.777" stroke="black" stroke-width="2" stroke-miterlimit="10" stroke-linecap="round"/>
<path d="M355.863 185.061C355.718 189.503 355.782 205.059 355.05 211.713" stroke="#1F161E" stroke-miterlimit="10" stroke-linecap="round"/>
<path d="M550.178 171.644H555.595C556.164 171.642 556.709 171.415 557.112 171.012C557.514 170.61 557.742 170.064 557.744 169.495V136.198C557.745 135.915 557.689 135.636 557.581 135.375C557.472 135.115 557.313 134.879 557.112 134.681L550.268 127.837C550.069 127.637 549.833 127.478 549.573 127.37C549.313 127.261 549.033 127.205 548.751 127.205H528.536C527.967 127.207 527.422 127.434 527.019 127.837C526.617 128.239 526.39 128.785 526.387 129.354V132.568" fill="#FBDC8E"/>
<path d="M79.5042 251.096C96.6586 254.347 93.5979 356.732 60.6704 350.538C29.5756 344.633 58.5757 247.115 79.5042 251.096Z" fill="black"/>
<path d="M4.18702 263.737C17.8384 256.008 74.9808 327.912 48.8428 342.701C24.1494 356.732 -12.4348 273.162 4.18702 263.737Z" fill="#FBDC8E"/>
<path d="M73.7529 399.997H39.2815C37.893 399.997 36.5534 399.485 35.519 398.558C34.4846 397.632 33.8279 396.357 33.6747 394.977L29.3228 355.901C29.2285 355.109 29.3031 354.305 29.5417 353.543C29.7803 352.782 30.1775 352.079 30.7072 351.482C31.2368 350.885 31.887 350.407 32.6148 350.079C33.3426 349.752 34.1315 349.582 34.9296 349.581H77.9242C78.7159 349.582 79.4987 349.749 80.2217 350.072C80.9446 350.395 81.5915 350.866 82.1204 351.455C82.6492 352.044 83.0481 352.738 83.2911 353.492C83.5341 354.246 83.6158 355.042 83.531 355.829L79.3688 394.905C79.23 396.299 78.5787 397.591 77.5411 398.532C76.5035 399.473 75.1536 399.995 73.7529 399.997Z" fill="#969696"/>
<path d="M89.192 211.226C102.256 215.018 92.2437 294.046 67.2252 286.769C43.6062 279.907 73.2925 206.603 89.192 211.226Z" fill="#AB8DE5"/>
<path d="M110.734 274.101C119.763 281.884 83.0344 341.419 65.6813 326.468C49.2943 312.41 99.7104 264.639 110.734 274.101Z" fill="#FBDC8E"/>
<path d="M56.6075 219.442C76.1636 219.442 94.0674 344.308 56.6075 344.308C21.2332 344.308 32.7989 219.442 56.6075 219.442Z" fill="#78E5E1"/>
<path d="M90.9255 341.13H22.127C20.1075 341.13 18.4704 342.767 18.4704 344.787V351.45C18.4704 353.47 20.1075 355.107 22.127 355.107H90.9255C92.945 355.107 94.5821 353.47 94.5821 351.45V344.787C94.5821 342.767 92.945 341.13 90.9255 341.13Z" fill="#D8D8D8"/>
<path d="M541.077 132.568H521.214C520.895 132.568 520.58 132.631 520.286 132.753C519.992 132.875 519.725 133.054 519.5 133.28C519.275 133.506 519.097 133.773 518.976 134.068C518.855 134.363 518.793 134.678 518.794 134.997V174.542C518.794 175.185 519.049 175.801 519.502 176.256C519.956 176.712 520.571 176.969 521.214 176.971H547.749C548.392 176.969 549.007 176.712 549.461 176.256C549.914 175.801 550.169 175.185 550.169 174.542V141.678C550.17 141.36 550.108 141.044 549.988 140.75C549.867 140.456 549.689 140.188 549.465 139.962L542.783 133.281C542.332 132.827 541.718 132.57 541.077 132.568V132.568Z" fill="#D8D8D8"/>
<path d="M550.178 140.73H543.434C543.074 140.73 542.73 140.587 542.476 140.333C542.222 140.079 542.079 139.735 542.079 139.376V132.568" fill="#969696"/>
<path d="M557.771 135.376H551.027C550.666 135.374 550.32 135.229 550.065 134.974C549.81 134.719 549.666 134.373 549.663 134.013V127.205" fill="#64CCC4"/>
<path d="M518.821 87.3615H472.27C470.759 87.3615 469.534 88.5863 469.534 90.0971V105.301C469.534 106.812 470.759 108.037 472.27 108.037H518.821C520.332 108.037 521.557 106.812 521.557 105.301V90.0971C521.557 88.5863 520.332 87.3615 518.821 87.3615Z" fill="#78E5E1"/>
<path d="M495.536 122.212L501.802 103.234H489.27L495.536 122.212Z" fill="#78E5E1"/>
<path d="M483.122 92.8689L477.867 101.961H488.368L483.122 92.8689Z" fill="white"/>
<path d="M507.96 101.961L513.215 92.8689H502.705L507.96 101.961Z" fill="white"/>
<path d="M495.536 101.365C497.715 101.365 499.482 99.5984 499.482 97.4194C499.482 95.2403 497.715 93.4738 495.536 93.4738C493.357 93.4738 491.591 95.2403 491.591 97.4194C491.591 99.5984 493.357 101.365 495.536 101.365Z" fill="white"/>
<path d="M491.482 43.5453H460.929C459.608 43.5453 458.537 44.6165 458.537 45.9379V64.4105C458.537 65.7319 459.608 66.8032 460.929 66.8032H491.482C492.804 66.8032 493.875 65.7319 493.875 64.4105V45.9379C493.875 44.6165 492.804 43.5453 491.482 43.5453Z" fill="#D8D8D8"/>
<path d="M459.647 44.2766L476.206 55.1742" stroke="#969696" stroke-width="0.82" stroke-linecap="round" stroke-linejoin="round"/>
<path d="M493.875 43.5453L476.206 55.1742" stroke="#969696" stroke-width="0.82" stroke-linecap="round" stroke-linejoin="round"/>
<path d="M493.875 48.6013C496.668 48.6013 498.931 46.3377 498.931 43.5453C498.931 40.7529 496.668 38.4892 493.875 38.4892C491.083 38.4892 488.819 40.7529 488.819 43.5453C488.819 46.3377 491.083 48.6013 493.875 48.6013Z" fill="#FBDC8E"/>
<path d="M495.011 45.9045H494.348V41.5096L493.018 41.9979V41.3991L494.908 40.6897H495.011V45.9045Z" fill="white"/>
<path d="M671.216 57.7293H539.398C538.784 57.7293 538.287 58.2265 538.287 58.8399V59.526C538.287 60.1394 538.784 60.6366 539.398 60.6366H671.216C671.83 60.6366 672.327 60.1394 672.327 59.526V58.8399C672.327 58.2265 671.83 57.7293 671.216 57.7293Z" fill="#D8D8D8"/>
<path d="M595.077 0H587.069C585.793 0 584.758 1.03482 584.758 2.31134V55.418C584.758 56.6945 585.793 57.7293 587.069 57.7293H595.077C596.354 57.7293 597.389 56.6945 597.389 55.418V2.31134C597.389 1.03482 596.354 0 595.077 0Z" fill="#969696"/>
<path d="M601.786 13.534H599.312C598.25 13.534 597.389 14.395 597.389 15.4571V55.8062C597.389 56.8683 598.25 57.7293 599.312 57.7293H601.786C602.848 57.7293 603.709 56.8683 603.709 55.8062V15.4571C603.709 14.395 602.848 13.534 601.786 13.534Z" fill="#D8D8D8"/>
<path d="M608.169 13.534H605.569C604.542 13.534 603.709 14.3667 603.709 15.3939V55.8694C603.709 56.8966 604.542 57.7293 605.569 57.7293H608.169C609.196 57.7293 610.029 56.8966 610.029 55.8694V15.3939C610.029 14.3667 609.196 13.534 608.169 13.534Z" fill="#969696"/>
<path d="M612.752 16.697L610.619 17.6765C609.622 18.1342 609.185 19.3134 609.642 20.3104L626.424 56.8648C626.882 57.8617 628.061 58.2989 629.058 57.8412L631.192 56.8617C632.189 56.404 632.626 55.2248 632.168 54.2278L615.386 17.6734C614.928 16.6765 613.749 16.2393 612.752 16.697Z" fill="#D8D8D8"/>
<path d="M591.069 43.1209C593.018 43.1209 594.599 41.5404 594.599 39.5907C594.599 37.641 593.018 36.0605 591.069 36.0605C589.119 36.0605 587.539 37.641 587.539 39.5907C587.539 41.5404 589.119 43.1209 591.069 43.1209Z" fill="#D8D8D8"/>
<path d="M594.265 45.2336H587.873C587.404 45.2336 587.024 45.6136 587.024 46.0823C587.024 46.551 587.404 46.931 587.873 46.931H594.265C594.734 46.931 595.114 46.551 595.114 46.0823C595.114 45.6136 594.734 45.2336 594.265 45.2336Z" fill="#D8D8D8"/>
<path d="M594.265 49.5764H587.873C587.404 49.5764 587.024 49.9564 587.024 50.4251C587.024 50.8939 587.404 51.2738 587.873 51.2738H594.265C594.734 51.2738 595.114 50.8939 595.114 50.4251C595.114 49.9564 594.734 49.5764 594.265 49.5764Z" fill="#D8D8D8"/>
<path d="M529.583 136.649H523.191C522.722 136.649 522.342 137.029 522.342 137.498C522.342 137.966 522.722 138.346 523.191 138.346H529.583C530.052 138.346 530.432 137.966 530.432 137.498C530.432 137.029 530.052 136.649 529.583 136.649Z" fill="#969696"/>
<path d="M529.583 140.73H523.191C522.722 140.73 522.342 141.11 522.342 141.579C522.342 142.047 522.722 142.427 523.191 142.427H529.583C530.052 142.427 530.432 142.047 530.432 141.579C530.432 141.11 530.052 140.73 529.583 140.73Z" fill="#969696"/>
<path d="M546.16 147.709H522.821C522.352 147.709 521.972 148.089 521.972 148.558C521.972 149.026 522.352 149.406 522.821 149.406H546.16C546.629 149.406 547.009 149.026 547.009 148.558C547.009 148.089 546.629 147.709 546.16 147.709Z" fill="#969696"/>
<path d="M546.16 151.718H522.821C522.352 151.718 521.972 152.098 521.972 152.566C521.972 153.035 522.352 153.415 522.821 153.415H546.16C546.629 153.415 547.009 153.035 547.009 152.566C547.009 152.098 546.629 151.718 546.16 151.718Z" fill="#969696"/>
<path d="M546.16 155.727H522.821C522.352 155.727 521.972 156.107 521.972 156.575C521.972 157.044 522.352 157.424 522.821 157.424H546.16C546.629 157.424 547.009 157.044 547.009 156.575C547.009 156.107 546.629 155.727 546.16 155.727Z" fill="#969696"/>
<path d="M601.208 20.2062C601.208 19.8422 600.913 19.5471 600.549 19.5471C600.185 19.5471 599.89 19.8422 599.89 20.2062V51.0481C599.89 51.4121 600.185 51.7072 600.549 51.7072C600.913 51.7072 601.208 51.4121 601.208 51.0481V20.2062Z" fill="#969696"/>
<path d="M573.481 59.183H567.829C566.587 59.183 565.581 60.1895 565.581 61.4311C565.581 62.6727 566.587 63.6792 567.829 63.6792H573.481C574.723 63.6792 575.729 62.6727 575.729 61.4311C575.729 60.1895 574.723 59.183 573.481 59.183Z" fill="#D8D8D8"/>
<path d="M642.785 59.183H637.133C635.891 59.183 634.885 60.1895 634.885 61.4311C634.885 62.6727 635.891 63.6792 637.133 63.6792H642.785C644.027 63.6792 645.033 62.6727 645.033 61.4311C645.033 60.1895 644.027 59.183 642.785 59.183Z" fill="#D8D8D8"/>
<path d="M429.446 63.5799H396.483C390.499 63.5799 385.648 68.4306 385.648 74.4143V90.4944C385.648 96.478 390.499 101.329 396.483 101.329H429.446C435.43 101.329 440.281 96.478 440.281 90.4944V74.4143C440.281 68.4306 435.43 63.5799 429.446 63.5799Z" fill="#D8D8D8"/>
<path d="M405.168 69.6562H396.952V95.2525H405.168V69.6562Z" fill="#AB8DE5"/>
<path d="M417.077 86.6843H408.861V95.2615H417.077V86.6843Z" fill="#AB8DE5"/>
<path d="M428.977 79.4613H420.761V95.2525H428.977V79.4613Z" fill="#AB8DE5"/>
<path d="M438.06 381.723C438.06 383.863 436.805 397.361 439.306 398.607C441.807 399.853 469.299 400.611 470.545 399.356C471.791 398.101 472.54 395.483 471.448 394.733C470.355 393.984 459.711 391.862 458.266 390.86C456.821 389.858 454.826 384.54 455.557 381.723" fill="#1F161E"/>
<path d="M355.863 205.276L371.338 199.723C370.67 171.491 364.07 108.407 354.698 99.0265C352.495 96.8325 308.923 93.0043 301.149 93.0043C254.76 93.0043 241 98.2952 237.506 101.798C226.672 112.633 223.295 162.832 223.295 180.411C223.295 197.99 272.953 207.109 272.953 207.109L331.16 211.108C331.16 211.108 343.927 212.427 354.969 213.077C355.213 209.691 355.863 205.276 355.863 205.276Z" fill="#78E5E1"/>
<path d="M401.972 221.645C406.207 220.39 448.316 213.519 457.49 222.548C466.663 231.576 495.536 361.02 495.536 364H472.288L440.904 296.456" fill="#1F161E"/>
<path d="M248.656 210.133C247.6 215.415 241.253 221.085 241.253 249.859C241.253 289.649 273.846 290.489 285.548 290.489C322.005 290.489 380.99 279.654 384.971 277.668C387.617 282.092 436.308 381.498 436.534 383.719H458.952C458.952 383.719 445.057 234.998 419.984 218.133C411.841 212.716 267.355 206.919 248.656 210.133Z" fill="#55B79D"/>
<path d="M379.933 181.043C374.047 181.043 369.189 182.442 355.863 185.061L355.168 210.558C367.808 205.465 370.742 198.387 374.408 198.387C383.563 198.387 388.348 203.109 393.756 203.109C397.53 203.109 404.32 200.148 404.32 196.121C404.32 187.688 387.228 181.043 379.933 181.043Z" fill="#F8CDBA"/>
<path d="M473.606 362.212C473.606 364.361 472.351 377.85 474.852 379.105C477.353 380.36 504.845 381.1 506.091 379.854C507.337 378.608 508.086 375.981 506.994 375.232C505.901 374.482 495.256 372.351 493.812 371.349C492.367 370.347 490.372 365.029 491.103 362.212" fill="#1F161E"/>
<path d="M309.356 99.0084C309.356 102.412 289.592 102.512 289.592 99.0084V71.3265H309.356V99.0084Z" fill="#F8CDBA"/>
<path d="M302.919 80.4545C301.113 80.4545 289.592 85.5467 289.592 88.3907V73.367C292.463 73.367 302.919 80.4545 302.919 80.4545Z" fill="#1F161E"/>
<path d="M306.738 81.6282C319.952 81.6282 330.664 70.9162 330.664 57.7023C330.664 44.4883 319.952 33.7763 306.738 33.7763C293.524 33.7763 282.812 44.4883 282.812 57.7023C282.812 70.9162 293.524 81.6282 306.738 81.6282Z" fill="#F8CDBA"/>
<path d="M331.431 38.9226C328.47 43.6266 322.276 45.7844 315.568 45.7844C309.853 45.7844 301.528 44.1231 295.605 47.4999C292.4 49.3056 288.726 53.4136 287.985 61.6388C287.985 63.0472 286.387 68.5096 286.387 70.2702C286.387 71.471 285.033 72.2565 282.776 72.2565C281.611 72.2565 279.309 70.3695 279.309 67.4893C279.309 64.1578 280.636 62.975 280.636 60.149C280.636 57.323 277.178 54.6054 277.178 46.7505C277.178 35.4375 284.401 28.4674 289.511 28.4674C294.17 28.4674 295.633 29.5509 296.219 30.0113C296.219 19.7277 309.762 15.0327 315.135 15.0327C321.274 15.0327 324.163 17.5518 324.163 20.7569C324.163 25.8672 321.725 30.2099 320.488 31.185C323.288 28.6664 326.925 27.2793 330.691 27.2937C337.724 27.2937 340.09 31.9164 340.09 35.0764C340.09 41.9472 331.847 48.3124 328.777 48.3124C328.005 46.6785 327.099 45.1112 326.068 43.6266" fill="#1F161E"/>
<path d="M288.726 65.9635C291.543 65.9635 293.827 63.6796 293.827 60.8623C293.827 58.045 291.543 55.7611 288.726 55.7611C285.908 55.7611 283.624 58.045 283.624 60.8623C283.624 63.6796 285.908 65.9635 288.726 65.9635Z" fill="#F8CDBA"/>
<path d="M330.899 62.0902C333.083 62.0902 334.853 61.1685 334.853 60.0317C334.853 58.8948 333.083 57.9731 330.899 57.9731C328.714 57.9731 326.944 58.8948 326.944 60.0317C326.944 61.1685 328.714 62.0902 330.899 62.0902Z" fill="#FA9E9F"/>
<path d="M306.025 62.0902C308.209 62.0902 309.979 61.1685 309.979 60.0317C309.979 58.8948 308.209 57.9731 306.025 57.9731C303.841 57.9731 302.07 58.8948 302.07 60.0317C302.07 61.1685 303.841 62.0902 306.025 62.0902Z" fill="#FA9E9F"/>
<path d="M321.238 55.7611C321.978 56.8174 325.752 61.2505 321.771 63.0472" stroke="#1F161E" stroke-miterlimit="10" stroke-linecap="round"/>
<path d="M313.798 68.2206C312.606 68.2206 310.774 66.7399 309.808 65.4127" stroke="#1F161E" stroke-miterlimit="10" stroke-linecap="round"/>
<path d="M345.344 132.478C347.15 136.315 355.863 173.332 355.863 185.061" stroke="#1F161E" stroke-miterlimit="10" stroke-linecap="round"/>
<path d="M223.295 177.431C223.295 219.045 223.683 231.116 240.386 231.116C278.884 231.116 337.083 199.516 347.457 199.516C356.621 199.516 361.406 204.247 366.815 204.247C370.58 204.247 377.369 201.276 377.369 197.258C377.369 188.817 360.278 182.172 352.992 182.172C336.587 182.172 271.12 197.99 269.522 197.99C267.924 197.99 265.233 197.295 265.233 194.604C265.233 189.719 268.429 178.434 268.844 177.45L223.295 177.431Z" fill="#F8CDBA"/>
<path d="M278.46 141.136C277.358 144.305 268.772 177.052 267.779 181.043" stroke="#1F161E" stroke-miterlimit="10" stroke-linecap="round"/>
<path d="M604.43 394.423C605.079 396.893 607.607 398.368 610.076 397.719C612.545 397.07 614.02 394.542 613.371 392.073L567.145 216.246C566.496 213.777 563.968 212.302 561.499 212.951C559.03 213.6 557.555 216.128 558.204 218.597L604.43 394.423Z" fill="#969696"/>
<path d="M557.745 218.605C558.394 216.136 556.918 213.608 554.449 212.959C551.98 212.309 549.452 213.785 548.803 216.254L502.577 392.08C501.928 394.549 503.404 397.077 505.873 397.726C508.342 398.376 510.87 396.9 511.519 394.431L557.745 218.605Z" fill="#969696"/>
<path d="M493.958 218.604C494.608 216.134 493.132 213.607 490.663 212.957C488.194 212.308 485.666 213.784 485.017 216.253L438.791 392.079C438.142 394.548 439.618 397.076 442.087 397.725C444.556 398.374 447.084 396.899 447.733 394.43L493.958 218.604Z" fill="#D8D8D8"/>
<path d="M539.84 391.178C540.478 393.655 543.003 395.145 545.479 394.507C547.956 393.868 549.446 391.343 548.808 388.867L503.357 212.52C502.719 210.043 500.194 208.553 497.718 209.191C495.241 209.83 493.751 212.355 494.389 214.831L539.84 391.178Z" fill="#D8D8D8"/>
<path d="M233.553 218.608C234.202 216.139 232.726 213.611 230.257 212.962C227.788 212.313 225.26 213.788 224.611 216.257L178.386 392.084C177.736 394.553 179.212 397.081 181.681 397.73C184.15 398.379 186.678 396.904 187.327 394.435L233.553 218.608Z" fill="#969696"/>
<path d="M279.452 394.435C280.101 396.904 282.629 398.379 285.098 397.73C287.567 397.081 289.043 394.553 288.394 392.084L242.168 216.258C241.519 213.789 238.991 212.313 236.522 212.962C234.053 213.611 232.577 216.139 233.227 218.608L279.452 394.435Z" fill="#969696"/>
<path d="M586.202 204.274H139.13C136.871 204.274 135.04 206.105 135.04 208.364V213.862C135.04 216.121 136.871 217.952 139.13 217.952H586.202C588.461 217.952 590.292 216.121 590.292 213.862V208.364C590.292 206.105 588.461 204.274 586.202 204.274Z" fill="#D8D8D8"/>
<path d="M167.485 218.611C168.135 216.142 166.659 213.614 164.19 212.965C161.721 212.315 159.193 213.791 158.544 216.26L112.318 392.086C111.669 394.556 113.145 397.083 115.614 397.733C118.083 398.382 120.611 396.906 121.26 394.437L167.485 218.611Z" fill="#D8D8D8"/>
<path d="M213.385 394.435C214.034 396.904 216.562 398.38 219.031 397.731C221.5 397.081 222.975 394.554 222.326 392.084L176.1 216.258C175.451 213.789 172.923 212.313 170.454 212.963C167.985 213.612 166.51 216.14 167.159 218.609L213.385 394.435Z" fill="#D8D8D8"/>
<path d="M469.741 204.274H386.217L401.349 152.232C401.727 150.977 402.501 149.877 403.556 149.098C404.61 148.318 405.889 147.901 407.2 147.908H478.075C479.006 147.893 479.927 148.095 480.766 148.5C481.605 148.904 482.338 149.498 482.906 150.236C483.474 150.973 483.862 151.833 484.039 152.748C484.216 153.662 484.177 154.604 483.925 155.501L469.741 204.274Z" fill="black"/>
<path d="M438.231 181.196C441.054 181.196 443.342 178.908 443.342 176.086C443.342 173.264 441.054 170.976 438.231 170.976C435.409 170.976 433.121 173.264 433.121 176.086C433.121 178.908 435.409 181.196 438.231 181.196Z" fill="white"/>
<path d="M396.14 200.617H337.535V204.274H396.14V200.617Z" fill="black"/>
</svg>
