<svg width="606" height="360" viewBox="0 0 606 360" fill="none" xmlns="http://www.w3.org/2000/svg">
<path d="M269.989 275.481C298.33 275.481 321.305 270.406 321.305 264.146C321.305 257.885 298.33 252.81 269.989 252.81C241.648 252.81 218.672 257.885 218.672 264.146C218.672 270.406 241.648 275.481 269.989 275.481Z" fill="black"/>
<path d="M269.989 264.146L241.163 354.301" stroke="black" stroke-width="4" stroke-miterlimit="10" stroke-linecap="round"/>
<path d="M269.989 264.146L298.814 354.301" stroke="black" stroke-width="4" stroke-miterlimit="10" stroke-linecap="round"/>
<path d="M250.628 324.699L282.763 304.108" stroke="black" stroke-width="2" stroke-miterlimit="10" stroke-linecap="round"/>
<path d="M257.084 304.108L289.227 324.699" stroke="black" stroke-width="2" stroke-miterlimit="10" stroke-linecap="round"/>
<path d="M320.492 166.555C320.362 170.552 320.419 184.553 319.76 190.542" stroke="#1F161E" stroke-miterlimit="10" stroke-linecap="round"/>
<path d="M495.494 154.48H500.372C500.885 154.478 501.376 154.273 501.738 153.911C502.101 153.549 502.305 153.058 502.308 152.546V122.578C502.308 122.324 502.258 122.072 502.161 121.838C502.063 121.604 501.919 121.391 501.738 121.213L495.575 115.053C495.396 114.873 495.183 114.73 494.949 114.633C494.714 114.535 494.463 114.485 494.209 114.484H476.003C475.49 114.487 474.999 114.691 474.637 115.053C474.274 115.416 474.07 115.906 474.068 116.418V119.311" fill="#FBDC8E"/>
<path d="M71.602 225.987C87.0514 228.912 84.2949 321.059 54.6402 315.484C26.6361 310.17 52.7537 222.403 71.602 225.987Z" fill="black"/>
<path d="M3.77085 237.363C16.0653 230.407 67.5282 295.121 43.9881 308.431C21.7491 321.059 -11.1988 245.846 3.77085 237.363Z" fill="#FBDC8E"/>
<path d="M66.4222 359.997H35.377C34.1266 359.997 32.9202 359.536 31.9886 358.703C31.057 357.869 30.4656 356.721 30.3275 355.48L26.4082 320.311C26.3233 319.598 26.3904 318.875 26.6053 318.189C26.8202 317.504 27.178 316.871 27.655 316.334C28.132 315.797 28.7175 315.366 29.373 315.071C30.0284 314.777 30.739 314.624 31.4578 314.623H70.1789C70.892 314.624 71.597 314.774 72.248 315.065C72.8991 315.355 73.4817 315.779 73.958 316.31C74.4343 316.84 74.7935 317.465 75.0124 318.143C75.2312 318.821 75.3049 319.538 75.2284 320.246L71.4799 355.415C71.355 356.669 70.7684 357.832 69.8339 358.679C68.8995 359.526 67.6837 359.996 66.4222 359.997Z" fill="#969696"/>
<path d="M80.3267 190.103C92.0926 193.516 83.075 264.641 60.5433 258.092C39.2719 251.916 66.0075 185.943 80.3267 190.103Z" fill="#AB8DE5"/>
<path d="M99.7281 246.691C107.859 253.696 74.7813 307.277 59.153 293.821C44.3948 281.169 89.7998 238.175 99.7281 246.691Z" fill="#FBDC8E"/>
<path d="M50.9809 197.498C68.5933 197.498 84.7176 309.878 50.9809 309.878C19.1226 309.878 29.5388 197.498 50.9809 197.498Z" fill="#86CEDD"/>
<path d="M81.888 307.017H19.9277C18.1089 307.017 16.6345 308.491 16.6345 310.308V316.305C16.6345 318.123 18.1089 319.596 19.9277 319.596H81.888C83.7068 319.596 85.1812 318.123 85.1812 316.305V310.308C85.1812 308.491 83.7068 307.017 81.888 307.017Z" fill="#D8D8D8"/>
<path d="M487.297 119.311H469.408C469.121 119.311 468.837 119.368 468.572 119.478C468.307 119.588 468.067 119.749 467.864 119.952C467.662 120.155 467.502 120.396 467.393 120.661C467.284 120.926 467.228 121.21 467.229 121.497V157.088C467.229 157.666 467.458 158.221 467.867 158.631C468.275 159.04 468.829 159.272 469.408 159.274H493.306C493.885 159.272 494.439 159.04 494.847 158.631C495.256 158.221 495.485 157.666 495.485 157.088V127.51C495.486 127.224 495.431 126.94 495.322 126.675C495.213 126.41 495.053 126.169 494.851 125.966L488.834 119.953C488.427 119.544 487.874 119.313 487.297 119.311Z" fill="#D8D8D8"/>
<path d="M495.493 126.657H489.419C489.096 126.657 488.786 126.528 488.557 126.3C488.328 126.071 488.2 125.761 488.2 125.438V119.311" fill="#969696"/>
<path d="M502.332 121.838H496.258C495.933 121.836 495.622 121.706 495.392 121.477C495.162 121.247 495.032 120.936 495.03 120.611V114.484" fill="#64CCC4"/>
<path d="M467.253 78.6252H425.329C423.968 78.6252 422.865 79.7276 422.865 81.0874V94.7712C422.865 96.131 423.968 97.2333 425.329 97.2333H467.253C468.614 97.2333 469.717 96.131 469.717 94.7712V81.0874C469.717 79.7276 468.614 78.6252 467.253 78.6252Z" fill="#86CEDD"/>
<path d="M446.283 109.991L451.926 92.9105H440.64L446.283 109.991Z" fill="#86CEDD"/>
<path d="M435.102 83.582L430.37 91.7647H439.827L435.102 83.582Z" fill="white"/>
<path d="M457.472 91.7647L462.204 83.582H452.739L457.472 91.7647Z" fill="white"/>
<path d="M446.283 91.2284C448.245 91.2284 449.836 89.6386 449.836 87.6774C449.836 85.7163 448.245 84.1265 446.283 84.1265C444.32 84.1265 442.729 85.7163 442.729 87.6774C442.729 89.6386 444.32 91.2284 446.283 91.2284Z" fill="white"/>
<path d="M442.632 39.1908H415.116C413.926 39.1908 412.961 40.1549 412.961 41.3441V57.9695C412.961 59.1588 413.926 60.1229 415.116 60.1229H442.632C443.822 60.1229 444.787 59.1588 444.787 57.9695V41.3441C444.787 40.1549 443.822 39.1908 442.632 39.1908Z" fill="#D8D8D8"/>
<path d="M413.961 39.8489L428.874 49.6567" stroke="#969696" stroke-width="0.82" stroke-linecap="round" stroke-linejoin="round"/>
<path d="M444.787 39.1908L428.874 49.6568" stroke="#969696" stroke-width="0.82" stroke-linecap="round" stroke-linejoin="round"/>
<path d="M444.787 43.7412C447.302 43.7412 449.34 41.7038 449.34 39.1907C449.34 36.6776 447.302 34.6403 444.787 34.6403C442.272 34.6403 440.233 36.6776 440.233 39.1907C440.233 41.7038 442.272 43.7412 444.787 43.7412Z" fill="#FBDC8E"/>
<path d="M446.068 42.014H445.405V37.6191L444.075 38.1074V37.5086L445.965 36.7992H446.068V42.014Z" fill="white"/>
<path d="M604.501 51.9564H485.785C485.232 51.9564 484.784 52.4039 484.784 52.9559V53.5735C484.784 54.1255 485.232 54.5729 485.785 54.5729H604.501C605.054 54.5729 605.501 54.1255 605.501 53.5735V52.9559C605.501 52.4039 605.054 51.9564 604.501 51.9564Z" fill="#D8D8D8"/>
<path d="M535.93 0H528.718C527.568 0 526.636 0.931338 526.636 2.0802V49.8762C526.636 51.0251 527.568 51.9564 528.718 51.9564H535.93C537.08 51.9564 538.012 51.0251 538.012 49.8762V2.0802C538.012 0.931338 537.08 0 535.93 0Z" fill="#969696"/>
<path d="M541.972 12.1805H539.744C538.787 12.1805 538.012 12.9554 538.012 13.9113V50.2256C538.012 51.1814 538.787 51.9564 539.744 51.9564H541.972C542.928 51.9564 543.704 51.1814 543.704 50.2256V13.9113C543.704 12.9554 542.928 12.1805 541.972 12.1805Z" fill="#D8D8D8"/>
<path d="M547.72 12.1805H545.379C544.454 12.1805 543.704 12.93 543.704 13.8545V50.2824C543.704 51.2069 544.454 51.9564 545.379 51.9564H547.72C548.646 51.9564 549.395 51.2069 549.395 50.2824V13.8545C549.395 12.93 548.646 12.1805 547.72 12.1805Z" fill="#969696"/>
<path d="M551.848 15.0273L549.926 15.9088C549.029 16.3207 548.635 17.382 549.047 18.2793L564.161 51.1783C564.574 52.0755 565.636 52.469 566.533 52.0571L568.455 51.1755C569.353 50.7636 569.746 49.7023 569.334 48.805L554.22 15.9061C553.808 15.0088 552.746 14.6154 551.848 15.0273Z" fill="#D8D8D8"/>
<path d="M532.32 38.8088C534.076 38.8088 535.499 37.3864 535.499 35.6317C535.499 33.8769 534.076 32.4545 532.32 32.4545C530.564 32.4545 529.141 33.8769 529.141 35.6317C529.141 37.3864 530.564 38.8088 532.32 38.8088Z" fill="#D8D8D8"/>
<path d="M535.199 40.7103H529.442C529.019 40.7103 528.677 41.0523 528.677 41.4741C528.677 41.896 529.019 42.238 529.442 42.238H535.199C535.621 42.238 535.963 41.896 535.963 41.4741C535.963 41.0523 535.621 40.7103 535.199 40.7103Z" fill="#D8D8D8"/>
<path d="M535.199 44.6188H529.442C529.019 44.6188 528.677 44.9608 528.677 45.3826C528.677 45.8045 529.019 46.1464 529.442 46.1464H535.199C535.621 46.1464 535.963 45.8045 535.963 45.3826C535.963 44.9608 535.621 44.6188 535.199 44.6188Z" fill="#D8D8D8"/>
<path d="M476.946 122.984H471.189C470.767 122.984 470.425 123.326 470.425 123.748C470.425 124.17 470.767 124.512 471.189 124.512H476.946C477.368 124.512 477.71 124.17 477.71 123.748C477.71 123.326 477.368 122.984 476.946 122.984Z" fill="#969696"/>
<path d="M476.946 126.657H471.189C470.767 126.657 470.425 126.999 470.425 127.421C470.425 127.843 470.767 128.185 471.189 128.185H476.946C477.368 128.185 477.71 127.843 477.71 127.421C477.71 126.999 477.368 126.657 476.946 126.657Z" fill="#969696"/>
<path d="M491.875 132.938H470.856C470.434 132.938 470.091 133.28 470.091 133.702C470.091 134.124 470.434 134.466 470.856 134.466H491.875C492.297 134.466 492.639 134.124 492.639 133.702C492.639 133.28 492.297 132.938 491.875 132.938Z" fill="#969696"/>
<path d="M491.875 136.546H470.856C470.434 136.546 470.091 136.888 470.091 137.31C470.091 137.732 470.434 138.074 470.856 138.074H491.875C492.297 138.074 492.639 137.732 492.639 137.31C492.639 136.888 492.297 136.546 491.875 136.546Z" fill="#969696"/>
<path d="M491.875 140.154H470.856C470.434 140.154 470.091 140.496 470.091 140.918C470.091 141.339 470.434 141.681 470.856 141.681H491.875C492.297 141.681 492.639 141.339 492.639 140.918C492.639 140.496 492.297 140.154 491.875 140.154Z" fill="#969696"/>
<path d="M541.451 18.1856C541.451 17.858 541.186 17.5924 540.858 17.5924C540.53 17.5924 540.264 17.858 540.264 18.1856V45.9433C540.264 46.2709 540.53 46.5365 540.858 46.5365C541.186 46.5365 541.451 46.2709 541.451 45.9433V18.1856Z" fill="#969696"/>
<path d="M516.48 53.2646H511.39C510.272 53.2646 509.365 54.1705 509.365 55.288C509.365 56.4054 510.272 57.3113 511.39 57.3113H516.48C517.598 57.3113 518.505 56.4054 518.505 55.288C518.505 54.1705 517.598 53.2646 516.48 53.2646Z" fill="#D8D8D8"/>
<path d="M578.896 53.2646H573.806C572.687 53.2646 571.781 54.1705 571.781 55.288C571.781 56.4054 572.687 57.3113 573.806 57.3113H578.896C580.014 57.3113 580.92 56.4054 580.92 55.288C580.92 54.1705 580.014 53.2646 578.896 53.2646Z" fill="#D8D8D8"/>
<path d="M386.762 57.2219H357.075C351.686 57.2219 347.317 61.5876 347.317 66.9729V81.4449C347.317 86.8303 351.686 91.1959 357.075 91.1959H386.762C392.151 91.1959 396.519 86.8303 396.519 81.4449V66.9729C396.519 61.5876 392.151 57.2219 386.762 57.2219Z" fill="#D8D8D8"/>
<path d="M364.897 62.6906H357.498V85.7272H364.897V62.6906Z" fill="#AB8DE5"/>
<path d="M375.622 78.0159H368.223V85.7354H375.622V78.0159Z" fill="#AB8DE5"/>
<path d="M386.339 71.5151H378.94V85.7272H386.339V71.5151Z" fill="#AB8DE5"/>
<path d="M394.519 343.551C394.519 345.477 393.389 357.625 395.641 358.746C397.894 359.867 422.653 360.55 423.775 359.421C424.898 358.291 425.572 355.935 424.589 355.26C423.605 354.586 414.018 352.676 412.717 351.774C411.416 350.872 409.619 346.086 410.278 343.551" fill="#1F161E"/>
<path d="M320.492 184.748L334.429 179.751C333.827 154.341 327.883 97.5665 319.443 89.1238C317.459 87.1492 278.218 83.7039 271.217 83.7039C229.438 83.7039 217.046 88.4656 213.899 91.6184C204.142 101.369 201.101 146.549 201.101 162.37C201.101 178.191 245.823 186.398 245.823 186.398L298.245 189.998C298.245 189.998 309.743 191.184 319.687 191.769C319.907 188.722 320.492 184.748 320.492 184.748Z" fill="#86CEDD"/>
<path d="M362.019 199.48C365.832 198.351 403.756 192.167 412.018 200.293C420.279 208.419 446.283 324.918 446.283 327.6H425.345L397.081 266.811" fill="#1F161E"/>
<path d="M223.941 189.12C222.99 193.874 217.274 198.977 217.274 224.873C217.274 260.684 246.628 261.44 257.166 261.44C290 261.44 343.121 251.689 346.707 249.901C349.09 253.883 392.942 343.348 393.145 345.347H413.335C413.335 345.347 400.821 211.498 378.24 196.319C370.906 191.444 240.781 186.227 223.941 189.12Z" fill="#648C6D"/>
<path d="M342.17 162.939C336.868 162.939 332.494 164.198 320.492 166.555L319.866 189.502C331.25 184.919 333.892 178.548 337.194 178.548C345.439 178.548 349.748 182.798 354.619 182.798C358.018 182.798 364.133 180.133 364.133 176.509C364.133 168.919 348.74 162.939 342.17 162.939Z" fill="#F8CDBA"/>
<path d="M426.532 325.991C426.532 327.925 425.402 340.065 427.654 341.194C429.907 342.324 454.666 342.99 455.788 341.869C456.911 340.747 457.585 338.383 456.602 337.708C455.618 337.034 446.031 335.116 444.73 334.214C443.429 333.312 441.632 328.526 442.291 325.991" fill="#1F161E"/>
<path d="M278.608 89.1076C278.608 92.171 260.809 92.2604 260.809 89.1076V64.1938H278.608V89.1076Z" fill="#F8CDBA"/>
<path d="M272.81 72.409C271.184 72.409 260.809 76.992 260.809 79.5516V66.0303C263.394 66.0303 272.81 72.409 272.81 72.409Z" fill="#1F161E"/>
<path d="M276.25 73.4654C288.15 73.4654 297.798 63.8246 297.798 51.9321C297.798 40.0395 288.15 30.3987 276.25 30.3987C264.349 30.3987 254.702 40.0395 254.702 51.9321C254.702 63.8246 264.349 73.4654 276.25 73.4654Z" fill="#F8CDBA"/>
<path d="M298.489 35.0303C295.822 39.2638 290.244 41.2059 284.202 41.2059C279.055 41.2059 271.558 39.7108 266.224 42.7498C263.337 44.375 260.028 48.0722 259.361 55.4748C259.361 56.7425 257.922 61.6586 257.922 63.2431C257.922 64.3238 256.702 65.0308 254.669 65.0308C253.62 65.0308 251.547 63.3325 251.547 60.7403C251.547 57.7419 252.742 56.6774 252.742 54.1341C252.742 51.5907 249.628 49.1448 249.628 42.0754C249.628 31.8937 256.133 25.6206 260.735 25.6206C264.931 25.6206 266.248 26.5957 266.777 27.0101C266.777 17.7548 278.974 13.5294 283.812 13.5294C289.341 13.5294 291.943 15.7965 291.943 18.6812C291.943 23.2804 289.748 27.1889 288.634 28.0665C291.155 25.7997 294.43 24.5513 297.822 24.5643C304.156 24.5643 306.287 28.7247 306.287 31.5687C306.287 37.7525 298.863 43.4811 296.098 43.4811C295.403 42.0106 294.587 40.6001 293.659 39.2639" fill="#1F161E"/>
<path d="M260.028 59.3671C262.565 59.3671 264.622 57.3116 264.622 54.776C264.622 52.2404 262.565 50.1849 260.028 50.1849C257.491 50.1849 255.434 52.2404 255.434 54.776C255.434 57.3116 257.491 59.3671 260.028 59.3671Z" fill="#F8CDBA"/>
<path d="M298.009 55.8811C299.976 55.8811 301.571 55.0517 301.571 54.0285C301.571 53.0053 299.976 52.1758 298.009 52.1758C296.042 52.1758 294.448 53.0053 294.448 54.0285C294.448 55.0517 296.042 55.8811 298.009 55.8811Z" fill="#FA9E9F"/>
<path d="M275.607 55.8811C277.574 55.8811 279.169 55.0517 279.169 54.0285C279.169 53.0053 277.574 52.1758 275.607 52.1758C273.64 52.1758 272.046 53.0053 272.046 54.0285C272.046 55.0517 273.64 55.8811 275.607 55.8811Z" fill="#FA9E9F"/>
<path d="M289.309 50.1849C289.975 51.1357 293.374 55.1254 289.788 56.7425" stroke="#1F161E" stroke-miterlimit="10" stroke-linecap="round"/>
<path d="M282.608 61.3986C281.535 61.3986 279.884 60.066 279.014 58.8715" stroke="#1F161E" stroke-miterlimit="10" stroke-linecap="round"/>
<path d="M311.019 119.23C312.646 122.683 320.492 155.999 320.492 166.555" stroke="#1F161E" stroke-miterlimit="10" stroke-linecap="round"/>
<path d="M201.101 159.688C201.101 197.14 201.45 208.004 216.493 208.004C251.165 208.004 303.579 179.564 312.922 179.564C321.175 179.564 325.485 183.822 330.355 183.822C333.746 183.822 339.861 181.149 339.861 177.533C339.861 169.935 324.468 163.954 317.906 163.954C303.132 163.954 244.172 178.191 242.733 178.191C241.293 178.191 238.87 177.565 238.87 175.144C238.87 170.748 241.749 160.59 242.123 159.705L201.101 159.688Z" fill="#F8CDBA"/>
<path d="M250.783 127.023C249.791 129.875 242.058 159.347 241.163 162.939" stroke="#1F161E" stroke-miterlimit="10" stroke-linecap="round"/>
<path d="M544.353 354.981C544.937 357.203 547.214 358.531 549.438 357.947C551.661 357.363 552.99 355.088 552.406 352.865L510.774 194.622C510.19 192.4 507.913 191.072 505.69 191.656C503.466 192.24 502.137 194.515 502.722 196.737L544.353 354.981Z" fill="#969696"/>
<path d="M502.308 196.744C502.893 194.522 501.564 192.247 499.34 191.663C497.117 191.078 494.84 192.406 494.255 194.629L452.624 352.872C452.04 355.094 453.368 357.37 455.592 357.954C457.816 358.538 460.093 357.21 460.677 354.988L502.308 196.744Z" fill="#969696"/>
<path d="M444.862 196.743C445.446 194.521 444.118 192.246 441.894 191.662C439.67 191.077 437.394 192.405 436.809 194.627L395.178 352.871C394.593 355.093 395.922 357.368 398.146 357.953C400.37 358.537 402.646 357.209 403.231 354.987L444.862 196.743Z" fill="#D8D8D8"/>
<path d="M486.183 352.06C486.758 354.289 489.032 355.63 491.262 355.056C493.492 354.481 494.834 352.209 494.259 349.98L453.327 191.268C452.752 189.039 450.478 187.698 448.247 188.272C446.017 188.847 444.675 191.119 445.25 193.348L486.183 352.06Z" fill="#D8D8D8"/>
<path d="M210.339 196.747C210.924 194.525 209.595 192.25 207.371 191.666C205.147 191.082 202.871 192.409 202.286 194.632L160.655 352.875C160.07 355.098 161.399 357.373 163.623 357.957C165.847 358.541 168.123 357.213 168.708 354.991L210.339 196.747Z" fill="#969696"/>
<path d="M251.676 354.991C252.261 357.214 254.537 358.541 256.761 357.957C258.985 357.373 260.314 355.098 259.729 352.876L218.098 194.632C217.513 192.41 215.237 191.082 213.013 191.666C210.789 192.25 209.461 194.525 210.045 196.748L251.676 354.991Z" fill="#969696"/>
<path d="M527.937 183.846H125.301C123.267 183.846 121.617 185.494 121.617 187.527V192.476C121.617 194.509 123.267 196.157 125.301 196.157H527.937C529.972 196.157 531.621 194.509 531.621 192.476V187.527C531.621 185.494 529.972 183.846 527.937 183.846Z" fill="#D8D8D8"/>
<path d="M150.838 196.75C151.423 194.527 150.094 192.252 147.871 191.668C145.647 191.084 143.37 192.412 142.786 194.634L101.155 352.878C100.57 355.1 101.899 357.375 104.122 357.959C106.346 358.544 108.623 357.216 109.207 354.993L150.838 196.75Z" fill="#D8D8D8"/>
<path d="M192.175 354.992C192.76 357.214 195.037 358.542 197.26 357.958C199.484 357.373 200.813 355.098 200.228 352.876L158.597 194.632C158.012 192.41 155.736 191.082 153.512 191.666C151.288 192.251 149.96 194.526 150.544 196.748L192.175 354.992Z" fill="#D8D8D8"/>
<path d="M423.052 183.846H347.829L361.457 137.009C361.798 135.879 362.495 134.889 363.445 134.188C364.394 133.486 365.546 133.111 366.726 133.117H430.557C431.395 133.103 432.225 133.286 432.981 133.65C433.736 134.013 434.396 134.548 434.908 135.212C435.42 135.876 435.769 136.65 435.929 137.473C436.088 138.295 436.053 139.144 435.826 139.951L423.052 183.846Z" fill="black"/>
<path d="M394.674 163.077C397.215 163.077 399.276 161.018 399.276 158.478C399.276 155.938 397.215 153.878 394.674 153.878C392.132 153.878 390.071 155.938 390.071 158.478C390.071 161.018 392.132 163.077 394.674 163.077Z" fill="white"/>
<path d="M356.766 180.555H303.986V183.846H356.766V180.555Z" fill="black"/>
</svg>
