<svg width="606" height="360" viewBox="0 0 606 360" fill="none" xmlns="http://www.w3.org/2000/svg">
<path d="M269.989 275.481C298.33 275.481 321.305 270.406 321.305 264.146C321.305 257.885 298.33 252.81 269.989 252.81C241.648 252.81 218.672 257.885 218.672 264.146C218.672 270.406 241.648 275.481 269.989 275.481Z" fill="black"/>
<path d="M269.989 264.146L241.163 354.301" stroke="black" stroke-width="4" stroke-miterlimit="10" stroke-linecap="round"/>
<path d="M269.989 264.146L298.814 354.301" stroke="black" stroke-width="4" stroke-miterlimit="10" stroke-linecap="round"/>
<path d="M250.628 324.699L282.763 304.108" stroke="black" stroke-width="2" stroke-miterlimit="10" stroke-linecap="round"/>
<path d="M257.084 304.108L289.227 324.699" stroke="black" stroke-width="2" stroke-miterlimit="10" stroke-linecap="round"/>
<path d="M320.492 166.555C320.362 170.553 320.419 184.553 319.76 190.542" stroke="#1F161E" stroke-miterlimit="10" stroke-linecap="round"/>
<path d="M495.494 154.48H500.372C500.885 154.477 501.376 154.273 501.738 153.911C502.101 153.549 502.305 153.058 502.308 152.546V122.578C502.308 122.324 502.258 122.072 502.161 121.838C502.063 121.603 501.919 121.391 501.738 121.213L495.575 115.053C495.396 114.873 495.183 114.73 494.949 114.633C494.714 114.535 494.463 114.485 494.209 114.484H476.003C475.49 114.487 474.999 114.691 474.637 115.053C474.274 115.415 474.07 115.906 474.068 116.418V119.311" fill="#7FB9CB"/>
<path d="M71.602 225.987C87.0514 228.912 84.2949 321.059 54.6402 315.484C26.6361 310.17 52.7537 222.403 71.602 225.987Z" fill="black"/>
<path d="M3.77085 237.363C16.0653 230.407 67.5282 295.121 43.9881 308.431C21.7491 321.059 -11.1988 245.846 3.77085 237.363Z" fill="#BFD6DB"/>
<path d="M66.4222 359.997H35.377C34.1266 359.997 32.9202 359.536 31.9886 358.703C31.057 357.869 30.4656 356.721 30.3275 355.48L26.4082 320.311C26.3233 319.598 26.3904 318.875 26.6053 318.189C26.8202 317.504 27.178 316.871 27.655 316.334C28.132 315.797 28.7175 315.366 29.373 315.071C30.0284 314.777 30.739 314.624 31.4578 314.623H70.1789C70.892 314.624 71.597 314.774 72.248 315.065C72.8991 315.355 73.4817 315.779 73.958 316.31C74.4343 316.84 74.7935 317.465 75.0124 318.143C75.2312 318.821 75.3049 319.538 75.2284 320.246L71.4799 355.415C71.355 356.669 70.7684 357.832 69.8339 358.679C68.8995 359.526 67.6837 359.996 66.4222 359.997Z" fill="#969696"/>
<path d="M80.3267 190.103C92.0926 193.516 83.075 264.641 60.5433 258.092C39.2719 251.916 66.0075 185.943 80.3267 190.103Z" fill="#175E7A"/>
<path d="M99.7281 246.691C107.859 253.696 74.7813 307.277 59.153 293.821C44.3948 281.169 89.7998 238.176 99.7281 246.691Z" fill="#BFD6DB"/>
<path d="M50.9809 197.498C68.5933 197.498 84.7176 309.877 50.9809 309.877C19.1226 309.877 29.5388 197.498 50.9809 197.498Z" fill="#86CEDD"/>
<path d="M81.888 307.017H19.9277C18.1089 307.017 16.6345 308.491 16.6345 310.308V316.305C16.6345 318.123 18.1089 319.596 19.9277 319.596H81.888C83.7068 319.596 85.1812 318.123 85.1812 316.305V310.308C85.1812 308.491 83.7068 307.017 81.888 307.017Z" fill="#D8D8D8"/>
<path d="M487.297 119.311H469.408C469.121 119.311 468.837 119.368 468.572 119.478C468.307 119.588 468.067 119.749 467.864 119.952C467.662 120.155 467.502 120.396 467.393 120.661C467.284 120.926 467.228 121.21 467.229 121.497V157.088C467.229 157.666 467.458 158.221 467.867 158.631C468.275 159.041 468.829 159.272 469.408 159.274H493.306C493.885 159.272 494.439 159.041 494.847 158.631C495.256 158.221 495.485 157.666 495.485 157.088V127.51C495.486 127.224 495.431 126.94 495.322 126.675C495.213 126.41 495.053 126.169 494.851 125.966L488.834 119.953C488.427 119.544 487.874 119.313 487.297 119.311V119.311Z" fill="#D8D8D8"/>
<path d="M495.493 126.657H489.419C489.096 126.657 488.786 126.529 488.557 126.3C488.328 126.071 488.2 125.761 488.2 125.438V119.311" fill="#969696"/>
<path d="M502.332 121.838H496.258C495.933 121.836 495.622 121.706 495.392 121.476C495.162 121.247 495.032 120.936 495.03 120.611V114.484" fill="#2D758D"/>
<path d="M467.253 78.6252H425.329C423.968 78.6252 422.865 79.7276 422.865 81.0874V94.7712C422.865 96.131 423.968 97.2333 425.329 97.2333H467.253C468.614 97.2333 469.717 96.131 469.717 94.7712V81.0874C469.717 79.7276 468.614 78.6252 467.253 78.6252Z" fill="#86CEDD"/>
<path d="M446.283 109.991L451.926 92.9104H440.64L446.283 109.991Z" fill="#86CEDD"/>
<path d="M435.102 83.582L430.37 91.7647H439.827L435.102 83.582Z" fill="white"/>
<path d="M457.472 91.7647L462.204 83.582H452.739L457.472 91.7647Z" fill="white"/>
<path d="M446.283 91.2284C448.245 91.2284 449.836 89.6386 449.836 87.6774C449.836 85.7163 448.245 84.1265 446.283 84.1265C444.32 84.1265 442.729 85.7163 442.729 87.6774C442.729 89.6386 444.32 91.2284 446.283 91.2284Z" fill="white"/>
<path d="M442.632 39.1907H415.116C413.926 39.1907 412.961 40.1548 412.961 41.344V57.9694C412.961 59.1587 413.926 60.1228 415.116 60.1228H442.632C443.822 60.1228 444.787 59.1587 444.787 57.9694V41.344C444.787 40.1548 443.822 39.1907 442.632 39.1907Z" fill="#D8D8D8"/>
<path d="M413.961 39.8489L428.874 49.6567" stroke="#969696" stroke-width="0.82" stroke-linecap="round" stroke-linejoin="round"/>
<path d="M444.787 39.1907L428.874 49.6567" stroke="#969696" stroke-width="0.82" stroke-linecap="round" stroke-linejoin="round"/>
<path d="M444.554 44.1009C447.068 44.1009 449.107 42.0636 449.107 39.5504C449.107 37.0373 447.068 35 444.554 35C442.039 35 440 37.0373 440 39.5504C440 42.0636 442.039 44.1009 444.554 44.1009Z" fill="#9DCDDC"/>
<path d="M445.598 42H444.935V37.605L443.606 38.0934V37.4945L445.495 36.7852H445.598V42Z" fill="white"/>
<path d="M476.946 122.984H471.189C470.767 122.984 470.425 123.326 470.425 123.748C470.425 124.17 470.767 124.512 471.189 124.512H476.946C477.368 124.512 477.71 124.17 477.71 123.748C477.71 123.326 477.368 122.984 476.946 122.984Z" fill="#969696"/>
<path d="M476.946 126.657H471.189C470.767 126.657 470.425 126.999 470.425 127.421C470.425 127.843 470.767 128.185 471.189 128.185H476.946C477.368 128.185 477.71 127.843 477.71 127.421C477.71 126.999 477.368 126.657 476.946 126.657Z" fill="#969696"/>
<path d="M491.875 132.938H470.856C470.434 132.938 470.091 133.28 470.091 133.702C470.091 134.124 470.434 134.466 470.856 134.466H491.875C492.297 134.466 492.639 134.124 492.639 133.702C492.639 133.28 492.297 132.938 491.875 132.938Z" fill="#969696"/>
<path d="M491.875 136.546H470.856C470.434 136.546 470.091 136.888 470.091 137.31C470.091 137.732 470.434 138.074 470.856 138.074H491.875C492.297 138.074 492.639 137.732 492.639 137.31C492.639 136.888 492.297 136.546 491.875 136.546Z" fill="#969696"/>
<path d="M491.875 140.154H470.856C470.434 140.154 470.091 140.496 470.091 140.918C470.091 141.339 470.434 141.681 470.856 141.681H491.875C492.297 141.681 492.639 141.339 492.639 140.918C492.639 140.496 492.297 140.154 491.875 140.154Z" fill="#969696"/>
<path d="M386.762 57.2219H357.075C351.686 57.2219 347.317 61.5876 347.317 66.9729V81.4449C347.317 86.8303 351.686 91.1959 357.075 91.1959H386.762C392.151 91.1959 396.519 86.8303 396.519 81.4449V66.9729C396.519 61.5876 392.151 57.2219 386.762 57.2219Z" fill="#D8D8D8"/>
<path d="M364.897 62.6907H357.498V85.7273H364.897V62.6907Z" fill="#57A3B3"/>
<path d="M375.622 78.0159H368.223V85.7354H375.622V78.0159Z" fill="#57A3B3"/>
<path d="M386.339 71.5151H378.94V85.7272H386.339V71.5151Z" fill="#57A3B3"/>
<path d="M394.519 343.551C394.519 345.477 393.389 357.625 395.641 358.746C397.894 359.867 422.653 360.55 423.775 359.42C424.898 358.291 425.572 355.935 424.589 355.26C423.605 354.586 414.018 352.676 412.717 351.774C411.416 350.872 409.619 346.086 410.278 343.551" fill="#1F161E"/>
<path d="M320.492 184.748L334.429 179.751C333.827 154.341 327.883 97.5665 319.443 89.1238C317.459 87.1492 278.218 83.7039 271.217 83.7039C229.438 83.7039 217.046 88.4656 213.899 91.6184C204.142 101.369 201.101 146.549 201.101 162.37C201.101 178.191 245.823 186.398 245.823 186.398L298.245 189.998C298.245 189.998 309.743 191.184 319.687 191.769C319.907 188.722 320.492 184.748 320.492 184.748Z" fill="#86CEDD"/>
<path d="M362.019 199.48C365.832 198.351 403.756 192.167 412.018 200.293C420.279 208.419 446.283 324.919 446.283 327.6H425.345L397.081 266.811" fill="#1F161E"/>
<path d="M223.941 189.12C222.99 193.874 217.274 198.977 217.274 224.873C217.274 260.684 246.628 261.44 257.166 261.44C290 261.44 343.121 251.689 346.707 249.901C349.09 253.883 392.942 343.348 393.145 345.347H413.335C413.335 345.347 400.821 211.498 378.24 196.319C370.906 191.444 240.781 186.227 223.941 189.12Z" fill="#175E7A"/>
<path d="M342.17 162.939C336.868 162.939 332.494 164.198 320.492 166.555L319.866 189.502C331.25 184.919 333.892 178.548 337.194 178.548C345.439 178.548 349.748 182.798 354.619 182.798C358.018 182.798 364.133 180.133 364.133 176.509C364.133 168.919 348.74 162.939 342.17 162.939Z" fill="#F8CDBA"/>
<path d="M426.532 325.991C426.532 327.925 425.402 340.065 427.654 341.194C429.907 342.324 454.666 342.99 455.788 341.869C456.911 340.747 457.585 338.383 456.602 337.708C455.618 337.034 446.031 335.116 444.73 334.214C443.429 333.312 441.632 328.526 442.291 325.991" fill="#1F161E"/>
<path d="M278.608 89.1076C278.608 92.171 260.809 92.2604 260.809 89.1076V64.1938H278.608V89.1076Z" fill="#F8CDBA"/>
<path d="M272.81 72.409C271.184 72.409 260.809 76.992 260.809 79.5516V66.0303C263.394 66.0303 272.81 72.409 272.81 72.409Z" fill="#1F161E"/>
<path d="M275.5 75C289.583 75 301 64.031 301 50.5C301 36.969 289.583 26 275.5 26C261.417 26 250 36.969 250 50.5C250 64.031 261.417 75 275.5 75Z" fill="#F8CDBA"/>
<path d="M301.916 30.4664C298.81 35.4808 292.312 37.781 285.274 37.781C279.279 37.781 270.546 36.0101 264.332 39.6097C260.97 41.5346 257.115 45.9137 256.338 54.6816C256.338 56.183 254.661 62.0058 254.661 63.8826C254.661 65.1627 253.241 66 250.873 66C249.651 66 247.235 63.9885 247.235 60.9183C247.235 57.3668 248.628 56.106 248.628 53.0936C248.628 50.0811 245 47.1841 245 38.8108C245 26.7513 252.578 19.3212 257.939 19.3212C262.826 19.3212 264.361 20.4762 264.976 20.967C264.976 10.0047 279.184 5 284.82 5C291.261 5 294.292 7.68524 294.292 11.1019C294.292 16.5494 291.734 21.1788 290.437 22.2182C293.374 19.5333 297.189 18.0547 301.14 18.0701C308.518 18.0701 311 22.9978 311 26.3664C311 33.6906 302.352 40.4759 299.132 40.4759C298.322 38.7341 297.371 37.0634 296.29 35.4808" fill="#1F161E"/>
<path d="M257 59C260.314 59 263 56.5376 263 53.5C263 50.4624 260.314 48 257 48C253.686 48 251 50.4624 251 53.5C251 56.5376 253.686 59 257 59Z" fill="#F8CDBA"/>
<path d="M302 54C304.209 54 306 53.1046 306 52C306 50.8954 304.209 50 302 50C299.791 50 298 50.8954 298 52C298 53.1046 299.791 54 302 54Z" fill="#FA9E9F"/>
<path d="M275 54C277.209 54 279 53.1046 279 52C279 50.8954 277.209 50 275 50C272.791 50 271 50.8954 271 52C271 53.1046 272.791 54 275 54Z" fill="#FA9E9F"/>
<path d="M291 48C291.636 49.0149 294.877 53.2739 291.458 55" stroke="#1F161E" stroke-miterlimit="10" stroke-linecap="round"/>
<path d="M283 62C281.805 62 279.968 60.418 279 59" stroke="#1F161E" stroke-miterlimit="10" stroke-linecap="round"/>
<path d="M311.019 119.23C312.646 122.683 320.492 155.999 320.492 166.555" stroke="#1F161E" stroke-miterlimit="10" stroke-linecap="round"/>
<path d="M201.101 159.688C201.101 197.14 201.45 208.004 216.493 208.004C251.165 208.004 303.579 179.564 312.922 179.564C321.175 179.564 325.485 183.822 330.355 183.822C333.746 183.822 339.861 181.148 339.861 177.532C339.861 169.935 324.468 163.954 317.906 163.954C303.132 163.954 244.172 178.191 242.733 178.191C241.293 178.191 238.87 177.565 238.87 175.144C238.87 170.747 241.749 160.59 242.123 159.704L201.101 159.688Z" fill="#F8CDBA"/>
<path d="M250.783 127.022C249.791 129.875 242.058 159.347 241.163 162.939" stroke="#1F161E" stroke-miterlimit="10" stroke-linecap="round"/>
<path d="M544.353 354.981C544.937 357.203 547.214 358.531 549.438 357.947C551.661 357.363 552.99 355.088 552.406 352.865L510.774 194.622C510.19 192.4 507.913 191.072 505.69 191.656C503.466 192.24 502.137 194.515 502.722 196.737L544.353 354.981Z" fill="#969696"/>
<path d="M502.308 196.744C502.893 194.522 501.564 192.247 499.34 191.663C497.117 191.078 494.84 192.406 494.255 194.628L452.624 352.872C452.04 355.094 453.368 357.369 455.592 357.954C457.816 358.538 460.093 357.21 460.677 354.988L502.308 196.744Z" fill="#969696"/>
<path d="M444.862 196.743C445.446 194.521 444.118 192.246 441.894 191.662C439.67 191.077 437.394 192.405 436.809 194.627L395.178 352.871C394.593 355.093 395.922 357.368 398.146 357.953C400.37 358.537 402.646 357.209 403.231 354.987L444.862 196.743Z" fill="#D8D8D8"/>
<path d="M486.183 352.06C486.758 354.289 489.032 355.63 491.262 355.056C493.492 354.482 494.834 352.209 494.259 349.98L453.327 191.268C452.752 189.039 450.478 187.698 448.247 188.272C446.017 188.847 444.675 191.119 445.25 193.348L486.183 352.06Z" fill="#D8D8D8"/>
<path d="M210.339 196.747C210.924 194.525 209.595 192.25 207.371 191.666C205.147 191.082 202.871 192.409 202.286 194.632L160.655 352.875C160.07 355.098 161.399 357.373 163.623 357.957C165.847 358.541 168.123 357.213 168.708 354.991L210.339 196.747Z" fill="#969696"/>
<path d="M251.676 354.991C252.261 357.214 254.537 358.541 256.761 357.957C258.985 357.373 260.314 355.098 259.729 352.876L218.098 194.632C217.513 192.41 215.237 191.082 213.013 191.666C210.789 192.25 209.461 194.525 210.045 196.748L251.676 354.991Z" fill="#969696"/>
<path d="M527.937 183.846H125.301C123.267 183.846 121.617 185.494 121.617 187.527V192.476C121.617 194.509 123.267 196.157 125.301 196.157H527.937C529.972 196.157 531.621 194.509 531.621 192.476V187.527C531.621 185.494 529.972 183.846 527.937 183.846Z" fill="#D8D8D8"/>
<path d="M150.838 196.75C151.423 194.527 150.094 192.252 147.871 191.668C145.647 191.084 143.37 192.412 142.786 194.634L101.155 352.878C100.57 355.1 101.899 357.375 104.122 357.959C106.346 358.544 108.623 357.216 109.207 354.993L150.838 196.75Z" fill="#D8D8D8"/>
<path d="M192.175 354.992C192.76 357.214 195.037 358.542 197.26 357.958C199.484 357.373 200.813 355.098 200.228 352.876L158.597 194.632C158.012 192.41 155.736 191.082 153.512 191.666C151.288 192.251 149.96 194.526 150.544 196.748L192.175 354.992Z" fill="#D8D8D8"/>
<path d="M423.052 183.846H347.829L361.457 137.009C361.798 135.879 362.495 134.889 363.445 134.188C364.394 133.486 365.546 133.111 366.726 133.117H430.557C431.395 133.103 432.225 133.286 432.981 133.65C433.736 134.013 434.396 134.548 434.908 135.212C435.42 135.876 435.769 136.65 435.929 137.473C436.088 138.295 436.053 139.144 435.826 139.951L423.052 183.846Z" fill="black"/>
<path d="M394.674 163.077C397.215 163.077 399.276 161.018 399.276 158.478C399.276 155.938 397.215 153.878 394.674 153.878C392.132 153.878 390.071 155.938 390.071 158.478C390.071 161.018 392.132 163.077 394.674 163.077Z" fill="white"/>
<path d="M356.766 180.555H303.986V183.846H356.766V180.555Z" fill="black"/>
</svg>
