<svg width="425" height="760" viewBox="0 0 425 760" fill="none" xmlns="http://www.w3.org/2000/svg">
<path d="M199 235H225C225.173 235 225.343 235.045 225.494 235.131C225.645 235.216 225.77 235.339 225.859 235.488C225.948 235.637 225.996 235.806 226 235.98C226.003 236.153 225.962 236.324 225.879 236.476L212.879 260.476C212.794 260.635 212.667 260.767 212.512 260.859C212.357 260.951 212.18 261 212 261C211.82 261 211.643 260.951 211.488 260.859C211.333 260.767 211.206 260.635 211.121 260.476L198.121 236.476C198.038 236.324 197.997 236.153 198 235.98C198.004 235.806 198.052 235.637 198.141 235.488C198.229 235.339 198.355 235.216 198.506 235.131C198.656 235.045 198.827 235 199 235Z" fill="#49474A" fill-opacity="0.75"/>
<path d="M199 499H225C225.173 499 225.343 499.045 225.494 499.131C225.645 499.216 225.77 499.34 225.859 499.488C225.948 499.637 225.996 499.806 226 499.98C226.003 500.153 225.962 500.324 225.879 500.476L212.879 524.476C212.794 524.635 212.667 524.767 212.512 524.859C212.357 524.952 212.18 525 212 525C211.82 525 211.643 524.952 211.488 524.859C211.333 524.767 211.206 524.635 211.121 524.476L198.121 500.476C198.038 500.324 197.997 500.153 198 499.98C198.004 499.806 198.052 499.637 198.141 499.488C198.229 499.34 198.355 499.216 198.506 499.131C198.656 499.045 198.827 499 199 499Z" fill="#49474A" fill-opacity="0.75"/>
<circle cx="243" cy="37" r="13" fill="#57A3B3"/>
<path d="M173.384 43.16C172.381 43.16 171.603 42.92 171.048 42.44C170.504 41.9493 170.232 41.2187 170.232 40.248V39.272C170.232 38.7387 170.307 38.3173 170.456 38.008C170.605 37.6987 170.765 37.432 170.936 37.208C171.117 36.9627 171.272 36.7493 171.4 36.568C171.539 36.3867 171.608 36.168 171.608 35.912C171.608 35.688 171.549 35.528 171.432 35.432C171.325 35.336 171.187 35.288 171.016 35.288C170.888 35.288 170.749 35.3093 170.6 35.352C170.461 35.3947 170.323 35.448 170.184 35.512L169.864 34.488C170.056 34.36 170.291 34.2693 170.568 34.216C170.856 34.1627 171.107 34.136 171.32 34.136C171.917 34.136 172.339 34.2907 172.584 34.6C172.829 34.8987 172.952 35.2827 172.952 35.752C172.952 36.1467 172.883 36.472 172.744 36.728C172.616 36.984 172.461 37.2347 172.28 37.48C172.099 37.7467 171.949 38.0027 171.832 38.248C171.715 38.4933 171.656 38.8133 171.656 39.208V40.152C171.656 40.6427 171.736 41.0213 171.896 41.288C172.056 41.5547 172.269 41.7413 172.536 41.848C172.803 41.944 173.085 41.992 173.384 41.992C174.483 41.992 175.032 41.48 175.032 40.456V34.232H176.456V40.536C176.456 41.3573 176.195 42.0027 175.672 42.472C175.16 42.9307 174.397 43.16 173.384 43.16ZM174.163 32.84C173.491 32.84 173.017 32.7067 172.739 32.44C172.462 32.1627 172.323 31.8533 172.323 31.512C172.323 31.352 172.35 31.1813 172.403 31C172.446 30.808 172.505 30.6533 172.579 30.536L173.779 30.744C173.715 30.872 173.683 31.0373 173.683 31.24C173.683 31.3787 173.726 31.5013 173.811 31.608C173.897 31.704 174.041 31.752 174.243 31.752H178.291V32.84H174.163ZM173.736 28.464V27.904C173.949 27.8507 174.178 27.7653 174.424 27.648C174.658 27.5307 174.776 27.3547 174.776 27.12C174.776 26.8747 174.653 26.752 174.408 26.752C174.237 26.752 174.061 26.8053 173.88 26.912L173.592 26.176C173.784 26.048 174.002 25.9627 174.248 25.92C174.482 25.8773 174.669 25.856 174.808 25.856C175.085 25.856 175.336 25.9307 175.56 26.08C175.784 26.2187 175.896 26.4587 175.896 26.8C175.896 26.8853 175.885 26.9813 175.864 27.088C175.842 27.1947 175.805 27.296 175.752 27.392H177.768V28.464H173.736ZM181.35 43.16C180.411 43.16 179.67 42.9147 179.126 42.424C178.593 41.9333 178.326 41.1547 178.326 40.088V34.232H179.75V40.008C179.75 41.3093 180.385 41.96 181.654 41.96C182.401 41.96 182.977 41.72 183.382 41.24C183.798 40.76 184.006 40.1147 184.006 39.304V34.232H185.43V43H184.246L184.182 41.704H184.102C183.91 42.1307 183.574 42.4827 183.094 42.76C182.625 43.0267 182.043 43.16 181.35 43.16ZM191.003 43.16C190.107 43.16 189.413 42.9573 188.923 42.552C188.432 42.136 188.091 41.576 187.899 40.872C187.707 40.1573 187.611 39.3467 187.611 38.44C187.611 36.8827 187.829 35.768 188.267 35.096C188.715 34.4133 189.355 34.072 190.187 34.072C190.56 34.072 190.875 34.136 191.131 34.264C191.397 34.392 191.584 34.6053 191.691 34.904H191.755C191.861 34.5947 192.053 34.3813 192.331 34.264C192.608 34.136 192.933 34.072 193.307 34.072C194 34.072 194.533 34.2587 194.907 34.632C195.291 34.9947 195.483 35.5547 195.483 36.312V43H194.059V36.328C194.059 35.912 193.968 35.6293 193.787 35.48C193.605 35.3307 193.376 35.256 193.099 35.256C192.789 35.256 192.56 35.3307 192.411 35.48C192.272 35.6293 192.187 35.8747 192.155 36.216H191.259C191.216 35.8427 191.104 35.592 190.923 35.464C190.741 35.3253 190.539 35.256 190.315 35.256C189.888 35.256 189.568 35.5067 189.355 36.008C189.141 36.4987 189.035 37.3147 189.035 38.456C189.035 39.192 189.088 39.8213 189.195 40.344C189.312 40.8667 189.525 41.272 189.835 41.56C190.144 41.8373 190.592 41.976 191.179 41.976C191.392 41.976 191.568 41.9653 191.707 41.944C191.845 41.9227 191.979 41.896 192.107 41.864L192.251 42.952C192.091 43.0267 191.899 43.08 191.675 43.112C191.451 43.144 191.227 43.16 191.003 43.16ZM200.934 43.16C199.782 43.16 198.918 42.8613 198.342 42.264C197.777 41.656 197.494 40.7067 197.494 39.416C197.494 39.2027 197.5 38.9733 197.51 38.728C197.532 38.472 197.553 38.2213 197.574 37.976H200.934V39.096H198.918V39.416C198.918 40.088 198.993 40.616 199.142 41C199.292 41.3733 199.51 41.6347 199.798 41.784C200.097 41.9333 200.465 42.008 200.902 42.008C201.382 42.008 201.798 41.9173 202.15 41.736C202.502 41.5547 202.774 41.224 202.966 40.744C203.158 40.264 203.254 39.576 203.254 38.68C203.254 37.5067 203.052 36.6427 202.646 36.088C202.252 35.5333 201.564 35.256 200.582 35.256C200.07 35.256 199.58 35.3253 199.11 35.464C198.652 35.592 198.209 35.7787 197.782 36.024V34.696C198.102 34.5253 198.524 34.3813 199.046 34.264C199.569 34.136 200.14 34.072 200.758 34.072C201.697 34.072 202.454 34.264 203.03 34.648C203.617 35.0213 204.044 35.5547 204.31 36.248C204.577 36.9307 204.71 37.7413 204.71 38.68C204.71 39.6187 204.588 40.424 204.342 41.096C204.097 41.768 203.697 42.28 203.142 42.632C202.598 42.984 201.862 43.16 200.934 43.16ZM209.802 43.16C208.863 43.16 208.122 42.9147 207.578 42.424C207.045 41.9333 206.778 41.1547 206.778 40.088V34.232H208.202V40.008C208.202 41.3093 208.837 41.96 210.106 41.96C210.853 41.96 211.429 41.72 211.834 41.24C212.25 40.76 212.458 40.1147 212.458 39.304V34.232H213.882V43H212.698L212.634 41.704H212.554C212.362 42.1307 212.026 42.4827 211.546 42.76C211.077 43.0267 210.495 43.16 209.802 43.16ZM216.398 43V34.232H217.39L217.646 35.624H217.71C217.892 35.144 218.222 34.7653 218.702 34.488C219.182 34.2107 219.764 34.072 220.446 34.072C221.396 34.072 222.142 34.3173 222.686 34.808C223.23 35.2987 223.502 36.0773 223.502 37.144V43H222.078V37.224C222.078 35.9227 221.444 35.272 220.174 35.272C219.673 35.272 219.246 35.3893 218.894 35.624C218.542 35.8587 218.276 36.1787 218.094 36.584C217.913 36.9787 217.822 37.4267 217.822 37.928V43H216.398ZM216.294 32.84V32.216L217.462 31.704H221.766V30.408H223.11V32.216H223.094V32.84H216.294ZM221.51 29.464V26.856H222.87V29.464H221.51Z" fill="#49474A"/>
<path d="M244.552 31.8V43H242.968V33.192H240.44V31.8H244.552Z" fill="white"/>
<rect x="108" y="194" width="209" height="14" fill="#49474A"/>
<rect x="123" y="66" width="179" height="120" rx="14" fill="#49474A"/>
<rect x="137" y="80" width="151" height="92" fill="white"/>
<path d="M149.662 116V112.58C149.662 111.824 149.83 111.278 150.166 110.942C150.502 110.594 150.928 110.354 151.444 110.222L151.462 110.168L149.482 109.412V108.818C149.482 108.326 149.644 107.864 149.968 107.432C150.292 106.988 150.754 106.634 151.354 106.37C151.966 106.094 152.692 105.956 153.532 105.956C154.264 105.956 154.942 106.076 155.566 106.316C156.19 106.544 156.688 106.91 157.06 107.414C157.444 107.906 157.636 108.554 157.636 109.358V116H156.034V109.52C156.034 108.716 155.788 108.146 155.296 107.81C154.816 107.462 154.222 107.288 153.514 107.288C152.782 107.288 152.2 107.444 151.768 107.756C151.336 108.056 151.12 108.44 151.12 108.908L153.064 109.88L152.92 110.744C152.476 110.744 152.086 110.894 151.75 111.194C151.426 111.482 151.264 111.944 151.264 112.58V116H149.662ZM163.047 116.18C162.339 116.18 161.679 116.114 161.067 115.982C160.467 115.838 159.957 115.67 159.537 115.478L160.005 114.182C160.389 114.338 160.845 114.488 161.373 114.632C161.913 114.776 162.483 114.848 163.083 114.848C163.719 114.848 164.247 114.728 164.667 114.488C165.087 114.248 165.297 113.9 165.297 113.444C165.297 113.036 165.129 112.7 164.793 112.436C164.457 112.172 163.917 111.926 163.173 111.698C162.417 111.458 161.775 111.206 161.247 110.942C160.731 110.666 160.335 110.342 160.059 109.97C159.795 109.586 159.663 109.112 159.663 108.548C159.663 107.804 159.969 107.186 160.581 106.694C161.193 106.202 162.171 105.956 163.515 105.956C164.091 105.956 164.631 106.01 165.135 106.118C165.651 106.214 166.053 106.352 166.341 106.532V107.882C166.041 107.738 165.627 107.6 165.099 107.468C164.571 107.336 164.025 107.27 163.461 107.27C162.657 107.27 162.087 107.396 161.751 107.648C161.427 107.888 161.265 108.164 161.265 108.476C161.265 108.74 161.337 108.962 161.481 109.142C161.637 109.322 161.895 109.496 162.255 109.664C162.627 109.832 163.125 110.024 163.749 110.24C164.325 110.432 164.853 110.654 165.333 110.906C165.813 111.158 166.191 111.476 166.467 111.86C166.755 112.232 166.899 112.712 166.899 113.3C166.899 113.804 166.773 114.278 166.521 114.722C166.281 115.154 165.879 115.508 165.315 115.784C164.751 116.048 163.995 116.18 163.047 116.18ZM172.286 116.18C170.99 116.18 170.018 115.844 169.37 115.172C168.734 114.488 168.416 113.42 168.416 111.968C168.416 111.728 168.422 111.47 168.434 111.194C168.458 110.906 168.482 110.624 168.506 110.348H172.286V111.608H170.018V111.968C170.018 112.724 170.102 113.318 170.27 113.75C170.438 114.17 170.684 114.464 171.008 114.632C171.344 114.8 171.758 114.884 172.25 114.884C172.79 114.884 173.258 114.782 173.654 114.578C174.05 114.374 174.356 114.002 174.572 113.462C174.788 112.922 174.896 112.148 174.896 111.14C174.896 109.82 174.668 108.848 174.212 108.224C173.768 107.6 172.994 107.288 171.89 107.288C171.314 107.288 170.762 107.366 170.234 107.522C169.718 107.666 169.22 107.876 168.74 108.152V106.658C169.1 106.466 169.574 106.304 170.162 106.172C170.75 106.028 171.392 105.956 172.088 105.956C173.144 105.956 173.996 106.172 174.644 106.604C175.304 107.024 175.784 107.624 176.084 108.404C176.384 109.172 176.534 110.084 176.534 111.14C176.534 112.196 176.396 113.102 176.12 113.858C175.844 114.614 175.394 115.19 174.77 115.586C174.158 115.982 173.33 116.18 172.286 116.18ZM178.77 116V112.58C178.77 111.824 178.938 111.278 179.274 110.942C179.61 110.594 180.036 110.354 180.552 110.222L180.57 110.168L178.59 109.412V108.818C178.59 108.326 178.752 107.864 179.076 107.432C179.4 106.988 179.862 106.634 180.462 106.37C181.074 106.094 181.8 105.956 182.64 105.956C183.372 105.956 184.05 106.076 184.674 106.316C185.298 106.544 185.796 106.91 186.168 107.414C186.552 107.906 186.744 108.554 186.744 109.358V116H185.142V109.52C185.142 108.716 184.896 108.146 184.404 107.81C183.924 107.462 183.33 107.288 182.622 107.288C181.89 107.288 181.308 107.444 180.876 107.756C180.444 108.056 180.228 108.44 180.228 108.908L182.172 109.88L182.028 110.744C181.584 110.744 181.194 110.894 180.858 111.194C180.534 111.482 180.372 111.944 180.372 112.58V116H178.77ZM192.857 116.18C191.729 116.18 190.853 115.91 190.229 115.37C189.617 114.818 189.311 113.996 189.311 112.904V111.806C189.311 111.206 189.395 110.732 189.563 110.384C189.731 110.036 189.911 109.736 190.103 109.484C190.307 109.208 190.481 108.968 190.625 108.764C190.781 108.56 190.859 108.314 190.859 108.026C190.859 107.774 190.793 107.594 190.661 107.486C190.541 107.378 190.385 107.324 190.193 107.324C190.049 107.324 189.893 107.348 189.725 107.396C189.569 107.444 189.413 107.504 189.257 107.576L188.897 106.424C189.113 106.28 189.377 106.178 189.689 106.118C190.013 106.058 190.295 106.028 190.535 106.028C191.207 106.028 191.681 106.202 191.957 106.55C192.233 106.886 192.371 107.318 192.371 107.846C192.371 108.29 192.293 108.656 192.137 108.944C191.993 109.232 191.819 109.514 191.615 109.79C191.411 110.09 191.243 110.378 191.111 110.654C190.979 110.93 190.913 111.29 190.913 111.734V112.796C190.913 113.348 191.003 113.774 191.183 114.074C191.363 114.374 191.603 114.584 191.903 114.704C192.203 114.812 192.521 114.866 192.857 114.866C194.093 114.866 194.711 114.29 194.711 113.138V106.136H196.313V113.228C196.313 114.152 196.019 114.878 195.431 115.406C194.855 115.922 193.997 116.18 192.857 116.18ZM190.998 104.57V103.778C191.238 103.73 191.484 103.664 191.736 103.58C191.988 103.484 192.198 103.364 192.366 103.22C192.534 103.064 192.618 102.878 192.618 102.662C192.618 102.518 192.576 102.398 192.492 102.302C192.396 102.194 192.252 102.14 192.06 102.14C191.94 102.14 191.82 102.164 191.7 102.212C191.568 102.26 191.454 102.302 191.358 102.338L190.998 101.348C191.238 101.156 191.508 101.03 191.808 100.97C192.096 100.91 192.33 100.88 192.51 100.88C192.99 100.88 193.368 101.012 193.644 101.276C193.908 101.54 194.04 101.876 194.04 102.284C194.04 102.488 194.004 102.68 193.932 102.86C193.86 103.028 193.77 103.178 193.662 103.31H196.578V104.57H190.998ZM202.178 116.18C200.882 116.18 199.91 115.844 199.262 115.172C198.626 114.488 198.308 113.42 198.308 111.968C198.308 111.728 198.314 111.47 198.326 111.194C198.35 110.906 198.374 110.624 198.398 110.348H202.178V111.608H199.91V111.968C199.91 112.724 199.994 113.318 200.162 113.75C200.33 114.17 200.576 114.464 200.9 114.632C201.236 114.8 201.65 114.884 202.142 114.884C202.682 114.884 203.15 114.782 203.546 114.578C203.942 114.374 204.248 114.002 204.464 113.462C204.68 112.922 204.788 112.148 204.788 111.14C204.788 109.82 204.56 108.848 204.104 108.224C203.66 107.6 202.886 107.288 201.782 107.288C201.206 107.288 200.654 107.366 200.126 107.522C199.61 107.666 199.112 107.876 198.632 108.152V106.658C198.992 106.466 199.466 106.304 200.054 106.172C200.642 106.028 201.284 105.956 201.98 105.956C203.036 105.956 203.888 106.172 204.536 106.604C205.196 107.024 205.676 107.624 205.976 108.404C206.276 109.172 206.426 110.084 206.426 111.14C206.426 112.196 206.288 113.102 206.012 113.858C205.736 114.614 205.286 115.19 204.662 115.586C204.05 115.982 203.222 116.18 202.178 116.18ZM213.504 116.18C212.736 116.18 212.07 116.03 211.506 115.73C210.954 115.418 210.576 114.986 210.372 114.434H210.3L210.21 116H208.896V106.136H210.498V111.842C210.498 112.754 210.732 113.48 211.2 114.02C211.668 114.56 212.328 114.83 213.18 114.83C214.584 114.83 215.286 114.098 215.286 112.634V106.136H216.888V112.742C216.888 113.93 216.588 114.8 215.988 115.352C215.4 115.904 214.572 116.18 213.504 116.18ZM213.875 120.77C213.107 120.77 212.525 120.614 212.129 120.302C211.721 120.002 211.517 119.57 211.517 119.006V118.7C211.517 118.496 211.469 118.37 211.373 118.322C211.265 118.286 211.121 118.292 210.941 118.34L210.833 117.26C211.001 117.212 211.169 117.182 211.337 117.17C211.493 117.158 211.613 117.152 211.697 117.152C212.129 117.152 212.441 117.248 212.633 117.44C212.813 117.632 212.903 117.902 212.903 118.25V118.862C212.903 119.09 212.975 119.282 213.119 119.438C213.263 119.594 213.509 119.672 213.857 119.672C214.217 119.672 214.469 119.594 214.613 119.438C214.745 119.282 214.811 119.09 214.811 118.862V117.206H216.215V118.952C216.215 120.164 215.435 120.77 213.875 120.77ZM221.951 116.18C220.895 116.18 220.085 115.94 219.521 115.46C218.969 114.968 218.693 114.266 218.693 113.354C218.693 112.358 219.053 111.59 219.773 111.05C220.505 110.51 221.687 110.192 223.319 110.096L225.047 109.988V109.43C225.047 108.65 224.867 108.098 224.507 107.774C224.159 107.438 223.571 107.27 222.743 107.27C222.143 107.27 221.567 107.354 221.015 107.522C220.475 107.678 219.959 107.9 219.467 108.188V106.694C219.815 106.514 220.283 106.346 220.871 106.19C221.471 106.034 222.143 105.956 222.887 105.956C224.147 105.956 225.083 106.232 225.695 106.784C226.319 107.324 226.631 108.176 226.631 109.34V116H225.047V111.32L223.535 111.428C222.311 111.512 221.465 111.704 220.997 112.004C220.541 112.304 220.313 112.742 220.313 113.318C220.313 113.858 220.481 114.254 220.817 114.506C221.165 114.758 221.645 114.884 222.257 114.884C222.653 114.884 223.001 114.83 223.301 114.722L223.553 115.928C223.325 116.012 223.073 116.072 222.797 116.108C222.533 116.156 222.251 116.18 221.951 116.18ZM231.964 116.18C230.908 116.18 230.098 115.94 229.534 115.46C228.982 114.968 228.706 114.266 228.706 113.354C228.706 112.358 229.066 111.59 229.786 111.05C230.518 110.51 231.7 110.192 233.332 110.096L235.06 109.988V109.43C235.06 108.65 234.88 108.098 234.52 107.774C234.172 107.438 233.584 107.27 232.756 107.27C232.156 107.27 231.58 107.354 231.028 107.522C230.488 107.678 229.972 107.9 229.48 108.188V106.694C229.828 106.514 230.296 106.346 230.884 106.19C231.484 106.034 232.156 105.956 232.9 105.956C233.38 105.956 233.806 105.998 234.178 106.082C234.562 106.166 234.88 106.31 235.132 106.514C235.336 106.418 235.51 106.286 235.654 106.118C235.798 105.95 235.87 105.74 235.87 105.488H237.436C237.436 105.944 237.304 106.328 237.04 106.64C236.788 106.952 236.464 107.192 236.068 107.36C236.272 107.576 236.416 107.852 236.5 108.188C236.596 108.524 236.644 108.908 236.644 109.34V116H235.06V111.32L233.548 111.428C232.324 111.512 231.478 111.704 231.01 112.004C230.554 112.304 230.326 112.742 230.326 113.318C230.326 113.858 230.494 114.254 230.83 114.506C231.178 114.758 231.658 114.884 232.27 114.884C232.666 114.884 233.014 114.83 233.314 114.722L233.566 115.928C233.338 116.012 233.086 116.072 232.81 116.108C232.546 116.156 232.264 116.18 231.964 116.18ZM234.774 104.57V100.772H236.358V104.57H234.774ZM241.023 116.18C240.555 116.18 240.099 116.132 239.655 116.036C239.223 115.94 238.761 115.76 238.269 115.496L238.773 114.272C239.037 114.428 239.337 114.566 239.673 114.686C240.009 114.794 240.399 114.848 240.843 114.848C241.731 114.848 242.421 114.524 242.913 113.876C243.417 113.216 243.669 112.268 243.669 111.032C243.669 109.82 243.411 108.896 242.895 108.26C242.391 107.612 241.611 107.288 240.555 107.288C240.171 107.288 239.781 107.33 239.385 107.414C238.989 107.498 238.641 107.624 238.341 107.792V106.442C238.689 106.262 239.067 106.136 239.475 106.064C239.895 105.992 240.315 105.956 240.735 105.956C241.815 105.956 242.691 106.172 243.363 106.604C244.035 107.024 244.527 107.612 244.839 108.368C245.151 109.124 245.307 110.012 245.307 111.032C245.307 112.616 244.947 113.87 244.227 114.794C243.519 115.718 242.451 116.18 241.023 116.18ZM251.034 116.18C249.978 116.18 249.144 115.904 248.532 115.352C247.932 114.8 247.632 113.924 247.632 112.724V106.136H249.234V112.634C249.234 114.098 249.948 114.83 251.376 114.83C252.216 114.83 252.864 114.56 253.32 114.02C253.788 113.48 254.022 112.754 254.022 111.842V106.136H255.624V116H254.292L254.22 114.542H254.13C253.914 115.022 253.536 115.418 252.996 115.73C252.468 116.03 251.814 116.18 251.034 116.18ZM261.893 116.18C260.885 116.18 260.105 115.952 259.553 115.496C259.001 115.028 258.617 114.398 258.401 113.606C258.185 112.802 258.077 111.89 258.077 110.87C258.077 109.118 258.323 107.864 258.815 107.108C259.319 106.34 260.039 105.956 260.975 105.956C261.395 105.956 261.749 106.028 262.037 106.172C262.337 106.316 262.547 106.556 262.667 106.892H262.739C262.859 106.544 263.075 106.304 263.387 106.172C263.699 106.028 264.065 105.956 264.485 105.956C265.265 105.956 265.865 106.166 266.285 106.586C266.717 106.994 266.933 107.624 266.933 108.476V116H265.331V108.494C265.331 108.026 265.229 107.708 265.025 107.54C264.821 107.372 264.563 107.288 264.251 107.288C263.903 107.288 263.645 107.372 263.477 107.54C263.321 107.708 263.225 107.984 263.189 108.368H262.181C262.133 107.948 262.007 107.666 261.803 107.522C261.599 107.366 261.371 107.288 261.119 107.288C260.639 107.288 260.279 107.57 260.039 108.134C259.799 108.686 259.679 109.604 259.679 110.888C259.679 111.716 259.739 112.424 259.859 113.012C259.991 113.6 260.231 114.056 260.579 114.38C260.927 114.692 261.431 114.848 262.091 114.848C262.331 114.848 262.529 114.836 262.685 114.812C262.841 114.788 262.991 114.758 263.135 114.722L263.297 115.946C263.117 116.03 262.901 116.09 262.649 116.126C262.397 116.162 262.145 116.18 261.893 116.18ZM264.159 104.57C263.403 104.57 262.869 104.42 262.557 104.12C262.245 103.808 262.089 103.46 262.089 103.076C262.089 102.896 262.119 102.704 262.179 102.5C262.227 102.284 262.293 102.11 262.377 101.978L263.727 102.212C263.655 102.356 263.619 102.542 263.619 102.77C263.619 102.926 263.667 103.064 263.763 103.184C263.859 103.292 264.021 103.346 264.249 103.346H268.803V104.57H264.159ZM271.285 116.18C270.817 116.18 270.361 116.132 269.917 116.036C269.485 115.94 269.023 115.76 268.531 115.496L269.035 114.272C269.299 114.428 269.599 114.566 269.935 114.686C270.271 114.794 270.661 114.848 271.105 114.848C271.993 114.848 272.683 114.524 273.175 113.876C273.679 113.216 273.931 112.268 273.931 111.032C273.931 109.82 273.673 108.896 273.157 108.26C272.653 107.612 271.873 107.288 270.817 107.288C270.433 107.288 270.043 107.33 269.647 107.414C269.251 107.498 268.903 107.624 268.603 107.792V106.442C268.951 106.262 269.329 106.136 269.737 106.064C270.157 105.992 270.577 105.956 270.997 105.956C272.077 105.956 272.953 106.172 273.625 106.604C274.297 107.024 274.789 107.612 275.101 108.368C275.413 109.124 275.569 110.012 275.569 111.032C275.569 112.616 275.209 113.87 274.489 114.794C273.781 115.718 272.713 116.18 271.285 116.18ZM162.524 148.18C162.2 148.18 161.888 148.126 161.588 148.018C161.288 147.91 161.042 147.718 160.85 147.442C160.658 147.166 160.562 146.782 160.562 146.29V138.136H162.164V146.092C162.164 146.368 162.224 146.566 162.344 146.686C162.464 146.806 162.656 146.866 162.92 146.866C163.028 146.866 163.142 146.854 163.262 146.83C163.382 146.806 163.496 146.776 163.604 146.74L163.82 147.91C163.592 148.018 163.37 148.09 163.154 148.126C162.938 148.162 162.728 148.18 162.524 148.18ZM167.438 148.18C167.114 148.18 166.802 148.126 166.502 148.018C166.202 147.91 165.956 147.718 165.764 147.442C165.572 147.166 165.476 146.782 165.476 146.29V138.136H167.078V146.092C167.078 146.368 167.138 146.566 167.258 146.686C167.378 146.806 167.57 146.866 167.834 146.866C167.942 146.866 168.056 146.854 168.176 146.83C168.296 146.806 168.41 146.776 168.518 146.74L168.734 147.91C168.506 148.018 168.284 148.09 168.068 148.126C167.852 148.162 167.642 148.18 167.438 148.18ZM172.759 148.18C171.703 148.18 170.893 147.94 170.329 147.46C169.777 146.968 169.501 146.266 169.501 145.354C169.501 144.358 169.861 143.59 170.581 143.05C171.313 142.51 172.495 142.192 174.127 142.096L175.855 141.988V141.43C175.855 140.65 175.675 140.098 175.315 139.774C174.967 139.438 174.379 139.27 173.551 139.27C172.951 139.27 172.375 139.354 171.823 139.522C171.283 139.678 170.767 139.9 170.275 140.188V138.694C170.623 138.514 171.091 138.346 171.679 138.19C172.279 138.034 172.951 137.956 173.695 137.956C174.955 137.956 175.891 138.232 176.503 138.784C177.127 139.324 177.439 140.176 177.439 141.34V148H175.855V143.32L174.343 143.428C173.119 143.512 172.273 143.704 171.805 144.004C171.349 144.304 171.121 144.742 171.121 145.318C171.121 145.858 171.289 146.254 171.625 146.506C171.973 146.758 172.453 146.884 173.065 146.884C173.461 146.884 173.809 146.83 174.109 146.722L174.361 147.928C174.133 148.012 173.881 148.072 173.605 148.108C173.341 148.156 173.059 148.18 172.759 148.18ZM181.386 141.808C180.642 141.808 180.114 141.652 179.802 141.34C179.49 141.016 179.334 140.656 179.334 140.26C179.334 139.852 179.43 139.504 179.622 139.216L180.972 139.432C180.948 139.492 180.918 139.576 180.882 139.684C180.858 139.792 180.846 139.9 180.846 140.008C180.846 140.164 180.888 140.296 180.972 140.404C181.056 140.5 181.212 140.548 181.44 140.548H184.014V141.808H181.386ZM181.386 146.848C180.642 146.848 180.114 146.692 179.802 146.38C179.49 146.056 179.334 145.696 179.334 145.3C179.334 144.892 179.43 144.544 179.622 144.256L180.972 144.472C180.948 144.532 180.918 144.616 180.882 144.724C180.858 144.832 180.846 144.94 180.846 145.048C180.846 145.204 180.888 145.336 180.972 145.444C181.056 145.54 181.212 145.588 181.44 145.588H184.014V146.848H181.386ZM189.376 148.18C188.248 148.18 187.372 147.91 186.748 147.37C186.136 146.818 185.83 145.996 185.83 144.904V143.806C185.83 143.206 185.914 142.732 186.082 142.384C186.25 142.036 186.43 141.736 186.622 141.484C186.826 141.208 187 140.968 187.144 140.764C187.3 140.56 187.378 140.314 187.378 140.026C187.378 139.774 187.312 139.594 187.18 139.486C187.06 139.378 186.904 139.324 186.712 139.324C186.568 139.324 186.412 139.348 186.244 139.396C186.088 139.444 185.932 139.504 185.776 139.576L185.416 138.424C185.632 138.28 185.896 138.178 186.208 138.118C186.532 138.058 186.814 138.028 187.054 138.028C187.726 138.028 188.2 138.202 188.476 138.55C188.752 138.886 188.89 139.318 188.89 139.846C188.89 140.29 188.812 140.656 188.656 140.944C188.512 141.232 188.338 141.514 188.134 141.79C187.93 142.09 187.762 142.378 187.63 142.654C187.498 142.93 187.432 143.29 187.432 143.734V144.796C187.432 145.348 187.522 145.774 187.702 146.074C187.882 146.374 188.122 146.584 188.422 146.704C188.722 146.812 189.04 146.866 189.376 146.866C190.612 146.866 191.23 146.29 191.23 145.138V138.136H192.832V145.228C192.832 146.152 192.538 146.878 191.95 147.406C191.374 147.922 190.516 148.18 189.376 148.18ZM187.517 136.57V135.778C187.757 135.73 188.003 135.664 188.255 135.58C188.507 135.484 188.717 135.364 188.885 135.22C189.053 135.064 189.137 134.878 189.137 134.662C189.137 134.518 189.095 134.398 189.011 134.302C188.915 134.194 188.771 134.14 188.579 134.14C188.459 134.14 188.339 134.164 188.219 134.212C188.087 134.26 187.973 134.302 187.877 134.338L187.517 133.348C187.757 133.156 188.027 133.03 188.327 132.97C188.615 132.91 188.849 132.88 189.029 132.88C189.509 132.88 189.887 133.012 190.163 133.276C190.427 133.54 190.559 133.876 190.559 134.284C190.559 134.488 190.523 134.68 190.451 134.86C190.379 135.028 190.289 135.178 190.181 135.31H193.097V136.57H187.517ZM198.698 148.18C197.402 148.18 196.43 147.844 195.782 147.172C195.146 146.488 194.828 145.42 194.828 143.968C194.828 143.728 194.834 143.47 194.846 143.194C194.87 142.906 194.894 142.624 194.918 142.348H198.698V143.608H196.43V143.968C196.43 144.724 196.514 145.318 196.682 145.75C196.85 146.17 197.096 146.464 197.42 146.632C197.756 146.8 198.17 146.884 198.662 146.884C199.202 146.884 199.67 146.782 200.066 146.578C200.462 146.374 200.768 146.002 200.984 145.462C201.2 144.922 201.308 144.148 201.308 143.14C201.308 141.82 201.08 140.848 200.624 140.224C200.18 139.6 199.406 139.288 198.302 139.288C197.726 139.288 197.174 139.366 196.646 139.522C196.13 139.666 195.632 139.876 195.152 140.152V138.658C195.512 138.466 195.986 138.304 196.574 138.172C197.162 138.028 197.804 137.956 198.5 137.956C199.556 137.956 200.408 138.172 201.056 138.604C201.716 139.024 202.196 139.624 202.496 140.404C202.796 141.172 202.946 142.084 202.946 143.14C202.946 144.196 202.808 145.102 202.532 145.858C202.256 146.614 201.806 147.19 201.182 147.586C200.57 147.982 199.742 148.18 198.698 148.18ZM210.024 148.18C209.256 148.18 208.59 148.03 208.026 147.73C207.474 147.418 207.096 146.986 206.892 146.434H206.82L206.73 148H205.416V138.136H207.018V143.842C207.018 144.754 207.252 145.48 207.72 146.02C208.188 146.56 208.848 146.83 209.7 146.83C211.104 146.83 211.806 146.098 211.806 144.634V138.136H213.408V144.742C213.408 145.93 213.108 146.8 212.508 147.352C211.92 147.904 211.092 148.18 210.024 148.18ZM210.395 152.77C209.627 152.77 209.045 152.614 208.649 152.302C208.241 152.002 208.037 151.57 208.037 151.006V150.7C208.037 150.496 207.989 150.37 207.893 150.322C207.785 150.286 207.641 150.292 207.461 150.34L207.353 149.26C207.521 149.212 207.689 149.182 207.857 149.17C208.013 149.158 208.133 149.152 208.217 149.152C208.649 149.152 208.961 149.248 209.153 149.44C209.333 149.632 209.423 149.902 209.423 150.25V150.862C209.423 151.09 209.495 151.282 209.639 151.438C209.783 151.594 210.029 151.672 210.377 151.672C210.737 151.672 210.989 151.594 211.133 151.438C211.265 151.282 211.331 151.09 211.331 150.862V149.206H212.735V150.952C212.735 152.164 211.955 152.77 210.395 152.77ZM218.471 148.18C217.415 148.18 216.605 147.94 216.041 147.46C215.489 146.968 215.213 146.266 215.213 145.354C215.213 144.358 215.573 143.59 216.293 143.05C217.025 142.51 218.207 142.192 219.839 142.096L221.567 141.988V141.43C221.567 140.65 221.387 140.098 221.027 139.774C220.679 139.438 220.091 139.27 219.263 139.27C218.663 139.27 218.087 139.354 217.535 139.522C216.995 139.678 216.479 139.9 215.987 140.188V138.694C216.335 138.514 216.803 138.346 217.391 138.19C217.991 138.034 218.663 137.956 219.407 137.956C220.667 137.956 221.603 138.232 222.215 138.784C222.839 139.324 223.151 140.176 223.151 141.34V148H221.567V143.32L220.055 143.428C218.831 143.512 217.985 143.704 217.517 144.004C217.061 144.304 216.833 144.742 216.833 145.318C216.833 145.858 217.001 146.254 217.337 146.506C217.685 146.758 218.165 146.884 218.777 146.884C219.173 146.884 219.521 146.83 219.821 146.722L220.073 147.928C219.845 148.012 219.593 148.072 219.317 148.108C219.053 148.156 218.771 148.18 218.471 148.18ZM228.574 148.18C227.866 148.18 227.206 148.114 226.594 147.982C225.994 147.838 225.484 147.67 225.064 147.478L225.532 146.182C225.916 146.338 226.372 146.488 226.9 146.632C227.44 146.776 228.01 146.848 228.61 146.848C229.246 146.848 229.774 146.728 230.194 146.488C230.614 146.248 230.824 145.9 230.824 145.444C230.824 145.036 230.656 144.7 230.32 144.436C229.984 144.172 229.444 143.926 228.7 143.698C227.944 143.458 227.302 143.206 226.774 142.942C226.258 142.666 225.862 142.342 225.586 141.97C225.322 141.586 225.19 141.112 225.19 140.548C225.19 139.804 225.496 139.186 226.108 138.694C226.72 138.202 227.698 137.956 229.042 137.956C229.618 137.956 230.158 138.01 230.662 138.118C231.178 138.214 231.58 138.352 231.868 138.532V139.882C231.568 139.738 231.154 139.6 230.626 139.468C230.098 139.336 229.552 139.27 228.988 139.27C228.184 139.27 227.614 139.396 227.278 139.648C226.954 139.888 226.792 140.164 226.792 140.476C226.792 140.74 226.864 140.962 227.008 141.142C227.164 141.322 227.422 141.496 227.782 141.664C228.154 141.832 228.652 142.024 229.276 142.24C229.852 142.432 230.38 142.654 230.86 142.906C231.34 143.158 231.718 143.476 231.994 143.86C232.282 144.232 232.426 144.712 232.426 145.3C232.426 145.804 232.3 146.278 232.048 146.722C231.808 147.154 231.406 147.508 230.842 147.784C230.278 148.048 229.522 148.18 228.574 148.18ZM237.111 148V140.998C237.111 140.41 236.973 139.978 236.697 139.702C236.433 139.426 235.983 139.288 235.347 139.288C234.915 139.288 234.507 139.348 234.123 139.468C233.751 139.576 233.391 139.732 233.043 139.936V138.496C233.283 138.376 233.625 138.256 234.069 138.136C234.513 138.016 235.041 137.956 235.653 137.956C236.589 137.956 237.333 138.166 237.885 138.586C238.437 139.006 238.713 139.732 238.713 140.764V148H237.111ZM245.161 148.162C243.709 148.162 242.683 147.886 242.083 147.334C241.483 146.782 241.183 146.038 241.183 145.102C241.183 144.55 241.261 144.112 241.417 143.788C241.585 143.452 241.789 143.206 242.029 143.05C242.281 142.894 242.539 142.792 242.803 142.744V142.672C242.563 142.6 242.311 142.48 242.047 142.312C241.783 142.144 241.561 141.91 241.381 141.61C241.213 141.31 241.129 140.932 241.129 140.476C241.129 140.056 241.225 139.66 241.417 139.288C241.609 138.916 241.921 138.61 242.353 138.37C242.785 138.13 243.355 138.01 244.063 138.01C244.351 138.01 244.651 138.034 244.963 138.082C245.275 138.118 245.515 138.184 245.683 138.28L245.395 139.522C245.263 139.474 245.089 139.432 244.873 139.396C244.669 139.348 244.453 139.324 244.225 139.324C243.721 139.324 243.349 139.444 243.109 139.684C242.869 139.912 242.749 140.218 242.749 140.602C242.749 141.022 242.851 141.34 243.055 141.556C243.271 141.772 243.541 141.922 243.865 142.006C244.201 142.078 244.549 142.114 244.909 142.114H245.251V143.284H244.909C244.189 143.284 243.655 143.416 243.307 143.68C242.971 143.932 242.803 144.358 242.803 144.958C242.803 145.306 242.869 145.624 243.001 145.912C243.145 146.2 243.385 146.428 243.721 146.596C244.069 146.764 244.549 146.848 245.161 146.848C246.073 146.848 246.697 146.662 247.033 146.29C247.369 145.906 247.537 145.384 247.537 144.724V138.136H249.139V144.616C249.139 145.876 248.815 146.782 248.167 147.334C247.531 147.886 246.529 148.162 245.161 148.162ZM254.265 148.18C253.941 148.18 253.629 148.126 253.329 148.018C253.029 147.91 252.783 147.718 252.591 147.442C252.399 147.166 252.303 146.782 252.303 146.29V136.714C252.303 136.042 252.393 135.544 252.573 135.22C252.765 134.896 252.987 134.644 253.239 134.464L253.221 134.392H250.089L250.503 133.132H255.579V134.392C255.135 134.392 254.745 134.536 254.409 134.824C254.073 135.112 253.905 135.64 253.905 136.408V146.092C253.905 146.368 253.965 146.566 254.085 146.686C254.205 146.806 254.397 146.866 254.661 146.866C254.769 146.866 254.883 146.854 255.003 146.83C255.123 146.806 255.237 146.776 255.345 146.74L255.561 147.91C255.333 148.018 255.111 148.09 254.895 148.126C254.679 148.162 254.469 148.18 254.265 148.18ZM260.168 148.18C259.208 148.18 258.452 147.958 257.9 147.514C257.36 147.058 256.976 146.446 256.748 145.678C256.532 144.91 256.424 144.064 256.424 143.14C256.424 141.784 256.61 140.734 256.982 139.99C257.354 139.234 257.87 138.706 258.53 138.406C259.202 138.106 259.976 137.956 260.852 137.956C262.292 137.956 263.336 138.268 263.984 138.892C264.644 139.516 264.974 140.362 264.974 141.43V148H263.39V141.574C263.39 140.83 263.204 140.266 262.832 139.882C262.46 139.486 261.818 139.288 260.906 139.288C260.354 139.288 259.856 139.39 259.412 139.594C258.98 139.798 258.638 140.176 258.386 140.728C258.146 141.28 258.026 142.09 258.026 143.158C258.026 143.854 258.092 144.484 258.224 145.048C258.368 145.6 258.614 146.038 258.962 146.362C259.31 146.686 259.796 146.848 260.42 146.848C260.6 146.848 260.768 146.836 260.924 146.812C261.08 146.788 261.23 146.752 261.374 146.704L261.536 147.946C261.344 148.03 261.122 148.09 260.87 148.126C260.63 148.162 260.396 148.18 260.168 148.18ZM259.542 136.57V135.778C259.782 135.73 260.028 135.664 260.28 135.58C260.532 135.484 260.742 135.364 260.91 135.22C261.078 135.064 261.162 134.878 261.162 134.662C261.162 134.518 261.12 134.398 261.036 134.302C260.94 134.194 260.796 134.14 260.604 134.14C260.484 134.14 260.364 134.164 260.244 134.212C260.112 134.26 259.998 134.302 259.902 134.338L259.542 133.348C259.782 133.156 260.052 133.03 260.352 132.97C260.64 132.91 260.874 132.88 261.054 132.88C261.534 132.88 261.912 133.012 262.188 133.276C262.452 133.54 262.584 133.876 262.584 134.284C262.584 134.488 262.548 134.68 262.476 134.86C262.404 135.028 262.314 135.178 262.206 135.31H265.122V136.57H259.542Z" fill="#49474A"/>
<circle cx="243" cy="301" r="13" fill="#57A3B3"/>
<path d="M173.384 307.16C172.381 307.16 171.603 306.92 171.048 306.44C170.504 305.949 170.232 305.219 170.232 304.248V303.272C170.232 302.739 170.307 302.317 170.456 302.008C170.605 301.699 170.765 301.432 170.936 301.208C171.117 300.963 171.272 300.749 171.4 300.568C171.539 300.387 171.608 300.168 171.608 299.912C171.608 299.688 171.549 299.528 171.432 299.432C171.325 299.336 171.187 299.288 171.016 299.288C170.888 299.288 170.749 299.309 170.6 299.352C170.461 299.395 170.323 299.448 170.184 299.512L169.864 298.488C170.056 298.36 170.291 298.269 170.568 298.216C170.856 298.163 171.107 298.136 171.32 298.136C171.917 298.136 172.339 298.291 172.584 298.6C172.829 298.899 172.952 299.283 172.952 299.752C172.952 300.147 172.883 300.472 172.744 300.728C172.616 300.984 172.461 301.235 172.28 301.48C172.099 301.747 171.949 302.003 171.832 302.248C171.715 302.493 171.656 302.813 171.656 303.208V304.152C171.656 304.643 171.736 305.021 171.896 305.288C172.056 305.555 172.269 305.741 172.536 305.848C172.803 305.944 173.085 305.992 173.384 305.992C174.483 305.992 175.032 305.48 175.032 304.456V298.232H176.456V304.536C176.456 305.357 176.195 306.003 175.672 306.472C175.16 306.931 174.397 307.16 173.384 307.16ZM174.163 296.84C173.491 296.84 173.017 296.707 172.739 296.44C172.462 296.163 172.323 295.853 172.323 295.512C172.323 295.352 172.35 295.181 172.403 295C172.446 294.808 172.505 294.653 172.579 294.536L173.779 294.744C173.715 294.872 173.683 295.037 173.683 295.24C173.683 295.379 173.726 295.501 173.811 295.608C173.897 295.704 174.041 295.752 174.243 295.752H178.291V296.84H174.163ZM173.736 292.464V291.904C173.949 291.851 174.178 291.765 174.424 291.648C174.658 291.531 174.776 291.355 174.776 291.12C174.776 290.875 174.653 290.752 174.408 290.752C174.237 290.752 174.061 290.805 173.88 290.912L173.592 290.176C173.784 290.048 174.002 289.963 174.248 289.92C174.482 289.877 174.669 289.856 174.808 289.856C175.085 289.856 175.336 289.931 175.56 290.08C175.784 290.219 175.896 290.459 175.896 290.8C175.896 290.885 175.885 290.981 175.864 291.088C175.842 291.195 175.805 291.296 175.752 291.392H177.768V292.464H173.736ZM181.35 307.16C180.411 307.16 179.67 306.915 179.126 306.424C178.593 305.933 178.326 305.155 178.326 304.088V298.232H179.75V304.008C179.75 305.309 180.385 305.96 181.654 305.96C182.401 305.96 182.977 305.72 183.382 305.24C183.798 304.76 184.006 304.115 184.006 303.304V298.232H185.43V307H184.246L184.182 305.704H184.102C183.91 306.131 183.574 306.483 183.094 306.76C182.625 307.027 182.043 307.16 181.35 307.16ZM191.003 307.16C190.107 307.16 189.413 306.957 188.923 306.552C188.432 306.136 188.091 305.576 187.899 304.872C187.707 304.157 187.611 303.347 187.611 302.44C187.611 300.883 187.829 299.768 188.267 299.096C188.715 298.413 189.355 298.072 190.187 298.072C190.56 298.072 190.875 298.136 191.131 298.264C191.397 298.392 191.584 298.605 191.691 298.904H191.755C191.861 298.595 192.053 298.381 192.331 298.264C192.608 298.136 192.933 298.072 193.307 298.072C194 298.072 194.533 298.259 194.907 298.632C195.291 298.995 195.483 299.555 195.483 300.312V307H194.059V300.328C194.059 299.912 193.968 299.629 193.787 299.48C193.605 299.331 193.376 299.256 193.099 299.256C192.789 299.256 192.56 299.331 192.411 299.48C192.272 299.629 192.187 299.875 192.155 300.216H191.259C191.216 299.843 191.104 299.592 190.923 299.464C190.741 299.325 190.539 299.256 190.315 299.256C189.888 299.256 189.568 299.507 189.355 300.008C189.141 300.499 189.035 301.315 189.035 302.456C189.035 303.192 189.088 303.821 189.195 304.344C189.312 304.867 189.525 305.272 189.835 305.56C190.144 305.837 190.592 305.976 191.179 305.976C191.392 305.976 191.568 305.965 191.707 305.944C191.845 305.923 191.979 305.896 192.107 305.864L192.251 306.952C192.091 307.027 191.899 307.08 191.675 307.112C191.451 307.144 191.227 307.16 191.003 307.16ZM200.934 307.16C199.782 307.16 198.918 306.861 198.342 306.264C197.777 305.656 197.494 304.707 197.494 303.416C197.494 303.203 197.5 302.973 197.51 302.728C197.532 302.472 197.553 302.221 197.574 301.976H200.934V303.096H198.918V303.416C198.918 304.088 198.993 304.616 199.142 305C199.292 305.373 199.51 305.635 199.798 305.784C200.097 305.933 200.465 306.008 200.902 306.008C201.382 306.008 201.798 305.917 202.15 305.736C202.502 305.555 202.774 305.224 202.966 304.744C203.158 304.264 203.254 303.576 203.254 302.68C203.254 301.507 203.052 300.643 202.646 300.088C202.252 299.533 201.564 299.256 200.582 299.256C200.07 299.256 199.58 299.325 199.11 299.464C198.652 299.592 198.209 299.779 197.782 300.024V298.696C198.102 298.525 198.524 298.381 199.046 298.264C199.569 298.136 200.14 298.072 200.758 298.072C201.697 298.072 202.454 298.264 203.03 298.648C203.617 299.021 204.044 299.555 204.31 300.248C204.577 300.931 204.71 301.741 204.71 302.68C204.71 303.619 204.588 304.424 204.342 305.096C204.097 305.768 203.697 306.28 203.142 306.632C202.598 306.984 201.862 307.16 200.934 307.16ZM209.802 307.16C208.863 307.16 208.122 306.915 207.578 306.424C207.045 305.933 206.778 305.155 206.778 304.088V298.232H208.202V304.008C208.202 305.309 208.837 305.96 210.106 305.96C210.853 305.96 211.429 305.72 211.834 305.24C212.25 304.76 212.458 304.115 212.458 303.304V298.232H213.882V307H212.698L212.634 305.704H212.554C212.362 306.131 212.026 306.483 211.546 306.76C211.077 307.027 210.495 307.16 209.802 307.16ZM216.398 307V298.232H217.39L217.646 299.624H217.71C217.892 299.144 218.222 298.765 218.702 298.488C219.182 298.211 219.764 298.072 220.446 298.072C221.396 298.072 222.142 298.317 222.686 298.808C223.23 299.299 223.502 300.077 223.502 301.144V307H222.078V301.224C222.078 299.923 221.444 299.272 220.174 299.272C219.673 299.272 219.246 299.389 218.894 299.624C218.542 299.859 218.276 300.179 218.094 300.584C217.913 300.979 217.822 301.427 217.822 301.928V307H216.398ZM216.294 296.84V296.216L217.462 295.704H221.766V294.408H223.11V296.216H223.094V296.84H216.294ZM221.51 293.464V290.856H222.87V293.464H221.51Z" fill="#49474A"/>
<path d="M247.431 305.608V307H239.383V305.912L243.943 301.512C244.497 300.979 244.871 300.52 245.063 300.136C245.255 299.741 245.351 299.347 245.351 298.952C245.351 298.365 245.143 297.912 244.727 297.592C244.321 297.261 243.735 297.096 242.967 297.096C241.729 297.096 240.775 297.501 240.103 298.312L239.015 297.368C239.452 296.835 240.023 296.419 240.727 296.12C241.441 295.821 242.236 295.672 243.111 295.672C244.284 295.672 245.217 295.955 245.911 296.52C246.604 297.075 246.951 297.832 246.951 298.792C246.951 299.389 246.823 299.955 246.567 300.488C246.311 301.021 245.825 301.629 245.111 302.312L241.687 305.608H247.431Z" fill="white"/>
<rect x="108" y="458" width="209" height="14" fill="#49474A"/>
<rect x="123" y="330" width="179" height="120" rx="14" fill="#49474A"/>
<rect x="137" y="344" width="151" height="92" fill="white"/>
<path d="M147.436 380V376.58C147.436 375.824 147.604 375.278 147.94 374.942C148.276 374.594 148.702 374.354 149.218 374.222L149.236 374.168L147.256 373.412V372.818C147.256 372.326 147.418 371.864 147.742 371.432C148.066 370.988 148.528 370.634 149.128 370.37C149.74 370.094 150.466 369.956 151.306 369.956C152.038 369.956 152.716 370.076 153.34 370.316C153.964 370.544 154.462 370.91 154.834 371.414C155.218 371.906 155.41 372.554 155.41 373.358V380H153.808V373.52C153.808 372.716 153.562 372.146 153.07 371.81C152.59 371.462 151.996 371.288 151.288 371.288C150.556 371.288 149.974 371.444 149.542 371.756C149.11 372.056 148.894 372.44 148.894 372.908L150.838 373.88L150.694 374.744C150.25 374.744 149.86 374.894 149.524 375.194C149.2 375.482 149.038 375.944 149.038 376.58V380H147.436ZM160.821 380.18C160.113 380.18 159.453 380.114 158.841 379.982C158.241 379.838 157.731 379.67 157.311 379.478L157.779 378.182C158.163 378.338 158.619 378.488 159.147 378.632C159.687 378.776 160.257 378.848 160.857 378.848C161.493 378.848 162.021 378.728 162.441 378.488C162.861 378.248 163.071 377.9 163.071 377.444C163.071 377.036 162.903 376.7 162.567 376.436C162.231 376.172 161.691 375.926 160.947 375.698C160.191 375.458 159.549 375.206 159.021 374.942C158.505 374.666 158.109 374.342 157.833 373.97C157.569 373.586 157.437 373.112 157.437 372.548C157.437 371.804 157.743 371.186 158.355 370.694C158.967 370.202 159.945 369.956 161.289 369.956C161.865 369.956 162.405 370.01 162.909 370.118C163.425 370.214 163.827 370.352 164.115 370.532V371.882C163.815 371.738 163.401 371.6 162.873 371.468C162.345 371.336 161.799 371.27 161.235 371.27C160.431 371.27 159.861 371.396 159.525 371.648C159.201 371.888 159.039 372.164 159.039 372.476C159.039 372.74 159.111 372.962 159.255 373.142C159.411 373.322 159.669 373.496 160.029 373.664C160.401 373.832 160.899 374.024 161.523 374.24C162.099 374.432 162.627 374.654 163.107 374.906C163.587 375.158 163.965 375.476 164.241 375.86C164.529 376.232 164.673 376.712 164.673 377.3C164.673 377.804 164.547 378.278 164.295 378.722C164.055 379.154 163.653 379.508 163.089 379.784C162.525 380.048 161.769 380.18 160.821 380.18ZM170.06 380.18C168.764 380.18 167.792 379.844 167.144 379.172C166.508 378.488 166.19 377.42 166.19 375.968C166.19 375.728 166.196 375.47 166.208 375.194C166.232 374.906 166.256 374.624 166.28 374.348H170.06V375.608H167.792V375.968C167.792 376.724 167.876 377.318 168.044 377.75C168.212 378.17 168.458 378.464 168.782 378.632C169.118 378.8 169.532 378.884 170.024 378.884C170.564 378.884 171.032 378.782 171.428 378.578C171.824 378.374 172.13 378.002 172.346 377.462C172.562 376.922 172.67 376.148 172.67 375.14C172.67 373.82 172.442 372.848 171.986 372.224C171.542 371.6 170.768 371.288 169.664 371.288C169.088 371.288 168.536 371.366 168.008 371.522C167.492 371.666 166.994 371.876 166.514 372.152V370.658C166.874 370.466 167.348 370.304 167.936 370.172C168.524 370.028 169.166 369.956 169.862 369.956C170.918 369.956 171.77 370.172 172.418 370.604C173.078 371.024 173.558 371.624 173.858 372.404C174.158 373.172 174.308 374.084 174.308 375.14C174.308 376.196 174.17 377.102 173.894 377.858C173.618 378.614 173.168 379.19 172.544 379.586C171.932 379.982 171.104 380.18 170.06 380.18ZM176.544 380V376.58C176.544 375.824 176.712 375.278 177.048 374.942C177.384 374.594 177.81 374.354 178.326 374.222L178.344 374.168L176.364 373.412V372.818C176.364 372.326 176.526 371.864 176.85 371.432C177.174 370.988 177.636 370.634 178.236 370.37C178.848 370.094 179.574 369.956 180.414 369.956C181.146 369.956 181.824 370.076 182.448 370.316C183.072 370.544 183.57 370.91 183.942 371.414C184.326 371.906 184.518 372.554 184.518 373.358V380H182.916V373.52C182.916 372.716 182.67 372.146 182.178 371.81C181.698 371.462 181.104 371.288 180.396 371.288C179.664 371.288 179.082 371.444 178.65 371.756C178.218 372.056 178.002 372.44 178.002 372.908L179.946 373.88L179.802 374.744C179.358 374.744 178.968 374.894 178.632 375.194C178.308 375.482 178.146 375.944 178.146 376.58V380H176.544ZM190.631 380.18C189.503 380.18 188.627 379.91 188.003 379.37C187.391 378.818 187.085 377.996 187.085 376.904V375.806C187.085 375.206 187.169 374.732 187.337 374.384C187.505 374.036 187.685 373.736 187.877 373.484C188.081 373.208 188.255 372.968 188.399 372.764C188.555 372.56 188.633 372.314 188.633 372.026C188.633 371.774 188.567 371.594 188.435 371.486C188.315 371.378 188.159 371.324 187.967 371.324C187.823 371.324 187.667 371.348 187.499 371.396C187.343 371.444 187.187 371.504 187.031 371.576L186.671 370.424C186.887 370.28 187.151 370.178 187.463 370.118C187.787 370.058 188.069 370.028 188.309 370.028C188.981 370.028 189.455 370.202 189.731 370.55C190.007 370.886 190.145 371.318 190.145 371.846C190.145 372.29 190.067 372.656 189.911 372.944C189.767 373.232 189.593 373.514 189.389 373.79C189.185 374.09 189.017 374.378 188.885 374.654C188.753 374.93 188.687 375.29 188.687 375.734V376.796C188.687 377.348 188.777 377.774 188.957 378.074C189.137 378.374 189.377 378.584 189.677 378.704C189.977 378.812 190.295 378.866 190.631 378.866C191.867 378.866 192.485 378.29 192.485 377.138V370.136H194.087V377.228C194.087 378.152 193.793 378.878 193.205 379.406C192.629 379.922 191.771 380.18 190.631 380.18ZM188.772 368.57V367.778C189.012 367.73 189.258 367.664 189.51 367.58C189.762 367.484 189.972 367.364 190.14 367.22C190.308 367.064 190.392 366.878 190.392 366.662C190.392 366.518 190.35 366.398 190.266 366.302C190.17 366.194 190.026 366.14 189.834 366.14C189.714 366.14 189.594 366.164 189.474 366.212C189.342 366.26 189.228 366.302 189.132 366.338L188.772 365.348C189.012 365.156 189.282 365.03 189.582 364.97C189.87 364.91 190.104 364.88 190.284 364.88C190.764 364.88 191.142 365.012 191.418 365.276C191.682 365.54 191.814 365.876 191.814 366.284C191.814 366.488 191.778 366.68 191.706 366.86C191.634 367.028 191.544 367.178 191.436 367.31H194.352V368.57H188.772ZM199.953 380.18C198.657 380.18 197.685 379.844 197.037 379.172C196.401 378.488 196.083 377.42 196.083 375.968C196.083 375.728 196.089 375.47 196.101 375.194C196.125 374.906 196.149 374.624 196.173 374.348H199.953V375.608H197.685V375.968C197.685 376.724 197.769 377.318 197.937 377.75C198.105 378.17 198.351 378.464 198.675 378.632C199.011 378.8 199.425 378.884 199.917 378.884C200.457 378.884 200.925 378.782 201.321 378.578C201.717 378.374 202.023 378.002 202.239 377.462C202.455 376.922 202.563 376.148 202.563 375.14C202.563 373.82 202.335 372.848 201.879 372.224C201.435 371.6 200.661 371.288 199.557 371.288C198.981 371.288 198.429 371.366 197.901 371.522C197.385 371.666 196.887 371.876 196.407 372.152V370.658C196.767 370.466 197.241 370.304 197.829 370.172C198.417 370.028 199.059 369.956 199.755 369.956C200.811 369.956 201.663 370.172 202.311 370.604C202.971 371.024 203.451 371.624 203.751 372.404C204.051 373.172 204.201 374.084 204.201 375.14C204.201 376.196 204.063 377.102 203.787 377.858C203.511 378.614 203.061 379.19 202.437 379.586C201.825 379.982 200.997 380.18 199.953 380.18ZM211.279 380.18C210.511 380.18 209.845 380.03 209.281 379.73C208.729 379.418 208.351 378.986 208.147 378.434H208.075L207.985 380H206.671V370.136H208.273V375.842C208.273 376.754 208.507 377.48 208.975 378.02C209.443 378.56 210.103 378.83 210.955 378.83C212.359 378.83 213.061 378.098 213.061 376.634V370.136H214.663V376.742C214.663 377.93 214.363 378.8 213.763 379.352C213.175 379.904 212.347 380.18 211.279 380.18ZM211.65 384.77C210.882 384.77 210.3 384.614 209.904 384.302C209.496 384.002 209.292 383.57 209.292 383.006V382.7C209.292 382.496 209.244 382.37 209.148 382.322C209.04 382.286 208.896 382.292 208.716 382.34L208.608 381.26C208.776 381.212 208.944 381.182 209.112 381.17C209.268 381.158 209.388 381.152 209.472 381.152C209.904 381.152 210.216 381.248 210.408 381.44C210.588 381.632 210.678 381.902 210.678 382.25V382.862C210.678 383.09 210.75 383.282 210.894 383.438C211.038 383.594 211.284 383.672 211.632 383.672C211.992 383.672 212.244 383.594 212.388 383.438C212.52 383.282 212.586 383.09 212.586 382.862V381.206H213.99V382.952C213.99 384.164 213.21 384.77 211.65 384.77ZM219.725 380.18C218.669 380.18 217.859 379.94 217.295 379.46C216.743 378.968 216.467 378.266 216.467 377.354C216.467 376.358 216.827 375.59 217.547 375.05C218.279 374.51 219.461 374.192 221.093 374.096L222.821 373.988V373.43C222.821 372.65 222.641 372.098 222.281 371.774C221.933 371.438 221.345 371.27 220.517 371.27C219.917 371.27 219.341 371.354 218.789 371.522C218.249 371.678 217.733 371.9 217.241 372.188V370.694C217.589 370.514 218.057 370.346 218.645 370.19C219.245 370.034 219.917 369.956 220.661 369.956C221.921 369.956 222.857 370.232 223.469 370.784C224.093 371.324 224.405 372.176 224.405 373.34V380H222.821V375.32L221.309 375.428C220.085 375.512 219.239 375.704 218.771 376.004C218.315 376.304 218.087 376.742 218.087 377.318C218.087 377.858 218.255 378.254 218.591 378.506C218.939 378.758 219.419 378.884 220.031 378.884C220.427 378.884 220.775 378.83 221.075 378.722L221.327 379.928C221.099 380.012 220.847 380.072 220.571 380.108C220.307 380.156 220.025 380.18 219.725 380.18ZM229.828 380.18C229.12 380.18 228.46 380.114 227.848 379.982C227.248 379.838 226.738 379.67 226.318 379.478L226.786 378.182C227.17 378.338 227.626 378.488 228.154 378.632C228.694 378.776 229.264 378.848 229.864 378.848C230.5 378.848 231.028 378.728 231.448 378.488C231.868 378.248 232.078 377.9 232.078 377.444C232.078 377.036 231.91 376.7 231.574 376.436C231.238 376.172 230.698 375.926 229.954 375.698C229.198 375.458 228.556 375.206 228.028 374.942C227.512 374.666 227.116 374.342 226.84 373.97C226.576 373.586 226.444 373.112 226.444 372.548C226.444 371.804 226.75 371.186 227.362 370.694C227.974 370.202 228.952 369.956 230.296 369.956C230.872 369.956 231.412 370.01 231.916 370.118C232.432 370.214 232.834 370.352 233.122 370.532V371.882C232.822 371.738 232.408 371.6 231.88 371.468C231.352 371.336 230.806 371.27 230.242 371.27C229.438 371.27 228.868 371.396 228.532 371.648C228.208 371.888 228.046 372.164 228.046 372.476C228.046 372.74 228.118 372.962 228.262 373.142C228.418 373.322 228.676 373.496 229.036 373.664C229.408 373.832 229.906 374.024 230.53 374.24C231.106 374.432 231.634 374.654 232.114 374.906C232.594 375.158 232.972 375.476 233.248 375.86C233.536 376.232 233.68 376.712 233.68 377.3C233.68 377.804 233.554 378.278 233.302 378.722C233.062 379.154 232.66 379.508 232.096 379.784C231.532 380.048 230.776 380.18 229.828 380.18ZM238.366 380V372.998C238.366 372.41 238.228 371.978 237.952 371.702C237.688 371.426 237.238 371.288 236.602 371.288C236.17 371.288 235.762 371.348 235.378 371.468C235.006 371.576 234.646 371.732 234.298 371.936V370.496C234.538 370.376 234.88 370.256 235.324 370.136C235.768 370.016 236.296 369.956 236.908 369.956C237.844 369.956 238.588 370.166 239.14 370.586C239.692 371.006 239.968 371.732 239.968 372.764V380H238.366ZM246.416 380.162C244.964 380.162 243.938 379.886 243.338 379.334C242.738 378.782 242.438 378.038 242.438 377.102C242.438 376.55 242.516 376.112 242.672 375.788C242.84 375.452 243.044 375.206 243.284 375.05C243.536 374.894 243.794 374.792 244.058 374.744V374.672C243.818 374.6 243.566 374.48 243.302 374.312C243.038 374.144 242.816 373.91 242.636 373.61C242.468 373.31 242.384 372.932 242.384 372.476C242.384 372.056 242.48 371.66 242.672 371.288C242.864 370.916 243.176 370.61 243.608 370.37C244.04 370.13 244.61 370.01 245.318 370.01C245.606 370.01 245.906 370.034 246.218 370.082C246.53 370.118 246.77 370.184 246.938 370.28L246.65 371.522C246.518 371.474 246.344 371.432 246.128 371.396C245.924 371.348 245.708 371.324 245.48 371.324C244.976 371.324 244.604 371.444 244.364 371.684C244.124 371.912 244.004 372.218 244.004 372.602C244.004 373.022 244.106 373.34 244.31 373.556C244.526 373.772 244.796 373.922 245.12 374.006C245.456 374.078 245.804 374.114 246.164 374.114H246.506V375.284H246.164C245.444 375.284 244.91 375.416 244.562 375.68C244.226 375.932 244.058 376.358 244.058 376.958C244.058 377.306 244.124 377.624 244.256 377.912C244.4 378.2 244.64 378.428 244.976 378.596C245.324 378.764 245.804 378.848 246.416 378.848C247.328 378.848 247.952 378.662 248.288 378.29C248.624 377.906 248.792 377.384 248.792 376.724V370.136H250.394V376.616C250.394 377.876 250.07 378.782 249.422 379.334C248.786 379.886 247.784 380.162 246.416 380.162ZM252.945 380V376.58C252.945 375.824 253.113 375.278 253.449 374.942C253.785 374.594 254.211 374.354 254.727 374.222L254.745 374.168L252.765 373.412V372.818C252.765 372.326 252.927 371.864 253.251 371.432C253.575 370.988 254.037 370.634 254.637 370.37C255.249 370.094 255.975 369.956 256.815 369.956C257.547 369.956 258.225 370.076 258.849 370.316C259.473 370.544 259.971 370.91 260.343 371.414C260.728 371.906 260.92 372.554 260.92 373.358V380H259.317V373.52C259.317 372.716 259.071 372.146 258.579 371.81C258.099 371.462 257.505 371.288 256.797 371.288C256.065 371.288 255.483 371.444 255.051 371.756C254.619 372.056 254.403 372.44 254.403 372.908L256.347 373.88L256.203 374.744C255.759 374.744 255.369 374.894 255.033 375.194C254.709 375.482 254.547 375.944 254.547 376.58V380H252.945ZM266.348 380V372.998C266.348 372.41 266.21 371.978 265.934 371.702C265.67 371.426 265.22 371.288 264.584 371.288C264.152 371.288 263.744 371.348 263.36 371.468C262.988 371.576 262.628 371.732 262.28 371.936V370.496C262.52 370.376 262.862 370.256 263.306 370.136C263.75 370.016 264.278 369.956 264.89 369.956C265.826 369.956 266.57 370.166 267.122 370.586C267.674 371.006 267.95 371.732 267.95 372.764V380H266.348ZM273.373 380.18C272.665 380.18 272.005 380.114 271.393 379.982C270.793 379.838 270.283 379.67 269.863 379.478L270.331 378.182C270.715 378.338 271.171 378.488 271.699 378.632C272.239 378.776 272.809 378.848 273.409 378.848C274.045 378.848 274.573 378.728 274.993 378.488C275.413 378.248 275.623 377.9 275.623 377.444C275.623 377.036 275.455 376.7 275.119 376.436C274.783 376.172 274.243 375.926 273.499 375.698C272.743 375.458 272.101 375.206 271.573 374.942C271.057 374.666 270.661 374.342 270.385 373.97C270.121 373.586 269.989 373.112 269.989 372.548C269.989 371.804 270.295 371.186 270.907 370.694C271.519 370.202 272.497 369.956 273.841 369.956C274.417 369.956 274.957 370.01 275.461 370.118C275.977 370.214 276.379 370.352 276.667 370.532V371.882C276.367 371.738 275.953 371.6 275.425 371.468C274.897 371.336 274.351 371.27 273.787 371.27C272.983 371.27 272.413 371.396 272.077 371.648C271.753 371.888 271.591 372.164 271.591 372.476C271.591 372.74 271.663 372.962 271.807 373.142C271.963 373.322 272.221 373.496 272.581 373.664C272.953 373.832 273.451 374.024 274.075 374.24C274.651 374.432 275.179 374.654 275.659 374.906C276.139 375.158 276.517 375.476 276.793 375.86C277.081 376.232 277.225 376.712 277.225 377.3C277.225 377.804 277.099 378.278 276.847 378.722C276.607 379.154 276.205 379.508 275.641 379.784C275.077 380.048 274.321 380.18 273.373 380.18ZM170.653 412.18C169.597 412.18 168.787 411.94 168.223 411.46C167.671 410.968 167.395 410.266 167.395 409.354C167.395 408.358 167.755 407.59 168.475 407.05C169.207 406.51 170.389 406.192 172.021 406.096L173.749 405.988V405.43C173.749 404.65 173.569 404.098 173.209 403.774C172.861 403.438 172.273 403.27 171.445 403.27C170.845 403.27 170.269 403.354 169.717 403.522C169.177 403.678 168.661 403.9 168.169 404.188V402.694C168.517 402.514 168.985 402.346 169.573 402.19C170.173 402.034 170.845 401.956 171.589 401.956C172.849 401.956 173.785 402.232 174.397 402.784C175.021 403.324 175.333 404.176 175.333 405.34V412H173.749V407.32L172.237 407.428C171.013 407.512 170.167 407.704 169.699 408.004C169.243 408.304 169.015 408.742 169.015 409.318C169.015 409.858 169.183 410.254 169.519 410.506C169.867 410.758 170.347 410.884 170.959 410.884C171.355 410.884 171.703 410.83 172.003 410.722L172.255 411.928C172.027 412.012 171.775 412.072 171.499 412.108C171.235 412.156 170.953 412.18 170.653 412.18ZM181.35 412.18C180.39 412.18 179.634 411.958 179.082 411.514C178.542 411.058 178.158 410.446 177.93 409.678C177.714 408.91 177.606 408.064 177.606 407.14C177.606 405.784 177.792 404.734 178.164 403.99C178.536 403.234 179.052 402.706 179.712 402.406C180.384 402.106 181.158 401.956 182.034 401.956C183.474 401.956 184.518 402.268 185.166 402.892C185.826 403.516 186.156 404.362 186.156 405.43V412H184.572V405.574C184.572 404.83 184.386 404.266 184.014 403.882C183.642 403.486 183 403.288 182.088 403.288C181.536 403.288 181.038 403.39 180.594 403.594C180.162 403.798 179.82 404.176 179.568 404.728C179.328 405.28 179.208 406.09 179.208 407.158C179.208 407.854 179.274 408.484 179.406 409.048C179.55 409.6 179.796 410.038 180.144 410.362C180.492 410.686 180.978 410.848 181.602 410.848C181.782 410.848 181.95 410.836 182.106 410.812C182.262 410.788 182.412 410.752 182.556 410.704L182.718 411.946C182.526 412.03 182.304 412.09 182.052 412.126C181.812 412.162 181.578 412.18 181.35 412.18ZM188.95 412V402.136H190.552V406.402H190.606L194.71 402.136H196.582V402.19L193.684 405.124C194.656 405.208 195.394 405.55 195.898 406.15C196.414 406.738 196.672 407.518 196.672 408.49V412H195.07V408.526C195.07 407.854 194.872 407.32 194.476 406.924C194.092 406.528 193.444 406.312 192.532 406.276L190.552 408.292V412H188.95ZM202.899 412.162C201.447 412.162 200.421 411.886 199.821 411.334C199.221 410.782 198.921 410.038 198.921 409.102C198.921 408.55 198.999 408.112 199.155 407.788C199.323 407.452 199.527 407.206 199.767 407.05C200.019 406.894 200.277 406.792 200.541 406.744V406.672C200.301 406.6 200.049 406.48 199.785 406.312C199.521 406.144 199.299 405.91 199.119 405.61C198.951 405.31 198.867 404.932 198.867 404.476C198.867 404.056 198.963 403.66 199.155 403.288C199.347 402.916 199.659 402.61 200.091 402.37C200.523 402.13 201.093 402.01 201.801 402.01C202.089 402.01 202.389 402.034 202.701 402.082C203.013 402.118 203.253 402.184 203.421 402.28L203.133 403.522C203.001 403.474 202.827 403.432 202.611 403.396C202.407 403.348 202.191 403.324 201.963 403.324C201.459 403.324 201.087 403.444 200.847 403.684C200.607 403.912 200.487 404.218 200.487 404.602C200.487 405.022 200.589 405.34 200.793 405.556C201.009 405.772 201.279 405.922 201.603 406.006C201.939 406.078 202.287 406.114 202.647 406.114H202.989V407.284H202.647C201.927 407.284 201.393 407.416 201.045 407.68C200.709 407.932 200.541 408.358 200.541 408.958C200.541 409.306 200.607 409.624 200.739 409.912C200.883 410.2 201.123 410.428 201.459 410.596C201.807 410.764 202.287 410.848 202.899 410.848C203.811 410.848 204.435 410.662 204.771 410.29C205.107 409.906 205.275 409.384 205.275 408.724V402.136H206.877V408.616C206.877 409.876 206.553 410.782 205.905 411.334C205.269 411.886 204.267 412.162 202.899 412.162ZM204.997 400.57V396.772H206.581V400.57H204.997ZM212.74 412.18C211.444 412.18 210.472 411.844 209.824 411.172C209.188 410.488 208.87 409.42 208.87 407.968C208.87 407.728 208.876 407.47 208.888 407.194C208.912 406.906 208.936 406.624 208.96 406.348H212.74V407.608H210.472V407.968C210.472 408.724 210.556 409.318 210.724 409.75C210.892 410.17 211.138 410.464 211.462 410.632C211.798 410.8 212.212 410.884 212.704 410.884C213.244 410.884 213.712 410.782 214.108 410.578C214.504 410.374 214.81 410.002 215.026 409.462C215.242 408.922 215.35 408.148 215.35 407.14C215.35 405.82 215.122 404.848 214.666 404.224C214.222 403.6 213.448 403.288 212.344 403.288C211.768 403.288 211.216 403.366 210.688 403.522C210.172 403.666 209.674 403.876 209.194 404.152V402.658C209.554 402.466 210.028 402.304 210.616 402.172C211.204 402.028 211.846 401.956 212.542 401.956C213.598 401.956 214.45 402.172 215.098 402.604C215.758 403.024 216.238 403.624 216.538 404.404C216.838 405.172 216.988 406.084 216.988 407.14C216.988 408.196 216.85 409.102 216.574 409.858C216.298 410.614 215.848 411.19 215.224 411.586C214.612 411.982 213.784 412.18 212.74 412.18ZM222.716 412.18C221.66 412.18 220.826 411.904 220.214 411.352C219.614 410.8 219.314 409.924 219.314 408.724V402.136H220.916V408.634C220.916 410.098 221.63 410.83 223.058 410.83C223.898 410.83 224.546 410.56 225.002 410.02C225.47 409.48 225.704 408.754 225.704 407.842V402.136H227.306V412H225.974L225.902 410.542H225.812C225.596 411.022 225.218 411.418 224.678 411.73C224.15 412.03 223.496 412.18 222.716 412.18ZM230.209 412.18C229.993 412.18 229.783 412.156 229.579 412.108C229.375 412.072 229.171 412.006 228.967 411.91L229.147 410.794C229.231 410.818 229.327 410.842 229.435 410.866C229.543 410.89 229.645 410.902 229.741 410.902C230.101 410.902 230.281 410.662 230.281 410.182V408.508C230.281 407.764 230.419 407.23 230.695 406.906C230.971 406.57 231.367 406.342 231.883 406.222L231.901 406.168L229.831 405.412V404.818C229.831 404.326 229.987 403.864 230.299 403.432C230.623 402.988 231.091 402.634 231.703 402.37C232.315 402.094 233.047 401.956 233.899 401.956C234.643 401.956 235.327 402.076 235.951 402.316C236.575 402.544 237.073 402.91 237.445 403.414C237.829 403.906 238.021 404.554 238.021 405.358V412H236.419V405.52C236.419 404.716 236.173 404.146 235.681 403.81C235.189 403.462 234.589 403.288 233.881 403.288C233.137 403.288 232.549 403.444 232.117 403.756C231.685 404.056 231.469 404.44 231.469 404.908L233.521 405.88L233.377 406.744C232.933 406.744 232.573 406.888 232.297 407.176C232.021 407.464 231.883 407.926 231.883 408.562V410.308C231.883 411.04 231.721 411.538 231.397 411.802C231.073 412.054 230.677 412.18 230.209 412.18ZM243.449 412V404.998C243.449 404.41 243.311 403.978 243.035 403.702C242.771 403.426 242.321 403.288 241.685 403.288C241.253 403.288 240.845 403.348 240.461 403.468C240.089 403.576 239.729 403.732 239.381 403.936V402.496C239.621 402.376 239.963 402.256 240.407 402.136C240.851 402.016 241.379 401.956 241.991 401.956C242.927 401.956 243.671 402.166 244.223 402.586C244.775 403.006 245.051 403.732 245.051 404.764V412H243.449ZM251.805 412.18C250.317 412.18 249.261 411.85 248.637 411.19C248.013 410.518 247.701 409.57 247.701 408.346V402.136H249.303V408.364C249.303 409.204 249.501 409.828 249.897 410.236C250.293 410.644 250.929 410.848 251.805 410.848C252.681 410.848 253.317 410.644 253.713 410.236C254.109 409.828 254.307 409.204 254.307 408.364V407.932H252.903C252.135 407.932 251.607 407.77 251.319 407.446C251.043 407.122 250.905 406.762 250.905 406.366C250.905 406.186 250.929 406 250.977 405.808C251.025 405.616 251.091 405.454 251.175 405.322L252.471 405.556C252.399 405.7 252.363 405.874 252.363 406.078C252.363 406.234 252.405 406.378 252.489 406.51C252.585 406.642 252.747 406.708 252.975 406.708H254.307V402.136H255.909V406.708H257.061V407.932H255.909V408.346C255.909 409.57 255.597 410.518 254.973 411.19C254.349 411.85 253.293 412.18 251.805 412.18ZM247.989 400.57V399.868L249.303 399.292H254.145V397.834H255.657V399.868H255.639V400.57H247.989Z" fill="#49474A"/>
<circle cx="243" cy="565" r="13" fill="#57A3B3"/>
<path d="M173.384 571.16C172.381 571.16 171.603 570.92 171.048 570.44C170.504 569.949 170.232 569.219 170.232 568.248V567.272C170.232 566.739 170.307 566.317 170.456 566.008C170.605 565.699 170.765 565.432 170.936 565.208C171.117 564.963 171.272 564.749 171.4 564.568C171.539 564.387 171.608 564.168 171.608 563.912C171.608 563.688 171.549 563.528 171.432 563.432C171.325 563.336 171.187 563.288 171.016 563.288C170.888 563.288 170.749 563.309 170.6 563.352C170.461 563.395 170.323 563.448 170.184 563.512L169.864 562.488C170.056 562.36 170.291 562.269 170.568 562.216C170.856 562.163 171.107 562.136 171.32 562.136C171.917 562.136 172.339 562.291 172.584 562.6C172.829 562.899 172.952 563.283 172.952 563.752C172.952 564.147 172.883 564.472 172.744 564.728C172.616 564.984 172.461 565.235 172.28 565.48C172.099 565.747 171.949 566.003 171.832 566.248C171.715 566.493 171.656 566.813 171.656 567.208V568.152C171.656 568.643 171.736 569.021 171.896 569.288C172.056 569.555 172.269 569.741 172.536 569.848C172.803 569.944 173.085 569.992 173.384 569.992C174.483 569.992 175.032 569.48 175.032 568.456V562.232H176.456V568.536C176.456 569.357 176.195 570.003 175.672 570.472C175.16 570.931 174.397 571.16 173.384 571.16ZM174.163 560.84C173.491 560.84 173.017 560.707 172.739 560.44C172.462 560.163 172.323 559.853 172.323 559.512C172.323 559.352 172.35 559.181 172.403 559C172.446 558.808 172.505 558.653 172.579 558.536L173.779 558.744C173.715 558.872 173.683 559.037 173.683 559.24C173.683 559.379 173.726 559.501 173.811 559.608C173.897 559.704 174.041 559.752 174.243 559.752H178.291V560.84H174.163ZM173.736 556.464V555.904C173.949 555.851 174.178 555.765 174.424 555.648C174.658 555.531 174.776 555.355 174.776 555.12C174.776 554.875 174.653 554.752 174.408 554.752C174.237 554.752 174.061 554.805 173.88 554.912L173.592 554.176C173.784 554.048 174.002 553.963 174.248 553.92C174.482 553.877 174.669 553.856 174.808 553.856C175.085 553.856 175.336 553.931 175.56 554.08C175.784 554.219 175.896 554.459 175.896 554.8C175.896 554.885 175.885 554.981 175.864 555.088C175.842 555.195 175.805 555.296 175.752 555.392H177.768V556.464H173.736ZM181.35 571.16C180.411 571.16 179.67 570.915 179.126 570.424C178.593 569.933 178.326 569.155 178.326 568.088V562.232H179.75V568.008C179.75 569.309 180.385 569.96 181.654 569.96C182.401 569.96 182.977 569.72 183.382 569.24C183.798 568.76 184.006 568.115 184.006 567.304V562.232H185.43V571H184.246L184.182 569.704H184.102C183.91 570.131 183.574 570.483 183.094 570.76C182.625 571.027 182.043 571.16 181.35 571.16ZM191.003 571.16C190.107 571.16 189.413 570.957 188.923 570.552C188.432 570.136 188.091 569.576 187.899 568.872C187.707 568.157 187.611 567.347 187.611 566.44C187.611 564.883 187.829 563.768 188.267 563.096C188.715 562.413 189.355 562.072 190.187 562.072C190.56 562.072 190.875 562.136 191.131 562.264C191.397 562.392 191.584 562.605 191.691 562.904H191.755C191.861 562.595 192.053 562.381 192.331 562.264C192.608 562.136 192.933 562.072 193.307 562.072C194 562.072 194.533 562.259 194.907 562.632C195.291 562.995 195.483 563.555 195.483 564.312V571H194.059V564.328C194.059 563.912 193.968 563.629 193.787 563.48C193.605 563.331 193.376 563.256 193.099 563.256C192.789 563.256 192.56 563.331 192.411 563.48C192.272 563.629 192.187 563.875 192.155 564.216H191.259C191.216 563.843 191.104 563.592 190.923 563.464C190.741 563.325 190.539 563.256 190.315 563.256C189.888 563.256 189.568 563.507 189.355 564.008C189.141 564.499 189.035 565.315 189.035 566.456C189.035 567.192 189.088 567.821 189.195 568.344C189.312 568.867 189.525 569.272 189.835 569.56C190.144 569.837 190.592 569.976 191.179 569.976C191.392 569.976 191.568 569.965 191.707 569.944C191.845 569.923 191.979 569.896 192.107 569.864L192.251 570.952C192.091 571.027 191.899 571.08 191.675 571.112C191.451 571.144 191.227 571.16 191.003 571.16ZM200.934 571.16C199.782 571.16 198.918 570.861 198.342 570.264C197.777 569.656 197.494 568.707 197.494 567.416C197.494 567.203 197.5 566.973 197.51 566.728C197.532 566.472 197.553 566.221 197.574 565.976H200.934V567.096H198.918V567.416C198.918 568.088 198.993 568.616 199.142 569C199.292 569.373 199.51 569.635 199.798 569.784C200.097 569.933 200.465 570.008 200.902 570.008C201.382 570.008 201.798 569.917 202.15 569.736C202.502 569.555 202.774 569.224 202.966 568.744C203.158 568.264 203.254 567.576 203.254 566.68C203.254 565.507 203.052 564.643 202.646 564.088C202.252 563.533 201.564 563.256 200.582 563.256C200.07 563.256 199.58 563.325 199.11 563.464C198.652 563.592 198.209 563.779 197.782 564.024V562.696C198.102 562.525 198.524 562.381 199.046 562.264C199.569 562.136 200.14 562.072 200.758 562.072C201.697 562.072 202.454 562.264 203.03 562.648C203.617 563.021 204.044 563.555 204.31 564.248C204.577 564.931 204.71 565.741 204.71 566.68C204.71 567.619 204.588 568.424 204.342 569.096C204.097 569.768 203.697 570.28 203.142 570.632C202.598 570.984 201.862 571.16 200.934 571.16ZM209.802 571.16C208.863 571.16 208.122 570.915 207.578 570.424C207.045 569.933 206.778 569.155 206.778 568.088V562.232H208.202V568.008C208.202 569.309 208.837 569.96 210.106 569.96C210.853 569.96 211.429 569.72 211.834 569.24C212.25 568.76 212.458 568.115 212.458 567.304V562.232H213.882V571H212.698L212.634 569.704H212.554C212.362 570.131 212.026 570.483 211.546 570.76C211.077 571.027 210.495 571.16 209.802 571.16ZM216.398 571V562.232H217.39L217.646 563.624H217.71C217.892 563.144 218.222 562.765 218.702 562.488C219.182 562.211 219.764 562.072 220.446 562.072C221.396 562.072 222.142 562.317 222.686 562.808C223.23 563.299 223.502 564.077 223.502 565.144V571H222.078V565.224C222.078 563.923 221.444 563.272 220.174 563.272C219.673 563.272 219.246 563.389 218.894 563.624C218.542 563.859 218.276 564.179 218.094 564.584C217.913 564.979 217.822 565.427 217.822 565.928V571H216.398ZM216.294 560.84V560.216L217.462 559.704H221.766V558.408H223.11V560.216H223.094V560.84H216.294ZM221.51 557.464V554.856H222.87V557.464H221.51Z" fill="#49474A"/>
<path d="M243.847 564.504C244.945 564.611 245.783 564.952 246.359 565.528C246.935 566.093 247.223 566.819 247.223 567.704C247.223 568.344 247.063 568.925 246.743 569.448C246.423 569.96 245.943 570.371 245.303 570.68C244.673 570.979 243.9 571.128 242.983 571.128C242.183 571.128 241.415 571.011 240.679 570.776C239.943 570.531 239.34 570.195 238.871 569.768L239.607 568.504C239.991 568.867 240.481 569.16 241.079 569.384C241.676 569.597 242.311 569.704 242.983 569.704C243.815 569.704 244.46 569.528 244.919 569.176C245.388 568.824 245.623 568.339 245.623 567.72C245.623 567.101 245.393 566.621 244.935 566.28C244.476 565.939 243.783 565.768 242.855 565.768H241.959V564.648L244.775 561.192H239.383V559.8H246.775V560.888L243.847 564.504Z" fill="white"/>
<rect x="108" y="722" width="209" height="14" fill="#49474A"/>
<rect x="123" y="594" width="179" height="120" rx="14" fill="#49474A"/>
<rect x="137" y="608" width="151" height="92" fill="white"/>
<path d="M150.517 660.18C149.809 660.18 149.149 660.114 148.537 659.982C147.937 659.838 147.427 659.67 147.007 659.478L147.475 658.182C147.859 658.338 148.315 658.488 148.843 658.632C149.383 658.776 149.953 658.848 150.553 658.848C151.189 658.848 151.717 658.728 152.137 658.488C152.557 658.248 152.767 657.9 152.767 657.444C152.767 657.036 152.599 656.7 152.263 656.436C151.927 656.172 151.387 655.926 150.643 655.698C149.887 655.458 149.245 655.206 148.717 654.942C148.201 654.666 147.805 654.342 147.529 653.97C147.265 653.586 147.133 653.112 147.133 652.548C147.133 651.804 147.439 651.186 148.051 650.694C148.663 650.202 149.641 649.956 150.985 649.956C151.561 649.956 152.101 650.01 152.605 650.118C153.121 650.214 153.523 650.352 153.811 650.532V651.882C153.511 651.738 153.097 651.6 152.569 651.468C152.041 651.336 151.495 651.27 150.931 651.27C150.127 651.27 149.557 651.396 149.221 651.648C148.897 651.888 148.735 652.164 148.735 652.476C148.735 652.74 148.807 652.962 148.951 653.142C149.107 653.322 149.365 653.496 149.725 653.664C150.097 653.832 150.595 654.024 151.219 654.24C151.795 654.432 152.323 654.654 152.803 654.906C153.283 655.158 153.661 655.476 153.937 655.86C154.225 656.232 154.369 656.712 154.369 657.3C154.369 657.804 154.243 658.278 153.991 658.722C153.751 659.154 153.349 659.508 152.785 659.784C152.221 660.048 151.465 660.18 150.517 660.18ZM159.756 660.18C158.46 660.18 157.488 659.844 156.84 659.172C156.204 658.488 155.886 657.42 155.886 655.968C155.886 655.728 155.892 655.47 155.904 655.194C155.928 654.906 155.952 654.624 155.976 654.348H159.756V655.608H157.488V655.968C157.488 656.724 157.572 657.318 157.74 657.75C157.908 658.17 158.154 658.464 158.478 658.632C158.814 658.8 159.228 658.884 159.72 658.884C160.26 658.884 160.728 658.782 161.124 658.578C161.52 658.374 161.826 658.002 162.042 657.462C162.258 656.922 162.366 656.148 162.366 655.14C162.366 653.82 162.138 652.848 161.682 652.224C161.238 651.6 160.464 651.288 159.36 651.288C158.784 651.288 158.232 651.366 157.704 651.522C157.188 651.666 156.69 651.876 156.21 652.152V650.658C156.57 650.466 157.044 650.304 157.632 650.172C158.22 650.028 158.862 649.956 159.558 649.956C160.614 649.956 161.466 650.172 162.114 650.604C162.774 651.024 163.254 651.624 163.554 652.404C163.854 653.172 164.004 654.084 164.004 655.14C164.004 656.196 163.866 657.102 163.59 657.858C163.314 658.614 162.864 659.19 162.24 659.586C161.628 659.982 160.8 660.18 159.756 660.18ZM169.696 660.18C168.736 660.18 167.98 659.958 167.428 659.514C166.888 659.058 166.504 658.446 166.276 657.678C166.06 656.91 165.952 656.064 165.952 655.14C165.952 653.784 166.138 652.734 166.51 651.99C166.882 651.234 167.398 650.706 168.058 650.406C168.73 650.106 169.504 649.956 170.38 649.956C171.82 649.956 172.864 650.268 173.512 650.892C174.172 651.516 174.502 652.362 174.502 653.43V660H172.918V653.574C172.918 652.83 172.732 652.266 172.36 651.882C171.988 651.486 171.346 651.288 170.434 651.288C169.882 651.288 169.384 651.39 168.94 651.594C168.508 651.798 168.166 652.176 167.914 652.728C167.674 653.28 167.554 654.09 167.554 655.158C167.554 655.854 167.62 656.484 167.752 657.048C167.896 657.6 168.142 658.038 168.49 658.362C168.838 658.686 169.324 658.848 169.948 658.848C170.128 658.848 170.296 658.836 170.452 658.812C170.608 658.788 170.758 658.752 170.902 658.704L171.064 659.946C170.872 660.03 170.65 660.09 170.398 660.126C170.158 660.162 169.924 660.18 169.696 660.18ZM171.892 664.77C171.124 664.77 170.542 664.614 170.146 664.302C169.738 664.002 169.534 663.57 169.534 663.006V662.7C169.534 662.496 169.486 662.37 169.39 662.322C169.282 662.286 169.138 662.292 168.958 662.34L168.85 661.26C169.018 661.212 169.186 661.182 169.354 661.17C169.51 661.158 169.63 661.152 169.714 661.152C170.146 661.152 170.458 661.248 170.65 661.44C170.83 661.632 170.92 661.902 170.92 662.25V662.862C170.92 663.09 170.992 663.282 171.136 663.438C171.28 663.594 171.526 663.672 171.874 663.672C172.234 663.672 172.486 663.594 172.63 663.438C172.762 663.282 172.828 663.09 172.828 662.862V661.206H174.232V662.952C174.232 664.164 173.452 664.77 171.892 664.77ZM176.972 660V651.882C176.972 651.366 177.074 650.97 177.278 650.694C177.482 650.418 177.746 650.226 178.07 650.118C178.394 650.01 178.742 649.956 179.114 649.956C179.246 649.956 179.414 649.974 179.618 650.01C179.834 650.046 180.02 650.1 180.176 650.172L179.978 651.378C179.858 651.342 179.738 651.318 179.618 651.306C179.498 651.282 179.402 651.27 179.33 651.27C179.03 651.27 178.82 651.342 178.7 651.486C178.592 651.63 178.538 651.834 178.538 652.098V654.888C178.538 655.26 178.532 655.65 178.52 656.058C178.52 656.454 178.502 656.934 178.466 657.498H178.538C178.778 656.97 179 656.532 179.204 656.184C179.408 655.824 179.6 655.488 179.78 655.176L180.734 653.556H181.742L182.696 655.176C182.972 655.656 183.206 656.07 183.398 656.418C183.59 656.754 183.77 657.114 183.938 657.498H184.01C183.974 656.934 183.95 656.454 183.938 656.058C183.938 655.65 183.938 655.26 183.938 654.888V650.136H185.504V660H184.082L181.292 655.284H181.22L178.394 660H176.972ZM190.965 660.18C189.909 660.18 189.099 659.94 188.535 659.46C187.983 658.968 187.707 658.266 187.707 657.354C187.707 656.358 188.067 655.59 188.787 655.05C189.519 654.51 190.701 654.192 192.333 654.096L194.061 653.988V653.43C194.061 652.65 193.881 652.098 193.521 651.774C193.173 651.438 192.585 651.27 191.757 651.27C191.157 651.27 190.581 651.354 190.029 651.522C189.489 651.678 188.973 651.9 188.481 652.188V650.694C188.829 650.514 189.297 650.346 189.885 650.19C190.485 650.034 191.157 649.956 191.901 649.956C193.161 649.956 194.097 650.232 194.709 650.784C195.333 651.324 195.645 652.176 195.645 653.34V660H194.061V655.32L192.549 655.428C191.325 655.512 190.479 655.704 190.011 656.004C189.555 656.304 189.327 656.742 189.327 657.318C189.327 657.858 189.495 658.254 189.831 658.506C190.179 658.758 190.659 658.884 191.271 658.884C191.667 658.884 192.015 658.83 192.315 658.722L192.567 659.928C192.339 660.012 192.087 660.072 191.811 660.108C191.547 660.156 191.265 660.18 190.965 660.18ZM198.297 660V653.7C198.297 652.488 198.621 651.564 199.269 650.928C199.917 650.28 200.949 649.956 202.365 649.956C203.793 649.956 204.825 650.28 205.461 650.928C206.109 651.564 206.433 652.488 206.433 653.7V660H204.831V653.7C204.831 652.092 204.003 651.288 202.347 651.288C200.715 651.288 199.899 652.092 199.899 653.7V655.698L199.953 655.716C200.217 655.248 200.541 654.942 200.925 654.798C201.309 654.642 201.849 654.564 202.545 654.564H203.139V655.878H202.545C201.813 655.878 201.255 655.98 200.871 656.184C200.499 656.388 200.241 656.658 200.097 656.994C199.965 657.318 199.899 657.684 199.899 658.092V660H198.297ZM204.693 649.002C204.093 649.002 203.619 648.864 203.271 648.588C202.923 648.3 202.749 647.898 202.749 647.382C202.749 646.854 202.923 646.452 203.271 646.176C203.619 645.9 204.093 645.762 204.693 645.762C205.293 645.762 205.773 645.9 206.133 646.176C206.493 646.452 206.673 646.854 206.673 647.382C206.673 647.898 206.493 648.3 206.133 648.588C205.773 648.864 205.293 649.002 204.693 649.002ZM204.693 648.156C204.981 648.156 205.203 648.084 205.359 647.94C205.503 647.796 205.575 647.61 205.575 647.382C205.575 647.142 205.503 646.956 205.359 646.824C205.203 646.68 204.981 646.608 204.693 646.608C204.417 646.608 204.207 646.68 204.063 646.824C203.907 646.956 203.829 647.142 203.829 647.382C203.829 647.61 203.907 647.796 204.063 647.94C204.207 648.084 204.417 648.156 204.693 648.156ZM211.603 660V652.998C211.603 652.41 211.465 651.978 211.189 651.702C210.925 651.426 210.475 651.288 209.839 651.288C209.407 651.288 208.999 651.348 208.615 651.468C208.243 651.576 207.883 651.732 207.535 651.936V650.496C207.775 650.376 208.117 650.256 208.561 650.136C209.005 650.016 209.533 649.956 210.145 649.956C211.081 649.956 211.825 650.166 212.377 650.586C212.929 651.006 213.205 651.732 213.205 652.764V660H211.603ZM219.258 660.18C218.202 660.18 217.368 659.904 216.756 659.352C216.156 658.8 215.856 657.924 215.856 656.724V650.136H217.458V656.634C217.458 658.098 218.172 658.83 219.6 658.83C220.44 658.83 221.088 658.56 221.544 658.02C222.012 657.48 222.246 656.754 222.246 655.842V650.136H223.848V660H222.516L222.444 658.542H222.354C222.138 659.022 221.76 659.418 221.22 659.73C220.692 660.03 220.038 660.18 219.258 660.18ZM228.605 660.18C228.137 660.18 227.681 660.132 227.237 660.036C226.805 659.94 226.343 659.76 225.851 659.496L226.355 658.272C226.619 658.428 226.919 658.566 227.255 658.686C227.591 658.794 227.981 658.848 228.425 658.848C229.313 658.848 230.003 658.524 230.495 657.876C230.999 657.216 231.251 656.268 231.251 655.032C231.251 653.82 230.993 652.896 230.477 652.26C229.973 651.612 229.193 651.288 228.137 651.288C227.753 651.288 227.363 651.33 226.967 651.414C226.571 651.498 226.223 651.624 225.923 651.792V650.442C226.271 650.262 226.649 650.136 227.057 650.064C227.477 649.992 227.897 649.956 228.317 649.956C229.397 649.956 230.273 650.172 230.945 650.604C231.617 651.024 232.109 651.612 232.421 652.368C232.733 653.124 232.889 654.012 232.889 655.032C232.889 656.616 232.529 657.87 231.809 658.794C231.101 659.718 230.033 660.18 228.605 660.18ZM237.248 660.18C236.912 660.18 236.588 660.126 236.276 660.018C235.976 659.91 235.73 659.718 235.538 659.442C235.358 659.166 235.268 658.782 235.268 658.29V656.544C235.268 655.8 235.424 655.26 235.736 654.924C236.06 654.588 236.48 654.354 236.996 654.222L237.014 654.168L234.944 653.412V652.818C234.944 652.29 235.1 651.81 235.412 651.378C235.736 650.946 236.186 650.604 236.762 650.352C237.35 650.088 238.034 649.956 238.814 649.956C239.474 649.956 240.098 650.064 240.686 650.28C241.286 650.496 241.772 650.856 242.144 651.36C242.516 651.852 242.702 652.512 242.702 653.34V656.778C242.702 657.498 242.864 658.02 243.188 658.344C243.524 658.668 243.968 658.83 244.52 658.83C245.24 658.83 245.822 658.56 246.266 658.02C246.71 657.48 246.932 656.772 246.932 655.896V650.136H248.534V660H247.22L247.13 658.434H247.04C246.836 658.986 246.47 659.418 245.942 659.73C245.426 660.03 244.844 660.18 244.196 660.18C243.284 660.18 242.54 659.928 241.964 659.424C241.388 658.92 241.1 658.08 241.1 656.904V653.502C241.1 652.926 240.992 652.476 240.776 652.152C240.56 651.828 240.272 651.606 239.912 651.486C239.564 651.354 239.192 651.288 238.796 651.288C238.16 651.288 237.632 651.426 237.212 651.702C236.804 651.978 236.594 652.38 236.582 652.908L238.634 653.88L238.49 654.744C238.046 654.744 237.662 654.882 237.338 655.158C237.026 655.434 236.87 655.89 236.87 656.526V658.11C236.87 658.614 237.122 658.866 237.626 658.866C237.878 658.866 238.1 658.83 238.292 658.758L238.526 659.91C238.298 660.018 238.076 660.09 237.86 660.126C237.656 660.162 237.452 660.18 237.248 660.18ZM251.435 660.18C251.219 660.18 251.009 660.156 250.805 660.108C250.601 660.072 250.397 660.006 250.193 659.91L250.373 658.794C250.457 658.818 250.553 658.842 250.661 658.866C250.769 658.89 250.871 658.902 250.967 658.902C251.327 658.902 251.507 658.662 251.507 658.182V656.508C251.507 655.764 251.645 655.23 251.921 654.906C252.197 654.57 252.593 654.342 253.109 654.222L253.127 654.168L251.057 653.412V652.818C251.057 652.326 251.213 651.864 251.525 651.432C251.849 650.988 252.317 650.634 252.929 650.37C253.541 650.094 254.273 649.956 255.125 649.956C255.869 649.956 256.553 650.076 257.177 650.316C257.801 650.544 258.299 650.91 258.671 651.414C259.055 651.906 259.247 652.554 259.247 653.358V660H257.645V653.52C257.645 652.716 257.399 652.146 256.907 651.81C256.415 651.462 255.815 651.288 255.107 651.288C254.363 651.288 253.775 651.444 253.343 651.756C252.911 652.056 252.695 652.44 252.695 652.908L254.747 653.88L254.603 654.744C254.159 654.744 253.799 654.888 253.523 655.176C253.247 655.464 253.109 655.926 253.109 656.562V658.308C253.109 659.04 252.947 659.538 252.623 659.802C252.299 660.054 251.903 660.18 251.435 660.18ZM264.675 660V652.998C264.675 652.41 264.537 651.978 264.261 651.702C263.997 651.426 263.547 651.288 262.911 651.288C262.479 651.288 262.071 651.348 261.687 651.468C261.315 651.576 260.955 651.732 260.607 651.936V650.496C260.847 650.376 261.189 650.256 261.633 650.136C262.077 650.016 262.605 649.956 263.217 649.956C264.153 649.956 264.897 650.166 265.449 650.586C266.001 651.006 266.277 651.732 266.277 652.764V660H264.675ZM273.032 660.18C271.544 660.18 270.488 659.85 269.864 659.19C269.24 658.518 268.928 657.57 268.928 656.346V650.136H270.53V656.364C270.53 657.204 270.728 657.828 271.124 658.236C271.52 658.644 272.156 658.848 273.032 658.848C273.908 658.848 274.544 658.644 274.94 658.236C275.336 657.828 275.534 657.204 275.534 656.364V655.932H274.13C273.362 655.932 272.834 655.77 272.546 655.446C272.27 655.122 272.132 654.762 272.132 654.366C272.132 654.186 272.156 654 272.204 653.808C272.252 653.616 272.318 653.454 272.402 653.322L273.698 653.556C273.626 653.7 273.59 653.874 273.59 654.078C273.59 654.234 273.632 654.378 273.716 654.51C273.812 654.642 273.974 654.708 274.202 654.708H275.534V650.136H277.136V654.708H278.288V655.932H277.136V656.346C277.136 657.57 276.824 658.518 276.2 659.19C275.576 659.85 274.52 660.18 273.032 660.18ZM269.215 648.57V647.868L270.529 647.292H275.371V645.834H276.883V647.868H276.865V648.57H269.215Z" fill="#49474A"/>
</svg>
