<svg width="887" height="224" viewBox="0 0 887 224" fill="none" xmlns="http://www.w3.org/2000/svg">
<circle cx="185" cy="37" r="13" fill="#57A3B3"/>
<path d="M115.384 43.16C114.381 43.16 113.603 42.92 113.048 42.44C112.504 41.9493 112.232 41.2187 112.232 40.248V39.272C112.232 38.7387 112.307 38.3173 112.456 38.008C112.605 37.6987 112.765 37.432 112.936 37.208C113.117 36.9627 113.272 36.7493 113.4 36.568C113.539 36.3867 113.608 36.168 113.608 35.912C113.608 35.688 113.549 35.528 113.432 35.432C113.325 35.336 113.187 35.288 113.016 35.288C112.888 35.288 112.749 35.3093 112.6 35.352C112.461 35.3947 112.323 35.448 112.184 35.512L111.864 34.488C112.056 34.36 112.291 34.2693 112.568 34.216C112.856 34.1627 113.107 34.136 113.32 34.136C113.917 34.136 114.339 34.2907 114.584 34.6C114.829 34.8987 114.952 35.2827 114.952 35.752C114.952 36.1467 114.883 36.472 114.744 36.728C114.616 36.984 114.461 37.2347 114.28 37.48C114.099 37.7467 113.949 38.0027 113.832 38.248C113.715 38.4933 113.656 38.8133 113.656 39.208V40.152C113.656 40.6427 113.736 41.0213 113.896 41.288C114.056 41.5547 114.269 41.7413 114.536 41.848C114.803 41.944 115.085 41.992 115.384 41.992C116.483 41.992 117.032 41.48 117.032 40.456V34.232H118.456V40.536C118.456 41.3573 118.195 42.0027 117.672 42.472C117.16 42.9307 116.397 43.16 115.384 43.16ZM116.163 32.84C115.491 32.84 115.017 32.7067 114.739 32.44C114.462 32.1627 114.323 31.8533 114.323 31.512C114.323 31.352 114.35 31.1813 114.403 31C114.446 30.808 114.505 30.6533 114.579 30.536L115.779 30.744C115.715 30.872 115.683 31.0373 115.683 31.24C115.683 31.3787 115.726 31.5013 115.811 31.608C115.897 31.704 116.041 31.752 116.243 31.752H120.291V32.84H116.163ZM115.736 28.464V27.904C115.949 27.8507 116.178 27.7653 116.424 27.648C116.658 27.5307 116.776 27.3547 116.776 27.12C116.776 26.8747 116.653 26.752 116.408 26.752C116.237 26.752 116.061 26.8053 115.88 26.912L115.592 26.176C115.784 26.048 116.002 25.9627 116.248 25.92C116.482 25.8773 116.669 25.856 116.808 25.856C117.085 25.856 117.336 25.9307 117.56 26.08C117.784 26.2187 117.896 26.4587 117.896 26.8C117.896 26.8853 117.885 26.9813 117.864 27.088C117.842 27.1947 117.805 27.296 117.752 27.392H119.768V28.464H115.736ZM123.35 43.16C122.411 43.16 121.67 42.9147 121.126 42.424C120.593 41.9333 120.326 41.1547 120.326 40.088V34.232H121.75V40.008C121.75 41.3093 122.385 41.96 123.654 41.96C124.401 41.96 124.977 41.72 125.382 41.24C125.798 40.76 126.006 40.1147 126.006 39.304V34.232H127.43V43H126.246L126.182 41.704H126.102C125.91 42.1307 125.574 42.4827 125.094 42.76C124.625 43.0267 124.043 43.16 123.35 43.16ZM133.003 43.16C132.107 43.16 131.413 42.9573 130.923 42.552C130.432 42.136 130.091 41.576 129.899 40.872C129.707 40.1573 129.611 39.3467 129.611 38.44C129.611 36.8827 129.829 35.768 130.267 35.096C130.715 34.4133 131.355 34.072 132.187 34.072C132.56 34.072 132.875 34.136 133.131 34.264C133.397 34.392 133.584 34.6053 133.691 34.904H133.755C133.861 34.5947 134.053 34.3813 134.331 34.264C134.608 34.136 134.933 34.072 135.307 34.072C136 34.072 136.533 34.2587 136.907 34.632C137.291 34.9947 137.483 35.5547 137.483 36.312V43H136.059V36.328C136.059 35.912 135.968 35.6293 135.787 35.48C135.605 35.3307 135.376 35.256 135.099 35.256C134.789 35.256 134.56 35.3307 134.411 35.48C134.272 35.6293 134.187 35.8747 134.155 36.216H133.259C133.216 35.8427 133.104 35.592 132.923 35.464C132.741 35.3253 132.539 35.256 132.315 35.256C131.888 35.256 131.568 35.5067 131.355 36.008C131.141 36.4987 131.035 37.3147 131.035 38.456C131.035 39.192 131.088 39.8213 131.195 40.344C131.312 40.8667 131.525 41.272 131.835 41.56C132.144 41.8373 132.592 41.976 133.179 41.976C133.392 41.976 133.568 41.9653 133.707 41.944C133.845 41.9227 133.979 41.896 134.107 41.864L134.251 42.952C134.091 43.0267 133.899 43.08 133.675 43.112C133.451 43.144 133.227 43.16 133.003 43.16ZM142.934 43.16C141.782 43.16 140.918 42.8613 140.342 42.264C139.777 41.656 139.494 40.7067 139.494 39.416C139.494 39.2027 139.5 38.9733 139.51 38.728C139.532 38.472 139.553 38.2213 139.574 37.976H142.934V39.096H140.918V39.416C140.918 40.088 140.993 40.616 141.142 41C141.292 41.3733 141.51 41.6347 141.798 41.784C142.097 41.9333 142.465 42.008 142.902 42.008C143.382 42.008 143.798 41.9173 144.15 41.736C144.502 41.5547 144.774 41.224 144.966 40.744C145.158 40.264 145.254 39.576 145.254 38.68C145.254 37.5067 145.052 36.6427 144.646 36.088C144.252 35.5333 143.564 35.256 142.582 35.256C142.07 35.256 141.58 35.3253 141.11 35.464C140.652 35.592 140.209 35.7787 139.782 36.024V34.696C140.102 34.5253 140.524 34.3813 141.046 34.264C141.569 34.136 142.14 34.072 142.758 34.072C143.697 34.072 144.454 34.264 145.03 34.648C145.617 35.0213 146.044 35.5547 146.31 36.248C146.577 36.9307 146.71 37.7413 146.71 38.68C146.71 39.6187 146.588 40.424 146.342 41.096C146.097 41.768 145.697 42.28 145.142 42.632C144.598 42.984 143.862 43.16 142.934 43.16ZM151.802 43.16C150.863 43.16 150.122 42.9147 149.578 42.424C149.045 41.9333 148.778 41.1547 148.778 40.088V34.232H150.202V40.008C150.202 41.3093 150.837 41.96 152.106 41.96C152.853 41.96 153.429 41.72 153.834 41.24C154.25 40.76 154.458 40.1147 154.458 39.304V34.232H155.882V43H154.698L154.634 41.704H154.554C154.362 42.1307 154.026 42.4827 153.546 42.76C153.077 43.0267 152.495 43.16 151.802 43.16ZM158.398 43V34.232H159.39L159.646 35.624H159.71C159.892 35.144 160.222 34.7653 160.702 34.488C161.182 34.2107 161.764 34.072 162.446 34.072C163.396 34.072 164.142 34.3173 164.686 34.808C165.23 35.2987 165.502 36.0773 165.502 37.144V43H164.078V37.224C164.078 35.9227 163.444 35.272 162.174 35.272C161.673 35.272 161.246 35.3893 160.894 35.624C160.542 35.8587 160.276 36.1787 160.094 36.584C159.913 36.9787 159.822 37.4267 159.822 37.928V43H158.398ZM158.294 32.84V32.216L159.462 31.704H163.766V30.408H165.11V32.216H165.094V32.84H158.294ZM163.51 29.464V26.856H164.87V29.464H163.51Z" fill="#49474A"/>
<path d="M186.552 31.8V43H184.968V33.192H182.44V31.8H186.552Z" fill="white"/>
<rect x="50" y="194" width="209" height="14" fill="#49474A"/>
<rect x="65" y="66" width="179" height="120" rx="14" fill="#49474A"/>
<rect x="79" y="80" width="151" height="92" fill="white"/>
<path d="M91.6618 116V112.58C91.6618 111.824 91.8298 111.278 92.1658 110.942C92.5018 110.594 92.9278 110.354 93.4438 110.222L93.4618 110.168L91.4818 109.412V108.818C91.4818 108.326 91.6438 107.864 91.9678 107.432C92.2918 106.988 92.7538 106.634 93.3538 106.37C93.9658 106.094 94.6918 105.956 95.5318 105.956C96.2638 105.956 96.9418 106.076 97.5658 106.316C98.1898 106.544 98.6878 106.91 99.0598 107.414C99.4438 107.906 99.6358 108.554 99.6358 109.358V116H98.0338V109.52C98.0338 108.716 97.7878 108.146 97.2958 107.81C96.8158 107.462 96.2218 107.288 95.5138 107.288C94.7818 107.288 94.1998 107.444 93.7678 107.756C93.3358 108.056 93.1198 108.44 93.1198 108.908L95.0638 109.88L94.9198 110.744C94.4758 110.744 94.0858 110.894 93.7498 111.194C93.4258 111.482 93.2638 111.944 93.2638 112.58V116H91.6618ZM105.047 116.18C104.339 116.18 103.679 116.114 103.067 115.982C102.467 115.838 101.957 115.67 101.537 115.478L102.005 114.182C102.389 114.338 102.845 114.488 103.373 114.632C103.913 114.776 104.483 114.848 105.083 114.848C105.719 114.848 106.247 114.728 106.667 114.488C107.087 114.248 107.297 113.9 107.297 113.444C107.297 113.036 107.129 112.7 106.793 112.436C106.457 112.172 105.917 111.926 105.173 111.698C104.417 111.458 103.775 111.206 103.247 110.942C102.731 110.666 102.335 110.342 102.059 109.97C101.795 109.586 101.663 109.112 101.663 108.548C101.663 107.804 101.969 107.186 102.581 106.694C103.193 106.202 104.171 105.956 105.515 105.956C106.091 105.956 106.631 106.01 107.135 106.118C107.651 106.214 108.053 106.352 108.341 106.532V107.882C108.041 107.738 107.627 107.6 107.099 107.468C106.571 107.336 106.025 107.27 105.461 107.27C104.657 107.27 104.087 107.396 103.751 107.648C103.427 107.888 103.265 108.164 103.265 108.476C103.265 108.74 103.337 108.962 103.481 109.142C103.637 109.322 103.895 109.496 104.255 109.664C104.627 109.832 105.125 110.024 105.749 110.24C106.325 110.432 106.853 110.654 107.333 110.906C107.813 111.158 108.191 111.476 108.467 111.86C108.755 112.232 108.899 112.712 108.899 113.3C108.899 113.804 108.773 114.278 108.521 114.722C108.281 115.154 107.879 115.508 107.315 115.784C106.751 116.048 105.995 116.18 105.047 116.18ZM114.286 116.18C112.99 116.18 112.018 115.844 111.37 115.172C110.734 114.488 110.416 113.42 110.416 111.968C110.416 111.728 110.422 111.47 110.434 111.194C110.458 110.906 110.482 110.624 110.506 110.348H114.286V111.608H112.018V111.968C112.018 112.724 112.102 113.318 112.27 113.75C112.438 114.17 112.684 114.464 113.008 114.632C113.344 114.8 113.758 114.884 114.25 114.884C114.79 114.884 115.258 114.782 115.654 114.578C116.05 114.374 116.356 114.002 116.572 113.462C116.788 112.922 116.896 112.148 116.896 111.14C116.896 109.82 116.668 108.848 116.212 108.224C115.768 107.6 114.994 107.288 113.89 107.288C113.314 107.288 112.762 107.366 112.234 107.522C111.718 107.666 111.22 107.876 110.74 108.152V106.658C111.1 106.466 111.574 106.304 112.162 106.172C112.75 106.028 113.392 105.956 114.088 105.956C115.144 105.956 115.996 106.172 116.644 106.604C117.304 107.024 117.784 107.624 118.084 108.404C118.384 109.172 118.534 110.084 118.534 111.14C118.534 112.196 118.396 113.102 118.12 113.858C117.844 114.614 117.394 115.19 116.77 115.586C116.158 115.982 115.33 116.18 114.286 116.18ZM120.77 116V112.58C120.77 111.824 120.938 111.278 121.274 110.942C121.61 110.594 122.036 110.354 122.552 110.222L122.57 110.168L120.59 109.412V108.818C120.59 108.326 120.752 107.864 121.076 107.432C121.4 106.988 121.862 106.634 122.462 106.37C123.074 106.094 123.8 105.956 124.64 105.956C125.372 105.956 126.05 106.076 126.674 106.316C127.298 106.544 127.796 106.91 128.168 107.414C128.552 107.906 128.744 108.554 128.744 109.358V116H127.142V109.52C127.142 108.716 126.896 108.146 126.404 107.81C125.924 107.462 125.33 107.288 124.622 107.288C123.89 107.288 123.308 107.444 122.876 107.756C122.444 108.056 122.228 108.44 122.228 108.908L124.172 109.88L124.028 110.744C123.584 110.744 123.194 110.894 122.858 111.194C122.534 111.482 122.372 111.944 122.372 112.58V116H120.77ZM134.857 116.18C133.729 116.18 132.853 115.91 132.229 115.37C131.617 114.818 131.311 113.996 131.311 112.904V111.806C131.311 111.206 131.395 110.732 131.563 110.384C131.731 110.036 131.911 109.736 132.103 109.484C132.307 109.208 132.481 108.968 132.625 108.764C132.781 108.56 132.859 108.314 132.859 108.026C132.859 107.774 132.793 107.594 132.661 107.486C132.541 107.378 132.385 107.324 132.193 107.324C132.049 107.324 131.893 107.348 131.725 107.396C131.569 107.444 131.413 107.504 131.257 107.576L130.897 106.424C131.113 106.28 131.377 106.178 131.689 106.118C132.013 106.058 132.295 106.028 132.535 106.028C133.207 106.028 133.681 106.202 133.957 106.55C134.233 106.886 134.371 107.318 134.371 107.846C134.371 108.29 134.293 108.656 134.137 108.944C133.993 109.232 133.819 109.514 133.615 109.79C133.411 110.09 133.243 110.378 133.111 110.654C132.979 110.93 132.913 111.29 132.913 111.734V112.796C132.913 113.348 133.003 113.774 133.183 114.074C133.363 114.374 133.603 114.584 133.903 114.704C134.203 114.812 134.521 114.866 134.857 114.866C136.093 114.866 136.711 114.29 136.711 113.138V106.136H138.313V113.228C138.313 114.152 138.019 114.878 137.431 115.406C136.855 115.922 135.997 116.18 134.857 116.18ZM132.998 104.57V103.778C133.238 103.73 133.484 103.664 133.736 103.58C133.988 103.484 134.198 103.364 134.366 103.22C134.534 103.064 134.618 102.878 134.618 102.662C134.618 102.518 134.576 102.398 134.492 102.302C134.396 102.194 134.252 102.14 134.06 102.14C133.94 102.14 133.82 102.164 133.7 102.212C133.568 102.26 133.454 102.302 133.358 102.338L132.998 101.348C133.238 101.156 133.508 101.03 133.808 100.97C134.096 100.91 134.33 100.88 134.51 100.88C134.99 100.88 135.368 101.012 135.644 101.276C135.908 101.54 136.04 101.876 136.04 102.284C136.04 102.488 136.004 102.68 135.932 102.86C135.86 103.028 135.77 103.178 135.662 103.31H138.578V104.57H132.998ZM144.178 116.18C142.882 116.18 141.91 115.844 141.262 115.172C140.626 114.488 140.308 113.42 140.308 111.968C140.308 111.728 140.314 111.47 140.326 111.194C140.35 110.906 140.374 110.624 140.398 110.348H144.178V111.608H141.91V111.968C141.91 112.724 141.994 113.318 142.162 113.75C142.33 114.17 142.576 114.464 142.9 114.632C143.236 114.8 143.65 114.884 144.142 114.884C144.682 114.884 145.15 114.782 145.546 114.578C145.942 114.374 146.248 114.002 146.464 113.462C146.68 112.922 146.788 112.148 146.788 111.14C146.788 109.82 146.56 108.848 146.104 108.224C145.66 107.6 144.886 107.288 143.782 107.288C143.206 107.288 142.654 107.366 142.126 107.522C141.61 107.666 141.112 107.876 140.632 108.152V106.658C140.992 106.466 141.466 106.304 142.054 106.172C142.642 106.028 143.284 105.956 143.98 105.956C145.036 105.956 145.888 106.172 146.536 106.604C147.196 107.024 147.676 107.624 147.976 108.404C148.276 109.172 148.426 110.084 148.426 111.14C148.426 112.196 148.288 113.102 148.012 113.858C147.736 114.614 147.286 115.19 146.662 115.586C146.05 115.982 145.222 116.18 144.178 116.18ZM155.504 116.18C154.736 116.18 154.07 116.03 153.506 115.73C152.954 115.418 152.576 114.986 152.372 114.434H152.3L152.21 116H150.896V106.136H152.498V111.842C152.498 112.754 152.732 113.48 153.2 114.02C153.668 114.56 154.328 114.83 155.18 114.83C156.584 114.83 157.286 114.098 157.286 112.634V106.136H158.888V112.742C158.888 113.93 158.588 114.8 157.988 115.352C157.4 115.904 156.572 116.18 155.504 116.18ZM155.875 120.77C155.107 120.77 154.525 120.614 154.129 120.302C153.721 120.002 153.517 119.57 153.517 119.006V118.7C153.517 118.496 153.469 118.37 153.373 118.322C153.265 118.286 153.121 118.292 152.941 118.34L152.833 117.26C153.001 117.212 153.169 117.182 153.337 117.17C153.493 117.158 153.613 117.152 153.697 117.152C154.129 117.152 154.441 117.248 154.633 117.44C154.813 117.632 154.903 117.902 154.903 118.25V118.862C154.903 119.09 154.975 119.282 155.119 119.438C155.263 119.594 155.509 119.672 155.857 119.672C156.217 119.672 156.469 119.594 156.613 119.438C156.745 119.282 156.811 119.09 156.811 118.862V117.206H158.215V118.952C158.215 120.164 157.435 120.77 155.875 120.77ZM163.951 116.18C162.895 116.18 162.085 115.94 161.521 115.46C160.969 114.968 160.693 114.266 160.693 113.354C160.693 112.358 161.053 111.59 161.773 111.05C162.505 110.51 163.687 110.192 165.319 110.096L167.047 109.988V109.43C167.047 108.65 166.867 108.098 166.507 107.774C166.159 107.438 165.571 107.27 164.743 107.27C164.143 107.27 163.567 107.354 163.015 107.522C162.475 107.678 161.959 107.9 161.467 108.188V106.694C161.815 106.514 162.283 106.346 162.871 106.19C163.471 106.034 164.143 105.956 164.887 105.956C166.147 105.956 167.083 106.232 167.695 106.784C168.319 107.324 168.631 108.176 168.631 109.34V116H167.047V111.32L165.535 111.428C164.311 111.512 163.465 111.704 162.997 112.004C162.541 112.304 162.313 112.742 162.313 113.318C162.313 113.858 162.481 114.254 162.817 114.506C163.165 114.758 163.645 114.884 164.257 114.884C164.653 114.884 165.001 114.83 165.301 114.722L165.553 115.928C165.325 116.012 165.073 116.072 164.797 116.108C164.533 116.156 164.251 116.18 163.951 116.18ZM173.964 116.18C172.908 116.18 172.098 115.94 171.534 115.46C170.982 114.968 170.706 114.266 170.706 113.354C170.706 112.358 171.066 111.59 171.786 111.05C172.518 110.51 173.7 110.192 175.332 110.096L177.06 109.988V109.43C177.06 108.65 176.88 108.098 176.52 107.774C176.172 107.438 175.584 107.27 174.756 107.27C174.156 107.27 173.58 107.354 173.028 107.522C172.488 107.678 171.972 107.9 171.48 108.188V106.694C171.828 106.514 172.296 106.346 172.884 106.19C173.484 106.034 174.156 105.956 174.9 105.956C175.38 105.956 175.806 105.998 176.178 106.082C176.562 106.166 176.88 106.31 177.132 106.514C177.336 106.418 177.51 106.286 177.654 106.118C177.798 105.95 177.87 105.74 177.87 105.488H179.436C179.436 105.944 179.304 106.328 179.04 106.64C178.788 106.952 178.464 107.192 178.068 107.36C178.272 107.576 178.416 107.852 178.5 108.188C178.596 108.524 178.644 108.908 178.644 109.34V116H177.06V111.32L175.548 111.428C174.324 111.512 173.478 111.704 173.01 112.004C172.554 112.304 172.326 112.742 172.326 113.318C172.326 113.858 172.494 114.254 172.83 114.506C173.178 114.758 173.658 114.884 174.27 114.884C174.666 114.884 175.014 114.83 175.314 114.722L175.566 115.928C175.338 116.012 175.086 116.072 174.81 116.108C174.546 116.156 174.264 116.18 173.964 116.18ZM176.774 104.57V100.772H178.358V104.57H176.774ZM183.023 116.18C182.555 116.18 182.099 116.132 181.655 116.036C181.223 115.94 180.761 115.76 180.269 115.496L180.773 114.272C181.037 114.428 181.337 114.566 181.673 114.686C182.009 114.794 182.399 114.848 182.843 114.848C183.731 114.848 184.421 114.524 184.913 113.876C185.417 113.216 185.669 112.268 185.669 111.032C185.669 109.82 185.411 108.896 184.895 108.26C184.391 107.612 183.611 107.288 182.555 107.288C182.171 107.288 181.781 107.33 181.385 107.414C180.989 107.498 180.641 107.624 180.341 107.792V106.442C180.689 106.262 181.067 106.136 181.475 106.064C181.895 105.992 182.315 105.956 182.735 105.956C183.815 105.956 184.691 106.172 185.363 106.604C186.035 107.024 186.527 107.612 186.839 108.368C187.151 109.124 187.307 110.012 187.307 111.032C187.307 112.616 186.947 113.87 186.227 114.794C185.519 115.718 184.451 116.18 183.023 116.18ZM193.034 116.18C191.978 116.18 191.144 115.904 190.532 115.352C189.932 114.8 189.632 113.924 189.632 112.724V106.136H191.234V112.634C191.234 114.098 191.948 114.83 193.376 114.83C194.216 114.83 194.864 114.56 195.32 114.02C195.788 113.48 196.022 112.754 196.022 111.842V106.136H197.624V116H196.292L196.22 114.542H196.13C195.914 115.022 195.536 115.418 194.996 115.73C194.468 116.03 193.814 116.18 193.034 116.18ZM203.893 116.18C202.885 116.18 202.105 115.952 201.553 115.496C201.001 115.028 200.617 114.398 200.401 113.606C200.185 112.802 200.077 111.89 200.077 110.87C200.077 109.118 200.323 107.864 200.815 107.108C201.319 106.34 202.039 105.956 202.975 105.956C203.395 105.956 203.749 106.028 204.037 106.172C204.337 106.316 204.547 106.556 204.667 106.892H204.739C204.859 106.544 205.075 106.304 205.387 106.172C205.699 106.028 206.065 105.956 206.485 105.956C207.265 105.956 207.865 106.166 208.285 106.586C208.717 106.994 208.933 107.624 208.933 108.476V116H207.331V108.494C207.331 108.026 207.229 107.708 207.025 107.54C206.821 107.372 206.563 107.288 206.251 107.288C205.903 107.288 205.645 107.372 205.477 107.54C205.321 107.708 205.225 107.984 205.189 108.368H204.181C204.133 107.948 204.007 107.666 203.803 107.522C203.599 107.366 203.371 107.288 203.119 107.288C202.639 107.288 202.279 107.57 202.039 108.134C201.799 108.686 201.679 109.604 201.679 110.888C201.679 111.716 201.739 112.424 201.859 113.012C201.991 113.6 202.231 114.056 202.579 114.38C202.927 114.692 203.431 114.848 204.091 114.848C204.331 114.848 204.529 114.836 204.685 114.812C204.841 114.788 204.991 114.758 205.135 114.722L205.297 115.946C205.117 116.03 204.901 116.09 204.649 116.126C204.397 116.162 204.145 116.18 203.893 116.18ZM206.159 104.57C205.403 104.57 204.869 104.42 204.557 104.12C204.245 103.808 204.089 103.46 204.089 103.076C204.089 102.896 204.119 102.704 204.179 102.5C204.227 102.284 204.293 102.11 204.377 101.978L205.727 102.212C205.655 102.356 205.619 102.542 205.619 102.77C205.619 102.926 205.667 103.064 205.763 103.184C205.859 103.292 206.021 103.346 206.249 103.346H210.803V104.57H206.159ZM213.285 116.18C212.817 116.18 212.361 116.132 211.917 116.036C211.485 115.94 211.023 115.76 210.531 115.496L211.035 114.272C211.299 114.428 211.599 114.566 211.935 114.686C212.271 114.794 212.661 114.848 213.105 114.848C213.993 114.848 214.683 114.524 215.175 113.876C215.679 113.216 215.931 112.268 215.931 111.032C215.931 109.82 215.673 108.896 215.157 108.26C214.653 107.612 213.873 107.288 212.817 107.288C212.433 107.288 212.043 107.33 211.647 107.414C211.251 107.498 210.903 107.624 210.603 107.792V106.442C210.951 106.262 211.329 106.136 211.737 106.064C212.157 105.992 212.577 105.956 212.997 105.956C214.077 105.956 214.953 106.172 215.625 106.604C216.297 107.024 216.789 107.612 217.101 108.368C217.413 109.124 217.569 110.012 217.569 111.032C217.569 112.616 217.209 113.87 216.489 114.794C215.781 115.718 214.713 116.18 213.285 116.18ZM104.524 148.18C104.2 148.18 103.888 148.126 103.588 148.018C103.288 147.91 103.042 147.718 102.85 147.442C102.658 147.166 102.562 146.782 102.562 146.29V138.136H104.164V146.092C104.164 146.368 104.224 146.566 104.344 146.686C104.464 146.806 104.656 146.866 104.92 146.866C105.028 146.866 105.142 146.854 105.262 146.83C105.382 146.806 105.496 146.776 105.604 146.74L105.82 147.91C105.592 148.018 105.37 148.09 105.154 148.126C104.938 148.162 104.728 148.18 104.524 148.18ZM109.438 148.18C109.114 148.18 108.802 148.126 108.502 148.018C108.202 147.91 107.956 147.718 107.764 147.442C107.572 147.166 107.476 146.782 107.476 146.29V138.136H109.078V146.092C109.078 146.368 109.138 146.566 109.258 146.686C109.378 146.806 109.57 146.866 109.834 146.866C109.942 146.866 110.056 146.854 110.176 146.83C110.296 146.806 110.41 146.776 110.518 146.74L110.734 147.91C110.506 148.018 110.284 148.09 110.068 148.126C109.852 148.162 109.642 148.18 109.438 148.18ZM114.759 148.18C113.703 148.18 112.893 147.94 112.329 147.46C111.777 146.968 111.501 146.266 111.501 145.354C111.501 144.358 111.861 143.59 112.581 143.05C113.313 142.51 114.495 142.192 116.127 142.096L117.855 141.988V141.43C117.855 140.65 117.675 140.098 117.315 139.774C116.967 139.438 116.379 139.27 115.551 139.27C114.951 139.27 114.375 139.354 113.823 139.522C113.283 139.678 112.767 139.9 112.275 140.188V138.694C112.623 138.514 113.091 138.346 113.679 138.19C114.279 138.034 114.951 137.956 115.695 137.956C116.955 137.956 117.891 138.232 118.503 138.784C119.127 139.324 119.439 140.176 119.439 141.34V148H117.855V143.32L116.343 143.428C115.119 143.512 114.273 143.704 113.805 144.004C113.349 144.304 113.121 144.742 113.121 145.318C113.121 145.858 113.289 146.254 113.625 146.506C113.973 146.758 114.453 146.884 115.065 146.884C115.461 146.884 115.809 146.83 116.109 146.722L116.361 147.928C116.133 148.012 115.881 148.072 115.605 148.108C115.341 148.156 115.059 148.18 114.759 148.18ZM123.386 141.808C122.642 141.808 122.114 141.652 121.802 141.34C121.49 141.016 121.334 140.656 121.334 140.26C121.334 139.852 121.43 139.504 121.622 139.216L122.972 139.432C122.948 139.492 122.918 139.576 122.882 139.684C122.858 139.792 122.846 139.9 122.846 140.008C122.846 140.164 122.888 140.296 122.972 140.404C123.056 140.5 123.212 140.548 123.44 140.548H126.014V141.808H123.386ZM123.386 146.848C122.642 146.848 122.114 146.692 121.802 146.38C121.49 146.056 121.334 145.696 121.334 145.3C121.334 144.892 121.43 144.544 121.622 144.256L122.972 144.472C122.948 144.532 122.918 144.616 122.882 144.724C122.858 144.832 122.846 144.94 122.846 145.048C122.846 145.204 122.888 145.336 122.972 145.444C123.056 145.54 123.212 145.588 123.44 145.588H126.014V146.848H123.386ZM131.376 148.18C130.248 148.18 129.372 147.91 128.748 147.37C128.136 146.818 127.83 145.996 127.83 144.904V143.806C127.83 143.206 127.914 142.732 128.082 142.384C128.25 142.036 128.43 141.736 128.622 141.484C128.826 141.208 129 140.968 129.144 140.764C129.3 140.56 129.378 140.314 129.378 140.026C129.378 139.774 129.312 139.594 129.18 139.486C129.06 139.378 128.904 139.324 128.712 139.324C128.568 139.324 128.412 139.348 128.244 139.396C128.088 139.444 127.932 139.504 127.776 139.576L127.416 138.424C127.632 138.28 127.896 138.178 128.208 138.118C128.532 138.058 128.814 138.028 129.054 138.028C129.726 138.028 130.2 138.202 130.476 138.55C130.752 138.886 130.89 139.318 130.89 139.846C130.89 140.29 130.812 140.656 130.656 140.944C130.512 141.232 130.338 141.514 130.134 141.79C129.93 142.09 129.762 142.378 129.63 142.654C129.498 142.93 129.432 143.29 129.432 143.734V144.796C129.432 145.348 129.522 145.774 129.702 146.074C129.882 146.374 130.122 146.584 130.422 146.704C130.722 146.812 131.04 146.866 131.376 146.866C132.612 146.866 133.23 146.29 133.23 145.138V138.136H134.832V145.228C134.832 146.152 134.538 146.878 133.95 147.406C133.374 147.922 132.516 148.18 131.376 148.18ZM129.517 136.57V135.778C129.757 135.73 130.003 135.664 130.255 135.58C130.507 135.484 130.717 135.364 130.885 135.22C131.053 135.064 131.137 134.878 131.137 134.662C131.137 134.518 131.095 134.398 131.011 134.302C130.915 134.194 130.771 134.14 130.579 134.14C130.459 134.14 130.339 134.164 130.219 134.212C130.087 134.26 129.973 134.302 129.877 134.338L129.517 133.348C129.757 133.156 130.027 133.03 130.327 132.97C130.615 132.91 130.849 132.88 131.029 132.88C131.509 132.88 131.887 133.012 132.163 133.276C132.427 133.54 132.559 133.876 132.559 134.284C132.559 134.488 132.523 134.68 132.451 134.86C132.379 135.028 132.289 135.178 132.181 135.31H135.097V136.57H129.517ZM140.698 148.18C139.402 148.18 138.43 147.844 137.782 147.172C137.146 146.488 136.828 145.42 136.828 143.968C136.828 143.728 136.834 143.47 136.846 143.194C136.87 142.906 136.894 142.624 136.918 142.348H140.698V143.608H138.43V143.968C138.43 144.724 138.514 145.318 138.682 145.75C138.85 146.17 139.096 146.464 139.42 146.632C139.756 146.8 140.17 146.884 140.662 146.884C141.202 146.884 141.67 146.782 142.066 146.578C142.462 146.374 142.768 146.002 142.984 145.462C143.2 144.922 143.308 144.148 143.308 143.14C143.308 141.82 143.08 140.848 142.624 140.224C142.18 139.6 141.406 139.288 140.302 139.288C139.726 139.288 139.174 139.366 138.646 139.522C138.13 139.666 137.632 139.876 137.152 140.152V138.658C137.512 138.466 137.986 138.304 138.574 138.172C139.162 138.028 139.804 137.956 140.5 137.956C141.556 137.956 142.408 138.172 143.056 138.604C143.716 139.024 144.196 139.624 144.496 140.404C144.796 141.172 144.946 142.084 144.946 143.14C144.946 144.196 144.808 145.102 144.532 145.858C144.256 146.614 143.806 147.19 143.182 147.586C142.57 147.982 141.742 148.18 140.698 148.18ZM152.024 148.18C151.256 148.18 150.59 148.03 150.026 147.73C149.474 147.418 149.096 146.986 148.892 146.434H148.82L148.73 148H147.416V138.136H149.018V143.842C149.018 144.754 149.252 145.48 149.72 146.02C150.188 146.56 150.848 146.83 151.7 146.83C153.104 146.83 153.806 146.098 153.806 144.634V138.136H155.408V144.742C155.408 145.93 155.108 146.8 154.508 147.352C153.92 147.904 153.092 148.18 152.024 148.18ZM152.395 152.77C151.627 152.77 151.045 152.614 150.649 152.302C150.241 152.002 150.037 151.57 150.037 151.006V150.7C150.037 150.496 149.989 150.37 149.893 150.322C149.785 150.286 149.641 150.292 149.461 150.34L149.353 149.26C149.521 149.212 149.689 149.182 149.857 149.17C150.013 149.158 150.133 149.152 150.217 149.152C150.649 149.152 150.961 149.248 151.153 149.44C151.333 149.632 151.423 149.902 151.423 150.25V150.862C151.423 151.09 151.495 151.282 151.639 151.438C151.783 151.594 152.029 151.672 152.377 151.672C152.737 151.672 152.989 151.594 153.133 151.438C153.265 151.282 153.331 151.09 153.331 150.862V149.206H154.735V150.952C154.735 152.164 153.955 152.77 152.395 152.77ZM160.471 148.18C159.415 148.18 158.605 147.94 158.041 147.46C157.489 146.968 157.213 146.266 157.213 145.354C157.213 144.358 157.573 143.59 158.293 143.05C159.025 142.51 160.207 142.192 161.839 142.096L163.567 141.988V141.43C163.567 140.65 163.387 140.098 163.027 139.774C162.679 139.438 162.091 139.27 161.263 139.27C160.663 139.27 160.087 139.354 159.535 139.522C158.995 139.678 158.479 139.9 157.987 140.188V138.694C158.335 138.514 158.803 138.346 159.391 138.19C159.991 138.034 160.663 137.956 161.407 137.956C162.667 137.956 163.603 138.232 164.215 138.784C164.839 139.324 165.151 140.176 165.151 141.34V148H163.567V143.32L162.055 143.428C160.831 143.512 159.985 143.704 159.517 144.004C159.061 144.304 158.833 144.742 158.833 145.318C158.833 145.858 159.001 146.254 159.337 146.506C159.685 146.758 160.165 146.884 160.777 146.884C161.173 146.884 161.521 146.83 161.821 146.722L162.073 147.928C161.845 148.012 161.593 148.072 161.317 148.108C161.053 148.156 160.771 148.18 160.471 148.18ZM170.574 148.18C169.866 148.18 169.206 148.114 168.594 147.982C167.994 147.838 167.484 147.67 167.064 147.478L167.532 146.182C167.916 146.338 168.372 146.488 168.9 146.632C169.44 146.776 170.01 146.848 170.61 146.848C171.246 146.848 171.774 146.728 172.194 146.488C172.614 146.248 172.824 145.9 172.824 145.444C172.824 145.036 172.656 144.7 172.32 144.436C171.984 144.172 171.444 143.926 170.7 143.698C169.944 143.458 169.302 143.206 168.774 142.942C168.258 142.666 167.862 142.342 167.586 141.97C167.322 141.586 167.19 141.112 167.19 140.548C167.19 139.804 167.496 139.186 168.108 138.694C168.72 138.202 169.698 137.956 171.042 137.956C171.618 137.956 172.158 138.01 172.662 138.118C173.178 138.214 173.58 138.352 173.868 138.532V139.882C173.568 139.738 173.154 139.6 172.626 139.468C172.098 139.336 171.552 139.27 170.988 139.27C170.184 139.27 169.614 139.396 169.278 139.648C168.954 139.888 168.792 140.164 168.792 140.476C168.792 140.74 168.864 140.962 169.008 141.142C169.164 141.322 169.422 141.496 169.782 141.664C170.154 141.832 170.652 142.024 171.276 142.24C171.852 142.432 172.38 142.654 172.86 142.906C173.34 143.158 173.718 143.476 173.994 143.86C174.282 144.232 174.426 144.712 174.426 145.3C174.426 145.804 174.3 146.278 174.048 146.722C173.808 147.154 173.406 147.508 172.842 147.784C172.278 148.048 171.522 148.18 170.574 148.18ZM179.111 148V140.998C179.111 140.41 178.973 139.978 178.697 139.702C178.433 139.426 177.983 139.288 177.347 139.288C176.915 139.288 176.507 139.348 176.123 139.468C175.751 139.576 175.391 139.732 175.043 139.936V138.496C175.283 138.376 175.625 138.256 176.069 138.136C176.513 138.016 177.041 137.956 177.653 137.956C178.589 137.956 179.333 138.166 179.885 138.586C180.437 139.006 180.713 139.732 180.713 140.764V148H179.111ZM187.161 148.162C185.709 148.162 184.683 147.886 184.083 147.334C183.483 146.782 183.183 146.038 183.183 145.102C183.183 144.55 183.261 144.112 183.417 143.788C183.585 143.452 183.789 143.206 184.029 143.05C184.281 142.894 184.539 142.792 184.803 142.744V142.672C184.563 142.6 184.311 142.48 184.047 142.312C183.783 142.144 183.561 141.91 183.381 141.61C183.213 141.31 183.129 140.932 183.129 140.476C183.129 140.056 183.225 139.66 183.417 139.288C183.609 138.916 183.921 138.61 184.353 138.37C184.785 138.13 185.355 138.01 186.063 138.01C186.351 138.01 186.651 138.034 186.963 138.082C187.275 138.118 187.515 138.184 187.683 138.28L187.395 139.522C187.263 139.474 187.089 139.432 186.873 139.396C186.669 139.348 186.453 139.324 186.225 139.324C185.721 139.324 185.349 139.444 185.109 139.684C184.869 139.912 184.749 140.218 184.749 140.602C184.749 141.022 184.851 141.34 185.055 141.556C185.271 141.772 185.541 141.922 185.865 142.006C186.201 142.078 186.549 142.114 186.909 142.114H187.251V143.284H186.909C186.189 143.284 185.655 143.416 185.307 143.68C184.971 143.932 184.803 144.358 184.803 144.958C184.803 145.306 184.869 145.624 185.001 145.912C185.145 146.2 185.385 146.428 185.721 146.596C186.069 146.764 186.549 146.848 187.161 146.848C188.073 146.848 188.697 146.662 189.033 146.29C189.369 145.906 189.537 145.384 189.537 144.724V138.136H191.139V144.616C191.139 145.876 190.815 146.782 190.167 147.334C189.531 147.886 188.529 148.162 187.161 148.162ZM196.265 148.18C195.941 148.18 195.629 148.126 195.329 148.018C195.029 147.91 194.783 147.718 194.591 147.442C194.399 147.166 194.303 146.782 194.303 146.29V136.714C194.303 136.042 194.393 135.544 194.573 135.22C194.765 134.896 194.987 134.644 195.239 134.464L195.221 134.392H192.089L192.503 133.132H197.579V134.392C197.135 134.392 196.745 134.536 196.409 134.824C196.073 135.112 195.905 135.64 195.905 136.408V146.092C195.905 146.368 195.965 146.566 196.085 146.686C196.205 146.806 196.397 146.866 196.661 146.866C196.769 146.866 196.883 146.854 197.003 146.83C197.123 146.806 197.237 146.776 197.345 146.74L197.561 147.91C197.333 148.018 197.111 148.09 196.895 148.126C196.679 148.162 196.469 148.18 196.265 148.18ZM202.168 148.18C201.208 148.18 200.452 147.958 199.9 147.514C199.36 147.058 198.976 146.446 198.748 145.678C198.532 144.91 198.424 144.064 198.424 143.14C198.424 141.784 198.61 140.734 198.982 139.99C199.354 139.234 199.87 138.706 200.53 138.406C201.202 138.106 201.976 137.956 202.852 137.956C204.292 137.956 205.336 138.268 205.984 138.892C206.644 139.516 206.974 140.362 206.974 141.43V148H205.39V141.574C205.39 140.83 205.204 140.266 204.832 139.882C204.46 139.486 203.818 139.288 202.906 139.288C202.354 139.288 201.856 139.39 201.412 139.594C200.98 139.798 200.638 140.176 200.386 140.728C200.146 141.28 200.026 142.09 200.026 143.158C200.026 143.854 200.092 144.484 200.224 145.048C200.368 145.6 200.614 146.038 200.962 146.362C201.31 146.686 201.796 146.848 202.42 146.848C202.6 146.848 202.768 146.836 202.924 146.812C203.08 146.788 203.23 146.752 203.374 146.704L203.536 147.946C203.344 148.03 203.122 148.09 202.87 148.126C202.63 148.162 202.396 148.18 202.168 148.18ZM201.542 136.57V135.778C201.782 135.73 202.028 135.664 202.28 135.58C202.532 135.484 202.742 135.364 202.91 135.22C203.078 135.064 203.162 134.878 203.162 134.662C203.162 134.518 203.12 134.398 203.036 134.302C202.94 134.194 202.796 134.14 202.604 134.14C202.484 134.14 202.364 134.164 202.244 134.212C202.112 134.26 201.998 134.302 201.902 134.338L201.542 133.348C201.782 133.156 202.052 133.03 202.352 132.97C202.64 132.91 202.874 132.88 203.054 132.88C203.534 132.88 203.912 133.012 204.188 133.276C204.452 133.54 204.584 133.876 204.584 134.284C204.584 134.488 204.548 134.68 204.476 134.86C204.404 135.028 204.314 135.178 204.206 135.31H207.122V136.57H201.542Z" fill="#49474A"/>
<path d="M286 131V105C286 104.827 286.045 104.657 286.131 104.506C286.216 104.355 286.34 104.23 286.488 104.141C286.637 104.052 286.806 104.004 286.98 104C287.153 103.997 287.324 104.038 287.476 104.121L311.476 117.121C311.635 117.206 311.767 117.333 311.859 117.488C311.952 117.643 312 117.82 312 118C312 118.18 311.952 118.357 311.859 118.512C311.767 118.667 311.635 118.794 311.476 118.879L287.476 131.879C287.324 131.962 287.153 132.003 286.98 132C286.806 131.996 286.637 131.948 286.488 131.859C286.34 131.771 286.216 131.645 286.131 131.494C286.045 131.344 286 131.173 286 131Z" fill="#49474A" fill-opacity="0.75"/>
<path d="M575 131V105C575 104.827 575.045 104.657 575.131 104.506C575.216 104.355 575.34 104.23 575.488 104.141C575.637 104.052 575.806 104.004 575.98 104C576.153 103.997 576.324 104.038 576.476 104.121L600.476 117.121C600.635 117.206 600.767 117.333 600.859 117.488C600.952 117.643 601 117.82 601 118C601 118.18 600.952 118.357 600.859 118.512C600.767 118.667 600.635 118.794 600.476 118.879L576.476 131.879C576.324 131.962 576.153 132.003 575.98 132C575.806 131.996 575.637 131.948 575.488 131.859C575.34 131.771 575.216 131.645 575.131 131.494C575.045 131.344 575 131.173 575 131Z" fill="#49474A" fill-opacity="0.75"/>
<circle cx="474" cy="37" r="13" fill="#57A3B3"/>
<path d="M404.384 43.16C403.381 43.16 402.603 42.92 402.048 42.44C401.504 41.9493 401.232 41.2187 401.232 40.248V39.272C401.232 38.7387 401.307 38.3173 401.456 38.008C401.605 37.6987 401.765 37.432 401.936 37.208C402.117 36.9627 402.272 36.7493 402.4 36.568C402.539 36.3867 402.608 36.168 402.608 35.912C402.608 35.688 402.549 35.528 402.432 35.432C402.325 35.336 402.187 35.288 402.016 35.288C401.888 35.288 401.749 35.3093 401.6 35.352C401.461 35.3947 401.323 35.448 401.184 35.512L400.864 34.488C401.056 34.36 401.291 34.2693 401.568 34.216C401.856 34.1627 402.107 34.136 402.32 34.136C402.917 34.136 403.339 34.2907 403.584 34.6C403.829 34.8987 403.952 35.2827 403.952 35.752C403.952 36.1467 403.883 36.472 403.744 36.728C403.616 36.984 403.461 37.2347 403.28 37.48C403.099 37.7467 402.949 38.0027 402.832 38.248C402.715 38.4933 402.656 38.8133 402.656 39.208V40.152C402.656 40.6427 402.736 41.0213 402.896 41.288C403.056 41.5547 403.269 41.7413 403.536 41.848C403.803 41.944 404.085 41.992 404.384 41.992C405.483 41.992 406.032 41.48 406.032 40.456V34.232H407.456V40.536C407.456 41.3573 407.195 42.0027 406.672 42.472C406.16 42.9307 405.397 43.16 404.384 43.16ZM405.163 32.84C404.491 32.84 404.017 32.7067 403.739 32.44C403.462 32.1627 403.323 31.8533 403.323 31.512C403.323 31.352 403.35 31.1813 403.403 31C403.446 30.808 403.505 30.6533 403.579 30.536L404.779 30.744C404.715 30.872 404.683 31.0373 404.683 31.24C404.683 31.3787 404.726 31.5013 404.811 31.608C404.897 31.704 405.041 31.752 405.243 31.752H409.291V32.84H405.163ZM404.736 28.464V27.904C404.949 27.8507 405.178 27.7653 405.424 27.648C405.658 27.5307 405.776 27.3547 405.776 27.12C405.776 26.8747 405.653 26.752 405.408 26.752C405.237 26.752 405.061 26.8053 404.88 26.912L404.592 26.176C404.784 26.048 405.002 25.9627 405.248 25.92C405.482 25.8773 405.669 25.856 405.808 25.856C406.085 25.856 406.336 25.9307 406.56 26.08C406.784 26.2187 406.896 26.4587 406.896 26.8C406.896 26.8853 406.885 26.9813 406.864 27.088C406.842 27.1947 406.805 27.296 406.752 27.392H408.768V28.464H404.736ZM412.35 43.16C411.411 43.16 410.67 42.9147 410.126 42.424C409.593 41.9333 409.326 41.1547 409.326 40.088V34.232H410.75V40.008C410.75 41.3093 411.385 41.96 412.654 41.96C413.401 41.96 413.977 41.72 414.382 41.24C414.798 40.76 415.006 40.1147 415.006 39.304V34.232H416.43V43H415.246L415.182 41.704H415.102C414.91 42.1307 414.574 42.4827 414.094 42.76C413.625 43.0267 413.043 43.16 412.35 43.16ZM422.003 43.16C421.107 43.16 420.413 42.9573 419.923 42.552C419.432 42.136 419.091 41.576 418.899 40.872C418.707 40.1573 418.611 39.3467 418.611 38.44C418.611 36.8827 418.829 35.768 419.267 35.096C419.715 34.4133 420.355 34.072 421.187 34.072C421.56 34.072 421.875 34.136 422.131 34.264C422.397 34.392 422.584 34.6053 422.691 34.904H422.755C422.861 34.5947 423.053 34.3813 423.331 34.264C423.608 34.136 423.933 34.072 424.307 34.072C425 34.072 425.533 34.2587 425.907 34.632C426.291 34.9947 426.483 35.5547 426.483 36.312V43H425.059V36.328C425.059 35.912 424.968 35.6293 424.787 35.48C424.605 35.3307 424.376 35.256 424.099 35.256C423.789 35.256 423.56 35.3307 423.411 35.48C423.272 35.6293 423.187 35.8747 423.155 36.216H422.259C422.216 35.8427 422.104 35.592 421.923 35.464C421.741 35.3253 421.539 35.256 421.315 35.256C420.888 35.256 420.568 35.5067 420.355 36.008C420.141 36.4987 420.035 37.3147 420.035 38.456C420.035 39.192 420.088 39.8213 420.195 40.344C420.312 40.8667 420.525 41.272 420.835 41.56C421.144 41.8373 421.592 41.976 422.179 41.976C422.392 41.976 422.568 41.9653 422.707 41.944C422.845 41.9227 422.979 41.896 423.107 41.864L423.251 42.952C423.091 43.0267 422.899 43.08 422.675 43.112C422.451 43.144 422.227 43.16 422.003 43.16ZM431.934 43.16C430.782 43.16 429.918 42.8613 429.342 42.264C428.777 41.656 428.494 40.7067 428.494 39.416C428.494 39.2027 428.5 38.9733 428.51 38.728C428.532 38.472 428.553 38.2213 428.574 37.976H431.934V39.096H429.918V39.416C429.918 40.088 429.993 40.616 430.142 41C430.292 41.3733 430.51 41.6347 430.798 41.784C431.097 41.9333 431.465 42.008 431.902 42.008C432.382 42.008 432.798 41.9173 433.15 41.736C433.502 41.5547 433.774 41.224 433.966 40.744C434.158 40.264 434.254 39.576 434.254 38.68C434.254 37.5067 434.052 36.6427 433.646 36.088C433.252 35.5333 432.564 35.256 431.582 35.256C431.07 35.256 430.58 35.3253 430.11 35.464C429.652 35.592 429.209 35.7787 428.782 36.024V34.696C429.102 34.5253 429.524 34.3813 430.046 34.264C430.569 34.136 431.14 34.072 431.758 34.072C432.697 34.072 433.454 34.264 434.03 34.648C434.617 35.0213 435.044 35.5547 435.31 36.248C435.577 36.9307 435.71 37.7413 435.71 38.68C435.71 39.6187 435.588 40.424 435.342 41.096C435.097 41.768 434.697 42.28 434.142 42.632C433.598 42.984 432.862 43.16 431.934 43.16ZM440.802 43.16C439.863 43.16 439.122 42.9147 438.578 42.424C438.045 41.9333 437.778 41.1547 437.778 40.088V34.232H439.202V40.008C439.202 41.3093 439.837 41.96 441.106 41.96C441.853 41.96 442.429 41.72 442.834 41.24C443.25 40.76 443.458 40.1147 443.458 39.304V34.232H444.882V43H443.698L443.634 41.704H443.554C443.362 42.1307 443.026 42.4827 442.546 42.76C442.077 43.0267 441.495 43.16 440.802 43.16ZM447.398 43V34.232H448.39L448.646 35.624H448.71C448.892 35.144 449.222 34.7653 449.702 34.488C450.182 34.2107 450.764 34.072 451.446 34.072C452.396 34.072 453.142 34.3173 453.686 34.808C454.23 35.2987 454.502 36.0773 454.502 37.144V43H453.078V37.224C453.078 35.9227 452.444 35.272 451.174 35.272C450.673 35.272 450.246 35.3893 449.894 35.624C449.542 35.8587 449.276 36.1787 449.094 36.584C448.913 36.9787 448.822 37.4267 448.822 37.928V43H447.398ZM447.294 32.84V32.216L448.462 31.704H452.766V30.408H454.11V32.216H454.094V32.84H447.294ZM452.51 29.464V26.856H453.87V29.464H452.51Z" fill="#49474A"/>
<path d="M478.431 41.608V43H470.383V41.912L474.943 37.512C475.497 36.9787 475.871 36.52 476.063 36.136C476.255 35.7413 476.351 35.3467 476.351 34.952C476.351 34.3653 476.143 33.912 475.727 33.592C475.321 33.2613 474.735 33.096 473.967 33.096C472.729 33.096 471.775 33.5013 471.103 34.312L470.015 33.368C470.452 32.8347 471.023 32.4187 471.727 32.12C472.441 31.8213 473.236 31.672 474.111 31.672C475.284 31.672 476.217 31.9547 476.911 32.52C477.604 33.0747 477.951 33.832 477.951 34.792C477.951 35.3893 477.823 35.9547 477.567 36.488C477.311 37.0213 476.825 37.6293 476.111 38.312L472.687 41.608H478.431Z" fill="white"/>
<rect x="339" y="194" width="209" height="14" fill="#49474A"/>
<rect x="354" y="66" width="179" height="120" rx="14" fill="#49474A"/>
<rect x="368" y="80" width="151" height="92" fill="white"/>
<path d="M378.436 116V112.58C378.436 111.824 378.604 111.278 378.94 110.942C379.276 110.594 379.702 110.354 380.218 110.222L380.236 110.168L378.256 109.412V108.818C378.256 108.326 378.418 107.864 378.742 107.432C379.066 106.988 379.528 106.634 380.128 106.37C380.74 106.094 381.466 105.956 382.306 105.956C383.038 105.956 383.716 106.076 384.34 106.316C384.964 106.544 385.462 106.91 385.834 107.414C386.218 107.906 386.41 108.554 386.41 109.358V116H384.808V109.52C384.808 108.716 384.562 108.146 384.07 107.81C383.59 107.462 382.996 107.288 382.288 107.288C381.556 107.288 380.974 107.444 380.542 107.756C380.11 108.056 379.894 108.44 379.894 108.908L381.838 109.88L381.694 110.744C381.25 110.744 380.86 110.894 380.524 111.194C380.2 111.482 380.038 111.944 380.038 112.58V116H378.436ZM391.821 116.18C391.113 116.18 390.453 116.114 389.841 115.982C389.241 115.838 388.731 115.67 388.311 115.478L388.779 114.182C389.163 114.338 389.619 114.488 390.147 114.632C390.687 114.776 391.257 114.848 391.857 114.848C392.493 114.848 393.021 114.728 393.441 114.488C393.861 114.248 394.071 113.9 394.071 113.444C394.071 113.036 393.903 112.7 393.567 112.436C393.231 112.172 392.691 111.926 391.947 111.698C391.191 111.458 390.549 111.206 390.021 110.942C389.505 110.666 389.109 110.342 388.833 109.97C388.569 109.586 388.437 109.112 388.437 108.548C388.437 107.804 388.743 107.186 389.355 106.694C389.967 106.202 390.945 105.956 392.289 105.956C392.865 105.956 393.405 106.01 393.909 106.118C394.425 106.214 394.827 106.352 395.115 106.532V107.882C394.815 107.738 394.401 107.6 393.873 107.468C393.345 107.336 392.799 107.27 392.235 107.27C391.431 107.27 390.861 107.396 390.525 107.648C390.201 107.888 390.039 108.164 390.039 108.476C390.039 108.74 390.111 108.962 390.255 109.142C390.411 109.322 390.669 109.496 391.029 109.664C391.401 109.832 391.899 110.024 392.523 110.24C393.099 110.432 393.627 110.654 394.107 110.906C394.587 111.158 394.965 111.476 395.241 111.86C395.529 112.232 395.673 112.712 395.673 113.3C395.673 113.804 395.547 114.278 395.295 114.722C395.055 115.154 394.653 115.508 394.089 115.784C393.525 116.048 392.769 116.18 391.821 116.18ZM401.06 116.18C399.764 116.18 398.792 115.844 398.144 115.172C397.508 114.488 397.19 113.42 397.19 111.968C397.19 111.728 397.196 111.47 397.208 111.194C397.232 110.906 397.256 110.624 397.28 110.348H401.06V111.608H398.792V111.968C398.792 112.724 398.876 113.318 399.044 113.75C399.212 114.17 399.458 114.464 399.782 114.632C400.118 114.8 400.532 114.884 401.024 114.884C401.564 114.884 402.032 114.782 402.428 114.578C402.824 114.374 403.13 114.002 403.346 113.462C403.562 112.922 403.67 112.148 403.67 111.14C403.67 109.82 403.442 108.848 402.986 108.224C402.542 107.6 401.768 107.288 400.664 107.288C400.088 107.288 399.536 107.366 399.008 107.522C398.492 107.666 397.994 107.876 397.514 108.152V106.658C397.874 106.466 398.348 106.304 398.936 106.172C399.524 106.028 400.166 105.956 400.862 105.956C401.918 105.956 402.77 106.172 403.418 106.604C404.078 107.024 404.558 107.624 404.858 108.404C405.158 109.172 405.308 110.084 405.308 111.14C405.308 112.196 405.17 113.102 404.894 113.858C404.618 114.614 404.168 115.19 403.544 115.586C402.932 115.982 402.104 116.18 401.06 116.18ZM407.544 116V112.58C407.544 111.824 407.712 111.278 408.048 110.942C408.384 110.594 408.81 110.354 409.326 110.222L409.344 110.168L407.364 109.412V108.818C407.364 108.326 407.526 107.864 407.85 107.432C408.174 106.988 408.636 106.634 409.236 106.37C409.848 106.094 410.574 105.956 411.414 105.956C412.146 105.956 412.824 106.076 413.448 106.316C414.072 106.544 414.57 106.91 414.942 107.414C415.326 107.906 415.518 108.554 415.518 109.358V116H413.916V109.52C413.916 108.716 413.67 108.146 413.178 107.81C412.698 107.462 412.104 107.288 411.396 107.288C410.664 107.288 410.082 107.444 409.65 107.756C409.218 108.056 409.002 108.44 409.002 108.908L410.946 109.88L410.802 110.744C410.358 110.744 409.968 110.894 409.632 111.194C409.308 111.482 409.146 111.944 409.146 112.58V116H407.544ZM421.631 116.18C420.503 116.18 419.627 115.91 419.003 115.37C418.391 114.818 418.085 113.996 418.085 112.904V111.806C418.085 111.206 418.169 110.732 418.337 110.384C418.505 110.036 418.685 109.736 418.877 109.484C419.081 109.208 419.255 108.968 419.399 108.764C419.555 108.56 419.633 108.314 419.633 108.026C419.633 107.774 419.567 107.594 419.435 107.486C419.315 107.378 419.159 107.324 418.967 107.324C418.823 107.324 418.667 107.348 418.499 107.396C418.343 107.444 418.187 107.504 418.031 107.576L417.671 106.424C417.887 106.28 418.151 106.178 418.463 106.118C418.787 106.058 419.069 106.028 419.309 106.028C419.981 106.028 420.455 106.202 420.731 106.55C421.007 106.886 421.145 107.318 421.145 107.846C421.145 108.29 421.067 108.656 420.911 108.944C420.767 109.232 420.593 109.514 420.389 109.79C420.185 110.09 420.017 110.378 419.885 110.654C419.753 110.93 419.687 111.29 419.687 111.734V112.796C419.687 113.348 419.777 113.774 419.957 114.074C420.137 114.374 420.377 114.584 420.677 114.704C420.977 114.812 421.295 114.866 421.631 114.866C422.867 114.866 423.485 114.29 423.485 113.138V106.136H425.087V113.228C425.087 114.152 424.793 114.878 424.205 115.406C423.629 115.922 422.771 116.18 421.631 116.18ZM419.772 104.57V103.778C420.012 103.73 420.258 103.664 420.51 103.58C420.762 103.484 420.972 103.364 421.14 103.22C421.308 103.064 421.392 102.878 421.392 102.662C421.392 102.518 421.35 102.398 421.266 102.302C421.17 102.194 421.026 102.14 420.834 102.14C420.714 102.14 420.594 102.164 420.474 102.212C420.342 102.26 420.228 102.302 420.132 102.338L419.772 101.348C420.012 101.156 420.282 101.03 420.582 100.97C420.87 100.91 421.104 100.88 421.284 100.88C421.764 100.88 422.142 101.012 422.418 101.276C422.682 101.54 422.814 101.876 422.814 102.284C422.814 102.488 422.778 102.68 422.706 102.86C422.634 103.028 422.544 103.178 422.436 103.31H425.352V104.57H419.772ZM430.953 116.18C429.657 116.18 428.685 115.844 428.037 115.172C427.401 114.488 427.083 113.42 427.083 111.968C427.083 111.728 427.089 111.47 427.101 111.194C427.125 110.906 427.149 110.624 427.173 110.348H430.953V111.608H428.685V111.968C428.685 112.724 428.769 113.318 428.937 113.75C429.105 114.17 429.351 114.464 429.675 114.632C430.011 114.8 430.425 114.884 430.917 114.884C431.457 114.884 431.925 114.782 432.321 114.578C432.717 114.374 433.023 114.002 433.239 113.462C433.455 112.922 433.563 112.148 433.563 111.14C433.563 109.82 433.335 108.848 432.879 108.224C432.435 107.6 431.661 107.288 430.557 107.288C429.981 107.288 429.429 107.366 428.901 107.522C428.385 107.666 427.887 107.876 427.407 108.152V106.658C427.767 106.466 428.241 106.304 428.829 106.172C429.417 106.028 430.059 105.956 430.755 105.956C431.811 105.956 432.663 106.172 433.311 106.604C433.971 107.024 434.451 107.624 434.751 108.404C435.051 109.172 435.201 110.084 435.201 111.14C435.201 112.196 435.063 113.102 434.787 113.858C434.511 114.614 434.061 115.19 433.437 115.586C432.825 115.982 431.997 116.18 430.953 116.18ZM442.279 116.18C441.511 116.18 440.845 116.03 440.281 115.73C439.729 115.418 439.351 114.986 439.147 114.434H439.075L438.985 116H437.671V106.136H439.273V111.842C439.273 112.754 439.507 113.48 439.975 114.02C440.443 114.56 441.103 114.83 441.955 114.83C443.359 114.83 444.061 114.098 444.061 112.634V106.136H445.663V112.742C445.663 113.93 445.363 114.8 444.763 115.352C444.175 115.904 443.347 116.18 442.279 116.18ZM442.65 120.77C441.882 120.77 441.3 120.614 440.904 120.302C440.496 120.002 440.292 119.57 440.292 119.006V118.7C440.292 118.496 440.244 118.37 440.148 118.322C440.04 118.286 439.896 118.292 439.716 118.34L439.608 117.26C439.776 117.212 439.944 117.182 440.112 117.17C440.268 117.158 440.388 117.152 440.472 117.152C440.904 117.152 441.216 117.248 441.408 117.44C441.588 117.632 441.678 117.902 441.678 118.25V118.862C441.678 119.09 441.75 119.282 441.894 119.438C442.038 119.594 442.284 119.672 442.632 119.672C442.992 119.672 443.244 119.594 443.388 119.438C443.52 119.282 443.586 119.09 443.586 118.862V117.206H444.99V118.952C444.99 120.164 444.21 120.77 442.65 120.77ZM450.725 116.18C449.669 116.18 448.859 115.94 448.295 115.46C447.743 114.968 447.467 114.266 447.467 113.354C447.467 112.358 447.827 111.59 448.547 111.05C449.279 110.51 450.461 110.192 452.093 110.096L453.821 109.988V109.43C453.821 108.65 453.641 108.098 453.281 107.774C452.933 107.438 452.345 107.27 451.517 107.27C450.917 107.27 450.341 107.354 449.789 107.522C449.249 107.678 448.733 107.9 448.241 108.188V106.694C448.589 106.514 449.057 106.346 449.645 106.19C450.245 106.034 450.917 105.956 451.661 105.956C452.921 105.956 453.857 106.232 454.469 106.784C455.093 107.324 455.405 108.176 455.405 109.34V116H453.821V111.32L452.309 111.428C451.085 111.512 450.239 111.704 449.771 112.004C449.315 112.304 449.087 112.742 449.087 113.318C449.087 113.858 449.255 114.254 449.591 114.506C449.939 114.758 450.419 114.884 451.031 114.884C451.427 114.884 451.775 114.83 452.075 114.722L452.327 115.928C452.099 116.012 451.847 116.072 451.571 116.108C451.307 116.156 451.025 116.18 450.725 116.18ZM460.828 116.18C460.12 116.18 459.46 116.114 458.848 115.982C458.248 115.838 457.738 115.67 457.318 115.478L457.786 114.182C458.17 114.338 458.626 114.488 459.154 114.632C459.694 114.776 460.264 114.848 460.864 114.848C461.5 114.848 462.028 114.728 462.448 114.488C462.868 114.248 463.078 113.9 463.078 113.444C463.078 113.036 462.91 112.7 462.574 112.436C462.238 112.172 461.698 111.926 460.954 111.698C460.198 111.458 459.556 111.206 459.028 110.942C458.512 110.666 458.116 110.342 457.84 109.97C457.576 109.586 457.444 109.112 457.444 108.548C457.444 107.804 457.75 107.186 458.362 106.694C458.974 106.202 459.952 105.956 461.296 105.956C461.872 105.956 462.412 106.01 462.916 106.118C463.432 106.214 463.834 106.352 464.122 106.532V107.882C463.822 107.738 463.408 107.6 462.88 107.468C462.352 107.336 461.806 107.27 461.242 107.27C460.438 107.27 459.868 107.396 459.532 107.648C459.208 107.888 459.046 108.164 459.046 108.476C459.046 108.74 459.118 108.962 459.262 109.142C459.418 109.322 459.676 109.496 460.036 109.664C460.408 109.832 460.906 110.024 461.53 110.24C462.106 110.432 462.634 110.654 463.114 110.906C463.594 111.158 463.972 111.476 464.248 111.86C464.536 112.232 464.68 112.712 464.68 113.3C464.68 113.804 464.554 114.278 464.302 114.722C464.062 115.154 463.66 115.508 463.096 115.784C462.532 116.048 461.776 116.18 460.828 116.18ZM469.366 116V108.998C469.366 108.41 469.228 107.978 468.952 107.702C468.688 107.426 468.238 107.288 467.602 107.288C467.17 107.288 466.762 107.348 466.378 107.468C466.006 107.576 465.646 107.732 465.298 107.936V106.496C465.538 106.376 465.88 106.256 466.324 106.136C466.768 106.016 467.296 105.956 467.908 105.956C468.844 105.956 469.588 106.166 470.14 106.586C470.692 107.006 470.968 107.732 470.968 108.764V116H469.366ZM477.416 116.162C475.964 116.162 474.938 115.886 474.338 115.334C473.738 114.782 473.438 114.038 473.438 113.102C473.438 112.55 473.516 112.112 473.672 111.788C473.84 111.452 474.044 111.206 474.284 111.05C474.536 110.894 474.794 110.792 475.058 110.744V110.672C474.818 110.6 474.566 110.48 474.302 110.312C474.038 110.144 473.816 109.91 473.636 109.61C473.468 109.31 473.384 108.932 473.384 108.476C473.384 108.056 473.48 107.66 473.672 107.288C473.864 106.916 474.176 106.61 474.608 106.37C475.04 106.13 475.61 106.01 476.318 106.01C476.606 106.01 476.906 106.034 477.218 106.082C477.53 106.118 477.77 106.184 477.938 106.28L477.65 107.522C477.518 107.474 477.344 107.432 477.128 107.396C476.924 107.348 476.708 107.324 476.48 107.324C475.976 107.324 475.604 107.444 475.364 107.684C475.124 107.912 475.004 108.218 475.004 108.602C475.004 109.022 475.106 109.34 475.31 109.556C475.526 109.772 475.796 109.922 476.12 110.006C476.456 110.078 476.804 110.114 477.164 110.114H477.506V111.284H477.164C476.444 111.284 475.91 111.416 475.562 111.68C475.226 111.932 475.058 112.358 475.058 112.958C475.058 113.306 475.124 113.624 475.256 113.912C475.4 114.2 475.64 114.428 475.976 114.596C476.324 114.764 476.804 114.848 477.416 114.848C478.328 114.848 478.952 114.662 479.288 114.29C479.624 113.906 479.792 113.384 479.792 112.724V106.136H481.394V112.616C481.394 113.876 481.07 114.782 480.422 115.334C479.786 115.886 478.784 116.162 477.416 116.162ZM483.945 116V112.58C483.945 111.824 484.113 111.278 484.449 110.942C484.785 110.594 485.211 110.354 485.727 110.222L485.745 110.168L483.765 109.412V108.818C483.765 108.326 483.927 107.864 484.251 107.432C484.575 106.988 485.037 106.634 485.637 106.37C486.249 106.094 486.975 105.956 487.815 105.956C488.547 105.956 489.225 106.076 489.849 106.316C490.473 106.544 490.971 106.91 491.343 107.414C491.728 107.906 491.92 108.554 491.92 109.358V116H490.317V109.52C490.317 108.716 490.071 108.146 489.579 107.81C489.099 107.462 488.505 107.288 487.797 107.288C487.065 107.288 486.483 107.444 486.051 107.756C485.619 108.056 485.403 108.44 485.403 108.908L487.347 109.88L487.203 110.744C486.759 110.744 486.369 110.894 486.033 111.194C485.709 111.482 485.547 111.944 485.547 112.58V116H483.945ZM497.348 116V108.998C497.348 108.41 497.21 107.978 496.934 107.702C496.67 107.426 496.22 107.288 495.584 107.288C495.152 107.288 494.744 107.348 494.36 107.468C493.988 107.576 493.628 107.732 493.28 107.936V106.496C493.52 106.376 493.862 106.256 494.306 106.136C494.75 106.016 495.278 105.956 495.89 105.956C496.826 105.956 497.57 106.166 498.122 106.586C498.674 107.006 498.95 107.732 498.95 108.764V116H497.348ZM504.373 116.18C503.665 116.18 503.005 116.114 502.393 115.982C501.793 115.838 501.283 115.67 500.863 115.478L501.331 114.182C501.715 114.338 502.171 114.488 502.699 114.632C503.239 114.776 503.809 114.848 504.409 114.848C505.045 114.848 505.573 114.728 505.993 114.488C506.413 114.248 506.623 113.9 506.623 113.444C506.623 113.036 506.455 112.7 506.119 112.436C505.783 112.172 505.243 111.926 504.499 111.698C503.743 111.458 503.101 111.206 502.573 110.942C502.057 110.666 501.661 110.342 501.385 109.97C501.121 109.586 500.989 109.112 500.989 108.548C500.989 107.804 501.295 107.186 501.907 106.694C502.519 106.202 503.497 105.956 504.841 105.956C505.417 105.956 505.957 106.01 506.461 106.118C506.977 106.214 507.379 106.352 507.667 106.532V107.882C507.367 107.738 506.953 107.6 506.425 107.468C505.897 107.336 505.351 107.27 504.787 107.27C503.983 107.27 503.413 107.396 503.077 107.648C502.753 107.888 502.591 108.164 502.591 108.476C502.591 108.74 502.663 108.962 502.807 109.142C502.963 109.322 503.221 109.496 503.581 109.664C503.953 109.832 504.451 110.024 505.075 110.24C505.651 110.432 506.179 110.654 506.659 110.906C507.139 111.158 507.517 111.476 507.793 111.86C508.081 112.232 508.225 112.712 508.225 113.3C508.225 113.804 508.099 114.278 507.847 114.722C507.607 115.154 507.205 115.508 506.641 115.784C506.077 116.048 505.321 116.18 504.373 116.18ZM401.653 148.18C400.597 148.18 399.787 147.94 399.223 147.46C398.671 146.968 398.395 146.266 398.395 145.354C398.395 144.358 398.755 143.59 399.475 143.05C400.207 142.51 401.389 142.192 403.021 142.096L404.749 141.988V141.43C404.749 140.65 404.569 140.098 404.209 139.774C403.861 139.438 403.273 139.27 402.445 139.27C401.845 139.27 401.269 139.354 400.717 139.522C400.177 139.678 399.661 139.9 399.169 140.188V138.694C399.517 138.514 399.985 138.346 400.573 138.19C401.173 138.034 401.845 137.956 402.589 137.956C403.849 137.956 404.785 138.232 405.397 138.784C406.021 139.324 406.333 140.176 406.333 141.34V148H404.749V143.32L403.237 143.428C402.013 143.512 401.167 143.704 400.699 144.004C400.243 144.304 400.015 144.742 400.015 145.318C400.015 145.858 400.183 146.254 400.519 146.506C400.867 146.758 401.347 146.884 401.959 146.884C402.355 146.884 402.703 146.83 403.003 146.722L403.255 147.928C403.027 148.012 402.775 148.072 402.499 148.108C402.235 148.156 401.953 148.18 401.653 148.18ZM412.35 148.18C411.39 148.18 410.634 147.958 410.082 147.514C409.542 147.058 409.158 146.446 408.93 145.678C408.714 144.91 408.606 144.064 408.606 143.14C408.606 141.784 408.792 140.734 409.164 139.99C409.536 139.234 410.052 138.706 410.712 138.406C411.384 138.106 412.158 137.956 413.034 137.956C414.474 137.956 415.518 138.268 416.166 138.892C416.826 139.516 417.156 140.362 417.156 141.43V148H415.572V141.574C415.572 140.83 415.386 140.266 415.014 139.882C414.642 139.486 414 139.288 413.088 139.288C412.536 139.288 412.038 139.39 411.594 139.594C411.162 139.798 410.82 140.176 410.568 140.728C410.328 141.28 410.208 142.09 410.208 143.158C410.208 143.854 410.274 144.484 410.406 145.048C410.55 145.6 410.796 146.038 411.144 146.362C411.492 146.686 411.978 146.848 412.602 146.848C412.782 146.848 412.95 146.836 413.106 146.812C413.262 146.788 413.412 146.752 413.556 146.704L413.718 147.946C413.526 148.03 413.304 148.09 413.052 148.126C412.812 148.162 412.578 148.18 412.35 148.18ZM419.95 148V138.136H421.552V142.402H421.606L425.71 138.136H427.582V138.19L424.684 141.124C425.656 141.208 426.394 141.55 426.898 142.15C427.414 142.738 427.672 143.518 427.672 144.49V148H426.07V144.526C426.07 143.854 425.872 143.32 425.476 142.924C425.092 142.528 424.444 142.312 423.532 142.276L421.552 144.292V148H419.95ZM433.899 148.162C432.447 148.162 431.421 147.886 430.821 147.334C430.221 146.782 429.921 146.038 429.921 145.102C429.921 144.55 429.999 144.112 430.155 143.788C430.323 143.452 430.527 143.206 430.767 143.05C431.019 142.894 431.277 142.792 431.541 142.744V142.672C431.301 142.6 431.049 142.48 430.785 142.312C430.521 142.144 430.299 141.91 430.119 141.61C429.951 141.31 429.867 140.932 429.867 140.476C429.867 140.056 429.963 139.66 430.155 139.288C430.347 138.916 430.659 138.61 431.091 138.37C431.523 138.13 432.093 138.01 432.801 138.01C433.089 138.01 433.389 138.034 433.701 138.082C434.013 138.118 434.253 138.184 434.421 138.28L434.133 139.522C434.001 139.474 433.827 139.432 433.611 139.396C433.407 139.348 433.191 139.324 432.963 139.324C432.459 139.324 432.087 139.444 431.847 139.684C431.607 139.912 431.487 140.218 431.487 140.602C431.487 141.022 431.589 141.34 431.793 141.556C432.009 141.772 432.279 141.922 432.603 142.006C432.939 142.078 433.287 142.114 433.647 142.114H433.989V143.284H433.647C432.927 143.284 432.393 143.416 432.045 143.68C431.709 143.932 431.541 144.358 431.541 144.958C431.541 145.306 431.607 145.624 431.739 145.912C431.883 146.2 432.123 146.428 432.459 146.596C432.807 146.764 433.287 146.848 433.899 146.848C434.811 146.848 435.435 146.662 435.771 146.29C436.107 145.906 436.275 145.384 436.275 144.724V138.136H437.877V144.616C437.877 145.876 437.553 146.782 436.905 147.334C436.269 147.886 435.267 148.162 433.899 148.162ZM435.997 136.57V132.772H437.581V136.57H435.997ZM443.74 148.18C442.444 148.18 441.472 147.844 440.824 147.172C440.188 146.488 439.87 145.42 439.87 143.968C439.87 143.728 439.876 143.47 439.888 143.194C439.912 142.906 439.936 142.624 439.96 142.348H443.74V143.608H441.472V143.968C441.472 144.724 441.556 145.318 441.724 145.75C441.892 146.17 442.138 146.464 442.462 146.632C442.798 146.8 443.212 146.884 443.704 146.884C444.244 146.884 444.712 146.782 445.108 146.578C445.504 146.374 445.81 146.002 446.026 145.462C446.242 144.922 446.35 144.148 446.35 143.14C446.35 141.82 446.122 140.848 445.666 140.224C445.222 139.6 444.448 139.288 443.344 139.288C442.768 139.288 442.216 139.366 441.688 139.522C441.172 139.666 440.674 139.876 440.194 140.152V138.658C440.554 138.466 441.028 138.304 441.616 138.172C442.204 138.028 442.846 137.956 443.542 137.956C444.598 137.956 445.45 138.172 446.098 138.604C446.758 139.024 447.238 139.624 447.538 140.404C447.838 141.172 447.988 142.084 447.988 143.14C447.988 144.196 447.85 145.102 447.574 145.858C447.298 146.614 446.848 147.19 446.224 147.586C445.612 147.982 444.784 148.18 443.74 148.18ZM453.716 148.18C452.66 148.18 451.826 147.904 451.214 147.352C450.614 146.8 450.314 145.924 450.314 144.724V138.136H451.916V144.634C451.916 146.098 452.63 146.83 454.058 146.83C454.898 146.83 455.546 146.56 456.002 146.02C456.47 145.48 456.704 144.754 456.704 143.842V138.136H458.306V148H456.974L456.902 146.542H456.812C456.596 147.022 456.218 147.418 455.678 147.73C455.15 148.03 454.496 148.18 453.716 148.18ZM461.209 148.18C460.993 148.18 460.783 148.156 460.579 148.108C460.375 148.072 460.171 148.006 459.967 147.91L460.147 146.794C460.231 146.818 460.327 146.842 460.435 146.866C460.543 146.89 460.645 146.902 460.741 146.902C461.101 146.902 461.281 146.662 461.281 146.182V144.508C461.281 143.764 461.419 143.23 461.695 142.906C461.971 142.57 462.367 142.342 462.883 142.222L462.901 142.168L460.831 141.412V140.818C460.831 140.326 460.987 139.864 461.299 139.432C461.623 138.988 462.091 138.634 462.703 138.37C463.315 138.094 464.047 137.956 464.899 137.956C465.643 137.956 466.327 138.076 466.951 138.316C467.575 138.544 468.073 138.91 468.445 139.414C468.829 139.906 469.021 140.554 469.021 141.358V148H467.419V141.52C467.419 140.716 467.173 140.146 466.681 139.81C466.189 139.462 465.589 139.288 464.881 139.288C464.137 139.288 463.549 139.444 463.117 139.756C462.685 140.056 462.469 140.44 462.469 140.908L464.521 141.88L464.377 142.744C463.933 142.744 463.573 142.888 463.297 143.176C463.021 143.464 462.883 143.926 462.883 144.562V146.308C462.883 147.04 462.721 147.538 462.397 147.802C462.073 148.054 461.677 148.18 461.209 148.18ZM474.449 148V140.998C474.449 140.41 474.311 139.978 474.035 139.702C473.771 139.426 473.321 139.288 472.685 139.288C472.253 139.288 471.845 139.348 471.461 139.468C471.089 139.576 470.729 139.732 470.381 139.936V138.496C470.621 138.376 470.963 138.256 471.407 138.136C471.851 138.016 472.379 137.956 472.991 137.956C473.927 137.956 474.671 138.166 475.223 138.586C475.775 139.006 476.051 139.732 476.051 140.764V148H474.449ZM482.805 148.18C481.317 148.18 480.261 147.85 479.637 147.19C479.013 146.518 478.701 145.57 478.701 144.346V138.136H480.303V144.364C480.303 145.204 480.501 145.828 480.897 146.236C481.293 146.644 481.929 146.848 482.805 146.848C483.681 146.848 484.317 146.644 484.713 146.236C485.109 145.828 485.307 145.204 485.307 144.364V143.932H483.903C483.135 143.932 482.607 143.77 482.319 143.446C482.043 143.122 481.905 142.762 481.905 142.366C481.905 142.186 481.929 142 481.977 141.808C482.025 141.616 482.091 141.454 482.175 141.322L483.471 141.556C483.399 141.7 483.363 141.874 483.363 142.078C483.363 142.234 483.405 142.378 483.489 142.51C483.585 142.642 483.747 142.708 483.975 142.708H485.307V138.136H486.909V142.708H488.061V143.932H486.909V144.346C486.909 145.57 486.597 146.518 485.973 147.19C485.349 147.85 484.293 148.18 482.805 148.18ZM478.989 136.57V135.868L480.303 135.292H485.145V133.834H486.657V135.868H486.639V136.57H478.989Z" fill="#49474A"/>
<circle cx="763" cy="37" r="13" fill="#57A3B3"/>
<path d="M693.384 43.16C692.381 43.16 691.603 42.92 691.048 42.44C690.504 41.9493 690.232 41.2187 690.232 40.248V39.272C690.232 38.7387 690.307 38.3173 690.456 38.008C690.605 37.6987 690.765 37.432 690.936 37.208C691.117 36.9627 691.272 36.7493 691.4 36.568C691.539 36.3867 691.608 36.168 691.608 35.912C691.608 35.688 691.549 35.528 691.432 35.432C691.325 35.336 691.187 35.288 691.016 35.288C690.888 35.288 690.749 35.3093 690.6 35.352C690.461 35.3947 690.323 35.448 690.184 35.512L689.864 34.488C690.056 34.36 690.291 34.2693 690.568 34.216C690.856 34.1627 691.107 34.136 691.32 34.136C691.917 34.136 692.339 34.2907 692.584 34.6C692.829 34.8987 692.952 35.2827 692.952 35.752C692.952 36.1467 692.883 36.472 692.744 36.728C692.616 36.984 692.461 37.2347 692.28 37.48C692.099 37.7467 691.949 38.0027 691.832 38.248C691.715 38.4933 691.656 38.8133 691.656 39.208V40.152C691.656 40.6427 691.736 41.0213 691.896 41.288C692.056 41.5547 692.269 41.7413 692.536 41.848C692.803 41.944 693.085 41.992 693.384 41.992C694.483 41.992 695.032 41.48 695.032 40.456V34.232H696.456V40.536C696.456 41.3573 696.195 42.0027 695.672 42.472C695.16 42.9307 694.397 43.16 693.384 43.16ZM694.163 32.84C693.491 32.84 693.017 32.7067 692.739 32.44C692.462 32.1627 692.323 31.8533 692.323 31.512C692.323 31.352 692.35 31.1813 692.403 31C692.446 30.808 692.505 30.6533 692.579 30.536L693.779 30.744C693.715 30.872 693.683 31.0373 693.683 31.24C693.683 31.3787 693.726 31.5013 693.811 31.608C693.897 31.704 694.041 31.752 694.243 31.752H698.291V32.84H694.163ZM693.736 28.464V27.904C693.949 27.8507 694.178 27.7653 694.424 27.648C694.658 27.5307 694.776 27.3547 694.776 27.12C694.776 26.8747 694.653 26.752 694.408 26.752C694.237 26.752 694.061 26.8053 693.88 26.912L693.592 26.176C693.784 26.048 694.002 25.9627 694.248 25.92C694.482 25.8773 694.669 25.856 694.808 25.856C695.085 25.856 695.336 25.9307 695.56 26.08C695.784 26.2187 695.896 26.4587 695.896 26.8C695.896 26.8853 695.885 26.9813 695.864 27.088C695.842 27.1947 695.805 27.296 695.752 27.392H697.768V28.464H693.736ZM701.35 43.16C700.411 43.16 699.67 42.9147 699.126 42.424C698.593 41.9333 698.326 41.1547 698.326 40.088V34.232H699.75V40.008C699.75 41.3093 700.385 41.96 701.654 41.96C702.401 41.96 702.977 41.72 703.382 41.24C703.798 40.76 704.006 40.1147 704.006 39.304V34.232H705.43V43H704.246L704.182 41.704H704.102C703.91 42.1307 703.574 42.4827 703.094 42.76C702.625 43.0267 702.043 43.16 701.35 43.16ZM711.003 43.16C710.107 43.16 709.413 42.9573 708.923 42.552C708.432 42.136 708.091 41.576 707.899 40.872C707.707 40.1573 707.611 39.3467 707.611 38.44C707.611 36.8827 707.829 35.768 708.267 35.096C708.715 34.4133 709.355 34.072 710.187 34.072C710.56 34.072 710.875 34.136 711.131 34.264C711.397 34.392 711.584 34.6053 711.691 34.904H711.755C711.861 34.5947 712.053 34.3813 712.331 34.264C712.608 34.136 712.933 34.072 713.307 34.072C714 34.072 714.533 34.2587 714.907 34.632C715.291 34.9947 715.483 35.5547 715.483 36.312V43H714.059V36.328C714.059 35.912 713.968 35.6293 713.787 35.48C713.605 35.3307 713.376 35.256 713.099 35.256C712.789 35.256 712.56 35.3307 712.411 35.48C712.272 35.6293 712.187 35.8747 712.155 36.216H711.259C711.216 35.8427 711.104 35.592 710.923 35.464C710.741 35.3253 710.539 35.256 710.315 35.256C709.888 35.256 709.568 35.5067 709.355 36.008C709.141 36.4987 709.035 37.3147 709.035 38.456C709.035 39.192 709.088 39.8213 709.195 40.344C709.312 40.8667 709.525 41.272 709.835 41.56C710.144 41.8373 710.592 41.976 711.179 41.976C711.392 41.976 711.568 41.9653 711.707 41.944C711.845 41.9227 711.979 41.896 712.107 41.864L712.251 42.952C712.091 43.0267 711.899 43.08 711.675 43.112C711.451 43.144 711.227 43.16 711.003 43.16ZM720.934 43.16C719.782 43.16 718.918 42.8613 718.342 42.264C717.777 41.656 717.494 40.7067 717.494 39.416C717.494 39.2027 717.5 38.9733 717.51 38.728C717.532 38.472 717.553 38.2213 717.574 37.976H720.934V39.096H718.918V39.416C718.918 40.088 718.993 40.616 719.142 41C719.292 41.3733 719.51 41.6347 719.798 41.784C720.097 41.9333 720.465 42.008 720.902 42.008C721.382 42.008 721.798 41.9173 722.15 41.736C722.502 41.5547 722.774 41.224 722.966 40.744C723.158 40.264 723.254 39.576 723.254 38.68C723.254 37.5067 723.052 36.6427 722.646 36.088C722.252 35.5333 721.564 35.256 720.582 35.256C720.07 35.256 719.58 35.3253 719.11 35.464C718.652 35.592 718.209 35.7787 717.782 36.024V34.696C718.102 34.5253 718.524 34.3813 719.046 34.264C719.569 34.136 720.14 34.072 720.758 34.072C721.697 34.072 722.454 34.264 723.03 34.648C723.617 35.0213 724.044 35.5547 724.31 36.248C724.577 36.9307 724.71 37.7413 724.71 38.68C724.71 39.6187 724.588 40.424 724.342 41.096C724.097 41.768 723.697 42.28 723.142 42.632C722.598 42.984 721.862 43.16 720.934 43.16ZM729.802 43.16C728.863 43.16 728.122 42.9147 727.578 42.424C727.045 41.9333 726.778 41.1547 726.778 40.088V34.232H728.202V40.008C728.202 41.3093 728.837 41.96 730.106 41.96C730.853 41.96 731.429 41.72 731.834 41.24C732.25 40.76 732.458 40.1147 732.458 39.304V34.232H733.882V43H732.698L732.634 41.704H732.554C732.362 42.1307 732.026 42.4827 731.546 42.76C731.077 43.0267 730.495 43.16 729.802 43.16ZM736.398 43V34.232H737.39L737.646 35.624H737.71C737.892 35.144 738.222 34.7653 738.702 34.488C739.182 34.2107 739.764 34.072 740.446 34.072C741.396 34.072 742.142 34.3173 742.686 34.808C743.23 35.2987 743.502 36.0773 743.502 37.144V43H742.078V37.224C742.078 35.9227 741.444 35.272 740.174 35.272C739.673 35.272 739.246 35.3893 738.894 35.624C738.542 35.8587 738.276 36.1787 738.094 36.584C737.913 36.9787 737.822 37.4267 737.822 37.928V43H736.398ZM736.294 32.84V32.216L737.462 31.704H741.766V30.408H743.11V32.216H743.094V32.84H736.294ZM741.51 29.464V26.856H742.87V29.464H741.51Z" fill="#49474A"/>
<path d="M763.847 36.504C764.945 36.6107 765.783 36.952 766.359 37.528C766.935 38.0933 767.223 38.8187 767.223 39.704C767.223 40.344 767.063 40.9253 766.743 41.448C766.423 41.96 765.943 42.3707 765.303 42.68C764.673 42.9787 763.9 43.128 762.983 43.128C762.183 43.128 761.415 43.0107 760.679 42.776C759.943 42.5307 759.34 42.1947 758.871 41.768L759.607 40.504C759.991 40.8667 760.481 41.16 761.079 41.384C761.676 41.5973 762.311 41.704 762.983 41.704C763.815 41.704 764.46 41.528 764.919 41.176C765.388 40.824 765.623 40.3387 765.623 39.72C765.623 39.1013 765.393 38.6213 764.935 38.28C764.476 37.9387 763.783 37.768 762.855 37.768H761.959V36.648L764.775 33.192H759.383V31.8H766.775V32.888L763.847 36.504Z" fill="white"/>
<rect x="628" y="194" width="209" height="14" fill="#49474A"/>
<rect x="643" y="66" width="179" height="120" rx="14" fill="#49474A"/>
<rect x="657" y="80" width="151" height="92" fill="white"/>
<path d="M670.517 132.18C669.809 132.18 669.149 132.114 668.537 131.982C667.937 131.838 667.427 131.67 667.007 131.478L667.475 130.182C667.859 130.338 668.315 130.488 668.843 130.632C669.383 130.776 669.953 130.848 670.553 130.848C671.189 130.848 671.717 130.728 672.137 130.488C672.557 130.248 672.767 129.9 672.767 129.444C672.767 129.036 672.599 128.7 672.263 128.436C671.927 128.172 671.387 127.926 670.643 127.698C669.887 127.458 669.245 127.206 668.717 126.942C668.201 126.666 667.805 126.342 667.529 125.97C667.265 125.586 667.133 125.112 667.133 124.548C667.133 123.804 667.439 123.186 668.051 122.694C668.663 122.202 669.641 121.956 670.985 121.956C671.561 121.956 672.101 122.01 672.605 122.118C673.121 122.214 673.523 122.352 673.811 122.532V123.882C673.511 123.738 673.097 123.6 672.569 123.468C672.041 123.336 671.495 123.27 670.931 123.27C670.127 123.27 669.557 123.396 669.221 123.648C668.897 123.888 668.735 124.164 668.735 124.476C668.735 124.74 668.807 124.962 668.951 125.142C669.107 125.322 669.365 125.496 669.725 125.664C670.097 125.832 670.595 126.024 671.219 126.24C671.795 126.432 672.323 126.654 672.803 126.906C673.283 127.158 673.661 127.476 673.937 127.86C674.225 128.232 674.369 128.712 674.369 129.3C674.369 129.804 674.243 130.278 673.991 130.722C673.751 131.154 673.349 131.508 672.785 131.784C672.221 132.048 671.465 132.18 670.517 132.18ZM679.756 132.18C678.46 132.18 677.488 131.844 676.84 131.172C676.204 130.488 675.886 129.42 675.886 127.968C675.886 127.728 675.892 127.47 675.904 127.194C675.928 126.906 675.952 126.624 675.976 126.348H679.756V127.608H677.488V127.968C677.488 128.724 677.572 129.318 677.74 129.75C677.908 130.17 678.154 130.464 678.478 130.632C678.814 130.8 679.228 130.884 679.72 130.884C680.26 130.884 680.728 130.782 681.124 130.578C681.52 130.374 681.826 130.002 682.042 129.462C682.258 128.922 682.366 128.148 682.366 127.14C682.366 125.82 682.138 124.848 681.682 124.224C681.238 123.6 680.464 123.288 679.36 123.288C678.784 123.288 678.232 123.366 677.704 123.522C677.188 123.666 676.69 123.876 676.21 124.152V122.658C676.57 122.466 677.044 122.304 677.632 122.172C678.22 122.028 678.862 121.956 679.558 121.956C680.614 121.956 681.466 122.172 682.114 122.604C682.774 123.024 683.254 123.624 683.554 124.404C683.854 125.172 684.004 126.084 684.004 127.14C684.004 128.196 683.866 129.102 683.59 129.858C683.314 130.614 682.864 131.19 682.24 131.586C681.628 131.982 680.8 132.18 679.756 132.18ZM689.696 132.18C688.736 132.18 687.98 131.958 687.428 131.514C686.888 131.058 686.504 130.446 686.276 129.678C686.06 128.91 685.952 128.064 685.952 127.14C685.952 125.784 686.138 124.734 686.51 123.99C686.882 123.234 687.398 122.706 688.058 122.406C688.73 122.106 689.504 121.956 690.38 121.956C691.82 121.956 692.864 122.268 693.512 122.892C694.172 123.516 694.502 124.362 694.502 125.43V132H692.918V125.574C692.918 124.83 692.732 124.266 692.36 123.882C691.988 123.486 691.346 123.288 690.434 123.288C689.882 123.288 689.384 123.39 688.94 123.594C688.508 123.798 688.166 124.176 687.914 124.728C687.674 125.28 687.554 126.09 687.554 127.158C687.554 127.854 687.62 128.484 687.752 129.048C687.896 129.6 688.142 130.038 688.49 130.362C688.838 130.686 689.324 130.848 689.948 130.848C690.128 130.848 690.296 130.836 690.452 130.812C690.608 130.788 690.758 130.752 690.902 130.704L691.064 131.946C690.872 132.03 690.65 132.09 690.398 132.126C690.158 132.162 689.924 132.18 689.696 132.18ZM691.892 136.77C691.124 136.77 690.542 136.614 690.146 136.302C689.738 136.002 689.534 135.57 689.534 135.006V134.7C689.534 134.496 689.486 134.37 689.39 134.322C689.282 134.286 689.138 134.292 688.958 134.34L688.85 133.26C689.018 133.212 689.186 133.182 689.354 133.17C689.51 133.158 689.63 133.152 689.714 133.152C690.146 133.152 690.458 133.248 690.65 133.44C690.83 133.632 690.92 133.902 690.92 134.25V134.862C690.92 135.09 690.992 135.282 691.136 135.438C691.28 135.594 691.526 135.672 691.874 135.672C692.234 135.672 692.486 135.594 692.63 135.438C692.762 135.282 692.828 135.09 692.828 134.862V133.206H694.232V134.952C694.232 136.164 693.452 136.77 691.892 136.77ZM696.972 132V123.882C696.972 123.366 697.074 122.97 697.278 122.694C697.482 122.418 697.746 122.226 698.07 122.118C698.394 122.01 698.742 121.956 699.114 121.956C699.246 121.956 699.414 121.974 699.618 122.01C699.834 122.046 700.02 122.1 700.176 122.172L699.978 123.378C699.858 123.342 699.738 123.318 699.618 123.306C699.498 123.282 699.402 123.27 699.33 123.27C699.03 123.27 698.82 123.342 698.7 123.486C698.592 123.63 698.538 123.834 698.538 124.098V126.888C698.538 127.26 698.532 127.65 698.52 128.058C698.52 128.454 698.502 128.934 698.466 129.498H698.538C698.778 128.97 699 128.532 699.204 128.184C699.408 127.824 699.6 127.488 699.78 127.176L700.734 125.556H701.742L702.696 127.176C702.972 127.656 703.206 128.07 703.398 128.418C703.59 128.754 703.77 129.114 703.938 129.498H704.01C703.974 128.934 703.95 128.454 703.938 128.058C703.938 127.65 703.938 127.26 703.938 126.888V122.136H705.504V132H704.082L701.292 127.284H701.22L698.394 132H696.972ZM710.965 132.18C709.909 132.18 709.099 131.94 708.535 131.46C707.983 130.968 707.707 130.266 707.707 129.354C707.707 128.358 708.067 127.59 708.787 127.05C709.519 126.51 710.701 126.192 712.333 126.096L714.061 125.988V125.43C714.061 124.65 713.881 124.098 713.521 123.774C713.173 123.438 712.585 123.27 711.757 123.27C711.157 123.27 710.581 123.354 710.029 123.522C709.489 123.678 708.973 123.9 708.481 124.188V122.694C708.829 122.514 709.297 122.346 709.885 122.19C710.485 122.034 711.157 121.956 711.901 121.956C713.161 121.956 714.097 122.232 714.709 122.784C715.333 123.324 715.645 124.176 715.645 125.34V132H714.061V127.32L712.549 127.428C711.325 127.512 710.479 127.704 710.011 128.004C709.555 128.304 709.327 128.742 709.327 129.318C709.327 129.858 709.495 130.254 709.831 130.506C710.179 130.758 710.659 130.884 711.271 130.884C711.667 130.884 712.015 130.83 712.315 130.722L712.567 131.928C712.339 132.012 712.087 132.072 711.811 132.108C711.547 132.156 711.265 132.18 710.965 132.18ZM718.297 132V125.7C718.297 124.488 718.621 123.564 719.269 122.928C719.917 122.28 720.949 121.956 722.365 121.956C723.793 121.956 724.825 122.28 725.461 122.928C726.109 123.564 726.433 124.488 726.433 125.7V132H724.831V125.7C724.831 124.092 724.003 123.288 722.347 123.288C720.715 123.288 719.899 124.092 719.899 125.7V127.698L719.953 127.716C720.217 127.248 720.541 126.942 720.925 126.798C721.309 126.642 721.849 126.564 722.545 126.564H723.139V127.878H722.545C721.813 127.878 721.255 127.98 720.871 128.184C720.499 128.388 720.241 128.658 720.097 128.994C719.965 129.318 719.899 129.684 719.899 130.092V132H718.297ZM724.693 121.002C724.093 121.002 723.619 120.864 723.271 120.588C722.923 120.3 722.749 119.898 722.749 119.382C722.749 118.854 722.923 118.452 723.271 118.176C723.619 117.9 724.093 117.762 724.693 117.762C725.293 117.762 725.773 117.9 726.133 118.176C726.493 118.452 726.673 118.854 726.673 119.382C726.673 119.898 726.493 120.3 726.133 120.588C725.773 120.864 725.293 121.002 724.693 121.002ZM724.693 120.156C724.981 120.156 725.203 120.084 725.359 119.94C725.503 119.796 725.575 119.61 725.575 119.382C725.575 119.142 725.503 118.956 725.359 118.824C725.203 118.68 724.981 118.608 724.693 118.608C724.417 118.608 724.207 118.68 724.063 118.824C723.907 118.956 723.829 119.142 723.829 119.382C723.829 119.61 723.907 119.796 724.063 119.94C724.207 120.084 724.417 120.156 724.693 120.156ZM731.603 132V124.998C731.603 124.41 731.465 123.978 731.189 123.702C730.925 123.426 730.475 123.288 729.839 123.288C729.407 123.288 728.999 123.348 728.615 123.468C728.243 123.576 727.883 123.732 727.535 123.936V122.496C727.775 122.376 728.117 122.256 728.561 122.136C729.005 122.016 729.533 121.956 730.145 121.956C731.081 121.956 731.825 122.166 732.377 122.586C732.929 123.006 733.205 123.732 733.205 124.764V132H731.603ZM739.258 132.18C738.202 132.18 737.368 131.904 736.756 131.352C736.156 130.8 735.856 129.924 735.856 128.724V122.136H737.458V128.634C737.458 130.098 738.172 130.83 739.6 130.83C740.44 130.83 741.088 130.56 741.544 130.02C742.012 129.48 742.246 128.754 742.246 127.842V122.136H743.848V132H742.516L742.444 130.542H742.354C742.138 131.022 741.76 131.418 741.22 131.73C740.692 132.03 740.038 132.18 739.258 132.18ZM748.605 132.18C748.137 132.18 747.681 132.132 747.237 132.036C746.805 131.94 746.343 131.76 745.851 131.496L746.355 130.272C746.619 130.428 746.919 130.566 747.255 130.686C747.591 130.794 747.981 130.848 748.425 130.848C749.313 130.848 750.003 130.524 750.495 129.876C750.999 129.216 751.251 128.268 751.251 127.032C751.251 125.82 750.993 124.896 750.477 124.26C749.973 123.612 749.193 123.288 748.137 123.288C747.753 123.288 747.363 123.33 746.967 123.414C746.571 123.498 746.223 123.624 745.923 123.792V122.442C746.271 122.262 746.649 122.136 747.057 122.064C747.477 121.992 747.897 121.956 748.317 121.956C749.397 121.956 750.273 122.172 750.945 122.604C751.617 123.024 752.109 123.612 752.421 124.368C752.733 125.124 752.889 126.012 752.889 127.032C752.889 128.616 752.529 129.87 751.809 130.794C751.101 131.718 750.033 132.18 748.605 132.18ZM757.248 132.18C756.912 132.18 756.588 132.126 756.276 132.018C755.976 131.91 755.73 131.718 755.538 131.442C755.358 131.166 755.268 130.782 755.268 130.29V128.544C755.268 127.8 755.424 127.26 755.736 126.924C756.06 126.588 756.48 126.354 756.996 126.222L757.014 126.168L754.944 125.412V124.818C754.944 124.29 755.1 123.81 755.412 123.378C755.736 122.946 756.186 122.604 756.762 122.352C757.35 122.088 758.034 121.956 758.814 121.956C759.474 121.956 760.098 122.064 760.686 122.28C761.286 122.496 761.772 122.856 762.144 123.36C762.516 123.852 762.702 124.512 762.702 125.34V128.778C762.702 129.498 762.864 130.02 763.188 130.344C763.524 130.668 763.968 130.83 764.52 130.83C765.24 130.83 765.822 130.56 766.266 130.02C766.71 129.48 766.932 128.772 766.932 127.896V122.136H768.534V132H767.22L767.13 130.434H767.04C766.836 130.986 766.47 131.418 765.942 131.73C765.426 132.03 764.844 132.18 764.196 132.18C763.284 132.18 762.54 131.928 761.964 131.424C761.388 130.92 761.1 130.08 761.1 128.904V125.502C761.1 124.926 760.992 124.476 760.776 124.152C760.56 123.828 760.272 123.606 759.912 123.486C759.564 123.354 759.192 123.288 758.796 123.288C758.16 123.288 757.632 123.426 757.212 123.702C756.804 123.978 756.594 124.38 756.582 124.908L758.634 125.88L758.49 126.744C758.046 126.744 757.662 126.882 757.338 127.158C757.026 127.434 756.87 127.89 756.87 128.526V130.11C756.87 130.614 757.122 130.866 757.626 130.866C757.878 130.866 758.1 130.83 758.292 130.758L758.526 131.91C758.298 132.018 758.076 132.09 757.86 132.126C757.656 132.162 757.452 132.18 757.248 132.18ZM771.435 132.18C771.219 132.18 771.009 132.156 770.805 132.108C770.601 132.072 770.397 132.006 770.193 131.91L770.373 130.794C770.457 130.818 770.553 130.842 770.661 130.866C770.769 130.89 770.871 130.902 770.967 130.902C771.327 130.902 771.507 130.662 771.507 130.182V128.508C771.507 127.764 771.645 127.23 771.921 126.906C772.197 126.57 772.593 126.342 773.109 126.222L773.127 126.168L771.057 125.412V124.818C771.057 124.326 771.213 123.864 771.525 123.432C771.849 122.988 772.317 122.634 772.929 122.37C773.541 122.094 774.273 121.956 775.125 121.956C775.869 121.956 776.553 122.076 777.177 122.316C777.801 122.544 778.299 122.91 778.671 123.414C779.055 123.906 779.247 124.554 779.247 125.358V132H777.645V125.52C777.645 124.716 777.399 124.146 776.907 123.81C776.415 123.462 775.815 123.288 775.107 123.288C774.363 123.288 773.775 123.444 773.343 123.756C772.911 124.056 772.695 124.44 772.695 124.908L774.747 125.88L774.603 126.744C774.159 126.744 773.799 126.888 773.523 127.176C773.247 127.464 773.109 127.926 773.109 128.562V130.308C773.109 131.04 772.947 131.538 772.623 131.802C772.299 132.054 771.903 132.18 771.435 132.18ZM784.675 132V124.998C784.675 124.41 784.537 123.978 784.261 123.702C783.997 123.426 783.547 123.288 782.911 123.288C782.479 123.288 782.071 123.348 781.687 123.468C781.315 123.576 780.955 123.732 780.607 123.936V122.496C780.847 122.376 781.189 122.256 781.633 122.136C782.077 122.016 782.605 121.956 783.217 121.956C784.153 121.956 784.897 122.166 785.449 122.586C786.001 123.006 786.277 123.732 786.277 124.764V132H784.675ZM793.032 132.18C791.544 132.18 790.488 131.85 789.864 131.19C789.24 130.518 788.928 129.57 788.928 128.346V122.136H790.53V128.364C790.53 129.204 790.728 129.828 791.124 130.236C791.52 130.644 792.156 130.848 793.032 130.848C793.908 130.848 794.544 130.644 794.94 130.236C795.336 129.828 795.534 129.204 795.534 128.364V127.932H794.13C793.362 127.932 792.834 127.77 792.546 127.446C792.27 127.122 792.132 126.762 792.132 126.366C792.132 126.186 792.156 126 792.204 125.808C792.252 125.616 792.318 125.454 792.402 125.322L793.698 125.556C793.626 125.7 793.59 125.874 793.59 126.078C793.59 126.234 793.632 126.378 793.716 126.51C793.812 126.642 793.974 126.708 794.202 126.708H795.534V122.136H797.136V126.708H798.288V127.932H797.136V128.346C797.136 129.57 796.824 130.518 796.2 131.19C795.576 131.85 794.52 132.18 793.032 132.18ZM789.215 120.57V119.868L790.529 119.292H795.371V117.834H796.883V119.868H796.865V120.57H789.215Z" fill="#49474A"/>
</svg>
