<svg width="608" height="400" viewBox="0 0 608 400" fill="none" xmlns="http://www.w3.org/2000/svg">
<g clip-path="url(#clip0)">
<path d="M396.523 174.657C395.823 178.339 394.983 181.983 394.004 185.59C393.898 186.009 393.779 186.421 393.66 186.84H380.04C378.88 186.842 377.768 187.303 376.948 188.123C376.127 188.944 375.666 190.056 375.665 191.216V230.047C375.252 230.816 374.833 231.579 374.415 232.341C372.252 236.28 370.002 240.174 367.701 244.018C330.193 306.501 277.88 358.788 215.38 396.262L219.08 387.911C217.724 387.817 216.361 387.723 215.005 387.629C185.471 385.61 155.837 383.372 126.996 376.734C96.8244 369.789 67.3092 357.743 43.663 337.771C20.0105 317.793 2.67141 289.263 0.264856 258.396C-0.5376 247.787 0.535221 237.12 3.43412 226.884C8.97818 207.181 21.0921 189.453 38.5689 178.964C66.0215 162.493 101.831 165.849 130.772 179.552C159.706 193.248 183.258 215.92 206.254 238.199C183.036 198.381 150.71 164.636 111.926 139.733C99.0747 131.506 85.436 124.18 74.5099 113.522C63.5899 102.87 55.5328 87.9366 57.4645 72.8029C59.6583 55.6376 73.7161 42.6105 87.7986 32.5651C93.4242 28.5519 99.231 24.7451 105.219 21.2445C122.114 11.3429 140.391 3.87292 159.693 1.10372C185.84 -2.65315 214.08 3.04779 234.126 20.2506C256.709 39.635 265.972 70.8963 265.091 100.801C279.005 80.5729 300.463 65.0891 324.697 64.4328C349.856 63.7577 373.771 79.654 386.372 101.445C398.967 123.23 401.23 149.934 396.523 174.657Z" fill="#57A3B3" fill-opacity="0.21"/>
<path d="M237.346 258.668C252.082 257.37 265.694 255.854 279.973 251.813C293.814 247.896 307.133 241.339 316.986 230.633C327.584 219.118 333.304 204.163 337.341 189.276C339.591 180.976 341.44 172.559 343.185 164.14C345.078 155.006 346.76 145.83 348.231 136.615C351.159 118.271 353.249 99.8196 354.502 81.2599C354.654 79.007 354.792 76.7533 354.918 74.4989C354.997 73.1082 352.834 73.1126 352.756 74.4989C351.727 92.7935 349.875 111.017 347.202 129.169C344.564 147.003 341.188 164.76 336.906 182.274C333.278 197.112 328.58 212.181 319.275 224.533C310.55 236.115 297.947 243.685 284.339 248.21C270.492 252.815 255.893 254.654 241.423 256.021C239.648 256.189 239.122 256.348 237.346 256.505C235.97 256.626 235.958 258.79 237.346 258.668L237.346 258.668Z" fill="white"/>
<path d="M4.68256 228.48C23.2742 229.511 41.6767 232.754 59.501 238.14C77.3329 243.516 94.4688 250.975 110.554 260.364C126.096 269.443 140.524 280.308 153.545 292.735C166.183 304.804 177.446 318.234 187.128 332.781C196.855 347.364 204.916 362.992 211.16 379.371C211.921 381.376 212.654 383.391 213.36 385.416C213.816 386.722 215.906 386.16 215.445 384.841C209.604 368.116 201.903 352.099 192.488 337.092C183.074 322.083 172.026 308.164 159.547 295.59C146.867 282.821 132.756 271.559 117.492 262.027C85.4447 242.063 49.1189 229.985 11.4979 226.787C9.22853 226.596 6.95676 226.44 4.68259 226.317C3.29182 226.241 3.29609 228.404 4.68259 228.48L4.68256 228.48Z" fill="white"/>
<path d="M105.804 23.7798C117.691 27.5605 128.958 33.0669 139.245 40.1226C149.757 47.3814 159.344 55.8957 167.793 65.4768C176.697 75.5557 184.614 86.4661 191.433 98.0578C198.666 110.297 204.95 123.073 210.229 136.274C215.664 149.826 220.236 163.709 223.917 177.84C227.658 192.138 230.58 206.638 232.669 221.269C234.748 235.745 236.005 250.326 236.437 264.944C236.871 278.922 236.458 292.914 235.199 306.842C234.048 319.835 231.946 332.728 228.909 345.414C226.212 356.872 222.412 368.042 217.561 378.767C216.438 381.201 215.245 383.602 213.984 385.969C213.33 387.197 215.197 388.291 215.852 387.061C221.213 376.816 225.493 366.042 228.624 354.912C232.138 342.522 234.684 329.878 236.241 317.094C237.967 303.224 238.808 289.258 238.758 275.281C238.727 260.597 237.853 245.927 236.14 231.344C234.427 216.578 231.883 201.921 228.521 187.442C225.166 172.939 220.912 158.659 215.781 144.685C210.836 131.158 204.916 118.008 198.066 105.338C191.542 93.2481 183.939 81.7723 175.35 71.0506C167.194 60.842 157.881 51.6131 147.6 43.5485C137.686 35.7955 126.73 29.4757 115.056 24.7751C112.203 23.6395 109.31 22.6125 106.379 21.6941C105.048 21.2754 104.478 23.3628 105.804 23.7798H105.804Z" fill="white"/>
<path d="M234.088 400C319.528 400 388.791 397.201 388.791 393.749C388.791 390.297 319.528 387.498 234.088 387.498C148.648 387.498 79.3855 390.297 79.3855 393.749C79.3855 397.201 148.648 400 234.088 400Z" fill="#E6E6E6"/>
<path d="M370.77 197.96C370.693 198.298 370.643 198.641 370.62 198.986L343.769 214.477L337.243 210.72L330.285 219.829L344.247 229.781L374.88 205.613C376.13 206.075 377.49 206.146 378.781 205.816C380.072 205.486 381.231 204.771 382.106 203.766C382.981 202.761 383.528 201.514 383.677 200.19C383.825 198.866 383.567 197.528 382.937 196.355C382.306 195.181 381.333 194.227 380.148 193.62C378.962 193.012 377.619 192.781 376.299 192.955C374.978 193.129 373.742 193.701 372.754 194.596C371.766 195.49 371.074 196.663 370.77 197.96V197.96Z" fill="#FFB8B8"/>
<path d="M309.619 207.465L330.761 222.534L340.217 210.678L319.665 194.186C318.78 193.476 317.761 192.955 316.668 192.653C315.575 192.352 314.432 192.276 313.309 192.432C312.186 192.588 311.107 192.971 310.137 193.558C309.168 194.146 308.328 194.925 307.67 195.848V195.848C306.388 197.647 305.873 199.881 306.239 202.06C306.604 204.239 307.82 206.183 309.619 207.465Z" fill="#57A3B3"/>
<path d="M265.976 379.41L273.389 381.352L284.409 353.683L273.468 350.815L265.976 379.41Z" fill="#FFB8B8"/>
<path d="M285.882 391.982L262.584 385.877L264.943 376.875L279.239 380.622C281.626 381.247 283.667 382.796 284.913 384.926C286.159 387.057 286.507 389.595 285.882 391.982V391.982V391.982Z" fill="#2F2E41"/>
<path d="M331.872 384.688L339.416 383.341L337.808 353.6L326.674 355.589L331.872 384.688Z" fill="#FFB8B8"/>
<path d="M355.216 387.747L331.507 391.982L329.87 382.822L344.419 380.223C345.622 380.008 346.855 380.032 348.049 380.294C349.243 380.556 350.373 381.05 351.376 381.749C352.378 382.447 353.233 383.337 353.892 384.366C354.551 385.395 355.001 386.544 355.216 387.747V387.747V387.747Z" fill="#2F2E41"/>
<path d="M317.017 165.97C318.876 166.422 320.389 168.317 321.297 170.511C322.135 172.816 322.702 175.211 322.987 177.646C323.701 182.183 324.386 187.093 322.91 191.295C321.18 196.219 316.571 198.798 312.572 197.586C308.574 196.374 305.394 191.825 304.307 186.588C303.318 181.296 303.956 175.829 306.135 170.908C307.271 168.321 308.837 165.936 310.917 164.769C311.938 164.152 313.154 163.944 314.322 164.187C315.489 164.43 316.521 165.107 317.211 166.08" fill="#2F2E41"/>
<path d="M327.535 248.1L341.897 376.743L330.035 381.247L308.158 294.983L277.7 373.857L264.716 374.579C264.716 374.579 282.531 251.851 295.733 249.062L327.535 248.1Z" fill="#2F2E41"/>
<path d="M315.472 182.387C323.951 182.387 330.824 175.513 330.824 167.034C330.824 158.555 323.951 151.681 315.472 151.681C306.993 151.681 300.12 158.555 300.12 167.034C300.12 175.513 306.993 182.387 315.472 182.387Z" fill="#FFB8B8"/>
<path d="M322.061 188.828L305.471 186.664C305.471 186.664 294.651 199.648 295.372 222.01C296.093 244.373 293.569 251.226 293.569 251.226L328.16 251.851C323.16 244.975 344.075 205.482 322.061 188.828Z" fill="#57A3B3"/>
<path d="M330.973 254.976C330.627 254.979 330.282 255.009 329.941 255.065L308.717 232.47L310.881 225.257L300.421 220.568L293.929 236.438L324.465 260.729C324.301 262.051 324.543 263.392 325.159 264.573C325.776 265.754 326.737 266.719 327.916 267.341C329.094 267.962 330.434 268.21 331.756 268.052C333.079 267.893 334.322 267.335 335.32 266.453C336.319 265.571 337.024 264.406 337.344 263.112C337.664 261.819 337.583 260.459 337.111 259.213C336.639 257.967 335.799 256.894 334.702 256.138C333.606 255.381 332.305 254.976 330.973 254.976V254.976Z" fill="#FFB8B8"/>
<path d="M307.727 197.619L297.897 221.65L311.602 228.142L322.952 204.36C323.44 203.337 323.714 202.225 323.758 201.092C323.801 199.959 323.613 198.829 323.205 197.772C322.796 196.714 322.176 195.751 321.382 194.941C320.589 194.132 319.638 193.493 318.589 193.064V193.064C317.577 192.65 316.493 192.439 315.399 192.444C314.305 192.448 313.223 192.669 312.215 193.092C311.206 193.515 310.291 194.132 309.521 194.909C308.751 195.686 308.141 196.607 307.727 197.619V197.619Z" fill="#57A3B3"/>
<path d="M311.456 180.992C313.862 179.604 314.118 176.256 313.791 173.498C313.465 170.741 312.918 167.666 314.539 165.411C316.474 162.72 320.361 162.666 323.674 162.578C326.988 162.49 331.023 161.52 331.881 158.318C332.448 156.203 331.235 153.933 329.493 152.605C327.751 151.277 325.573 150.69 323.455 150.132C318.717 148.884 313.825 147.625 308.974 148.311C304.17 148.991 299.826 151.535 296.882 155.393C293.939 159.251 292.632 164.113 293.246 168.927C294.031 175.085 295.17 177.774 294.423 180.489C293.03 185.546 287.028 188.795 286.908 194.039C286.815 198.141 290.437 201.305 293.972 203.388C296.776 205.04 299.802 206.442 303.033 206.829C306.264 207.216 309.743 206.475 312.15 204.285C315.255 201.46 316.023 196.741 315.132 192.639C314.242 188.537 311.959 184.894 309.7 181.356" fill="#2F2E41"/>
<path d="M601.937 185.59H380.04C378.549 185.592 377.119 186.186 376.065 187.24C375.01 188.295 374.417 189.725 374.415 191.216V333.739C374.417 335.231 375.01 336.66 376.065 337.715C377.119 338.769 378.549 339.363 380.04 339.365H601.937C603.429 339.363 604.858 338.769 605.913 337.715C606.967 336.66 607.561 335.231 607.563 333.739V191.216C607.561 189.725 606.967 188.295 605.913 187.24C604.858 186.186 603.429 185.592 601.937 185.59V185.59ZM606.313 333.739C606.311 334.899 605.85 336.012 605.03 336.832C604.21 337.652 603.097 338.114 601.937 338.115H380.04C378.88 338.114 377.768 337.652 376.948 336.832C376.128 336.012 375.666 334.899 375.665 333.739V191.216C375.666 190.056 376.128 188.944 376.948 188.123C377.768 187.303 378.88 186.842 380.04 186.84H601.937C603.097 186.842 604.21 187.303 605.03 188.123C605.85 188.944 606.311 190.056 606.313 191.216V333.739Z" fill="#3F3D56"/>
<path d="M427.405 256.536H392.401C390.993 256.535 389.642 255.974 388.646 254.978C387.65 253.982 387.09 252.632 387.088 251.223V216.217C387.09 214.808 387.65 213.458 388.646 212.462C389.642 211.466 390.993 210.905 392.401 210.904H427.405C428.813 210.905 430.164 211.466 431.16 212.462C432.156 213.458 432.716 214.808 432.718 216.217V251.223C432.716 252.632 432.156 253.982 431.16 254.978C430.164 255.974 428.813 256.535 427.405 256.536V256.536Z" fill="#57A3B3"/>
<path d="M590.381 293.736H391.611C390.533 293.736 389.5 293.308 388.738 292.546C387.976 291.784 387.548 290.75 387.548 289.673C387.548 288.595 387.976 287.561 388.738 286.799C389.5 286.037 390.533 285.609 391.611 285.609H590.381C591.458 285.609 592.492 286.037 593.254 286.799C594.016 287.561 594.444 288.595 594.444 289.673C594.444 290.75 594.016 291.784 593.254 292.546C592.492 293.308 591.458 293.736 590.381 293.736V293.736Z" fill="#CCCCCC"/>
<path d="M590.514 274.045H391.744C390.667 274.045 389.633 273.617 388.871 272.855C388.109 272.093 387.681 271.059 387.681 269.982C387.681 268.904 388.109 267.871 388.871 267.109C389.633 266.347 390.667 265.919 391.744 265.919H590.514C591.592 265.919 592.625 266.347 593.387 267.109C594.149 267.871 594.577 268.904 594.577 269.982C594.577 271.059 594.149 272.093 593.387 272.855C592.625 273.617 591.592 274.045 590.514 274.045V274.045Z" fill="#CCCCCC"/>
<path d="M492.379 247.16H463.001C461.924 247.16 460.89 246.731 460.128 245.969C459.367 245.207 458.938 244.174 458.938 243.096C458.938 242.019 459.367 240.985 460.128 240.223C460.89 239.461 461.924 239.033 463.001 239.033H492.379C493.457 239.033 494.49 239.461 495.252 240.223C496.014 240.985 496.442 242.019 496.442 243.096C496.442 244.174 496.014 245.207 495.252 245.969C494.49 246.731 493.457 247.16 492.379 247.16V247.16Z" fill="#CCCCCC"/>
<path d="M590.514 227.162H463.001C461.924 227.162 460.89 226.734 460.128 225.972C459.367 225.21 458.938 224.177 458.938 223.099C458.938 222.022 459.367 220.988 460.128 220.226C460.89 219.464 461.924 219.036 463.001 219.036H590.514C591.592 219.036 592.625 219.464 593.387 220.226C594.149 220.988 594.577 222.022 594.577 223.099C594.577 224.177 594.149 225.21 593.387 225.972C592.625 226.734 591.592 227.162 590.514 227.162V227.162Z" fill="#CCCCCC"/>
<path d="M487.379 313.739H391.611C390.533 313.739 389.5 313.311 388.738 312.549C387.976 311.787 387.548 310.753 387.548 309.676C387.548 308.598 387.976 307.565 388.738 306.803C389.5 306.041 390.533 305.613 391.611 305.613H487.379C488.457 305.613 489.49 306.041 490.252 306.803C491.014 307.565 491.442 308.598 491.442 309.676C491.442 310.753 491.014 311.787 490.252 312.549C489.49 313.311 488.457 313.739 487.379 313.739V313.739Z" fill="#CCCCCC"/>
</g>
<defs>
<clipPath id="clip0">
<rect width="607.563" height="400" fill="white"/>
</clipPath>
</defs>
</svg>
