<svg width="181" height="29" viewBox="0 0 181 29" fill="none" xmlns="http://www.w3.org/2000/svg">
<path d="M46.936 7.056H35.488C35.056 7.056 34.72 7.392 34.72 7.824C34.72 8.232 35.056 8.568 35.488 8.568H40.456V23.232C40.456 23.664 40.792 24 41.224 24C41.632 24 41.968 23.664 41.968 23.232V8.568H46.936C47.368 8.568 47.704 8.232 47.704 7.824C47.704 7.392 47.368 7.056 46.936 7.056ZM65.5501 22.92L58.8061 7.512C58.6861 7.224 58.3981 7.056 58.1101 7.056C57.7981 7.056 57.5341 7.224 57.3901 7.512L50.6461 22.92C50.4781 23.304 50.6701 23.76 51.0541 23.928C51.4381 24.096 51.8941 23.928 52.0621 23.544L53.8381 19.464H62.3581L64.1581 23.544C64.2781 23.832 64.5421 24 64.8541 24C64.9501 24 65.0461 23.976 65.1661 23.928C65.5501 23.76 65.7181 23.304 65.5501 22.92ZM54.5101 17.928L58.1101 9.72L61.6861 17.928H54.5101ZM76.3146 15.528L82.0026 8.28C82.2666 7.944 82.2186 7.464 81.8826 7.2C81.5466 6.96 81.0666 7.008 80.8026 7.344L75.3306 14.28L69.8586 7.344C69.5946 7.008 69.1146 6.96 68.7786 7.2C68.4666 7.464 68.3946 7.944 68.6586 8.28L74.3706 15.528L68.6586 22.752C68.3946 23.088 68.4666 23.568 68.7786 23.832C68.9226 23.952 69.0906 24 69.2586 24C69.4986 24 69.7146 23.904 69.8586 23.712L75.3306 16.752L80.8026 23.712C80.9706 23.904 81.1866 24 81.4026 24C81.5706 24 81.7386 23.952 81.8826 23.832C82.2186 23.568 82.2666 23.088 82.0026 22.752L76.3146 15.528Z" fill="#49474A"/>
<path d="M40.456 8.568H40.956V8.068H40.456V8.568ZM41.968 8.568V8.068H41.468V8.568H41.968ZM46.936 6.556H35.488V7.556H46.936V6.556ZM35.488 6.556C34.7799 6.556 34.22 7.11586 34.22 7.824H35.22C35.22 7.66814 35.3321 7.556 35.488 7.556V6.556ZM34.22 7.824C34.22 8.51845 34.7903 9.068 35.488 9.068V8.068C35.3217 8.068 35.22 7.94555 35.22 7.824H34.22ZM35.488 9.068H40.456V8.068H35.488V9.068ZM39.956 8.568V23.232H40.956V8.568H39.956ZM39.956 23.232C39.956 23.9401 40.5159 24.5 41.224 24.5V23.5C41.0681 23.5 40.956 23.3879 40.956 23.232H39.956ZM41.224 24.5C41.9184 24.5 42.468 23.9297 42.468 23.232H41.468C41.468 23.3983 41.3456 23.5 41.224 23.5V24.5ZM42.468 23.232V8.568H41.468V23.232H42.468ZM41.968 9.068H46.936V8.068H41.968V9.068ZM46.936 9.068C47.6337 9.068 48.204 8.51845 48.204 7.824H47.204C47.204 7.94555 47.1023 8.068 46.936 8.068V9.068ZM48.204 7.824C48.204 7.11586 47.6441 6.556 46.936 6.556V7.556C47.0919 7.556 47.204 7.66814 47.204 7.824H48.204ZM65.5501 22.92L66.0081 22.7196L66.0081 22.7195L65.5501 22.92ZM58.8061 7.512L58.3445 7.70434L58.348 7.71248L58.8061 7.512ZM57.3901 7.512L56.9428 7.28839L56.9371 7.29982L56.932 7.31151L57.3901 7.512ZM50.6461 22.92L50.188 22.7195L50.188 22.7196L50.6461 22.92ZM51.0541 23.928L50.8537 24.3861L50.8537 24.3861L51.0541 23.928ZM52.0621 23.544L52.5201 23.7444L52.5205 23.7436L52.0621 23.544ZM53.8381 19.464V18.964H53.5104L53.3796 19.2644L53.8381 19.464ZM62.3581 19.464L62.8155 19.2622L62.684 18.964H62.3581V19.464ZM64.1581 23.544L64.6197 23.3517L64.6155 23.3422L64.1581 23.544ZM65.1661 23.928L65.3518 24.3922L65.3592 24.3893L65.3665 24.3861L65.1661 23.928ZM54.5101 17.928L54.0522 17.7272L53.7448 18.428H54.5101V17.928ZM58.1101 9.72L58.5684 9.52029L58.1116 8.47168L57.6522 9.51917L58.1101 9.72ZM61.6861 17.928V18.428H62.4493L62.1444 17.7283L61.6861 17.928ZM66.0081 22.7195L59.2641 7.31151L58.348 7.71248L65.092 23.1205L66.0081 22.7195ZM59.2676 7.31969C59.063 6.82876 58.5813 6.556 58.1101 6.556V7.556C58.2148 7.556 58.3091 7.61924 58.3445 7.70431L59.2676 7.31969ZM58.1101 6.556C57.5997 6.556 57.1675 6.83919 56.9428 7.28839L57.8373 7.73561C57.9007 7.60881 57.9964 7.556 58.1101 7.556V6.556ZM56.932 7.31151L50.188 22.7195L51.1041 23.1205L57.8481 7.71248L56.932 7.31151ZM50.188 22.7196C49.9033 23.3703 50.2306 24.1135 50.8537 24.3861L51.2545 23.4699C51.1096 23.4065 51.0528 23.2377 51.1041 23.1204L50.188 22.7196ZM50.8537 24.3861C51.4798 24.66 52.2368 24.3921 52.5201 23.7444L51.604 23.3436C51.5513 23.4639 51.3963 23.532 51.2545 23.4699L50.8537 24.3861ZM52.5205 23.7436L54.2965 19.6636L53.3796 19.2644L51.6036 23.3444L52.5205 23.7436ZM53.8381 19.964H62.3581V18.964H53.8381V19.964ZM61.9006 19.6658L63.7006 23.7458L64.6155 23.3422L62.8155 19.2622L61.9006 19.6658ZM63.6965 23.7363C63.8977 24.2192 64.3496 24.5 64.8541 24.5V23.5C64.7345 23.5 64.6584 23.4448 64.6196 23.3517L63.6965 23.7363ZM64.8541 24.5C65.0385 24.5 65.2012 24.4525 65.3518 24.3922L64.9804 23.4638C64.891 23.4995 64.8617 23.5 64.8541 23.5V24.5ZM65.3665 24.3861C66.0141 24.1027 66.2821 23.3458 66.0081 22.7196L65.092 23.1204C65.154 23.2622 65.086 23.4173 64.9657 23.4699L65.3665 24.3861ZM54.968 18.1288L58.568 9.92083L57.6522 9.51917L54.0522 17.7272L54.968 18.1288ZM57.6517 9.91971L61.2277 18.1277L62.1444 17.7283L58.5684 9.52029L57.6517 9.91971ZM61.6861 17.428H54.5101V18.428H61.6861V17.428ZM76.3146 15.528L75.9213 15.2193L75.6786 15.5285L75.9218 15.8373L76.3146 15.528ZM82.0026 8.28L81.6095 7.97109L81.6093 7.97132L82.0026 8.28ZM81.8826 7.2L82.1915 6.80684L82.1825 6.79978L82.1732 6.79313L81.8826 7.2ZM80.8026 7.344L81.1952 7.65369L81.1958 7.65291L80.8026 7.344ZM75.3306 14.28L74.9381 14.5897L75.3306 15.0873L75.7232 14.5897L75.3306 14.28ZM69.8586 7.344L69.4655 7.65291L69.4661 7.65369L69.8586 7.344ZM68.7786 7.2L68.488 6.79313L68.4713 6.80506L68.4557 6.81831L68.7786 7.2ZM68.6586 8.28L68.2655 8.58891L68.2659 8.58948L68.6586 8.28ZM74.3706 15.528L74.7628 15.8381L75.0076 15.5285L74.7633 15.2185L74.3706 15.528ZM68.6586 22.752L68.2664 22.4419L68.2655 22.4431L68.6586 22.752ZM68.7786 23.832L68.4556 24.2137L68.4585 24.2161L68.7786 23.832ZM69.8586 23.712L69.4655 23.4029L69.4586 23.412L69.8586 23.712ZM75.3306 16.752L75.7237 16.443L75.3306 15.943L74.9376 16.443L75.3306 16.752ZM80.8026 23.712L80.4096 24.021L80.4177 24.0314L80.4263 24.0413L80.8026 23.712ZM81.8826 23.832L81.5737 23.4388L81.5681 23.4433L81.5625 23.4479L81.8826 23.832ZM82.0026 22.752L82.3958 22.4431L82.3955 22.4427L82.0026 22.752ZM76.708 15.8367L82.396 8.58868L81.6093 7.97132L75.9213 15.2193L76.708 15.8367ZM82.3958 8.58891C82.8233 8.04484 82.7536 7.24848 82.1915 6.80684L81.5737 7.59316C81.6836 7.67952 81.71 7.84316 81.6095 7.97109L82.3958 8.58891ZM82.1732 6.79313C81.6348 6.40853 80.8498 6.47472 80.4095 7.03509L81.1958 7.65291C81.2835 7.54128 81.4585 7.51147 81.592 7.60687L82.1732 6.79313ZM80.4101 7.03431L74.9381 13.9703L75.7232 14.5897L81.1952 7.65369L80.4101 7.03431ZM75.7232 13.9703L70.2512 7.03431L69.4661 7.65369L74.9381 14.5897L75.7232 13.9703ZM70.2518 7.03509C69.8115 6.47472 69.0265 6.40853 68.488 6.79313L69.0692 7.60687C69.2028 7.51147 69.3778 7.54128 69.4655 7.65291L70.2518 7.03509ZM68.4557 6.81831C67.9534 7.24331 67.8232 8.02607 68.2655 8.58891L69.0518 7.97109C68.966 7.86192 68.9799 7.68469 69.1016 7.58169L68.4557 6.81831ZM68.2659 8.58948L73.9779 15.8375L74.7633 15.2185L69.0513 7.97051L68.2659 8.58948ZM73.9784 15.2179L68.2664 22.4419L69.0508 23.0621L74.7628 15.8381L73.9784 15.2179ZM68.2655 22.4431C67.8232 23.0059 67.9534 23.7887 68.4557 24.2137L69.1016 23.4503C68.9799 23.3473 68.966 23.1701 69.0518 23.0609L68.2655 22.4431ZM68.4585 24.2161C68.7059 24.4222 68.9925 24.5 69.2586 24.5V23.5C69.1888 23.5 69.1394 23.4818 69.0987 23.4479L68.4585 24.2161ZM69.2586 24.5C69.6378 24.5 70.0098 24.3438 70.2586 24.012L69.4586 23.412C69.4194 23.4642 69.3594 23.5 69.2586 23.5V24.5ZM70.2517 24.021L75.7237 17.061L74.9376 16.443L69.4656 23.403L70.2517 24.021ZM74.9376 17.061L80.4096 24.021L81.1957 23.403L75.7237 16.443L74.9376 17.061ZM80.4263 24.0413C80.6825 24.334 81.0325 24.5 81.4026 24.5V23.5C81.3408 23.5 81.2588 23.474 81.1789 23.3827L80.4263 24.0413ZM81.4026 24.5C81.6688 24.5 81.9554 24.4222 82.2027 24.2161L81.5625 23.4479C81.5219 23.4818 81.4725 23.5 81.4026 23.5V24.5ZM82.1915 24.2252C82.7536 23.7835 82.8233 22.9872 82.3958 22.4431L81.6095 23.0609C81.71 23.1888 81.6836 23.3525 81.5737 23.4388L82.1915 24.2252ZM82.3955 22.4427L76.7075 15.2187L75.9218 15.8373L81.6098 23.0613L82.3955 22.4427Z" fill="#49474A"/>
<path d="M90.376 24H86.488C86.056 24 85.72 23.664 85.72 23.232V7.824C85.72 7.392 86.056 7.056 86.488 7.056H90.376C95.056 7.056 98.848 10.848 98.848 15.528C98.848 20.208 95.056 24 90.376 24ZM87.256 22.464H90.376C94.216 22.464 97.336 19.344 97.336 15.528C97.336 11.688 94.216 8.568 90.376 8.568H87.256V22.464ZM112.562 22.464H103.274V15.912H109.97C110.378 15.912 110.738 15.576 110.738 15.144C110.738 14.736 110.378 14.4 109.97 14.4H103.274V8.568H112.562C112.97 8.568 113.33 8.232 113.33 7.824C113.33 7.392 112.97 7.056 112.562 7.056H102.506C102.074 7.056 101.738 7.392 101.738 7.824V23.232C101.738 23.664 102.074 24 102.506 24H112.562C112.97 24 113.33 23.664 113.33 23.232C113.33 22.824 112.97 22.464 112.562 22.464ZM120.865 24H116.977C116.545 24 116.209 23.664 116.209 23.232V7.824C116.209 7.392 116.545 7.056 116.977 7.056H120.865C125.545 7.056 129.337 10.848 129.337 15.528C129.337 20.208 125.545 24 120.865 24ZM117.745 22.464H120.865C124.705 22.464 127.825 19.344 127.825 15.528C127.825 11.688 124.705 8.568 120.865 8.568H117.745V22.464ZM139.02 24C135.275 24 132.227 20.952 132.227 17.184V7.824C132.227 7.392 132.563 7.056 132.971 7.056C133.403 7.056 133.739 7.392 133.739 7.824V17.184C133.739 20.112 136.115 22.464 139.02 22.464C141.948 22.464 144.3 20.112 144.3 17.184V7.824C144.3 7.392 144.636 7.056 145.067 7.056C145.499 7.056 145.835 7.392 145.835 7.824V17.184C145.835 20.952 142.788 24 139.02 24ZM157.186 24C152.53 24 148.714 20.208 148.714 15.528C148.714 10.848 152.53 7.056 157.186 7.056C159.634 7.056 161.962 8.112 163.57 9.936C163.858 10.272 163.81 10.752 163.498 11.016C163.186 11.304 162.706 11.28 162.418 10.944C161.098 9.432 159.202 8.568 157.186 8.568C153.37 8.568 150.25 11.688 150.25 15.528C150.25 19.344 153.37 22.464 157.186 22.464C159.202 22.464 161.098 21.6 162.418 20.088C162.706 19.776 163.186 19.752 163.498 20.016C163.81 20.304 163.858 20.784 163.57 21.096C161.962 22.944 159.634 24 157.186 24ZM178.847 7.056H167.399C166.967 7.056 166.631 7.392 166.631 7.824C166.631 8.232 166.967 8.568 167.399 8.568H172.367V23.232C172.367 23.664 172.703 24 173.135 24C173.543 24 173.879 23.664 173.879 23.232V8.568H178.847C179.279 8.568 179.615 8.232 179.615 7.824C179.615 7.392 179.279 7.056 178.847 7.056Z" fill="#49474A"/>
<path d="M87.256 22.464H86.756V22.964H87.256V22.464ZM87.256 8.568V8.068H86.756V8.568H87.256ZM90.376 23.5H86.488V24.5H90.376V23.5ZM86.488 23.5C86.3321 23.5 86.22 23.3879 86.22 23.232H85.22C85.22 23.9401 85.7799 24.5 86.488 24.5V23.5ZM86.22 23.232V7.824H85.22V23.232H86.22ZM86.22 7.824C86.22 7.66814 86.3321 7.556 86.488 7.556V6.556C85.7799 6.556 85.22 7.11586 85.22 7.824H86.22ZM86.488 7.556H90.376V6.556H86.488V7.556ZM90.376 7.556C94.7799 7.556 98.348 11.1241 98.348 15.528H99.348C99.348 10.5719 95.3321 6.556 90.376 6.556V7.556ZM98.348 15.528C98.348 19.9319 94.7799 23.5 90.376 23.5V24.5C95.3321 24.5 99.348 20.4841 99.348 15.528H98.348ZM87.256 22.964H90.376V21.964H87.256V22.964ZM90.376 22.964C94.491 22.964 97.836 19.6213 97.836 15.528H96.836C96.836 19.0667 93.941 21.964 90.376 21.964V22.964ZM97.836 15.528C97.836 11.4119 94.4921 8.068 90.376 8.068V9.068C93.9399 9.068 96.836 11.9641 96.836 15.528H97.836ZM90.376 8.068H87.256V9.068H90.376V8.068ZM86.756 8.568V22.464H87.756V8.568H86.756ZM103.274 22.464H102.774V22.964H103.274V22.464ZM103.274 15.912V15.412H102.774V15.912H103.274ZM103.274 14.4H102.774V14.9H103.274V14.4ZM103.274 8.568V8.068H102.774V8.568H103.274ZM112.562 21.964H103.274V22.964H112.562V21.964ZM103.774 22.464V15.912H102.774V22.464H103.774ZM103.274 16.412H109.97V15.412H103.274V16.412ZM109.97 16.412C110.644 16.412 111.238 15.8622 111.238 15.144H110.238C110.238 15.2898 110.112 15.412 109.97 15.412V16.412ZM111.238 15.144C111.238 14.4396 110.634 13.9 109.97 13.9V14.9C110.123 14.9 110.238 15.0324 110.238 15.144H111.238ZM109.97 13.9H103.274V14.9H109.97V13.9ZM103.774 14.4V8.568H102.774V14.4H103.774ZM103.274 9.068H112.562V8.068H103.274V9.068ZM112.562 9.068C113.226 9.068 113.83 8.52841 113.83 7.824H112.83C112.83 7.93559 112.715 8.068 112.562 8.068V9.068ZM113.83 7.824C113.83 7.10577 113.236 6.556 112.562 6.556V7.556C112.704 7.556 112.83 7.67822 112.83 7.824H113.83ZM112.562 6.556H102.506V7.556H112.562V6.556ZM102.506 6.556C101.798 6.556 101.238 7.11586 101.238 7.824H102.238C102.238 7.66814 102.35 7.556 102.506 7.556V6.556ZM101.238 7.824V23.232H102.238V7.824H101.238ZM101.238 23.232C101.238 23.9401 101.798 24.5 102.506 24.5V23.5C102.35 23.5 102.238 23.3879 102.238 23.232H101.238ZM102.506 24.5H112.562V23.5H102.506V24.5ZM112.562 24.5C113.236 24.5 113.83 23.9502 113.83 23.232H112.83C112.83 23.3778 112.704 23.5 112.562 23.5V24.5ZM113.83 23.232C113.83 22.5479 113.246 21.964 112.562 21.964V22.964C112.694 22.964 112.83 23.1001 112.83 23.232H113.83ZM117.745 22.464H117.245V22.964H117.745V22.464ZM117.745 8.568V8.068H117.245V8.568H117.745ZM120.865 23.5H116.977V24.5H120.865V23.5ZM116.977 23.5C116.822 23.5 116.709 23.3879 116.709 23.232H115.709C115.709 23.9401 116.269 24.5 116.977 24.5V23.5ZM116.709 23.232V7.824H115.709V23.232H116.709ZM116.709 7.824C116.709 7.66814 116.822 7.556 116.977 7.556V6.556C116.269 6.556 115.709 7.11586 115.709 7.824H116.709ZM116.977 7.556H120.865V6.556H116.977V7.556ZM120.865 7.556C125.269 7.556 128.837 11.1241 128.837 15.528H129.837C129.837 10.5719 125.822 6.556 120.865 6.556V7.556ZM128.837 15.528C128.837 19.9319 125.269 23.5 120.865 23.5V24.5C125.822 24.5 129.837 20.4841 129.837 15.528H128.837ZM117.745 22.964H120.865V21.964H117.745V22.964ZM120.865 22.964C124.98 22.964 128.325 19.6213 128.325 15.528H127.325C127.325 19.0667 124.43 21.964 120.865 21.964V22.964ZM128.325 15.528C128.325 11.4119 124.982 8.068 120.865 8.068V9.068C124.429 9.068 127.325 11.9641 127.325 15.528H128.325ZM120.865 8.068H117.745V9.068H120.865V8.068ZM117.245 8.568V22.464H118.245V8.568H117.245ZM139.02 23.5C135.553 23.5 132.727 20.677 132.727 17.184H131.727C131.727 21.227 134.998 24.5 139.02 24.5V23.5ZM132.727 17.184V7.824H131.727V17.184H132.727ZM132.727 7.824C132.727 7.65772 132.85 7.556 132.971 7.556V6.556C132.277 6.556 131.727 7.12627 131.727 7.824H132.727ZM132.971 7.556C133.127 7.556 133.239 7.66814 133.239 7.824H134.239C134.239 7.11586 133.68 6.556 132.971 6.556V7.556ZM133.239 7.824V17.184H134.239V7.824H133.239ZM133.239 17.184C133.239 20.3896 135.841 22.964 139.02 22.964V21.964C136.39 21.964 134.239 19.8344 134.239 17.184H133.239ZM139.02 22.964C142.224 22.964 144.8 20.3881 144.8 17.184H143.8C143.8 19.8359 141.671 21.964 139.02 21.964V22.964ZM144.8 17.184V7.824H143.8V17.184H144.8ZM144.8 7.824C144.8 7.66814 144.912 7.556 145.067 7.556V6.556C144.359 6.556 143.8 7.11586 143.8 7.824H144.8ZM145.067 7.556C145.223 7.556 145.335 7.66814 145.335 7.824H146.335C146.335 7.11586 145.776 6.556 145.067 6.556V7.556ZM145.335 7.824V17.184H146.335V7.824H145.335ZM145.335 17.184C145.335 20.6759 142.511 23.5 139.02 23.5V24.5C143.064 24.5 146.335 21.2281 146.335 17.184H145.335ZM163.57 9.936L163.95 9.61057L163.945 9.60535L163.57 9.936ZM163.498 11.016L163.175 10.6343L163.167 10.6413L163.159 10.6486L163.498 11.016ZM162.418 10.944L162.798 10.6186L162.795 10.6152L162.418 10.944ZM162.418 20.088L162.051 19.7487L162.042 19.7592L162.418 20.088ZM163.498 20.016L163.838 19.6486L163.83 19.6413L163.821 19.6343L163.498 20.016ZM163.57 21.096L163.203 20.7569L163.198 20.7623L163.193 20.7678L163.57 21.096ZM157.186 23.5C152.806 23.5 149.214 19.9309 149.214 15.528H148.214C148.214 20.4851 152.255 24.5 157.186 24.5V23.5ZM149.214 15.528C149.214 11.1251 152.806 7.556 157.186 7.556V6.556C152.255 6.556 148.214 10.5709 148.214 15.528H149.214ZM157.186 7.556C159.491 7.556 161.682 8.5502 163.195 10.2666L163.945 9.60535C162.243 7.6738 159.778 6.556 157.186 6.556V7.556ZM163.191 10.2614C163.3 10.3891 163.273 10.5514 163.175 10.6343L163.821 11.3977C164.347 10.9526 164.417 10.1549 163.95 9.6106L163.191 10.2614ZM163.159 10.6486C163.058 10.7424 162.904 10.7417 162.798 10.6186L162.039 11.2694C162.509 11.8183 163.315 11.8656 163.838 11.3834L163.159 10.6486ZM162.795 10.6152C161.38 8.99445 159.347 8.068 157.186 8.068V9.068C159.058 9.068 160.817 9.86954 162.042 11.2728L162.795 10.6152ZM157.186 8.068C153.093 8.068 149.75 11.413 149.75 15.528H150.75C150.75 11.963 153.648 9.068 157.186 9.068V8.068ZM149.75 15.528C149.75 19.6201 153.094 22.964 157.186 22.964V21.964C153.647 21.964 150.75 19.0679 150.75 15.528H149.75ZM157.186 22.964C159.347 22.964 161.38 22.0375 162.795 20.4168L162.042 19.7592C160.817 21.1625 159.058 21.964 157.186 21.964V22.964ZM162.786 20.4271C162.892 20.312 163.068 20.3066 163.175 20.3977L163.821 19.6343C163.305 19.1974 162.521 19.24 162.051 19.7489L162.786 20.4271ZM163.159 20.3834C163.294 20.5081 163.281 20.6728 163.203 20.7569L163.938 21.4351C164.436 20.8952 164.326 20.0999 163.838 19.6486L163.159 20.3834ZM163.193 20.7678C161.68 22.5062 159.49 23.5 157.186 23.5V24.5C159.779 24.5 162.244 23.3818 163.948 21.4242L163.193 20.7678ZM172.367 8.568H172.867V8.068H172.367V8.568ZM173.879 8.568V8.068H173.379V8.568H173.879ZM178.847 6.556H167.399V7.556H178.847V6.556ZM167.399 6.556C166.691 6.556 166.131 7.11586 166.131 7.824H167.131C167.131 7.66814 167.243 7.556 167.399 7.556V6.556ZM166.131 7.824C166.131 8.51845 166.701 9.068 167.399 9.068V8.068C167.233 8.068 167.131 7.94555 167.131 7.824H166.131ZM167.399 9.068H172.367V8.068H167.399V9.068ZM171.867 8.568V23.232H172.867V8.568H171.867ZM171.867 23.232C171.867 23.9401 172.427 24.5 173.135 24.5V23.5C172.979 23.5 172.867 23.3879 172.867 23.232H171.867ZM173.135 24.5C173.829 24.5 174.379 23.9297 174.379 23.232H173.379C173.379 23.3983 173.256 23.5 173.135 23.5V24.5ZM174.379 23.232V8.568H173.379V23.232H174.379ZM173.879 9.068H178.847V8.068H173.879V9.068ZM178.847 9.068C179.545 9.068 180.115 8.51845 180.115 7.824H179.115C179.115 7.94555 179.013 8.068 178.847 8.068V9.068ZM180.115 7.824C180.115 7.11586 179.555 6.556 178.847 6.556V7.556C179.003 7.556 179.115 7.66814 179.115 7.824H180.115Z" fill="#49474A"/>
<rect width="6" height="24" rx="3" transform="matrix(-1 0 0 1 26 2)" fill="#49474A"/>
<rect width="6" height="18" rx="3" transform="matrix(-1 0 0 1 16 7.99988)" fill="#49474A"/>
<rect width="6" height="12" rx="3" transform="matrix(-1 0 0 1 6 13.9999)" fill="#49474A"/>
</svg>
