<svg width="526" height="329" viewBox="0 0 526 329" fill="none" xmlns="http://www.w3.org/2000/svg">
<line x1="90" y1="30" x2="90" y2="305" stroke="#49474A" stroke-width="2"/>
<line x1="67" y1="29" x2="91" y2="29" stroke="#49474A" stroke-width="2"/>
<path d="M29.9644 34.1562C31.1753 34.1562 32.1362 33.8594 32.8316 33.2578C33.5269 32.6641 33.8784 31.8984 33.8784 30.9609C33.8784 29.7031 33.1753 28.7266 32.0425 28.3203C33.0816 27.9141 33.7222 27.0391 33.7222 25.8438C33.7222 24.8672 33.3862 24.0938 32.7066 23.5078C32.0269 22.9297 31.1128 22.6406 29.9644 22.6406C28.8941 22.6406 28.0191 22.9219 27.3237 23.4844C26.6284 24.0547 26.2066 24.8672 26.0425 25.9219H27.7222C27.7925 25.375 28.0425 24.9453 28.4644 24.625C28.8862 24.3125 29.3862 24.1562 29.9644 24.1562C31.2847 24.1562 32.0425 24.8516 32.0425 25.9141C32.0425 26.9844 31.2847 27.6797 29.9175 27.6797H29.0816V29.1172H29.9175C30.6128 29.1172 31.1675 29.2812 31.5816 29.6094C31.9956 29.9375 32.1987 30.3594 32.1987 30.8828C32.1987 31.9453 31.3706 32.6406 29.9644 32.6406C29.355 32.6406 28.8237 32.4766 28.3628 32.1406C27.9019 31.8125 27.6284 31.3906 27.5581 30.8828H25.8784C25.9956 31.9531 26.4253 32.7656 27.1675 33.3203C27.9019 33.875 28.8316 34.1562 29.9644 34.1562ZM43.1775 32.6797C44.0212 31.6953 44.4431 30.2656 44.4431 28.3984C44.4431 26.5312 44.0212 25.1094 43.1775 24.1172C42.3337 23.1328 41.2087 22.6406 39.8025 22.6406C38.3962 22.6406 37.2712 23.1328 36.4275 24.1172C35.5837 25.1094 35.1619 26.5312 35.1619 28.3984C35.1619 30.2656 35.5837 31.6953 36.4275 32.6797C37.2712 33.6641 38.3962 34.1562 39.8025 34.1562C41.2087 34.1562 42.3337 33.6641 43.1775 32.6797ZM37.6853 31.5547C37.1228 30.8359 36.8416 29.7812 36.8416 28.3984C36.8416 27.0156 37.1228 25.9609 37.6853 25.2344C38.24 24.5156 38.9509 24.1562 39.8025 24.1562C40.6541 24.1562 41.365 24.5156 41.9275 25.2344C42.4822 25.9609 42.7634 27.0156 42.7634 28.3984C42.7634 29.7812 42.4822 30.8359 41.9275 31.5547C41.365 32.2812 40.6541 32.6406 39.8025 32.6406C38.9509 32.6406 38.24 32.2812 37.6853 31.5547ZM48.2812 34L55.2422 22.7969H53.6406L46.6797 34H48.2812ZM55.7422 33.4375C56.2109 32.9609 56.4453 32.3203 56.4453 31.5156C56.4453 30.7188 56.2109 30.0781 55.7422 29.6016C55.2656 29.125 54.6484 28.8828 53.8828 28.8828C53.1094 28.8828 52.4922 29.125 52.0234 29.6016C51.5547 30.0781 51.3203 30.7188 51.3203 31.5156C51.3203 32.3203 51.5547 32.9609 52.0234 33.4375C52.4922 33.9141 53.1094 34.1562 53.8828 34.1562C54.6484 34.1562 55.2656 33.9141 55.7422 33.4375ZM52.9453 32.5703C52.7188 32.3125 52.6016 31.9609 52.6016 31.5234C52.6016 31.0859 52.7188 30.7344 52.9453 30.4688C53.1719 30.2109 53.4844 30.0781 53.8828 30.0781C54.2812 30.0781 54.5938 30.2109 54.8203 30.4688C55.0469 30.7344 55.1641 31.0859 55.1641 31.5234C55.1641 31.9609 55.0469 32.3125 54.8203 32.5703C54.5938 32.8281 54.2812 32.9609 53.8828 32.9609C53.4844 32.9609 53.1719 32.8281 52.9453 32.5703ZM49.8984 27.1953C50.3672 26.7188 50.6016 26.0781 50.6016 25.2734C50.6016 24.4766 50.3672 23.8359 49.8984 23.3594C49.4297 22.8828 48.8125 22.6406 48.0469 22.6406C47.2734 22.6406 46.6562 22.8828 46.1875 23.3594C45.7188 23.8359 45.4844 24.4766 45.4844 25.2734C45.4844 26.0781 45.7188 26.7188 46.1875 27.1953C46.6562 27.6797 47.2734 27.9219 48.0469 27.9219C48.8125 27.9219 49.4297 27.6797 49.8984 27.1953ZM47.1094 26.3281C46.8828 26.0703 46.7656 25.7188 46.7656 25.2812C46.7656 24.8438 46.8828 24.4922 47.1094 24.2344C47.3359 23.9766 47.6484 23.8438 48.0469 23.8438C48.4375 23.8438 48.75 23.9766 48.9766 24.2344C49.2031 24.4922 49.3203 24.8438 49.3203 25.2812C49.3203 25.7188 49.2031 26.0703 48.9766 26.3281C48.75 26.5859 48.4375 26.7188 48.0469 26.7188C47.6484 26.7188 47.3359 26.5859 47.1094 26.3281Z" fill="#49474A"/>
<line x1="67" y1="84" x2="89" y2="84" stroke="#49474A" stroke-width="2"/>
<path d="M34.2847 89V87.4766H28.7691L32.6909 83.6406C33.1519 83.1953 33.5034 82.7656 33.7534 82.3516C34.0034 81.9375 34.1284 81.4609 34.1284 80.9219C34.1284 79.9375 33.7925 79.1406 33.1284 78.5391C32.4644 77.9375 31.5425 77.6406 30.3706 77.6406C29.2612 77.6406 28.3784 77.9453 27.7144 78.5547C27.0503 79.1641 26.6597 79.9531 26.5269 80.9219H28.2066C28.3862 79.8516 29.1909 79.1562 30.3706 79.1562C31.7066 79.1641 32.3706 79.75 32.3706 80.9219C32.3706 81.5234 32.0737 82.1094 31.4878 82.6797L26.5269 87.4766V89H34.2847ZM43.1775 87.6797C44.0212 86.6953 44.4431 85.2656 44.4431 83.3984C44.4431 81.5312 44.0212 80.1094 43.1775 79.1172C42.3337 78.1328 41.2087 77.6406 39.8025 77.6406C38.3962 77.6406 37.2712 78.1328 36.4275 79.1172C35.5837 80.1094 35.1619 81.5312 35.1619 83.3984C35.1619 85.2656 35.5837 86.6953 36.4275 87.6797C37.2712 88.6641 38.3962 89.1562 39.8025 89.1562C41.2087 89.1562 42.3337 88.6641 43.1775 87.6797ZM37.6853 86.5547C37.1228 85.8359 36.8416 84.7812 36.8416 83.3984C36.8416 82.0156 37.1228 80.9609 37.6853 80.2344C38.24 79.5156 38.9509 79.1562 39.8025 79.1562C40.6541 79.1562 41.365 79.5156 41.9275 80.2344C42.4822 80.9609 42.7634 82.0156 42.7634 83.3984C42.7634 84.7812 42.4822 85.8359 41.9275 86.5547C41.365 87.2812 40.6541 87.6406 39.8025 87.6406C38.9509 87.6406 38.24 87.2812 37.6853 86.5547ZM48.2812 89L55.2422 77.7969H53.6406L46.6797 89H48.2812ZM55.7422 88.4375C56.2109 87.9609 56.4453 87.3203 56.4453 86.5156C56.4453 85.7188 56.2109 85.0781 55.7422 84.6016C55.2656 84.125 54.6484 83.8828 53.8828 83.8828C53.1094 83.8828 52.4922 84.125 52.0234 84.6016C51.5547 85.0781 51.3203 85.7188 51.3203 86.5156C51.3203 87.3203 51.5547 87.9609 52.0234 88.4375C52.4922 88.9141 53.1094 89.1562 53.8828 89.1562C54.6484 89.1562 55.2656 88.9141 55.7422 88.4375ZM52.9453 87.5703C52.7188 87.3125 52.6016 86.9609 52.6016 86.5234C52.6016 86.0859 52.7188 85.7344 52.9453 85.4688C53.1719 85.2109 53.4844 85.0781 53.8828 85.0781C54.2812 85.0781 54.5938 85.2109 54.8203 85.4688C55.0469 85.7344 55.1641 86.0859 55.1641 86.5234C55.1641 86.9609 55.0469 87.3125 54.8203 87.5703C54.5938 87.8281 54.2812 87.9609 53.8828 87.9609C53.4844 87.9609 53.1719 87.8281 52.9453 87.5703ZM49.8984 82.1953C50.3672 81.7188 50.6016 81.0781 50.6016 80.2734C50.6016 79.4766 50.3672 78.8359 49.8984 78.3594C49.4297 77.8828 48.8125 77.6406 48.0469 77.6406C47.2734 77.6406 46.6562 77.8828 46.1875 78.3594C45.7188 78.8359 45.4844 79.4766 45.4844 80.2734C45.4844 81.0781 45.7188 81.7188 46.1875 82.1953C46.6562 82.6797 47.2734 82.9219 48.0469 82.9219C48.8125 82.9219 49.4297 82.6797 49.8984 82.1953ZM47.1094 81.3281C46.8828 81.0703 46.7656 80.7188 46.7656 80.2812C46.7656 79.8438 46.8828 79.4922 47.1094 79.2344C47.3359 78.9766 47.6484 78.8438 48.0469 78.8438C48.4375 78.8438 48.75 78.9766 48.9766 79.2344C49.2031 79.4922 49.3203 79.8438 49.3203 80.2812C49.3203 80.7188 49.2031 81.0703 48.9766 81.3281C48.75 81.5859 48.4375 81.7188 48.0469 81.7188C47.6484 81.7188 47.3359 81.5859 47.1094 81.3281Z" fill="#49474A"/>
<line x1="67" y1="139" x2="89" y2="139" stroke="#49474A" stroke-width="2"/>
<path d="M33.4097 144V132.797H31.73V133.586C31.73 134.023 31.5191 134.242 31.0894 134.242H29.5659V135.68H31.73V144H33.4097ZM43.1775 142.68C44.0212 141.695 44.4431 140.266 44.4431 138.398C44.4431 136.531 44.0212 135.109 43.1775 134.117C42.3337 133.133 41.2087 132.641 39.8025 132.641C38.3962 132.641 37.2712 133.133 36.4275 134.117C35.5837 135.109 35.1619 136.531 35.1619 138.398C35.1619 140.266 35.5837 141.695 36.4275 142.68C37.2712 143.664 38.3962 144.156 39.8025 144.156C41.2087 144.156 42.3337 143.664 43.1775 142.68ZM37.6853 141.555C37.1228 140.836 36.8416 139.781 36.8416 138.398C36.8416 137.016 37.1228 135.961 37.6853 135.234C38.24 134.516 38.9509 134.156 39.8025 134.156C40.6541 134.156 41.365 134.516 41.9275 135.234C42.4822 135.961 42.7634 137.016 42.7634 138.398C42.7634 139.781 42.4822 140.836 41.9275 141.555C41.365 142.281 40.6541 142.641 39.8025 142.641C38.9509 142.641 38.24 142.281 37.6853 141.555ZM48.2812 144L55.2422 132.797H53.6406L46.6797 144H48.2812ZM55.7422 143.438C56.2109 142.961 56.4453 142.32 56.4453 141.516C56.4453 140.719 56.2109 140.078 55.7422 139.602C55.2656 139.125 54.6484 138.883 53.8828 138.883C53.1094 138.883 52.4922 139.125 52.0234 139.602C51.5547 140.078 51.3203 140.719 51.3203 141.516C51.3203 142.32 51.5547 142.961 52.0234 143.438C52.4922 143.914 53.1094 144.156 53.8828 144.156C54.6484 144.156 55.2656 143.914 55.7422 143.438ZM52.9453 142.57C52.7188 142.312 52.6016 141.961 52.6016 141.523C52.6016 141.086 52.7188 140.734 52.9453 140.469C53.1719 140.211 53.4844 140.078 53.8828 140.078C54.2812 140.078 54.5938 140.211 54.8203 140.469C55.0469 140.734 55.1641 141.086 55.1641 141.523C55.1641 141.961 55.0469 142.312 54.8203 142.57C54.5938 142.828 54.2812 142.961 53.8828 142.961C53.4844 142.961 53.1719 142.828 52.9453 142.57ZM49.8984 137.195C50.3672 136.719 50.6016 136.078 50.6016 135.273C50.6016 134.477 50.3672 133.836 49.8984 133.359C49.4297 132.883 48.8125 132.641 48.0469 132.641C47.2734 132.641 46.6562 132.883 46.1875 133.359C45.7188 133.836 45.4844 134.477 45.4844 135.273C45.4844 136.078 45.7188 136.719 46.1875 137.195C46.6562 137.68 47.2734 137.922 48.0469 137.922C48.8125 137.922 49.4297 137.68 49.8984 137.195ZM47.1094 136.328C46.8828 136.07 46.7656 135.719 46.7656 135.281C46.7656 134.844 46.8828 134.492 47.1094 134.234C47.3359 133.977 47.6484 133.844 48.0469 133.844C48.4375 133.844 48.75 133.977 48.9766 134.234C49.2031 134.492 49.3203 134.844 49.3203 135.281C49.3203 135.719 49.2031 136.07 48.9766 136.328C48.75 136.586 48.4375 136.719 48.0469 136.719C47.6484 136.719 47.3359 136.586 47.1094 136.328Z" fill="#49474A"/>
<path d="M470.327 173V169H472.968C474.077 169 474.983 168.664 475.679 167.984C476.374 167.305 476.726 166.445 476.726 165.398C476.726 164.352 476.374 163.492 475.679 162.812C474.983 162.133 474.077 161.797 472.968 161.797H468.647V173H470.327ZM470.327 163.32H472.89C474.233 163.32 475.046 164.117 475.046 165.398C475.046 166.68 474.233 167.477 472.89 167.477H470.327V163.32ZM479.439 173V168.039C479.439 167.43 479.642 166.93 480.056 166.539C480.462 166.156 481.001 165.961 481.673 165.961H482.556V164.523H481.595C480.603 164.523 479.884 164.898 479.439 165.641H479.353L479.118 164.523H477.915V173H479.439ZM489.636 171.984C490.347 171.211 490.707 170.133 490.707 168.758C490.707 167.383 490.347 166.305 489.636 165.523C488.925 164.75 487.972 164.359 486.792 164.359C485.605 164.359 484.652 164.75 483.941 165.523C483.23 166.305 482.871 167.383 482.871 168.758C482.871 170.133 483.23 171.211 483.941 171.984C484.652 172.766 485.605 173.156 486.792 173.156C487.972 173.156 488.925 172.766 489.636 171.984ZM485.05 170.961C484.605 170.453 484.386 169.719 484.386 168.758C484.386 167.797 484.605 167.062 485.05 166.555C485.496 166.047 486.074 165.797 486.792 165.797C487.503 165.797 488.082 166.047 488.527 166.555C488.972 167.062 489.191 167.797 489.191 168.758C489.191 169.719 488.972 170.453 488.527 170.961C488.082 171.469 487.503 171.719 486.792 171.719C486.074 171.719 485.496 171.469 485.05 170.961ZM494.318 173V165.961H497.756V173H499.271V164.523H494.318V163.961C494.318 163.43 494.638 163.078 495.193 163.078H496.396V161.641H495.037C494.357 161.641 493.81 161.844 493.404 162.25C492.998 162.656 492.795 163.203 492.795 163.883V164.523H491.435V165.961H492.795V173H494.318ZM498.521 163.562C499.092 163.562 499.513 163.141 499.513 162.57C499.513 161.969 499.092 161.562 498.521 161.562C497.927 161.562 497.513 161.977 497.513 162.57C497.513 163.141 497.927 163.562 498.521 163.562ZM505.359 173V171.562H504.156C503.602 171.562 503.281 171.172 503.281 170.602V165.961H505.359V164.523H503.281V162.281H502L501.758 164.523H500.398V165.961H501.758V170.758C501.758 171.422 501.961 171.961 502.375 172.375C502.789 172.789 503.328 173 504 173H505.359Z" fill="#49474A"/>
<path d="M475.228 231V229.477H469.712V219.797H468.033V231H475.228ZM482.386 229.984C483.097 229.211 483.457 228.133 483.457 226.758C483.457 225.383 483.097 224.305 482.386 223.523C481.675 222.75 480.722 222.359 479.543 222.359C478.355 222.359 477.402 222.75 476.691 223.523C475.98 224.305 475.621 225.383 475.621 226.758C475.621 228.133 475.98 229.211 476.691 229.984C477.402 230.766 478.355 231.156 479.543 231.156C480.722 231.156 481.675 230.766 482.386 229.984ZM477.8 228.961C477.355 228.453 477.136 227.719 477.136 226.758C477.136 225.797 477.355 225.062 477.8 224.555C478.246 224.047 478.824 223.797 479.543 223.797C480.253 223.797 480.832 224.047 481.277 224.555C481.722 225.062 481.941 225.797 481.941 226.758C481.941 227.719 481.722 228.453 481.277 228.961C480.832 229.469 480.253 229.719 479.543 229.719C478.824 229.719 478.246 229.469 477.8 228.961ZM487.709 231.156C488.756 231.156 489.576 230.922 490.178 230.445C490.771 229.969 491.068 229.383 491.068 228.68C491.068 228.156 490.943 227.719 490.701 227.359C490.451 227 490.146 226.742 489.779 226.594C489.412 226.445 489.013 226.312 488.584 226.188C488.154 226.07 487.763 225.969 487.396 225.898C486.662 225.758 486.107 225.414 486.107 224.844C486.099 224.148 486.607 223.797 487.623 223.797C488.443 223.797 489.006 224.094 489.303 224.68H490.982C490.826 223.984 490.443 223.43 489.834 223C489.224 222.57 488.49 222.359 487.623 222.359C486.693 222.359 485.959 222.594 485.412 223.07C484.857 223.547 484.584 224.141 484.584 224.844C484.584 225.375 484.709 225.82 484.951 226.18C485.193 226.547 485.506 226.805 485.873 226.953C486.24 227.102 486.638 227.234 487.068 227.352C487.498 227.469 487.896 227.562 488.263 227.633C488.998 227.766 489.545 228.109 489.545 228.68C489.545 229.273 488.928 229.719 487.709 229.719C486.748 229.719 486.154 229.375 485.943 228.68H484.263C484.428 229.414 484.818 230.008 485.435 230.469C486.053 230.93 486.81 231.156 487.709 231.156ZM495.156 231.156C496.203 231.156 497.023 230.922 497.625 230.445C498.219 229.969 498.516 229.383 498.516 228.68C498.516 228.156 498.391 227.719 498.148 227.359C497.898 227 497.594 226.742 497.227 226.594C496.859 226.445 496.461 226.312 496.031 226.188C495.602 226.07 495.211 225.969 494.844 225.898C494.109 225.758 493.555 225.414 493.555 224.844C493.547 224.148 494.055 223.797 495.07 223.797C495.891 223.797 496.453 224.094 496.75 224.68H498.43C498.273 223.984 497.891 223.43 497.281 223C496.672 222.57 495.938 222.359 495.07 222.359C494.141 222.359 493.406 222.594 492.859 223.07C492.305 223.547 492.031 224.141 492.031 224.844C492.031 225.375 492.156 225.82 492.398 226.18C492.641 226.547 492.953 226.805 493.32 226.953C493.688 227.102 494.086 227.234 494.516 227.352C494.945 227.469 495.344 227.562 495.711 227.633C496.445 227.766 496.992 228.109 496.992 228.68C496.992 229.273 496.375 229.719 495.156 229.719C494.195 229.719 493.602 229.375 493.391 228.68H491.711C491.875 229.414 492.266 230.008 492.883 230.469C493.5 230.93 494.258 231.156 495.156 231.156Z" fill="#49474A"/>
<line x1="190" y1="193" x2="190" y2="206" stroke="#49474A" stroke-width="2"/>
<line x1="290" y1="193" x2="290" y2="206" stroke="#49474A" stroke-width="2"/>
<line x1="390" y1="193" x2="390" y2="206" stroke="#49474A" stroke-width="2"/>
<line x1="490" y1="193" x2="490" y2="206" stroke="#49474A" stroke-width="2"/>
<line x1="89" y1="194" x2="491" y2="194" stroke="#49474A" stroke-width="2"/>
<line x1="67" y1="194" x2="89" y2="194" stroke="#49474A" stroke-width="2"/>
<path d="M43.1775 197.68C44.0212 196.695 44.4431 195.266 44.4431 193.398C44.4431 191.531 44.0212 190.109 43.1775 189.117C42.3337 188.133 41.2087 187.641 39.8025 187.641C38.3962 187.641 37.2712 188.133 36.4275 189.117C35.5837 190.109 35.1619 191.531 35.1619 193.398C35.1619 195.266 35.5837 196.695 36.4275 197.68C37.2712 198.664 38.3962 199.156 39.8025 199.156C41.2087 199.156 42.3337 198.664 43.1775 197.68ZM37.6853 196.555C37.1228 195.836 36.8416 194.781 36.8416 193.398C36.8416 192.016 37.1228 190.961 37.6853 190.234C38.24 189.516 38.9509 189.156 39.8025 189.156C40.6541 189.156 41.365 189.516 41.9275 190.234C42.4822 190.961 42.7634 192.016 42.7634 193.398C42.7634 194.781 42.4822 195.836 41.9275 196.555C41.365 197.281 40.6541 197.641 39.8025 197.641C38.9509 197.641 38.24 197.281 37.6853 196.555ZM48.2812 199L55.2422 187.797H53.6406L46.6797 199H48.2812ZM55.7422 198.438C56.2109 197.961 56.4453 197.32 56.4453 196.516C56.4453 195.719 56.2109 195.078 55.7422 194.602C55.2656 194.125 54.6484 193.883 53.8828 193.883C53.1094 193.883 52.4922 194.125 52.0234 194.602C51.5547 195.078 51.3203 195.719 51.3203 196.516C51.3203 197.32 51.5547 197.961 52.0234 198.438C52.4922 198.914 53.1094 199.156 53.8828 199.156C54.6484 199.156 55.2656 198.914 55.7422 198.438ZM52.9453 197.57C52.7188 197.312 52.6016 196.961 52.6016 196.523C52.6016 196.086 52.7188 195.734 52.9453 195.469C53.1719 195.211 53.4844 195.078 53.8828 195.078C54.2812 195.078 54.5938 195.211 54.8203 195.469C55.0469 195.734 55.1641 196.086 55.1641 196.523C55.1641 196.961 55.0469 197.312 54.8203 197.57C54.5938 197.828 54.2812 197.961 53.8828 197.961C53.4844 197.961 53.1719 197.828 52.9453 197.57ZM49.8984 192.195C50.3672 191.719 50.6016 191.078 50.6016 190.273C50.6016 189.477 50.3672 188.836 49.8984 188.359C49.4297 187.883 48.8125 187.641 48.0469 187.641C47.2734 187.641 46.6562 187.883 46.1875 188.359C45.7188 188.836 45.4844 189.477 45.4844 190.273C45.4844 191.078 45.7188 191.719 46.1875 192.195C46.6562 192.68 47.2734 192.922 48.0469 192.922C48.8125 192.922 49.4297 192.68 49.8984 192.195ZM47.1094 191.328C46.8828 191.07 46.7656 190.719 46.7656 190.281C46.7656 189.844 46.8828 189.492 47.1094 189.234C47.3359 188.977 47.6484 188.844 48.0469 188.844C48.4375 188.844 48.75 188.977 48.9766 189.234C49.2031 189.492 49.3203 189.844 49.3203 190.281C49.3203 190.719 49.2031 191.07 48.9766 191.328C48.75 191.586 48.4375 191.719 48.0469 191.719C47.6484 191.719 47.3359 191.586 47.1094 191.328Z" fill="#49474A"/>
<line x1="67" y1="249" x2="89" y2="249" stroke="#49474A" stroke-width="2"/>
<path d="M29.0247 250.242V248.797H24.0638V250.242H29.0247ZM33.4097 254V242.797H31.73V243.586C31.73 244.023 31.5191 244.242 31.0894 244.242H29.5659V245.68H31.73V254H33.4097ZM43.1775 252.68C44.0213 251.695 44.4431 250.266 44.4431 248.398C44.4431 246.531 44.0213 245.109 43.1775 244.117C42.3338 243.133 41.2088 242.641 39.8025 242.641C38.3963 242.641 37.2713 243.133 36.4275 244.117C35.5838 245.109 35.1619 246.531 35.1619 248.398C35.1619 250.266 35.5838 251.695 36.4275 252.68C37.2713 253.664 38.3963 254.156 39.8025 254.156C41.2088 254.156 42.3338 253.664 43.1775 252.68ZM37.6853 251.555C37.1228 250.836 36.8416 249.781 36.8416 248.398C36.8416 247.016 37.1228 245.961 37.6853 245.234C38.24 244.516 38.9509 244.156 39.8025 244.156C40.6541 244.156 41.365 244.516 41.9275 245.234C42.4822 245.961 42.7634 247.016 42.7634 248.398C42.7634 249.781 42.4822 250.836 41.9275 251.555C41.365 252.281 40.6541 252.641 39.8025 252.641C38.9509 252.641 38.24 252.281 37.6853 251.555ZM48.2813 254L55.2422 242.797H53.6406L46.6797 254H48.2813ZM55.7422 253.438C56.2109 252.961 56.4453 252.32 56.4453 251.516C56.4453 250.719 56.2109 250.078 55.7422 249.602C55.2656 249.125 54.6484 248.883 53.8828 248.883C53.1094 248.883 52.4922 249.125 52.0234 249.602C51.5547 250.078 51.3203 250.719 51.3203 251.516C51.3203 252.32 51.5547 252.961 52.0234 253.438C52.4922 253.914 53.1094 254.156 53.8828 254.156C54.6484 254.156 55.2656 253.914 55.7422 253.438ZM52.9453 252.57C52.7188 252.312 52.6016 251.961 52.6016 251.523C52.6016 251.086 52.7188 250.734 52.9453 250.469C53.1719 250.211 53.4844 250.078 53.8828 250.078C54.2813 250.078 54.5938 250.211 54.8203 250.469C55.0469 250.734 55.1641 251.086 55.1641 251.523C55.1641 251.961 55.0469 252.312 54.8203 252.57C54.5938 252.828 54.2813 252.961 53.8828 252.961C53.4844 252.961 53.1719 252.828 52.9453 252.57ZM49.8984 247.195C50.3672 246.719 50.6016 246.078 50.6016 245.273C50.6016 244.477 50.3672 243.836 49.8984 243.359C49.4297 242.883 48.8125 242.641 48.0469 242.641C47.2734 242.641 46.6563 242.883 46.1875 243.359C45.7188 243.836 45.4844 244.477 45.4844 245.273C45.4844 246.078 45.7188 246.719 46.1875 247.195C46.6563 247.68 47.2734 247.922 48.0469 247.922C48.8125 247.922 49.4297 247.68 49.8984 247.195ZM47.1094 246.328C46.8828 246.07 46.7656 245.719 46.7656 245.281C46.7656 244.844 46.8828 244.492 47.1094 244.234C47.3359 243.977 47.6484 243.844 48.0469 243.844C48.4375 243.844 48.75 243.977 48.9766 244.234C49.2031 244.492 49.3203 244.844 49.3203 245.281C49.3203 245.719 49.2031 246.07 48.9766 246.328C48.75 246.586 48.4375 246.719 48.0469 246.719C47.6484 246.719 47.3359 246.586 47.1094 246.328Z" fill="#49474A"/>
<line x1="67" y1="304" x2="89" y2="304" stroke="#49474A" stroke-width="2"/>
<path d="M25.4153 305.242V303.797H20.4544V305.242H25.4153ZM34.2847 309V307.477H28.7691L32.6909 303.641C33.1519 303.195 33.5034 302.766 33.7534 302.352C34.0034 301.938 34.1284 301.461 34.1284 300.922C34.1284 299.938 33.7925 299.141 33.1284 298.539C32.4644 297.938 31.5425 297.641 30.3706 297.641C29.2613 297.641 28.3784 297.945 27.7144 298.555C27.0503 299.164 26.6597 299.953 26.5269 300.922H28.2066C28.3863 299.852 29.1909 299.156 30.3706 299.156C31.7066 299.164 32.3706 299.75 32.3706 300.922C32.3706 301.523 32.0738 302.109 31.4878 302.68L26.5269 307.477V309H34.2847ZM43.1775 307.68C44.0213 306.695 44.4431 305.266 44.4431 303.398C44.4431 301.531 44.0213 300.109 43.1775 299.117C42.3338 298.133 41.2088 297.641 39.8025 297.641C38.3963 297.641 37.2713 298.133 36.4275 299.117C35.5838 300.109 35.1619 301.531 35.1619 303.398C35.1619 305.266 35.5838 306.695 36.4275 307.68C37.2713 308.664 38.3963 309.156 39.8025 309.156C41.2088 309.156 42.3338 308.664 43.1775 307.68ZM37.6853 306.555C37.1228 305.836 36.8416 304.781 36.8416 303.398C36.8416 302.016 37.1228 300.961 37.6853 300.234C38.24 299.516 38.9509 299.156 39.8025 299.156C40.6541 299.156 41.365 299.516 41.9275 300.234C42.4822 300.961 42.7634 302.016 42.7634 303.398C42.7634 304.781 42.4822 305.836 41.9275 306.555C41.365 307.281 40.6541 307.641 39.8025 307.641C38.9509 307.641 38.24 307.281 37.6853 306.555ZM48.2813 309L55.2422 297.797H53.6406L46.6797 309H48.2813ZM55.7422 308.438C56.2109 307.961 56.4453 307.32 56.4453 306.516C56.4453 305.719 56.2109 305.078 55.7422 304.602C55.2656 304.125 54.6484 303.883 53.8828 303.883C53.1094 303.883 52.4922 304.125 52.0234 304.602C51.5547 305.078 51.3203 305.719 51.3203 306.516C51.3203 307.32 51.5547 307.961 52.0234 308.438C52.4922 308.914 53.1094 309.156 53.8828 309.156C54.6484 309.156 55.2656 308.914 55.7422 308.438ZM52.9453 307.57C52.7188 307.312 52.6016 306.961 52.6016 306.523C52.6016 306.086 52.7188 305.734 52.9453 305.469C53.1719 305.211 53.4844 305.078 53.8828 305.078C54.2813 305.078 54.5938 305.211 54.8203 305.469C55.0469 305.734 55.1641 306.086 55.1641 306.523C55.1641 306.961 55.0469 307.312 54.8203 307.57C54.5938 307.828 54.2813 307.961 53.8828 307.961C53.4844 307.961 53.1719 307.828 52.9453 307.57ZM49.8984 302.195C50.3672 301.719 50.6016 301.078 50.6016 300.273C50.6016 299.477 50.3672 298.836 49.8984 298.359C49.4297 297.883 48.8125 297.641 48.0469 297.641C47.2734 297.641 46.6563 297.883 46.1875 298.359C45.7188 298.836 45.4844 299.477 45.4844 300.273C45.4844 301.078 45.7188 301.719 46.1875 302.195C46.6563 302.68 47.2734 302.922 48.0469 302.922C48.8125 302.922 49.4297 302.68 49.8984 302.195ZM47.1094 301.328C46.8828 301.07 46.7656 300.719 46.7656 300.281C46.7656 299.844 46.8828 299.492 47.1094 299.234C47.3359 298.977 47.6484 298.844 48.0469 298.844C48.4375 298.844 48.75 298.977 48.9766 299.234C49.2031 299.492 49.3203 299.844 49.3203 300.281C49.3203 300.719 49.2031 301.07 48.9766 301.328C48.75 301.586 48.4375 301.719 48.0469 301.719C47.6484 301.719 47.3359 301.586 47.1094 301.328Z" fill="#49474A"/>
<rect x="220" y="195" width="38" height="10" fill="#57A3B3"/>
<rect x="320" y="195" width="38" height="29" fill="#57A3B3"/>
<rect x="420" y="195" width="38" height="82" fill="#57A3B3"/>
<rect x="120" y="181" width="38" height="12" fill="#BDBDBD"/>
<rect x="220" y="157" width="38" height="36" fill="#BDBDBD"/>
<rect x="320" y="107" width="38" height="86" fill="#BDBDBD"/>
<rect x="420" y="57" width="38" height="136" fill="#BDBDBD"/>
<rect x="115" y="42" width="12" height="10" fill="#BDBDBD"/>
<path d="M136.064 52V49.34C136.064 48.752 136.195 48.3273 136.456 48.066C136.717 47.7953 137.049 47.6087 137.45 47.506L137.464 47.464L135.924 46.876V46.414C135.924 46.0313 136.05 45.672 136.302 45.336C136.554 44.9907 136.913 44.7153 137.38 44.51C137.856 44.2953 138.421 44.188 139.074 44.188C139.643 44.188 140.171 44.2813 140.656 44.468C141.141 44.6453 141.529 44.93 141.818 45.322C142.117 45.7047 142.266 46.2087 142.266 46.834V52H141.02V46.96C141.02 46.3347 140.829 45.8913 140.446 45.63C140.073 45.3593 139.611 45.224 139.06 45.224C138.491 45.224 138.038 45.3453 137.702 45.588C137.366 45.8213 137.198 46.12 137.198 46.484L138.71 47.24L138.598 47.912C138.253 47.912 137.949 48.0287 137.688 48.262C137.436 48.486 137.31 48.8453 137.31 49.34V52H136.064ZM140.917 43.446C140.451 43.446 140.082 43.3387 139.811 43.124C139.541 42.9 139.405 42.5873 139.405 42.186C139.405 41.7753 139.541 41.4627 139.811 41.248C140.082 41.0333 140.451 40.926 140.917 40.926C141.384 40.926 141.757 41.0333 142.037 41.248C142.317 41.4627 142.457 41.7753 142.457 42.186C142.457 42.5873 142.317 42.9 142.037 43.124C141.757 43.3387 141.384 43.446 140.917 43.446ZM140.917 42.788C141.141 42.788 141.314 42.732 141.435 42.62C141.547 42.508 141.603 42.3633 141.603 42.186C141.603 41.9993 141.547 41.8547 141.435 41.752C141.314 41.64 141.141 41.584 140.917 41.584C140.703 41.584 140.539 41.64 140.427 41.752C140.306 41.8547 140.245 41.9993 140.245 42.186C140.245 42.3633 140.306 42.508 140.427 42.62C140.539 42.732 140.703 42.788 140.917 42.788ZM146.279 52V46.554C146.279 46.0967 146.171 45.7607 145.957 45.546C145.751 45.3313 145.401 45.224 144.907 45.224C144.571 45.224 144.253 45.2707 143.955 45.364C143.665 45.448 143.385 45.5693 143.115 45.728V44.608C143.301 44.5147 143.567 44.4213 143.913 44.328C144.258 44.2347 144.669 44.188 145.145 44.188C145.873 44.188 146.451 44.3513 146.881 44.678C147.31 45.0047 147.525 45.5693 147.525 46.372V52H146.279ZM151.518 52.14C151.266 52.14 151.023 52.098 150.79 52.014C150.557 51.93 150.365 51.7807 150.216 51.566C150.067 51.3513 149.992 51.0527 149.992 50.67V43.222C149.992 42.6993 150.062 42.312 150.202 42.06C150.351 41.808 150.524 41.612 150.72 41.472L150.706 41.416H148.27L148.592 40.436H152.54V41.416C152.195 41.416 151.891 41.528 151.63 41.752C151.369 41.976 151.238 42.3867 151.238 42.984V50.516C151.238 50.7307 151.285 50.8847 151.378 50.978C151.471 51.0713 151.621 51.118 151.826 51.118C151.91 51.118 151.999 51.1087 152.092 51.09C152.185 51.0713 152.274 51.048 152.358 51.02L152.526 51.93C152.349 52.014 152.176 52.07 152.008 52.098C151.84 52.126 151.677 52.14 151.518 52.14ZM155.647 52.14C155.097 52.14 154.583 52.0887 154.107 51.986C153.641 51.874 153.244 51.7433 152.917 51.594L153.281 50.586C153.58 50.7073 153.935 50.824 154.345 50.936C154.765 51.048 155.209 51.104 155.675 51.104C156.17 51.104 156.581 51.0107 156.907 50.824C157.234 50.6373 157.397 50.3667 157.397 50.012C157.397 49.6947 157.267 49.4333 157.005 49.228C156.744 49.0227 156.324 48.8313 155.745 48.654C155.157 48.4673 154.658 48.2713 154.247 48.066C153.846 47.8513 153.538 47.5993 153.323 47.31C153.118 47.0113 153.015 46.6427 153.015 46.204C153.015 45.6253 153.253 45.1447 153.729 44.762C154.205 44.3793 154.966 44.188 156.011 44.188C156.459 44.188 156.879 44.23 157.271 44.314C157.673 44.3887 157.985 44.496 158.209 44.636V45.686C157.976 45.574 157.654 45.4667 157.243 45.364C156.833 45.2613 156.408 45.21 155.969 45.21C155.344 45.21 154.901 45.308 154.639 45.504C154.387 45.6907 154.261 45.9053 154.261 46.148C154.261 46.3533 154.317 46.526 154.429 46.666C154.551 46.806 154.751 46.9413 155.031 47.072C155.321 47.2027 155.708 47.352 156.193 47.52C156.641 47.6693 157.052 47.842 157.425 48.038C157.799 48.234 158.093 48.4813 158.307 48.78C158.531 49.0693 158.643 49.4427 158.643 49.9C158.643 50.292 158.545 50.6607 158.349 51.006C158.163 51.342 157.85 51.6173 157.411 51.832C156.973 52.0373 156.385 52.14 155.647 52.14Z" fill="#49474A"/>
<rect x="115" y="62" width="12" height="10" fill="#57A3B3"/>
<path d="M138.836 72.14C137.959 72.14 137.277 71.93 136.792 71.51C136.316 71.0807 136.078 70.4413 136.078 69.592V68.738C136.078 68.2713 136.143 67.9027 136.274 67.632C136.405 67.3613 136.545 67.128 136.694 66.932C136.853 66.7173 136.988 66.5307 137.1 66.372C137.221 66.2133 137.282 66.022 137.282 65.798C137.282 65.602 137.231 65.462 137.128 65.378C137.035 65.294 136.913 65.252 136.764 65.252C136.652 65.252 136.531 65.2707 136.4 65.308C136.279 65.3453 136.157 65.392 136.036 65.448L135.756 64.552C135.924 64.44 136.129 64.3607 136.372 64.314C136.624 64.2673 136.843 64.244 137.03 64.244C137.553 64.244 137.921 64.3793 138.136 64.65C138.351 64.9113 138.458 65.2473 138.458 65.658C138.458 66.0033 138.397 66.288 138.276 66.512C138.164 66.736 138.029 66.9553 137.87 67.17C137.711 67.4033 137.581 67.6273 137.478 67.842C137.375 68.0567 137.324 68.3367 137.324 68.682V69.508C137.324 69.9373 137.394 70.2687 137.534 70.502C137.674 70.7353 137.861 70.8987 138.094 70.992C138.327 71.076 138.575 71.118 138.836 71.118C139.797 71.118 140.278 70.67 140.278 69.774V64.328H141.524V69.844C141.524 70.5627 141.295 71.1273 140.838 71.538C140.39 71.9393 139.723 72.14 138.836 72.14ZM145.75 72V66.554C145.75 66.0967 145.643 65.7607 145.428 65.546C145.223 65.3313 144.873 65.224 144.378 65.224C144.042 65.224 143.725 65.2707 143.426 65.364C143.137 65.448 142.857 65.5693 142.586 65.728V64.608C142.773 64.5147 143.039 64.4213 143.384 64.328C143.73 64.2347 144.14 64.188 144.616 64.188C145.344 64.188 145.923 64.3513 146.352 64.678C146.782 65.0047 146.996 65.5693 146.996 66.372V72H145.75ZM151.676 72.14C150.929 72.14 150.341 71.9673 149.912 71.622C149.492 71.2673 149.193 70.7913 149.016 70.194C148.848 69.5967 148.764 68.9387 148.764 68.22C148.764 67.1653 148.908 66.3487 149.198 65.77C149.487 65.182 149.888 64.7713 150.402 64.538C150.924 64.3047 151.526 64.188 152.208 64.188C153.328 64.188 154.14 64.4307 154.644 64.916C155.157 65.4013 155.414 66.0593 155.414 66.89V72H154.182V67.002C154.182 66.4233 154.037 65.9847 153.748 65.686C153.458 65.378 152.959 65.224 152.25 65.224C151.82 65.224 151.433 65.3033 151.088 65.462C150.752 65.6207 150.486 65.9147 150.29 66.344C150.103 66.7733 150.01 67.4033 150.01 68.234C150.01 68.7753 150.061 69.2653 150.164 69.704C150.276 70.1333 150.467 70.474 150.738 70.726C151.008 70.978 151.386 71.104 151.872 71.104C152.012 71.104 152.142 71.0947 152.264 71.076C152.385 71.0573 152.502 71.0293 152.614 70.992L152.74 71.958C152.59 72.0233 152.418 72.07 152.222 72.098C152.035 72.126 151.853 72.14 151.676 72.14ZM157.517 72V64.328H158.385L158.609 65.546H158.665C158.823 65.126 159.113 64.7947 159.533 64.552C159.953 64.3093 160.461 64.188 161.059 64.188C161.889 64.188 162.543 64.4027 163.019 64.832C163.495 65.2613 163.733 65.9427 163.733 66.876V72H162.487V66.946C162.487 65.8073 161.931 65.238 160.821 65.238C160.382 65.238 160.009 65.3407 159.701 65.546C159.393 65.7513 159.159 66.0313 159.001 66.386C158.842 66.7313 158.763 67.1233 158.763 67.562V72H157.517ZM162.405 75.654V74.17C162.405 73.9367 162.303 73.82 162.097 73.82C162.051 73.82 162.004 73.8247 161.957 73.834C161.901 73.8433 161.85 73.8573 161.803 73.876L161.705 73.036C161.845 72.9893 161.999 72.952 162.167 72.924C162.326 72.9053 162.457 72.896 162.559 72.896C162.886 72.896 163.129 72.9707 163.287 73.12C163.437 73.2787 163.511 73.4933 163.511 73.764V75.654H162.405ZM168.232 72.14C167.411 72.14 166.762 71.9253 166.286 71.496C165.819 71.0667 165.586 70.3853 165.586 69.452V64.328H166.832V69.382C166.832 70.5207 167.387 71.09 168.498 71.09C169.151 71.09 169.655 70.88 170.01 70.46C170.374 70.04 170.556 69.4753 170.556 68.766V64.328H171.802V72H170.766L170.71 70.866H170.64C170.472 71.2393 170.178 71.5473 169.758 71.79C169.347 72.0233 168.839 72.14 168.232 72.14Z" fill="#49474A"/>
<circle cx="139" cy="296" r="13" fill="#BDBDBD"/>
<path d="M140.32 302V290.797H138.641V291.586C138.641 292.023 138.43 292.242 138 292.242H136.477V293.68H138.641V302H140.32Z" fill="#49474A"/>
<circle cx="239" cy="296" r="13" fill="#BDBDBD"/>
<path d="M242.477 302V300.477H236.961L240.883 296.641C241.344 296.195 241.695 295.766 241.945 295.352C242.195 294.938 242.32 294.461 242.32 293.922C242.32 292.938 241.984 292.141 241.32 291.539C240.656 290.938 239.734 290.641 238.562 290.641C237.453 290.641 236.57 290.945 235.906 291.555C235.242 292.164 234.852 292.953 234.719 293.922H236.398C236.578 292.852 237.383 292.156 238.562 292.156C239.898 292.164 240.562 292.75 240.562 293.922C240.562 294.523 240.266 295.109 239.68 295.68L234.719 300.477V302H242.477Z" fill="#49474A"/>
<circle cx="339" cy="296" r="13" fill="#BDBDBD"/>
<path d="M338.562 302.156C339.773 302.156 340.734 301.859 341.43 301.258C342.125 300.664 342.477 299.898 342.477 298.961C342.477 297.703 341.773 296.727 340.641 296.32C341.68 295.914 342.32 295.039 342.32 293.844C342.32 292.867 341.984 292.094 341.305 291.508C340.625 290.93 339.711 290.641 338.562 290.641C337.492 290.641 336.617 290.922 335.922 291.484C335.227 292.055 334.805 292.867 334.641 293.922H336.32C336.391 293.375 336.641 292.945 337.062 292.625C337.484 292.312 337.984 292.156 338.562 292.156C339.883 292.156 340.641 292.852 340.641 293.914C340.641 294.984 339.883 295.68 338.516 295.68H337.68V297.117H338.516C339.211 297.117 339.766 297.281 340.18 297.609C340.594 297.938 340.797 298.359 340.797 298.883C340.797 299.945 339.969 300.641 338.562 300.641C337.953 300.641 337.422 300.477 336.961 300.141C336.5 299.812 336.227 299.391 336.156 298.883H334.477C334.594 299.953 335.023 300.766 335.766 301.32C336.5 301.875 337.43 302.156 338.562 302.156Z" fill="#49474A"/>
<circle cx="439" cy="296" r="13" fill="#BDBDBD"/>
<path d="M441.359 302V299.523H442.797V298H441.359V290.797H439.039L434.32 298V299.523H439.68V302H441.359ZM439.602 292.641H439.68V298H436.078L439.602 292.641Z" fill="#49474A"/>
</svg>
