<svg width="526" height="329" viewBox="0 0 526 329" fill="none" xmlns="http://www.w3.org/2000/svg">
<line x1="90" y1="30" x2="90" y2="305" stroke="#49474A" stroke-width="2"/>
<line x1="67" y1="29" x2="91" y2="29" stroke="#49474A" stroke-width="2"/>
<path d="M29.9644 34.1562C31.1753 34.1562 32.1362 33.8594 32.8316 33.2578C33.5269 32.6641 33.8784 31.8984 33.8784 30.9609C33.8784 29.7031 33.1753 28.7266 32.0425 28.3203C33.0816 27.9141 33.7222 27.0391 33.7222 25.8438C33.7222 24.8672 33.3862 24.0938 32.7066 23.5078C32.0269 22.9297 31.1128 22.6406 29.9644 22.6406C28.8941 22.6406 28.0191 22.9219 27.3237 23.4844C26.6284 24.0547 26.2066 24.8672 26.0425 25.9219H27.7222C27.7925 25.375 28.0425 24.9453 28.4644 24.625C28.8862 24.3125 29.3862 24.1562 29.9644 24.1562C31.2847 24.1562 32.0425 24.8516 32.0425 25.9141C32.0425 26.9844 31.2847 27.6797 29.9175 27.6797H29.0816V29.1172H29.9175C30.6128 29.1172 31.1675 29.2812 31.5816 29.6094C31.9956 29.9375 32.1987 30.3594 32.1987 30.8828C32.1987 31.9453 31.3706 32.6406 29.9644 32.6406C29.355 32.6406 28.8237 32.4766 28.3628 32.1406C27.9019 31.8125 27.6284 31.3906 27.5581 30.8828H25.8784C25.9956 31.9531 26.4253 32.7656 27.1675 33.3203C27.9019 33.875 28.8316 34.1562 29.9644 34.1562ZM43.1775 32.6797C44.0212 31.6953 44.4431 30.2656 44.4431 28.3984C44.4431 26.5312 44.0212 25.1094 43.1775 24.1172C42.3337 23.1328 41.2087 22.6406 39.8025 22.6406C38.3962 22.6406 37.2712 23.1328 36.4275 24.1172C35.5837 25.1094 35.1619 26.5312 35.1619 28.3984C35.1619 30.2656 35.5837 31.6953 36.4275 32.6797C37.2712 33.6641 38.3962 34.1562 39.8025 34.1562C41.2087 34.1562 42.3337 33.6641 43.1775 32.6797ZM37.6853 31.5547C37.1228 30.8359 36.8416 29.7812 36.8416 28.3984C36.8416 27.0156 37.1228 25.9609 37.6853 25.2344C38.24 24.5156 38.9509 24.1562 39.8025 24.1562C40.6541 24.1562 41.365 24.5156 41.9275 25.2344C42.4822 25.9609 42.7634 27.0156 42.7634 28.3984C42.7634 29.7812 42.4822 30.8359 41.9275 31.5547C41.365 32.2812 40.6541 32.6406 39.8025 32.6406C38.9509 32.6406 38.24 32.2812 37.6853 31.5547ZM48.2812 34L55.2422 22.7969H53.6406L46.6797 34H48.2812ZM55.7422 33.4375C56.2109 32.9609 56.4453 32.3203 56.4453 31.5156C56.4453 30.7188 56.2109 30.0781 55.7422 29.6016C55.2656 29.125 54.6484 28.8828 53.8828 28.8828C53.1094 28.8828 52.4922 29.125 52.0234 29.6016C51.5547 30.0781 51.3203 30.7188 51.3203 31.5156C51.3203 32.3203 51.5547 32.9609 52.0234 33.4375C52.4922 33.9141 53.1094 34.1562 53.8828 34.1562C54.6484 34.1562 55.2656 33.9141 55.7422 33.4375ZM52.9453 32.5703C52.7188 32.3125 52.6016 31.9609 52.6016 31.5234C52.6016 31.0859 52.7188 30.7344 52.9453 30.4688C53.1719 30.2109 53.4844 30.0781 53.8828 30.0781C54.2812 30.0781 54.5938 30.2109 54.8203 30.4688C55.0469 30.7344 55.1641 31.0859 55.1641 31.5234C55.1641 31.9609 55.0469 32.3125 54.8203 32.5703C54.5938 32.8281 54.2812 32.9609 53.8828 32.9609C53.4844 32.9609 53.1719 32.8281 52.9453 32.5703ZM49.8984 27.1953C50.3672 26.7188 50.6016 26.0781 50.6016 25.2734C50.6016 24.4766 50.3672 23.8359 49.8984 23.3594C49.4297 22.8828 48.8125 22.6406 48.0469 22.6406C47.2734 22.6406 46.6562 22.8828 46.1875 23.3594C45.7188 23.8359 45.4844 24.4766 45.4844 25.2734C45.4844 26.0781 45.7188 26.7188 46.1875 27.1953C46.6562 27.6797 47.2734 27.9219 48.0469 27.9219C48.8125 27.9219 49.4297 27.6797 49.8984 27.1953ZM47.1094 26.3281C46.8828 26.0703 46.7656 25.7188 46.7656 25.2812C46.7656 24.8438 46.8828 24.4922 47.1094 24.2344C47.3359 23.9766 47.6484 23.8438 48.0469 23.8438C48.4375 23.8438 48.75 23.9766 48.9766 24.2344C49.2031 24.4922 49.3203 24.8438 49.3203 25.2812C49.3203 25.7188 49.2031 26.0703 48.9766 26.3281C48.75 26.5859 48.4375 26.7188 48.0469 26.7188C47.6484 26.7188 47.3359 26.5859 47.1094 26.3281Z" fill="#49474A"/>
<line x1="67" y1="84" x2="89" y2="84" stroke="#49474A" stroke-width="2"/>
<path d="M34.2847 89V87.4766H28.7691L32.6909 83.6406C33.1519 83.1953 33.5034 82.7656 33.7534 82.3516C34.0034 81.9375 34.1284 81.4609 34.1284 80.9219C34.1284 79.9375 33.7925 79.1406 33.1284 78.5391C32.4644 77.9375 31.5425 77.6406 30.3706 77.6406C29.2612 77.6406 28.3784 77.9453 27.7144 78.5547C27.0503 79.1641 26.6597 79.9531 26.5269 80.9219H28.2066C28.3862 79.8516 29.1909 79.1562 30.3706 79.1562C31.7066 79.1641 32.3706 79.75 32.3706 80.9219C32.3706 81.5234 32.0737 82.1094 31.4878 82.6797L26.5269 87.4766V89H34.2847ZM43.1775 87.6797C44.0212 86.6953 44.4431 85.2656 44.4431 83.3984C44.4431 81.5312 44.0212 80.1094 43.1775 79.1172C42.3337 78.1328 41.2087 77.6406 39.8025 77.6406C38.3962 77.6406 37.2712 78.1328 36.4275 79.1172C35.5837 80.1094 35.1619 81.5312 35.1619 83.3984C35.1619 85.2656 35.5837 86.6953 36.4275 87.6797C37.2712 88.6641 38.3962 89.1562 39.8025 89.1562C41.2087 89.1562 42.3337 88.6641 43.1775 87.6797ZM37.6853 86.5547C37.1228 85.8359 36.8416 84.7812 36.8416 83.3984C36.8416 82.0156 37.1228 80.9609 37.6853 80.2344C38.24 79.5156 38.9509 79.1562 39.8025 79.1562C40.6541 79.1562 41.365 79.5156 41.9275 80.2344C42.4822 80.9609 42.7634 82.0156 42.7634 83.3984C42.7634 84.7812 42.4822 85.8359 41.9275 86.5547C41.365 87.2812 40.6541 87.6406 39.8025 87.6406C38.9509 87.6406 38.24 87.2812 37.6853 86.5547ZM48.2812 89L55.2422 77.7969H53.6406L46.6797 89H48.2812ZM55.7422 88.4375C56.2109 87.9609 56.4453 87.3203 56.4453 86.5156C56.4453 85.7188 56.2109 85.0781 55.7422 84.6016C55.2656 84.125 54.6484 83.8828 53.8828 83.8828C53.1094 83.8828 52.4922 84.125 52.0234 84.6016C51.5547 85.0781 51.3203 85.7188 51.3203 86.5156C51.3203 87.3203 51.5547 87.9609 52.0234 88.4375C52.4922 88.9141 53.1094 89.1562 53.8828 89.1562C54.6484 89.1562 55.2656 88.9141 55.7422 88.4375ZM52.9453 87.5703C52.7188 87.3125 52.6016 86.9609 52.6016 86.5234C52.6016 86.0859 52.7188 85.7344 52.9453 85.4688C53.1719 85.2109 53.4844 85.0781 53.8828 85.0781C54.2812 85.0781 54.5938 85.2109 54.8203 85.4688C55.0469 85.7344 55.1641 86.0859 55.1641 86.5234C55.1641 86.9609 55.0469 87.3125 54.8203 87.5703C54.5938 87.8281 54.2812 87.9609 53.8828 87.9609C53.4844 87.9609 53.1719 87.8281 52.9453 87.5703ZM49.8984 82.1953C50.3672 81.7188 50.6016 81.0781 50.6016 80.2734C50.6016 79.4766 50.3672 78.8359 49.8984 78.3594C49.4297 77.8828 48.8125 77.6406 48.0469 77.6406C47.2734 77.6406 46.6562 77.8828 46.1875 78.3594C45.7188 78.8359 45.4844 79.4766 45.4844 80.2734C45.4844 81.0781 45.7188 81.7188 46.1875 82.1953C46.6562 82.6797 47.2734 82.9219 48.0469 82.9219C48.8125 82.9219 49.4297 82.6797 49.8984 82.1953ZM47.1094 81.3281C46.8828 81.0703 46.7656 80.7188 46.7656 80.2812C46.7656 79.8438 46.8828 79.4922 47.1094 79.2344C47.3359 78.9766 47.6484 78.8438 48.0469 78.8438C48.4375 78.8438 48.75 78.9766 48.9766 79.2344C49.2031 79.4922 49.3203 79.8438 49.3203 80.2812C49.3203 80.7188 49.2031 81.0703 48.9766 81.3281C48.75 81.5859 48.4375 81.7188 48.0469 81.7188C47.6484 81.7188 47.3359 81.5859 47.1094 81.3281Z" fill="#49474A"/>
<line x1="67" y1="139" x2="89" y2="139" stroke="#49474A" stroke-width="2"/>
<path d="M33.4097 144V132.797H31.73V133.586C31.73 134.023 31.5191 134.242 31.0894 134.242H29.5659V135.68H31.73V144H33.4097ZM43.1775 142.68C44.0212 141.695 44.4431 140.266 44.4431 138.398C44.4431 136.531 44.0212 135.109 43.1775 134.117C42.3337 133.133 41.2087 132.641 39.8025 132.641C38.3962 132.641 37.2712 133.133 36.4275 134.117C35.5837 135.109 35.1619 136.531 35.1619 138.398C35.1619 140.266 35.5837 141.695 36.4275 142.68C37.2712 143.664 38.3962 144.156 39.8025 144.156C41.2087 144.156 42.3337 143.664 43.1775 142.68ZM37.6853 141.555C37.1228 140.836 36.8416 139.781 36.8416 138.398C36.8416 137.016 37.1228 135.961 37.6853 135.234C38.24 134.516 38.9509 134.156 39.8025 134.156C40.6541 134.156 41.365 134.516 41.9275 135.234C42.4822 135.961 42.7634 137.016 42.7634 138.398C42.7634 139.781 42.4822 140.836 41.9275 141.555C41.365 142.281 40.6541 142.641 39.8025 142.641C38.9509 142.641 38.24 142.281 37.6853 141.555ZM48.2812 144L55.2422 132.797H53.6406L46.6797 144H48.2812ZM55.7422 143.438C56.2109 142.961 56.4453 142.32 56.4453 141.516C56.4453 140.719 56.2109 140.078 55.7422 139.602C55.2656 139.125 54.6484 138.883 53.8828 138.883C53.1094 138.883 52.4922 139.125 52.0234 139.602C51.5547 140.078 51.3203 140.719 51.3203 141.516C51.3203 142.32 51.5547 142.961 52.0234 143.438C52.4922 143.914 53.1094 144.156 53.8828 144.156C54.6484 144.156 55.2656 143.914 55.7422 143.438ZM52.9453 142.57C52.7188 142.312 52.6016 141.961 52.6016 141.523C52.6016 141.086 52.7188 140.734 52.9453 140.469C53.1719 140.211 53.4844 140.078 53.8828 140.078C54.2812 140.078 54.5938 140.211 54.8203 140.469C55.0469 140.734 55.1641 141.086 55.1641 141.523C55.1641 141.961 55.0469 142.312 54.8203 142.57C54.5938 142.828 54.2812 142.961 53.8828 142.961C53.4844 142.961 53.1719 142.828 52.9453 142.57ZM49.8984 137.195C50.3672 136.719 50.6016 136.078 50.6016 135.273C50.6016 134.477 50.3672 133.836 49.8984 133.359C49.4297 132.883 48.8125 132.641 48.0469 132.641C47.2734 132.641 46.6562 132.883 46.1875 133.359C45.7188 133.836 45.4844 134.477 45.4844 135.273C45.4844 136.078 45.7188 136.719 46.1875 137.195C46.6562 137.68 47.2734 137.922 48.0469 137.922C48.8125 137.922 49.4297 137.68 49.8984 137.195ZM47.1094 136.328C46.8828 136.07 46.7656 135.719 46.7656 135.281C46.7656 134.844 46.8828 134.492 47.1094 134.234C47.3359 133.977 47.6484 133.844 48.0469 133.844C48.4375 133.844 48.75 133.977 48.9766 134.234C49.2031 134.492 49.3203 134.844 49.3203 135.281C49.3203 135.719 49.2031 136.07 48.9766 136.328C48.75 136.586 48.4375 136.719 48.0469 136.719C47.6484 136.719 47.3359 136.586 47.1094 136.328Z" fill="#49474A"/>
<path d="M467.047 159.816H471.351C472.556 159.816 473.506 160.12 474.199 160.728C474.903 161.325 475.255 162.179 475.255 163.288C475.255 164.419 474.908 165.277 474.215 165.864C473.522 166.44 472.567 166.728 471.351 166.728H468.679V171H467.047V159.816ZM471.175 165.368C471.922 165.368 472.514 165.213 472.951 164.904C473.388 164.595 473.607 164.056 473.607 163.288C473.607 162.52 473.388 161.981 472.951 161.672C472.514 161.352 471.922 161.192 471.175 161.192H468.679V165.368H471.175ZM476.447 163.32H478.015V164.696C478.335 164.227 478.783 163.88 479.359 163.656C479.946 163.432 480.623 163.32 481.391 163.32V164.584C480.57 164.584 479.866 164.717 479.279 164.984C478.693 165.251 478.287 165.672 478.063 166.248V171H476.447V163.32ZM486.412 171.24C485.548 171.24 484.785 171.08 484.124 170.76C483.473 170.429 482.961 169.96 482.588 169.352C482.225 168.733 482.044 168.008 482.044 167.176C482.044 166.355 482.225 165.635 482.588 165.016C482.95 164.397 483.462 163.923 484.124 163.592C484.785 163.251 485.548 163.08 486.412 163.08C487.276 163.08 488.038 163.251 488.7 163.592C489.361 163.923 489.873 164.397 490.236 165.016C490.609 165.635 490.796 166.355 490.796 167.176C490.796 168.008 490.609 168.733 490.236 169.352C489.873 169.96 489.361 170.429 488.7 170.76C488.038 171.08 487.276 171.24 486.412 171.24ZM486.412 169.96C487.244 169.96 487.905 169.704 488.396 169.192C488.886 168.68 489.132 168.008 489.132 167.176C489.132 166.312 488.886 165.629 488.396 165.128C487.905 164.627 487.244 164.376 486.412 164.376C485.58 164.376 484.918 164.627 484.428 165.128C483.937 165.629 483.692 166.312 483.692 167.176C483.692 168.008 483.937 168.68 484.428 169.192C484.918 169.704 485.58 169.96 486.412 169.96ZM492.277 164.568H491.109V163.32H492.277V161.864C492.277 160.979 492.559 160.296 493.125 159.816C493.69 159.336 494.394 159.096 495.237 159.096C495.663 159.096 496.079 159.16 496.485 159.288V160.6C496.186 160.483 495.877 160.424 495.557 160.424C495.013 160.424 494.597 160.557 494.309 160.824C494.031 161.08 493.893 161.459 493.893 161.96V163.32H499.077V171H497.461V164.568H493.893V171H492.277V164.568ZM498.261 161.816C497.983 161.816 497.754 161.725 497.573 161.544C497.391 161.363 497.301 161.139 497.301 160.872C497.301 160.605 497.391 160.381 497.573 160.2C497.765 160.019 497.994 159.928 498.261 159.928C498.527 159.928 498.751 160.019 498.933 160.2C499.125 160.381 499.221 160.605 499.221 160.872C499.221 161.139 499.125 161.363 498.933 161.544C498.751 161.725 498.527 161.816 498.261 161.816ZM504.016 171.24C503.237 171.24 502.634 171.016 502.208 170.568C501.792 170.12 501.584 169.485 501.584 168.664V164.568H500.416V163.32H501.584V161.016H503.216V163.32H505.104V164.568H503.216V168.552C503.216 169.064 503.312 169.427 503.504 169.64C503.706 169.853 504.069 169.96 504.592 169.96C504.901 169.96 505.21 169.891 505.52 169.752V171.032C505.114 171.171 504.613 171.24 504.016 171.24Z" fill="#49474A"/>
<path d="M467.635 217.816H469.267V227.64H474.931V229H467.635V217.816ZM479.537 229.24C478.673 229.24 477.91 229.08 477.249 228.76C476.598 228.429 476.086 227.96 475.713 227.352C475.35 226.733 475.169 226.008 475.169 225.176C475.169 224.355 475.35 223.635 475.713 223.016C476.075 222.397 476.587 221.923 477.249 221.592C477.91 221.251 478.673 221.08 479.537 221.08C480.401 221.08 481.163 221.251 481.825 221.592C482.486 221.923 482.998 222.397 483.361 223.016C483.734 223.635 483.921 224.355 483.921 225.176C483.921 226.008 483.734 226.733 483.361 227.352C482.998 227.96 482.486 228.429 481.825 228.76C481.163 229.08 480.401 229.24 479.537 229.24ZM479.537 227.96C480.369 227.96 481.03 227.704 481.521 227.192C482.011 226.68 482.257 226.008 482.257 225.176C482.257 224.312 482.011 223.629 481.521 223.128C481.03 222.627 480.369 222.376 479.537 222.376C478.705 222.376 478.043 222.627 477.553 223.128C477.062 223.629 476.817 224.312 476.817 225.176C476.817 226.008 477.062 226.68 477.553 227.192C478.043 227.704 478.705 227.96 479.537 227.96ZM487.862 229.24C487.329 229.24 486.763 229.171 486.166 229.032C485.569 228.904 485.099 228.728 484.758 228.504V227.128C485.174 227.373 485.654 227.576 486.198 227.736C486.742 227.885 487.27 227.96 487.782 227.96C488.358 227.96 488.779 227.891 489.046 227.752C489.313 227.613 489.446 227.389 489.446 227.08C489.446 226.845 489.382 226.659 489.254 226.52C489.137 226.371 488.929 226.237 488.63 226.12C488.342 226.003 487.905 225.864 487.318 225.704C486.689 225.523 486.187 225.341 485.814 225.16C485.451 224.968 485.174 224.728 484.982 224.44C484.801 224.152 484.71 223.779 484.71 223.32C484.71 222.584 484.998 222.029 485.574 221.656C486.161 221.272 486.945 221.08 487.926 221.08C488.438 221.08 488.939 221.128 489.43 221.224C489.921 221.32 490.315 221.453 490.614 221.624V222.968C490.305 222.787 489.921 222.643 489.462 222.536C489.014 222.429 488.555 222.376 488.086 222.376C487.521 222.376 487.089 222.445 486.79 222.584C486.491 222.723 486.342 222.968 486.342 223.32C486.342 223.544 486.406 223.725 486.534 223.864C486.662 224.003 486.865 224.125 487.142 224.232C487.43 224.328 487.883 224.456 488.502 224.616C489.473 224.883 490.145 225.197 490.518 225.56C490.902 225.923 491.094 226.424 491.094 227.064C491.094 227.725 490.822 228.253 490.278 228.648C489.734 229.043 488.929 229.24 487.862 229.24ZM495.044 229.24C494.511 229.24 493.945 229.171 493.348 229.032C492.751 228.904 492.281 228.728 491.94 228.504V227.128C492.356 227.373 492.836 227.576 493.38 227.736C493.924 227.885 494.452 227.96 494.964 227.96C495.54 227.96 495.961 227.891 496.228 227.752C496.495 227.613 496.628 227.389 496.628 227.08C496.628 226.845 496.564 226.659 496.436 226.52C496.319 226.371 496.111 226.237 495.812 226.12C495.524 226.003 495.087 225.864 494.5 225.704C493.871 225.523 493.369 225.341 492.996 225.16C492.633 224.968 492.356 224.728 492.164 224.44C491.983 224.152 491.892 223.779 491.892 223.32C491.892 222.584 492.18 222.029 492.756 221.656C493.343 221.272 494.127 221.08 495.108 221.08C495.62 221.08 496.121 221.128 496.612 221.224C497.103 221.32 497.497 221.453 497.796 221.624V222.968C497.487 222.787 497.103 222.643 496.644 222.536C496.196 222.429 495.737 222.376 495.268 222.376C494.703 222.376 494.271 222.445 493.972 222.584C493.673 222.723 493.524 222.968 493.524 223.32C493.524 223.544 493.588 223.725 493.716 223.864C493.844 224.003 494.047 224.125 494.324 224.232C494.612 224.328 495.065 224.456 495.684 224.616C496.655 224.883 497.327 225.197 497.7 225.56C498.084 225.923 498.276 226.424 498.276 227.064C498.276 227.725 498.004 228.253 497.46 228.648C496.916 229.043 496.111 229.24 495.044 229.24Z" fill="#49474A"/>
<line x1="190" y1="193" x2="190" y2="206" stroke="#49474A" stroke-width="2"/>
<line x1="290" y1="193" x2="290" y2="206" stroke="#49474A" stroke-width="2"/>
<line x1="390" y1="193" x2="390" y2="206" stroke="#49474A" stroke-width="2"/>
<line x1="490" y1="193" x2="490" y2="206" stroke="#49474A" stroke-width="2"/>
<line x1="89" y1="194" x2="491" y2="194" stroke="#49474A" stroke-width="2"/>
<line x1="67" y1="194" x2="89" y2="194" stroke="#49474A" stroke-width="2"/>
<path d="M43.1775 197.68C44.0212 196.695 44.4431 195.266 44.4431 193.398C44.4431 191.531 44.0212 190.109 43.1775 189.117C42.3337 188.133 41.2087 187.641 39.8025 187.641C38.3962 187.641 37.2712 188.133 36.4275 189.117C35.5837 190.109 35.1619 191.531 35.1619 193.398C35.1619 195.266 35.5837 196.695 36.4275 197.68C37.2712 198.664 38.3962 199.156 39.8025 199.156C41.2087 199.156 42.3337 198.664 43.1775 197.68ZM37.6853 196.555C37.1228 195.836 36.8416 194.781 36.8416 193.398C36.8416 192.016 37.1228 190.961 37.6853 190.234C38.24 189.516 38.9509 189.156 39.8025 189.156C40.6541 189.156 41.365 189.516 41.9275 190.234C42.4822 190.961 42.7634 192.016 42.7634 193.398C42.7634 194.781 42.4822 195.836 41.9275 196.555C41.365 197.281 40.6541 197.641 39.8025 197.641C38.9509 197.641 38.24 197.281 37.6853 196.555ZM48.2812 199L55.2422 187.797H53.6406L46.6797 199H48.2812ZM55.7422 198.438C56.2109 197.961 56.4453 197.32 56.4453 196.516C56.4453 195.719 56.2109 195.078 55.7422 194.602C55.2656 194.125 54.6484 193.883 53.8828 193.883C53.1094 193.883 52.4922 194.125 52.0234 194.602C51.5547 195.078 51.3203 195.719 51.3203 196.516C51.3203 197.32 51.5547 197.961 52.0234 198.438C52.4922 198.914 53.1094 199.156 53.8828 199.156C54.6484 199.156 55.2656 198.914 55.7422 198.438ZM52.9453 197.57C52.7188 197.312 52.6016 196.961 52.6016 196.523C52.6016 196.086 52.7188 195.734 52.9453 195.469C53.1719 195.211 53.4844 195.078 53.8828 195.078C54.2812 195.078 54.5938 195.211 54.8203 195.469C55.0469 195.734 55.1641 196.086 55.1641 196.523C55.1641 196.961 55.0469 197.312 54.8203 197.57C54.5938 197.828 54.2812 197.961 53.8828 197.961C53.4844 197.961 53.1719 197.828 52.9453 197.57ZM49.8984 192.195C50.3672 191.719 50.6016 191.078 50.6016 190.273C50.6016 189.477 50.3672 188.836 49.8984 188.359C49.4297 187.883 48.8125 187.641 48.0469 187.641C47.2734 187.641 46.6562 187.883 46.1875 188.359C45.7188 188.836 45.4844 189.477 45.4844 190.273C45.4844 191.078 45.7188 191.719 46.1875 192.195C46.6562 192.68 47.2734 192.922 48.0469 192.922C48.8125 192.922 49.4297 192.68 49.8984 192.195ZM47.1094 191.328C46.8828 191.07 46.7656 190.719 46.7656 190.281C46.7656 189.844 46.8828 189.492 47.1094 189.234C47.3359 188.977 47.6484 188.844 48.0469 188.844C48.4375 188.844 48.75 188.977 48.9766 189.234C49.2031 189.492 49.3203 189.844 49.3203 190.281C49.3203 190.719 49.2031 191.07 48.9766 191.328C48.75 191.586 48.4375 191.719 48.0469 191.719C47.6484 191.719 47.3359 191.586 47.1094 191.328Z" fill="#49474A"/>
<line x1="67" y1="249" x2="89" y2="249" stroke="#49474A" stroke-width="2"/>
<path d="M29.0247 250.242V248.797H24.0638V250.242H29.0247ZM33.4097 254V242.797H31.73V243.586C31.73 244.023 31.5191 244.242 31.0894 244.242H29.5659V245.68H31.73V254H33.4097ZM43.1775 252.68C44.0213 251.695 44.4431 250.266 44.4431 248.398C44.4431 246.531 44.0213 245.109 43.1775 244.117C42.3338 243.133 41.2088 242.641 39.8025 242.641C38.3963 242.641 37.2713 243.133 36.4275 244.117C35.5838 245.109 35.1619 246.531 35.1619 248.398C35.1619 250.266 35.5838 251.695 36.4275 252.68C37.2713 253.664 38.3963 254.156 39.8025 254.156C41.2088 254.156 42.3338 253.664 43.1775 252.68ZM37.6853 251.555C37.1228 250.836 36.8416 249.781 36.8416 248.398C36.8416 247.016 37.1228 245.961 37.6853 245.234C38.24 244.516 38.9509 244.156 39.8025 244.156C40.6541 244.156 41.365 244.516 41.9275 245.234C42.4822 245.961 42.7634 247.016 42.7634 248.398C42.7634 249.781 42.4822 250.836 41.9275 251.555C41.365 252.281 40.6541 252.641 39.8025 252.641C38.9509 252.641 38.24 252.281 37.6853 251.555ZM48.2813 254L55.2422 242.797H53.6406L46.6797 254H48.2813ZM55.7422 253.438C56.2109 252.961 56.4453 252.32 56.4453 251.516C56.4453 250.719 56.2109 250.078 55.7422 249.602C55.2656 249.125 54.6484 248.883 53.8828 248.883C53.1094 248.883 52.4922 249.125 52.0234 249.602C51.5547 250.078 51.3203 250.719 51.3203 251.516C51.3203 252.32 51.5547 252.961 52.0234 253.438C52.4922 253.914 53.1094 254.156 53.8828 254.156C54.6484 254.156 55.2656 253.914 55.7422 253.438ZM52.9453 252.57C52.7188 252.312 52.6016 251.961 52.6016 251.523C52.6016 251.086 52.7188 250.734 52.9453 250.469C53.1719 250.211 53.4844 250.078 53.8828 250.078C54.2813 250.078 54.5938 250.211 54.8203 250.469C55.0469 250.734 55.1641 251.086 55.1641 251.523C55.1641 251.961 55.0469 252.312 54.8203 252.57C54.5938 252.828 54.2813 252.961 53.8828 252.961C53.4844 252.961 53.1719 252.828 52.9453 252.57ZM49.8984 247.195C50.3672 246.719 50.6016 246.078 50.6016 245.273C50.6016 244.477 50.3672 243.836 49.8984 243.359C49.4297 242.883 48.8125 242.641 48.0469 242.641C47.2734 242.641 46.6563 242.883 46.1875 243.359C45.7188 243.836 45.4844 244.477 45.4844 245.273C45.4844 246.078 45.7188 246.719 46.1875 247.195C46.6563 247.68 47.2734 247.922 48.0469 247.922C48.8125 247.922 49.4297 247.68 49.8984 247.195ZM47.1094 246.328C46.8828 246.07 46.7656 245.719 46.7656 245.281C46.7656 244.844 46.8828 244.492 47.1094 244.234C47.3359 243.977 47.6484 243.844 48.0469 243.844C48.4375 243.844 48.75 243.977 48.9766 244.234C49.2031 244.492 49.3203 244.844 49.3203 245.281C49.3203 245.719 49.2031 246.07 48.9766 246.328C48.75 246.586 48.4375 246.719 48.0469 246.719C47.6484 246.719 47.3359 246.586 47.1094 246.328Z" fill="#49474A"/>
<line x1="67" y1="304" x2="89" y2="304" stroke="#49474A" stroke-width="2"/>
<path d="M25.4153 305.242V303.797H20.4544V305.242H25.4153ZM34.2847 309V307.477H28.7691L32.6909 303.641C33.1519 303.195 33.5034 302.766 33.7534 302.352C34.0034 301.938 34.1284 301.461 34.1284 300.922C34.1284 299.938 33.7925 299.141 33.1284 298.539C32.4644 297.938 31.5425 297.641 30.3706 297.641C29.2613 297.641 28.3784 297.945 27.7144 298.555C27.0503 299.164 26.6597 299.953 26.5269 300.922H28.2066C28.3863 299.852 29.1909 299.156 30.3706 299.156C31.7066 299.164 32.3706 299.75 32.3706 300.922C32.3706 301.523 32.0738 302.109 31.4878 302.68L26.5269 307.477V309H34.2847ZM43.1775 307.68C44.0213 306.695 44.4431 305.266 44.4431 303.398C44.4431 301.531 44.0213 300.109 43.1775 299.117C42.3338 298.133 41.2088 297.641 39.8025 297.641C38.3963 297.641 37.2713 298.133 36.4275 299.117C35.5838 300.109 35.1619 301.531 35.1619 303.398C35.1619 305.266 35.5838 306.695 36.4275 307.68C37.2713 308.664 38.3963 309.156 39.8025 309.156C41.2088 309.156 42.3338 308.664 43.1775 307.68ZM37.6853 306.555C37.1228 305.836 36.8416 304.781 36.8416 303.398C36.8416 302.016 37.1228 300.961 37.6853 300.234C38.24 299.516 38.9509 299.156 39.8025 299.156C40.6541 299.156 41.365 299.516 41.9275 300.234C42.4822 300.961 42.7634 302.016 42.7634 303.398C42.7634 304.781 42.4822 305.836 41.9275 306.555C41.365 307.281 40.6541 307.641 39.8025 307.641C38.9509 307.641 38.24 307.281 37.6853 306.555ZM48.2813 309L55.2422 297.797H53.6406L46.6797 309H48.2813ZM55.7422 308.438C56.2109 307.961 56.4453 307.32 56.4453 306.516C56.4453 305.719 56.2109 305.078 55.7422 304.602C55.2656 304.125 54.6484 303.883 53.8828 303.883C53.1094 303.883 52.4922 304.125 52.0234 304.602C51.5547 305.078 51.3203 305.719 51.3203 306.516C51.3203 307.32 51.5547 307.961 52.0234 308.438C52.4922 308.914 53.1094 309.156 53.8828 309.156C54.6484 309.156 55.2656 308.914 55.7422 308.438ZM52.9453 307.57C52.7188 307.312 52.6016 306.961 52.6016 306.523C52.6016 306.086 52.7188 305.734 52.9453 305.469C53.1719 305.211 53.4844 305.078 53.8828 305.078C54.2813 305.078 54.5938 305.211 54.8203 305.469C55.0469 305.734 55.1641 306.086 55.1641 306.523C55.1641 306.961 55.0469 307.312 54.8203 307.57C54.5938 307.828 54.2813 307.961 53.8828 307.961C53.4844 307.961 53.1719 307.828 52.9453 307.57ZM49.8984 302.195C50.3672 301.719 50.6016 301.078 50.6016 300.273C50.6016 299.477 50.3672 298.836 49.8984 298.359C49.4297 297.883 48.8125 297.641 48.0469 297.641C47.2734 297.641 46.6563 297.883 46.1875 298.359C45.7188 298.836 45.4844 299.477 45.4844 300.273C45.4844 301.078 45.7188 301.719 46.1875 302.195C46.6563 302.68 47.2734 302.922 48.0469 302.922C48.8125 302.922 49.4297 302.68 49.8984 302.195ZM47.1094 301.328C46.8828 301.07 46.7656 300.719 46.7656 300.281C46.7656 299.844 46.8828 299.492 47.1094 299.234C47.3359 298.977 47.6484 298.844 48.0469 298.844C48.4375 298.844 48.75 298.977 48.9766 299.234C49.2031 299.492 49.3203 299.844 49.3203 300.281C49.3203 300.719 49.2031 301.07 48.9766 301.328C48.75 301.586 48.4375 301.719 48.0469 301.719C47.6484 301.719 47.3359 301.586 47.1094 301.328Z" fill="#49474A"/>
<rect x="220" y="195" width="38" height="10" fill="#57A3B3"/>
<rect x="320" y="195" width="38" height="29" fill="#57A3B3"/>
<rect x="420" y="195" width="38" height="82" fill="#57A3B3"/>
<rect x="120" y="181" width="38" height="12" fill="#BDBDBD"/>
<rect x="220" y="157" width="38" height="36" fill="#BDBDBD"/>
<rect x="320" y="107" width="38" height="86" fill="#BDBDBD"/>
<rect x="420" y="57" width="38" height="136" fill="#BDBDBD"/>
<rect x="115" y="41" width="12" height="10" fill="#BDBDBD"/>
<path d="M136.33 46.338L135.63 45.204C136.125 44.5787 136.689 44.1073 137.324 43.79C137.959 43.4633 138.71 43.3 139.578 43.3C140.698 43.3 141.557 43.5567 142.154 44.07C142.751 44.574 143.05 45.2833 143.05 46.198V51H141.622V46.31C141.622 45.666 141.449 45.1947 141.104 44.896C140.768 44.588 140.259 44.434 139.578 44.434C139.065 44.434 138.612 44.5133 138.22 44.672C137.828 44.8213 137.473 45.064 137.156 45.4L137.758 46.338V51H136.33V46.338ZM141.939 42.53C141.519 42.53 141.16 42.3807 140.861 42.082C140.553 41.7833 140.399 41.424 140.399 41.004C140.399 40.5747 140.553 40.2107 140.861 39.912C141.16 39.604 141.519 39.45 141.939 39.45C142.359 39.45 142.723 39.604 143.031 39.912C143.33 40.2107 143.479 40.5747 143.479 41.004C143.479 41.424 143.33 41.7833 143.031 42.082C142.723 42.3807 142.359 42.53 141.939 42.53ZM141.939 41.662C142.107 41.662 142.256 41.5967 142.387 41.466C142.508 41.326 142.569 41.172 142.569 41.004C142.569 40.836 142.508 40.6867 142.387 40.556C142.256 40.4253 142.107 40.36 141.939 40.36C141.771 40.36 141.626 40.4253 141.505 40.556C141.374 40.6867 141.309 40.836 141.309 41.004C141.309 41.172 141.374 41.326 141.505 41.466C141.626 41.5967 141.771 41.662 141.939 41.662ZM147.077 46.156C147.077 45.5587 146.956 45.1247 146.713 44.854C146.47 44.574 146.041 44.434 145.425 44.434C144.828 44.434 144.268 44.5647 143.745 44.826V43.706C143.969 43.594 144.258 43.5007 144.613 43.426C144.977 43.342 145.336 43.3 145.691 43.3C146.634 43.3 147.338 43.5567 147.805 44.07C148.272 44.574 148.505 45.302 148.505 46.254V51H147.077V46.156ZM151.99 50.986C151.533 50.986 151.183 50.86 150.94 50.608C150.707 50.3467 150.59 49.9827 150.59 49.516V44.21C150.59 43.5847 150.679 43.0713 150.856 42.67C151.033 42.2687 151.332 41.9373 151.752 41.676H149.204V40.472H153.614V41.62C153.054 41.8627 152.648 42.1753 152.396 42.558C152.144 42.9407 152.018 43.4727 152.018 44.154V49.11C152.018 49.362 152.069 49.5393 152.172 49.642C152.275 49.7353 152.452 49.782 152.704 49.782H153.208V50.986H151.99ZM157.101 51.21C156.588 51.21 156.065 51.1493 155.533 51.028C155.001 50.916 154.586 50.748 154.287 50.524V49.376C154.688 49.6187 155.127 49.8053 155.603 49.936C156.088 50.0573 156.55 50.118 156.989 50.118C157.605 50.118 158.048 50.048 158.319 49.908C158.59 49.7587 158.725 49.5067 158.725 49.152C158.725 48.9093 158.66 48.7133 158.529 48.564C158.398 48.4147 158.198 48.284 157.927 48.172C157.666 48.06 157.25 47.92 156.681 47.752C155.86 47.5 155.248 47.206 154.847 46.87C154.446 46.5247 154.245 46.0487 154.245 45.442C154.245 44.7513 154.511 44.224 155.043 43.86C155.575 43.4867 156.303 43.3 157.227 43.3C157.703 43.3 158.16 43.356 158.599 43.468C159.047 43.5707 159.416 43.7107 159.705 43.888V45.064C159.388 44.868 159.024 44.714 158.613 44.602C158.202 44.49 157.782 44.434 157.353 44.434C156.233 44.434 155.673 44.77 155.673 45.442C155.673 45.694 155.748 45.8947 155.897 46.044C156.056 46.1933 156.261 46.3193 156.513 46.422C156.774 46.5153 157.208 46.6507 157.815 46.828C158.412 47.0053 158.879 47.1967 159.215 47.402C159.551 47.6073 159.789 47.85 159.929 48.13C160.069 48.41 160.139 48.7553 160.139 49.166C160.139 49.782 159.887 50.2767 159.383 50.65C158.879 51.0233 158.118 51.21 157.101 51.21Z" fill="#49474A"/>
<rect x="115" y="61" width="12" height="10" fill="#57A3B3"/>
<path d="M138.99 71.21C138.318 71.21 137.735 71.0933 137.24 70.86C136.745 70.6267 136.363 70.3 136.092 69.88C135.831 69.4507 135.7 68.9607 135.7 68.41V67.934C135.7 67.6167 135.765 67.3273 135.896 67.066C136.027 66.8047 136.218 66.5013 136.47 66.156C136.647 65.9227 136.778 65.7313 136.862 65.582C136.946 65.4233 136.988 65.274 136.988 65.134C136.988 64.9567 136.941 64.8307 136.848 64.756C136.764 64.6813 136.619 64.644 136.414 64.644H135.63V63.51H137.1C137.511 63.51 137.833 63.6313 138.066 63.874C138.309 64.1073 138.43 64.42 138.43 64.812C138.43 65.0827 138.374 65.3347 138.262 65.568C138.15 65.792 137.982 66.0673 137.758 66.394C137.534 66.73 137.371 67.0007 137.268 67.206C137.175 67.4113 137.128 67.6353 137.128 67.878V68.396C137.128 68.9373 137.282 69.3573 137.59 69.656C137.907 69.9453 138.374 70.09 138.99 70.09C139.606 70.09 140.063 69.9407 140.362 69.642C140.661 69.334 140.81 68.9047 140.81 68.354V63.51H142.238V68.116C142.238 69.0773 141.953 69.8333 141.384 70.384C140.815 70.9347 140.017 71.21 138.99 71.21ZM146.48 66.156C146.48 65.5587 146.359 65.1247 146.116 64.854C145.874 64.574 145.444 64.434 144.828 64.434C144.231 64.434 143.671 64.5647 143.148 64.826V63.706C143.372 63.594 143.662 63.5007 144.016 63.426C144.38 63.342 144.74 63.3 145.094 63.3C146.037 63.3 146.742 63.5567 147.208 64.07C147.675 64.574 147.908 65.302 147.908 66.254V71H146.48V66.156ZM152.835 71.21C151.715 71.21 150.833 70.8927 150.189 70.258C149.555 69.6233 149.237 68.69 149.237 67.458C149.237 66.5993 149.401 65.8573 149.727 65.232C150.063 64.6067 150.539 64.1307 151.155 63.804C151.771 63.468 152.504 63.3 153.353 63.3C154.669 63.3 155.631 63.6127 156.237 64.238C156.844 64.854 157.147 65.6427 157.147 66.604V71H155.719V66.59C155.719 65.1527 154.931 64.434 153.353 64.434C152.523 64.434 151.869 64.6953 151.393 65.218C150.917 65.7407 150.679 66.4873 150.679 67.458C150.679 68.354 150.88 69.0167 151.281 69.446C151.683 69.8753 152.28 70.09 153.073 70.09C153.428 70.09 153.755 70.0433 154.053 69.95V71.056C153.727 71.1587 153.321 71.21 152.835 71.21ZM158.755 63.51H160.127V64.518C160.491 64.1073 160.915 63.804 161.401 63.608C161.895 63.4027 162.395 63.3 162.899 63.3C163.813 63.3 164.513 63.552 164.999 64.056C165.484 64.56 165.727 65.2087 165.727 66.002V71H164.299V66.072C164.299 65.5493 164.154 65.148 163.865 64.868C163.575 64.5787 163.127 64.434 162.521 64.434C161.503 64.434 160.724 64.8587 160.183 65.708V71H158.755V63.51ZM164.214 73.254C164.214 73.086 164.186 72.9693 164.13 72.904C164.064 72.848 163.943 72.82 163.766 72.82H163.304V71.798H164.452C164.872 71.798 165.156 71.882 165.306 72.05C165.446 72.218 165.516 72.5167 165.516 72.946V74.682H164.214V73.254ZM170.024 71.21C169.109 71.21 168.395 70.9533 167.882 70.44C167.378 69.9267 167.126 69.264 167.126 68.452V63.51H168.554V68.396C168.554 68.956 168.708 69.3807 169.016 69.67C169.333 69.95 169.795 70.09 170.402 70.09C171.363 70.09 172.119 69.6607 172.67 68.802V63.51H174.098V71H172.712V69.992C172.012 70.804 171.116 71.21 170.024 71.21Z" fill="#49474A"/>
<circle cx="139" cy="296" r="13" fill="#BDBDBD"/>
<path d="M140.32 302V290.797H138.641V291.586C138.641 292.023 138.43 292.242 138 292.242H136.477V293.68H138.641V302H140.32Z" fill="#49474A"/>
<circle cx="239" cy="296" r="13" fill="#BDBDBD"/>
<path d="M242.477 302V300.477H236.961L240.883 296.641C241.344 296.195 241.695 295.766 241.945 295.352C242.195 294.938 242.32 294.461 242.32 293.922C242.32 292.938 241.984 292.141 241.32 291.539C240.656 290.938 239.734 290.641 238.562 290.641C237.453 290.641 236.57 290.945 235.906 291.555C235.242 292.164 234.852 292.953 234.719 293.922H236.398C236.578 292.852 237.383 292.156 238.562 292.156C239.898 292.164 240.562 292.75 240.562 293.922C240.562 294.523 240.266 295.109 239.68 295.68L234.719 300.477V302H242.477Z" fill="#49474A"/>
<circle cx="339" cy="296" r="13" fill="#BDBDBD"/>
<path d="M338.562 302.156C339.773 302.156 340.734 301.859 341.43 301.258C342.125 300.664 342.477 299.898 342.477 298.961C342.477 297.703 341.773 296.727 340.641 296.32C341.68 295.914 342.32 295.039 342.32 293.844C342.32 292.867 341.984 292.094 341.305 291.508C340.625 290.93 339.711 290.641 338.562 290.641C337.492 290.641 336.617 290.922 335.922 291.484C335.227 292.055 334.805 292.867 334.641 293.922H336.32C336.391 293.375 336.641 292.945 337.062 292.625C337.484 292.312 337.984 292.156 338.562 292.156C339.883 292.156 340.641 292.852 340.641 293.914C340.641 294.984 339.883 295.68 338.516 295.68H337.68V297.117H338.516C339.211 297.117 339.766 297.281 340.18 297.609C340.594 297.938 340.797 298.359 340.797 298.883C340.797 299.945 339.969 300.641 338.562 300.641C337.953 300.641 337.422 300.477 336.961 300.141C336.5 299.812 336.227 299.391 336.156 298.883H334.477C334.594 299.953 335.023 300.766 335.766 301.32C336.5 301.875 337.43 302.156 338.562 302.156Z" fill="#49474A"/>
<circle cx="439" cy="296" r="13" fill="#BDBDBD"/>
<path d="M441.359 302V299.523H442.797V298H441.359V290.797H439.039L434.32 298V299.523H439.68V302H441.359ZM439.602 292.641H439.68V298H436.078L439.602 292.641Z" fill="#49474A"/>
</svg>
