<svg width="630" height="251" viewBox="0 0 630 251" fill="none" xmlns="http://www.w3.org/2000/svg">
<path d="M317.094 251C487.424 251 625.504 241.873 625.504 230.614C625.504 219.355 487.424 210.228 317.094 210.228C146.764 210.228 8.68457 219.355 8.68457 230.614C8.68457 241.873 146.764 251 317.094 251Z" fill="#F2F2F2"/>
<path d="M305.274 7.43774C255.026 7.43774 218.948 39.6266 218.948 114.734C218.948 199.856 255.025 222.388 305.274 222.388C355.522 222.388 393.749 197.71 393.749 114.734C393.749 26.0357 355.522 7.43774 305.274 7.43774ZM305.604 194.133C270.801 194.133 252.619 173.746 252.619 114.789C252.619 62.7678 271.545 35.3348 306.348 35.3348C341.152 35.3348 360.078 53.3545 360.078 114.789C360.078 172.26 340.407 194.133 305.604 194.133Z" fill="#2F2E41"/>
<path d="M188.859 163.017H168.083V101.931C168.083 98.687 166.793 95.5754 164.495 93.2811C162.197 90.9869 159.081 89.6981 155.831 89.6981H150.963C149.354 89.6981 147.761 90.0145 146.275 90.6293C144.788 91.244 143.437 92.1452 142.3 93.2811C141.162 94.4171 140.26 95.7657 139.644 97.25C139.028 98.7342 138.711 100.325 138.711 101.931V163.017H80.1103C78.9047 163.017 77.7197 162.706 76.67 162.114C75.6204 161.522 74.7418 160.669 74.1196 159.638C73.4973 158.607 73.1525 157.433 73.1186 156.23C73.0846 155.027 73.3627 153.835 73.9259 152.771L135.948 35.5607C136.722 34.0994 137.19 32.4967 137.326 30.8496C137.462 29.2024 137.262 27.5449 136.739 25.9769C136.215 24.409 135.379 22.9633 134.28 21.727C133.182 20.4907 131.844 19.4894 130.347 18.7837L126.686 17.0574C123.843 15.7169 120.593 15.519 117.607 16.5045C114.622 17.4901 112.131 19.5837 110.649 22.3522L35.0043 163.644C33.7161 166.05 33.0422 168.736 33.0422 171.464V171.464C33.0422 173.643 33.472 175.8 34.3069 177.813C35.1418 179.825 36.3656 181.654 37.9083 183.194C39.451 184.735 41.2825 185.956 43.2981 186.79C45.3138 187.624 47.4742 188.053 49.6559 188.053H138.711V226.679C138.711 228.605 139.091 230.512 139.829 232.291C140.567 234.07 141.649 235.687 143.013 237.048C144.376 238.41 145.995 239.49 147.777 240.227C149.559 240.964 151.469 241.343 153.397 241.343H153.397C155.326 241.343 157.236 240.964 159.017 240.227C160.799 239.49 162.418 238.41 163.782 237.048C165.146 235.687 166.228 234.07 166.966 232.291C167.704 230.512 168.083 228.605 168.083 226.679V188.053H188.859C192.184 188.053 195.373 186.734 197.724 184.386C200.075 182.039 201.396 178.855 201.396 175.535V175.535C201.396 172.215 200.075 169.031 197.724 166.683C195.373 164.336 192.184 163.017 188.859 163.017V163.017Z" fill="#57A3B3"/>
<path d="M573.565 163.017H552.79V101.931C552.79 98.687 551.499 95.5754 549.201 93.2811C546.903 90.9869 543.787 89.6981 540.538 89.6981H535.669C534.061 89.6981 532.467 90.0145 530.981 90.6293C529.494 91.244 528.144 92.1452 527.006 93.2811C525.868 94.4171 524.966 95.7657 524.35 97.25C523.734 98.7342 523.417 100.325 523.417 101.931V163.017H464.817C463.611 163.017 462.426 162.706 461.376 162.114C460.327 161.522 459.448 160.669 458.826 159.638C458.204 158.607 457.859 157.433 457.825 156.23C457.791 155.027 458.069 153.835 458.632 152.771L520.655 35.5607C521.428 34.0994 521.897 32.4968 522.032 30.8496C522.168 29.2024 521.968 27.5449 521.445 25.9769C520.921 24.409 520.085 22.9633 518.987 21.727C517.888 20.4907 516.55 19.4894 515.053 18.7837L511.392 17.0574C508.549 15.7169 505.299 15.519 502.314 16.5045C499.329 17.4901 496.837 19.5837 495.355 22.3522L419.711 163.644C418.422 166.05 417.749 168.736 417.749 171.464V171.464C417.749 175.864 419.499 180.083 422.615 183.194C425.73 186.305 429.956 188.053 434.362 188.053H523.417V226.679C523.417 230.569 524.965 234.298 527.719 237.048C530.473 239.798 534.209 241.343 538.104 241.343V241.343C541.999 241.343 545.734 239.798 548.488 237.048C551.242 234.298 552.79 230.569 552.79 226.679V188.053H573.565C576.89 188.053 580.079 186.734 582.43 184.386C584.781 182.039 586.102 178.855 586.102 175.535V175.535C586.102 172.215 584.781 169.031 582.43 166.683C580.079 164.336 576.89 163.017 573.565 163.017Z" fill="#57A3B3"/>
<path d="M194.59 155.864H173.815V94.7787C173.815 93.1721 173.498 91.5814 172.882 90.0971C172.266 88.6129 171.364 87.2643 170.226 86.1283C169.088 84.9923 167.738 84.0912 166.251 83.4764C164.765 82.8616 163.172 82.5452 161.563 82.5452H156.694C153.445 82.5452 150.329 83.8341 148.031 86.1283C145.733 88.4225 144.442 91.5342 144.442 94.7787V155.864H85.8415C84.6359 155.864 83.4509 155.553 82.4012 154.961C81.3516 154.369 80.473 153.516 79.8508 152.485C79.2285 151.454 78.8837 150.28 78.8498 149.077C78.8158 147.874 79.094 146.682 79.6571 145.618L141.68 28.4079C142.453 26.9466 142.922 25.3439 143.057 23.6968C143.193 22.0496 142.993 20.392 142.47 18.8241C141.946 17.2562 141.11 15.8105 140.012 14.5741C138.913 13.3378 137.575 12.3366 136.078 11.6309L132.417 9.90454C129.574 8.56406 126.324 8.36613 123.339 9.35169C120.354 10.3372 117.862 12.4309 116.38 15.1993L40.7355 156.491C39.4474 158.897 38.7734 161.583 38.7734 164.312V164.312C38.7734 168.711 40.5238 172.93 43.6395 176.041C46.7551 179.152 50.9809 180.9 55.3871 180.9H144.442V219.527C144.442 221.452 144.822 223.359 145.56 225.138C146.298 226.917 147.38 228.534 148.744 229.896C150.108 231.257 151.727 232.337 153.508 233.074C155.29 233.811 157.2 234.19 159.129 234.19H159.129C163.024 234.19 166.759 232.646 169.513 229.896C172.267 227.146 173.815 223.416 173.815 219.527V180.9H194.59C196.237 180.9 197.867 180.576 199.388 179.947C200.909 179.318 202.291 178.396 203.455 177.234C204.619 176.071 205.543 174.691 206.173 173.173C206.803 171.654 207.127 170.026 207.127 168.382V168.382C207.127 166.738 206.803 165.11 206.173 163.592C205.543 162.073 204.619 160.693 203.455 159.531C202.291 158.368 200.909 157.446 199.388 156.817C197.867 156.188 196.237 155.864 194.59 155.864V155.864Z" stroke="#3F3D56" stroke-miterlimit="10"/>
<path d="M584.311 155.864H563.536V94.7787C563.536 91.5342 562.245 88.4225 559.947 86.1283C557.649 83.8341 554.533 82.5452 551.284 82.5452H546.415C544.806 82.5452 543.213 82.8616 541.727 83.4764C540.24 84.0912 538.89 84.9923 537.752 86.1283C536.614 87.2643 535.712 88.6129 535.096 90.0971C534.48 91.5814 534.163 93.1721 534.163 94.7787V155.864H475.562C474.357 155.864 473.172 155.553 472.122 154.961C471.073 154.369 470.194 153.516 469.572 152.485C468.949 151.454 468.605 150.28 468.571 149.077C468.537 147.874 468.815 146.682 469.378 145.618L531.401 28.4079C532.174 26.9466 532.643 25.3439 532.778 23.6968C532.914 22.0496 532.714 20.392 532.191 18.8241C531.667 17.2562 530.831 15.8105 529.733 14.5741C528.634 13.3378 527.296 12.3366 525.799 11.6309L522.138 9.90454C519.295 8.56406 516.045 8.36613 513.06 9.35169C510.075 10.3372 507.583 12.4309 506.101 15.1993L430.456 156.491C429.168 158.897 428.494 161.583 428.494 164.312C428.494 168.711 430.245 172.93 433.36 176.041C436.476 179.152 440.702 180.9 445.108 180.9H534.163V219.527C534.163 223.416 535.711 227.146 538.465 229.896C541.219 232.646 544.954 234.19 548.849 234.19V234.19C552.744 234.19 556.48 232.646 559.234 229.896C561.988 227.146 563.536 223.416 563.536 219.527V180.9H584.311C585.958 180.9 587.588 180.576 589.109 179.947C590.63 179.318 592.012 178.396 593.176 177.234C594.34 176.071 595.264 174.691 595.894 173.173C596.524 171.654 596.848 170.026 596.848 168.382V168.382C596.848 165.062 595.527 161.878 593.176 159.531C590.825 157.183 587.636 155.864 584.311 155.864V155.864Z" stroke="#3F3D56" stroke-miterlimit="10"/>
<path d="M316.736 1C266.488 1 230.41 33.1888 230.41 108.296C230.41 193.418 266.488 215.95 316.736 215.95C366.985 215.95 405.212 191.272 405.212 108.296C405.212 19.598 366.985 1 316.736 1ZM317.067 187.695C282.263 187.695 264.081 167.308 264.081 108.351C264.081 56.3301 283.008 28.897 317.811 28.897C352.614 28.897 371.541 46.9167 371.541 108.351C371.541 165.822 351.87 187.695 317.067 187.695V187.695Z" stroke="#3F3D56" stroke-miterlimit="10"/>
<path d="M589.676 154.864C591.447 155.507 593.344 155.73 595.216 155.516C597.088 155.302 598.885 154.657 600.466 153.632C602.046 152.606 603.365 151.228 604.321 149.607C605.277 147.985 605.842 146.164 605.973 144.287C606.103 142.409 605.795 140.528 605.073 138.79C604.351 137.052 603.235 135.505 601.812 134.271C600.389 133.037 598.698 132.151 596.874 131.68C595.049 131.21 593.14 131.17 591.297 131.562L591.601 137.816L588.638 132.456C585.73 133.821 583.483 136.282 582.392 139.3C582.004 140.357 581.768 141.463 581.692 142.586C581.505 145.221 582.183 147.845 583.624 150.061C585.065 152.276 587.189 153.962 589.676 154.864V154.864Z" fill="#57B894"/>
<path d="M604.338 227.393C603.292 222.075 607.825 217.36 612.302 214.296C616.779 211.231 622.01 208.22 623.538 203.019C625.733 195.544 619.194 188.699 614.104 182.796C610.327 178.415 607.085 173.603 604.443 168.46C603.384 166.398 602.411 164.242 602.132 161.942C601.731 158.628 602.797 155.332 603.871 152.171C607.449 141.643 611.274 131.203 615.347 120.852" stroke="#3F3D56" stroke-miterlimit="10"/>
<path d="M590.177 153.253C591.949 153.896 593.845 154.12 595.717 153.906C597.59 153.692 599.387 153.047 600.967 152.022C602.547 150.996 603.867 149.618 604.822 147.996C605.778 146.375 606.344 144.554 606.474 142.676C606.605 140.799 606.297 138.918 605.575 137.18C604.853 135.441 603.736 133.895 602.313 132.661C600.89 131.427 599.2 130.54 597.375 130.07C595.55 129.6 593.641 129.56 591.798 129.952L592.103 136.206L589.139 130.846C586.231 132.211 583.984 134.672 582.893 137.69C582.505 138.747 582.27 139.853 582.193 140.976C582.006 143.611 582.684 146.235 584.125 148.45C585.566 150.666 587.691 152.352 590.177 153.253V153.253Z" stroke="#3F3D56" stroke-miterlimit="10"/>
<path d="M602.851 118.692C603.546 116.777 604.713 115.068 606.243 113.722C607.774 112.375 609.619 111.435 611.609 110.988L612.611 116.933L614.469 110.689C617.048 110.727 619.548 111.583 621.608 113.132C623.668 114.682 625.182 116.845 625.931 119.309C626.68 121.774 626.625 124.412 625.774 126.843C624.923 129.274 623.321 131.373 621.198 132.835C619.075 134.298 616.541 135.049 613.963 134.98C611.384 134.911 608.894 134.026 606.853 132.452C604.811 130.878 603.323 128.697 602.604 126.224C601.885 123.751 601.971 121.113 602.851 118.692H602.851Z" fill="#57B894"/>
<path d="M603.519 116.545C604.214 114.631 605.381 112.921 606.911 111.575C608.442 110.228 610.287 109.288 612.277 108.841L613.279 114.786L615.137 108.542C617.716 108.58 620.216 109.436 622.276 110.985C624.336 112.535 625.85 114.698 626.599 117.162C627.348 119.627 627.293 122.265 626.442 124.696C625.591 127.128 623.989 129.226 621.866 130.689C619.743 132.151 617.209 132.902 614.631 132.833C612.052 132.764 609.562 131.879 607.521 130.305C605.479 128.731 603.991 126.55 603.272 124.077C602.553 121.604 602.639 118.966 603.519 116.545H603.519Z" stroke="#3F3D56" stroke-miterlimit="10"/>
<path d="M611.968 182.917C614.777 183.934 617.862 183.884 620.636 182.776C623.41 181.667 625.679 179.579 627.01 176.908C628.341 174.237 628.641 171.17 627.853 168.292C627.065 165.415 625.244 162.927 622.737 161.304L621.31 166.102L620.297 160.087C620.287 160.082 620.277 160.078 620.267 160.075C618.764 159.53 617.169 159.286 615.572 159.356C613.975 159.427 612.408 159.811 610.96 160.487C609.511 161.162 608.211 162.116 607.132 163.294C606.053 164.472 605.217 165.85 604.672 167.35C604.127 168.851 603.883 170.444 603.955 172.038C604.027 173.633 604.412 175.197 605.09 176.643C605.767 178.088 606.724 179.387 607.904 180.463C609.084 181.54 610.465 182.373 611.968 182.917H611.968Z" fill="#57B894"/>
<path d="M612.547 180.742C615.356 181.76 618.441 181.709 621.215 180.601C623.989 179.493 626.258 177.404 627.589 174.733C628.92 172.062 629.22 168.996 628.432 166.118C627.644 163.24 625.823 160.753 623.316 159.13L621.888 163.928L620.876 157.913C620.866 157.908 620.856 157.904 620.845 157.901C619.343 157.356 617.748 157.111 616.151 157.182C614.554 157.253 612.987 157.637 611.539 158.312C610.09 158.988 608.79 159.942 607.711 161.12C606.632 162.297 605.796 163.676 605.251 165.176C604.706 166.677 604.462 168.269 604.534 169.864C604.606 171.458 604.991 173.023 605.669 174.469C606.346 175.914 607.302 177.212 608.483 178.289C609.663 179.365 611.044 180.199 612.547 180.742H612.547Z" stroke="#3F3D56" stroke-miterlimit="10"/>
<path d="M599.3 203.093C599.783 205.837 601.196 208.332 603.302 210.159C605.409 211.986 608.08 213.034 610.869 213.128C613.657 213.222 616.393 212.355 618.618 210.674C620.843 208.993 622.421 206.599 623.087 203.893C623.754 201.188 623.469 198.336 622.28 195.816C621.091 193.296 619.07 191.261 616.556 190.052C614.042 188.843 611.189 188.533 608.474 189.176C605.759 189.818 603.348 191.373 601.645 193.58L607.066 201.727L599.658 197.403C599.084 199.243 598.961 201.195 599.3 203.093V203.093Z" fill="#57B894"/>
<path d="M599.801 201.483C600.284 204.227 601.697 206.722 603.803 208.549C605.91 210.376 608.581 211.424 611.37 211.518C614.158 211.612 616.894 210.745 619.119 209.064C621.344 207.383 622.922 204.988 623.588 202.283C624.255 199.578 623.97 196.726 622.781 194.206C621.592 191.686 619.571 189.651 617.057 188.441C614.543 187.232 611.69 186.923 608.975 187.565C606.26 188.208 603.849 189.763 602.146 191.969L607.567 200.117L600.159 195.793C599.585 197.633 599.462 199.585 599.801 201.483V201.483Z" stroke="#3F3D56" stroke-miterlimit="10"/>
<path d="M6.26639 184.46C7.43004 184.883 8.67605 185.03 9.90619 184.889C11.1363 184.749 12.317 184.325 13.3551 183.651C14.3932 182.977 15.2604 182.072 15.8884 181.007C16.5163 179.941 16.8878 178.744 16.9736 177.511C17.0593 176.278 16.857 175.042 16.3826 173.9C15.9082 172.758 15.1746 171.741 14.2397 170.931C13.3049 170.12 12.1942 169.538 10.9953 169.229C9.79638 168.92 8.54201 168.893 7.33106 169.151L7.53117 173.26L5.58432 169.739C3.67359 170.635 2.19748 172.252 1.48036 174.235C1.22568 174.929 1.07085 175.656 1.0205 176.394C0.89761 178.125 1.34324 179.849 2.28987 181.305C3.23649 182.76 4.63252 183.868 6.26639 184.46V184.46Z" fill="#57B894"/>
<path d="M15.8994 232.114C15.2122 228.62 18.1901 225.522 21.1317 223.508C24.0732 221.495 27.5102 219.516 28.5139 216.099C29.9563 211.188 25.6597 206.691 22.3156 202.813C19.8346 199.934 17.704 196.773 15.9683 193.394C15.2138 192.066 14.6998 190.616 14.4501 189.111C14.1865 186.934 14.8869 184.768 15.5925 182.691C17.9432 175.774 20.4565 168.915 23.1325 162.114" stroke="#3F3D56" stroke-miterlimit="10"/>
<path d="M6.59574 183.403C7.75939 183.825 9.0054 183.972 10.2355 183.831C11.4657 183.691 12.6463 183.267 13.6845 182.593C14.7226 181.92 15.5898 181.014 16.2177 179.949C16.8456 178.883 17.2171 177.687 17.3029 176.453C17.3887 175.22 17.1864 173.984 16.7119 172.842C16.2375 171.7 15.504 170.684 14.5691 169.873C13.6342 169.062 12.5235 168.48 11.3246 168.171C10.1257 167.862 8.87136 167.835 7.66041 168.093L7.86052 172.202L5.91367 168.681C4.00294 169.577 2.52683 171.194 1.8097 173.177C1.55503 173.871 1.4002 174.598 1.34984 175.336C1.22695 177.067 1.67258 178.791 2.61921 180.247C3.56584 181.703 4.96186 182.81 6.59574 183.403V183.403Z" stroke="#3F3D56" stroke-miterlimit="10"/>
<path d="M14.9223 160.695C15.3789 159.437 16.1454 158.314 17.151 157.429C18.1566 156.545 19.3691 155.927 20.6766 155.633L21.3348 159.539L22.5552 155.437C24.2497 155.462 25.8923 156.024 27.246 157.042C28.5996 158.06 29.5942 159.481 30.0862 161.1C30.5782 162.72 30.5421 164.453 29.9831 166.05C29.4241 167.648 28.3712 169.026 26.9763 169.987C25.5815 170.948 23.9168 171.442 22.2228 171.396C20.5288 171.351 18.8929 170.769 17.5516 169.735C16.2102 168.701 15.2326 167.268 14.76 165.643C14.2874 164.019 14.3442 162.286 14.9223 160.695V160.695Z" fill="#57B894"/>
<path d="M15.3612 159.285C15.8179 158.027 16.5843 156.903 17.59 156.019C18.5956 155.134 19.808 154.517 21.1155 154.223L21.7738 158.129L22.9942 154.026C24.6887 154.051 26.3313 154.614 27.6849 155.632C29.0386 156.65 30.0332 158.071 30.5252 159.69C31.0172 161.309 30.9811 163.043 30.4221 164.64C29.8631 166.237 28.8102 167.616 27.4153 168.577C26.0204 169.538 24.3558 170.031 22.6617 169.986C20.9677 169.941 19.3319 169.359 17.9905 168.325C16.6491 167.291 15.6716 165.858 15.199 164.233C14.7264 162.608 14.7832 160.875 15.3612 159.285V159.285Z" stroke="#3F3D56" stroke-miterlimit="10"/>
<path d="M20.9121 202.892C22.7576 203.56 24.7848 203.527 26.6074 202.799C28.4301 202.071 29.9206 200.699 30.7951 198.944C31.6695 197.189 31.8666 195.174 31.3488 193.283C30.831 191.392 29.6346 189.758 27.9875 188.692L27.0498 191.844L26.3848 187.892C26.3782 187.889 26.3714 187.886 26.3645 187.884C25.3773 187.526 24.3292 187.365 23.2799 187.412C22.2305 187.458 21.2006 187.71 20.249 188.154C19.2974 188.598 18.4427 189.225 17.7337 189.998C17.0248 190.772 16.4756 191.678 16.1174 192.664C15.7592 193.65 15.5991 194.696 15.6462 195.744C15.6934 196.792 15.9468 197.82 16.3921 198.77C16.8374 199.72 17.4658 200.573 18.2413 201.28C19.0169 201.987 19.9245 202.535 20.9121 202.892V202.892Z" fill="#57B894"/>
<path d="M21.2928 201.463C23.1382 202.131 25.1654 202.098 26.9881 201.37C28.8107 200.642 30.3013 199.27 31.1757 197.515C32.0501 195.76 32.2472 193.745 31.7294 191.855C31.2117 189.964 30.0152 188.33 28.3681 187.263L27.4304 190.416L26.7654 186.463C26.7589 186.46 26.7521 186.458 26.7451 186.456C25.7582 186.098 24.7105 185.938 23.6617 185.985C22.6129 186.032 21.5836 186.285 20.6327 186.729C18.7121 187.625 17.2269 189.247 16.5039 191.237C15.7808 193.227 15.8792 195.423 16.7773 197.34C17.6754 199.258 19.2996 200.741 21.2928 201.463V201.463Z" stroke="#3F3D56" stroke-miterlimit="10"/>
<path d="M12.5894 216.148C12.9067 217.951 13.8351 219.59 15.2191 220.79C16.603 221.991 18.3582 222.679 20.1903 222.741C22.0225 222.803 23.8201 222.233 25.2818 221.129C26.7434 220.024 27.7802 218.451 28.2183 216.674C28.6563 214.896 28.469 213.023 27.6877 211.367C26.9064 209.711 25.5786 208.374 23.9271 207.579C22.2755 206.785 20.4007 206.582 18.6169 207.004C16.8331 207.426 15.2489 208.447 14.13 209.897L17.6919 215.25L12.8249 212.409C12.4476 213.619 12.3668 214.901 12.5894 216.148V216.148Z" fill="#57B894"/>
<path d="M12.9185 215.091C13.2358 216.893 14.1642 218.532 15.5482 219.733C16.9321 220.933 18.6873 221.622 20.5194 221.683C22.3516 221.745 24.1492 221.176 25.6109 220.071C27.0725 218.966 28.1093 217.393 28.5474 215.616C28.9854 213.839 28.7981 211.965 28.0168 210.309C27.2355 208.653 25.9077 207.316 24.2562 206.522C22.6046 205.727 20.7298 205.524 18.946 205.946C17.1622 206.368 15.578 207.39 14.4591 208.84L18.021 214.193L13.154 211.351C12.7767 212.561 12.6959 213.843 12.9185 215.091V215.091Z" stroke="#3F3D56" stroke-miterlimit="10"/>
</svg>
