<svg width="144" height="144" viewBox="0 0 144 144" fill="none" xmlns="http://www.w3.org/2000/svg">
<g clip-path="url(#clip0)">
<path d="M142.621 128.859C140.839 132.57 137.555 135.33 134.112 137.574C130.349 140.025 126.295 141.993 122.044 143.433C121.461 143.634 120.873 143.821 120.282 144H96.3753C96.2085 143.818 96.0501 143.628 95.9002 143.433C94.299 141.376 93.4334 138.74 93.7474 136.159C94.1519 132.842 96.6639 129.795 99.917 129.092C103.173 128.385 106.884 130.334 107.874 133.526C108.418 127.375 109.046 120.969 112.304 115.732C115.258 110.992 120.369 107.599 125.908 106.992C129.166 106.651 132.453 107.255 135.379 108.731C135.648 108.867 135.914 109.009 136.174 109.156C137.93 110.155 139.48 111.481 140.74 113.063C144.194 117.449 145.04 123.823 142.621 128.859Z" fill="#F2F2F2"/>
<path d="M135.999 109.545C124.882 118.625 116.097 130.246 110.381 143.433C110.299 143.62 110.217 143.81 110.138 144H109.012C109.091 143.81 109.17 143.62 109.252 143.433C110.341 140.879 111.544 138.371 112.865 135.929C115.676 130.735 118.983 125.826 122.74 121.273C126.495 116.714 130.688 112.538 135.26 108.804C135.297 108.775 135.337 108.75 135.379 108.731C135.459 108.696 135.545 108.68 135.631 108.683C135.718 108.687 135.803 108.71 135.879 108.751C135.956 108.792 136.022 108.849 136.073 108.92C136.124 108.99 136.159 109.071 136.174 109.156C136.182 109.231 136.17 109.306 136.139 109.375C136.109 109.443 136.06 109.502 135.999 109.545V109.545Z" fill="white"/>
<path d="M47.3015 83.2899C47.5808 83.0129 47.7961 82.6779 47.9323 82.3084C48.0685 81.939 48.1223 81.544 48.0898 81.1515C48.0574 80.7589 47.9395 80.3783 47.7445 80.0364C47.5495 79.6944 47.2821 79.3996 46.9611 79.1725L45.6044 70.2022L40.0312 71.9613L43.0844 79.9643C42.7398 80.5303 42.6141 81.2034 42.7313 81.8561C42.8484 82.5088 43.2003 83.0957 43.7201 83.5056C44.2399 83.9155 44.8916 84.12 45.5517 84.0802C46.2118 84.0405 46.8344 83.7592 47.3015 83.2899H47.3015Z" fill="#FFB8B8"/>
<path d="M41.5605 79.0697L38.1227 62.968C37.7877 61.4256 37.8533 59.8228 38.313 58.3131C38.7727 56.8033 39.6112 55.4373 40.7482 54.3457C45.1487 50.0929 50.8044 44.7325 52.758 43.346C54.5915 42.0352 56.8102 41.3785 59.0596 41.4805L59.1067 41.4857L62.064 44.2885L55.6219 54.924L45.8422 61.0692L46.9305 76.851L41.5605 79.0697Z" fill="white"/>
<path d="M53.6005 57.1886H39.1735C38.5486 57.1886 38.042 57.6966 38.042 58.3234C38.042 58.9501 38.5486 59.4582 39.1735 59.4582H53.6005C54.2254 59.4582 54.732 58.9501 54.732 58.3234C54.732 57.6966 54.2254 57.1886 53.6005 57.1886Z" fill="#CCCCCC"/>
<path d="M53.6005 81.8702H39.1735C38.5486 81.8702 38.042 82.3783 38.042 83.005C38.042 83.6318 38.5486 84.1398 39.1735 84.1398H53.6005C54.2254 84.1398 54.732 83.6318 54.732 83.005C54.732 82.3783 54.2254 81.8702 53.6005 81.8702Z" fill="#CCCCCC"/>
<path d="M46.5291 143.716C46.3877 143.716 46.2515 143.663 46.1472 143.567C46.0429 143.472 45.9781 143.34 45.9656 143.199L38.7532 58.3735C38.7399 58.2236 38.7866 58.0746 38.8829 57.9592C38.9792 57.8438 39.1173 57.7715 39.2668 57.7582C39.4162 57.7449 39.5648 57.7917 39.6799 57.8883C39.795 57.9849 39.867 58.1233 39.8803 58.2732L46.521 136.645L52.9729 58.2746C52.9793 58.2004 53.0002 58.1281 53.0344 58.062C53.0687 57.9958 53.1155 57.9371 53.1724 57.8892C53.2293 57.8412 53.295 57.8049 53.3658 57.7824C53.4367 57.7599 53.5112 57.7516 53.5852 57.7581C53.6593 57.7645 53.7313 57.7854 53.7973 57.8197C53.8632 57.8541 53.9218 57.9011 53.9696 57.9581C54.0174 58.0151 54.0536 58.081 54.076 58.1521C54.0984 58.2231 54.1067 58.2979 54.1003 58.3721L47.0928 143.198C47.0807 143.339 47.0161 143.471 46.9119 143.567C46.8077 143.663 46.6713 143.716 46.5298 143.716H46.5291Z" fill="#CCCCCC"/>
<path d="M62.7194 38.0852C66.8187 38.0852 70.1418 34.7524 70.1418 30.6413C70.1418 26.5301 66.8187 23.1974 62.7194 23.1974C58.62 23.1974 55.2969 26.5301 55.2969 30.6413C55.2969 34.7524 58.62 38.0852 62.7194 38.0852Z" fill="#FFB8B8"/>
<path d="M40.5982 140.314L37.0684 139.186L39.728 124.994L44.9381 126.659L40.5982 140.314Z" fill="#FFB8B8"/>
<path d="M40.4018 143.454L29.0381 139.822L29.1319 139.526C29.4934 138.393 30.288 137.451 31.3413 136.905C32.3947 136.359 33.6209 136.255 34.751 136.615L41.8539 138.885L40.4018 143.454Z" fill="#2F2E41"/>
<path d="M66.2806 140.241H62.5757L60.8125 125.909H66.2806V140.241Z" fill="#FFB8B8"/>
<path d="M55.5723 143.549H66.9336V139.321H59.7615C58.6508 139.322 57.586 139.765 56.8007 140.553C56.0153 141.341 55.5735 142.409 55.5723 143.522V143.549Z" fill="#2F2E41"/>
<path d="M66.1728 135.59L64.9224 135.403C61.1298 134.836 60.9027 134.802 60.3006 134.537C59.9931 134.401 59.9715 132.354 60.1561 120.847C60.2915 112.4 60.4602 101.888 60.1328 96.2439C60.1193 96.0212 60.0314 95.8096 59.8833 95.6431C59.7352 95.4767 59.5355 95.3651 59.3164 95.3264C59.0973 95.2877 58.8716 95.3242 58.6757 95.4299C58.4798 95.5355 58.3251 95.7043 58.2366 95.909C55.4147 102.445 50.6802 117.07 47.5473 126.748C46.4575 130.115 45.5968 132.774 45.0522 134.367C44.9471 134.669 44.7336 134.92 44.4536 135.072C44.1735 135.224 43.847 135.266 43.5378 135.19C40.9596 134.543 41.132 134.268 37.4599 133.316C37.1422 133.235 36.8682 133.033 36.6952 132.754C36.5221 132.475 36.4635 132.139 36.5316 131.817C37.1958 128.676 49.3502 77.7449 50.2806 72.9033C50.3121 72.7376 50.376 72.5797 50.4686 72.4389C50.5613 72.2981 50.6808 72.1771 50.8203 72.0829C50.9599 71.9887 51.1166 71.9231 51.2816 71.89C51.4465 71.8569 51.6164 71.8569 51.7813 71.89C54.5179 72.443 56.1827 73.0296 58.887 73.5969C61.8051 74.209 64.8225 74.8421 67.7657 75.4329C68.0586 75.492 68.3212 75.6534 68.5066 75.8883C69.2349 76.8108 70.3147 77.3286 71.4581 77.8767C72.2289 78.2463 70.4822 78.213 71.1535 78.746C73.872 80.9042 69.9627 124.73 67.6006 134.628C67.5248 134.938 67.3365 135.208 67.0724 135.386C66.8083 135.564 66.4875 135.637 66.1728 135.59V135.59Z" fill="#2F2E41"/>
<path d="M65.8832 37.1549C65.4499 35.3108 67.6405 31.3429 67.2072 29.4989C66.9137 28.25 63.9856 29.099 63.3022 28.0143C62.6189 26.9296 61.4743 26.0508 60.195 26.0364C58.7246 26.0199 57.2777 27.1138 55.8848 26.641C54.4764 26.163 54.0263 24.2287 54.6489 22.8747C55.2716 21.5206 56.6129 20.6577 57.9381 19.9816C60.1948 18.8302 62.8224 17.9894 65.2378 18.7512C66.6978 19.2117 67.9186 20.2095 69.1 21.1854C70.1769 22.075 71.2719 22.9847 72.0248 24.1628C73.4995 26.4706 73.4106 29.5801 72.1502 32.0124C70.8899 34.4447 68.5935 36.2296 66.063 37.2657" fill="#2F2E41"/>
<path d="M47.657 80.0688C48.4581 78.7266 49.6744 72.4381 51.1743 61.8828C52.1955 54.6772 53.0852 47.3558 53.5267 43.6159C53.5609 43.3132 53.6713 43.0243 53.8474 42.7761C54.0235 42.5279 54.2597 42.3286 54.5336 42.197C54.8201 42.0584 55.1048 41.9271 55.3879 41.8033C59.0436 40.2086 62.7484 39.6803 66.3988 40.2327C70.0438 40.7942 73.4627 42.3565 76.2767 44.7467L76.31 44.7781L76.3185 44.823C76.3344 44.9061 77.8675 53.1915 74.7273 58.7893C71.6303 64.3125 71.5941 78.9393 71.5941 79.0864V79.2744L71.4138 79.2229C66.5958 77.8422 47.9841 80.2576 47.7966 80.2823L47.5068 80.3202L47.657 80.0688Z" fill="white"/>
<path d="M75.665 60.8766H61.238C60.613 60.8766 60.1064 61.3847 60.1064 62.0114C60.1064 62.6382 60.613 63.1462 61.238 63.1462H75.665C76.2899 63.1462 76.7965 62.6382 76.7965 62.0114C76.7965 61.3847 76.2899 60.8766 75.665 60.8766Z" fill="#CCCCCC"/>
<path d="M75.665 85.5583H61.238C60.613 85.5583 60.1064 86.0664 60.1064 86.6931C60.1064 87.3198 60.613 87.8279 61.238 87.8279H75.665C76.2899 87.8279 76.7965 87.3198 76.7965 86.6931C76.7965 86.0664 76.2899 85.5583 75.665 85.5583Z" fill="#CCCCCC"/>
<path d="M68.5926 144C68.4512 144 68.3149 143.947 68.2106 143.851C68.1063 143.755 68.0416 143.624 68.0291 143.483L60.8167 62.0616C60.8101 61.9873 60.8182 61.9126 60.8404 61.8415C60.8627 61.7704 60.8987 61.7044 60.9464 61.6472C60.9941 61.5901 61.0525 61.5429 61.1184 61.5085C61.1842 61.474 61.2562 61.4528 61.3302 61.4462C61.4042 61.4397 61.4788 61.4478 61.5497 61.4701C61.6206 61.4924 61.6864 61.5285 61.7434 61.5763C61.8003 61.6241 61.8474 61.6828 61.8817 61.7488C61.9161 61.8149 61.9372 61.8871 61.9438 61.9613L68.5845 136.929L75.0364 61.9627C75.0493 61.8127 75.1211 61.6741 75.2359 61.5772C75.3507 61.4803 75.4992 61.4332 75.6487 61.4461C75.7982 61.459 75.9365 61.531 76.0331 61.6462C76.1297 61.7613 76.1767 61.9102 76.1638 62.0602L69.1563 143.481C69.1441 143.623 69.0796 143.754 68.9753 143.85C68.8711 143.946 68.7348 144 68.5933 144H68.5926Z" fill="#CCCCCC"/>
<path d="M63.9348 85.9178C63.8504 85.5331 63.8512 85.1345 63.937 84.7501C64.0229 84.3657 64.1917 84.0049 64.4316 83.693C64.6716 83.3812 64.9768 83.1259 65.3257 82.9451C65.6747 82.7643 66.0589 82.6625 66.4514 82.6468L72.4506 75.8556L76.1761 80.3694L69.2769 85.424C69.2595 86.087 69.0003 86.7205 68.5483 87.2046C68.0963 87.6887 67.483 87.9897 66.8245 88.0505C66.166 88.1114 65.5081 87.9279 64.9756 87.5348C64.443 87.1417 64.0727 86.5664 63.9348 85.9177V85.9178Z" fill="#FFB8B8"/>
<path d="M67.4277 81.191L76.8921 68.5354L72.0117 58.0472L72.3661 45.6083L76.3672 44.8669L76.4096 44.8883C78.3533 46.0284 79.86 47.7888 80.6891 49.8883C81.5779 52.1169 83.4214 59.6989 84.8114 65.667C85.1744 67.203 85.1382 68.8068 84.7062 70.3247C84.2741 71.8426 83.4607 73.2238 82.3438 74.3361L70.7336 85.9799L67.4277 81.191Z" fill="white"/>
<path d="M27.7538 140.481L40.7021 143.607C40.9533 143.674 41.2199 143.65 41.4553 143.54C41.6908 143.43 41.8802 143.24 41.9906 143.004L53.1134 113.346C53.1625 113.232 53.1879 113.109 53.1881 112.985C53.1883 112.861 53.1632 112.738 53.1144 112.624C53.0583 112.495 52.9769 112.38 52.875 112.284C52.7731 112.189 52.653 112.115 52.5218 112.067L42.7866 108.339C42.6327 108.28 42.4681 108.254 42.3037 108.263C42.1392 108.272 41.9784 108.316 41.832 108.392C41.7047 108.455 41.5924 108.544 41.5026 108.655C41.4128 108.765 41.3476 108.893 41.3114 109.031L41.3111 109.032L34.4399 135.171L34.3378 135.178C34.2983 135.18 30.3593 135.449 28.5879 137.582C28.2573 137.981 28.0126 138.445 27.869 138.944C27.7255 139.443 27.6863 139.966 27.7538 140.481V140.481Z" fill="#CCCCCC"/>
<path d="M140.309 143.716C140.31 143.754 140.302 143.791 140.288 143.825C140.274 143.86 140.253 143.891 140.227 143.917C140.201 143.944 140.169 143.964 140.135 143.979C140.101 143.993 140.064 144 140.027 144H0.282882C0.207857 144 0.135909 143.97 0.0828583 143.917C0.0298077 143.864 0 143.792 0 143.716C0 143.641 0.0298077 143.569 0.0828583 143.516C0.135909 143.463 0.207857 143.433 0.282882 143.433H140.027C140.064 143.432 140.101 143.44 140.135 143.454C140.169 143.468 140.201 143.489 140.227 143.515C140.253 143.542 140.274 143.573 140.288 143.608C140.302 143.642 140.31 143.679 140.309 143.716V143.716Z" fill="#3F3D56"/>
<path d="M37.1309 123.855L37.0713 124.419L48.8764 125.673L48.936 125.109L37.1309 123.855Z" fill="#B3B3B3"/>
<path d="M36.1013 128.529L35.8691 129.047L45.3691 133.334L45.6013 132.816L36.1013 128.529Z" fill="#B3B3B3"/>
<path d="M50.1788 121.135L38.9814 117.415L39.2137 116.898L50.411 120.617L50.1788 121.135Z" fill="#B3B3B3"/>
<path d="M51.3106 118.581L40.1133 113.16L40.3455 112.642L51.5429 118.064L51.3106 118.581Z" fill="#B3B3B3"/>
<path d="M35.1145 132.972L34.7471 133.403L42.8203 140.32L43.1877 139.888L35.1145 132.972Z" fill="#B3B3B3"/>
<path d="M32.8219 135.265L32.3066 135.499L35.5482 142.668L36.0635 142.434L32.8219 135.265Z" fill="#B3B3B3"/>
<path d="M108.723 135.604V6.2933C108.723 4.54715 108.756 2.79726 108.723 1.05132C108.721 0.974982 108.723 0.898492 108.723 0.822137C108.723 -0.273139 107.025 -0.274952 107.025 0.822137V130.133C107.025 131.879 106.992 133.629 107.025 135.375C107.027 135.451 107.025 135.527 107.025 135.604C107.025 136.699 108.723 136.701 108.723 135.604V135.604Z" fill="#F2F2F2"/>
<path d="M118.11 36.9634H97.7421C97.2546 36.9628 96.7872 36.7683 96.4425 36.4226C96.0978 36.0769 95.9039 35.6082 95.9033 35.1193V10.2958C95.9039 9.80692 96.0978 9.33821 96.4425 8.99251C96.7872 8.64681 97.2546 8.45235 97.7421 8.45178H118.11C118.597 8.45235 119.064 8.64681 119.409 8.99251C119.754 9.33821 119.948 9.80692 119.948 10.2958V35.1193C119.948 35.6082 119.754 36.0769 119.409 36.4226C119.064 36.7683 118.597 36.9628 118.11 36.9634V36.9634Z" fill="#F2F2F2"/>
</g>
<defs>
<clipPath id="clip0">
<rect width="144" height="144" fill="white"/>
</clipPath>
</defs>
</svg>
