<svg width="178" height="170" viewBox="0 0 178 170" fill="none" xmlns="http://www.w3.org/2000/svg">
<path d="M170.405 147.44C168.339 151.744 164.53 154.945 160.537 157.548C156.173 160.39 151.471 162.672 146.541 164.342C145.865 164.576 145.183 164.793 144.497 165H116.772C116.578 164.789 116.394 164.569 116.221 164.342C114.364 161.957 113.36 158.9 113.724 155.906C114.193 152.06 117.106 148.526 120.879 147.71C124.655 146.891 128.96 149.151 130.108 152.853C130.738 145.719 131.466 138.29 135.246 132.216C138.671 126.718 144.599 122.783 151.023 122.079C154.801 121.685 158.613 122.385 162.007 124.096C162.318 124.254 162.627 124.419 162.929 124.59C164.965 125.748 166.763 127.286 168.224 129.12C172.23 134.207 173.211 141.6 170.405 147.44Z" fill="#F2F2F2"/>
<path d="M162.726 125.04C149.833 135.571 139.644 149.048 133.015 164.342C132.92 164.559 132.825 164.78 132.733 165H131.427C131.519 164.78 131.611 164.559 131.706 164.342C132.969 161.381 134.364 158.472 135.896 155.639C139.156 149.615 142.992 143.923 147.349 138.642C151.703 133.355 156.567 128.511 161.869 124.182C161.911 124.147 161.958 124.119 162.007 124.096C162.099 124.056 162.199 124.037 162.3 124.041C162.4 124.045 162.498 124.072 162.587 124.119C162.676 124.167 162.752 124.234 162.812 124.315C162.871 124.397 162.911 124.491 162.929 124.59C162.938 124.676 162.925 124.764 162.889 124.843C162.853 124.922 162.797 124.99 162.726 125.04V125.04Z" fill="white"/>
<path d="M60.3232 93.1503C60.6537 92.8225 60.9086 92.426 61.0698 91.9888C61.231 91.5515 61.2946 91.0842 61.2562 90.6196C61.2178 90.155 61.0783 89.7045 60.8475 89.2999C60.6167 88.8952 60.3002 88.5462 59.9204 88.2775L58.3147 77.6613L51.719 79.7431L55.3323 89.2145C54.9245 89.8844 54.7758 90.681 54.9144 91.4534C55.0531 92.2259 55.4695 92.9205 56.0847 93.4056C56.6999 93.8908 57.4711 94.1327 58.2523 94.0857C59.0335 94.0386 59.7704 93.7058 60.3233 93.1503H60.3232Z" fill="#FFB8B8"/>
<path d="M53.5283 88.1559L49.4596 69.0997C49.0633 67.2743 49.1408 65.3774 49.6849 63.5907C50.229 61.804 51.2213 60.1873 52.5669 58.8954C57.7748 53.8623 64.4682 47.5184 66.7803 45.8774C68.9503 44.3262 71.576 43.5489 74.2381 43.6697L74.2939 43.6759L77.7938 46.9929L70.1697 59.5798L58.5956 66.8526L59.8836 85.53L53.5283 88.1559Z" fill="white"/>
<path d="M67.7775 62.2599H50.7034C49.9638 62.2599 49.3643 62.8612 49.3643 63.6029C49.3643 64.3446 49.9638 64.9459 50.7034 64.9459H67.7775C68.5171 64.9459 69.1167 64.3446 69.1167 63.6029C69.1167 62.8612 68.5171 62.2599 67.7775 62.2599Z" fill="#CCCCCC"/>
<path d="M67.7775 91.4703H50.7034C49.9638 91.4703 49.3643 92.0716 49.3643 92.8133C49.3643 93.5551 49.9638 94.1563 50.7034 94.1563H67.7775C68.5171 94.1563 69.1167 93.5551 69.1167 92.8133C69.1167 92.0716 68.5171 91.4703 67.7775 91.4703Z" fill="#CCCCCC"/>
<path d="M59.4084 164.664C59.2411 164.664 59.0798 164.601 58.9564 164.488C58.833 164.375 58.7563 164.219 58.7415 164.052L50.2057 63.6624C50.1901 63.485 50.2453 63.3086 50.3593 63.172C50.4732 63.0355 50.6366 62.9499 50.8135 62.9342C50.9904 62.9184 51.1663 62.9738 51.3025 63.0881C51.4387 63.2024 51.524 63.3663 51.5397 63.5437L59.3988 156.296L67.0346 63.5453C67.0421 63.4575 67.0669 63.372 67.1074 63.2937C67.1479 63.2154 67.2034 63.1459 67.2707 63.0892C67.338 63.0324 67.4157 62.9895 67.4996 62.9628C67.5834 62.9362 67.6716 62.9264 67.7593 62.934C67.8469 62.9416 67.9321 62.9664 68.0102 63.007C68.0882 63.0476 68.1575 63.1033 68.2141 63.1708C68.2707 63.2383 68.3135 63.3163 68.3401 63.4003C68.3666 63.4844 68.3764 63.5729 68.3688 63.6608L60.0756 164.05C60.0612 164.218 59.9848 164.374 59.8614 164.487C59.7381 164.601 59.5768 164.664 59.4093 164.664H59.4084Z" fill="#CCCCCC"/>
<path d="M78.5693 39.6514C83.4208 39.6514 87.3537 35.7072 87.3537 30.8417C87.3537 25.9762 83.4208 22.032 78.5693 22.032C73.7178 22.032 69.7849 25.9762 69.7849 30.8417C69.7849 35.7072 73.7178 39.6514 78.5693 39.6514Z" fill="#FFB8B8"/>
<path d="M52.3894 160.638L48.2119 159.303L51.3596 142.507L57.5257 144.477L52.3894 160.638Z" fill="#FFB8B8"/>
<path d="M52.157 164.354L38.7083 160.055L38.8193 159.705C39.2471 158.364 40.1875 157.249 41.4341 156.603C42.6808 155.957 44.132 155.834 45.4694 156.259L53.8756 158.946L52.157 164.354Z" fill="#2F2E41"/>
<path d="M82.7847 160.551H78.4L76.3132 143.589H82.7847V160.551Z" fill="#FFB8B8"/>
<path d="M70.1108 164.466H83.5568V159.463H75.0687C73.7543 159.464 72.4941 159.988 71.5646 160.92C70.6352 161.853 70.1123 163.116 70.1108 164.435V164.466Z" fill="#2F2E41"/>
<path d="M82.6564 155.047L81.1765 154.825C76.688 154.155 76.4193 154.114 75.7067 153.801C75.3428 153.64 75.3172 151.218 75.5357 137.599C75.696 127.602 75.8956 115.16 75.5081 108.481C75.4921 108.218 75.3881 107.967 75.2128 107.77C75.0375 107.573 74.8012 107.441 74.5419 107.396C74.2827 107.35 74.0156 107.393 73.7837 107.518C73.5519 107.643 73.3688 107.843 73.264 108.085C69.9243 115.82 64.3211 133.129 60.6134 144.583C59.3237 148.567 58.305 151.714 57.6605 153.6C57.5361 153.957 57.2834 154.254 56.952 154.434C56.6206 154.614 56.2341 154.663 55.8682 154.573C52.817 153.808 53.021 153.483 48.6751 152.355C48.2992 152.259 47.9748 152.021 47.77 151.69C47.5652 151.36 47.4959 150.963 47.5765 150.582C48.3625 146.865 62.7471 86.588 63.8482 80.8581C63.8854 80.662 63.9611 80.4752 64.0707 80.3086C64.1804 80.1419 64.3218 79.9987 64.487 79.8872C64.6521 79.7757 64.8376 79.6981 65.0329 79.6589C65.2281 79.6197 65.4291 79.6197 65.6243 79.6589C68.863 80.3133 70.8333 81.0076 74.0338 81.679C77.4872 82.4034 81.0583 83.1526 84.5415 83.8518C84.8882 83.9218 85.1989 84.1128 85.4184 84.3909C86.2803 85.4826 87.5583 86.0954 88.9114 86.7441C89.8237 87.1815 87.7565 87.1421 88.551 87.7728C91.7682 90.327 87.1417 142.194 84.3462 153.908C84.2565 154.275 84.0335 154.595 83.721 154.806C83.4085 155.016 83.0288 155.102 82.6564 155.047V155.047Z" fill="#2F2E41"/>
<path d="M82.3139 38.5504C81.801 36.3679 84.3936 31.672 83.8808 29.4895C83.5335 28.0116 80.068 29.0163 79.2593 27.7326C78.4506 26.4488 77.096 25.4088 75.582 25.3918C73.8418 25.3722 72.1294 26.6668 70.4809 26.1073C68.8141 25.5416 68.2814 23.2524 69.0183 21.6499C69.7552 20.0473 71.3426 19.0262 72.911 18.226C75.5818 16.8633 78.6915 15.8683 81.55 16.7698C83.278 17.3148 84.7228 18.4957 86.1209 19.6507C87.3954 20.7035 88.6914 21.7802 89.5823 23.1744C91.3277 25.9057 91.2224 29.5857 89.7308 32.4643C88.2393 35.3429 85.5214 37.4553 82.5267 38.6815" fill="#2F2E41"/>
<path d="M60.7436 89.3383C61.6917 87.7499 63.1312 80.3075 64.9063 67.8155C66.1148 59.2877 67.1678 50.623 67.6903 46.1969C67.7308 45.8387 67.8615 45.4966 68.0699 45.2029C68.2783 44.9092 68.5578 44.6734 68.882 44.5176C69.221 44.3535 69.558 44.1982 69.893 44.0517C74.2195 42.1644 78.6041 41.5391 82.9243 42.1929C87.238 42.8574 91.2842 44.7064 94.6147 47.5351L94.654 47.5723L94.6641 47.6255C94.6829 47.7238 96.4973 57.5295 92.7809 64.1543C89.1156 70.691 89.0729 88.0015 89.0729 88.1756V88.3981L88.8594 88.3371C83.1574 86.7031 61.1308 89.5618 60.9089 89.5909L60.5659 89.6359L60.7436 89.3383Z" fill="white"/>
<path d="M93.8905 66.6248H76.8164C76.0769 66.6248 75.4773 67.226 75.4773 67.9678C75.4773 68.7095 76.0769 69.3108 76.8164 69.3108H93.8905C94.6301 69.3108 95.2297 68.7095 95.2297 67.9678C95.2297 67.226 94.6301 66.6248 93.8905 66.6248Z" fill="#CCCCCC"/>
<path d="M93.8905 95.835H76.8164C76.0769 95.835 75.4773 96.4362 75.4773 97.178C75.4773 97.9197 76.0769 98.521 76.8164 98.521H93.8905C94.6301 98.521 95.2297 97.9197 95.2297 97.178C95.2297 96.4362 94.6301 95.835 93.8905 95.835Z" fill="#CCCCCC"/>
<path d="M85.521 165C85.3537 165 85.1924 164.937 85.0689 164.824C84.9455 164.71 84.8688 164.555 84.854 164.388L76.3183 68.027C76.3105 67.9392 76.3201 67.8507 76.3464 67.7665C76.3727 67.6824 76.4154 67.6043 76.4718 67.5367C76.5282 67.469 76.5974 67.4132 76.6753 67.3724C76.7533 67.3316 76.8385 67.3066 76.9261 67.2988C77.0137 67.291 77.1019 67.3006 77.1858 67.327C77.2697 67.3534 77.3476 67.3961 77.415 67.4527C77.4824 67.5093 77.5381 67.5787 77.5788 67.6569C77.6195 67.7351 77.6444 67.8205 77.6522 67.9083L85.5114 156.631L93.1471 67.91C93.1624 67.7325 93.2473 67.5684 93.3832 67.4538C93.5191 67.3391 93.6949 67.2833 93.8718 67.2986C94.0487 67.3139 94.2123 67.3991 94.3267 67.5354C94.441 67.6717 94.4966 67.8479 94.4814 68.0254L86.1881 164.386C86.1737 164.553 86.0973 164.709 85.974 164.823C85.8506 164.937 85.6893 165 85.5218 165H85.521Z" fill="#CCCCCC"/>
<path d="M80.0083 96.2606C79.9085 95.8053 79.9094 95.3336 80.0109 94.8787C80.1125 94.4238 80.3124 93.9967 80.5963 93.6277C80.8803 93.2586 81.2415 92.9564 81.6545 92.7425C82.0675 92.5285 82.5222 92.408 82.9867 92.3894L90.0867 84.3522L94.4957 89.6942L86.3306 95.6763C86.3101 96.4609 86.0033 97.2107 85.4684 97.7836C84.9334 98.3565 84.2076 98.7127 83.4282 98.7847C82.6489 98.8567 81.8704 98.6395 81.24 98.1743C80.6097 97.7091 80.1715 97.0282 80.0083 96.2606V96.2606Z" fill="#FFB8B8"/>
<path d="M84.1423 90.6665L95.3433 75.6888L89.5674 63.2762L89.9868 48.5549L94.7221 47.6775L94.7723 47.7027C97.0726 49.052 98.8557 51.1354 99.8369 53.6202C100.889 56.2577 103.071 65.2308 104.716 72.2941C105.145 74.1119 105.102 76.0099 104.591 77.8063C104.08 79.6027 103.117 81.2374 101.795 82.5538L88.0548 96.3341L84.1423 90.6665Z" fill="white"/>
<path d="M37.1884 160.835L52.5125 164.535C52.8098 164.614 53.1253 164.586 53.4039 164.455C53.6826 164.325 53.9068 164.101 54.0374 163.821L67.2011 128.721C67.2592 128.586 67.2893 128.441 67.2895 128.294C67.2897 128.147 67.26 128.001 67.2023 127.866C67.1359 127.715 67.0395 127.578 66.919 127.465C66.7984 127.352 66.6562 127.264 66.501 127.208L54.9795 122.795C54.7974 122.725 54.6026 122.695 54.4079 122.706C54.2133 122.717 54.023 122.768 53.8497 122.858C53.6991 122.933 53.5662 123.039 53.4599 123.169C53.3536 123.299 53.2765 123.451 53.2336 123.614L53.2333 123.616L45.1013 154.551L44.9805 154.559C44.9338 154.562 40.2719 154.88 38.1756 157.404C37.7843 157.877 37.4947 158.426 37.3248 159.016C37.1549 159.606 37.1085 160.226 37.1884 160.835V160.835Z" fill="#CCCCCC"/>
<path d="M48.2863 141.159L48.2158 141.826L62.187 143.31L62.2576 142.642L48.2863 141.159Z" fill="#B3B3B3"/>
<path d="M47.068 146.691L46.7932 147.303L58.0362 152.376L58.311 151.764L47.068 146.691Z" fill="#B3B3B3"/>
<path d="M63.7284 137.939L50.4766 133.537L50.7514 132.925L64.0033 137.327L63.7284 137.939Z" fill="#B3B3B3"/>
<path d="M65.0675 134.917L51.8157 128.501L52.0905 127.889L65.3424 134.305L65.0675 134.917Z" fill="#B3B3B3"/>
<path d="M45.8999 151.949L45.4651 152.459L55.0197 160.644L55.4545 160.134L45.8999 151.949Z" fill="#B3B3B3"/>
<path d="M43.1869 154.662L42.5771 154.939L46.4135 163.424L47.0233 163.146L43.1869 154.662Z" fill="#B3B3B3"/>
<path d="M130.434 155.305V11.9756C130.434 10.0401 130.47 8.10051 130.434 6.16529C130.432 6.08068 130.434 5.9959 130.434 5.91127C130.434 4.69725 128.552 4.69524 128.552 5.91127V149.24C128.552 151.176 128.516 153.115 128.552 155.051C128.554 155.135 128.552 155.22 128.552 155.305C128.552 156.519 130.434 156.521 130.434 155.305V155.305Z" fill="#F2F2F2"/>
<path d="M140.838 45.9706H118.263C117.723 45.97 117.205 45.7544 116.822 45.3712C116.44 44.9881 116.225 44.4685 116.225 43.9266V16.412C116.225 15.8701 116.44 15.3506 116.822 14.9674C117.205 14.5842 117.723 14.3687 118.263 14.368H140.838C141.379 14.3687 141.897 14.5842 142.279 14.9674C142.661 15.3506 142.876 15.8701 142.877 16.412V43.9266C142.876 44.4685 142.661 44.9881 142.279 45.3712C141.897 45.7544 141.379 45.97 140.838 45.9706V45.9706Z" fill="#F2F2F2"/>
<path d="M167.725 164.722C167.726 164.772 167.717 164.821 167.701 164.868C167.684 164.914 167.66 164.956 167.63 164.991C167.599 165.026 167.563 165.054 167.523 165.073C167.483 165.092 167.44 165.102 167.397 165.102H5.32808C5.24106 165.102 5.15762 165.062 5.0961 164.991C5.03457 164.919 5 164.823 5 164.722C5 164.621 5.03457 164.525 5.0961 164.453C5.15762 164.382 5.24106 164.342 5.32808 164.342H167.397C167.44 164.342 167.483 164.352 167.523 164.371C167.563 164.39 167.599 164.418 167.63 164.453C167.66 164.488 167.684 164.53 167.701 164.576C167.717 164.623 167.726 164.672 167.725 164.722V164.722Z" fill="#3F3D56"/>
</svg>
