<svg width="188" height="180" viewBox="0 0 188 180" fill="none" xmlns="http://www.w3.org/2000/svg">
<path d="M180.467 156.113C178.278 160.67 174.244 164.06 170.016 166.815C165.394 169.824 160.415 172.241 155.194 174.009C154.478 174.256 153.755 174.486 153.029 174.706H123.666C123.462 174.483 123.267 174.25 123.083 174.009C121.116 171.483 120.053 168.247 120.439 165.077C120.936 161.004 124.021 157.263 128.016 156.399C132.016 155.531 136.574 157.925 137.79 161.844C138.457 154.291 139.229 146.425 143.231 139.994C146.859 134.172 153.137 130.006 159.94 129.26C163.941 128.843 167.978 129.584 171.572 131.396C171.902 131.563 172.229 131.737 172.549 131.918C174.706 133.145 176.609 134.773 178.156 136.716C182.399 142.101 183.438 149.929 180.467 156.113Z" fill="#F2F2F2"/>
<path d="M172.334 132.396C158.68 143.546 147.89 157.816 140.869 174.009C140.769 174.239 140.668 174.472 140.57 174.706H139.188C139.285 174.472 139.382 174.239 139.483 174.009C140.821 170.874 142.297 167.794 143.92 164.795C147.372 158.416 151.435 152.389 156.049 146.798C160.661 141.199 165.812 136.071 171.427 131.486C171.472 131.45 171.521 131.42 171.573 131.396C171.671 131.353 171.777 131.333 171.883 131.338C171.989 131.342 172.093 131.37 172.187 131.421C172.281 131.471 172.362 131.542 172.425 131.628C172.488 131.714 172.53 131.813 172.549 131.918C172.559 132.01 172.545 132.103 172.507 132.187C172.469 132.271 172.409 132.343 172.334 132.396V132.396Z" fill="white"/>
<path d="M63.8852 98.6298C64.2353 98.2828 64.5051 97.8629 64.6758 97.4C64.8465 96.937 64.9139 96.4421 64.8732 95.9502C64.8326 95.4583 64.6848 94.9813 64.4404 94.5529C64.196 94.1244 63.8609 93.7549 63.4586 93.4703L61.7581 82.2296L54.7729 84.434L58.5996 94.4625C58.1677 95.1718 58.0102 96.0152 58.1571 96.8331C58.3039 97.651 58.7449 98.3865 59.3964 98.9001C60.0479 99.4138 60.8647 99.67 61.692 99.6202C62.5194 99.5704 63.2997 99.218 63.8853 98.6298H63.8852Z" fill="#FFB8B8"/>
<path d="M56.689 93.3416L52.3801 73.1646C51.9603 71.2318 52.0425 69.2233 52.6187 67.3315C53.1948 65.4397 54.2458 63.7278 55.6709 62.3599C61.1863 57.0308 68.2749 50.3137 70.7234 48.5762C73.0216 46.9337 75.8023 46.1107 78.6216 46.2387L78.6807 46.2452L82.3873 49.7573L74.313 63.0846L62.0555 70.7852L63.4195 90.5613L56.689 93.3416Z" fill="white"/>
<path d="M71.7795 65.9222H53.6973C52.914 65.9222 52.2791 66.5589 52.2791 67.3443C52.2791 68.1296 52.914 68.7663 53.6973 68.7663H71.7795C72.5628 68.7663 73.1977 68.1296 73.1977 67.3443C73.1977 66.5589 72.5628 65.9222 71.7795 65.9222Z" fill="#CCCCCC"/>
<path d="M71.7795 96.851H53.6973C52.914 96.851 52.2791 97.4876 52.2791 98.273C52.2791 99.0583 52.914 99.695 53.6973 99.695H71.7795C72.5628 99.695 73.1977 99.0583 73.1977 98.273C73.1977 97.4876 72.5628 96.851 71.7795 96.851Z" fill="#CCCCCC"/>
<path d="M62.9163 174.35C62.7391 174.35 62.5683 174.284 62.4376 174.164C62.3069 174.044 62.2257 173.879 62.21 173.702L53.1703 67.4073C53.1536 67.2195 53.2121 67.0327 53.3328 66.8881C53.4535 66.7435 53.6266 66.6529 53.8139 66.6362C54.0013 66.6196 54.1875 66.6782 54.3317 66.7992C54.476 66.9203 54.5663 67.0938 54.5829 67.2816L62.9061 165.489L70.9928 67.2834C71.0008 67.1903 71.0269 67.0998 71.0698 67.0169C71.1127 66.934 71.1715 66.8604 71.2428 66.8003C71.314 66.7402 71.3964 66.6948 71.4852 66.6666C71.574 66.6384 71.6674 66.628 71.7602 66.6361C71.853 66.6441 71.9433 66.6703 72.0259 66.7134C72.1086 66.7564 72.182 66.8153 72.2419 66.8868C72.3019 66.9582 72.3472 67.0408 72.3753 67.1298C72.4034 67.2188 72.4138 67.3125 72.4058 67.4056L63.6229 173.701C63.6076 173.878 63.5267 174.043 63.3961 174.163C63.2654 174.283 63.0946 174.35 62.9172 174.35H62.9163Z" fill="#CCCCCC"/>
<path d="M83.2086 41.9839C88.3465 41.9839 92.5117 37.8076 92.5117 32.6559C92.5117 27.5043 88.3465 23.328 83.2086 23.328C78.0706 23.328 73.9055 27.5043 73.9055 32.6559C73.9055 37.8076 78.0706 41.9839 83.2086 41.9839Z" fill="#FFB8B8"/>
<path d="M55.483 170.087L51.0588 168.673L54.3924 150.889L60.9225 152.976L55.483 170.087Z" fill="#FFB8B8"/>
<path d="M55.2367 174.022L40.9939 169.47L41.1115 169.099C41.5646 167.68 42.5604 166.499 43.8807 165.815C45.201 165.131 46.7379 165 48.1543 165.451L57.0568 168.296L55.2367 174.022Z" fill="#2F2E41"/>
<path d="M87.6729 169.995H83.0293L80.8193 152.036H87.6729V169.995Z" fill="#FFB8B8"/>
<path d="M74.2505 174.141H88.4904V168.843H79.5011C78.109 168.844 76.7744 169.4 75.7901 170.387C74.8058 171.373 74.2521 172.712 74.2505 174.107V174.141Z" fill="#2F2E41"/>
<path d="M87.5367 164.167L85.9695 163.933C81.216 163.223 80.9313 163.18 80.1767 162.848C79.7913 162.678 79.7642 160.113 79.9956 145.693C80.1654 135.108 80.3768 121.935 79.9664 114.863C79.9494 114.584 79.8393 114.318 79.6536 114.11C79.468 113.901 79.2177 113.762 78.9432 113.713C78.6686 113.665 78.3857 113.71 78.1402 113.843C77.8946 113.975 77.7007 114.187 77.5897 114.443C74.0529 122.633 68.1188 140.96 64.1922 153.087C62.8263 157.306 61.7475 160.638 61.065 162.635C60.9332 163.013 60.6656 163.328 60.3146 163.518C59.9636 163.709 59.5544 163.761 59.1669 163.666C55.9355 162.856 56.1515 162.511 51.5491 161.318C51.1509 161.216 50.8074 160.964 50.5905 160.614C50.3737 160.264 50.3002 159.843 50.3855 159.44C51.218 155.504 66.4519 91.6815 67.618 85.6146C67.6575 85.4069 67.7376 85.2091 67.8537 85.0327C67.9698 84.8562 68.1196 84.7046 68.2945 84.5866C68.4694 84.4685 68.6659 84.3863 68.8726 84.3448C69.0794 84.3034 69.2922 84.3033 69.499 84.3448C72.9289 85.0378 75.0155 85.7729 78.405 86.4837C82.0624 87.2508 85.8443 88.0441 89.5332 88.7844C89.9003 88.8585 90.2294 89.0607 90.4618 89.3552C91.3746 90.5111 92.7281 91.1599 94.1611 91.8468C95.1272 92.3099 92.938 92.2682 93.7793 92.9361C97.1866 95.6405 92.2869 150.558 89.3263 162.962C89.2313 163.35 88.9952 163.689 88.6642 163.912C88.3332 164.135 87.9312 164.226 87.5367 164.167V164.167Z" fill="#2F2E41"/>
<path d="M87.1742 40.8181C86.6311 38.5073 89.3768 33.5351 88.8336 31.2243C88.4658 29.6594 84.7958 30.7232 83.9393 29.3639C83.0828 28.0047 81.6482 26.9035 80.0448 26.8855C78.2019 26.8648 76.3884 28.2355 74.6426 27.6431C72.8773 27.0441 72.3131 24.6203 73.0936 22.9235C73.874 21.2267 75.5551 20.1454 77.2161 19.2981C80.0446 17.8554 83.3379 16.8018 86.3652 17.7563C88.1952 18.3334 89.7253 19.5837 91.206 20.8066C92.5558 21.9214 93.9282 23.0614 94.8718 24.5376C96.7202 27.4296 96.6087 31.3261 95.0291 34.374C93.4494 37.422 90.5711 39.6586 87.3996 40.957" fill="#2F2E41"/>
<path d="M64.3303 94.5936C65.3344 92.9117 66.8588 85.0315 68.7388 71.8047C70.0186 62.7754 71.1338 53.6009 71.6871 48.9145C71.7301 48.5352 71.8684 48.173 72.0891 47.862C72.3099 47.551 72.6058 47.3013 72.9492 47.1364C73.3082 46.9627 73.6651 46.7982 74.0199 46.6431C78.6018 44.6448 83.2453 43.9827 87.8206 44.675C92.389 45.3785 96.6741 47.3363 100.201 50.3314L100.243 50.3708L100.254 50.4271C100.273 50.5312 102.195 60.9137 98.2592 67.9282C94.3775 74.8494 94.3322 93.1782 94.3322 93.3626V93.5981L94.1062 93.5335C88.0674 91.8034 64.7403 94.8302 64.5053 94.8611L64.1421 94.9087L64.3303 94.5936Z" fill="white"/>
<path d="M99.4343 70.5438H81.3521C80.5688 70.5438 79.9338 71.1805 79.9338 71.9658C79.9338 72.7512 80.5688 73.3878 81.3521 73.3878H99.4343C100.218 73.3878 100.853 72.7512 100.853 71.9658C100.853 71.1805 100.218 70.5438 99.4343 70.5438Z" fill="#CCCCCC"/>
<path d="M99.4343 101.472H81.3521C80.5688 101.472 79.9338 102.109 79.9338 102.894C79.9338 103.68 80.5688 104.316 81.3521 104.316H99.4343C100.218 104.316 100.853 103.68 100.853 102.894C100.853 102.109 100.218 101.472 99.4343 101.472Z" fill="#CCCCCC"/>
<path d="M90.5706 174.706C90.3934 174.706 90.2226 174.639 90.0919 174.519C89.9612 174.399 89.88 174.235 89.8643 174.058L80.8246 72.0286C80.8163 71.9356 80.8264 71.8419 80.8543 71.7528C80.8822 71.6637 80.9273 71.581 80.9871 71.5094C81.0469 71.4378 81.1201 71.3787 81.2027 71.3355C81.2852 71.2923 81.3755 71.2658 81.4682 71.2576C81.561 71.2493 81.6544 71.2595 81.7433 71.2874C81.8321 71.3154 81.9146 71.3606 81.986 71.4206C82.0574 71.4805 82.1164 71.554 82.1595 71.6367C82.2026 71.7195 82.229 71.8099 82.2372 71.903L90.5604 165.845L98.6471 71.9047C98.6632 71.7168 98.7531 71.5431 98.8971 71.4217C99.041 71.3003 99.2271 71.2412 99.4145 71.2574C99.6019 71.2736 99.7751 71.3638 99.8962 71.5081C100.017 71.6524 100.076 71.839 100.06 72.0269L91.2772 174.056C91.2619 174.233 91.181 174.398 91.0503 174.518C90.9197 174.639 90.7489 174.706 90.5715 174.706H90.5706Z" fill="#CCCCCC"/>
<path d="M84.7324 101.923C84.6267 101.441 84.6276 100.941 84.7352 100.46C84.8428 99.9781 85.0544 99.526 85.3551 99.1352C85.6559 98.7444 86.0384 98.4245 86.4758 98.1979C86.9132 97.9714 87.3948 97.8438 87.8866 97.8241L95.4059 89.3141L100.075 94.9703L91.428 101.304C91.4063 102.135 91.0814 102.929 90.5148 103.536C89.9483 104.142 89.1796 104.519 88.3543 104.596C87.529 104.672 86.7044 104.442 86.0369 103.949C85.3693 103.457 84.9052 102.736 84.7324 101.923V101.923Z" fill="#FFB8B8"/>
<path d="M89.1106 95.9998L100.973 80.1411L94.856 66.9983L95.3001 51.4111L100.315 50.4821L100.368 50.5088C102.804 51.9374 104.693 54.1434 105.732 56.7743C106.846 59.567 109.157 69.0679 110.899 76.5467C111.354 78.4714 111.308 80.481 110.767 82.3831C110.225 84.2852 109.206 86.0161 107.806 87.4099L93.2541 102.001L89.1106 95.9998Z" fill="white"/>
<path d="M39.3842 170.296L55.6132 174.214C55.928 174.297 56.2621 174.267 56.5572 174.129C56.8523 173.991 57.0898 173.754 57.2281 173.458L71.1691 136.293C71.2306 136.15 71.2624 135.996 71.2626 135.841C71.2628 135.685 71.2314 135.531 71.1703 135.388C71.1 135.227 70.9979 135.083 70.8702 134.963C70.7426 134.843 70.592 134.751 70.4276 134.691L58.2258 130.019C58.0329 129.945 57.8267 129.912 57.6205 129.924C57.4143 129.935 57.2129 129.99 57.0293 130.085C56.8698 130.164 56.7291 130.276 56.6165 130.414C56.504 130.552 56.4222 130.713 56.3768 130.886L56.3765 130.887L47.7644 163.643L47.6364 163.651C47.5869 163.654 42.6498 163.991 40.4297 166.663C40.0154 167.164 39.7086 167.745 39.5287 168.37C39.3488 168.995 39.2996 169.651 39.3842 170.296V170.296Z" fill="#CCCCCC"/>
<path d="M51.1377 149.462L51.063 150.169L65.8591 151.74L65.9338 151.033L51.1377 149.462Z" fill="#B3B3B3"/>
<path d="M49.8474 155.32L49.5564 155.968L61.4633 161.34L61.7543 160.691L49.8474 155.32Z" fill="#B3B3B3"/>
<path d="M67.4911 146.053L53.4568 141.392L53.7479 140.744L67.7822 145.405L67.4911 146.053Z" fill="#B3B3B3"/>
<path d="M68.9093 142.854L54.875 136.06L55.1661 135.411L69.2004 142.205L68.9093 142.854Z" fill="#B3B3B3"/>
<path d="M48.6099 160.887L48.1494 161.427L58.2681 170.094L58.7286 169.554L48.6099 160.887Z" fill="#B3B3B3"/>
<path d="M45.7371 163.76L45.0913 164.054L49.1542 173.037L49.8 172.743L45.7371 163.76Z" fill="#B3B3B3"/>
<path d="M138.135 164.44V12.68C138.135 10.6306 138.174 8.57696 138.135 6.5279C138.133 6.43832 138.135 6.34855 138.135 6.25894C138.135 4.97351 136.143 4.97138 136.143 6.25894V158.019C136.143 160.068 136.104 162.122 136.143 164.171C136.144 164.261 136.143 164.35 136.143 164.44C136.143 165.725 138.135 165.728 138.135 164.44V164.44Z" fill="#F2F2F2"/>
<path d="M149.154 48.6748H125.246C124.674 48.6741 124.125 48.4459 123.72 48.0402C123.316 47.6344 123.088 47.0844 123.087 46.5106V17.3774C123.088 16.8037 123.316 16.2536 123.72 15.8479C124.125 15.4421 124.674 15.2139 125.246 15.2133H149.154C149.727 15.2139 150.275 15.4421 150.68 15.8479C151.084 16.2536 151.312 16.8037 151.313 17.3774V46.5106C151.312 47.0844 151.084 47.6344 150.68 48.0402C150.275 48.4459 149.727 48.6741 149.154 48.6748V48.6748Z" fill="#F2F2F2"/>
<path d="M177.629 174.411C177.629 174.464 177.62 174.517 177.602 174.566C177.585 174.614 177.559 174.659 177.527 174.696C177.495 174.734 177.457 174.763 177.414 174.783C177.372 174.804 177.327 174.814 177.281 174.814H5.64261C5.55046 174.814 5.46209 174.771 5.39694 174.696C5.33178 174.62 5.29517 174.518 5.29517 174.411C5.29517 174.305 5.33178 174.202 5.39694 174.127C5.46209 174.051 5.55046 174.009 5.64261 174.009H177.281C177.327 174.009 177.372 174.019 177.414 174.039C177.457 174.059 177.495 174.089 177.527 174.126C177.559 174.164 177.585 174.208 177.602 174.257C177.62 174.306 177.629 174.358 177.629 174.411V174.411Z" fill="#3F3D56"/>
</svg>
