<svg width="268" height="180" viewBox="0 0 268 180" fill="none" xmlns="http://www.w3.org/2000/svg">
<g clip-path="url(#clip0)">
<path d="M218.203 140.276C218.203 141.74 209.136 146.007 198.366 146.007C187.595 146.007 179.203 141.74 179.203 140.276C179.203 138.812 187.933 139.283 198.714 139.283C209.495 139.283 218.203 138.809 218.203 140.276Z" fill="#504F60"/>
<path opacity="0.2" d="M218.203 140.276C218.203 141.74 209.136 146.007 198.366 146.007C187.595 146.007 179.203 141.74 179.203 140.276" fill="black"/>
<path d="M109.738 113.415C111.486 113.625 113.3 113.759 114.974 113.248C115.238 113.171 115.528 113 115.501 112.752C115.482 112.662 115.442 112.577 115.383 112.504C114.752 111.613 114.221 110.663 113.801 109.668C113.784 109.616 113.75 109.571 113.703 109.539C113.649 109.52 113.589 109.52 113.534 109.539C112.762 109.73 112.095 110.199 111.328 110.4C110.936 110.501 110.528 110.53 110.125 110.484C109.777 110.447 109.303 110.177 108.986 110.211C109.166 111.296 109.603 112.308 109.738 113.415Z" fill="white"/>
<path d="M142.797 110.668C143.95 109.924 145.144 109.142 145.824 107.993C145.873 107.925 145.901 107.845 145.906 107.763C145.894 107.682 145.861 107.605 145.808 107.539C145.16 106.57 144.326 105.723 143.348 105.041C142.838 105.38 142.377 105.78 141.977 106.232C141.687 106.52 140.886 106.976 140.878 107.415C140.878 107.663 141.184 107.951 141.326 108.16C141.519 108.428 141.701 108.701 141.875 108.978C141.975 109.115 142.89 110.613 142.797 110.668Z" fill="white"/>
<path d="M116.59 116.737C116.61 116.992 116.536 117.247 116.379 117.456C116.256 117.573 116.104 117.658 115.936 117.705C113.492 118.528 110.663 117.501 108.224 118.312C107.723 118.479 107.249 118.719 106.745 118.878C106.145 119.048 105.525 119.151 104.899 119.186C104.037 119.263 103.17 119.312 102.305 119.335C101.648 119.378 100.988 119.324 100.349 119.173C100.029 119.096 99.7304 118.957 99.472 118.764C99.2135 118.571 99.001 118.33 98.8485 118.054C98.7159 117.808 98.6895 117.522 98.7747 117.258C98.8129 117.167 98.8673 117.083 98.9355 117.01C99.1008 116.835 99.2948 116.687 99.5103 116.571L100.409 116.025C100.831 115.744 101.289 115.516 101.772 115.345C102.128 115.236 102.505 115.189 102.867 115.097C104.13 114.749 105.094 113.807 105.991 112.901L107.214 111.673C107.329 111.538 107.474 111.428 107.639 111.353C107.808 111.299 107.989 111.283 108.166 111.306C109.354 111.385 110.502 111.747 111.501 112.358C111.757 112.538 112.033 112.691 112.324 112.814C113.041 113.077 113.961 112.879 114.623 112.546C114.937 112.387 114.868 112.298 115 112.015C115.132 111.732 115.454 111.551 115.733 111.809C115.817 111.898 115.877 112.006 115.907 112.122C116.171 112.941 116.071 113.821 116.071 114.68C116.063 114.814 116.081 114.949 116.123 115.077C116.191 115.206 116.271 115.329 116.363 115.444C116.382 115.475 116.399 115.506 116.413 115.538C116.575 115.919 116.635 116.33 116.59 116.737V116.737Z" fill="#514E7F"/>
<path d="M116.59 116.737C116.61 116.992 116.536 117.247 116.379 117.456C116.256 117.573 116.104 117.658 115.936 117.705C113.492 118.528 110.663 117.501 108.224 118.312C107.723 118.479 107.249 118.719 106.745 118.878C106.145 119.048 105.525 119.151 104.899 119.186C104.037 119.263 103.17 119.312 102.305 119.335C101.648 119.378 100.988 119.324 100.349 119.173C100.029 119.096 99.7304 118.957 99.472 118.764C99.2135 118.571 99.001 118.33 98.8485 118.054C98.7159 117.808 98.6895 117.522 98.7747 117.258C98.8129 117.167 98.8673 117.083 98.9355 117.01C99.0779 117.29 99.1807 117.662 99.2703 117.796C99.3914 117.995 99.5561 118.167 99.7534 118.301C99.9508 118.435 100.176 118.527 100.415 118.573C100.771 118.594 101.129 118.551 101.469 118.446C103.684 117.93 106.038 117.923 108.166 117.141C108.896 116.871 109.592 116.511 110.36 116.347C111.127 116.184 111.942 116.228 112.733 116.166C113.982 116.072 115.193 115.717 116.424 115.531C116.583 115.914 116.64 116.328 116.59 116.737V116.737Z" fill="#464353"/>
<path d="M148.395 110.516C148.279 111.39 147.691 112.142 147.045 112.779C146.399 113.417 145.669 113.99 145.155 114.725C144.522 115.635 144.237 116.764 143.414 117.533C143.099 117.813 142.744 118.051 142.36 118.24C141.93 118.479 141.475 118.676 141.002 118.828C139.773 119.198 138.45 119.114 137.166 119.024C136.749 119.021 136.336 118.946 135.948 118.804C135.771 118.719 135.602 118.621 135.441 118.511C135.12 118.324 134.849 118.069 134.65 117.766C134.553 117.602 134.526 117.408 134.574 117.226C134.647 117.024 134.773 116.843 134.941 116.7C135.229 116.417 135.54 116.154 135.869 115.913C136.32 115.639 136.727 115.305 137.076 114.921C137.29 114.617 137.448 114.281 137.543 113.928C137.73 113.309 137.844 112.672 137.883 112.03C137.881 111.603 137.928 111.177 138.023 110.76C138.218 110.105 138.735 109.519 138.677 108.842C138.653 108.745 138.662 108.643 138.703 108.551C138.764 108.48 138.85 108.43 138.945 108.41C139.348 108.259 139.773 108.166 140.206 108.135C140.423 108.12 140.64 108.152 140.843 108.227C141.045 108.301 141.227 108.417 141.376 108.566C141.556 108.77 141.674 109.063 141.938 109.142C142.069 109.175 142.206 109.181 142.339 109.157C142.987 109.095 143.673 109.018 144.184 108.623C144.421 108.424 144.611 108.18 144.742 107.908C144.874 107.636 144.944 107.342 144.949 107.043C144.949 106.817 144.841 106.581 145.213 106.547C145.492 106.512 145.714 106.795 145.856 106.968C146.37 107.616 146.897 108.293 147.09 109.082C147.165 109.055 147.244 109.041 147.324 109.04C147.489 109.039 147.651 109.075 147.798 109.145C147.944 109.216 148.07 109.318 148.166 109.445C148.375 109.765 148.457 110.145 148.395 110.516Z" fill="#514E7F"/>
<path d="M148.395 110.517C148.279 111.39 147.691 112.142 147.045 112.779C146.399 113.417 145.669 113.99 145.155 114.725C144.522 115.635 144.237 116.764 143.415 117.533C143.099 117.813 142.744 118.051 142.36 118.24C141.93 118.479 141.475 118.676 141.002 118.828C139.773 119.198 138.45 119.114 137.166 119.024C136.749 119.021 136.336 118.946 135.948 118.804C135.771 118.719 135.602 118.621 135.442 118.511C135.12 118.324 134.849 118.069 134.651 117.767C134.898 117.655 135.167 117.594 135.442 117.588C136.011 117.618 136.428 118.124 136.973 118.28C137.751 118.501 138.526 117.985 139.315 117.809C139.829 117.695 140.369 117.724 140.878 117.561C141.302 117.406 141.694 117.183 142.036 116.901C142.504 116.586 142.92 116.208 143.272 115.779C143.564 115.35 143.807 114.894 143.997 114.417C144.414 113.503 144.904 112.621 145.463 111.777C145.546 111.643 145.646 111.52 145.761 111.41C145.885 111.303 146.025 111.229 146.164 111.134C146.692 110.76 146.911 110.142 147.095 109.537C147.145 109.353 147.215 109.174 147.303 109.003C147.468 109.002 147.63 109.038 147.777 109.108C147.923 109.179 148.049 109.281 148.145 109.408C148.371 109.735 148.461 110.13 148.395 110.517V110.517Z" fill="#464353"/>
<path d="M93.109 33.1587C93.7652 33.6215 94.3053 34.2144 94.6909 34.8955C95.06 35.5753 97.1877 40.8503 97.0638 41.617C97.7572 40.9595 100.491 40.8528 101.193 40.1953C101.485 39.9199 103.065 38.5453 103.302 38.2252C103.539 37.9051 105.3 37.2327 105.493 36.8953C106.213 35.682 100.389 31.0844 101.135 29.886C101.176 29.831 101.197 29.7648 101.195 29.6974C101.178 29.6409 101.144 29.5901 101.098 29.5511C100.621 29.092 99.9878 28.8067 99.413 28.4668C98.8382 28.1269 98.2845 27.653 98.129 27.0277C97.5809 27.2651 97.0777 27.5853 96.6393 27.9755C95.5706 28.8373 94.5204 29.7165 93.4886 30.613C93.0852 30.9653 92.3048 31.4343 92.1176 31.9379C91.8961 32.4788 92.724 32.8634 93.109 33.1587Z" fill="#FBBEBE"/>
<path d="M102.537 31.2061C101.643 31.7711 100.808 32.4141 100.043 33.1265C99.3204 33.7989 98.6349 34.578 98.4608 35.5183C98.387 35.888 98.3976 36.2627 98.3369 36.6373C98.0733 38.2625 96.581 39.4534 95.9218 40.9744C95.7309 41.4438 95.5905 41.9301 95.5026 42.4259C95.3174 43.3657 95.216 44.3185 95.1994 45.2743C95.1836 46.1997 96.1486 46.8374 96.5019 47.7008C96.8552 48.5643 96.9501 49.4525 97.1294 50.3383C97.4669 52.0106 98.0864 53.6234 98.7113 55.2262C100.011 58.6056 104.224 67.9472 105.524 71.329C109.508 70.3886 120.112 68.2275 123.64 66.2451C124.816 65.5851 115.48 58.1391 116.737 57.6255C116.809 57.615 116.878 57.5889 116.937 57.5492C116.996 57.5096 117.045 57.4575 117.079 57.3971C117.114 57.3367 117.132 57.2696 117.134 57.2012C117.136 57.1328 117.122 57.0648 117.091 57.0027C115.833 51.827 111.899 47.5743 110.114 42.5351C109.495 40.7858 108.382 39.2922 107.539 37.6298C106.774 36.1237 106.365 34.4589 105.45 33.0272C105.278 32.7323 105.052 32.4678 104.783 32.2457C104.555 32.081 104.308 31.9404 104.048 31.8263C103.526 31.5882 103.041 31.4467 102.537 31.2061Z" fill="#175E7A"/>
<path d="M93.3195 32.5708C96.7632 32.5708 99.5549 29.9436 99.5549 26.7028C99.5549 23.462 96.7632 20.8348 93.3195 20.8348C89.8757 20.8348 87.084 23.462 87.084 26.7028C87.084 29.9436 89.8757 32.5708 93.3195 32.5708Z" fill="#FBBEBE"/>
<path d="M99.6631 29.4594C99.9738 29.1896 100.364 29.0149 100.783 28.9582C101.201 28.9015 101.628 28.9655 102.007 29.1418C102.429 29.3477 102.798 29.7646 102.703 30.2012L105.796 30.2459C106.288 30.2332 106.78 30.2757 107.262 30.3724C107.746 30.4717 108.179 30.7271 108.485 31.0945C108.522 31.1416 108.564 31.1987 108.627 31.2061C108.679 31.2069 108.729 31.1911 108.77 31.1615C109.246 30.9369 109.781 30.8505 110.31 30.9133C111.981 31.0151 113.526 31.8016 114.837 32.7841C115.073 32.937 115.256 33.1518 115.364 33.4019C115.472 33.7319 115.343 34.1463 115.627 34.382C115.627 37.1113 116.624 39.6619 117.289 42.3217C117.407 42.7956 117.89 43.215 118.224 43.5871C118.638 43.9997 118.976 44.4743 119.224 44.9915C119.788 46.371 119.01 47.9937 119.559 49.3782C119.791 49.9637 120.239 50.4451 120.613 50.9537C121.107 51.541 121.419 52.245 121.515 52.9883C121.539 53.3207 121.494 53.6557 121.515 53.9807C121.55 54.4278 121.639 54.8697 121.779 55.2982C122.004 56.0988 122.239 56.8986 122.485 57.6975C122.886 58.9877 123.408 60.3797 124.637 61.0669C121.67 61.5408 118.544 62.0048 115.717 61.0347C115.323 60.9081 114.949 60.732 114.604 60.5112C113.584 59.8264 113.091 58.6552 112.651 57.5486C112.16 56.3081 111.662 55.0452 111.562 53.7252C111.563 53.3053 111.5 52.8876 111.375 52.4846C111.087 51.7651 110.32 51.3308 109.624 50.9314C108.838 50.5261 108.126 50.0051 107.515 49.3881C107.212 49.0773 106.979 48.7114 106.832 48.3127C106.685 47.9141 106.627 47.4914 106.661 47.0707C106.713 46.6613 106.885 46.2668 106.9 45.8549C106.916 45.443 106.721 44.9716 106.302 44.8625C104.143 44.2471 103.112 41.8404 102.632 39.7661C102.425 38.6941 102.332 37.6052 102.355 36.5158L102.326 34.3994C102.028 34.1443 101.788 33.8347 101.622 33.4896C101.455 33.1446 101.364 32.7711 101.356 32.3921C101.384 32.171 101.38 31.9471 101.343 31.7272C101.238 31.4583 101.069 31.2161 100.847 31.02C100.37 30.5596 99.9709 30.0333 99.6631 29.4594V29.4594Z" fill="#464353"/>
<path d="M93.0216 36.1685C92.9504 36.8235 93.1086 37.4959 92.953 38.1385C92.8924 38.3866 92.7869 38.6348 92.7105 38.8655C92.4767 39.7904 92.5779 40.7623 92.9978 41.627C93.4173 42.4832 93.9195 43.3013 94.4981 44.071C94.6937 44.3337 94.8549 44.6178 94.9779 44.9171C95.0776 45.2313 95.1395 45.555 95.1625 45.8822C95.3152 47.1962 95.56 48.4991 95.8954 49.7826C96.1907 50.8942 99.5444 60.3971 100.325 61.2779C100.466 61.4729 100.681 61.6103 100.926 61.6625C101.103 61.6687 101.278 61.6347 101.437 61.5632L103.019 60.9925C103.154 60.9538 103.279 60.8896 103.386 60.804C103.534 60.641 103.615 60.433 103.613 60.2184C103.726 59.0076 100.364 49.4377 99.9373 48.2939C98.6454 44.8401 96.9263 41.5104 96.0853 37.9351C95.8506 36.9426 95.7267 35.4142 94.9542 34.6227C94.6352 34.2952 94.7433 34.4341 94.361 34.6053C94.1678 34.6842 93.981 34.7763 93.802 34.8807C93.5782 35.0271 93.392 35.2187 93.257 35.4415C93.122 35.6643 93.0415 35.9127 93.0216 36.1685Z" fill="#464353"/>
<path d="M97.8229 42.7213C98.2474 44.8328 98.6851 46.9393 99.1201 49.0508L105.311 47.5249C105.361 46.9145 105.015 46.3488 104.783 45.788C104.219 44.4557 104.206 42.9719 103.75 41.6023C103.405 40.5602 102.803 39.6025 102.479 38.553C102.292 37.9426 102.197 37.3124 102.012 36.6946C101.814 36.0879 101.571 35.4951 101.285 34.9205C100.937 34.0873 100.484 33.2967 99.9348 32.5659C99.1438 32.8438 98.3001 33.1664 97.8493 33.8388C97.618 34.2176 97.4861 34.6429 97.4643 35.0793C97.3562 36.3869 97.8598 37.7019 97.6937 39.0021C97.5226 40.2402 97.5663 41.4963 97.8229 42.7213V42.7213Z" fill="white"/>
<path d="M105.414 70.8081C105.762 72.0487 105.258 73.3538 104.847 74.5819C104.227 76.4319 103.805 78.3352 103.586 80.2638C103.56 80.7546 103.455 81.2389 103.275 81.7004C103.08 82.1148 102.748 82.4646 102.521 82.8591C101.899 83.8962 101.915 85.1616 102.049 86.3476C102.139 87.1292 102.273 87.9083 102.44 88.6774C102.643 89.6178 102.893 90.6003 102.6 91.5184C103.091 91.4166 103.423 92.0146 103.391 92.4835C103.36 92.9525 103.199 93.476 103.439 93.8804C104.045 94.0889 104.05 94.8729 104.032 95.4808C104.042 96.5348 104.184 97.5841 104.454 98.6071C105.371 102.759 106.345 106.899 107.375 111.028C109.603 111.678 112.205 112.355 114.33 111.455C114.726 111.288 115.121 111.023 115.211 110.621C115.234 110.404 115.205 110.185 115.127 109.981L114.12 106.532C113.874 105.698 113.629 104.837 113.758 103.981C113.856 103.344 114.151 102.656 113.819 102.093C113.706 101.9 113.526 101.748 113.394 101.565C112.867 100.838 113.144 99.865 113.186 98.9842C113.203 98.7865 113.188 98.5876 113.144 98.3937C113.072 98.1673 112.971 97.9498 112.843 97.7461C112.011 96.2254 111.611 94.5277 111.683 92.8185C111.715 92.6004 111.683 92.3783 111.591 92.1759C111.527 92.0923 111.47 92.0044 111.42 91.9129C111.38 91.7536 111.4 91.5864 111.475 91.439C111.173 91.2232 110.9 90.9732 110.663 90.6946C110.809 90.6091 110.933 90.4934 111.025 90.3563C111.116 90.2191 111.174 90.0642 111.193 89.9031C111.211 89.742 111.191 89.5791 111.133 89.4265C111.075 89.2739 110.981 89.1357 110.858 89.0223C110.966 89.0019 111.065 88.9539 111.145 88.8836C111.226 88.8132 111.284 88.7233 111.313 88.6238C111.342 88.5243 111.341 88.4192 111.311 88.32C111.28 88.2208 111.221 88.1316 111.14 88.0621C111.011 87.9777 110.84 87.9405 110.747 87.814C110.605 87.6304 110.721 87.3748 110.837 87.1788L111.451 86.1342C111.91 85.3576 112.013 84.3974 112.506 83.6531C113.213 82.5688 113.674 81.3605 114.13 80.1646L115.904 75.557L117.099 76.5321C117.497 76.8181 117.83 77.1757 118.08 77.5841C118.249 77.9878 118.357 78.4122 118.399 78.8446C118.836 81.3456 120.508 83.5141 121.127 85.9779C121.265 86.5263 121.357 87.1019 121.692 87.5708C121.812 87.7148 121.919 87.8675 122.013 88.0274C122.101 88.2713 122.146 88.5268 122.148 88.7841C122.203 89.2881 122.373 89.7749 122.646 90.2116C122.919 90.6483 123.289 91.0246 123.73 91.3149C124.318 91.6945 125.048 91.9551 125.367 92.5555C125.431 92.7414 125.519 92.919 125.631 93.084C125.915 93.4065 126.53 93.4438 126.651 93.8482C126.72 94.074 126.593 94.3444 126.728 94.5429C126.804 94.6348 126.905 94.7059 127.02 94.7489L128.737 95.5552C130.656 96.4584 131.637 98.5326 133.053 100.044C133.542 100.536 133.975 101.075 134.345 101.651C134.956 102.681 135.238 103.974 136.272 104.629C136.55 104.764 136.803 104.941 137.021 105.152C137.345 105.554 137.226 106.118 137.255 106.624C137.284 107.13 137.696 107.733 138.207 107.579C138.028 108.192 138.028 108.839 138.207 109.452C140.453 109.344 142.594 108.527 144.287 107.135C144.788 106.723 145.271 106.197 145.276 105.572C145.283 105.464 145.258 105.356 145.202 105.262C145.101 105.139 144.967 105.044 144.814 104.986C143.209 104.167 142.726 102.269 141.914 100.728C141.205 99.3688 140.156 98.1977 139.278 96.9348C137.369 94.2179 136.066 90.9303 133.179 89.1364C132.544 88.7419 131.806 88.3921 131.487 87.7396C131.31 87.3748 131.289 86.958 131.149 86.5809C131.009 86.2037 130.674 85.8365 130.247 85.8365C130.485 85.2906 130.437 84.6257 130.453 84.0352C130.469 83.7731 130.437 83.5104 130.358 83.2586C130.248 82.9877 130.106 82.7296 129.934 82.4894C129.18 81.2892 128.804 79.9128 128.847 78.5195C128.868 77.8025 129.003 77.0631 128.774 76.3783C128.658 76.0334 128.455 75.7183 128.315 75.3858C128.104 74.7834 127.993 74.1541 127.985 73.52L127.827 71.1356C127.803 70.3415 127.694 69.5517 127.5 68.7785C126.973 66.9275 126.445 59.1739 124.639 58.3005C122.833 57.4272 119.73 63.3944 117.697 63.511C116.798 63.5462 115.909 63.7076 115.061 63.9898C113.708 64.4662 112.574 65.3545 111.47 66.2229L107.731 69.178C106.94 69.7908 106.286 70.3764 105.414 70.8081Z" fill="#464353"/>
<path d="M87.4691 20.1873C88.2917 19.1304 89.7049 18.5696 91.097 18.5225C92.4892 18.4753 93.8602 18.8872 95.1073 19.4703C95.4754 19.6673 95.8688 19.819 96.2779 19.9218C96.937 20.0484 97.67 19.8797 98.2659 20.17C99.0568 20.5645 99.2097 21.5693 99.1412 22.403C99.0726 23.2367 98.9065 24.1622 99.3785 24.8842C99.5459 25.0901 99.6983 25.3064 99.8346 25.5318C100.038 25.961 99.919 26.4572 99.7977 26.9113C99.4892 26.6632 99.3152 26.2885 99.041 26.0007C98.7668 25.7129 98.2896 25.5194 97.9495 25.7352C97.6093 25.9511 97.6146 26.3431 97.5962 26.6954C97.5777 27.0478 97.4828 27.4696 97.1295 27.5837C96.9819 27.6153 96.8277 27.6045 96.6867 27.5528C96.5457 27.501 96.4244 27.4107 96.3385 27.2934C95.7348 26.5987 95.9773 25.4896 95.3788 24.7899C95.0387 24.3929 94.4718 24.1994 94.1581 23.7825C93.9103 23.455 93.847 23.0382 93.6308 22.6859C93.4146 22.3335 92.911 22.0755 92.5762 22.3187C92.4619 22.4214 92.3665 22.5413 92.294 22.6735C92.0852 22.9549 91.7817 23.1619 91.4324 23.2609C91.0832 23.36 90.7087 23.3453 90.3694 23.2193C90.1101 23.0695 89.8296 22.9551 89.5362 22.8794C89.3442 22.8703 89.1533 22.912 88.9851 22.9997C88.8169 23.0874 88.6781 23.2176 88.5844 23.3756C88.3952 23.6913 88.3038 24.0506 88.3208 24.4128C88.3208 24.909 88.4157 25.4375 88.1151 25.8345C88.0008 25.9839 87.8577 26.1118 87.6933 26.2116C87.2529 26.4771 86.6386 26.6557 86.2326 26.353C86.095 26.2324 85.9926 26.0805 85.9354 25.9119C85.8781 25.7433 85.8679 25.5637 85.9057 25.3903C85.9847 25.045 86.0887 24.7051 86.2168 24.3731C86.4488 23.6039 86.1456 22.738 86.3987 22.0135C86.6638 21.361 87.0241 20.7464 87.4691 20.1873V20.1873Z" fill="#464353"/>
<path d="M90.8098 37.6918C90.7702 37.8727 90.7904 38.0606 90.8678 38.2303C90.9462 38.3458 91.0528 38.442 91.1789 38.5106C92.0655 39.0304 93.074 39.3379 94.116 39.4063C94.2578 39.4086 94.397 39.4426 94.5221 39.5056C94.7699 39.6594 94.7857 40.0018 94.6934 40.2747C94.5704 40.5322 94.5066 40.8112 94.5063 41.0935C94.5827 41.6121 95.2366 41.8379 95.7876 41.9148C96.5601 42.0066 97.4065 41.9594 98.0182 41.5054C98.4325 41.1497 98.7484 40.7043 98.9383 40.2077C100.452 36.9351 100.982 33.3175 102.513 30.0548C102.63 29.8418 102.707 29.612 102.743 29.375C102.759 29.2563 102.741 29.1358 102.691 29.0258C102.641 28.9159 102.561 28.8205 102.458 28.7497C102.173 28.5835 101.73 28.6778 101.538 28.4172C101.443 28.2857 101.454 28.1071 101.369 27.9682C101.193 27.6729 100.729 27.72 100.412 27.5488C100.164 27.4248 99.9929 27.1692 99.7161 27.1196C99.5802 27.1124 99.4444 27.1351 99.3194 27.1859C99.1945 27.2367 99.0838 27.3143 98.9963 27.4124C98.0973 28.2014 97.6253 29.3204 97.1244 30.3774C96.3594 31.9975 95.4639 33.5603 94.4456 35.0519C94.5643 34.8782 93.8761 33.5632 93.6072 33.5061C93.1352 33.4168 92.5315 34.1959 92.2757 34.4862C91.4732 35.4019 90.9647 36.5139 90.8098 37.6918V37.6918Z" fill="white"/>
<path opacity="0.1" d="M100.388 27.7795C100.199 27.7825 100.012 27.8255 99.8431 27.9054C99.6737 27.9853 99.5257 28.1 99.4098 28.241C99.1277 28.5859 99.0724 29.0425 99.0012 29.4816C98.7612 30.873 98.2336 32.2065 97.4482 33.4068" fill="black"/>
<path opacity="0.1" d="M101.733 28.7695C101.472 28.775 101.216 28.8445 100.992 28.9711C100.768 29.0977 100.583 29.2771 100.454 29.4916C100.28 29.8818 100.171 30.2954 100.133 30.7172C99.9067 31.6525 99.4707 32.5315 98.854 33.2952" fill="black"/>
<path d="M164.393 77.2764V74.1948C164.393 71.9263 163.435 69.7509 161.73 68.1471C160.025 66.5432 157.713 65.6422 155.302 65.6422H25.9817C23.5711 65.6422 21.2592 66.5432 19.5545 68.1471C17.8497 69.7509 16.8916 71.9263 16.8909 74.1948V79.8767L164.393 77.2764Z" fill="#33323D"/>
<path d="M61.9577 62.0297C61.9577 62.0297 61.5886 83.5811 65.6489 90.6723C69.7092 97.7635 71.4493 128.612 71.4493 128.612C71.4493 128.612 114.014 132.755 143.675 123.649C173.337 114.544 236.451 110.819 236.451 110.819L225.815 43.3589C225.815 43.3589 173.271 40.188 143.38 53.6037C113.489 67.0193 61.9577 62.0297 61.9577 62.0297Z" fill="#8DD070"/>
<path opacity="0.1" d="M61.9577 62.0297C61.9577 62.0297 61.5886 83.5811 65.6489 90.6723C69.7092 97.7635 71.4493 128.612 71.4493 128.612C71.4493 128.612 114.014 132.755 143.675 123.649C173.337 114.544 236.451 110.819 236.451 110.819L225.815 43.3589C225.815 43.3589 173.271 40.188 143.38 53.6037C113.489 67.0193 61.9577 62.0297 61.9577 62.0297Z" fill="black"/>
<path d="M71.3782 69.9024C71.3782 69.9024 70.0467 87.685 73.3872 93.3668C76.7278 99.0487 76.8833 124.414 76.8833 124.414C76.8833 124.414 115.19 126.086 142.439 117.357C169.688 108.628 226.949 102.966 226.949 102.966L220.442 47.7978C220.442 47.7978 173.063 47.3387 145.41 59.6255C117.758 71.9122 71.3782 69.9024 71.3782 69.9024Z" fill="#8DD070"/>
<path opacity="0.1" d="M144.989 107.256C150.44 106.617 153.678 97.1815 152.222 86.1807C150.766 75.1799 145.167 66.7799 139.717 67.4188C134.266 68.0577 131.028 77.4935 132.484 88.4943C133.94 99.4951 139.539 107.895 144.989 107.256Z" fill="black"/>
<path opacity="0.2" d="M197.008 10.4958C197.008 10.4958 145.961 22.6536 121.89 44.0536C97.8178 65.4537 47.1431 75.5867 47.1431 75.5867C47.1431 75.5867 53.8188 96.2027 59.9937 101.78C66.1685 107.358 77.8801 136.219 77.8801 136.219C77.8801 136.219 119.741 127.867 144.999 110.628C170.257 93.3891 229.124 71.6169 229.124 71.6169L197.008 10.4958Z" fill="black"/>
<path d="M46.3755 72.5002C46.3755 72.5002 53.0486 93.1186 59.2182 98.6963C65.3877 104.274 77.1046 133.132 77.1046 133.132C77.1046 133.132 118.971 124.783 144.232 107.544C169.492 90.305 228.354 68.5402 228.354 68.5402L196.238 7.41174C196.238 7.41174 145.194 19.5695 121.122 40.9695C97.0502 62.3696 46.3755 72.5002 46.3755 72.5002Z" fill="#8DD070"/>
<path opacity="0.1" d="M46.3755 72.5002C46.3755 72.5002 53.0486 93.1186 59.2182 98.6963C65.3877 104.274 77.1046 133.132 77.1046 133.132C77.1046 133.132 118.971 124.783 144.232 107.544C169.492 90.305 228.354 68.5402 228.354 68.5402L196.238 7.41174C196.238 7.41174 145.194 19.5695 121.122 40.9695C97.0502 62.3696 46.3755 72.5002 46.3755 72.5002Z" fill="black"/>
<path d="M57.9001 77.2739C57.9001 77.2739 62.4324 94.585 67.4656 99.0263C72.4988 103.468 80.9121 127.56 80.9121 127.56C80.9121 127.56 117.914 118.087 141.002 101.909C164.09 85.7322 216.748 63.831 216.748 63.831L192.568 13.1854C192.568 13.1854 147.327 26.4274 125.014 46.108C102.701 65.7886 57.9001 77.2739 57.9001 77.2739Z" fill="#8DD070"/>
<path opacity="0.1" d="M140.148 91.5674C145.127 89.3854 145.133 79.4697 140.16 69.4201C135.187 59.3705 127.119 52.9926 122.14 55.1745C117.161 57.3565 117.156 67.2722 122.129 77.3218C127.101 87.3714 135.169 93.7494 140.148 91.5674Z" fill="black"/>
<path opacity="0.1" d="M167.884 80.301V165.901C167.884 166.873 167.681 167.836 167.285 168.734C166.89 169.632 166.31 170.448 165.58 171.136C164.849 171.823 163.982 172.368 163.027 172.74C162.073 173.112 161.05 173.303 160.017 173.303H24.7612C22.6757 173.302 20.6759 172.522 19.2016 171.134C17.7272 169.746 16.8989 167.864 16.8989 165.901V71.6715C20.7747 73.0262 20.7747 73.0262 24.7612 72.9121H160.017C162.101 72.9121 164.099 73.6901 165.574 75.0754C167.049 76.4606 167.88 78.34 167.884 80.301V80.301Z" fill="black"/>
<path d="M167.884 81.3902V166.99C167.884 168.954 167.054 170.836 165.579 172.224C164.104 173.612 162.103 174.392 160.017 174.392H24.7612C22.6757 174.391 20.6759 173.611 19.2016 172.223C17.7272 170.835 16.8989 168.953 16.8989 166.99V72.7582C20.7747 74.1104 20.7747 74.1104 24.7612 73.9988H160.017C162.101 73.9988 164.1 74.7771 165.575 76.1629C167.05 77.5487 167.881 79.4287 167.884 81.3902V81.3902Z" fill="#504F60"/>
<path opacity="0.1" d="M167.5 113.037V140.412H139.288C135.465 140.364 131.815 138.9 129.13 136.339C126.444 133.777 124.938 130.323 124.938 126.725C124.938 123.126 126.444 119.672 129.13 117.111C131.815 114.549 135.465 113.086 139.288 113.037H167.5Z" fill="black"/>
<path d="M167.885 112.308V139.688H139.673C135.85 139.639 132.2 138.176 129.515 135.614C126.829 133.052 125.323 129.599 125.323 126C125.323 122.402 126.829 118.948 129.515 116.386C132.2 113.825 135.85 112.361 139.673 112.313L167.885 112.308Z" fill="#33323D"/>
<path opacity="0.1" d="M141.026 132.063C144.158 132.063 146.697 129.673 146.697 126.726C146.697 123.778 144.158 121.389 141.026 121.389C137.894 121.389 135.354 123.778 135.354 126.726C135.354 129.673 137.894 132.063 141.026 132.063Z" fill="black"/>
<path d="M141.411 131.339C144.543 131.339 147.082 128.949 147.082 126.002C147.082 123.054 144.543 120.665 141.411 120.665C138.279 120.665 135.74 123.054 135.74 126.002C135.74 128.949 138.279 131.339 141.411 131.339Z" fill="white"/>
<path d="M216.853 112.072C217.077 114.357 215.239 116.576 215.775 118.814C215.891 119.292 216.109 119.744 216.189 120.228C216.41 121.558 215.569 122.816 214.765 123.927L207.857 133.465C207.58 133.884 207.249 134.269 206.871 134.611C205.553 135.718 203.57 135.604 201.835 135.934C200.615 136.167 199.464 136.646 198.46 137.338C198.418 137.372 198.392 137.419 198.386 137.471C198.38 137.523 198.395 137.575 198.429 137.616C198.715 137.983 199.095 138.277 199.534 138.471C199.972 138.665 200.455 138.752 200.939 138.725C201.121 138.951 200.939 139.281 200.675 139.442C200.303 139.69 199.794 139.75 199.721 140.34C199.694 140.546 199.739 140.755 199.847 140.936C200.125 141.337 200.558 141.621 201.055 141.727C203.446 142.414 206.03 141.206 207.82 139.561C209.61 137.916 210.894 135.839 212.65 134.165C213.623 133.239 214.728 132.445 215.73 131.547C217.728 129.756 219.281 127.577 220.781 125.396C221.232 124.739 221.686 124.064 221.876 123.302C222.065 122.54 221.976 121.771 222.189 121.034C222.469 120.067 223.22 119.297 223.845 118.486C225.071 116.898 225.889 114.955 225.728 113C225.567 111.045 224.278 109.112 222.316 108.447C221.708 108.218 221.037 108.179 220.404 108.338C219.6 108.571 219.007 109.197 218.459 109.795L217.14 111.221C216.812 111.534 216.552 111.905 216.376 112.313C216.291 112.518 216.271 112.741 216.318 112.956C216.365 113.171 216.476 113.369 216.639 113.526" fill="#FBBEBE"/>
<path opacity="0.05" d="M216.853 112.072C217.077 114.357 215.239 116.576 215.775 118.814C215.891 119.292 216.109 119.744 216.189 120.228C216.41 121.558 215.569 122.816 214.765 123.927L207.857 133.465C207.58 133.884 207.249 134.269 206.871 134.611C205.553 135.718 203.57 135.604 201.835 135.934C200.615 136.167 199.464 136.646 198.46 137.338C198.418 137.372 198.392 137.419 198.386 137.471C198.38 137.523 198.395 137.575 198.429 137.616C198.715 137.983 199.095 138.277 199.534 138.471C199.972 138.665 200.455 138.752 200.939 138.725C201.121 138.951 200.939 139.281 200.675 139.442C200.303 139.69 199.794 139.75 199.721 140.34C199.694 140.546 199.739 140.755 199.847 140.936C200.125 141.337 200.558 141.621 201.055 141.727C203.446 142.414 206.03 141.206 207.82 139.561C209.61 137.916 210.894 135.839 212.65 134.165C213.623 133.239 214.728 132.445 215.73 131.547C217.728 129.756 219.281 127.577 220.781 125.396C221.232 124.739 221.686 124.064 221.876 123.302C222.065 122.54 221.976 121.771 222.189 121.034C222.469 120.067 223.22 119.297 223.845 118.486C225.071 116.898 225.889 114.955 225.728 113C225.567 111.045 224.278 109.112 222.316 108.447C221.708 108.218 221.037 108.179 220.404 108.338C219.6 108.571 219.007 109.197 218.459 109.795L217.14 111.221C216.812 111.534 216.552 111.905 216.376 112.313C216.291 112.518 216.271 112.741 216.318 112.956C216.365 113.171 216.476 113.369 216.639 113.526" fill="black"/>
<path d="M222.082 170.901C220.573 171.767 218.694 171.819 216.94 171.618C216.658 171.585 216.323 171.566 216.149 171.772C215.886 172.069 216.197 172.516 216.518 172.747C217.553 173.477 218.768 173.948 220.049 174.114C221.193 174.266 222.347 174.339 223.503 174.33C226.667 174.382 229.83 174.431 232.944 174.005C233.129 173.991 233.308 173.942 233.472 173.861C233.672 173.728 233.812 173.528 233.862 173.302C234.075 172.538 233.664 171.719 233.042 171.188C232.42 170.658 231.621 170.362 230.84 170.077L228.098 169.072C227.455 168.836 226.424 168.211 225.725 168.261C224.412 168.35 223.17 170.3 222.082 170.901Z" fill="#3F3D56"/>
<path opacity="0.05" d="M222.082 170.901C220.573 171.767 218.694 171.819 216.94 171.618C216.658 171.585 216.323 171.566 216.149 171.772C215.886 172.069 216.197 172.516 216.518 172.747C217.553 173.477 218.768 173.948 220.049 174.114C221.193 174.266 222.347 174.339 223.503 174.33C226.667 174.382 229.83 174.431 232.944 174.005C233.129 173.991 233.308 173.942 233.472 173.861C233.672 173.728 233.812 173.528 233.862 173.302C234.075 172.538 233.664 171.719 233.042 171.188C232.42 170.658 231.621 170.362 230.84 170.077L228.098 169.072C227.455 168.836 226.424 168.211 225.725 168.261C224.412 168.35 223.17 170.3 222.082 170.901Z" fill="black"/>
<path d="M224.004 136.646C222.862 138.075 221.681 139.725 221.963 141.494C222.116 142.447 222.683 143.288 223.099 144.168C223.663 145.364 223.959 146.65 224.249 147.93C224.676 149.801 225.106 151.677 225.367 153.577C225.665 155.723 224.265 161.934 224.135 164.095C224.104 164.616 224.038 165.179 223.653 165.554C223.503 165.703 223.302 165.822 223.234 166.015C223.194 166.202 223.226 166.395 223.326 166.561C223.969 167.926 225.285 168.943 226.754 169.524C228.222 170.104 231.763 171.106 233.363 171.159C233.574 171.18 233.788 171.154 233.986 171.082C234.198 170.959 234.366 170.778 234.465 170.563C235.612 168.499 234.51 161.16 234.526 158.83C234.542 156.887 235.03 154.957 234.94 153.016C234.866 151.458 234.413 149.935 234.262 148.382C233.999 145.836 234.494 143.278 234.993 140.762C235.372 138.832 235.755 136.901 236.242 134.996C236.54 133.832 236.886 132.658 237.561 131.649C238.088 130.847 238.829 130.177 239.443 129.415C241.148 127.312 241.906 124.661 241.552 122.037C241.516 121.788 237.598 122.972 237.252 123.113C235.843 123.675 234.546 124.46 233.419 125.433C232.512 126.247 231.797 127.334 231.004 128.244C229.88 129.533 228.771 130.831 227.676 132.137C226.427 133.631 225.202 135.134 224.004 136.646Z" fill="#464353"/>
<path opacity="0.05" d="M224.004 136.559C222.862 137.988 221.681 139.64 221.963 141.407C222.116 142.362 222.683 143.203 223.099 144.084C223.663 145.278 223.959 146.565 224.249 147.843C224.676 149.716 225.106 151.592 225.367 153.49C225.665 155.639 224.265 161.847 224.135 164.008C224.104 164.529 224.038 165.095 223.653 165.469C223.503 165.616 223.302 165.735 223.234 165.928C223.193 166.115 223.226 166.309 223.326 166.474C223.969 167.841 225.285 168.856 226.754 169.452C228.222 170.047 231.763 170.566 233.363 170.615C233.574 170.637 233.788 170.611 233.986 170.538C234.199 170.418 234.367 170.237 234.465 170.022C235.612 167.958 234.51 161.09 234.526 158.758C234.542 156.813 235.03 154.885 234.94 152.942C234.866 151.384 234.413 149.86 234.262 148.31C233.999 145.761 234.494 143.203 234.993 140.688C235.372 138.76 235.755 136.829 236.242 134.921C236.54 133.758 236.886 132.584 237.561 131.574C238.088 130.773 238.829 130.103 239.443 129.341C241.149 127.238 241.906 124.587 241.553 121.962C241.516 121.714 237.598 122.898 237.252 123.039C235.843 123.602 234.547 124.388 233.419 125.361C232.512 126.173 231.797 127.259 231.004 128.17C229.88 129.459 228.771 130.757 227.676 132.065C226.427 133.548 225.202 135.045 224.004 136.559Z" fill="black"/>
<path d="M211.301 105.17C214.835 105.17 217.699 102.474 217.699 99.148C217.699 95.8223 214.835 93.1262 211.301 93.1262C207.767 93.1262 204.902 95.8223 204.902 99.148C204.902 102.474 207.767 105.17 211.301 105.17Z" fill="#FBBEBE"/>
<path d="M217.064 98.8948C217.655 99.7822 218.43 100.548 219.343 101.148C220.256 101.747 221.288 102.167 222.377 102.383L221.894 104.033C221.061 106.867 220.125 109.864 217.8 111.829C218.063 110.869 217.726 109.844 217.151 109.01C216.576 108.177 215.769 107.522 214.978 106.874L211.295 103.872C211.189 103.791 211.099 103.691 211.032 103.579C210.941 103.368 210.941 103.131 211.032 102.919C211.501 101.545 212.84 100.686 213.932 99.7582C214.479 99.2783 214.969 98.7424 215.39 98.1603C216.125 97.1728 216.581 98.1653 217.064 98.8948Z" fill="#FBBEBE"/>
<path d="M202.871 93.0939L202.726 91.9625C203.736 92.2106 204.696 91.4017 205.342 90.5656C205.988 89.7294 206.586 88.7444 207.57 88.3946C208.764 87.9728 210.03 88.6427 211.171 89.2084C212.45 89.8758 213.852 90.3054 215.303 90.4738C215.534 90.481 215.764 90.516 215.986 90.578C216.729 90.8261 217.083 91.7044 217.191 92.5009C217.299 93.2974 217.27 94.1434 217.636 94.853C217.9 95.3915 218.39 95.7909 218.691 96.3219C219.482 97.7461 218.717 99.6938 219.543 101.091L217.491 99.3216C217.304 99.1603 217.04 98.9916 216.832 99.1281C216.669 99.2373 216.655 99.473 216.59 99.6615C216.392 100.212 215.659 100.376 215.129 100.158C214.599 99.9394 214.211 99.4655 213.811 99.0338C212.904 98.0265 211.823 97.1407 210.557 96.7114C210.002 96.5163 209.41 96.4344 208.819 96.4712C208.228 96.5079 207.652 96.6626 207.13 96.9248C206.172 97.4335 205.471 98.6195 204.298 98.6616C202.69 98.7187 202.02 95.9001 201.276 94.7861C201.548 94.5934 201.74 94.3168 201.817 94.0047C201.894 93.6926 201.852 93.3649 201.698 93.079C201.806 93.0368 202.848 92.9202 202.871 93.0939Z" fill="#464353"/>
<path d="M123.724 57.8885C123.21 58.3189 122.735 58.7886 122.303 59.2928C121.869 59.8041 121.637 60.4421 121.649 61.0967C121.652 61.2865 121.716 61.471 121.834 61.6251C121.894 61.6989 121.977 61.7531 122.072 61.7803C122.166 61.8074 122.268 61.8061 122.361 61.7765C122.467 61.7257 122.558 61.6506 122.625 61.5582C122.904 61.243 123.199 60.9416 123.511 60.655C123.624 60.5483 123.774 60.4367 123.927 60.4764C123.996 60.4993 124.057 60.5376 124.107 60.588C124.284 60.7323 124.413 60.9219 124.478 61.1339C124.571 61.5135 124.336 61.8931 124.07 62.1909C123.803 62.4886 123.49 62.7739 123.382 63.1486C123.341 63.2475 123.341 63.3573 123.382 63.4562C123.433 63.5278 123.504 63.5846 123.587 63.62C123.965 63.8156 124.383 63.9308 124.814 63.9574C125.244 63.984 125.675 63.9213 126.076 63.7738C126.603 63.5729 127.073 63.228 127.616 63.0493C127.851 62.9888 128.079 62.9056 128.296 62.8012C128.452 62.7039 128.585 62.5786 128.688 62.4325C128.792 62.2865 128.864 62.1225 128.9 61.9502C128.968 61.6058 128.982 61.2537 128.939 60.9056C128.874 59.5577 128.567 58.2299 128.032 56.9779C128.002 56.8972 127.949 56.8254 127.88 56.7695C127.8 56.724 127.709 56.7008 127.616 56.7025C126.941 56.6355 125.834 56.3105 125.182 56.5462C124.955 56.6637 124.758 56.8283 124.608 57.0275C124.486 57.1541 123.724 57.7223 123.724 57.8885Z" fill="#FBBEBE"/>
<path d="M123.511 57.3279C123.511 56.7224 122.72 55.261 123.978 55.1643C123.978 54.5167 123.005 54.1147 123.187 53.4275C123.245 53.1992 123.45 53.0131 123.474 52.7799C123.553 52.1174 122.282 51.7576 122.493 51.1225C122.572 50.8743 122.852 50.7304 122.913 50.4848C123.055 49.9116 121.966 49.6561 121.945 49.0681C121.945 48.8696 122.064 48.6835 122.053 48.485C122.053 48.2369 121.824 48.0483 121.697 47.8324C121.367 47.2791 121.528 46.4231 120.927 46.1378C121.325 46.1701 121.454 45.6143 121.291 45.2744C121.128 44.9344 120.793 44.6392 120.79 44.262C120.81 44.1254 120.81 43.9868 120.79 43.8502C120.679 43.4879 120.049 43.4581 119.944 43.1058C119.93 42.9706 119.926 42.8347 119.931 42.6989C119.888 42.4185 119.583 42.2399 119.295 42.1605C118.997 42.1128 118.709 42.0162 118.446 41.8752C118.262 41.7437 118.048 41.5253 117.85 41.627C117.776 41.6692 117.74 41.7486 117.684 41.8082C117.447 42.0687 116.993 41.9546 116.695 41.7635C115.815 41.2003 115.377 40.1904 115.19 39.2054C115.003 38.2204 115.008 37.2031 114.773 36.228C114.702 35.9241 114.607 35.6256 114.489 35.3348C114.388 35.0867 114.067 34.6971 114.046 34.4466C113.998 33.8759 115.253 34.2654 115.731 34.3225C116.194 34.3651 116.652 34.4481 117.099 34.5706C117.576 34.7402 118.043 34.9332 118.499 35.1487C120.403 35.9402 122.702 36.037 124.231 37.3669C124.734 37.8036 125.159 38.3767 125.813 38.5752C126.113 38.6293 126.409 38.7014 126.699 38.7911C127.424 39.1111 127.537 40.0168 127.933 40.6718C128.057 40.8448 128.165 41.0274 128.257 41.2176C128.333 41.442 128.369 41.6769 128.362 41.9124L128.418 43.6318C128.507 46.5125 128.597 49.4005 128.27 52.2638C128.165 53.2091 128.006 54.1817 128.304 55.0898C128.383 55.338 128.494 55.5712 128.568 55.8218C128.633 56.1156 128.667 56.4149 128.668 56.715L128.71 57.829C128.725 57.9157 128.704 58.0043 128.652 58.0772C128.608 58.1108 128.557 58.1348 128.501 58.1472C128.446 58.1597 128.389 58.1603 128.333 58.1491C126.685 58.0102 125.019 57.1368 123.464 57.6653" fill="#464353"/>
<path d="M198.711 142.928C209.48 142.928 218.211 141.74 218.211 140.276C218.211 138.811 209.48 137.623 198.711 137.623C187.941 137.623 179.211 138.811 179.211 140.276C179.211 141.74 187.941 142.928 198.711 142.928Z" fill="#504F60"/>
<path d="M215.487 140.405C215.145 139.023 214.931 137.809 214.931 137.809C214.931 137.809 215.01 136.306 214.293 135.177V134.8V132.021C214.497 131.516 214.747 131.029 215.039 130.564C215.566 129.691 215.039 126.49 215.039 126.49C215.039 126.49 213.07 121.977 213.547 119.114C214.024 116.251 209.502 106.4 209.502 106.4C209.53 105.45 209.673 104.506 209.927 103.587C209.975 103.393 209.995 103.195 209.985 102.996C209.985 102.971 209.985 102.949 209.985 102.924C209.985 102.899 209.985 102.939 209.985 102.947C209.916 101.058 208.329 97.5202 208.329 97.5202L208.543 90.7764C208.543 90.7764 209.555 86.8066 207.905 81.4597C207.327 79.5963 206.958 78.1051 206.723 76.9539C206.697 76.8248 206.671 76.7057 206.65 76.5792C210.048 76.083 212.645 75.686 212.645 75.686C212.645 75.686 210.673 67.9224 209.341 66.5627C208.01 65.2031 206.945 60.933 206.945 60.933C206.945 60.933 206.251 55.4521 207.372 53.8493C208.492 52.2464 208.651 49.4824 208.651 49.4824C208.651 49.4824 211.206 47.7456 211.527 46.9591C211.849 46.1725 212.379 44.4357 212.379 43.5152C212.379 42.5947 212.06 41.7784 212.165 41.2822C212.271 40.7859 211.419 38.9523 211.846 38.079C211.957 37.8107 212.014 37.5256 212.015 37.2379C212.016 37.2296 212.016 37.2213 212.015 37.213C212.015 37.213 212.015 37.213 212.015 37.213C212.019 36.4488 211.944 35.6859 211.791 34.9353C211.052 34.3481 210.189 33.9143 209.26 33.6625L209.204 33.4541L209.059 32.9082C208.978 32.8579 208.895 32.8115 208.809 32.7693V32.5708L208.785 31.7818L209.186 30.0102C209.977 26.9286 205.603 26.4696 205.603 26.4696C205.338 25.9969 204.896 25.6329 204.364 25.4474C203.486 25.1571 204.219 30.0822 204.627 30.4097C204.936 30.6578 205.89 32.1912 206.352 32.9504L206.425 33.0745C206.353 33.1356 206.286 33.2019 206.225 33.2729L206.391 34.3423L206.418 34.5061C206.128 34.8449 205.892 35.2219 205.719 35.6251C205.719 35.6251 206.51 36.4488 206.36 37.3619C206.209 38.275 206.605 39.4337 206.623 39.4957C206.576 39.4436 206.014 38.8729 205.453 39.0119C204.891 39.1508 203.322 39.595 203.322 39.595C203.322 39.595 202.152 39.7885 202.268 40.0316C202.384 40.2748 201.477 41.3417 201.477 41.3417L198.329 38.533C198.297 38.4487 198.263 38.3643 198.236 38.2849C198.108 37.8799 198.02 37.4646 197.973 37.0443C198.316 36.9676 198.652 36.8672 198.98 36.7441C199.311 36.6372 199.609 36.4568 199.85 36.2181C200.169 35.8633 200.23 35.3819 200.359 34.9403C200.607 34.0768 201.15 33.3102 201.527 32.4889C202.165 31.1011 202.371 29.5711 202.12 28.0774C202.072 27.6171 201.906 27.1745 201.637 26.7872C201.123 26.1222 200.19 25.8518 199.512 25.3208C198.835 24.7898 198.397 23.9785 197.606 23.584C196.892 23.2242 196.024 23.2664 195.217 23.3905C193.642 23.635 192.128 24.1533 190.754 24.9189C190.295 25.167 189.789 25.4722 189.261 25.3804C188.808 25.3034 188.47 24.9635 188.186 24.636C188.189 24.6225 188.193 24.6092 188.199 24.5963C188.186 24.5842 188.175 24.5709 188.165 24.5566C187.831 25.2534 187.664 26.0106 187.674 26.7748C187.674 26.8939 187.674 27.0229 187.69 27.1296V27.2536C187.69 27.2884 187.69 27.3231 187.69 27.3554C187.69 27.4083 187.682 27.4609 187.666 27.5117C187.6 27.6635 187.499 27.7998 187.371 27.9112C187.274 28.0146 187.186 28.1249 187.107 28.2411C187.107 28.2014 187.134 28.1617 187.15 28.1196C186.948 28.3958 186.835 28.7203 186.823 29.055C186.808 29.2986 186.893 29.5383 187.06 29.7249C187.218 29.8691 187.39 29.9987 187.574 30.1119C187.511 30.4395 187.48 30.7716 187.479 31.1044C187.485 32.091 187.761 33.0595 188.281 33.9163C188.802 34.773 189.548 35.4889 190.448 35.9948C190.485 36.0767 190.519 36.161 190.553 36.2429C190.957 37.2354 191.26 38.4015 191.125 39.4684C191.125 39.5453 191.102 39.6247 191.089 39.7016C191.075 39.7786 191.009 39.7835 190.975 39.8257C190.975 39.8257 185.773 39.8753 184.55 38.8332C183.327 37.7911 181.46 41.3814 181.46 41.3814C181.46 41.3814 179.596 41.7213 179.221 41.3814C178.847 41.0415 176.667 41.3343 176.667 41.3343C175.773 40.5866 174.611 40.1874 173.416 40.2177C172.692 39.6999 171.893 39.2821 171.043 38.9771V38.9771L170.985 38.9573C170.61 38.8286 170.209 38.7812 169.811 38.8184C169.811 38.8184 167.254 36.8334 166.508 35.7616C165.762 34.6897 162.21 30.7322 162.194 30.7149V30.5238L162.155 29.9482C162.049 29.9638 161.943 29.9721 161.836 29.973C161.817 29.9159 161.791 29.8489 161.765 29.772C161.56 29.2105 161.308 28.6654 161.011 28.1419C161.011 28.1419 161.011 27.4149 161.235 27.2313C161.459 27.0477 161.142 24.3804 161.142 24.3804C161.142 24.3804 158.838 19.3114 156.774 23.0952C156.774 23.0952 152.872 25.5441 156.146 28.3975C156.146 28.3975 157.464 28.9929 157.638 29.4644C157.76 29.7695 158.203 30.6255 158.501 31.2012L158.635 31.4493L158.598 31.4791L158.646 31.9554L158.667 32.1391C158.05 32.4691 157.631 32.7966 157.733 33.0422C157.915 33.4625 158.04 33.9027 158.105 34.3523C158.105 34.3523 162.635 39.6917 163.22 41.9719C163.22 41.9719 175.367 48.7653 179.361 49.2492L178.655 52.636C178.552 53.555 178.499 54.4784 178.496 55.4025C178.549 56.1294 178.016 59.4294 178.016 59.4294C178.016 59.4294 177.323 64.2826 176.738 64.9624C176.152 65.6422 176.258 68.5526 176.258 68.5526C176.12 69.9459 175.855 71.3255 175.467 72.6763C174.882 74.5198 175.306 76.8025 175.306 76.8025C175.306 76.8025 173.284 81.1694 178.13 78.2093C178.13 78.2093 180.503 78.0704 183.25 77.9811C183.25 78.0654 183.25 78.1523 183.25 78.2292C183.25 78.5617 183.25 78.9214 183.232 79.2986C183.195 81.7996 183.179 85.2534 183.3 87.8536C183.514 92.4636 185.006 101.587 185.006 101.587V106.18C184.91 106.61 184.862 107.049 184.864 107.49C184.832 109.105 185.289 110.697 186.182 112.077L186.556 115.134C186.556 115.134 187.432 117.149 187.447 118.36C187.444 118.457 187.432 118.554 187.411 118.65C187.376 118.804 187.362 118.961 187.368 119.119C187.318 120.508 188.207 123.833 188.207 123.833C188.207 123.833 188.26 127.18 188.792 127.376C189.248 127.542 188.183 129.304 187.867 129.81C187.858 129.779 187.852 129.748 187.848 129.716L187.782 129.815C187.672 130.086 187.616 130.374 187.616 130.664C187.586 130.892 187.626 131.124 187.73 131.332C187.835 131.54 188 131.716 188.207 131.84C189.219 132.423 189.762 132.907 188.903 133.1C188.587 133.146 188.273 133.208 187.964 133.286C187.964 133.249 187.933 133.209 187.919 133.175C187.798 133.219 187.697 133.302 187.633 133.409C187.569 133.515 187.546 133.639 187.569 133.76C187.577 134.154 187.684 134.54 187.882 134.887C188.734 136.683 189.325 137.368 189.325 137.368L189.733 137.326C189.673 137.473 189.593 137.612 189.496 137.74C189.341 137.948 189.134 138.118 188.895 138.236C188.672 138.362 188.423 138.442 188.165 138.472C187.876 138.481 187.592 138.547 187.332 138.666C187.073 138.784 186.842 138.953 186.656 139.162C186.129 139.809 185.792 140.69 186.841 141.464L190.651 142.705C190.651 142.705 197.205 143.506 196.857 142.122C196.509 140.737 196.298 139.526 196.298 139.526C196.327 138.681 196.146 137.841 195.771 137.073C195.702 136.947 195.625 136.826 195.539 136.71L195.771 136.688C195.771 136.688 196.251 133.629 196.889 133.048C197.037 132.914 197.071 132.8 197.037 132.73C197.103 132.564 196.934 132.467 196.72 132.41L196.673 132.532C196.464 132.489 196.251 132.467 196.037 132.465C196.037 132.465 195.824 130.865 196.517 130.282C196.573 130.215 196.614 130.138 196.637 130.057C196.66 129.975 196.665 129.889 196.652 129.805C196.657 129.586 196.632 129.366 196.578 129.153C196.571 129.166 196.563 129.18 196.554 129.192C196.206 127.738 195.025 125.428 195.025 125.428C195.025 125.428 194.972 123.974 195.399 123.391C195.826 122.808 195.344 115.481 195.344 115.481C195.344 115.481 195.505 111.941 195.025 110.291C194.545 108.641 195.61 106.698 195.61 106.698C195.61 106.698 195.61 106.661 195.61 106.594V106.569L195.55 106.011C195.548 106.022 195.548 106.034 195.55 106.046C195.442 105.108 195.239 103.408 195.088 102.624C194.875 101.507 195.144 96.173 195.144 96.173L196.101 93.8903L197.807 97.8229L199.618 103.063C199.618 103.063 200.514 104.17 200.535 105.296C200.535 105.351 200.535 105.405 200.535 105.46C200.521 105.576 200.514 105.693 200.514 105.81C200.482 106.472 200.675 107.126 201.065 107.678C201.065 107.678 201.545 110.159 202.291 110.782C203.037 111.405 203.037 112.626 203.037 112.626C203.037 112.626 203.942 116.218 204.356 116.844C204.714 117.375 204.733 118.828 204.73 119.283C204.73 119.364 204.73 119.412 204.73 119.412C204.73 119.412 204.857 120.697 204.851 121.774C204.851 121.908 204.851 122.037 204.851 122.158C204.853 122.149 204.853 122.14 204.851 122.131C204.851 122.425 204.814 122.718 204.741 123.004L204.725 123.054C204.725 122.992 204.725 122.932 204.743 122.873C204.558 123.604 204.469 124.354 204.48 125.106C204.456 126.396 204.664 127.924 205.495 128.828C206.934 130.381 207.839 130.187 207.839 130.187C207.839 130.187 207.148 132.128 206.294 132.517C206.261 132.531 206.231 132.55 206.204 132.572C206.204 132.532 206.188 132.495 206.183 132.458C206.088 132.554 206.015 132.669 205.97 132.794C205.924 132.918 205.907 133.051 205.919 133.182C205.859 134.036 206.431 135.415 206.974 136.058C207.176 136.244 207.423 136.38 207.694 136.455C207.651 136.483 207.606 136.509 207.559 136.532C207.464 136.581 207.367 136.625 207.266 136.663C207.128 136.719 206.981 136.754 206.831 136.77C206.542 136.777 206.258 136.842 205.998 136.961C205.738 137.08 205.508 137.25 205.323 137.46C204.796 138.105 204.459 138.985 205.508 139.76L209.318 141C209.318 141 215.83 141.787 215.487 140.405Z" fill="url(#paint0_linear)"/>
<path d="M190.464 142.697L186.773 141.457C185.755 140.682 186.079 139.802 186.593 139.154C186.77 138.948 186.992 138.779 187.244 138.66C187.496 138.541 187.772 138.474 188.054 138.464C188.304 138.434 188.544 138.354 188.758 138.229C188.992 138.109 189.192 137.939 189.343 137.732C189.612 137.33 189.758 136.865 189.762 136.39C189.762 136.39 193.812 135.274 194.92 136.39C195.117 136.592 195.282 136.82 195.41 137.067C195.778 137.838 195.958 138.677 195.937 139.521C195.937 139.521 196.143 140.732 196.478 142.117C196.813 143.501 190.464 142.697 190.464 142.697Z" fill="#2D293D"/>
<path d="M208.508 140.985L204.817 139.745C203.799 138.971 204.124 138.09 204.638 137.445C204.814 137.237 205.035 137.068 205.287 136.949C205.538 136.83 205.814 136.764 206.096 136.755C206.242 136.741 206.384 136.705 206.518 136.648C206.615 136.61 206.71 136.566 206.803 136.517C207.833 135.983 207.807 134.673 207.807 134.673C207.807 134.673 211.854 133.557 212.964 134.673C213.113 134.824 213.243 134.991 213.352 135.169C214.045 136.298 213.969 137.804 213.969 137.804C213.969 137.804 214.174 139.018 214.496 140.4C214.818 141.782 208.508 140.985 208.508 140.985Z" fill="#2D293D"/>
<path opacity="0.1" d="M194.922 136.388C195.12 136.59 195.285 136.818 195.413 137.065L189.348 137.727C189.618 137.325 189.763 136.86 189.768 136.385C189.768 136.385 193.815 135.271 194.922 136.388Z" fill="black"/>
<path opacity="0.1" d="M213.357 135.174V136.244C212.413 137.705 207.849 137.385 206.523 136.653C206.621 136.615 206.716 136.571 206.808 136.522C207.839 135.988 207.812 134.678 207.812 134.678C207.812 134.678 211.86 133.562 212.97 134.678C213.118 134.829 213.248 134.996 213.357 135.174V135.174Z" fill="black"/>
<path d="M214.077 130.564C213.795 131.03 213.554 131.518 213.357 132.021V135.854C212.324 137.455 206.964 136.921 206.239 136.048C205.513 135.174 204.757 132.902 205.571 132.507C206.386 132.113 207.066 130.177 207.066 130.177C207.066 130.177 206.188 130.371 204.796 128.818C203.404 127.264 203.818 123.821 204.077 122.997C204.335 122.173 204.077 119.407 204.077 119.407C204.077 119.407 204.129 117.464 203.718 116.834C203.307 116.203 202.429 112.616 202.429 112.616C202.429 112.616 202.429 111.402 201.706 110.772C200.984 110.142 200.52 107.666 200.52 107.666C200.097 107.047 199.916 106.31 200.006 105.579C200.159 104.366 199.128 103.056 199.128 103.056L197.374 97.813L195.724 93.8829L194.796 96.1631C194.796 96.1631 194.532 101.5 194.746 102.614C194.959 103.728 195.273 106.691 195.273 106.691C195.273 106.691 194.242 108.631 194.706 110.281C195.17 111.931 195.001 115.476 195.001 115.476C195.001 115.476 195.466 122.801 195.052 123.384C194.638 123.967 194.69 125.423 194.69 125.423C194.69 125.423 196.8 129.691 196.135 130.274C195.471 130.857 195.671 132.458 195.671 132.458C195.671 132.458 197.113 132.458 196.496 133.041C195.879 133.624 195.413 136.68 195.413 136.68L189.177 137.368C189.177 137.368 188.608 136.69 187.783 134.887C186.957 133.083 187.935 133.286 188.766 133.09C189.597 132.894 189.072 132.413 188.091 131.83C187.11 131.247 187.68 129.937 187.68 129.937C187.68 129.937 189.175 127.56 188.658 127.366C188.141 127.173 188.091 123.823 188.091 123.823C188.091 123.823 187.06 119.853 187.319 118.776C187.577 117.7 186.493 115.139 186.493 115.139L186.132 112.082C185.029 110.348 184.626 108.297 184.998 106.306V101.592C184.998 101.592 183.554 92.4711 183.348 87.8611C183.216 84.9085 183.253 80.8791 183.295 78.3657C183.321 76.9564 183.348 76.0209 183.348 76.0209L205.622 73.8375C205.622 73.8375 205.6 74.8052 206.025 76.9514C206.254 78.1026 206.61 79.5938 207.169 81.4572C208.767 86.7942 207.789 90.7715 207.789 90.7715L207.581 97.5178C207.581 97.5178 209.54 102.029 209.128 103.582C208.88 104.504 208.74 105.449 208.712 106.4C208.712 106.4 213.094 116.251 212.63 119.114C212.166 121.977 214.072 126.49 214.072 126.49C214.072 126.49 214.594 129.691 214.077 130.564Z" fill="#464353"/>
<path opacity="0.05" d="M201.342 105.286L208.123 104.435C208.123 104.435 204.282 108.125 201.342 105.286Z" fill="black"/>
<path opacity="0.1" d="M207.143 98.2001C207.143 98.2001 207.375 100.458 205.906 101.306C205.906 101.306 208.535 100.919 207.143 98.2001Z" fill="black"/>
<path opacity="0.1" d="M206.726 91.0197C206.726 91.0197 201.057 95.4113 198.996 95.0466C196.934 94.6819 206.726 91.0197 206.726 91.0197Z" fill="black"/>
<path opacity="0.1" d="M192.937 107.346C192.937 107.346 188.631 108.266 188.502 109.894C188.373 111.521 192.937 107.346 192.937 107.346Z" fill="black"/>
<path opacity="0.05" d="M193.884 127.582C193.884 127.582 187.801 128.649 189.528 129.376C191.255 130.103 194.092 130.686 194.092 130.686C194.092 130.686 196.056 130.783 193.884 127.582Z" fill="black"/>
<g opacity="0.05">
<path opacity="0.05" d="M188.299 130.532C188.146 130.442 188.017 130.321 187.92 130.178C187.824 130.034 187.763 129.872 187.743 129.703L187.68 129.805C187.68 129.805 187.113 131.115 188.093 131.696C188.204 131.763 188.312 131.83 188.41 131.894C188.592 131.862 188.787 131.837 188.974 131.793C189.805 131.599 189.28 131.115 188.299 130.532Z" fill="black"/>
<path opacity="0.05" d="M196.135 130.143C196.304 129.999 196.298 129.627 196.195 129.15C195.932 129.525 195.855 130.11 195.85 130.554C195.914 130.4 196.011 130.26 196.135 130.143V130.143Z" fill="black"/>
<path opacity="0.05" d="M195.199 106.003C194.975 106.577 194.836 107.178 194.788 107.787C194.905 107.366 195.063 106.956 195.26 106.562L195.199 106.003Z" fill="black"/>
<path opacity="0.05" d="M209.13 103.458C209.171 103.283 209.19 103.105 209.186 102.927C209.109 103.289 209.057 103.624 209.017 103.919C209.051 103.768 209.088 103.624 209.13 103.458Z" fill="black"/>
<path opacity="0.05" d="M195.054 123.255C195.138 123.136 195.186 122.734 195.207 122.176C195.016 122.608 194.915 123.07 194.909 123.538C194.945 123.438 194.994 123.343 195.054 123.255V123.255Z" fill="black"/>
<path opacity="0.05" d="M196.32 132.405C196 133.379 195.763 134.374 195.61 135.383L189.375 136.06C189.375 136.06 188.805 135.383 187.98 133.579C187.914 133.44 187.855 133.297 187.803 133.152C187.429 133.313 187.276 133.678 187.772 134.743C188.597 136.539 189.169 137.224 189.169 137.224L195.405 136.544C195.405 136.544 195.869 133.487 196.486 132.904C196.802 132.624 196.607 132.477 196.32 132.405Z" fill="black"/>
<path opacity="0.05" d="M188.093 123.692C188.093 123.692 188.144 127.039 188.66 127.232C188.924 126.679 189.095 126.153 188.863 126.066C188.336 125.873 188.296 122.523 188.296 122.523C188.296 122.523 187.266 118.553 187.524 117.476C187.782 116.399 186.699 113.839 186.699 113.839L186.337 110.782C185.234 109.047 184.832 106.997 185.204 105.006V100.292C185.204 100.292 183.759 91.171 183.553 86.561C183.421 83.6084 183.458 79.579 183.501 77.0655C183.501 76.6115 183.516 76.2095 183.524 75.8696L183.348 75.887C183.348 75.887 183.319 76.8199 183.295 78.2317C183.253 80.7451 183.213 84.7745 183.348 87.7246C183.553 92.3346 184.995 101.458 184.995 101.458V106.172C184.625 108.163 185.029 110.212 186.132 111.946L186.49 115.003C186.49 115.003 187.574 117.573 187.316 118.642C187.057 119.712 188.093 123.692 188.093 123.692Z" fill="black"/>
<path opacity="0.05" d="M206.449 134.753C205.943 134.063 205.605 133.275 205.461 132.448C204.825 132.989 205.556 135.088 206.252 135.921C206.971 136.795 212.334 137.328 213.37 135.725V134.802C211.965 136.1 207.13 135.579 206.449 134.753Z" fill="black"/>
<path opacity="0.05" d="M214.285 129.269C214.002 129.735 213.761 130.222 213.563 130.726V131.413C213.681 131.165 213.848 130.832 214.09 130.44C214.253 130.058 214.33 129.648 214.317 129.237C214.317 129.237 214.293 129.259 214.285 129.269Z" fill="black"/>
<path opacity="0.05" d="M206.765 130.036C206.962 129.662 207.132 129.277 207.274 128.882C207.274 128.882 206.396 129.076 205.004 127.523C203.992 126.394 203.934 124.26 204.079 122.865C203.815 123.692 203.406 127.136 204.799 128.689C205.708 129.704 206.396 129.972 206.765 130.036Z" fill="black"/>
<path opacity="0.05" d="M204.076 119.275C204.167 120.231 204.201 121.191 204.179 122.151C204.205 121.999 204.24 121.849 204.284 121.702C204.548 120.875 204.284 118.111 204.284 118.111C204.284 118.111 204.337 116.169 203.923 115.538C203.509 114.908 202.647 111.316 202.647 111.316C202.647 111.316 202.647 110.102 201.925 109.472C201.202 108.842 200.738 106.366 200.738 106.366C200.312 105.748 200.126 105.011 200.211 104.279C200.367 103.066 199.336 101.756 199.336 101.756L197.582 96.5154L195.932 92.5852L195.001 94.8679C195.001 94.8679 195.001 95.1557 194.969 95.6122L195.724 93.7588L197.374 97.6815L199.127 102.922C199.127 102.922 200.158 104.232 200.003 105.445C199.918 106.177 200.104 106.914 200.53 107.532C200.53 107.532 200.994 110.013 201.716 110.638C202.439 111.263 202.436 112.482 202.436 112.482C202.436 112.482 203.314 116.072 203.726 116.7C204.137 117.327 204.076 119.275 204.076 119.275Z" fill="black"/>
</g>
<path d="M208.406 30.0028L208.018 31.7744L208.042 32.5634L208.058 33.144L205.906 33.3524L205.666 32.9331C205.221 32.1738 204.295 30.6306 203.997 30.3924C203.599 30.0797 202.89 25.1521 203.734 25.4449C204.253 25.6337 204.68 25.997 204.931 26.4647C204.931 26.4647 209.168 26.9212 208.406 30.0028Z" fill="#FFCDD3"/>
<path opacity="0.1" d="M208.057 33.1438L205.906 33.3523L205.666 32.9329C205.955 32.6229 206.35 32.4169 206.783 32.3499C207.215 32.283 207.659 32.3592 208.039 32.5657L208.057 33.1438Z" fill="black"/>
<path d="M208.601 34.1041L205.764 34.7219L205.703 34.3249L205.542 33.2555C205.542 33.2555 206.665 31.8462 208.29 32.9032L208.432 33.4466L208.601 34.1041Z" fill="white"/>
<path d="M162.645 30.1964L159.616 31.7248L159.352 31.1888C159.065 30.6207 158.635 29.7647 158.517 29.452C158.337 28.9806 157.074 28.3851 157.074 28.3851C153.91 25.5343 157.681 23.0829 157.681 23.0829C159.679 19.2991 161.899 24.3681 161.899 24.3681C161.899 24.3681 162.21 27.0403 161.992 27.219C161.773 27.3976 161.773 28.1296 161.773 28.1296C162.061 28.654 162.306 29.199 162.503 29.7597C162.595 30.0301 162.645 30.1964 162.645 30.1964Z" fill="#FFCDD3"/>
<path opacity="0.1" d="M162.645 30.1963L159.616 31.7247L159.352 31.1888C159.779 30.8514 161.295 29.7001 161.793 29.7473C162.031 29.7752 162.272 29.781 162.511 29.7646C162.595 30.0301 162.645 30.1963 162.645 30.1963Z" fill="black"/>
<path d="M162.954 31.0571L159.55 32.6351L159.482 31.9478L159.434 31.4715C159.434 31.4715 161.406 29.881 161.989 29.9431C162.284 29.9832 162.583 29.9832 162.877 29.9431L162.917 30.5187L162.954 31.0571Z" fill="white"/>
<path d="M200.156 41.771C200.156 41.771 185.317 43.3466 188.091 42.498C190.021 41.905 190.788 40.7612 190.949 39.471C191.081 38.3966 190.785 37.2379 190.398 36.2455C190.049 35.365 189.607 34.5197 189.08 33.7221C189.08 33.7221 200.417 27.8517 198.152 33.1887C197.803 33.9959 197.586 34.8484 197.509 35.717C197.441 36.5801 197.54 37.4478 197.801 38.2776C198.229 39.624 199.044 40.833 200.156 41.771V41.771Z" fill="#FFCDD3"/>
<path opacity="0.1" d="M198.144 33.1812C197.795 33.9885 197.578 34.841 197.5 35.7095C196.433 36.5556 195.262 36.4986 193.757 36.4986C192.602 36.4986 191.32 36.7616 190.398 36.238C190.049 35.3576 189.607 34.5122 189.079 33.7147C189.079 33.7147 200.414 27.8443 198.144 33.1812Z" fill="black"/>
<path d="M193.557 36.8706C196.945 36.8706 199.692 34.2856 199.692 31.0969C199.692 27.9082 196.945 25.3232 193.557 25.3232C190.168 25.3232 187.421 27.9082 187.421 31.0969C187.421 34.2856 190.168 36.8706 193.557 36.8706Z" fill="#FFCDD3"/>
<path opacity="0.1" d="M200.156 41.7709C200.156 41.7709 185.317 43.3464 188.091 42.4979C190.021 41.9049 190.788 40.7611 190.949 39.4709C191.687 38.7265 193.172 38.1732 194.113 37.8854C194.983 37.61 195.923 37.5953 196.802 37.8432C197.148 37.9413 197.477 38.085 197.78 38.27C198.213 39.6214 199.035 40.8333 200.156 41.7709V41.7709Z" fill="black"/>
<path opacity="0.1" d="M208.601 34.1041L205.764 34.7219L205.703 34.3249C206.007 33.9323 206.432 33.6373 206.92 33.4801C207.409 33.323 207.937 33.3113 208.432 33.4466L208.601 34.1041Z" fill="black"/>
<path opacity="0.1" d="M162.954 31.0573L159.55 32.6353L159.482 31.948C160.584 31.3901 161.73 30.9116 162.909 30.5164L162.954 31.0573Z" fill="black"/>
<path opacity="0.1" d="M206.025 76.9563C200.274 77.8197 192.101 78.9213 190.804 78.5492C189.726 78.2415 186.287 78.2738 183.295 78.3705C183.321 76.9612 183.348 76.0258 183.348 76.0258L205.621 73.8424C205.621 73.8424 205.6 74.8101 206.025 76.9563Z" fill="black"/>
<path d="M211.757 75.686C211.757 75.686 192.834 78.7428 190.804 78.1671C188.774 77.5915 178.346 78.2143 178.346 78.2143C173.653 81.1743 175.612 76.8075 175.612 76.8075C175.612 76.8075 175.201 74.5273 175.767 72.6838C176.148 71.3303 176.408 69.9493 176.545 68.5551C176.545 68.5551 176.442 65.6422 177.009 64.9624C177.576 64.2825 178.248 59.4319 178.248 59.4319C178.248 59.4319 178.763 56.1319 178.712 55.4049C178.662 54.6779 178.865 52.6384 178.865 52.6384L179.538 49.2417C175.67 48.7579 163.913 41.9644 163.913 41.9644C163.347 39.6843 158.965 34.3473 158.965 34.3473C158.901 33.8985 158.779 33.4586 158.603 33.0372C158.295 32.2606 162.935 30.7074 162.935 30.7074C162.935 30.7074 166.389 34.6773 167.112 35.7541C167.834 36.8309 170.307 38.8109 170.307 38.8109C170.691 38.7737 171.079 38.8213 171.441 38.9498L171.501 38.9672C172.33 39.2734 173.107 39.6913 173.808 40.2078C174.971 40.1818 176.099 40.5822 176.954 41.3243C176.954 41.3243 179.063 41.0315 179.43 41.3714C179.796 41.7114 181.594 41.3714 181.594 41.3714C181.594 41.3714 183.398 37.7812 184.584 38.8233C185.771 39.8654 190.804 39.8158 190.804 39.8158C191.473 38.9771 193.105 38.3767 194.126 38.0789C194.996 37.8047 195.935 37.79 196.815 38.0368C197.195 38.1433 197.551 38.3112 197.87 38.533L200.931 41.3466C200.931 41.3466 201.806 40.2773 201.703 40.0366C201.6 39.7959 202.734 39.5999 202.734 39.5999C202.734 39.5999 204.229 39.1632 204.796 39.0168C205.363 38.8704 205.882 39.4485 205.93 39.5006C205.911 39.4386 205.524 38.2601 205.666 37.3668C205.808 36.4736 205.046 35.63 205.046 35.63C206.85 31.4567 210.923 34.9502 210.923 34.9502C210.923 34.9502 211.387 37.2304 210.976 38.1038C210.565 38.9771 211.387 40.8206 211.285 41.3069C211.182 41.7932 211.493 42.617 211.493 43.54C211.493 44.463 210.966 46.2072 210.668 46.9838C210.37 47.7604 207.883 49.5072 207.883 49.5072C207.883 49.5072 207.728 52.2737 206.644 53.874C205.561 55.4744 206.241 60.9478 206.241 60.9478C206.241 60.9478 207.272 65.2179 208.561 66.5776C209.85 67.9373 211.757 75.686 211.757 75.686Z" fill="#3F3D56"/>
<path opacity="0.1" d="M184.173 43.7583C184.173 43.7583 183.606 42.158 183.09 42.0215C182.577 41.8439 182.077 41.6334 181.595 41.3913L181.927 40.7933C181.927 40.7933 183.862 41.2896 184.173 41.828C184.484 42.3664 184.173 43.7583 184.173 43.7583Z" fill="black"/>
<path opacity="0.1" d="M173.809 40.2177C173.706 40.7139 169.115 41.1382 169.115 41.1382L171.436 38.9498L171.494 38.9697C172.326 39.2775 173.106 39.698 173.809 40.2177V40.2177Z" fill="black"/>
<path d="M160.531 33.9454C160.758 33.9454 160.942 33.7721 160.942 33.5583C160.942 33.3446 160.758 33.1713 160.531 33.1713C160.304 33.1713 160.12 33.3446 160.12 33.5583C160.12 33.7721 160.304 33.9454 160.531 33.9454Z" fill="#575988"/>
<path d="M161.058 34.7219C161.285 34.7219 161.469 34.5486 161.469 34.3348C161.469 34.121 161.285 33.9478 161.058 33.9478C160.831 33.9478 160.647 34.121 160.647 34.3348C160.647 34.5486 160.831 34.7219 161.058 34.7219Z" fill="#575988"/>
<path d="M161.575 35.439C161.802 35.439 161.986 35.2657 161.986 35.052C161.986 34.8382 161.802 34.6649 161.575 34.6649C161.348 34.6649 161.164 34.8382 161.164 35.052C161.164 35.2657 161.348 35.439 161.575 35.439Z" fill="#575988"/>
<path d="M162.116 36.2131C162.343 36.2131 162.527 36.0398 162.527 35.826C162.527 35.6123 162.343 35.439 162.116 35.439C161.888 35.439 161.704 35.6123 161.704 35.826C161.704 36.0398 161.888 36.2131 162.116 36.2131Z" fill="#575988"/>
<path d="M210.718 36.099C210.903 36.099 211.053 35.9579 211.053 35.7839C211.053 35.6098 210.903 35.4688 210.718 35.4688C210.533 35.4688 210.383 35.6098 210.383 35.7839C210.383 35.9579 210.533 36.099 210.718 36.099Z" fill="#575988"/>
<path d="M210.771 36.816C210.956 36.816 211.106 36.6749 211.106 36.5009C211.106 36.3269 210.956 36.1858 210.771 36.1858C210.586 36.1858 210.436 36.3269 210.436 36.5009C210.436 36.6749 210.586 36.816 210.771 36.816Z" fill="#575988"/>
<path d="M210.815 37.5306C211 37.5306 211.15 37.3895 211.15 37.2155C211.15 37.0415 211 36.9004 210.815 36.9004C210.63 36.9004 210.48 37.0415 210.48 37.2155C210.48 37.3895 210.63 37.5306 210.815 37.5306Z" fill="#575988"/>
<path opacity="0.1" d="M184.191 56.9085C184.141 56.8514 195.766 70.6641 204.788 62.6822C204.796 62.6846 190.54 64.5033 184.191 56.9085Z" fill="black"/>
<path opacity="0.1" d="M177.521 64.089C177.521 64.089 184.476 64.2676 185.204 66.1508V68.111C185.006 68.2144 184.783 68.2686 184.556 68.2686C184.33 68.2686 184.107 68.2144 183.909 68.111C183.208 67.7537 179.002 65.7439 177.521 66.7116V64.089Z" fill="black"/>
<path d="M177.65 64.089C177.65 64.089 184.302 64.2602 184.998 66.0566V67.9224C184.808 68.0215 184.595 68.0735 184.378 68.0735C184.162 68.0735 183.948 68.0215 183.759 67.9224C183.089 67.585 179.068 65.667 177.65 66.59V64.089Z" fill="#3F3D56"/>
<path opacity="0.1" d="M181.318 49.877C182.028 51.4248 182.934 52.8868 184.015 54.2314C185.191 55.7176 186.615 57.014 188.233 58.0698C188.233 58.0698 181.434 50.7751 181.318 49.877Z" fill="black"/>
<path opacity="0.1" d="M179.042 42.2721C179.042 42.2721 180.202 46.9863 183.192 48.5867L179.042 42.2721Z" fill="black"/>
<path opacity="0.1" d="M177.263 42.7484C177.233 42.6616 176.232 46.4702 181.117 48.5866C181.117 48.5866 179.042 47.9241 177.263 42.7484Z" fill="black"/>
<path opacity="0.1" d="M207.633 39.5875C207.557 39.5875 210.043 41.0762 210.721 41.7709C210.721 41.7709 209.102 39.4882 207.633 39.5875Z" fill="black"/>
<path d="M191.898 36.3298C191.899 36.4557 191.928 36.5801 191.982 36.6951C192.037 36.8101 192.116 36.9132 192.216 36.9978C192.315 37.0825 192.431 37.1469 192.558 37.1869C192.685 37.2269 192.82 37.2418 192.953 37.2304C194.822 37.3396 196.771 37.4165 198.49 36.7342C198.812 36.6259 199.102 36.4454 199.333 36.2082C199.639 35.8534 199.7 35.372 199.824 34.9304C200.066 34.0669 200.583 33.3003 200.955 32.479C201.584 31.0915 201.794 29.5677 201.564 28.0749C201.515 27.6173 201.355 27.1766 201.095 26.7872C200.599 26.1198 199.695 25.8493 199.038 25.3184C198.382 24.7874 197.96 23.976 197.192 23.5815C196.502 23.2193 195.655 23.2639 194.878 23.388C193.348 23.6325 191.882 24.1505 190.559 24.9139C190.113 25.162 189.625 25.4672 189.114 25.3754C188.666 25.296 188.339 24.9412 188.059 24.6087C187.7 25.4027 187.549 26.2666 187.619 27.1271C187.638 27.2534 187.634 27.3819 187.606 27.5067C187.541 27.6576 187.443 27.7938 187.318 27.9062C186.857 28.4024 186.57 29.2088 187.026 29.7199C187.224 29.9408 187.529 30.0623 187.722 30.2881C188.067 30.6926 187.951 31.2806 187.943 31.7967C187.924 31.9769 187.973 32.1577 188.08 32.3078C188.18 32.3953 188.302 32.457 188.435 32.487C188.567 32.517 188.706 32.5143 188.837 32.479C189.098 32.405 189.373 32.3805 189.644 32.407C189.93 32.4945 190.177 32.6691 190.345 32.9033C191.197 33.9478 191.534 35.0842 191.898 36.3298Z" fill="#2D293D"/>
<g opacity="0.1">
<path opacity="0.1" d="M199.552 35.769C199.32 36.0062 199.031 36.1867 198.708 36.295C196.979 36.9724 195.033 36.8955 193.172 36.7913C192.972 36.7931 192.774 36.7515 192.594 36.6697C192.309 36.5134 192.201 36.1859 192.114 35.8881C191.75 34.6475 191.416 33.5087 190.551 32.474C190.384 32.2354 190.137 32.0563 189.849 31.9654C189.578 31.9413 189.304 31.9657 189.043 32.0373C188.912 32.0729 188.773 32.0761 188.641 32.0465C188.508 32.017 188.386 31.9557 188.286 31.8686C188.178 31.7185 188.13 31.5377 188.149 31.3575C188.149 30.8365 188.273 30.2534 187.927 29.849C187.735 29.6232 187.429 29.5016 187.231 29.2783C187.102 29.1137 187.023 28.9192 187.002 28.7156C186.981 28.512 187.02 28.3069 187.113 28.1221C186.783 28.6183 186.643 29.2411 187.026 29.6678C187.223 29.8887 187.529 30.0102 187.722 30.236C188.067 30.6429 187.951 31.2285 187.943 31.7446C187.923 31.9245 187.971 32.1054 188.078 32.2557C188.178 32.3436 188.3 32.4056 188.433 32.4356C188.566 32.4656 188.706 32.4626 188.837 32.4269C189.098 32.3529 189.372 32.3284 189.644 32.3549C189.93 32.4424 190.176 32.617 190.345 32.8512C191.207 33.8858 191.545 35.0222 191.909 36.2677C191.951 36.5742 192.114 36.8547 192.365 37.0543C192.545 37.1362 192.744 37.177 192.945 37.1734C194.814 37.2825 196.763 37.3619 198.482 36.6771C198.804 36.5695 199.094 36.3889 199.325 36.1511C199.442 36.0114 199.531 35.8535 199.589 35.6847C199.592 35.7169 199.573 35.7442 199.552 35.769Z" fill="black"/>
<path opacity="0.1" d="M187.619 27.3554C187.702 27.2708 187.765 27.1711 187.806 27.0626C187.83 26.9371 187.83 26.8085 187.806 26.683C187.755 25.9756 187.852 25.2656 188.093 24.5939L188.059 24.5566C187.698 25.3495 187.547 26.2127 187.619 27.0725C187.627 27.1667 187.627 27.2613 187.619 27.3554V27.3554Z" fill="black"/>
</g>
<path opacity="0.1" d="M190.804 39.8282C190.804 39.8282 198.468 40.7859 199.157 39.7017Z" fill="black"/>
<path opacity="0.1" d="M205.703 36.8433C205.703 36.8433 209.964 36.8433 210.9 38.3518Z" fill="black"/>
<path d="M229.54 170.864C228.277 171.927 226.634 172.504 224.94 172.481C224.507 172.481 223.909 172.558 223.906 172.965C223.916 173.084 223.96 173.199 224.033 173.298C224.568 174.137 225.412 174.761 226.405 175.052C227.328 175.315 228.314 175.27 229.277 175.223L232.085 175.086C232.612 175.059 233.139 175.034 233.667 174.972C234.194 174.91 234.769 174.809 235.32 174.724C236.674 174.543 238.043 174.483 239.409 174.546C239.773 174.558 240.2 174.546 240.416 174.297C240.632 174.049 240.522 173.575 240.44 173.203C240.271 172.437 240.44 171.633 240.284 170.864C240.021 169.514 238.779 168.479 237.418 167.99C236.153 167.539 233.912 167.02 232.715 167.774C231.452 168.566 230.679 169.888 229.54 170.864Z" fill="#3F3D56"/>
<path d="M232.33 125.642C232.578 126.751 233.719 127.599 233.751 128.731C233.78 129.639 233.092 130.401 232.596 131.177C232.129 131.982 231.735 132.822 231.418 133.688C230.484 135.945 229.326 138.113 227.958 140.164C227.299 141.156 226.561 142.216 226.711 143.37C226.816 143.909 227.019 144.428 227.31 144.903L229.287 148.6C229.72 149.338 230.059 150.122 230.297 150.935C230.468 151.637 230.484 152.364 230.584 153.079C230.896 155.346 232.027 157.629 231.357 159.827C231.299 160.016 231.093 160.244 230.932 160.113C231.586 161.261 232.111 162.418 232.061 163.72C232.035 164.403 231.813 165.115 232.079 165.75C232.193 166.015 232.39 166.263 232.388 166.549C232.388 166.737 232.296 166.913 232.274 167.097C232.219 167.621 232.731 168.057 233.261 168.224C233.791 168.39 234.368 168.377 234.903 168.529C235.931 168.819 236.667 169.653 237.54 170.231C238.435 170.811 239.49 171.134 240.577 171.161C240.732 171.177 240.888 171.147 241.025 171.077C241.103 171.013 241.165 170.935 241.208 170.846C241.25 170.758 241.273 170.663 241.273 170.566C241.321 170.102 241.247 169.635 241.057 169.205C240.868 168.775 240.569 168.395 240.187 168.099C240.019 168.001 239.881 167.864 239.783 167.703C239.734 167.559 239.722 167.407 239.747 167.258C239.906 165.225 239.867 163.182 239.63 161.155C239.524 160.512 239.489 159.861 239.528 159.212C239.583 158.671 239.757 158.135 239.694 157.597C239.63 157.058 239.338 156.567 239.166 156.048C238.861 155.125 238.945 154.133 238.903 153.168C238.85 151.491 238.441 149.843 238.035 148.205C237.875 147.563 237.698 146.89 237.215 146.414C236.804 146.01 236.14 145.623 236.295 145.084C236.381 144.886 236.51 144.706 236.672 144.556C236.863 144.33 237.003 144.07 237.084 143.792C237.165 143.514 237.184 143.223 237.142 142.938C237.315 142.98 237.498 142.963 237.66 142.892C237.823 142.82 237.953 142.698 238.03 142.546C241.241 141.119 243.831 138.266 244.985 135.102C245.053 134.867 245.158 134.643 245.296 134.437C245.594 134.045 246.111 133.877 246.57 133.661C248.009 132.979 249.003 131.701 249.916 130.45C250.443 129.726 250.97 128.976 251.208 128.123C251.332 127.571 251.392 127.007 251.384 126.443L251.466 123.528C251.484 123.336 251.464 123.142 251.408 122.957C251.33 122.784 251.216 122.627 251.073 122.496C250.196 121.623 249.045 121.038 247.788 120.828C246.944 120.687 246.082 120.714 245.228 120.647C243.572 120.518 241.937 120.034 240.282 120.151C237.679 120.332 235.362 122.029 234.136 124.198C233.706 124.962 233.253 125.627 232.33 125.642Z" fill="#464353"/>
<path d="M217.881 106.686C217.916 107.136 217.852 107.588 217.691 108.013C217.488 108.42 216.98 108.737 216.534 108.571C216.669 108.286 216.313 107.961 215.98 107.996C215.817 108.031 215.665 108.103 215.538 108.206C215.411 108.309 215.312 108.439 215.25 108.586C215.03 109.003 214.956 109.475 215.039 109.933C215.145 110.504 215.495 111.052 215.403 111.626C215.329 112.102 214.957 112.576 215.155 113.017C215.283 113.219 215.444 113.401 215.632 113.556C215.893 113.858 216.02 114.242 215.988 114.63C215.957 115.018 215.768 115.379 215.461 115.64L220.449 115.734C220.267 116.518 220.642 117.32 221.069 118.017C222.265 119.934 223.917 121.564 225.895 122.779C227.873 123.994 230.123 124.762 232.469 125.021C232.343 125.091 232.234 125.186 232.151 125.301C232.068 125.415 232.013 125.545 231.99 125.681C231.967 125.818 231.977 125.957 232.018 126.09C232.06 126.223 232.132 126.345 232.229 126.448C232.636 126.828 233.324 126.78 233.833 126.535C234.341 126.289 234.739 125.882 235.204 125.567C236.023 125.021 237.022 124.768 238.022 124.853C238.647 124.91 239.253 125.101 239.881 125.131C241.726 125.222 243.308 123.972 245.085 123.461C246.38 123.086 247.849 123.086 248.935 122.324C249.404 121.997 249.789 121.458 249.652 120.927C249.538 120.622 249.359 120.343 249.125 120.106C248.5 119.344 248.131 118.429 247.682 117.563C246.794 115.849 245.572 114.307 244.078 113.017C242.951 112.09 241.756 111.238 240.503 110.467C240.2 110.256 239.877 110.073 239.538 109.919C239.1 109.737 238.615 109.651 238.22 109.422C237.634 109.075 237.297 108.462 236.846 107.968C235.857 106.882 234.339 106.383 233.121 105.529C232.303 104.956 231.581 104.202 230.605 103.926C230.131 103.79 229.627 103.78 229.153 103.646C228.074 103.338 227.289 102.438 226.231 102.073C225.396 101.785 224.473 101.86 223.595 101.758C222.605 101.643 221.66 101.304 220.84 100.77C220.575 100.568 220.279 100.406 219.962 100.289C218.625 99.907 218.517 102.249 218.38 103.061C218.203 104.266 217.881 105.465 217.881 106.686Z" fill="white"/>
<path d="M219.184 114.541C219.408 116.829 217.573 119.044 218.108 121.285C218.222 121.761 218.441 122.215 218.52 122.699C218.744 124.026 217.9 125.284 217.096 126.396L210.188 135.936C209.911 136.355 209.58 136.74 209.202 137.082C207.884 138.187 205.901 138.075 204.166 138.402C202.947 138.638 201.797 139.117 200.791 139.807C200.746 139.84 200.716 139.888 200.708 139.941C200.701 139.995 200.715 140.049 200.749 140.092C201.036 140.459 201.415 140.753 201.853 140.947C202.291 141.14 202.773 141.228 203.257 141.201C203.438 141.424 203.257 141.757 203.006 141.918C202.637 142.166 202.125 142.223 202.052 142.816C202.027 143.022 202.071 143.231 202.178 143.412C202.457 143.812 202.89 144.094 203.386 144.201C205.777 144.891 208.361 143.68 210.151 142.035C211.941 140.39 213.225 138.313 214.981 136.641C215.954 135.713 217.059 134.921 218.061 134.023C220.059 132.229 221.615 130.053 223.113 127.872C223.563 127.215 224.019 126.54 224.207 125.778C224.394 125.016 224.307 124.245 224.52 123.508C224.8 122.543 225.551 121.771 226.176 120.962C227.402 119.374 228.222 117.432 228.059 115.474C227.895 113.516 226.609 111.586 224.647 110.921C224.039 110.693 223.369 110.655 222.735 110.812C221.931 111.045 221.338 111.67 220.79 112.271L219.471 113.695C219.15 114.01 218.899 114.382 218.731 114.789C218.646 114.994 218.625 115.218 218.672 115.434C218.719 115.649 218.831 115.848 218.994 116.005" fill="#FBBEBE"/>
<path d="M222.685 105.157C221.778 105.207 220.779 105.291 220.138 105.902C219.87 106.182 219.652 106.502 219.495 106.849C218.873 108.043 218.266 109.291 218.222 110.621C218.185 111.683 218.512 112.722 218.683 113.772C218.825 114.645 218.464 115.536 218.396 116.419C219.521 116.094 221.008 115.653 222.029 115.104C222.725 114.73 223.397 114.303 224.157 114.065C225.24 113.725 227.057 114.313 228.088 114.784C228.143 114.104 227.6 112.918 227.658 112.236C227.666 111.949 227.72 111.664 227.819 111.392C227.973 111.105 228.156 110.831 228.364 110.576C228.757 109.976 228.937 109.274 228.88 108.571C228.823 107.868 228.531 107.2 228.045 106.663C227.131 105.696 225.699 105.333 224.333 105.175C223.473 105.081 222.606 105.053 221.741 105.09" fill="white"/>
<path d="M313.316 174.807H-45.3161C-45.542 174.807 -45.7587 174.765 -45.9185 174.69C-46.0782 174.615 -46.168 174.513 -46.168 174.407C-46.168 174.301 -46.0782 174.199 -45.9185 174.124C-45.7587 174.049 -45.542 174.007 -45.3161 174.007H313.316C313.542 174.007 313.759 174.049 313.919 174.124C314.078 174.199 314.168 174.301 314.168 174.407C314.168 174.513 314.078 174.615 313.919 174.69C313.759 174.765 313.542 174.807 313.316 174.807Z" fill="#3F3D56"/>
</g>
<defs>
<linearGradient id="paint0_linear" x1="185.162" y1="142.928" x2="185.162" y2="21.6834" gradientUnits="userSpaceOnUse">
<stop stop-color="#808080" stop-opacity="0.25"/>
<stop offset="0.54" stop-color="#808080" stop-opacity="0.12"/>
<stop offset="1" stop-color="#808080" stop-opacity="0.1"/>
</linearGradient>
<clipPath id="clip0">
<rect width="268" height="180" fill="white"/>
</clipPath>
</defs>
</svg>
