<svg width="238" height="170" viewBox="0 0 238 170" fill="none" xmlns="http://www.w3.org/2000/svg">
<g clip-path="url(#clip0)">
<path d="M193.777 132.483C193.777 133.865 185.725 137.896 176.16 137.896C166.596 137.896 159.143 133.865 159.143 132.483C159.143 131.1 166.895 131.545 176.469 131.545C186.043 131.545 193.777 131.098 193.777 132.483Z" fill="#504F60"/>
<path opacity="0.2" d="M193.777 132.483C193.777 133.865 185.725 137.896 176.16 137.896C166.596 137.896 159.143 133.865 159.143 132.483" fill="black"/>
<path d="M97.4534 107.114C99.0058 107.313 100.617 107.439 102.104 106.957C102.338 106.884 102.595 106.722 102.572 106.488C102.555 106.403 102.519 106.323 102.466 106.254C101.906 105.412 101.435 104.515 101.062 103.575C101.047 103.526 101.016 103.484 100.975 103.453C100.927 103.436 100.874 103.436 100.825 103.453C100.139 103.634 99.5467 104.077 98.8653 104.267C98.5179 104.362 98.1553 104.389 97.7976 104.346C97.4886 104.311 97.0671 104.056 96.7861 104.088C96.9453 105.113 97.334 106.069 97.4534 107.114Z" fill="white"/>
<path d="M126.812 104.52C127.836 103.817 128.896 103.079 129.5 101.994C129.544 101.929 129.569 101.854 129.573 101.776C129.563 101.699 129.533 101.627 129.486 101.565C128.911 100.649 128.17 99.8492 127.302 99.2052C126.849 99.5255 126.439 99.9036 126.084 100.33C125.827 100.602 125.115 101.033 125.108 101.448C125.108 101.682 125.38 101.954 125.506 102.151C125.677 102.404 125.838 102.662 125.993 102.924C126.082 103.053 126.894 104.468 126.812 104.52Z" fill="white"/>
<path d="M103.539 110.251C103.557 110.493 103.491 110.733 103.351 110.931C103.242 111.041 103.107 111.122 102.958 111.165C100.787 111.943 98.2751 110.973 96.1093 111.739C95.6645 111.896 95.243 112.124 94.7958 112.274C94.2626 112.434 93.7126 112.532 93.1568 112.564C92.3911 112.637 91.6208 112.684 90.8528 112.705C90.2693 112.746 89.6829 112.695 89.1155 112.553C88.8317 112.48 88.5664 112.348 88.3369 112.166C88.1074 111.984 87.9187 111.756 87.7832 111.496C87.6655 111.263 87.642 110.993 87.7176 110.744C87.7516 110.658 87.7999 110.579 87.8605 110.509C88.0073 110.344 88.1796 110.204 88.3709 110.094L89.1693 109.579C89.5437 109.314 89.9506 109.098 90.3798 108.937C90.6959 108.834 91.0308 108.789 91.3515 108.703C92.4731 108.374 93.33 107.484 94.1261 106.629L95.2126 105.469C95.3141 105.341 95.4429 105.238 95.5895 105.166C95.7402 105.116 95.9004 105.101 96.0578 105.122C97.1131 105.197 98.1322 105.539 99.0197 106.116C99.2466 106.286 99.4916 106.43 99.7502 106.547C100.387 106.795 101.204 106.608 101.792 106.294C102.071 106.144 102.01 106.059 102.127 105.792C102.244 105.525 102.53 105.354 102.778 105.598C102.853 105.682 102.906 105.783 102.932 105.893C103.166 106.666 103.077 107.498 103.077 108.309C103.071 108.436 103.086 108.563 103.124 108.684C103.184 108.806 103.255 108.922 103.337 109.031C103.354 109.059 103.369 109.089 103.382 109.12C103.525 109.479 103.579 109.867 103.539 110.251V110.251Z" fill="#514E7F"/>
<path d="M103.539 110.251C103.557 110.493 103.491 110.733 103.351 110.931C103.242 111.041 103.107 111.122 102.958 111.165C100.787 111.943 98.2751 110.973 96.1093 111.739C95.6644 111.896 95.243 112.124 94.7958 112.274C94.2626 112.434 93.7126 112.532 93.1568 112.564C92.3911 112.637 91.6208 112.684 90.8528 112.705C90.2693 112.746 89.6829 112.695 89.1155 112.553C88.8317 112.48 88.5664 112.348 88.3369 112.166C88.1074 111.984 87.9187 111.756 87.7832 111.496C87.6655 111.263 87.642 110.993 87.7176 110.744C87.7516 110.658 87.7999 110.579 87.8605 110.509C87.9869 110.774 88.0782 111.125 88.1578 111.252C88.2654 111.44 88.4116 111.602 88.5869 111.728C88.7621 111.855 88.9623 111.943 89.174 111.985C89.4909 112.005 89.8087 111.964 90.1106 111.866C92.0774 111.379 94.1683 111.372 96.0578 110.633C96.7064 110.378 97.3245 110.038 98.0059 109.884C98.6872 109.729 99.4107 109.771 100.113 109.712C101.223 109.623 102.298 109.288 103.391 109.113C103.532 109.474 103.583 109.865 103.539 110.251V110.251Z" fill="#464353"/>
<path d="M131.783 104.377C131.68 105.202 131.158 105.912 130.585 106.514C130.011 107.116 129.362 107.657 128.906 108.351C128.344 109.211 128.091 110.277 127.36 111.004C127.08 111.268 126.765 111.492 126.424 111.671C126.042 111.897 125.638 112.083 125.218 112.227C124.127 112.576 122.952 112.496 121.811 112.412C121.441 112.408 121.075 112.338 120.73 112.203C120.572 112.124 120.422 112.031 120.28 111.927C119.994 111.751 119.754 111.51 119.578 111.224C119.491 111.068 119.467 110.886 119.51 110.713C119.575 110.523 119.687 110.352 119.835 110.216C120.092 109.949 120.367 109.701 120.659 109.473C121.06 109.215 121.421 108.899 121.732 108.536C121.922 108.25 122.062 107.933 122.146 107.599C122.312 107.014 122.413 106.413 122.448 105.806C122.447 105.403 122.488 105.001 122.572 104.606C122.746 103.988 123.204 103.435 123.153 102.795C123.132 102.703 123.14 102.608 123.176 102.521C123.231 102.453 123.307 102.406 123.392 102.387C123.75 102.244 124.127 102.157 124.511 102.127C124.704 102.114 124.897 102.143 125.077 102.214C125.256 102.285 125.418 102.394 125.551 102.535C125.71 102.727 125.815 103.004 126.049 103.079C126.165 103.11 126.287 103.115 126.405 103.093C126.981 103.034 127.59 102.961 128.044 102.589C128.254 102.4 128.423 102.17 128.54 101.913C128.657 101.657 128.719 101.378 128.723 101.096C128.723 100.883 128.627 100.66 128.957 100.627C129.205 100.595 129.402 100.862 129.529 101.026C129.985 101.637 130.453 102.277 130.624 103.022C130.691 102.996 130.761 102.983 130.833 102.982C130.979 102.981 131.123 103.015 131.253 103.082C131.383 103.148 131.495 103.245 131.58 103.364C131.766 103.667 131.838 104.026 131.783 104.377Z" fill="#514E7F"/>
<path d="M131.783 104.377C131.68 105.202 131.158 105.912 130.585 106.514C130.011 107.116 129.362 107.657 128.906 108.351C128.344 109.211 128.091 110.277 127.361 111.004C127.08 111.268 126.765 111.492 126.424 111.671C126.042 111.897 125.638 112.083 125.218 112.227C124.127 112.576 122.952 112.496 121.811 112.412C121.441 112.408 121.075 112.338 120.73 112.203C120.573 112.124 120.422 112.031 120.28 111.927C119.994 111.751 119.754 111.51 119.578 111.224C119.797 111.118 120.037 111.061 120.28 111.055C120.786 111.083 121.156 111.561 121.64 111.709C122.331 111.918 123.02 111.43 123.72 111.264C124.176 111.156 124.656 111.184 125.108 111.029C125.485 110.884 125.833 110.673 126.136 110.406C126.552 110.109 126.922 109.752 127.234 109.347C127.494 108.942 127.709 108.511 127.878 108.06C128.248 107.197 128.683 106.364 129.18 105.567C129.253 105.441 129.342 105.325 129.444 105.22C129.554 105.12 129.679 105.049 129.803 104.96C130.271 104.606 130.465 104.023 130.629 103.451C130.674 103.277 130.736 103.109 130.814 102.947C130.96 102.946 131.104 102.98 131.234 103.047C131.364 103.113 131.477 103.21 131.561 103.329C131.763 103.639 131.842 104.012 131.783 104.377V104.377Z" fill="#464353"/>
<path d="M82.6862 31.3166C83.269 31.7537 83.7486 32.3137 84.0911 32.9569C84.4189 33.599 86.3084 38.5809 86.1984 39.305C86.8142 38.684 89.2422 38.5832 89.865 37.9623C90.1249 37.7022 91.5275 36.404 91.7382 36.1017C91.9489 35.7994 93.513 35.1643 93.6839 34.8456C94.3231 33.6998 89.1509 29.3576 89.8135 28.2258C89.8502 28.1738 89.8691 28.1113 89.8674 28.0477C89.8523 27.9942 89.8222 27.9463 89.7807 27.9094C89.3569 27.4759 88.795 27.2064 88.2846 26.8854C87.7741 26.5643 87.2824 26.1168 87.1443 25.5262C86.6575 25.7505 86.2107 26.0529 85.8214 26.4214C84.8723 27.2353 83.9397 28.0656 83.0234 28.9123C82.6652 29.2451 81.9721 29.688 81.8058 30.1637C81.6092 30.6745 82.3444 31.0377 82.6862 31.3166Z" fill="#FBBEBE"/>
<path d="M91.0588 29.4725C90.2653 30.0062 89.5237 30.6135 88.8438 31.2863C88.2023 31.9213 87.5935 32.6571 87.439 33.5452C87.3734 33.8944 87.3828 34.2482 87.3289 34.6021C87.0948 36.1369 85.7696 37.2617 85.1842 38.6982C85.0146 39.1415 84.8899 39.6008 84.8119 40.069C84.6474 40.9567 84.5574 41.8565 84.5427 42.7592C84.5286 43.6332 85.3856 44.2355 85.6993 45.0509C86.0131 45.8664 86.0974 46.7053 86.2566 47.5419C86.5563 49.1213 87.1065 50.6445 87.6614 52.1582C88.8158 55.3498 92.5574 64.1725 93.7117 67.3664C97.2496 66.4783 106.667 64.4373 109.8 62.5649C110.844 61.9416 102.553 54.9093 103.67 54.4242C103.734 54.4143 103.794 54.3896 103.847 54.3522C103.9 54.3148 103.943 54.2656 103.973 54.2085C104.004 54.1515 104.021 54.0881 104.022 54.0235C104.024 53.9589 104.011 53.8947 103.984 53.8361C102.867 48.9479 99.3732 44.9314 97.7881 40.1721C97.2379 38.5201 96.2498 37.1094 95.5005 35.5394C94.8215 34.117 94.4586 32.5446 93.6461 31.1925C93.4929 30.914 93.2925 30.6642 93.0537 30.4544C92.8511 30.2989 92.632 30.1661 92.4005 30.0584C91.9369 29.8334 91.506 29.6998 91.0588 29.4725Z" fill="#175E7A"/>
<path d="M82.8732 30.7613C85.9314 30.7613 88.4106 28.2801 88.4106 25.2193C88.4106 22.1586 85.9314 19.6774 82.8732 19.6774C79.8149 19.6774 77.3357 22.1586 77.3357 25.2193C77.3357 28.2801 79.8149 30.7613 82.8732 30.7613Z" fill="#FBBEBE"/>
<path d="M88.5068 27.8227C88.7828 27.568 89.1295 27.403 89.5011 27.3494C89.8727 27.2959 90.2518 27.3563 90.5884 27.5228C90.963 27.7173 91.2908 28.111 91.2065 28.5234L93.953 28.5656C94.3901 28.5536 94.8272 28.5937 95.2548 28.6851C95.6852 28.7789 96.0695 29.02 96.3412 29.367C96.374 29.4115 96.4115 29.4654 96.4677 29.4724C96.5134 29.4732 96.558 29.4583 96.5941 29.4303C97.0166 29.2182 97.4926 29.1366 97.9615 29.1959C99.446 29.292 100.818 30.0348 101.982 30.9628C102.192 31.1072 102.354 31.3101 102.45 31.5463C102.546 31.8579 102.431 32.2493 102.684 32.4719C102.684 35.0496 103.569 37.4585 104.159 39.9705C104.265 40.4181 104.693 40.8141 104.99 41.1656C105.358 41.5553 105.658 42.0036 105.878 42.492C106.379 43.7948 105.688 45.3274 106.175 46.6349C106.381 47.188 106.779 47.6426 107.112 48.123C107.55 48.6776 107.827 49.3425 107.913 50.0445C107.934 50.3585 107.894 50.6748 107.913 50.9818C107.944 51.404 108.023 51.8214 108.147 52.2261C108.347 52.9822 108.556 53.7376 108.774 54.4921C109.13 55.7106 109.594 57.0252 110.685 57.6743C108.051 58.1219 105.274 58.5601 102.764 57.6439C102.414 57.5244 102.081 57.358 101.776 57.1494C100.87 56.5027 100.432 55.3966 100.041 54.3515C99.6052 53.1798 99.1627 51.9871 99.0737 50.7405C99.0745 50.344 99.0186 49.9494 98.9074 49.5688C98.6522 48.8892 97.9709 48.4791 97.3527 48.1019C96.6547 47.7191 96.0223 47.227 95.4796 46.6443C95.2103 46.3508 95.004 46.0052 94.8735 45.6287C94.743 45.2523 94.6911 44.853 94.721 44.4557C94.7678 44.069 94.92 43.6964 94.934 43.3074C94.9481 42.9184 94.7748 42.4732 94.4025 42.3701C92.4849 41.789 91.5694 39.5159 91.1433 37.5569C90.9594 36.5444 90.877 35.5161 90.8974 34.4872L90.8717 32.4883C90.607 32.2474 90.3942 31.955 90.2461 31.6291C90.0979 31.3032 90.0176 30.9505 90.01 30.5926C90.0355 30.3837 90.0315 30.1723 89.9983 29.9645C89.9057 29.7106 89.7549 29.4819 89.5581 29.2967C89.1348 28.8618 88.7802 28.3648 88.5068 27.8227V27.8227Z" fill="#464353"/>
<path d="M82.6087 34.1591C82.5455 34.7777 82.686 35.4128 82.5478 36.0197C82.494 36.254 82.4003 36.4884 82.3324 36.7063C82.1248 37.5798 82.2147 38.4978 82.5876 39.3144C82.9601 40.123 83.4061 40.8957 83.9199 41.6226C84.0937 41.8707 84.2368 42.139 84.3461 42.4217C84.4346 42.7184 84.4896 43.0242 84.51 43.3332C84.6456 44.5741 84.863 45.8047 85.1609 47.0169C85.4231 48.0667 88.4014 57.0416 89.0945 57.8735C89.2202 58.0577 89.4109 58.1875 89.6283 58.2367C89.7851 58.2427 89.9409 58.2105 90.0826 58.143L91.4874 57.604C91.6069 57.5675 91.7176 57.5069 91.8129 57.426C91.9445 57.272 92.0161 57.0756 92.0142 56.8729C92.1149 55.7294 89.1296 46.6912 88.7503 45.6109C87.603 42.349 86.0764 39.2043 85.3295 35.8275C85.1211 34.8902 85.011 33.4467 84.325 32.6992C84.0417 32.3899 84.1377 32.5211 83.7982 32.6828C83.6266 32.7573 83.4607 32.8442 83.3018 32.9429C83.1031 33.0812 82.9377 33.2621 82.8178 33.4725C82.6979 33.683 82.6264 33.9175 82.6087 34.1591Z" fill="#464353"/>
<path d="M86.8726 40.3478C87.2496 42.342 87.6382 44.3315 88.0246 46.3256L93.5222 44.8845C93.5667 44.308 93.26 43.7737 93.054 43.2442C92.5529 41.9858 92.5412 40.5845 92.1361 39.291C91.8294 38.3068 91.2955 37.4023 91.0076 36.411C90.8413 35.8346 90.757 35.2394 90.5931 34.6559C90.4173 34.0829 90.2014 33.523 89.9469 32.9804C89.6383 32.1935 89.2358 31.4468 88.7481 30.7566C88.0457 31.019 87.2964 31.3237 86.896 31.9587C86.6907 32.3165 86.5735 32.7182 86.5542 33.1304C86.4582 34.3653 86.9054 35.6073 86.7579 36.8352C86.6059 38.0046 86.6447 39.1909 86.8726 40.3478V40.3478Z" fill="white"/>
<path d="M93.6135 66.8742C93.9225 68.0459 93.4753 69.2785 93.1101 70.4384C92.5601 72.1856 92.1852 73.9832 91.9909 75.8046C91.967 76.2682 91.8739 76.7255 91.7146 77.1614C91.5413 77.5528 91.2463 77.8832 91.0449 78.2558C90.4923 79.2353 90.5064 80.4304 90.6258 81.5505C90.7054 82.2886 90.8248 83.0244 90.9723 83.7509C91.1526 84.639 91.3751 85.5669 91.1152 86.434C91.5507 86.3379 91.8457 86.9026 91.8176 87.3455C91.7895 87.7884 91.6467 88.2828 91.8597 88.6648C92.3983 88.8616 92.403 89.6021 92.3866 90.1762C92.3955 91.1717 92.5212 92.1627 92.7612 93.1288C93.576 97.05 94.4408 100.96 95.3555 104.86C97.334 105.473 99.645 106.113 101.532 105.263C101.883 105.106 102.235 104.855 102.314 104.475C102.335 104.271 102.309 104.064 102.239 103.871L101.345 100.613C101.127 99.826 100.909 99.0129 101.024 98.2045C101.111 97.6022 101.373 96.9531 101.078 96.4212C100.977 96.2384 100.818 96.0955 100.701 95.9221C100.233 95.2355 100.479 94.3169 100.516 93.485C100.531 93.2983 100.518 93.1104 100.479 92.9273C100.414 92.7135 100.325 92.5081 100.212 92.3157C99.4724 90.8795 99.1175 89.2761 99.1814 87.6619C99.2093 87.4559 99.181 87.2461 99.0994 87.0549C99.0426 86.976 98.9917 86.893 98.9472 86.8065C98.9123 86.6561 98.9297 86.4982 98.9964 86.359C98.7281 86.1552 98.4858 85.9191 98.2752 85.656C98.4051 85.5752 98.5149 85.4659 98.5964 85.3364C98.6779 85.2069 98.7289 85.0606 98.7456 84.9084C98.7623 84.7563 98.7442 84.6024 98.6928 84.4583C98.6413 84.3142 98.5578 84.1836 98.4485 84.0766C98.544 84.0573 98.6323 84.012 98.7036 83.9455C98.7749 83.8791 98.8263 83.7942 98.8523 83.7002C98.8782 83.6062 98.8777 83.5069 98.8506 83.4133C98.8236 83.3196 98.7711 83.2353 98.699 83.1697C98.5843 83.09 98.4321 83.0549 98.3502 82.9354C98.2237 82.762 98.3268 82.5206 98.4298 82.3355L98.9753 81.3489C99.3827 80.6155 99.4741 79.7086 99.9119 79.0056C100.539 77.9816 100.949 76.8404 101.354 75.7109L102.93 71.3594L103.991 72.2803C104.344 72.5504 104.64 72.8881 104.862 73.2739C105.012 73.6551 105.108 74.0559 105.145 74.4643C105.534 76.8263 107.018 78.8744 107.568 81.2013C107.69 81.7192 107.772 82.2628 108.069 82.7057C108.176 82.8417 108.271 82.9859 108.355 83.1369C108.433 83.3673 108.473 83.6085 108.474 83.8516C108.524 84.3276 108.674 84.7874 108.917 85.1998C109.159 85.6122 109.488 85.9676 109.879 86.2418C110.401 86.6003 111.05 86.8464 111.333 87.4135C111.39 87.5891 111.469 87.7568 111.568 87.9126C111.82 88.2172 112.366 88.2524 112.474 88.6343C112.535 88.8476 112.422 89.103 112.542 89.2905C112.609 89.3772 112.699 89.4444 112.801 89.485L114.326 90.2465C116.03 91.0995 116.901 93.0585 118.159 94.4856C118.593 94.9504 118.977 95.4593 119.306 96.0041C119.849 96.9766 120.1 98.1974 121.017 98.8161C121.264 98.9441 121.489 99.1111 121.682 99.3105C121.97 99.6901 121.865 100.222 121.891 100.7C121.917 101.178 122.282 101.748 122.736 101.602C122.577 102.181 122.577 102.793 122.736 103.371C124.73 103.269 126.632 102.498 128.135 101.183C128.58 100.794 129.009 100.297 129.013 99.7065C129.02 99.6046 128.998 99.5029 128.948 99.4136C128.858 99.2983 128.739 99.2086 128.604 99.1535C127.178 98.3802 126.749 96.5876 126.028 95.1324C125.398 93.8482 124.466 92.7422 123.687 91.5494C121.992 88.9835 120.835 85.8786 118.271 84.1844C117.707 83.8118 117.051 83.4814 116.768 82.8651C116.611 82.5206 116.592 82.1269 116.468 81.7707C116.344 81.4146 116.047 81.0677 115.667 81.0677C115.878 80.5522 115.836 79.9242 115.85 79.3665C115.864 79.119 115.836 78.8708 115.766 78.633C115.668 78.3772 115.542 78.1335 115.389 77.9066C114.72 76.7731 114.385 75.4732 114.424 74.1573C114.443 73.4801 114.562 72.7818 114.358 72.135C114.255 71.8093 114.075 71.5117 113.951 71.1977C113.764 70.6287 113.665 70.0344 113.658 69.4355L113.518 67.1836C113.497 66.4336 113.399 65.6877 113.228 64.9574C112.759 63.2093 112.291 55.8864 110.687 55.0615C109.083 54.2367 106.327 59.8724 104.522 59.9825C103.724 60.0158 102.934 60.1682 102.181 60.4348C100.98 60.8847 99.9728 61.7236 98.9917 62.5438L95.6716 65.3347C94.9692 65.9135 94.3885 66.4665 93.6135 66.8742Z" fill="#464353"/>
<path d="M77.6779 19.0657C78.4084 18.0675 79.6634 17.5379 80.8997 17.4933C82.1359 17.4488 83.3535 17.8378 84.461 18.3885C84.7879 18.5745 85.1372 18.7179 85.5006 18.815C86.0859 18.9345 86.7368 18.7751 87.266 19.0493C87.9684 19.4219 88.1042 20.3709 88.0433 21.1583C87.9825 21.9456 87.835 22.8197 88.2541 23.5016C88.4027 23.6961 88.5381 23.9004 88.6591 24.1132C88.8394 24.5186 88.7341 24.9873 88.6264 25.4161C88.3524 25.1818 88.1979 24.8279 87.9544 24.5561C87.7109 24.2843 87.2871 24.1015 86.985 24.3054C86.683 24.5092 86.6877 24.8795 86.6713 25.2122C86.6549 25.545 86.5706 25.9434 86.2568 26.0512C86.1258 26.081 85.9888 26.0708 85.8636 26.0219C85.7384 25.9731 85.6307 25.8877 85.5544 25.777C85.0182 25.1209 85.2336 24.0734 84.7021 23.4126C84.4001 23.0376 83.8967 22.8549 83.618 22.4612C83.398 22.1519 83.3418 21.7582 83.1498 21.4254C82.9578 21.0927 82.5106 20.849 82.2132 21.0786C82.1117 21.1757 82.027 21.2889 81.9627 21.4137C81.7772 21.6795 81.5076 21.875 81.1975 21.9685C80.8873 22.0621 80.5547 22.0482 80.2534 21.9292C80.0232 21.7878 79.7741 21.6797 79.5135 21.6082C79.343 21.5997 79.1735 21.639 79.0241 21.7218C78.8747 21.8047 78.7515 21.9276 78.6683 22.0769C78.5002 22.375 78.4191 22.7144 78.4341 23.0564C78.4341 23.525 78.5184 24.0242 78.2515 24.3991C78.15 24.5402 78.0229 24.6611 77.8769 24.7553C77.4859 25.006 76.9403 25.1747 76.5797 24.8889C76.4575 24.7749 76.3666 24.6315 76.3158 24.4723C76.2649 24.313 76.2558 24.1434 76.2894 23.9797C76.3596 23.6535 76.4519 23.3325 76.5657 23.0189C76.7717 22.2925 76.5025 21.4746 76.7272 20.7904C76.9627 20.1742 77.2826 19.5937 77.6779 19.0657V19.0657Z" fill="#464353"/>
<path d="M80.6445 35.5978C80.6093 35.7686 80.6273 35.9461 80.696 36.1063C80.7656 36.2155 80.8603 36.3063 80.9723 36.3711C81.7597 36.862 82.6552 37.1525 83.5806 37.2171C83.7066 37.2192 83.8302 37.2514 83.9412 37.3108C84.1613 37.4561 84.1754 37.7795 84.0934 38.0372C83.9842 38.2804 83.9275 38.5439 83.9272 38.8105C83.9951 39.3003 84.5758 39.5135 85.0651 39.5862C85.7511 39.6729 86.5027 39.6283 87.046 39.1995C87.4139 38.8636 87.6944 38.4429 87.8631 37.974C89.2071 34.8831 89.6777 31.4666 91.0381 28.3851C91.1412 28.1839 91.21 27.9669 91.2418 27.743C91.2562 27.631 91.2403 27.5171 91.1958 27.4132C91.1514 27.3094 91.0799 27.2194 90.9889 27.1525C90.736 26.9955 90.3427 27.0845 90.1718 26.8385C90.0875 26.7143 90.0968 26.5456 90.0219 26.4143C89.865 26.1355 89.4529 26.18 89.172 26.0183C88.9519 25.9012 88.7997 25.6598 88.5538 25.6129C88.4331 25.6061 88.3125 25.6275 88.2016 25.6755C88.0906 25.7236 87.9923 25.7968 87.9146 25.8894C87.1162 26.6346 86.6971 27.6915 86.2522 28.6897C85.5729 30.2199 84.7776 31.6958 83.8733 33.1045C83.9787 32.9405 83.3676 31.6985 83.1287 31.6446C82.7096 31.5603 82.1734 32.2961 81.9463 32.5703C81.2336 33.4351 80.782 34.4853 80.6445 35.5978V35.5978Z" fill="white"/>
<path opacity="0.1" d="M89.1505 26.2362C88.9823 26.239 88.8169 26.2796 88.6665 26.3551C88.5162 26.4305 88.3847 26.5389 88.2818 26.6721C88.0313 26.9978 87.9821 27.429 87.9189 27.8437C87.7058 29.1578 87.2372 30.4173 86.5398 31.5509" fill="black"/>
<path opacity="0.1" d="M90.3449 27.1713C90.1128 27.1764 89.886 27.242 89.6868 27.3616C89.4877 27.4812 89.3231 27.6506 89.2093 27.8532C89.0543 28.2218 88.958 28.6124 88.9237 29.0108C88.7229 29.8941 88.3357 30.7242 87.7881 31.4455" fill="black"/>
<path d="M145.991 72.9833V70.0729C145.99 67.9304 145.14 65.8759 143.626 64.3612C142.112 62.8464 140.059 61.9955 137.918 61.9955H23.0732C20.9325 61.9955 18.8794 62.8464 17.3654 64.3612C15.8515 65.8759 15.0006 67.9304 15 70.0729V75.4391L145.991 72.9833Z" fill="#33323D"/>
<path d="M55.0222 58.5837C55.0222 58.5837 54.6944 78.9378 58.3002 85.635C61.906 92.3322 63.4513 121.467 63.4513 121.467C63.4513 121.467 101.251 125.38 127.592 116.78C153.933 108.18 209.982 104.663 209.982 104.663L200.537 40.9502C200.537 40.9502 153.875 37.9554 127.33 50.6257C100.785 63.2961 55.0222 58.5837 55.0222 58.5837Z" fill="#8DD070"/>
<path opacity="0.1" d="M55.0222 58.5837C55.0222 58.5837 54.6944 78.9378 58.3002 85.635C61.906 92.3322 63.4513 121.467 63.4513 121.467C63.4513 121.467 101.251 125.38 127.592 116.78C153.933 108.18 209.982 104.663 209.982 104.663L200.537 40.9502C200.537 40.9502 153.875 37.9554 127.33 50.6257C100.785 63.2961 55.0222 58.5837 55.0222 58.5837Z" fill="black"/>
<path d="M63.3879 66.019C63.3879 66.019 62.2055 82.8136 65.1721 88.1798C68.1387 93.546 68.2768 117.502 68.2768 117.502C68.2768 117.502 102.295 119.081 126.494 110.837C150.693 102.594 201.544 97.2461 201.544 97.2461L195.765 45.1424C195.765 45.1424 153.69 44.7088 129.133 56.313C104.576 67.9171 63.3879 66.019 63.3879 66.019Z" fill="#8DD070"/>
<path opacity="0.1" d="M128.759 101.298C133.599 100.694 136.475 91.7826 135.182 81.3929C133.889 71.0033 128.917 63.07 124.077 63.6734C119.236 64.2767 116.361 73.1883 117.654 83.578C118.947 93.9676 123.919 101.901 128.759 101.298Z" fill="black"/>
<path opacity="0.2" d="M174.955 9.91284C174.955 9.91284 129.622 21.3951 108.245 41.6063C86.8679 61.8174 41.8657 71.3876 41.8657 71.3876C41.8657 71.3876 47.7942 90.8582 53.2778 96.126C58.7614 101.394 69.1621 128.651 69.1621 128.651C69.1621 128.651 106.337 120.764 128.768 104.482C151.199 88.2009 203.476 67.6383 203.476 67.6383L174.955 9.91284Z" fill="black"/>
<path d="M41.1841 68.4724C41.1841 68.4724 47.1102 87.9454 52.5892 93.2132C58.0681 98.481 68.4734 125.736 68.4734 125.736C68.4734 125.736 105.653 117.851 128.086 101.569C150.519 85.2881 202.792 64.7324 202.792 64.7324L174.271 7C174.271 7 128.941 18.4823 107.563 38.6934C86.1863 58.9046 41.1841 68.4724 41.1841 68.4724Z" fill="#8DD070"/>
<path opacity="0.1" d="M41.1841 68.4724C41.1841 68.4724 47.1102 87.9454 52.5892 93.2132C58.0681 98.481 68.4734 125.736 68.4734 125.736C68.4734 125.736 105.653 117.851 128.086 101.569C150.519 85.2881 202.792 64.7324 202.792 64.7324L174.271 7C174.271 7 128.941 18.4823 107.563 38.6934C86.1863 58.9046 41.1841 68.4724 41.1841 68.4724Z" fill="black"/>
<path d="M51.4187 72.9809C51.4187 72.9809 55.4436 89.3303 59.9134 93.5248C64.3832 97.7194 71.8547 120.473 71.8547 120.473C71.8547 120.473 104.714 111.526 125.218 96.2478C145.722 80.9693 192.485 60.2848 192.485 60.2848L171.012 12.4529C171.012 12.4529 130.835 24.9592 111.02 43.5464C91.2042 62.1337 51.4187 72.9809 51.4187 72.9809Z" fill="#8DD070"/>
<path opacity="0.1" d="M124.46 86.4804C128.882 84.4196 128.886 75.0548 124.47 65.5635C120.054 56.0722 112.889 50.0486 108.467 52.1094C104.045 54.1701 104.041 63.5349 108.457 73.0262C112.873 82.5175 120.038 88.5411 124.46 86.4804Z" fill="black"/>
<path opacity="0.1" d="M149.091 75.8398V156.684C149.091 157.603 148.91 158.512 148.559 159.36C148.208 160.208 147.693 160.979 147.045 161.628C146.396 162.277 145.626 162.792 144.778 163.143C143.93 163.494 143.022 163.675 142.104 163.675H21.9892C20.1372 163.674 18.3613 162.937 17.052 161.626C15.7426 160.316 15.0071 158.538 15.0071 156.684V67.6897C18.449 68.9692 18.449 68.9692 21.9892 68.8614H142.104C143.955 68.8614 145.73 69.5961 147.04 70.9044C148.35 72.2127 149.087 73.9877 149.091 75.8398V75.8398Z" fill="black"/>
<path d="M149.091 76.8685V157.713C149.091 159.567 148.354 161.345 147.044 162.656C145.734 163.967 143.957 164.703 142.104 164.703H21.9892C20.1372 164.703 18.3613 163.966 17.052 162.655C15.7426 161.344 15.0071 159.567 15.0071 157.713V68.7161C18.449 69.9932 18.449 69.9932 21.9892 69.8877H142.104C143.955 69.8877 145.731 70.6228 147.041 71.9316C148.351 73.2404 149.088 75.016 149.091 76.8685V76.8685Z" fill="#504F60"/>
<path opacity="0.1" d="M148.749 106.758V132.611H123.696C120.301 132.566 117.06 131.184 114.675 128.764C112.29 126.345 110.952 123.083 110.952 119.685C110.952 116.286 112.29 113.024 114.675 110.605C117.06 108.185 120.301 106.803 123.696 106.758H148.749Z" fill="black"/>
<path d="M149.091 106.069V131.927H124.038C120.643 131.881 117.402 130.499 115.017 128.08C112.632 125.661 111.294 122.399 111.294 119C111.294 115.602 112.632 112.34 115.017 109.92C117.402 107.501 120.643 106.119 124.038 106.073L149.091 106.069Z" fill="#33323D"/>
<path opacity="0.1" d="M125.239 124.726C128.021 124.726 130.275 122.469 130.275 119.686C130.275 116.902 128.021 114.645 125.239 114.645C122.458 114.645 120.203 116.902 120.203 119.686C120.203 122.469 122.458 124.726 125.239 124.726Z" fill="black"/>
<path d="M125.581 124.042C128.363 124.042 130.617 121.785 130.617 119.001C130.617 116.218 128.363 113.961 125.581 113.961C122.8 113.961 120.545 116.218 120.545 119.001C120.545 121.785 122.8 124.042 125.581 124.042Z" fill="white"/>
<path d="M192.578 105.846C192.777 108.004 191.145 110.099 191.621 112.213C191.724 112.665 191.918 113.092 191.988 113.549C192.185 114.805 191.438 115.993 190.724 117.043L184.589 126.05C184.344 126.446 184.05 126.81 183.714 127.133C182.543 128.178 180.782 128.07 179.242 128.382C178.158 128.602 177.136 129.054 176.245 129.708C176.207 129.74 176.184 129.785 176.178 129.834C176.173 129.883 176.187 129.932 176.216 129.971C176.471 130.318 176.808 130.595 177.198 130.778C177.587 130.961 178.016 131.044 178.445 131.018C178.607 131.231 178.445 131.543 178.211 131.695C177.881 131.93 177.429 131.986 177.364 132.544C177.34 132.738 177.38 132.935 177.476 133.106C177.723 133.485 178.108 133.753 178.549 133.854C180.672 134.503 182.967 133.361 184.557 131.808C186.146 130.254 187.287 128.293 188.846 126.711C189.71 125.837 190.691 125.087 191.581 124.239C193.356 122.547 194.735 120.49 196.067 118.43C196.467 117.809 196.87 117.171 197.039 116.452C197.207 115.733 197.128 115.006 197.317 114.31C197.566 113.396 198.233 112.67 198.788 111.904C199.877 110.404 200.602 108.569 200.46 106.723C200.317 104.876 199.172 103.051 197.43 102.423C196.89 102.206 196.294 102.169 195.732 102.319C195.018 102.54 194.491 103.13 194.004 103.695L192.834 105.042C192.542 105.338 192.311 105.688 192.155 106.073C192.08 106.267 192.062 106.478 192.103 106.681C192.145 106.884 192.244 107.071 192.389 107.219" fill="#FBBEBE"/>
<path opacity="0.05" d="M192.578 105.846C192.777 108.004 191.145 110.099 191.621 112.213C191.724 112.665 191.918 113.092 191.988 113.549C192.185 114.805 191.438 115.993 190.724 117.043L184.589 126.05C184.344 126.446 184.05 126.81 183.714 127.133C182.543 128.178 180.782 128.07 179.242 128.382C178.158 128.602 177.136 129.054 176.245 129.708C176.207 129.74 176.184 129.785 176.178 129.834C176.173 129.883 176.187 129.932 176.216 129.971C176.471 130.318 176.808 130.595 177.198 130.778C177.587 130.961 178.016 131.044 178.445 131.018C178.607 131.231 178.445 131.543 178.211 131.695C177.881 131.93 177.429 131.986 177.364 132.544C177.34 132.738 177.38 132.935 177.476 133.106C177.723 133.485 178.108 133.753 178.549 133.854C180.672 134.503 182.967 133.361 184.557 131.808C186.146 130.254 187.287 128.293 188.846 126.711C189.71 125.837 190.691 125.087 191.581 124.239C193.356 122.547 194.735 120.49 196.067 118.43C196.467 117.809 196.87 117.171 197.039 116.452C197.207 115.733 197.128 115.006 197.317 114.31C197.566 113.396 198.233 112.67 198.788 111.904C199.877 110.404 200.602 108.569 200.46 106.723C200.317 104.876 199.172 103.051 197.43 102.423C196.89 102.206 196.294 102.169 195.732 102.319C195.018 102.54 194.491 103.13 194.004 103.695L192.834 105.042C192.542 105.338 192.311 105.688 192.155 106.073C192.08 106.267 192.062 106.478 192.103 106.681C192.145 106.884 192.244 107.071 192.389 107.219" fill="black"/>
<path d="M197.222 161.406C195.882 162.224 194.213 162.273 192.656 162.084C192.405 162.053 192.108 162.034 191.953 162.229C191.719 162.51 191.996 162.932 192.281 163.15C193.2 163.84 194.279 164.284 195.416 164.441C196.432 164.585 197.458 164.653 198.484 164.645C201.293 164.694 204.103 164.741 206.868 164.338C207.032 164.325 207.192 164.279 207.337 164.202C207.515 164.077 207.639 163.888 207.683 163.675C207.873 162.953 207.508 162.18 206.955 161.678C206.402 161.177 205.693 160.898 205 160.628L202.565 159.679C201.993 159.457 201.078 158.866 200.457 158.913C199.291 158.997 198.189 160.839 197.222 161.406Z" fill="#3F3D56"/>
<path opacity="0.05" d="M197.222 161.406C195.882 162.224 194.213 162.273 192.656 162.084C192.405 162.053 192.108 162.034 191.953 162.229C191.719 162.51 191.996 162.932 192.281 163.15C193.2 163.84 194.279 164.284 195.416 164.441C196.432 164.585 197.458 164.653 198.484 164.645C201.293 164.694 204.103 164.741 206.868 164.338C207.032 164.325 207.192 164.279 207.337 164.202C207.515 164.077 207.639 163.888 207.683 163.675C207.873 162.953 207.508 162.18 206.955 161.678C206.402 161.177 205.693 160.898 205 160.628L202.565 159.679C201.993 159.457 201.078 158.866 200.457 158.913C199.291 158.997 198.189 160.839 197.222 161.406Z" fill="black"/>
<path d="M198.928 129.054C197.915 130.404 196.866 131.962 197.116 133.633C197.252 134.533 197.755 135.327 198.125 136.159C198.626 137.289 198.889 138.503 199.146 139.712C199.525 141.479 199.907 143.25 200.139 145.045C200.403 147.072 199.16 152.937 199.045 154.978C199.017 155.471 198.959 156.002 198.617 156.356C198.484 156.497 198.306 156.609 198.245 156.792C198.209 156.968 198.238 157.151 198.327 157.308C198.898 158.597 200.066 159.557 201.37 160.106C202.675 160.654 205.819 161.601 207.24 161.65C207.428 161.671 207.617 161.646 207.793 161.577C207.982 161.462 208.131 161.291 208.219 161.087C209.238 159.138 208.259 152.206 208.273 150.006C208.287 148.171 208.72 146.348 208.641 144.516C208.575 143.044 208.172 141.605 208.039 140.138C207.805 137.734 208.245 135.318 208.687 132.942C209.025 131.119 209.364 129.296 209.797 127.496C210.062 126.397 210.369 125.289 210.968 124.335C211.436 123.578 212.094 122.945 212.64 122.226C214.154 120.239 214.827 117.736 214.513 115.257C214.48 115.022 211.001 116.14 210.694 116.274C209.443 116.804 208.291 117.545 207.29 118.465C206.484 119.233 205.85 120.26 205.145 121.12C204.147 122.337 203.162 123.562 202.19 124.796C201.08 126.207 199.993 127.626 198.928 129.054Z" fill="#464353"/>
<path opacity="0.05" d="M198.928 128.972C197.915 130.322 196.866 131.883 197.116 133.551C197.252 134.453 197.755 135.248 198.125 136.08C198.626 137.207 198.889 138.423 199.146 139.63C199.525 141.399 199.907 143.171 200.139 144.963C200.403 146.992 199.16 152.855 199.045 154.897C199.017 155.389 198.959 155.923 198.617 156.277C198.484 156.415 198.306 156.527 198.245 156.71C198.209 156.886 198.238 157.07 198.327 157.226C198.898 158.517 200.066 159.475 201.37 160.038C202.675 160.6 205.819 161.09 207.24 161.137C207.428 161.157 207.617 161.133 207.793 161.064C207.982 160.95 208.131 160.78 208.219 160.577C209.238 158.627 208.259 152.141 208.273 149.938C208.287 148.101 208.72 146.28 208.641 144.445C208.575 142.974 208.172 141.535 208.039 140.07C207.805 137.664 208.245 135.248 208.687 132.872C209.025 131.051 209.364 129.228 209.797 127.426C210.062 126.327 210.369 125.218 210.968 124.265C211.436 123.508 212.094 122.875 212.64 122.156C214.154 120.169 214.827 117.666 214.513 115.187C214.48 114.952 211.001 116.07 210.694 116.204C209.443 116.736 208.292 117.477 207.29 118.397C206.484 119.163 205.85 120.19 205.145 121.05C204.147 122.267 203.162 123.493 202.19 124.729C201.08 126.128 199.993 127.543 198.928 128.972Z" fill="black"/>
<path d="M187.647 99.327C190.786 99.327 193.33 96.7807 193.33 93.6398C193.33 90.4988 190.786 87.9525 187.647 87.9525C184.509 87.9525 181.965 90.4988 181.965 93.6398C181.965 96.7807 184.509 99.327 187.647 99.327Z" fill="#FBBEBE"/>
<path d="M192.766 93.4006C193.291 94.2387 193.979 94.9624 194.79 95.5285C195.6 96.0946 196.516 96.4914 197.484 96.6953L197.055 98.2536C196.315 100.93 195.484 103.76 193.419 105.616C193.653 104.709 193.353 103.742 192.843 102.954C192.332 102.167 191.616 101.548 190.914 100.937L187.643 98.1013C187.548 98.0244 187.469 97.9307 187.408 97.8248C187.328 97.6249 187.328 97.4014 187.408 97.2015C187.825 95.9033 189.015 95.0925 189.984 94.2161C190.47 93.7629 190.905 93.2567 191.279 92.707C191.932 91.7743 192.337 92.7117 192.766 93.4006Z" fill="#FBBEBE"/>
<path d="M180.162 87.922L180.033 86.8535C180.93 87.0878 181.782 86.3239 182.356 85.5342C182.929 84.7445 183.461 83.8142 184.334 83.4838C185.395 83.0854 186.519 83.7181 187.533 84.2524C188.668 84.8827 189.913 85.2885 191.202 85.4475C191.407 85.4543 191.611 85.4874 191.808 85.5459C192.468 85.7802 192.782 86.6098 192.878 87.362C192.974 88.1142 192.948 88.9132 193.274 89.5834C193.508 90.0919 193.944 90.4692 194.21 90.9707C194.913 92.3157 194.234 94.1553 194.967 95.4745L193.145 93.8038C192.979 93.6514 192.745 93.4921 192.56 93.621C192.415 93.7241 192.403 93.9467 192.344 94.1248C192.169 94.645 191.518 94.7997 191.047 94.5935C190.577 94.3872 190.232 93.9397 189.877 93.5319C189.071 92.5805 188.111 91.744 186.987 91.3386C186.495 91.1543 185.968 91.0769 185.444 91.1116C184.919 91.1464 184.407 91.2924 183.943 91.5401C183.093 92.0205 182.471 93.1406 181.429 93.1804C180 93.2343 179.406 90.5723 178.745 89.5202C178.987 89.3382 179.157 89.077 179.225 88.7822C179.294 88.4874 179.257 88.1779 179.12 87.908C179.216 87.8681 180.141 87.758 180.162 87.922Z" fill="#464353"/>
<path d="M109.875 54.6725C109.418 55.079 108.996 55.5226 108.613 55.9988C108.227 56.4817 108.021 57.0842 108.032 57.7024C108.034 57.8817 108.091 58.056 108.196 58.2016C108.249 58.2712 108.323 58.3224 108.407 58.3481C108.491 58.3737 108.581 58.3724 108.664 58.3445C108.758 58.2965 108.839 58.2256 108.898 58.1383C109.146 57.8407 109.408 57.556 109.685 57.2853C109.786 57.1846 109.919 57.0791 110.055 57.1166C110.116 57.1382 110.17 57.1744 110.214 57.2221C110.372 57.3583 110.486 57.5374 110.544 57.7376C110.626 58.0961 110.418 58.4546 110.181 58.7358C109.945 59.017 109.666 59.2865 109.57 59.6404C109.534 59.7338 109.534 59.8375 109.57 59.9309C109.615 59.9985 109.679 60.0521 109.753 60.0856C110.088 60.2703 110.46 60.3791 110.842 60.4042C111.224 60.4293 111.607 60.3702 111.963 60.2309C112.431 60.0411 112.848 59.7153 113.331 59.5466C113.539 59.4894 113.742 59.4109 113.935 59.3123C114.073 59.2204 114.191 59.1021 114.283 58.9641C114.375 58.8261 114.439 58.6713 114.471 58.5085C114.532 58.1833 114.544 57.8508 114.506 57.522C114.448 56.249 114.175 54.995 113.7 53.8125C113.673 53.7363 113.626 53.6684 113.565 53.6157C113.494 53.5727 113.413 53.5508 113.331 53.5524C112.731 53.4891 111.748 53.1822 111.169 53.4048C110.967 53.5158 110.793 53.6712 110.659 53.8594C110.551 53.9789 109.875 54.5155 109.875 54.6725Z" fill="#FBBEBE"/>
<path d="M109.685 54.1429C109.685 53.5711 108.983 52.1909 110.1 52.0995C110.1 51.4879 109.236 51.1083 109.397 50.4592C109.449 50.2436 109.631 50.0679 109.652 49.8476C109.723 49.2219 108.594 48.8821 108.781 48.2823C108.852 48.0479 109.1 47.912 109.154 47.68C109.28 47.1387 108.313 46.8973 108.294 46.342C108.294 46.1545 108.4 45.9788 108.39 45.7913C108.39 45.557 108.187 45.3789 108.074 45.175C107.782 44.6524 107.924 43.844 107.391 43.5745C107.744 43.605 107.859 43.0801 107.714 42.759C107.569 42.438 107.271 42.1591 107.269 41.803C107.286 41.6739 107.286 41.543 107.269 41.414C107.171 41.0718 106.611 41.0437 106.517 40.711C106.505 40.5833 106.501 40.4549 106.506 40.3267C106.468 40.0619 106.196 39.8932 105.941 39.8182C105.676 39.7731 105.421 39.6819 105.187 39.5487C105.023 39.4245 104.834 39.2183 104.658 39.3144C104.593 39.3542 104.56 39.4292 104.511 39.4854C104.3 39.7315 103.897 39.6237 103.633 39.4432C102.851 38.9113 102.462 37.9576 102.296 37.0273C102.129 36.097 102.134 35.1362 101.926 34.2153C101.862 33.9283 101.778 33.6463 101.673 33.3717C101.584 33.1374 101.298 32.7695 101.279 32.5328C101.237 31.9938 102.352 32.3617 102.776 32.4156C103.187 32.4558 103.594 32.5343 103.991 32.6499C104.415 32.8101 104.83 32.9924 105.234 33.1959C106.925 33.9435 108.966 34.0349 110.324 35.2909C110.772 35.7033 111.149 36.2446 111.729 36.4321C111.996 36.4832 112.258 36.5513 112.516 36.6359C113.16 36.9382 113.261 37.7935 113.612 38.4122C113.722 38.5755 113.819 38.748 113.9 38.9277C113.967 39.1396 113.999 39.3614 113.993 39.5838L114.043 41.2078C114.122 43.9284 114.202 46.656 113.912 49.3602C113.818 50.253 113.677 51.1716 113.942 52.0292C114.012 52.2636 114.111 52.4838 114.176 52.7205C114.234 52.998 114.264 53.2806 114.265 53.5641L114.303 54.6163C114.316 54.6981 114.297 54.7818 114.251 54.8506C114.212 54.8824 114.166 54.905 114.117 54.9168C114.068 54.9285 114.017 54.9291 113.968 54.9185C112.504 54.7873 111.025 53.9625 109.643 54.4616" fill="#464353"/>
<path d="M176.467 134.988C186.031 134.988 193.784 133.866 193.784 132.483C193.784 131.099 186.031 129.978 176.467 129.978C166.903 129.978 159.15 131.099 159.15 132.483C159.15 133.866 166.903 134.988 176.467 134.988Z" fill="#504F60"/>
<path d="M191.366 132.604C191.061 131.299 190.872 130.153 190.872 130.153C190.872 130.153 190.942 128.733 190.305 127.667V127.311V124.686C190.486 124.21 190.708 123.75 190.968 123.311C191.436 122.486 190.968 119.463 190.968 119.463C190.968 119.463 189.219 115.201 189.642 112.496C190.066 109.792 186.051 100.489 186.051 100.489C186.075 99.5921 186.202 98.7006 186.428 97.8319C186.47 97.6493 186.488 97.4616 186.479 97.2742C186.479 97.2508 186.479 97.2297 186.479 97.2063C186.479 97.1828 186.479 97.2203 186.479 97.2273C186.418 95.4441 185.009 92.1025 185.009 92.1025L185.198 85.7334C185.198 85.7334 186.097 81.984 184.632 76.9342C184.119 75.1743 183.791 73.766 183.583 72.6787C183.559 72.5568 183.536 72.4444 183.517 72.3249C186.535 71.8562 188.842 71.4813 188.842 71.4813C188.842 71.4813 187.09 64.149 185.908 62.8649C184.725 61.5807 183.779 57.5479 183.779 57.5479C183.779 57.5479 183.164 52.3715 184.159 50.8577C185.154 49.3439 185.294 46.7334 185.294 46.7334C185.294 46.7334 187.563 45.0931 187.849 44.3503C188.134 43.6074 188.605 41.9671 188.605 41.0977C188.605 40.2284 188.322 39.4574 188.415 38.9887C188.509 38.5201 187.753 36.7884 188.132 35.9635C188.23 35.7101 188.281 35.4409 188.282 35.1691C188.283 35.1613 188.283 35.1535 188.282 35.1457C188.282 35.1457 188.282 35.1457 188.282 35.1457C188.285 34.4239 188.219 33.7034 188.083 32.9945C187.427 32.4399 186.661 32.0302 185.835 31.7924L185.786 31.5956L185.657 31.08C185.585 31.0325 185.511 30.9887 185.435 30.9488V30.7613L185.414 30.0162L185.77 28.343C186.472 25.4326 182.588 24.9991 182.588 24.9991C182.352 24.5527 181.96 24.2089 181.487 24.0337C180.707 23.7595 181.358 28.411 181.721 28.7203C181.995 28.9546 182.843 30.4028 183.253 31.1199L183.318 31.237C183.254 31.2947 183.194 31.3574 183.14 31.4245L183.288 32.4345L183.311 32.5891C183.054 32.9091 182.845 33.2652 182.691 33.646C182.691 33.646 183.393 34.424 183.26 35.2863C183.126 36.1486 183.477 37.243 183.494 37.3016C183.452 37.2523 182.953 36.7134 182.454 36.8446C181.955 36.9758 180.562 37.3953 180.562 37.3953C180.562 37.3953 179.523 37.5781 179.626 37.8077C179.729 38.0374 178.923 39.045 178.923 39.045L176.128 36.3923C176.1 36.3127 176.069 36.233 176.046 36.158C175.932 35.7756 175.853 35.3833 175.812 34.9864C176.116 34.9139 176.415 34.8191 176.706 34.7028C177 34.6019 177.265 34.4315 177.479 34.206C177.762 33.8709 177.816 33.4163 177.931 32.9992C178.151 32.1837 178.633 31.4597 178.968 30.684C179.535 29.3734 179.718 27.9283 179.495 26.5176C179.452 26.0829 179.305 25.6649 179.066 25.2991C178.61 24.671 177.781 24.4156 177.179 23.9142C176.577 23.4127 176.188 22.6464 175.486 22.2738C174.852 21.934 174.081 21.9739 173.365 22.0911C171.965 22.322 170.621 22.8115 169.401 23.5345C168.993 23.7689 168.544 24.0571 168.075 23.9704C167.673 23.8977 167.373 23.5767 167.12 23.2674C167.123 23.2546 167.127 23.2421 167.132 23.2299C167.12 23.2185 167.11 23.2059 167.101 23.1924C166.805 23.8505 166.656 24.5656 166.666 25.2873C166.666 25.3998 166.666 25.5217 166.68 25.6224V25.7396C166.68 25.7724 166.68 25.8052 166.68 25.8357C166.68 25.8856 166.673 25.9353 166.659 25.9833C166.6 26.1267 166.51 26.2554 166.397 26.3606C166.311 26.4583 166.232 26.5625 166.163 26.6722C166.163 26.6348 166.186 26.5973 166.2 26.5574C166.021 26.8184 165.921 27.1248 165.91 27.4409C165.897 27.671 165.972 27.8973 166.12 28.0736C166.26 28.2098 166.413 28.3322 166.577 28.4391C166.521 28.7485 166.493 29.0621 166.493 29.3764C166.498 30.3083 166.743 31.223 167.205 32.0321C167.667 32.8412 168.33 33.5173 169.129 33.9951C169.162 34.0725 169.192 34.1521 169.223 34.2295C169.581 35.1668 169.85 36.2681 169.731 37.2758C169.731 37.3484 169.71 37.4234 169.698 37.4961C169.686 37.5687 169.628 37.5734 169.597 37.6132C169.597 37.6132 164.978 37.6601 163.891 36.6759C162.805 35.6917 161.147 39.0825 161.147 39.0825C161.147 39.0825 159.492 39.4035 159.159 39.0825C158.827 38.7614 156.89 39.038 156.89 39.038C156.097 38.3319 155.065 37.9548 154.003 37.9835C153.36 37.4944 152.651 37.0999 151.896 36.8118V36.8118L151.845 36.7931C151.512 36.6716 151.156 36.6267 150.803 36.6618C150.803 36.6618 148.532 34.7872 147.869 33.7749C147.206 32.7625 144.052 29.0249 144.038 29.0085V28.8281L144.003 28.2845C143.91 28.2992 143.815 28.307 143.72 28.3079C143.704 28.254 143.68 28.1907 143.657 28.1181C143.475 27.5878 143.251 27.073 142.987 26.5785C142.987 26.5785 142.987 25.8919 143.186 25.7185C143.385 25.5451 143.104 23.026 143.104 23.026C143.104 23.026 141.058 18.2386 139.224 21.8122C139.224 21.8122 135.759 24.1251 138.667 26.8199C138.667 26.8199 139.838 27.3823 139.992 27.8275C140.1 28.1157 140.493 28.9242 140.758 29.4678L140.877 29.7022L140.845 29.7303L140.887 30.1802L140.906 30.3536C140.358 30.6653 139.985 30.9746 140.077 31.2066C140.238 31.6036 140.349 32.0192 140.407 32.4438C140.407 32.4438 144.429 37.4867 144.949 39.6402C144.949 39.6402 155.736 46.0562 159.283 46.5132L158.656 49.7118C158.564 50.5798 158.518 51.4518 158.515 52.3246C158.562 53.0112 158.089 56.1278 158.089 56.1278C158.089 56.1278 157.473 60.7113 156.954 61.3534C156.434 61.9955 156.528 64.7442 156.528 64.7442C156.405 66.0601 156.17 67.363 155.825 68.6388C155.305 70.3799 155.682 72.5358 155.682 72.5358C155.682 72.5358 153.886 76.66 158.19 73.8644C158.19 73.8644 160.297 73.7332 162.737 73.6488C162.737 73.7285 162.737 73.8105 162.737 73.8832C162.737 74.1972 162.737 74.537 162.721 74.8931C162.688 77.2552 162.674 80.5171 162.781 82.9729C162.971 87.3268 164.296 95.9432 164.296 95.9432V100.281C164.211 100.688 164.168 101.102 164.17 101.518C164.142 103.044 164.548 104.547 165.341 105.851L165.673 108.738C165.673 108.738 166.45 110.641 166.465 111.784C166.462 111.876 166.451 111.968 166.432 112.058C166.401 112.204 166.389 112.353 166.394 112.501C166.35 113.813 167.139 116.953 167.139 116.953C167.139 116.953 167.186 120.115 167.659 120.3C168.064 120.457 167.118 122.12 166.837 122.598C166.829 122.569 166.824 122.539 166.82 122.509L166.762 122.603C166.664 122.859 166.614 123.131 166.614 123.405C166.588 123.62 166.623 123.839 166.716 124.036C166.809 124.233 166.955 124.399 167.139 124.515C168.038 125.066 168.52 125.523 167.757 125.706C167.476 125.749 167.198 125.808 166.923 125.881C166.923 125.846 166.895 125.809 166.884 125.776C166.776 125.818 166.686 125.896 166.629 125.997C166.573 126.098 166.552 126.215 166.572 126.329C166.579 126.701 166.675 127.065 166.851 127.393C167.607 129.09 168.132 129.736 168.132 129.736L168.495 129.696C168.441 129.835 168.37 129.967 168.284 130.088C168.146 130.284 167.963 130.445 167.75 130.556C167.552 130.675 167.331 130.751 167.101 130.779C166.845 130.787 166.593 130.85 166.362 130.962C166.132 131.074 165.927 131.234 165.762 131.43C165.294 132.042 164.994 132.874 165.926 133.605L169.309 134.777C169.309 134.777 175.13 135.534 174.821 134.226C174.512 132.918 174.325 131.775 174.325 131.775C174.35 130.977 174.189 130.183 173.856 129.457C173.795 129.339 173.727 129.225 173.65 129.115L173.856 129.094C173.856 129.094 174.283 126.205 174.849 125.657C174.98 125.53 175.011 125.422 174.98 125.357C175.039 125.2 174.889 125.108 174.699 125.054L174.657 125.169C174.472 125.129 174.283 125.107 174.093 125.106C174.093 125.106 173.903 123.594 174.519 123.044C174.569 122.981 174.605 122.909 174.626 122.831C174.646 122.754 174.65 122.673 174.638 122.594C174.643 122.386 174.621 122.179 174.573 121.978C174.567 121.991 174.56 122.003 174.552 122.015C174.243 120.642 173.194 118.46 173.194 118.46C173.194 118.46 173.147 117.087 173.526 116.536C173.906 115.986 173.477 109.066 173.477 109.066C173.477 109.066 173.62 105.722 173.194 104.164C172.768 102.605 173.714 100.77 173.714 100.77C173.714 100.77 173.714 100.735 173.714 100.672V100.649L173.66 100.121C173.658 100.132 173.658 100.143 173.66 100.154C173.564 99.2684 173.383 97.6632 173.25 96.9227C173.06 95.8682 173.299 90.8301 173.299 90.8301L174.149 88.6742L175.664 92.3884L177.273 97.3375C177.273 97.3375 178.069 98.3826 178.087 99.4465C178.087 99.498 178.087 99.5496 178.087 99.6011C178.074 99.7108 178.068 99.8211 178.069 99.9315C178.04 100.557 178.212 101.175 178.558 101.696C178.558 101.696 178.984 104.039 179.647 104.628C180.309 105.216 180.309 106.369 180.309 106.369C180.309 106.369 181.112 109.762 181.48 110.352C181.799 110.854 181.815 112.227 181.813 112.656C181.813 112.733 181.813 112.778 181.813 112.778C181.813 112.778 181.925 113.991 181.92 115.008C181.92 115.135 181.92 115.257 181.92 115.372C181.921 115.363 181.921 115.354 181.92 115.346C181.92 115.624 181.887 115.901 181.822 116.171L181.808 116.218C181.808 116.159 181.808 116.103 181.824 116.047C181.66 116.737 181.581 117.446 181.59 118.156C181.569 119.374 181.754 120.818 182.492 121.671C183.77 123.137 184.573 122.955 184.573 122.955C184.573 122.955 183.96 124.787 183.201 125.155C183.172 125.169 183.146 125.186 183.121 125.207C183.121 125.169 183.107 125.134 183.103 125.099C183.018 125.19 182.954 125.298 182.913 125.416C182.873 125.534 182.858 125.659 182.869 125.783C182.815 126.589 183.323 127.892 183.805 128.499C183.984 128.675 184.204 128.803 184.444 128.874C184.406 128.901 184.366 128.925 184.325 128.947C184.241 128.993 184.154 129.034 184.065 129.071C183.942 129.123 183.812 129.157 183.679 129.172C183.422 129.178 183.17 129.24 182.939 129.352C182.708 129.465 182.503 129.625 182.339 129.823C181.871 130.432 181.571 131.264 182.503 131.995L185.887 133.167C185.887 133.167 191.67 133.91 191.366 132.604Z" fill="url(#paint0_linear)"/>
<path d="M169.143 134.77L165.865 133.598C164.961 132.867 165.249 132.035 165.706 131.423C165.863 131.228 166.06 131.069 166.284 130.957C166.508 130.844 166.753 130.781 167.003 130.772C167.225 130.744 167.438 130.668 167.628 130.549C167.836 130.436 168.014 130.276 168.148 130.081C168.387 129.701 168.516 129.262 168.52 128.813C168.52 128.813 172.117 127.758 173.1 128.813C173.276 129.004 173.422 129.219 173.536 129.453C173.862 130.181 174.022 130.972 174.004 131.77C174.004 131.77 174.186 132.914 174.484 134.221C174.781 135.529 169.143 134.77 169.143 134.77Z" fill="#2D293D"/>
<path d="M185.168 133.153L181.89 131.981C180.986 131.25 181.274 130.418 181.731 129.809C181.887 129.613 182.083 129.453 182.307 129.341C182.53 129.229 182.775 129.166 183.026 129.157C183.155 129.144 183.281 129.11 183.4 129.057C183.487 129.02 183.571 128.979 183.653 128.933C184.569 128.429 184.545 127.191 184.545 127.191C184.545 127.191 188.139 126.137 189.125 127.191C189.257 127.334 189.372 127.491 189.469 127.66C190.085 128.726 190.017 130.149 190.017 130.149C190.017 130.149 190.2 131.295 190.485 132.6C190.771 133.905 185.168 133.153 185.168 133.153Z" fill="#2D293D"/>
<path opacity="0.1" d="M173.102 128.811C173.278 129.001 173.425 129.217 173.538 129.45L168.153 130.076C168.392 129.696 168.521 129.257 168.525 128.808C168.525 128.808 172.119 127.756 173.102 128.811Z" fill="black"/>
<path opacity="0.1" d="M189.474 127.665V128.675C188.636 130.055 184.583 129.753 183.405 129.061C183.491 129.025 183.576 128.983 183.658 128.937C184.573 128.433 184.55 127.196 184.55 127.196C184.55 127.196 188.144 126.142 189.13 127.196C189.261 127.339 189.377 127.496 189.474 127.665V127.665Z" fill="black"/>
<path d="M190.113 123.311C189.862 123.751 189.649 124.211 189.474 124.686V128.307C188.556 129.818 183.796 129.314 183.152 128.49C182.508 127.665 181.836 125.518 182.56 125.146C183.283 124.773 183.887 122.945 183.887 122.945C183.887 122.945 183.107 123.128 181.871 121.661C180.635 120.194 181.003 116.942 181.232 116.164C181.461 115.386 181.232 112.773 181.232 112.773C181.232 112.773 181.279 110.938 180.914 110.343C180.548 109.748 179.769 106.359 179.769 106.359C179.769 106.359 179.769 105.213 179.127 104.618C178.485 104.023 178.073 101.684 178.073 101.684C177.698 101.1 177.537 100.404 177.617 99.7136C177.753 98.5677 176.837 97.3304 176.837 97.3304L175.28 92.379L173.814 88.6672L172.99 90.8207C172.99 90.8207 172.756 95.8612 172.946 96.9133C173.135 97.9655 173.414 100.763 173.414 100.763C173.414 100.763 172.498 102.596 172.911 104.154C173.323 105.713 173.173 109.061 173.173 109.061C173.173 109.061 173.585 115.979 173.217 116.529C172.85 117.08 172.897 118.455 172.897 118.455C172.897 118.455 174.77 122.486 174.18 123.037C173.59 123.587 173.768 125.099 173.768 125.099C173.768 125.099 175.048 125.099 174.5 125.649C173.952 126.2 173.538 129.087 173.538 129.087L168.001 129.736C168.001 129.736 167.495 129.097 166.762 127.393C166.029 125.689 166.898 125.881 167.635 125.696C168.373 125.511 167.907 125.057 167.036 124.506C166.165 123.955 166.671 122.718 166.671 122.718C166.671 122.718 167.998 120.473 167.539 120.29C167.08 120.108 167.036 116.944 167.036 116.944C167.036 116.944 166.12 113.195 166.35 112.178C166.579 111.161 165.617 108.742 165.617 108.742L165.296 105.855C164.316 104.217 163.959 102.281 164.289 100.4V95.9479C164.289 95.9479 163.006 87.3338 162.824 82.9799C162.707 80.1914 162.739 76.3858 162.777 74.012C162.8 72.681 162.824 71.7976 162.824 71.7976L182.604 69.7355C182.604 69.7355 182.585 70.6494 182.962 72.6763C183.166 73.7636 183.482 75.172 183.978 76.9318C185.397 81.9723 184.529 85.7287 184.529 85.7287L184.344 92.1001C184.344 92.1001 186.083 96.3603 185.718 97.8272C185.497 98.6982 185.373 99.591 185.348 100.489C185.348 100.489 189.24 109.792 188.828 112.496C188.415 115.201 190.108 119.463 190.108 119.463C190.108 119.463 190.572 122.486 190.113 123.311Z" fill="#464353"/>
<path opacity="0.05" d="M178.804 99.4371L184.826 98.6333C184.826 98.6333 181.414 102.118 178.804 99.4371Z" fill="black"/>
<path opacity="0.1" d="M183.955 92.7445C183.955 92.7445 184.161 94.8769 182.857 95.6784C182.857 95.6784 185.191 95.3128 183.955 92.7445Z" fill="black"/>
<path opacity="0.1" d="M183.585 85.963C183.585 85.963 178.551 90.1107 176.72 89.7662C174.889 89.4218 183.585 85.963 183.585 85.963Z" fill="black"/>
<path opacity="0.1" d="M171.339 101.382C171.339 101.382 167.516 102.251 167.401 103.789C167.286 105.326 171.339 101.382 171.339 101.382Z" fill="black"/>
<path opacity="0.05" d="M172.18 120.494C172.18 120.494 166.778 121.502 168.312 122.188C169.846 122.875 172.365 123.426 172.365 123.426C172.365 123.426 174.109 123.517 172.18 120.494Z" fill="black"/>
<g opacity="0.05">
<path opacity="0.05" d="M167.221 123.28C167.085 123.195 166.97 123.081 166.884 122.945C166.799 122.81 166.745 122.657 166.727 122.498L166.671 122.594C166.671 122.594 166.167 123.831 167.038 124.379C167.137 124.443 167.233 124.506 167.319 124.567C167.481 124.536 167.654 124.513 167.82 124.471C168.558 124.288 168.092 123.831 167.221 123.28Z" fill="black"/>
<path opacity="0.05" d="M174.179 122.912C174.329 122.777 174.325 122.425 174.233 121.975C173.999 122.329 173.931 122.882 173.927 123.301C173.983 123.156 174.069 123.023 174.179 122.912V122.912Z" fill="black"/>
<path opacity="0.05" d="M173.348 100.114C173.149 100.656 173.026 101.223 172.983 101.799C173.087 101.401 173.228 101.014 173.402 100.641L173.348 100.114Z" fill="black"/>
<path opacity="0.05" d="M185.72 97.7101C185.756 97.5454 185.773 97.3771 185.769 97.2086C185.702 97.5507 185.655 97.8671 185.62 98.1459C185.65 98.003 185.683 97.8671 185.72 97.7101Z" fill="black"/>
<path opacity="0.05" d="M173.219 116.407C173.294 116.295 173.336 115.915 173.355 115.388C173.186 115.796 173.096 116.233 173.091 116.675C173.123 116.581 173.166 116.491 173.219 116.407V116.407Z" fill="black"/>
<path opacity="0.05" d="M174.343 125.049C174.06 125.969 173.849 126.909 173.714 127.861L168.176 128.501C168.176 128.501 167.67 127.861 166.938 126.158C166.878 126.026 166.826 125.892 166.781 125.755C166.448 125.907 166.312 126.252 166.753 127.257C167.485 128.953 167.993 129.6 167.993 129.6L173.531 128.958C173.531 128.958 173.943 126.071 174.491 125.52C174.772 125.256 174.599 125.117 174.343 125.049Z" fill="black"/>
<path opacity="0.05" d="M167.038 116.82C167.038 116.82 167.083 119.981 167.542 120.164C167.776 119.641 167.928 119.144 167.722 119.062C167.254 118.88 167.218 115.716 167.218 115.716C167.218 115.716 166.303 111.967 166.532 110.95C166.762 109.933 165.8 107.515 165.8 107.515L165.479 104.628C164.499 102.989 164.142 101.053 164.472 99.1723V94.72C164.472 94.72 163.189 86.1059 163.006 81.752C162.889 78.9635 162.922 75.1579 162.959 72.7841C162.959 72.3553 162.973 71.9757 162.98 71.6547L162.824 71.6711C162.824 71.6711 162.798 72.5522 162.777 73.8855C162.739 76.2593 162.704 80.0648 162.824 82.8511C163.006 87.205 164.287 95.8213 164.287 95.8213V100.274C163.958 102.154 164.317 104.089 165.296 105.727L165.615 108.614C165.615 108.614 166.577 111.041 166.347 112.051C166.118 113.061 167.038 116.82 167.038 116.82Z" fill="black"/>
<path opacity="0.05" d="M183.339 127.266C182.889 126.615 182.589 125.871 182.461 125.089C181.897 125.6 182.545 127.583 183.164 128.37C183.803 129.195 188.565 129.699 189.485 128.185V127.313C188.237 128.539 183.943 128.047 183.339 127.266Z" fill="black"/>
<path opacity="0.05" d="M190.298 122.087C190.047 122.528 189.832 122.988 189.656 123.463V124.112C189.762 123.878 189.909 123.564 190.125 123.194C190.269 122.833 190.338 122.446 190.326 122.057C190.326 122.057 190.305 122.078 190.298 122.087Z" fill="black"/>
<path opacity="0.05" d="M183.62 122.812C183.794 122.459 183.945 122.095 184.072 121.722C184.072 121.722 183.292 121.905 182.056 120.438C181.157 119.372 181.105 117.356 181.234 116.04C181 116.82 180.637 120.072 181.873 121.539C182.681 122.498 183.292 122.751 183.62 122.812Z" fill="black"/>
<path opacity="0.05" d="M181.232 112.649C181.313 113.552 181.343 114.458 181.323 115.365C181.346 115.222 181.377 115.08 181.417 114.941C181.651 114.16 181.417 111.55 181.417 111.55C181.417 111.55 181.464 109.715 181.096 109.12C180.728 108.525 179.963 105.131 179.963 105.131C179.963 105.131 179.963 103.986 179.321 103.39C178.68 102.795 178.268 100.456 178.268 100.456C177.889 99.8732 177.724 99.177 177.799 98.4857C177.937 97.3399 177.022 96.1026 177.022 96.1026L175.465 91.1535L173.999 87.4417L173.173 89.5975C173.173 89.5975 173.173 89.8693 173.145 90.3005L173.814 88.55L175.28 92.2548L176.837 97.2039C176.837 97.2039 177.752 98.4412 177.614 99.5871C177.539 100.278 177.704 100.975 178.083 101.558C178.083 101.558 178.495 103.901 179.136 104.492C179.778 105.082 179.775 106.233 179.775 106.233C179.775 106.233 180.555 109.624 180.92 110.216C181.286 110.809 181.232 112.649 181.232 112.649Z" fill="black"/>
</g>
<path d="M185.076 28.3361L184.732 30.0092L184.753 30.7544L184.767 31.3027L182.857 31.4995L182.644 31.1035C182.248 30.3865 181.426 28.9289 181.162 28.704C180.808 28.4087 180.178 23.7549 180.927 24.0314C181.389 24.2097 181.767 24.5528 181.99 24.9945C181.99 24.9945 185.753 25.4257 185.076 28.3361Z" fill="#FFCDD3"/>
<path opacity="0.1" d="M184.767 31.3025L182.857 31.4994L182.644 31.1033C182.901 30.8105 183.251 30.616 183.635 30.5527C184.019 30.4895 184.414 30.5615 184.751 30.7565L184.767 31.3025Z" fill="black"/>
<path d="M185.25 32.2095L182.73 32.793L182.677 32.4181L182.534 31.4081C182.534 31.4081 183.531 30.0771 184.973 31.0754L185.1 31.5885L185.25 32.2095Z" fill="white"/>
<path d="M144.439 28.5188L141.748 29.9623L141.514 29.4561C141.259 28.9195 140.877 28.111 140.772 27.8158C140.613 27.3706 139.491 26.8082 139.491 26.8082C136.681 24.1157 140.03 21.8005 140.03 21.8005C141.804 18.2269 143.776 23.0143 143.776 23.0143C143.776 23.0143 144.052 25.5381 143.858 25.7068C143.664 25.8755 143.664 26.5668 143.664 26.5668C143.92 27.0621 144.137 27.5769 144.312 28.1064C144.394 28.3618 144.439 28.5188 144.439 28.5188Z" fill="#FFCDD3"/>
<path opacity="0.1" d="M144.439 28.5187L141.748 29.9622L141.514 29.4561C141.893 29.1374 143.24 28.0501 143.682 28.0946C143.894 28.121 144.107 28.1265 144.319 28.111C144.394 28.3617 144.439 28.5187 144.439 28.5187Z" fill="black"/>
<path d="M144.713 29.3318L141.69 30.8221L141.629 30.173L141.587 29.7231C141.587 29.7231 143.338 28.221 143.856 28.2796C144.117 28.3176 144.383 28.3176 144.645 28.2796L144.68 28.8233L144.713 29.3318Z" fill="white"/>
<path d="M177.75 39.4504C177.75 39.4504 164.573 40.9384 167.036 40.137C168.75 39.5769 169.431 38.4966 169.574 37.2781C169.691 36.2634 169.429 35.1691 169.085 34.2318C168.775 33.4003 168.383 32.6019 167.914 31.8486C167.914 31.8486 177.982 26.3043 175.971 31.3448C175.661 32.1072 175.468 32.9123 175.399 33.7327C175.339 34.5479 175.427 35.3673 175.659 36.151C176.039 37.4226 176.763 38.5644 177.75 39.4504V39.4504Z" fill="#FFCDD3"/>
<path opacity="0.1" d="M175.963 31.3379C175.653 32.1003 175.461 32.9054 175.392 33.7257C174.444 34.5248 173.404 34.4709 172.067 34.4709C171.042 34.4709 169.904 34.7193 169.084 34.2248C168.775 33.3933 168.382 32.5949 167.914 31.8417C167.914 31.8417 177.979 26.2974 175.963 31.3379Z" fill="black"/>
<path d="M171.89 34.8223C174.899 34.8223 177.338 32.381 177.338 29.3694C177.338 26.3579 174.899 23.9165 171.89 23.9165C168.881 23.9165 166.441 26.3579 166.441 29.3694C166.441 32.381 168.881 34.8223 171.89 34.8223Z" fill="#FFCDD3"/>
<path opacity="0.1" d="M177.75 39.4503C177.75 39.4503 164.573 40.9383 167.036 40.1369C168.75 39.5768 169.431 38.4966 169.574 37.278C170.23 36.575 171.548 36.0525 172.384 35.7806C173.156 35.5206 173.991 35.5066 174.772 35.7408C175.079 35.8334 175.371 35.9691 175.641 36.1439C176.024 37.4202 176.755 38.5648 177.75 39.4503V39.4503Z" fill="black"/>
<path opacity="0.1" d="M185.25 32.2094L182.731 32.7929L182.677 32.4179C182.946 32.0471 183.324 31.7685 183.758 31.6201C184.191 31.4716 184.66 31.4606 185.1 31.5884L185.25 32.2094Z" fill="black"/>
<path opacity="0.1" d="M144.713 29.3318L141.69 30.8221L141.629 30.173C142.608 29.6462 143.626 29.1942 144.673 28.8209L144.713 29.3318Z" fill="black"/>
<path opacity="0.1" d="M182.962 72.681C177.856 73.4965 170.597 74.5369 169.445 74.1854C168.488 73.8948 165.434 73.9253 162.777 74.0167C162.8 72.6857 162.824 71.8022 162.824 71.8022L182.604 69.7401C182.604 69.7401 182.585 70.654 182.962 72.681Z" fill="black"/>
<path d="M188.052 71.4812C188.052 71.4812 171.248 74.3682 169.445 73.8245C167.642 73.2809 158.382 73.8691 158.382 73.8691C154.214 76.6647 155.954 72.5404 155.954 72.5404C155.954 72.5404 155.589 70.3869 156.092 68.6458C156.43 67.3675 156.661 66.0632 156.783 64.7465C156.783 64.7465 156.691 61.9954 157.195 61.3534C157.698 60.7113 158.295 56.1301 158.295 56.1301C158.295 56.1301 158.752 53.0135 158.707 52.3269C158.663 51.6403 158.843 49.7141 158.843 49.7141L159.44 46.5061C156.005 46.0491 145.565 39.6331 145.565 39.6331C145.061 37.4796 141.17 32.4391 141.17 32.4391C141.113 32.0153 141.006 31.5998 140.849 31.2018C140.575 30.4684 144.696 29.0015 144.696 29.0015C144.696 29.0015 147.763 32.7508 148.405 33.7678C149.047 34.7848 151.243 36.6548 151.243 36.6548C151.584 36.6196 151.929 36.6646 152.25 36.786L152.304 36.8024C153.04 37.0916 153.73 37.4862 154.352 37.974C155.385 37.9495 156.386 38.3277 157.146 39.0285C157.146 39.0285 159.019 38.752 159.344 39.0731C159.67 39.3941 161.266 39.0731 161.266 39.0731C161.266 39.0731 162.868 35.6823 163.922 36.6665C164.975 37.6507 169.445 37.6038 169.445 37.6038C170.04 36.8118 171.489 36.2447 172.395 35.9635C173.168 35.7045 174.002 35.6905 174.784 35.9236C175.121 36.0243 175.437 36.1829 175.72 36.3923L178.438 39.0496C178.438 39.0496 179.216 38.0397 179.125 37.8124C179.033 37.5851 180.04 37.3999 180.04 37.3999C180.04 37.3999 181.368 36.9875 181.871 36.8493C182.374 36.711 182.836 37.257 182.878 37.3062C182.861 37.2476 182.517 36.1345 182.644 35.2909C182.77 34.4473 182.093 33.6506 182.093 33.6506C183.695 29.7092 187.313 33.0085 187.313 33.0085C187.313 33.0085 187.725 35.1621 187.359 35.9869C186.994 36.8118 187.725 38.5528 187.633 39.0121C187.542 39.4714 187.818 40.2494 187.818 41.1211C187.818 41.9928 187.35 43.6402 187.085 44.3737C186.821 45.1071 184.613 46.7568 184.613 46.7568C184.613 46.7568 184.475 49.3696 183.512 50.8811C182.55 52.3925 183.154 57.5619 183.154 57.5619C183.154 57.5619 184.07 61.5947 185.215 62.8789C186.36 64.163 188.052 71.4812 188.052 71.4812Z" fill="#3F3D56"/>
<path opacity="0.1" d="M163.557 41.3273C163.557 41.3273 163.053 39.8158 162.594 39.6869C162.139 39.5192 161.695 39.3203 161.267 39.0917L161.562 38.527C161.562 38.527 163.28 38.9956 163.557 39.5041C163.833 40.0126 163.557 41.3273 163.557 41.3273Z" fill="black"/>
<path opacity="0.1" d="M154.352 37.9833C154.261 38.452 150.185 38.8527 150.185 38.8527L152.245 36.7859L152.297 36.8046C153.035 37.0954 153.728 37.4925 154.352 37.9833V37.9833Z" fill="black"/>
<path d="M142.561 32.0595C142.763 32.0595 142.926 31.8958 142.926 31.6939C142.926 31.492 142.763 31.3284 142.561 31.3284C142.359 31.3284 142.196 31.492 142.196 31.6939C142.196 31.8958 142.359 32.0595 142.561 32.0595Z" fill="#575988"/>
<path d="M143.029 32.793C143.231 32.793 143.394 32.6293 143.394 32.4274C143.394 32.2256 143.231 32.0619 143.029 32.0619C142.827 32.0619 142.664 32.2256 142.664 32.4274C142.664 32.6293 142.827 32.793 143.029 32.793Z" fill="#575988"/>
<path d="M143.488 33.4702C143.69 33.4702 143.854 33.3066 143.854 33.1047C143.854 32.9028 143.69 32.7391 143.488 32.7391C143.287 32.7391 143.123 32.9028 143.123 33.1047C143.123 33.3066 143.287 33.4702 143.488 33.4702Z" fill="#575988"/>
<path d="M143.968 34.2013C144.17 34.2013 144.334 34.0377 144.334 33.8358C144.334 33.6339 144.17 33.4702 143.968 33.4702C143.767 33.4702 143.603 33.6339 143.603 33.8358C143.603 34.0377 143.767 34.2013 143.968 34.2013Z" fill="#575988"/>
<path d="M187.13 34.0935C187.294 34.0935 187.427 33.9603 187.427 33.7959C187.427 33.6315 187.294 33.4983 187.13 33.4983C186.966 33.4983 186.833 33.6315 186.833 33.7959C186.833 33.9603 186.966 34.0935 187.13 34.0935Z" fill="#575988"/>
<path d="M187.177 34.7707C187.341 34.7707 187.474 34.6375 187.474 34.4731C187.474 34.3088 187.341 34.1755 187.177 34.1755C187.013 34.1755 186.88 34.3088 186.88 34.4731C186.88 34.6375 187.013 34.7707 187.177 34.7707Z" fill="#575988"/>
<path d="M187.217 35.4455C187.381 35.4455 187.514 35.3123 187.514 35.1479C187.514 34.9836 187.381 34.8503 187.217 34.8503C187.052 34.8503 186.919 34.9836 186.919 35.1479C186.919 35.3123 187.052 35.4455 187.217 35.4455Z" fill="#575988"/>
<path opacity="0.1" d="M163.573 53.747C163.528 53.6931 173.852 66.7384 181.864 59.1999C181.871 59.2022 169.211 60.9199 163.573 53.747Z" fill="black"/>
<path opacity="0.1" d="M157.649 60.5286C157.649 60.5286 163.826 60.6973 164.472 62.4759V64.3271C164.296 64.4247 164.098 64.476 163.897 64.476C163.696 64.476 163.498 64.4247 163.322 64.3271C162.699 63.9896 158.965 62.0916 157.649 63.0055V60.5286Z" fill="black"/>
<path d="M157.764 60.5286C157.764 60.5286 163.671 60.6903 164.289 62.3868V64.149C164.121 64.2426 163.932 64.2917 163.739 64.2917C163.546 64.2917 163.357 64.2426 163.189 64.149C162.594 63.8303 159.023 62.0189 157.764 62.8906V60.5286Z" fill="#3F3D56"/>
<path opacity="0.1" d="M161.021 47.1061C161.652 48.5679 162.456 49.9487 163.416 51.2186C164.46 52.6223 165.725 53.8466 167.162 54.8437C167.162 54.8437 161.124 47.9544 161.021 47.1061Z" fill="black"/>
<path opacity="0.1" d="M159 39.9237C159 39.9237 160.03 44.376 162.685 45.8875L159 39.9237Z" fill="black"/>
<path opacity="0.1" d="M157.42 40.3736C157.394 40.2916 156.504 43.8886 160.843 45.8874C160.843 45.8874 159 45.2617 157.42 40.3736Z" fill="black"/>
<path opacity="0.1" d="M184.39 37.3882C184.323 37.3882 186.531 38.7942 187.132 39.4503C187.132 39.4503 185.695 37.2945 184.39 37.3882Z" fill="black"/>
<path d="M170.417 34.3115C170.418 34.4304 170.443 34.5479 170.492 34.6565C170.54 34.7651 170.611 34.8625 170.699 34.9424C170.787 35.0224 170.89 35.0832 171.003 35.121C171.116 35.1588 171.235 35.1728 171.353 35.1621C173.013 35.2652 174.744 35.3378 176.27 34.6934C176.557 34.5911 176.814 34.4206 177.02 34.1966C177.291 33.8615 177.345 33.4069 177.455 32.9898C177.671 32.1744 178.13 31.4503 178.46 30.6746C179.018 29.3642 179.205 27.9251 179.001 26.5152C178.957 26.0831 178.815 25.6668 178.584 25.299C178.144 24.6687 177.34 24.4133 176.757 23.9118C176.174 23.4103 175.8 22.6441 175.118 22.2715C174.505 21.9293 173.753 21.9715 173.063 22.0887C171.704 22.3196 170.402 22.8088 169.227 23.5298C168.832 23.7642 168.399 24.0524 167.944 23.9657C167.546 23.8907 167.256 23.5556 167.008 23.2416C166.688 23.9915 166.554 24.8073 166.617 25.6201C166.634 25.7393 166.63 25.8607 166.605 25.9786C166.548 26.1211 166.461 26.2498 166.35 26.3559C165.94 26.8245 165.685 27.5861 166.09 28.0689C166.265 28.2774 166.537 28.3922 166.708 28.6055C167.015 28.9874 166.912 29.5428 166.905 30.0302C166.888 30.2004 166.931 30.3712 167.026 30.5129C167.115 30.5956 167.223 30.6539 167.341 30.6822C167.459 30.7106 167.582 30.7079 167.698 30.6746C167.93 30.6047 168.174 30.5816 168.415 30.6067C168.669 30.6893 168.888 30.8542 169.038 31.0753C169.794 32.0619 170.094 33.1351 170.417 34.3115Z" fill="#2D293D"/>
<g opacity="0.1">
<path opacity="0.1" d="M177.214 33.7818C177.008 34.0058 176.751 34.1763 176.465 34.2786C174.929 34.9183 173.201 34.8457 171.548 34.7473C171.37 34.749 171.195 34.7097 171.035 34.6324C170.782 34.4848 170.686 34.1755 170.609 33.8943C170.286 32.7226 169.988 31.647 169.22 30.6699C169.072 30.4445 168.853 30.2753 168.597 30.1895C168.357 30.1668 168.113 30.1898 167.881 30.2575C167.765 30.2911 167.642 30.2941 167.524 30.2661C167.406 30.2382 167.298 30.1803 167.209 30.0981C167.113 29.9563 167.07 29.7856 167.087 29.6154C167.087 29.1233 167.197 28.5726 166.891 28.1906C166.72 27.9774 166.448 27.8626 166.272 27.6517C166.158 27.4962 166.088 27.3125 166.069 27.1203C166.05 26.928 166.084 26.7342 166.167 26.5597C165.874 27.0284 165.75 27.6165 166.09 28.0196C166.265 28.2281 166.537 28.343 166.708 28.5562C167.015 28.9405 166.912 29.4935 166.905 29.9809C166.887 30.1509 166.929 30.3217 167.024 30.4637C167.113 30.5467 167.222 30.6053 167.34 30.6336C167.458 30.6619 167.582 30.6591 167.698 30.6254C167.93 30.5554 168.174 30.5323 168.415 30.5574C168.669 30.64 168.888 30.8049 169.038 31.0261C169.803 32.0032 170.103 33.0765 170.426 34.2528C170.464 34.5423 170.608 34.8072 170.831 34.9957C170.992 35.0731 171.168 35.1116 171.346 35.1081C173.006 35.2112 174.737 35.2862 176.263 34.6395C176.55 34.5379 176.807 34.3673 177.013 34.1427C177.116 34.0107 177.195 33.8616 177.247 33.7021C177.249 33.7326 177.233 33.7584 177.214 33.7818Z" fill="black"/>
<path opacity="0.1" d="M166.617 25.8357C166.69 25.7557 166.747 25.6616 166.783 25.5591C166.804 25.4406 166.804 25.3192 166.783 25.2006C166.737 24.5325 166.824 23.862 167.038 23.2275L167.008 23.1924C166.687 23.9411 166.553 24.7565 166.617 25.5685C166.624 25.6574 166.624 25.7467 166.617 25.8357V25.8357Z" fill="black"/>
</g>
<path opacity="0.1" d="M169.445 37.6156C169.445 37.6156 176.252 38.5201 176.863 37.4961Z" fill="black"/>
<path opacity="0.1" d="M182.677 34.7964C182.677 34.7964 186.46 34.7964 187.292 36.2211Z" fill="black"/>
<path d="M203.845 161.371C202.723 162.375 201.265 162.921 199.76 162.899C199.376 162.899 198.844 162.972 198.842 163.356C198.851 163.469 198.89 163.577 198.954 163.67C199.429 164.463 200.179 165.052 201.061 165.327C201.881 165.575 202.757 165.533 203.611 165.488L206.105 165.359C206.573 165.334 207.041 165.31 207.51 165.252C207.978 165.193 208.488 165.097 208.978 165.017C210.18 164.846 211.396 164.79 212.609 164.849C212.932 164.86 213.312 164.849 213.504 164.614C213.696 164.38 213.597 163.932 213.525 163.581C213.375 162.857 213.525 162.098 213.387 161.371C213.153 160.096 212.05 159.119 210.842 158.658C209.718 158.231 207.727 157.741 206.664 158.454C205.543 159.201 204.857 160.45 203.845 161.371Z" fill="#3F3D56"/>
<path d="M206.323 118.662C206.543 119.709 207.557 120.511 207.585 121.579C207.611 122.437 206.999 123.156 206.559 123.89C206.144 124.649 205.794 125.443 205.513 126.261C204.684 128.392 203.655 130.44 202.441 132.377C201.855 133.315 201.2 134.315 201.333 135.405C201.426 135.914 201.606 136.404 201.865 136.853L203.621 140.345C204.005 141.042 204.306 141.782 204.517 142.55C204.67 143.213 204.684 143.899 204.773 144.574C205.049 146.716 206.053 148.872 205.459 150.948C205.407 151.126 205.225 151.342 205.082 151.218C205.662 152.303 206.128 153.395 206.084 154.625C206.06 155.269 205.864 155.942 206.1 156.542C206.201 156.792 206.377 157.027 206.374 157.296C206.374 157.474 206.292 157.641 206.274 157.814C206.224 158.308 206.679 158.721 207.149 158.878C207.62 159.035 208.133 159.023 208.608 159.166C209.521 159.44 210.174 160.228 210.949 160.774C211.744 161.322 212.682 161.627 213.647 161.652C213.784 161.667 213.923 161.639 214.045 161.573C214.114 161.512 214.169 161.438 214.207 161.355C214.245 161.272 214.265 161.181 214.265 161.09C214.307 160.652 214.241 160.211 214.073 159.805C213.905 159.399 213.64 159.04 213.3 158.761C213.151 158.668 213.028 158.539 212.942 158.386C212.898 158.25 212.887 158.107 212.909 157.966C213.051 156.046 213.016 154.116 212.806 152.202C212.711 151.595 212.681 150.98 212.715 150.367C212.764 149.856 212.919 149.35 212.862 148.841C212.806 148.333 212.546 147.869 212.394 147.379C212.122 146.507 212.197 145.57 212.16 144.659C212.113 143.075 211.75 141.519 211.39 139.972C211.247 139.365 211.09 138.73 210.661 138.28C210.296 137.898 209.706 137.533 209.844 137.024C209.921 136.837 210.035 136.667 210.179 136.525C210.349 136.312 210.473 136.067 210.545 135.804C210.616 135.541 210.634 135.267 210.596 134.997C210.75 135.036 210.913 135.021 211.057 134.953C211.201 134.886 211.317 134.77 211.385 134.627C214.237 133.279 216.536 130.585 217.562 127.597C217.622 127.375 217.715 127.163 217.838 126.969C218.102 126.599 218.561 126.439 218.969 126.235C220.247 125.591 221.13 124.384 221.94 123.203C222.408 122.519 222.877 121.811 223.087 121.005C223.198 120.484 223.251 119.952 223.244 119.419L223.317 116.665C223.333 116.484 223.315 116.301 223.265 116.126C223.196 115.963 223.095 115.815 222.968 115.69C222.189 114.866 221.166 114.314 220.05 114.116C219.301 113.982 218.536 114.008 217.777 113.945C216.307 113.823 214.855 113.366 213.384 113.476C211.073 113.647 209.015 115.25 207.927 117.298C207.545 118.02 207.142 118.648 206.323 118.662Z" fill="#464353"/>
<path d="M193.492 100.759C193.523 101.184 193.465 101.611 193.323 102.012C193.143 102.397 192.691 102.697 192.295 102.54C192.415 102.27 192.098 101.963 191.803 101.996C191.658 102.029 191.523 102.098 191.41 102.195C191.297 102.292 191.21 102.415 191.155 102.554C190.959 102.947 190.894 103.393 190.968 103.826C191.061 104.365 191.373 104.883 191.291 105.424C191.225 105.874 190.895 106.322 191.071 106.739C191.184 106.929 191.327 107.101 191.494 107.247C191.726 107.533 191.839 107.896 191.811 108.262C191.782 108.628 191.615 108.97 191.342 109.216L195.772 109.305C195.611 110.045 195.943 110.802 196.322 111.461C197.385 113.271 198.852 114.81 200.608 115.958C202.365 117.106 204.363 117.831 206.447 118.076C206.334 118.142 206.237 118.232 206.164 118.339C206.09 118.447 206.041 118.57 206.021 118.699C206.001 118.828 206.009 118.96 206.046 119.085C206.083 119.21 206.147 119.326 206.234 119.423C206.594 119.782 207.205 119.737 207.657 119.505C208.109 119.273 208.463 118.889 208.875 118.591C209.602 118.075 210.49 117.836 211.378 117.916C211.933 117.97 212.471 118.151 213.028 118.179C214.667 118.266 216.072 117.085 217.65 116.602C218.8 116.248 220.104 116.248 221.069 115.529C221.486 115.219 221.827 114.711 221.706 114.209C221.605 113.921 221.446 113.657 221.237 113.434C220.683 112.714 220.355 111.85 219.957 111.032C219.168 109.413 218.082 107.956 216.756 106.739C215.755 105.863 214.694 105.058 213.581 104.33C213.312 104.131 213.025 103.958 212.724 103.812C212.335 103.641 211.905 103.559 211.553 103.343C211.034 103.015 210.734 102.436 210.333 101.97C209.455 100.944 208.107 100.473 207.025 99.6667C206.299 99.1254 205.658 98.413 204.791 98.1529C204.37 98.024 203.923 98.0146 203.501 97.8881C202.544 97.5975 201.846 96.7469 200.907 96.4024C200.165 96.1306 199.345 96.2009 198.565 96.1048C197.687 95.9963 196.847 95.6763 196.119 95.1722C195.884 94.9809 195.621 94.8275 195.339 94.7176C194.152 94.3567 194.056 96.5688 193.934 97.3351C193.777 98.4739 193.492 99.6057 193.492 100.759Z" fill="white"/>
<path d="M194.648 108.178C194.847 110.338 193.218 112.431 193.693 114.547C193.794 114.997 193.988 115.426 194.058 115.883C194.257 117.136 193.508 118.324 192.794 119.374L186.659 128.384C186.413 128.78 186.119 129.143 185.784 129.467C184.613 130.51 182.852 130.404 181.312 130.713C180.229 130.936 179.207 131.388 178.315 132.04C178.274 132.071 178.248 132.116 178.241 132.167C178.234 132.217 178.247 132.268 178.277 132.309C178.531 132.656 178.868 132.933 179.257 133.116C179.646 133.299 180.075 133.382 180.504 133.357C180.665 133.568 180.504 133.882 180.281 134.034C179.954 134.268 179.499 134.322 179.434 134.882C179.412 135.077 179.451 135.273 179.546 135.445C179.794 135.822 180.178 136.089 180.618 136.19C182.742 136.841 185.037 135.698 186.627 134.144C188.216 132.59 189.357 130.629 190.916 129.05C191.78 128.173 192.761 127.426 193.651 126.577C195.426 124.883 196.807 122.828 198.137 120.768C198.537 120.147 198.942 119.51 199.109 118.791C199.275 118.071 199.198 117.342 199.387 116.646C199.636 115.735 200.303 115.006 200.858 114.242C201.947 112.742 202.675 110.908 202.53 109.059C202.384 107.21 201.242 105.387 199.5 104.759C198.959 104.544 198.365 104.508 197.802 104.656C197.088 104.876 196.561 105.466 196.074 106.034L194.904 107.379C194.618 107.676 194.395 108.028 194.246 108.412C194.17 108.606 194.152 108.817 194.194 109.021C194.235 109.224 194.334 109.412 194.48 109.56" fill="#FBBEBE"/>
<path d="M197.758 99.3152C196.952 99.3621 196.065 99.4418 195.496 100.018C195.257 100.283 195.064 100.585 194.925 100.913C194.372 102.041 193.834 103.219 193.794 104.475C193.761 105.478 194.051 106.46 194.204 107.451C194.33 108.276 194.009 109.117 193.948 109.952C194.948 109.645 196.269 109.228 197.175 108.71C197.793 108.356 198.39 107.953 199.064 107.728C200.027 107.407 201.64 107.962 202.555 108.407C202.605 107.765 202.122 106.645 202.174 106.001C202.181 105.729 202.229 105.461 202.317 105.204C202.454 104.932 202.616 104.674 202.801 104.433C203.15 103.866 203.31 103.203 203.259 102.539C203.208 101.876 202.949 101.245 202.518 100.738C201.705 99.8237 200.434 99.4816 199.221 99.3316C198.457 99.243 197.688 99.2164 196.92 99.252" fill="white"/>
<path d="M278.244 165.096H-40.2435C-40.4441 165.096 -40.6366 165.056 -40.7784 164.985C-40.9203 164.914 -41 164.818 -41 164.718C-41 164.618 -40.9203 164.522 -40.7784 164.451C-40.6366 164.38 -40.4441 164.34 -40.2435 164.34H278.244C278.444 164.34 278.637 164.38 278.778 164.451C278.92 164.522 279 164.618 279 164.718C279 164.818 278.92 164.914 278.778 164.985C278.637 165.056 278.444 165.096 278.244 165.096Z" fill="#3F3D56"/>
</g>
<defs>
<linearGradient id="paint0_linear" x1="164.435" y1="134.988" x2="164.435" y2="20.4788" gradientUnits="userSpaceOnUse">
<stop stop-color="#808080" stop-opacity="0.25"/>
<stop offset="0.54" stop-color="#808080" stop-opacity="0.12"/>
<stop offset="1" stop-color="#808080" stop-opacity="0.1"/>
</linearGradient>
<clipPath id="clip0">
<rect width="238" height="170" fill="white"/>
</clipPath>
</defs>
</svg>
