<svg width="317" height="250" viewBox="0 0 317 250" fill="none" xmlns="http://www.w3.org/2000/svg">
<path d="M192.237 241.391C192.237 235.937 194.396 230.707 198.238 226.85C202.08 222.994 207.29 220.828 212.724 220.828C218.157 220.828 223.368 222.994 227.21 226.85C231.052 230.707 233.21 235.937 233.21 241.391" fill="#F2F2F2"/>
<path d="M212.724 242.502C212.577 242.502 212.436 242.444 212.332 242.339C212.228 242.235 212.17 242.094 212.17 241.946V231.109C212.17 230.962 212.228 230.82 212.332 230.716C212.436 230.612 212.577 230.553 212.724 230.553C212.87 230.553 213.011 230.612 213.115 230.716C213.219 230.82 213.277 230.962 213.277 231.109V241.946C213.277 242.094 213.219 242.235 213.115 242.339C213.011 242.444 212.87 242.502 212.724 242.502Z" fill="#CCCCCC"/>
<path d="M212.723 237.667C212.591 237.667 212.463 237.619 212.363 237.533L205.719 231.809C205.607 231.713 205.538 231.576 205.527 231.429C205.516 231.282 205.564 231.137 205.659 231.025C205.755 230.913 205.891 230.844 206.037 230.833C206.184 230.822 206.329 230.869 206.44 230.965L213.084 236.689C213.17 236.763 213.231 236.862 213.26 236.972C213.288 237.082 213.282 237.198 213.243 237.304C213.203 237.411 213.133 237.502 213.04 237.567C212.947 237.632 212.836 237.667 212.723 237.667V237.667Z" fill="#CCCCCC"/>
<path d="M144.067 241.391C144.067 235.937 146.225 230.707 150.067 226.85C153.909 222.994 159.12 220.828 164.553 220.828C169.986 220.828 175.197 222.994 179.039 226.85C182.881 230.707 185.039 235.937 185.039 241.391" fill="#F2F2F2"/>
<path d="M164.553 242.502C164.406 242.502 164.266 242.444 164.162 242.339C164.058 242.235 164 242.094 164 241.946V231.109C164 230.962 164.058 230.82 164.162 230.716C164.266 230.612 164.406 230.553 164.553 230.553C164.7 230.553 164.841 230.612 164.945 230.716C165.049 230.82 165.107 230.962 165.107 231.109V241.946C165.107 242.094 165.049 242.235 164.945 242.339C164.841 242.444 164.7 242.502 164.553 242.502Z" fill="#CCCCCC"/>
<path d="M164.553 237.667C164.421 237.667 164.293 237.619 164.192 237.533L157.548 231.809C157.493 231.761 157.447 231.703 157.414 231.638C157.38 231.573 157.36 231.502 157.355 231.429C157.349 231.356 157.357 231.282 157.38 231.213C157.403 231.143 157.439 231.078 157.486 231.023C157.534 230.967 157.592 230.922 157.657 230.889C157.722 230.856 157.793 230.836 157.866 230.831C157.939 230.825 158.012 230.834 158.081 230.857C158.15 230.881 158.214 230.917 158.27 230.965L164.914 236.689C165 236.763 165.061 236.862 165.089 236.972C165.117 237.082 165.112 237.198 165.072 237.304C165.033 237.41 164.962 237.502 164.869 237.567C164.776 237.632 164.666 237.667 164.553 237.667H164.553Z" fill="#CCCCCC"/>
<path d="M298.805 123.598C298.805 96.775 277.127 33.1257 250.386 33.1257C223.646 33.1257 201.968 96.775 201.968 123.598C201.976 136.482 207.082 148.835 216.161 157.942C225.24 167.049 237.551 172.165 250.386 172.165C263.222 172.165 275.533 167.049 284.612 157.942C293.691 148.835 298.796 136.482 298.805 123.598V123.598Z" fill="#F2F2F2"/>
<path d="M250.386 241.756C250.439 241.756 250.49 241.746 250.539 241.726C250.587 241.706 250.631 241.676 250.668 241.639C250.705 241.602 250.734 241.558 250.754 241.509C250.774 241.461 250.785 241.409 250.785 241.357V73.9133C250.784 73.8076 250.742 73.7063 250.667 73.6317C250.593 73.557 250.492 73.5151 250.386 73.5151C250.281 73.5151 250.18 73.557 250.105 73.6317C250.031 73.7063 249.989 73.8076 249.988 73.9133V241.357C249.988 241.409 249.999 241.461 250.019 241.509C250.039 241.558 250.068 241.602 250.105 241.639C250.142 241.676 250.186 241.706 250.234 241.726C250.282 241.746 250.334 241.756 250.386 241.756V241.756Z" fill="#CCCCCC"/>
<path d="M250.387 106.24C250.439 106.24 250.491 106.229 250.539 106.209C250.587 106.189 250.631 106.16 250.668 106.123L269.832 86.8999C269.907 86.8249 269.949 86.7233 269.949 86.6173C269.949 86.5114 269.907 86.4098 269.832 86.3349C269.757 86.26 269.656 86.218 269.55 86.218C269.445 86.2181 269.344 86.2602 269.269 86.3351L250.105 105.558C250.049 105.614 250.012 105.685 249.996 105.762C249.981 105.84 249.989 105.92 250.019 105.993C250.049 106.066 250.1 106.128 250.165 106.172C250.231 106.216 250.308 106.24 250.387 106.24V106.24Z" fill="#CCCCCC"/>
<path d="M250.386 139.518C250.465 139.518 250.542 139.494 250.608 139.451C250.673 139.407 250.724 139.344 250.754 139.271C250.784 139.198 250.792 139.118 250.777 139.041C250.761 138.963 250.724 138.892 250.668 138.836L218.574 106.644C218.537 106.607 218.494 106.577 218.445 106.557C218.397 106.537 218.345 106.527 218.293 106.527C218.241 106.527 218.189 106.537 218.141 106.557C218.092 106.577 218.048 106.607 218.011 106.644C217.974 106.681 217.945 106.725 217.925 106.773C217.905 106.822 217.895 106.874 217.895 106.926C217.895 106.979 217.905 107.031 217.925 107.079C217.945 107.128 217.974 107.172 218.011 107.209L250.105 139.401C250.142 139.438 250.186 139.467 250.234 139.488C250.282 139.508 250.334 139.518 250.386 139.518V139.518Z" fill="#CCCCCC"/>
<path d="M177.514 235.142L170.725 235.142L167.496 208.861L177.515 208.862L177.514 235.142Z" fill="#FFB8B8"/>
<path d="M165.877 233.195H178.968V241.469H157.634C157.634 239.274 158.502 237.17 160.048 235.618C161.594 234.067 163.691 233.195 165.877 233.195V233.195Z" fill="#2F2E41"/>
<path d="M226.766 227.424L220.592 230.255L206.776 207.697L215.889 203.52L226.766 227.424Z" fill="#FFB8B8"/>
<path d="M215.376 230.506L227.284 225.047L230.708 232.573L211.303 241.469C210.853 240.481 210.602 239.413 210.563 238.328C210.524 237.242 210.699 236.159 211.077 235.141C211.456 234.123 212.03 233.19 212.767 232.395C213.505 231.599 214.391 230.958 215.376 230.506V230.506Z" fill="#2F2E41"/>
<path d="M177.081 228.213H170.596C169.967 228.21 169.362 227.971 168.901 227.541C168.441 227.111 168.159 226.522 168.111 225.893L164.574 131.104C164.548 130.741 164.601 130.376 164.73 130.036C164.859 129.695 165.06 129.387 165.32 129.133C165.579 128.878 165.891 128.684 166.234 128.563C166.576 128.443 166.94 128.398 167.301 128.434L204.805 132.431C205.413 132.491 205.978 132.773 206.392 133.223C206.807 133.673 207.043 134.26 207.054 134.873L207.84 176.686C207.844 176.913 207.888 177.137 207.97 177.349L223.354 217.393C223.473 217.702 223.529 218.032 223.52 218.364C223.51 218.695 223.435 219.021 223.299 219.323C223.163 219.625 222.968 219.897 222.727 220.123C222.485 220.349 222.201 220.524 221.891 220.639L215.319 223.069C214.748 223.28 214.121 223.274 213.554 223.053C212.987 222.831 212.521 222.409 212.242 221.866L193.344 184.981C193.241 184.781 193.165 184.567 193.12 184.346L189.891 168.733C189.798 168.28 189.546 167.876 189.183 167.592C188.819 167.309 188.366 167.164 187.906 167.185C187.446 167.206 187.008 167.391 186.672 167.706C186.335 168.022 186.121 168.447 186.069 168.907L179.556 225.996C179.487 226.606 179.196 227.169 178.739 227.578C178.283 227.987 177.692 228.213 177.081 228.213V228.213Z" fill="#2F2E41"/>
<path d="M180.31 56.9881C187.82 56.9881 193.909 50.8768 193.909 43.3382C193.909 35.7995 187.82 29.6882 180.31 29.6882C172.799 29.6882 166.711 35.7995 166.711 43.3382C166.711 50.8768 172.799 56.9881 180.31 56.9881Z" fill="#FFB8B8"/>
<path d="M189.685 139.753C177.656 139.754 168.238 134.727 164.827 132.623H164.828C164.441 132.384 164.127 132.043 163.92 131.638C163.713 131.232 163.622 130.777 163.655 130.323L166.962 82.8765C167.175 79.6744 168.13 76.5666 169.753 73.8016C171.376 71.0366 173.621 68.6912 176.309 66.9528C178.876 65.2474 181.805 64.1687 184.862 63.8031C187.919 63.4374 191.019 63.7949 193.913 64.847C195.191 65.2896 196.397 65.9169 197.494 66.7091C204.82 72.1858 208.35 80.4329 207.181 89.3353C204.756 107.797 207.503 132.701 207.824 135.479L207.848 135.68L207.665 135.764C202.033 138.392 195.896 139.753 189.685 139.753V139.753Z" fill="#175E7A"/>
<path d="M206.999 146.531C207.649 146.039 208.184 145.411 208.566 144.689C208.948 143.968 209.168 143.171 209.211 142.356C209.253 141.54 209.117 140.724 208.811 139.967C208.505 139.21 208.038 138.529 207.442 137.973L215.422 119.8L205.284 121.524L199.261 138.517C198.396 139.584 197.951 140.933 198.011 142.307C198.07 143.681 198.63 144.986 199.584 145.973C200.537 146.961 201.819 147.563 203.186 147.666C204.552 147.769 205.909 147.365 206.999 146.531V146.531Z" fill="#FFB8B8"/>
<path d="M207.762 135.305C207.417 135.305 207.075 135.233 206.76 135.093C206.444 134.953 206.161 134.749 205.928 134.493L202.953 131.236C202.664 130.917 202.461 130.529 202.364 130.109C202.268 129.689 202.28 129.251 202.4 128.837L209.213 105.692L198.847 83.8413C198.393 82.8807 198.281 81.7924 198.532 80.7591C198.753 79.8522 199.243 79.0338 199.936 78.4119C200.63 77.7899 201.495 77.3937 202.418 77.2754C203.341 77.1571 204.277 77.3223 205.105 77.7492C205.932 78.1761 206.611 78.8446 207.052 79.6666L221.065 102.49C221.61 103.377 221.93 104.384 221.997 105.424C222.063 106.464 221.875 107.504 221.447 108.454L210.036 133.832C209.866 134.21 209.606 134.539 209.279 134.791C208.951 135.042 208.566 135.208 208.159 135.273C208.028 135.294 207.895 135.304 207.762 135.305V135.305Z" fill="#175E7A"/>
<path d="M191.514 55.3722C190.104 55.6149 188.944 53.6447 188.768 52.2588C188.593 50.873 189.096 49.5464 189.151 48.1695C189.206 46.7926 188.559 45.1194 187.134 44.7112C185.641 44.2832 184.256 45.4858 182.727 45.3412C180.597 45.1396 179.527 42.637 179.269 40.6125C179.011 38.588 178.808 36.1905 176.963 35.0359C175.124 33.885 172.848 34.7224 170.734 34.7582C167.162 34.8188 163.526 32.0845 162.691 28.7103C163.124 28.8357 163.587 28.8124 164.006 28.6441C164.424 28.4758 164.775 28.1722 165.003 27.7812C165.181 27.3641 165.218 26.8993 165.106 26.4592C164.995 26.0191 164.741 25.6284 164.386 25.348L168.435 27.3382C167.881 26.2077 168.717 24.92 169.867 24.4919C171.018 24.0638 172.356 24.256 173.626 24.454C179.966 25.4427 187.309 24.9554 191.514 29.8074C194.427 33.1682 196.825 39.5634 196.497 43.7014C196.17 47.8393 191.514 55.3722 191.514 55.3722Z" fill="white"/>
<path d="M119.406 78.6421C120.114 78.2378 120.901 77.994 121.712 77.928C122.523 77.8619 123.339 77.9752 124.102 78.2599C124.865 78.5446 125.556 78.9938 126.128 79.5757C126.699 80.1577 127.136 80.8583 127.409 81.6282L147.194 81.4851L141.596 90.1414L123.665 88.9501C122.347 89.3237 120.937 89.1986 119.704 88.5987C118.471 87.9987 117.499 86.9656 116.974 85.695C116.449 84.4244 116.407 83.0046 116.855 81.7047C117.303 80.4048 118.211 79.3151 119.406 78.6421V78.6421Z" fill="#FFB8B8"/>
<path d="M129.702 88.0768C129.631 87.7377 129.632 87.3877 129.704 87.0489C129.776 86.7102 129.917 86.3902 130.119 86.1093L132.69 82.522C132.941 82.1727 133.278 81.8943 133.668 81.7136C134.058 81.5328 134.488 81.4557 134.916 81.4898L158.06 80.5165L178.078 68.8232C178.922 68.1806 179.961 67.8493 181.02 67.8848C181.95 67.917 182.848 68.2312 183.596 68.7861C184.344 69.341 184.907 70.1105 185.21 70.993C185.514 71.8756 185.544 72.8297 185.296 73.7297C185.048 74.6296 184.535 75.433 183.823 76.034L164.42 94.4582C163.666 95.1747 162.749 95.6946 161.748 95.972C160.747 96.2495 159.694 96.2761 158.681 96.0495L131.601 90.011C131.199 89.9218 130.824 89.7333 130.512 89.4626C130.2 89.1919 129.96 88.8475 129.814 88.4605C129.766 88.3357 129.729 88.2074 129.702 88.0768V88.0768Z" fill="#175E7A"/>
<path d="M267.668 242.788H19.6881C19.5319 242.788 19.3821 242.729 19.2716 242.625C19.1612 242.521 19.0991 242.38 19.0991 242.232C19.0991 242.085 19.1612 241.944 19.2716 241.839C19.3821 241.735 19.5319 241.677 19.6881 241.677H267.668C267.824 241.677 267.974 241.735 268.084 241.839C268.195 241.944 268.257 242.085 268.257 242.232C268.257 242.38 268.195 242.521 268.084 242.625C267.974 242.729 267.824 242.788 267.668 242.788Z" fill="#3F3D56"/>
<path d="M58.3116 133.465C58.6445 134.042 59.0874 134.548 59.6152 134.953C60.1429 135.358 60.7451 135.655 61.3872 135.827C62.0293 135.998 62.6988 136.041 63.3574 135.952C64.016 135.864 64.6507 135.646 65.2253 135.311C65.7999 134.976 66.3031 134.531 66.7061 134C67.109 133.47 67.4039 132.865 67.5738 132.221C67.7436 131.576 67.7852 130.904 67.696 130.243C67.6069 129.582 67.3888 128.945 67.0543 128.369C66.913 128.131 66.7538 127.904 66.5782 127.691L70.8306 97.2686L70.9579 96.3572L71.8217 90.1494L71.9491 89.2546L71.4784 89.2769L63.2396 89.6548L61.0303 89.7548L60.7535 95.418L59.1865 127.257C58.3678 128.043 57.8364 129.083 57.6777 130.209C57.519 131.335 57.7423 132.482 58.3116 133.465V133.465Z" fill="#FFB8B8"/>
<path d="M70.9332 96.6341L60.4716 95.6707C59.929 95.6192 59.4287 95.3544 59.0797 94.9341C58.7308 94.5138 58.5615 93.9721 58.6089 93.4271L60.5494 71.5903C60.6434 70.5297 60.9484 69.4988 61.4464 68.5586C61.9444 67.6184 62.6253 66.788 63.4486 66.1166C64.272 65.4452 65.2212 64.9464 66.24 64.6497C67.2588 64.353 68.3266 64.2644 69.3801 64.3892C70.4336 64.5141 71.4515 64.8497 72.3735 65.3764C73.2955 65.903 74.1028 66.61 74.7478 67.4554C75.3928 68.3008 75.8623 69.2674 76.1285 70.2982C76.3947 71.3289 76.4523 72.4028 76.2977 73.4562L73.1608 94.8751C73.0887 95.3658 72.8434 95.8142 72.4696 96.1387C72.0958 96.4632 71.6183 96.642 71.1241 96.6427C71.0609 96.6428 70.9971 96.6401 70.9332 96.6341Z" fill="#175E7A"/>
<path d="M63.0049 78.9912C61.9468 75.9829 61.8978 72.7097 62.8652 69.6707C63.8327 66.6318 65.7637 63.9937 68.3638 62.1586C72.3088 59.4493 77.7072 58.4768 83.5208 65.4237C95.1482 79.3176 98.1935 94.6009 98.1935 94.6009L74.3851 98.4912C74.3851 98.4912 66.2875 88.5572 63.0049 78.9912Z" fill="#175E7A"/>
<path d="M101.511 235.496L108.299 235.495L111.528 209.215L101.51 209.215L101.511 235.496Z" fill="#FFB8B8"/>
<path d="M45.7026 229.553L52.1475 231.692L63.4316 207.757L53.9193 204.601L45.7026 229.553Z" fill="#FFB8B8"/>
<path d="M62.5996 241.823L42.3436 235.102L44.9303 227.247L57.3602 231.371C59.4358 232.059 61.1539 233.547 62.1365 235.508C63.1191 237.468 63.2857 239.739 62.5996 241.823L62.5996 241.823Z" fill="#2F2E41"/>
<path d="M77.9491 55.2681C85.4597 55.2681 91.5482 49.1569 91.5482 41.6182C91.5482 34.0796 85.4597 27.9683 77.9491 27.9683C70.4386 27.9683 64.3501 34.0796 64.3501 41.6182C64.3501 49.1569 70.4386 55.2681 77.9491 55.2681Z" fill="#FFB8B8"/>
<path d="M89.856 228.18L83.5521 186.418C83.4848 185.972 83.2654 185.563 82.9314 185.262C82.5973 184.961 82.1694 184.785 81.7207 184.765C81.272 184.746 80.8304 184.883 80.4714 185.154C80.1124 185.425 79.8584 185.813 79.7527 186.251L70.153 226.05C70.0017 226.66 69.6289 227.191 69.1077 227.539C68.5865 227.887 67.9546 228.027 67.3359 227.931L40.856 223.659C40.5049 223.603 40.1699 223.471 39.8736 223.274C39.5773 223.076 39.3265 222.818 39.1381 222.515C38.9496 222.212 38.8279 221.873 38.7812 221.519C38.7344 221.165 38.7636 220.805 38.8669 220.464L73.395 106.202C73.4932 105.877 73.5048 105.532 73.4288 105.201L72.2792 100.201C72.1529 99.6588 72.2111 99.0898 72.4446 98.5848C72.6781 98.0798 73.0734 97.6678 73.5674 97.4146C78.2691 95.0065 90.1752 90.0003 99.1649 95.4841C99.4566 95.6627 99.7091 95.8989 99.9071 96.1786C100.105 96.4582 100.244 96.7753 100.316 97.1106L127.289 224.36C127.363 224.706 127.362 225.064 127.288 225.409C127.213 225.755 127.066 226.081 126.857 226.366C126.648 226.65 126.381 226.887 126.073 227.061C125.766 227.234 125.426 227.34 125.075 227.371L92.5419 230.296C92.4668 230.302 92.3924 230.305 92.3186 230.305C91.7229 230.304 91.1473 230.089 90.6957 229.7C90.2441 229.31 89.9463 228.771 89.856 228.18Z" fill="#2F2E41"/>
<path d="M68.9316 31.974C69.9567 31.3551 70.8665 30.5615 71.6199 29.6289C71.9915 29.1577 72.236 28.5985 72.33 28.0051C72.424 27.4116 72.3644 26.8039 72.1568 26.2403C71.4697 24.7189 69.4279 24.237 67.846 24.7557C66.2641 25.2744 65.0419 26.5184 63.8857 27.7198C62.8672 28.7781 61.8198 29.8827 61.3366 31.2718C60.8535 32.661 61.1017 34.4221 62.3033 35.265C63.4825 36.0921 65.1778 35.7535 66.312 34.8652C67.4461 33.9769 68.1482 32.6587 68.8176 31.3806L68.9316 31.974Z" fill="#175E7A"/>
<path d="M64.326 28.0848C64.2506 24.2388 59.883 21.481 56.1111 22.1625C52.3393 22.844 49.4399 26.0722 47.9886 29.6325C44.9222 37.1549 47.2241 45.738 50.1787 53.3053C53.1332 60.8727 56.7895 68.5547 56.3585 76.6709C56.0673 81.0581 54.6009 85.2849 52.1142 88.9048C49.6276 92.5247 46.2131 95.4033 42.2314 97.2364C46.4884 99.1732 51.5766 97.1724 55.1538 94.1531C63.098 87.4477 66.1645 75.5099 62.4408 65.7848C60.6041 60.9882 57.3674 56.8846 54.8404 52.4155C52.3135 47.9464 50.4594 42.6797 51.764 37.7107C53.0687 32.7416 58.6209 28.717 63.3677 30.642L64.326 28.0848Z" fill="white"/>
<path d="M78.7647 47.6753C77.5793 45.6644 76.3825 43.0246 78.5499 41.2669C79.0211 40.9021 79.5601 40.6355 80.1354 40.4829C80.7107 40.3302 81.3106 40.2944 81.8999 40.3778C84.3429 40.6734 87.0033 40.7952 89.3677 39.9044C90.2546 39.598 91.071 39.1159 91.7686 38.4867C92.4662 37.8575 93.0308 37.094 93.4287 36.2416C94.6495 33.3384 93.1208 29.8105 90.5688 27.9752C89.0076 26.8933 87.1628 26.2981 85.2659 26.2645C83.369 26.2308 81.5045 26.7601 79.9061 27.786C76.6007 26.3207 72.5902 26.9722 69.5873 28.9895C66.5844 31.0068 64.5296 34.2373 63.4133 37.6868C62.385 40.656 62.208 43.8553 62.9023 46.9205C63.4611 49.0529 64.5236 51.0188 65.9999 52.6517C67.4761 54.2845 69.3226 55.5363 71.383 56.301C72.1857 56.6185 73.0574 56.7187 73.9108 56.5916C74.7642 56.4645 75.5694 56.1146 76.2456 55.5768C76.2456 55.5768 78.12 53.9345 78.7064 51.9564C79.1569 50.4371 79.398 48.7497 78.7647 47.6753Z" fill="white"/>
<path d="M119.107 59.855C119.039 60.1548 118.995 60.4596 118.975 60.7665L95.19 74.5392L89.4087 71.1986L83.2456 79.2972L92.9076 86.2095C93.6881 86.7679 94.6281 87.0571 95.5863 87.0337C96.5446 87.0102 97.4694 86.6754 98.2219 86.0795L122.748 66.6581C123.855 67.0694 125.06 67.1327 126.204 66.8395C127.348 66.5464 128.375 65.9107 129.15 65.0171C129.925 64.1235 130.41 63.0143 130.542 61.837C130.673 60.6597 130.444 59.4701 129.886 58.4264C129.327 57.3828 128.466 56.5346 127.415 55.9946C126.365 55.4546 125.175 55.2484 124.005 55.4035C122.835 55.5586 121.74 56.0675 120.865 56.8627C119.99 57.6579 119.377 58.7016 119.107 59.8549V59.855Z" fill="#FFB8B8"/>
<path d="M94.3947 75.1916L86.7075 85.1919C86.4888 85.4764 86.2116 85.7103 85.8947 85.8776C85.5778 86.0448 85.2287 86.1416 84.8712 86.1613C84.5137 86.1809 84.1561 86.123 83.8229 85.9915C83.4897 85.8599 83.1887 85.6578 82.9403 85.399L74.2379 76.3284C72.793 75.1972 71.8541 73.5369 71.6273 71.7118C71.4004 69.8867 71.904 68.0457 73.0276 66.5928C74.1512 65.1399 75.8031 64.1937 77.6209 63.9617C79.4387 63.7298 81.2739 64.231 82.724 65.3555L93.6388 71.4814C93.9512 71.6569 94.2223 71.8979 94.4336 72.1881C94.6449 72.4782 94.7914 72.8107 94.8631 73.1628C94.9349 73.5149 94.9302 73.8783 94.8494 74.2284C94.7685 74.5786 94.6135 74.9071 94.3948 75.1916H94.3947Z" fill="#175E7A"/>
<path d="M121.39 241.822L100.056 241.823L100.056 233.549L113.147 233.549C114.23 233.549 115.301 233.763 116.301 234.178C117.302 234.594 118.21 235.203 118.976 235.972C119.741 236.74 120.348 237.652 120.763 238.656C121.177 239.659 121.39 240.735 121.39 241.822V241.822V241.822Z" fill="#2F2E41"/>
</svg>
