<svg width="216" height="170" viewBox="0 0 216 170" fill="none" xmlns="http://www.w3.org/2000/svg">
<path d="M130.848 164.146C130.848 160.437 132.318 156.881 134.933 154.258C137.548 151.636 141.094 150.163 144.793 150.163C148.491 150.163 152.038 151.636 154.653 154.258C157.268 156.881 158.737 160.437 158.737 164.146" fill="#F2F2F2"/>
<path d="M144.793 164.902C144.693 164.902 144.597 164.862 144.526 164.791C144.455 164.72 144.416 164.624 144.416 164.524V157.154C144.416 157.054 144.455 156.958 144.526 156.887C144.597 156.816 144.693 156.776 144.793 156.776C144.893 156.776 144.988 156.816 145.059 156.887C145.13 156.958 145.169 157.054 145.169 157.154V164.524C145.169 164.624 145.13 164.72 145.059 164.791C144.988 164.862 144.893 164.902 144.793 164.902Z" fill="#CCCCCC"/>
<path d="M144.792 161.613C144.702 161.614 144.615 161.581 144.547 161.522L140.025 157.63C139.949 157.565 139.902 157.472 139.894 157.372C139.887 157.272 139.919 157.173 139.984 157.097C140.049 157.021 140.142 156.974 140.242 156.966C140.341 156.959 140.44 156.991 140.516 157.056L145.038 160.949C145.097 160.999 145.138 161.066 145.157 161.141C145.177 161.216 145.173 161.294 145.146 161.367C145.119 161.439 145.071 161.502 145.008 161.546C144.945 161.59 144.869 161.613 144.792 161.613V161.613Z" fill="#CCCCCC"/>
<path d="M98.0605 164.146C98.0605 160.437 99.5297 156.881 102.145 154.258C104.76 151.636 108.307 150.163 112.005 150.163C115.703 150.163 119.25 151.636 121.865 154.258C124.48 156.881 125.949 160.437 125.949 164.146" fill="#F2F2F2"/>
<path d="M112.005 164.902C111.905 164.902 111.809 164.862 111.738 164.791C111.668 164.72 111.628 164.624 111.628 164.524V157.154C111.628 157.054 111.668 156.958 111.738 156.887C111.809 156.816 111.905 156.776 112.005 156.776C112.105 156.776 112.201 156.816 112.271 156.887C112.342 156.958 112.382 157.054 112.382 157.154V164.524C112.382 164.624 112.342 164.72 112.271 164.791C112.201 164.862 112.105 164.902 112.005 164.902Z" fill="#CCCCCC"/>
<path d="M112.005 161.613C111.914 161.613 111.827 161.581 111.759 161.522L107.237 157.63C107.199 157.598 107.168 157.558 107.145 157.514C107.123 157.47 107.109 157.421 107.105 157.372C107.101 157.322 107.107 157.272 107.122 157.225C107.138 157.177 107.162 157.133 107.195 157.096C107.227 157.058 107.266 157.027 107.311 157.004C107.355 156.982 107.404 156.969 107.453 156.965C107.503 156.961 107.552 156.967 107.6 156.983C107.647 156.999 107.69 157.024 107.728 157.056L112.25 160.949C112.309 160.999 112.35 161.066 112.37 161.141C112.389 161.216 112.385 161.294 112.358 161.367C112.331 161.439 112.283 161.502 112.22 161.546C112.157 161.59 112.082 161.613 112.005 161.613H112.005Z" fill="#CCCCCC"/>
<path d="M203.385 84.0466C203.385 65.807 188.63 22.5255 170.428 22.5255C152.227 22.5255 137.471 65.807 137.471 84.0466C137.477 92.8076 140.952 101.208 147.132 107.401C153.312 113.593 161.691 117.072 170.428 117.072C179.165 117.072 187.544 113.593 193.724 107.401C199.904 101.208 203.379 92.8076 203.385 84.0466V84.0466Z" fill="#F2F2F2"/>
<path d="M170.428 164.394C170.464 164.394 170.499 164.387 170.532 164.373C170.565 164.36 170.594 164.34 170.62 164.315C170.645 164.289 170.665 164.259 170.678 164.226C170.692 164.194 170.699 164.158 170.699 164.123V50.2611C170.699 50.1892 170.67 50.1203 170.619 50.0696C170.568 50.0188 170.5 49.9904 170.428 49.9904C170.356 49.9904 170.288 50.0188 170.237 50.0696C170.186 50.1203 170.157 50.1892 170.157 50.2611V164.123C170.157 164.158 170.164 164.194 170.178 164.226C170.191 164.259 170.211 164.289 170.236 164.315C170.262 164.34 170.291 164.36 170.324 164.373C170.357 164.387 170.392 164.394 170.428 164.394V164.394Z" fill="#CCCCCC"/>
<path d="M170.428 72.2428C170.464 72.2428 170.499 72.2358 170.532 72.2222C170.565 72.2085 170.595 72.1885 170.62 72.1632L183.664 59.0918C183.715 59.0409 183.743 58.9718 183.743 58.8997C183.743 58.8277 183.715 58.7586 183.664 58.7076C183.613 58.6567 183.544 58.6281 183.472 58.6282C183.4 58.6282 183.331 58.6569 183.281 58.7078L170.236 71.7792C170.199 71.8172 170.173 71.8656 170.162 71.9183C170.152 71.971 170.157 72.0256 170.178 72.0752C170.198 72.1248 170.233 72.1673 170.278 72.1971C170.322 72.2269 170.375 72.2428 170.428 72.2428V72.2428Z" fill="#CCCCCC"/>
<path d="M170.428 94.8721C170.482 94.8721 170.534 94.8562 170.578 94.8264C170.623 94.7966 170.658 94.7542 170.678 94.7045C170.699 94.6549 170.704 94.6003 170.694 94.5476C170.683 94.4949 170.658 94.4465 170.62 94.4086L148.775 72.5179C148.75 72.4926 148.72 72.4726 148.687 72.459C148.654 72.4453 148.619 72.4382 148.583 72.4382C148.548 72.4382 148.512 72.4452 148.48 72.4589C148.447 72.4725 148.417 72.4925 148.392 72.5177C148.367 72.5429 148.347 72.5729 148.333 72.6058C148.319 72.6388 148.312 72.6741 148.312 72.7098C148.312 72.7454 148.319 72.7808 148.333 72.8137C148.346 72.8467 148.366 72.8766 148.392 72.9019L170.236 94.7926C170.262 94.8178 170.291 94.8379 170.324 94.8515C170.357 94.8652 170.392 94.8722 170.428 94.8721V94.8721Z" fill="#CCCCCC"/>
<path d="M120.826 159.897L116.206 159.896L114.008 142.026L120.827 142.026L120.826 159.897Z" fill="#FFB8B8"/>
<path d="M112.906 158.573H121.816V164.199H107.295C107.295 162.707 107.886 161.276 108.938 160.22C109.991 159.165 111.418 158.573 112.906 158.573V158.573Z" fill="#2F2E41"/>
<path d="M154.351 154.648L150.148 156.574L140.744 141.234L146.947 138.393L154.351 154.648Z" fill="#FFB8B8"/>
<path d="M146.598 156.744L154.703 153.032L157.034 158.149L143.825 164.199C143.519 163.527 143.348 162.801 143.322 162.063C143.295 161.324 143.414 160.588 143.672 159.896C143.929 159.204 144.32 158.569 144.822 158.028C145.324 157.487 145.928 157.051 146.598 156.744V156.744Z" fill="#2F2E41"/>
<path d="M120.532 155.185H116.118C115.69 155.183 115.278 155.02 114.965 154.728C114.651 154.435 114.459 154.035 114.426 153.607L112.019 89.1507C112.001 88.9037 112.038 88.6558 112.125 88.4242C112.213 88.1927 112.35 87.9831 112.527 87.8102C112.703 87.6372 112.916 87.5051 113.149 87.423C113.382 87.3409 113.63 87.3109 113.876 87.335L139.403 90.0534C139.817 90.094 140.201 90.2855 140.483 90.5916C140.765 90.8977 140.926 91.297 140.934 91.7138L141.469 120.146C141.472 120.301 141.501 120.453 141.557 120.597L152.028 147.827C152.109 148.037 152.148 148.262 152.141 148.487C152.135 148.713 152.084 148.934 151.991 149.14C151.898 149.345 151.766 149.53 151.601 149.684C151.437 149.837 151.243 149.957 151.032 150.034L146.559 151.687C146.171 151.831 145.743 151.827 145.358 151.676C144.972 151.525 144.654 151.238 144.465 150.869L131.601 125.787C131.531 125.651 131.48 125.506 131.449 125.356L129.252 114.739C129.188 114.431 129.017 114.156 128.769 113.963C128.522 113.77 128.214 113.672 127.9 113.686C127.587 113.7 127.289 113.826 127.06 114.04C126.831 114.255 126.685 114.544 126.65 114.857L122.217 153.677C122.169 154.092 121.972 154.475 121.661 154.753C121.35 155.031 120.948 155.185 120.532 155.185V155.185Z" fill="#2F2E41"/>
<path d="M122.73 38.7519C127.842 38.7519 131.986 34.5962 131.986 29.47C131.986 24.3437 127.842 20.188 122.73 20.188C117.618 20.188 113.473 24.3437 113.473 29.47C113.473 34.5962 117.618 38.7519 122.73 38.7519Z" fill="#FFB8B8"/>
<path d="M129.111 95.0322C120.924 95.0326 114.513 91.6144 112.191 90.1833H112.192C111.928 90.0211 111.715 89.7894 111.574 89.5136C111.433 89.2377 111.371 88.9284 111.394 88.6195L113.645 56.3559C113.789 54.1785 114.44 52.0652 115.544 50.185C116.649 48.3048 118.177 46.7099 120.006 45.5278C121.754 44.3681 123.748 43.6346 125.828 43.386C127.909 43.1373 130.019 43.3805 131.989 44.0959C132.859 44.3968 133.68 44.8234 134.426 45.3621C139.413 49.0863 141.816 54.6943 141.02 60.7479C139.369 73.3018 141.239 90.2363 141.458 92.1259L141.474 92.262L141.349 92.3193C137.516 94.1062 133.339 95.0321 129.111 95.0322V95.0322Z" fill="#175E7A"/>
<path d="M140.896 99.6408C141.338 99.3067 141.702 98.8794 141.963 98.3889C142.223 97.8984 142.373 97.3567 142.401 96.8018C142.43 96.247 142.337 95.6926 142.129 95.1777C141.921 94.6628 141.603 94.1998 141.197 93.8215L146.629 81.4637L139.729 82.6363L135.629 94.1917C135.04 94.9173 134.738 95.8342 134.778 96.7687C134.818 97.7032 135.199 98.5903 135.849 99.262C136.498 99.9337 137.37 100.343 138.3 100.413C139.23 100.483 140.154 100.208 140.896 99.6408V99.6408Z" fill="#FFB8B8"/>
<path d="M141.415 92.0072C141.18 92.0072 140.948 91.9581 140.733 91.8632C140.518 91.7682 140.325 91.6293 140.167 91.4554L138.142 89.2404C137.945 89.0237 137.807 88.7599 137.741 88.4743C137.675 88.1887 137.684 87.8909 137.766 87.6095L142.403 71.8703L135.347 57.0121C135.038 56.3589 134.962 55.6188 135.133 54.9162C135.283 54.2995 135.616 53.743 136.089 53.3201C136.561 52.8972 137.15 52.6277 137.778 52.5473C138.406 52.4668 139.043 52.5792 139.607 52.8695C140.17 53.1597 140.632 53.6144 140.932 54.1733L150.47 69.6933C150.841 70.2962 151.059 70.9813 151.104 71.6884C151.15 72.3955 151.021 73.1029 150.73 73.7485L142.963 91.0059C142.848 91.2627 142.671 91.4866 142.448 91.6576C142.225 91.8286 141.963 91.9413 141.685 91.9854C141.596 91.9998 141.506 92.0071 141.415 92.0072V92.0072Z" fill="#175E7A"/>
<path d="M130.356 37.6531C129.396 37.8181 128.606 36.4784 128.487 35.536C128.367 34.5936 128.71 33.6915 128.747 32.7553C128.785 31.819 128.344 30.6812 127.375 30.4036C126.358 30.1126 125.416 30.9303 124.375 30.832C122.925 30.6949 122.197 28.9931 122.021 27.6165C121.845 26.2398 121.707 24.6095 120.452 23.8244C119.2 23.0418 117.651 23.6112 116.212 23.6356C113.781 23.6768 111.305 21.8175 110.737 19.523C111.032 19.6083 111.347 19.5924 111.632 19.478C111.917 19.3636 112.156 19.1571 112.311 18.8912C112.432 18.6076 112.457 18.2915 112.381 17.9923C112.305 17.693 112.133 17.4273 111.891 17.2366L114.647 18.5899C114.27 17.8212 114.839 16.9456 115.622 16.6545C116.405 16.3634 117.316 16.4941 118.18 16.6287C122.495 17.301 127.494 16.9697 130.356 20.269C132.339 22.5544 133.971 26.9031 133.748 29.7169C133.525 32.5307 130.356 37.6531 130.356 37.6531Z" fill="white"/>
<path d="M81.2751 53.4766C81.7565 53.2016 82.2922 53.0359 82.8444 52.9909C83.3966 52.946 83.9519 53.0231 84.4713 53.2167C84.9906 53.4103 85.4612 53.7157 85.8501 54.1114C86.2389 54.5072 86.5366 54.9836 86.7219 55.5071L100.189 55.4098L96.3784 61.2961L84.1741 60.486C83.2764 60.74 82.3169 60.655 81.4775 60.247C80.6381 59.8391 79.9771 59.1365 79.6198 58.2725C79.2624 57.4085 79.2336 56.4431 79.5387 55.5592C79.8437 54.6752 80.4616 53.9342 81.2751 53.4766V53.4766Z" fill="#FFB8B8"/>
<path d="M88.2826 59.8922C88.2347 59.6617 88.2352 59.4236 88.2842 59.1933C88.3331 58.9629 88.4293 58.7453 88.5667 58.5543L90.3164 56.115C90.4878 55.8775 90.7172 55.6882 90.9826 55.5652C91.248 55.4423 91.5405 55.3899 91.8319 55.4131L107.585 54.7513L121.211 46.7998C121.785 46.3628 122.492 46.1375 123.213 46.1617C123.846 46.1836 124.457 46.3973 124.966 46.7746C125.475 47.1519 125.858 47.6751 126.065 48.2753C126.272 48.8754 126.292 49.5242 126.123 50.1362C125.955 50.7481 125.605 51.2945 125.121 51.7032L111.914 64.2316C111.401 64.7188 110.776 65.0723 110.095 65.261C109.414 65.4497 108.697 65.4677 108.008 65.3137L89.5757 61.2075C89.3016 61.1468 89.0469 61.0186 88.8345 60.8346C88.622 60.6505 88.4587 60.4163 88.359 60.1531C88.3267 60.0683 88.3012 59.9811 88.2826 59.8922V59.8922Z" fill="#175E7A"/>
<path d="M182.191 165.096H13.4009C13.2946 165.096 13.1926 165.056 13.1174 164.985C13.0422 164.914 13 164.818 13 164.718C13 164.618 13.0422 164.522 13.1174 164.451C13.1926 164.38 13.2946 164.34 13.4009 164.34H182.191C182.297 164.34 182.399 164.38 182.474 164.451C182.549 164.522 182.592 164.618 182.592 164.718C182.592 164.818 182.549 164.914 182.474 164.985C182.399 165.056 182.297 165.096 182.191 165.096Z" fill="#3F3D56"/>
<path d="M39.6902 90.7562C39.9168 91.1487 40.2183 91.4926 40.5775 91.7682C40.9367 92.0437 41.3466 92.2456 41.7836 92.3622C42.2207 92.4788 42.6764 92.5078 43.1247 92.4476C43.573 92.3875 44.005 92.2392 44.3961 92.0115C44.7872 91.7837 45.1297 91.4809 45.404 91.1203C45.6783 90.7597 45.8789 90.3484 45.9946 89.9099C46.1102 89.4715 46.1385 89.0144 46.0778 88.565C46.0171 88.1156 45.8687 87.6826 45.641 87.2907C45.5448 87.129 45.4365 86.9749 45.3169 86.8297L48.2114 66.1426L48.2981 65.5229L48.886 61.3016L48.9727 60.6931L48.6523 60.7082L43.0445 60.9652L41.5407 61.0332L41.3523 64.8842L40.2857 86.5349C39.7285 87.0694 39.3667 87.7764 39.2587 88.5421C39.1507 89.3078 39.3027 90.0876 39.6902 90.7562V90.7562Z" fill="#FFB8B8"/>
<path d="M48.2814 65.7111L41.1607 65.0561C40.7913 65.021 40.4508 64.8409 40.2133 64.5551C39.9758 64.2694 39.8605 63.901 39.8928 63.5304L41.2136 48.6813C41.2776 47.9601 41.4852 47.2591 41.8242 46.6198C42.1631 45.9805 42.6266 45.4158 43.187 44.9593C43.7474 44.5027 44.3935 44.1635 45.087 43.9617C45.7804 43.76 46.5072 43.6998 47.2243 43.7846C47.9414 43.8695 48.6342 44.0978 49.2618 44.4559C49.8893 44.814 50.4389 45.2947 50.8779 45.8696C51.3169 46.4445 51.6365 47.1018 51.8177 47.8027C51.9989 48.5036 52.038 49.2338 51.9328 49.9502L49.7977 64.515C49.7486 64.8487 49.5817 65.1536 49.3272 65.3743C49.0728 65.5949 48.7477 65.7165 48.4114 65.717C48.3684 65.717 48.325 65.7152 48.2814 65.7111Z" fill="#175E7A"/>
<path d="M42.885 53.714C42.1648 51.6683 42.1314 49.4426 42.79 47.3761C43.4485 45.3096 44.7628 43.5157 46.5326 42.2679C49.2178 40.4255 52.8923 39.7642 56.8494 44.4881C64.7637 53.936 66.8365 64.3286 66.8365 64.3286L50.631 66.974C50.631 66.974 45.1194 60.2189 42.885 53.714Z" fill="#175E7A"/>
<path d="M69.0945 160.137L73.7149 160.137L75.9128 142.266L69.0938 142.266L69.0945 160.137Z" fill="#FFB8B8"/>
<path d="M31.1082 156.096L35.4949 157.55L43.1755 141.274L36.7009 139.128L31.1082 156.096Z" fill="#FFB8B8"/>
<path d="M42.6091 164.439L28.8217 159.87L30.5824 154.528L39.0429 157.332C40.4557 157.8 41.6251 158.812 42.2939 160.145C42.9627 161.478 43.0761 163.023 42.6091 164.439L42.6091 164.439Z" fill="#2F2E41"/>
<path d="M53.0569 37.5824C58.169 37.5824 62.3132 33.4267 62.3132 28.3004C62.3132 23.1741 58.169 19.0184 53.0569 19.0184C47.9447 19.0184 43.8005 23.1741 43.8005 28.3004C43.8005 33.4267 47.9447 37.5824 53.0569 37.5824Z" fill="#FFB8B8"/>
<path d="M61.1614 155.162L56.8706 126.764C56.8248 126.461 56.6755 126.183 56.4481 125.978C56.2207 125.773 55.9294 125.654 55.624 125.64C55.3186 125.627 55.018 125.721 54.7737 125.905C54.5294 126.089 54.3564 126.353 54.2845 126.651L47.7503 153.714C47.6474 154.129 47.3936 154.49 47.0389 154.726C46.6841 154.963 46.254 155.058 45.8329 154.993L27.8091 152.088C27.5701 152.05 27.3421 151.96 27.1404 151.826C26.9387 151.692 26.768 151.516 26.6397 151.31C26.5115 151.104 26.4287 150.873 26.3968 150.633C26.365 150.392 26.3849 150.147 26.4552 149.915L49.9571 72.2177C50.0239 71.9966 50.0318 71.7618 49.9801 71.5367L49.1976 68.1366C49.1116 67.768 49.1513 67.3811 49.3102 67.0377C49.4691 66.6942 49.7382 66.4141 50.0744 66.2419C53.2747 64.6044 61.3787 61.2002 67.4976 64.9292C67.6962 65.0506 67.868 65.2113 68.0028 65.4014C68.1375 65.5916 68.2322 65.8072 68.2812 66.0352L86.6408 152.565C86.6908 152.8 86.6904 153.043 86.6396 153.278C86.5889 153.513 86.489 153.735 86.3465 153.929C86.2041 154.122 86.0222 154.283 85.8131 154.401C85.604 154.519 85.3723 154.591 85.1334 154.613L62.9896 156.601C62.9385 156.605 62.8878 156.608 62.8376 156.608C62.4321 156.607 62.0403 156.461 61.733 156.196C61.4256 155.931 61.2229 155.564 61.1614 155.162Z" fill="#2F2E41"/>
<path d="M46.9192 21.7424C47.617 21.3216 48.2362 20.7819 48.7491 20.1477C49.002 19.8273 49.1684 19.4471 49.2324 19.0435C49.2964 18.64 49.2558 18.2267 49.1145 17.8435C48.6468 16.8089 47.2571 16.4812 46.1803 16.8339C45.1036 17.1866 44.2717 18.0326 43.4847 18.8495C42.7915 19.5692 42.0785 20.3203 41.7496 21.2649C41.4208 22.2096 41.5897 23.4071 42.4076 23.9802C43.2102 24.5427 44.3642 24.3124 45.1361 23.7084C45.9081 23.1044 46.386 22.208 46.8416 21.3389L46.9192 21.7424Z" fill="#175E7A"/>
<path d="M43.784 19.0977C43.7327 16.4823 40.7598 14.6071 38.1925 15.0705C35.6251 15.5339 33.6516 17.7291 32.6638 20.1501C30.5766 25.2653 32.1434 31.1018 34.1545 36.2476C36.1655 41.3934 38.6542 46.6172 38.3609 52.1362C38.1626 55.1195 37.1645 57.9938 35.4719 60.4553C33.7794 62.9168 31.4553 64.8742 28.7451 66.1207C31.6426 67.4378 35.106 66.0772 37.5408 64.0241C42.9482 59.4644 45.0354 51.3467 42.5008 44.7337C41.2507 41.472 39.0475 38.6816 37.3275 35.6426C35.6075 32.6036 34.3456 29.0222 35.2336 25.6432C36.1216 22.2643 39.9008 19.5276 43.1317 20.8366L43.784 19.0977Z" fill="white"/>
<path d="M53.6119 32.4192C52.8051 31.0518 51.9905 29.2567 53.4657 28.0615C53.7864 27.8134 54.1534 27.6321 54.545 27.5283C54.9365 27.4245 55.3449 27.4002 55.7459 27.4569C57.4088 27.6579 59.2196 27.7407 60.829 27.1349C61.4326 26.9266 61.9884 26.5988 62.4632 26.1709C62.938 25.7431 63.3223 25.2239 63.5932 24.6443C64.4241 22.6701 63.3836 20.2711 61.6465 19.0231C60.5839 18.2874 59.3282 17.8827 58.0371 17.8598C56.7459 17.8369 55.4768 18.1968 54.3888 18.8944C52.139 17.898 49.4092 18.3411 47.3653 19.7128C45.3213 21.0846 43.9227 23.2813 43.1628 25.627C42.463 27.646 42.3424 29.8216 42.815 31.9059C43.1954 33.356 43.9186 34.6928 44.9234 35.8031C45.9282 36.9135 47.1851 37.7647 48.5875 38.2846C49.1339 38.5005 49.7272 38.5687 50.3081 38.4823C50.889 38.3958 51.437 38.1579 51.8973 37.7922C51.8973 37.7922 53.1731 36.6754 53.5723 35.3303C53.8789 34.2972 54.043 33.1498 53.6119 32.4192Z" fill="white"/>
<path d="M81.0715 40.7014C81.0252 40.9053 80.9951 41.1126 80.9813 41.3212L64.7919 50.6867L60.8569 48.4151L56.6619 53.9222L63.2384 58.6225C63.7697 59.0022 64.4095 59.1989 65.0617 59.1829C65.7139 59.167 66.3434 58.9393 66.8556 58.5341L83.5497 45.3276C84.3031 45.6072 85.1235 45.6503 85.9019 45.4509C86.6803 45.2516 87.3797 44.8193 87.9071 44.2117C88.4345 43.604 88.7649 42.8497 88.8544 42.0492C88.9439 41.2486 88.7882 40.4397 88.4081 39.73C88.0279 39.0203 87.4413 38.4435 86.7262 38.0763C86.0112 37.7091 85.2016 37.5689 84.4052 37.6744C83.6087 37.7799 82.8632 38.126 82.2677 38.6667C81.6722 39.2074 81.2549 39.9171 81.0715 40.7014V40.7014Z" fill="#FFB8B8"/>
<path d="M64.2507 51.1302L59.0183 57.9304C58.8695 58.1239 58.6807 58.2829 58.465 58.3967C58.2493 58.5104 58.0117 58.5762 57.7684 58.5896C57.5251 58.603 57.2817 58.5636 57.0549 58.4741C56.8281 58.3847 56.6232 58.2473 56.4541 58.0713L50.5307 51.9032C49.5473 51.134 48.9082 50.005 48.7538 48.7639C48.5994 47.5229 48.9421 46.271 49.707 45.2831C50.4718 44.2951 51.5961 43.6517 52.8334 43.4939C54.0707 43.3362 55.3199 43.677 56.3069 44.4416L63.7362 48.6073C63.9488 48.7266 64.1334 48.8905 64.2772 49.0878C64.421 49.2851 64.5207 49.5112 64.5695 49.7506C64.6184 49.99 64.6152 50.2372 64.5602 50.4753C64.5051 50.7134 64.3996 50.9367 64.2507 51.1302H64.2507Z" fill="#175E7A"/>
<path d="M82.6255 164.439L68.1044 164.439L68.1042 158.813L77.0148 158.813C77.7516 158.813 78.4811 158.958 79.1618 159.241C79.8425 159.524 80.4611 159.938 80.9821 160.461C81.5031 160.983 81.9163 161.603 82.1983 162.286C82.4803 162.968 82.6255 163.7 82.6255 164.439V164.439V164.439Z" fill="#2F2E41"/>
</svg>
