<svg width="180" height="29" viewBox="0 0 180 29" fill="none" xmlns="http://www.w3.org/2000/svg">
<path d="M46.936 7.056H35.488C35.056 7.056 34.72 7.392 34.72 7.824C34.72 8.232 35.056 8.568 35.488 8.568H40.456V23.232C40.456 23.664 40.792 24 41.224 24C41.632 24 41.968 23.664 41.968 23.232V8.568H46.936C47.368 8.568 47.704 8.232 47.704 7.824C47.704 7.392 47.368 7.056 46.936 7.056ZM65.5501 22.92L58.8061 7.512C58.6861 7.224 58.3981 7.056 58.1101 7.056C57.7981 7.056 57.5341 7.224 57.3901 7.512L50.6461 22.92C50.4781 23.304 50.6701 23.76 51.0541 23.928C51.4381 24.096 51.8941 23.928 52.0621 23.544L53.8381 19.464H62.3581L64.1581 23.544C64.2781 23.832 64.5421 24 64.8541 24C64.9501 24 65.0461 23.976 65.1661 23.928C65.5501 23.76 65.7181 23.304 65.5501 22.92ZM54.5101 17.928L58.1101 9.72L61.6861 17.928H54.5101ZM76.3146 15.528L82.0026 8.28C82.2666 7.944 82.2186 7.464 81.8826 7.2C81.5466 6.96 81.0666 7.008 80.8026 7.344L75.3306 14.28L69.8586 7.344C69.5946 7.008 69.1146 6.96 68.7786 7.2C68.4666 7.464 68.3946 7.944 68.6586 8.28L74.3706 15.528L68.6586 22.752C68.3946 23.088 68.4666 23.568 68.7786 23.832C68.9226 23.952 69.0906 24 69.2586 24C69.4986 24 69.7146 23.904 69.8586 23.712L75.3306 16.752L80.8026 23.712C80.9706 23.904 81.1866 24 81.4026 24C81.5706 24 81.7386 23.952 81.8826 23.832C82.2186 23.568 82.2666 23.088 82.0026 22.752L76.3146 15.528Z" fill="black"/>
<path d="M89.7038 24H85.8158C85.3838 24 85.0478 23.664 85.0478 23.232V7.824C85.0478 7.392 85.3838 7.056 85.8158 7.056H89.7038C94.3838 7.056 98.1758 10.848 98.1758 15.528C98.1758 20.208 94.3838 24 89.7038 24ZM86.5838 22.464H89.7038C93.5438 22.464 96.6638 19.344 96.6638 15.528C96.6638 11.688 93.5438 8.568 89.7038 8.568H86.5838V22.464ZM111.89 22.464H102.602V15.912H109.298C109.706 15.912 110.066 15.576 110.066 15.144C110.066 14.736 109.706 14.4 109.298 14.4H102.602V8.568H111.89C112.298 8.568 112.658 8.232 112.658 7.824C112.658 7.392 112.298 7.056 111.89 7.056H101.834C101.402 7.056 101.066 7.392 101.066 7.824V23.232C101.066 23.664 101.402 24 101.834 24H111.89C112.298 24 112.658 23.664 112.658 23.232C112.658 22.824 112.298 22.464 111.89 22.464ZM120.193 24H116.305C115.873 24 115.537 23.664 115.537 23.232V7.824C115.537 7.392 115.873 7.056 116.305 7.056H120.193C124.873 7.056 128.665 10.848 128.665 15.528C128.665 20.208 124.873 24 120.193 24ZM117.073 22.464H120.193C124.033 22.464 127.153 19.344 127.153 15.528C127.153 11.688 124.033 8.568 120.193 8.568H117.073V22.464ZM138.347 24C134.603 24 131.555 20.952 131.555 17.184V7.824C131.555 7.392 131.891 7.056 132.299 7.056C132.731 7.056 133.067 7.392 133.067 7.824V17.184C133.067 20.112 135.443 22.464 138.347 22.464C141.275 22.464 143.627 20.112 143.627 17.184V7.824C143.627 7.392 143.963 7.056 144.395 7.056C144.827 7.056 145.163 7.392 145.163 7.824V17.184C145.163 20.952 142.115 24 138.347 24ZM156.514 24C151.858 24 148.042 20.208 148.042 15.528C148.042 10.848 151.858 7.056 156.514 7.056C158.962 7.056 161.29 8.112 162.898 9.936C163.186 10.272 163.138 10.752 162.826 11.016C162.514 11.304 162.034 11.28 161.746 10.944C160.426 9.432 158.53 8.568 156.514 8.568C152.698 8.568 149.578 11.688 149.578 15.528C149.578 19.344 152.698 22.464 156.514 22.464C158.53 22.464 160.426 21.6 161.746 20.088C162.034 19.776 162.514 19.752 162.826 20.016C163.138 20.304 163.186 20.784 162.898 21.096C161.29 22.944 158.962 24 156.514 24ZM178.175 7.056H166.727C166.295 7.056 165.959 7.392 165.959 7.824C165.959 8.232 166.295 8.568 166.727 8.568H171.695V23.232C171.695 23.664 172.031 24 172.463 24C172.871 24 173.207 23.664 173.207 23.232V8.568H178.175C178.607 8.568 178.943 8.232 178.943 7.824C178.943 7.392 178.607 7.056 178.175 7.056Z" fill="#175E7A"/>
<path d="M40.456 8.568H40.956V8.068H40.456V8.568ZM41.968 8.568V8.068H41.468V8.568H41.968ZM46.936 6.556H35.488V7.556H46.936V6.556ZM35.488 6.556C34.7799 6.556 34.22 7.11586 34.22 7.824H35.22C35.22 7.66814 35.3321 7.556 35.488 7.556V6.556ZM34.22 7.824C34.22 8.51845 34.7903 9.068 35.488 9.068V8.068C35.3217 8.068 35.22 7.94555 35.22 7.824H34.22ZM35.488 9.068H40.456V8.068H35.488V9.068ZM39.956 8.568V23.232H40.956V8.568H39.956ZM39.956 23.232C39.956 23.9401 40.5159 24.5 41.224 24.5V23.5C41.0681 23.5 40.956 23.3879 40.956 23.232H39.956ZM41.224 24.5C41.9184 24.5 42.468 23.9297 42.468 23.232H41.468C41.468 23.3983 41.3456 23.5 41.224 23.5V24.5ZM42.468 23.232V8.568H41.468V23.232H42.468ZM41.968 9.068H46.936V8.068H41.968V9.068ZM46.936 9.068C47.6337 9.068 48.204 8.51845 48.204 7.824H47.204C47.204 7.94555 47.1023 8.068 46.936 8.068V9.068ZM48.204 7.824C48.204 7.11586 47.6441 6.556 46.936 6.556V7.556C47.0919 7.556 47.204 7.66814 47.204 7.824H48.204ZM65.5501 22.92L66.0081 22.7196L66.0081 22.7195L65.5501 22.92ZM58.8061 7.512L58.3445 7.70434L58.348 7.71248L58.8061 7.512ZM57.3901 7.512L56.9428 7.28839L56.9371 7.29982L56.932 7.31151L57.3901 7.512ZM50.6461 22.92L50.188 22.7195L50.188 22.7196L50.6461 22.92ZM51.0541 23.928L50.8537 24.3861L50.8537 24.3861L51.0541 23.928ZM52.0621 23.544L52.5201 23.7444L52.5205 23.7436L52.0621 23.544ZM53.8381 19.464V18.964H53.5104L53.3796 19.2644L53.8381 19.464ZM62.3581 19.464L62.8155 19.2622L62.684 18.964H62.3581V19.464ZM64.1581 23.544L64.6197 23.3517L64.6155 23.3422L64.1581 23.544ZM65.1661 23.928L65.3518 24.3922L65.3592 24.3893L65.3665 24.3861L65.1661 23.928ZM54.5101 17.928L54.0522 17.7272L53.7448 18.428H54.5101V17.928ZM58.1101 9.72L58.5684 9.52029L58.1116 8.47168L57.6522 9.51917L58.1101 9.72ZM61.6861 17.928V18.428H62.4493L62.1444 17.7283L61.6861 17.928ZM66.0081 22.7195L59.2641 7.31151L58.348 7.71248L65.092 23.1205L66.0081 22.7195ZM59.2676 7.31969C59.063 6.82876 58.5813 6.556 58.1101 6.556V7.556C58.2148 7.556 58.3091 7.61924 58.3445 7.70431L59.2676 7.31969ZM58.1101 6.556C57.5997 6.556 57.1675 6.83919 56.9428 7.28839L57.8373 7.73561C57.9007 7.60881 57.9964 7.556 58.1101 7.556V6.556ZM56.932 7.31151L50.188 22.7195L51.1041 23.1205L57.8481 7.71248L56.932 7.31151ZM50.188 22.7196C49.9033 23.3703 50.2306 24.1135 50.8537 24.3861L51.2545 23.4699C51.1096 23.4065 51.0528 23.2377 51.1041 23.1204L50.188 22.7196ZM50.8537 24.3861C51.4798 24.66 52.2368 24.3921 52.5201 23.7444L51.604 23.3436C51.5513 23.4639 51.3963 23.532 51.2545 23.4699L50.8537 24.3861ZM52.5205 23.7436L54.2965 19.6636L53.3796 19.2644L51.6036 23.3444L52.5205 23.7436ZM53.8381 19.964H62.3581V18.964H53.8381V19.964ZM61.9006 19.6658L63.7006 23.7458L64.6155 23.3422L62.8155 19.2622L61.9006 19.6658ZM63.6965 23.7363C63.8977 24.2192 64.3496 24.5 64.8541 24.5V23.5C64.7345 23.5 64.6584 23.4448 64.6196 23.3517L63.6965 23.7363ZM64.8541 24.5C65.0385 24.5 65.2012 24.4525 65.3518 24.3922L64.9804 23.4638C64.891 23.4995 64.8617 23.5 64.8541 23.5V24.5ZM65.3665 24.3861C66.0141 24.1027 66.2821 23.3458 66.0081 22.7196L65.092 23.1204C65.154 23.2622 65.086 23.4173 64.9657 23.4699L65.3665 24.3861ZM54.968 18.1288L58.568 9.92083L57.6522 9.51917L54.0522 17.7272L54.968 18.1288ZM57.6517 9.91971L61.2277 18.1277L62.1444 17.7283L58.5684 9.52029L57.6517 9.91971ZM61.6861 17.428H54.5101V18.428H61.6861V17.428ZM76.3146 15.528L75.9213 15.2193L75.6786 15.5285L75.9218 15.8373L76.3146 15.528ZM82.0026 8.28L81.6095 7.97109L81.6093 7.97132L82.0026 8.28ZM81.8826 7.2L82.1915 6.80684L82.1825 6.79978L82.1732 6.79313L81.8826 7.2ZM80.8026 7.344L81.1952 7.65369L81.1958 7.65291L80.8026 7.344ZM75.3306 14.28L74.9381 14.5897L75.3306 15.0873L75.7232 14.5897L75.3306 14.28ZM69.8586 7.344L69.4655 7.65291L69.4661 7.65369L69.8586 7.344ZM68.7786 7.2L68.488 6.79313L68.4713 6.80506L68.4557 6.81831L68.7786 7.2ZM68.6586 8.28L68.2655 8.58891L68.2659 8.58948L68.6586 8.28ZM74.3706 15.528L74.7628 15.8381L75.0076 15.5285L74.7633 15.2185L74.3706 15.528ZM68.6586 22.752L68.2664 22.4419L68.2655 22.4431L68.6586 22.752ZM68.7786 23.832L68.4556 24.2137L68.4585 24.2161L68.7786 23.832ZM69.8586 23.712L69.4655 23.4029L69.4586 23.412L69.8586 23.712ZM75.3306 16.752L75.7237 16.443L75.3306 15.943L74.9376 16.443L75.3306 16.752ZM80.8026 23.712L80.4096 24.021L80.4177 24.0314L80.4263 24.0413L80.8026 23.712ZM81.8826 23.832L81.5737 23.4388L81.5681 23.4433L81.5625 23.4479L81.8826 23.832ZM82.0026 22.752L82.3958 22.4431L82.3955 22.4427L82.0026 22.752ZM76.708 15.8367L82.396 8.58868L81.6093 7.97132L75.9213 15.2193L76.708 15.8367ZM82.3958 8.58891C82.8233 8.04484 82.7536 7.24848 82.1915 6.80684L81.5737 7.59316C81.6836 7.67952 81.71 7.84316 81.6095 7.97109L82.3958 8.58891ZM82.1732 6.79313C81.6348 6.40853 80.8498 6.47472 80.4095 7.03509L81.1958 7.65291C81.2835 7.54128 81.4585 7.51147 81.592 7.60687L82.1732 6.79313ZM80.4101 7.03431L74.9381 13.9703L75.7232 14.5897L81.1952 7.65369L80.4101 7.03431ZM75.7232 13.9703L70.2512 7.03431L69.4661 7.65369L74.9381 14.5897L75.7232 13.9703ZM70.2518 7.03509C69.8115 6.47472 69.0265 6.40853 68.488 6.79313L69.0692 7.60687C69.2028 7.51147 69.3778 7.54128 69.4655 7.65291L70.2518 7.03509ZM68.4557 6.81831C67.9534 7.24331 67.8232 8.02607 68.2655 8.58891L69.0518 7.97109C68.966 7.86192 68.9799 7.68469 69.1016 7.58169L68.4557 6.81831ZM68.2659 8.58948L73.9779 15.8375L74.7633 15.2185L69.0513 7.97051L68.2659 8.58948ZM73.9784 15.2179L68.2664 22.4419L69.0508 23.0621L74.7628 15.8381L73.9784 15.2179ZM68.2655 22.4431C67.8232 23.0059 67.9534 23.7887 68.4557 24.2137L69.1016 23.4503C68.9799 23.3473 68.966 23.1701 69.0518 23.0609L68.2655 22.4431ZM68.4585 24.2161C68.7059 24.4222 68.9925 24.5 69.2586 24.5V23.5C69.1888 23.5 69.1394 23.4818 69.0987 23.4479L68.4585 24.2161ZM69.2586 24.5C69.6378 24.5 70.0098 24.3438 70.2586 24.012L69.4586 23.412C69.4194 23.4642 69.3594 23.5 69.2586 23.5V24.5ZM70.2517 24.021L75.7237 17.061L74.9376 16.443L69.4656 23.403L70.2517 24.021ZM74.9376 17.061L80.4096 24.021L81.1957 23.403L75.7237 16.443L74.9376 17.061ZM80.4263 24.0413C80.6825 24.334 81.0325 24.5 81.4026 24.5V23.5C81.3408 23.5 81.2588 23.474 81.1789 23.3827L80.4263 24.0413ZM81.4026 24.5C81.6688 24.5 81.9554 24.4222 82.2027 24.2161L81.5625 23.4479C81.5219 23.4818 81.4725 23.5 81.4026 23.5V24.5ZM82.1915 24.2252C82.7536 23.7835 82.8233 22.9872 82.3958 22.4431L81.6095 23.0609C81.71 23.1888 81.6836 23.3525 81.5737 23.4388L82.1915 24.2252ZM82.3955 22.4427L76.7075 15.2187L75.9218 15.8373L81.6098 23.0613L82.3955 22.4427ZM86.5838 22.464H86.0838V22.964H86.5838V22.464ZM86.5838 8.568V8.068H86.0838V8.568H86.5838ZM89.7038 23.5H85.8158V24.5H89.7038V23.5ZM85.8158 23.5C85.66 23.5 85.5478 23.3879 85.5478 23.232H84.5478C84.5478 23.9401 85.1077 24.5 85.8158 24.5V23.5ZM85.5478 23.232V7.824H84.5478V23.232H85.5478ZM85.5478 7.824C85.5478 7.66814 85.66 7.556 85.8158 7.556V6.556C85.1077 6.556 84.5478 7.11586 84.5478 7.824H85.5478ZM85.8158 7.556H89.7038V6.556H85.8158V7.556ZM89.7038 7.556C94.1077 7.556 97.6758 11.1241 97.6758 15.528H98.6758C98.6758 10.5719 94.66 6.556 89.7038 6.556V7.556ZM97.6758 15.528C97.6758 19.9319 94.1077 23.5 89.7038 23.5V24.5C94.66 24.5 98.6758 20.4841 98.6758 15.528H97.6758ZM86.5838 22.964H89.7038V21.964H86.5838V22.964ZM89.7038 22.964C93.8188 22.964 97.1638 19.6213 97.1638 15.528H96.1638C96.1638 19.0667 93.2688 21.964 89.7038 21.964V22.964ZM97.1638 15.528C97.1638 11.4119 93.82 8.068 89.7038 8.068V9.068C93.2677 9.068 96.1638 11.9641 96.1638 15.528H97.1638ZM89.7038 8.068H86.5838V9.068H89.7038V8.068ZM86.0838 8.568V22.464H87.0838V8.568H86.0838ZM102.602 22.464H102.102V22.964H102.602V22.464ZM102.602 15.912V15.412H102.102V15.912H102.602ZM102.602 14.4H102.102V14.9H102.602V14.4ZM102.602 8.568V8.068H102.102V8.568H102.602ZM111.89 21.964H102.602V22.964H111.89V21.964ZM103.102 22.464V15.912H102.102V22.464H103.102ZM102.602 16.412H109.298V15.412H102.602V16.412ZM109.298 16.412C109.972 16.412 110.566 15.8622 110.566 15.144H109.566C109.566 15.2898 109.44 15.412 109.298 15.412V16.412ZM110.566 15.144C110.566 14.4396 109.961 13.9 109.298 13.9V14.9C109.451 14.9 109.566 15.0324 109.566 15.144H110.566ZM109.298 13.9H102.602V14.9H109.298V13.9ZM103.102 14.4V8.568H102.102V14.4H103.102ZM102.602 9.068H111.89V8.068H102.602V9.068ZM111.89 9.068C112.553 9.068 113.158 8.52841 113.158 7.824H112.158C112.158 7.93559 112.043 8.068 111.89 8.068V9.068ZM113.158 7.824C113.158 7.10577 112.564 6.556 111.89 6.556V7.556C112.032 7.556 112.158 7.67822 112.158 7.824H113.158ZM111.89 6.556H101.834V7.556H111.89V6.556ZM101.834 6.556C101.126 6.556 100.566 7.11586 100.566 7.824H101.566C101.566 7.66814 101.678 7.556 101.834 7.556V6.556ZM100.566 7.824V23.232H101.566V7.824H100.566ZM100.566 23.232C100.566 23.9401 101.126 24.5 101.834 24.5V23.5C101.678 23.5 101.566 23.3879 101.566 23.232H100.566ZM101.834 24.5H111.89V23.5H101.834V24.5ZM111.89 24.5C112.564 24.5 113.158 23.9502 113.158 23.232H112.158C112.158 23.3778 112.032 23.5 111.89 23.5V24.5ZM113.158 23.232C113.158 22.5479 112.574 21.964 111.89 21.964V22.964C112.022 22.964 112.158 23.1001 112.158 23.232H113.158ZM117.073 22.464H116.573V22.964H117.073V22.464ZM117.073 8.568V8.068H116.573V8.568H117.073ZM120.193 23.5H116.305V24.5H120.193V23.5ZM116.305 23.5C116.149 23.5 116.037 23.3879 116.037 23.232H115.037C115.037 23.9401 115.597 24.5 116.305 24.5V23.5ZM116.037 23.232V7.824H115.037V23.232H116.037ZM116.037 7.824C116.037 7.66814 116.149 7.556 116.305 7.556V6.556C115.597 6.556 115.037 7.11586 115.037 7.824H116.037ZM116.305 7.556H120.193V6.556H116.305V7.556ZM120.193 7.556C124.597 7.556 128.165 11.1241 128.165 15.528H129.165C129.165 10.5719 125.149 6.556 120.193 6.556V7.556ZM128.165 15.528C128.165 19.9319 124.597 23.5 120.193 23.5V24.5C125.149 24.5 129.165 20.4841 129.165 15.528H128.165ZM117.073 22.964H120.193V21.964H117.073V22.964ZM120.193 22.964C124.308 22.964 127.653 19.6213 127.653 15.528H126.653C126.653 19.0667 123.758 21.964 120.193 21.964V22.964ZM127.653 15.528C127.653 11.4119 124.309 8.068 120.193 8.068V9.068C123.757 9.068 126.653 11.9641 126.653 15.528H127.653ZM120.193 8.068H117.073V9.068H120.193V8.068ZM116.573 8.568V22.464H117.573V8.568H116.573ZM138.347 23.5C134.881 23.5 132.055 20.677 132.055 17.184H131.055C131.055 21.227 134.326 24.5 138.347 24.5V23.5ZM132.055 17.184V7.824H131.055V17.184H132.055ZM132.055 7.824C132.055 7.65772 132.178 7.556 132.299 7.556V6.556C131.605 6.556 131.055 7.12627 131.055 7.824H132.055ZM132.299 7.556C132.455 7.556 132.567 7.66814 132.567 7.824H133.567C133.567 7.11586 133.007 6.556 132.299 6.556V7.556ZM132.567 7.824V17.184H133.567V7.824H132.567ZM132.567 17.184C132.567 20.3896 135.169 22.964 138.347 22.964V21.964C135.718 21.964 133.567 19.8344 133.567 17.184H132.567ZM138.347 22.964C141.551 22.964 144.127 20.3881 144.127 17.184H143.127C143.127 19.8359 140.999 21.964 138.347 21.964V22.964ZM144.127 17.184V7.824H143.127V17.184H144.127ZM144.127 7.824C144.127 7.66814 144.239 7.556 144.395 7.556V6.556C143.687 6.556 143.127 7.11586 143.127 7.824H144.127ZM144.395 7.556C144.551 7.556 144.663 7.66814 144.663 7.824H145.663C145.663 7.11586 145.103 6.556 144.395 6.556V7.556ZM144.663 7.824V17.184H145.663V7.824H144.663ZM144.663 17.184C144.663 20.6759 141.839 23.5 138.347 23.5V24.5C142.391 24.5 145.663 21.2281 145.663 17.184H144.663ZM162.898 9.936L163.278 9.61057L163.273 9.60535L162.898 9.936ZM162.826 11.016L162.503 10.6343L162.495 10.6413L162.487 10.6486L162.826 11.016ZM161.746 10.944L162.126 10.6186L162.123 10.6152L161.746 10.944ZM161.746 20.088L161.379 19.7487L161.37 19.7592L161.746 20.088ZM162.826 20.016L163.165 19.6486L163.157 19.6413L163.149 19.6343L162.826 20.016ZM162.898 21.096L162.531 20.7569L162.526 20.7623L162.521 20.7678L162.898 21.096ZM156.514 23.5C152.133 23.5 148.542 19.9309 148.542 15.528H147.542C147.542 20.4851 151.583 24.5 156.514 24.5V23.5ZM148.542 15.528C148.542 11.1251 152.133 7.556 156.514 7.556V6.556C151.583 6.556 147.542 10.5709 147.542 15.528H148.542ZM156.514 7.556C158.818 7.556 161.01 8.5502 162.523 10.2666L163.273 9.60535C161.57 7.6738 159.106 6.556 156.514 6.556V7.556ZM162.519 10.2614C162.628 10.3891 162.601 10.5514 162.503 10.6343L163.149 11.3977C163.675 10.9526 163.744 10.1549 163.278 9.6106L162.519 10.2614ZM162.487 10.6486C162.385 10.7424 162.231 10.7417 162.126 10.6186L161.367 11.2694C161.837 11.8183 162.643 11.8656 163.165 11.3834L162.487 10.6486ZM162.123 10.6152C160.708 8.99445 158.675 8.068 156.514 8.068V9.068C158.386 9.068 160.144 9.86954 161.37 11.2728L162.123 10.6152ZM156.514 8.068C152.421 8.068 149.078 11.413 149.078 15.528H150.078C150.078 11.963 152.975 9.068 156.514 9.068V8.068ZM149.078 15.528C149.078 19.6201 152.422 22.964 156.514 22.964V21.964C152.974 21.964 150.078 19.0679 150.078 15.528H149.078ZM156.514 22.964C158.675 22.964 160.708 22.0375 162.123 20.4168L161.37 19.7592C160.144 21.1625 158.386 21.964 156.514 21.964V22.964ZM162.114 20.4271C162.22 20.312 162.396 20.3066 162.503 20.3977L163.149 19.6343C162.633 19.1974 161.848 19.24 161.379 19.7489L162.114 20.4271ZM162.487 20.3834C162.622 20.5081 162.608 20.6728 162.531 20.7569L163.266 21.4351C163.764 20.8952 163.654 20.0999 163.165 19.6486L162.487 20.3834ZM162.521 20.7678C161.008 22.5062 158.818 23.5 156.514 23.5V24.5C159.106 24.5 161.572 23.3818 163.275 21.4242L162.521 20.7678ZM171.695 8.568H172.195V8.068H171.695V8.568ZM173.207 8.568V8.068H172.707V8.568H173.207ZM178.175 6.556H166.727V7.556H178.175V6.556ZM166.727 6.556C166.019 6.556 165.459 7.11586 165.459 7.824H166.459C166.459 7.66814 166.571 7.556 166.727 7.556V6.556ZM165.459 7.824C165.459 8.51845 166.029 9.068 166.727 9.068V8.068C166.56 8.068 166.459 7.94555 166.459 7.824H165.459ZM166.727 9.068H171.695V8.068H166.727V9.068ZM171.195 8.568V23.232H172.195V8.568H171.195ZM171.195 23.232C171.195 23.9401 171.755 24.5 172.463 24.5V23.5C172.307 23.5 172.195 23.3879 172.195 23.232H171.195ZM172.463 24.5C173.157 24.5 173.707 23.9297 173.707 23.232H172.707C172.707 23.3983 172.584 23.5 172.463 23.5V24.5ZM173.707 23.232V8.568H172.707V23.232H173.707ZM173.207 9.068H178.175V8.068H173.207V9.068ZM178.175 9.068C178.872 9.068 179.443 8.51845 179.443 7.824H178.443C178.443 7.94555 178.341 8.068 178.175 8.068V9.068ZM179.443 7.824C179.443 7.11586 178.883 6.556 178.175 6.556V7.556C178.331 7.556 178.443 7.66814 178.443 7.824H179.443Z" fill="#175E7A"/>
<rect width="6" height="24" rx="3" transform="matrix(-1 0 0 1 26 2)" fill="#175E7A"/>
<rect width="6" height="18" rx="3" transform="matrix(-1 0 0 1 16 7.99988)" fill="#2C5565"/>
<rect width="6" height="12" rx="3" transform="matrix(-1 0 0 1 6 13.9999)" fill="#23343A"/>
</svg>
