<svg width="200" height="200" viewBox="0 0 200 200" fill="none" xmlns="http://www.w3.org/2000/svg">
<path d="M75 25C75 18.3696 77.6339 12.0107 82.3223 7.32233C87.0107 2.63392 93.3696 0 100 0C106.63 0 112.989 2.63392 117.678 7.32233C122.366 12.0107 125 18.3696 125 25V120.337C132.644 125.66 138.389 133.283 141.4 142.097C144.412 150.911 144.531 160.456 141.742 169.342C138.953 178.229 133.401 185.994 125.893 191.506C118.385 197.018 109.314 199.991 100 199.991C90.6859 199.991 81.6148 197.018 74.1071 191.506C66.5994 185.994 61.0469 178.229 58.2577 169.342C55.4685 160.456 55.5883 150.911 58.5995 142.097C61.6108 133.283 67.3563 125.66 75 120.337V25ZM100 12.5C96.6848 12.5 93.5054 13.817 91.1612 16.1612C88.817 18.5054 87.5 21.6848 87.5 25V123.763C87.5 124.86 87.2112 125.937 86.6626 126.887C86.1141 127.837 85.3251 128.626 84.375 129.175C78.4019 132.606 73.7302 137.914 71.0869 144.275C68.4436 150.636 67.9768 157.692 69.7593 164.346C71.5417 171 75.4735 176.877 80.9427 181.065C86.4118 185.252 93.1118 187.515 100 187.5C106.883 187.504 113.575 185.236 119.037 181.048C124.499 176.86 128.425 170.985 130.206 164.337C131.987 157.688 131.523 150.638 128.887 144.28C126.25 137.922 121.588 132.612 115.625 129.175C114.675 128.626 113.886 127.837 113.337 126.887C112.789 125.937 112.5 124.86 112.5 123.763V25C112.5 21.6848 111.183 18.5054 108.839 16.1612C106.495 13.817 103.315 12.5 100 12.5V12.5Z" fill="#49474A"/>
<path d="M118.75 156.25C118.75 161.223 116.775 165.992 113.258 169.508C109.742 173.025 104.973 175 100 175C95.0272 175 90.2581 173.025 86.7417 169.508C83.2254 165.992 81.25 161.223 81.25 156.25C81.25 151.277 83.2254 146.508 86.7417 142.992C90.2581 139.475 95.0272 137.5 100 137.5C104.973 137.5 109.742 139.475 113.258 142.992C116.775 146.508 118.75 151.277 118.75 156.25V156.25Z" fill="#689F39"/>
<rect x="93" y="69" width="14" height="88" rx="7" fill="#689F39"/>
<rect x="65" y="89" width="32.5" height="8" rx="4" fill="#49474A"/>
<rect x="65" y="65" width="32.5" height="8" rx="4" fill="#49474A"/>
<rect x="65" y="41" width="32.5" height="8" rx="4" fill="#49474A"/>
<rect x="65" y="17" width="32.5" height="8" rx="4" fill="#49474A"/>
<rect x="65" y="113" width="32.5" height="8" rx="4" fill="#49474A"/>
</svg>
