<svg width="150" height="150" viewBox="0 0 150 150" fill="none" xmlns="http://www.w3.org/2000/svg">
<path d="M56.25 18.75C56.25 13.7772 58.2254 9.00806 61.7417 5.49175C65.2581 1.97544 70.0272 0 75 0C79.9728 0 84.7419 1.97544 88.2582 5.49175C91.7746 9.00806 93.75 13.7772 93.75 18.75V90.2531C99.4827 94.2449 103.792 99.9621 106.05 106.573C108.309 113.183 108.399 120.342 106.307 127.007C104.215 133.672 100.05 139.495 94.4197 143.63C88.7889 147.764 81.9856 149.993 75 149.993C68.0144 149.993 61.2111 147.764 55.5803 143.63C49.9495 139.495 45.7851 133.672 43.6933 127.007C41.6014 120.342 41.6912 113.183 43.9496 106.573C46.2081 99.9621 50.5173 94.2449 56.25 90.2531V18.75ZM75 9.375C72.5136 9.375 70.129 10.3627 68.3709 12.1209C66.6127 13.879 65.625 16.2636 65.625 18.75V92.8219C65.625 93.6447 65.4084 94.453 64.997 95.1656C64.5856 95.8781 63.9938 96.4698 63.2812 96.8812C58.8014 99.4542 55.2977 103.436 53.3152 108.206C51.3327 112.977 50.9826 118.269 52.3195 123.259C53.6563 128.25 56.6051 132.658 60.707 135.799C64.8089 138.939 69.8338 140.636 75 140.625C80.1622 140.628 85.1811 138.927 89.2775 135.786C93.3739 132.645 96.3186 128.239 97.6544 123.252C98.9902 118.266 98.6425 112.978 96.6651 108.21C94.6877 103.441 91.1913 99.459 86.7188 96.8812C86.0062 96.4698 85.4145 95.8781 85.003 95.1656C84.5916 94.453 84.375 93.6447 84.375 92.8219V18.75C84.375 16.2636 83.3873 13.879 81.6291 12.1209C79.871 10.3627 77.4864 9.375 75 9.375V9.375Z" fill="#49474A"/>
<path d="M89.0625 117.188C89.0625 120.917 87.5809 124.494 84.9437 127.131C82.3065 129.768 78.7296 131.25 75 131.25C71.2704 131.25 67.6935 129.768 65.0563 127.131C62.4191 124.494 60.9375 120.917 60.9375 117.188C60.9375 113.458 62.4191 109.881 65.0563 107.244C67.6935 104.607 71.2704 103.125 75 103.125C78.7296 103.125 82.3065 104.607 84.9437 107.244C87.5809 109.881 89.0625 113.458 89.0625 117.188V117.188Z" fill="#D4C262"/>
<rect x="69.75" y="33.75" width="10.5" height="84" rx="5.25" fill="#D4C262"/>
<rect x="48.75" y="66.75" width="24.375" height="6" rx="3" fill="#49474A"/>
<rect x="48.75" y="48.75" width="24.375" height="6" rx="3" fill="#49474A"/>
<rect x="48.75" y="30.75" width="24.375" height="6" rx="3" fill="#49474A"/>
<rect x="48.75" y="12.75" width="24.375" height="6" rx="3" fill="#49474A"/>
<rect x="48.75" y="84.75" width="24.375" height="6" rx="3" fill="#49474A"/>
</svg>
