<svg width="334" height="162" viewBox="0 0 334 162" fill="none" xmlns="http://www.w3.org/2000/svg">
<rect y="105" width="40" height="15" fill="#175E7A"/>
<rect x="42" y="90" width="40" height="30" fill="#175E7A"/>
<rect x="84" y="75" width="40" height="45" fill="#57A3B3"/>
<rect x="126" y="60" width="40" height="60" fill="#F4F9FA"/>
<rect x="168" y="45" width="40" height="75" fill="#F4F9FA"/>
<rect x="210" y="30" width="40" height="90" fill="#F4F9FA"/>
<rect x="252" y="15" width="40" height="105" fill="#F4F9FA"/>
<rect x="294" width="40" height="120" fill="#F4F9FA"/>
<path d="M15.8982 134.112C15.1235 134.112 14.4329 133.916 13.8262 133.524C13.2289 133.123 12.7575 132.544 12.4122 131.788C12.0669 131.032 11.8942 130.136 11.8942 129.1C11.8942 128.064 12.0669 127.168 12.4122 126.412C12.7575 125.656 13.2289 125.082 13.8262 124.69C14.4329 124.289 15.1235 124.088 15.8982 124.088C16.6635 124.088 17.3449 124.289 17.9422 124.69C18.5489 125.082 19.0249 125.656 19.3702 126.412C19.7155 127.168 19.8882 128.064 19.8882 129.1C19.8882 130.136 19.7155 131.032 19.3702 131.788C19.0249 132.544 18.5489 133.123 17.9422 133.524C17.3449 133.916 16.6635 134.112 15.8982 134.112ZM15.8982 132.866C16.6822 132.866 17.3075 132.544 17.7742 131.9C18.2502 131.256 18.4882 130.323 18.4882 129.1C18.4882 127.877 18.2502 126.944 17.7742 126.3C17.3075 125.656 16.6822 125.334 15.8982 125.334C15.1049 125.334 14.4702 125.656 13.9942 126.3C13.5275 126.944 13.2942 127.877 13.2942 129.1C13.2942 130.323 13.5275 131.256 13.9942 131.9C14.4702 132.544 15.1049 132.866 15.8982 132.866ZM22.3501 130.76C21.8634 130.76 21.4701 130.583 21.1701 130.23C20.8701 129.877 20.7201 129.417 20.7201 128.85C20.7201 128.283 20.8701 127.823 21.1701 127.47C21.4701 127.117 21.8634 126.94 22.3501 126.94C22.8367 126.94 23.2267 127.117 23.5201 127.47C23.8201 127.817 23.9701 128.277 23.9701 128.85C23.9701 129.423 23.8201 129.887 23.5201 130.24C23.2267 130.587 22.8367 130.76 22.3501 130.76ZM26.5701 127H27.3401L22.5601 134H21.7901L26.5701 127ZM22.3501 130.19C22.6567 130.19 22.8967 130.073 23.0701 129.84C23.2434 129.6 23.3301 129.27 23.3301 128.85C23.3301 128.43 23.2434 128.103 23.0701 127.87C22.8967 127.63 22.6567 127.51 22.3501 127.51C22.0501 127.51 21.8101 127.63 21.6301 127.87C21.4567 128.11 21.3701 128.437 21.3701 128.85C21.3701 129.263 21.4567 129.59 21.6301 129.83C21.8101 130.07 22.0501 130.19 22.3501 130.19ZM26.7801 134.06C26.2934 134.06 25.9001 133.887 25.6001 133.54C25.3067 133.187 25.1601 132.723 25.1601 132.15C25.1601 131.577 25.3067 131.117 25.6001 130.77C25.9001 130.417 26.2934 130.24 26.7801 130.24C27.2667 130.24 27.6601 130.417 27.9601 130.77C28.2601 131.123 28.4101 131.583 28.4101 132.15C28.4101 132.717 28.2601 133.177 27.9601 133.53C27.6601 133.883 27.2667 134.06 26.7801 134.06ZM26.7801 133.49C27.0801 133.49 27.3167 133.37 27.4901 133.13C27.6701 132.89 27.7601 132.563 27.7601 132.15C27.7601 131.737 27.6701 131.41 27.4901 131.17C27.3167 130.93 27.0801 130.81 26.7801 130.81C26.4734 130.81 26.2334 130.93 26.0601 131.17C25.8867 131.403 25.8001 131.73 25.8001 132.15C25.8001 132.57 25.8867 132.9 26.0601 133.14C26.2334 133.373 26.4734 133.49 26.7801 133.49Z" fill="#BDBDBD"/>
<path d="M57.3436 128.106C58.7436 128.106 59.7703 128.372 60.4236 128.904C61.0863 129.427 61.4176 130.145 61.4176 131.06C61.4176 131.639 61.2776 132.161 60.9976 132.628C60.7269 133.085 60.3116 133.449 59.7516 133.72C59.2009 133.981 58.5196 134.112 57.7076 134.112C57.0169 134.112 56.3496 134.009 55.7056 133.804C55.0616 133.589 54.5296 133.295 54.1096 132.922L54.7536 131.816C55.0896 132.133 55.5189 132.39 56.0416 132.586C56.5643 132.773 57.1149 132.866 57.6936 132.866C58.4309 132.866 59.0003 132.712 59.4016 132.404C59.8123 132.087 60.0176 131.657 60.0176 131.116C60.0176 130.528 59.7936 130.085 59.3456 129.786C58.8976 129.478 58.1323 129.324 57.0496 129.324H54.8236L55.3416 124.2H60.8716V125.418H56.5176L56.2516 128.106H57.3436ZM63.7007 130.76C63.214 130.76 62.8207 130.583 62.5207 130.23C62.2207 129.877 62.0707 129.417 62.0707 128.85C62.0707 128.283 62.2207 127.823 62.5207 127.47C62.8207 127.117 63.214 126.94 63.7007 126.94C64.1873 126.94 64.5773 127.117 64.8707 127.47C65.1707 127.817 65.3207 128.277 65.3207 128.85C65.3207 129.423 65.1707 129.887 64.8707 130.24C64.5773 130.587 64.1873 130.76 63.7007 130.76ZM67.9207 127H68.6907L63.9107 134H63.1407L67.9207 127ZM63.7007 130.19C64.0073 130.19 64.2473 130.073 64.4207 129.84C64.594 129.6 64.6807 129.27 64.6807 128.85C64.6807 128.43 64.594 128.103 64.4207 127.87C64.2473 127.63 64.0073 127.51 63.7007 127.51C63.4007 127.51 63.1607 127.63 62.9807 127.87C62.8073 128.11 62.7207 128.437 62.7207 128.85C62.7207 129.263 62.8073 129.59 62.9807 129.83C63.1607 130.07 63.4007 130.19 63.7007 130.19ZM68.1307 134.06C67.644 134.06 67.2507 133.887 66.9507 133.54C66.6573 133.187 66.5107 132.723 66.5107 132.15C66.5107 131.577 66.6573 131.117 66.9507 130.77C67.2507 130.417 67.644 130.24 68.1307 130.24C68.6173 130.24 69.0107 130.417 69.3107 130.77C69.6107 131.123 69.7607 131.583 69.7607 132.15C69.7607 132.717 69.6107 133.177 69.3107 133.53C69.0107 133.883 68.6173 134.06 68.1307 134.06ZM68.1307 133.49C68.4307 133.49 68.6673 133.37 68.8407 133.13C69.0207 132.89 69.1107 132.563 69.1107 132.15C69.1107 131.737 69.0207 131.41 68.8407 131.17C68.6673 130.93 68.4307 130.81 68.1307 130.81C67.824 130.81 67.584 130.93 67.4107 131.17C67.2373 131.403 67.1507 131.73 67.1507 132.15C67.1507 132.57 67.2373 132.9 67.4107 133.14C67.584 133.373 67.824 133.49 68.1307 133.49Z" fill="#BDBDBD"/>
<path d="M96.4464 124.2V134H95.0604V125.418H92.8484V124.2H96.4464ZM102.384 134.112C101.609 134.112 100.919 133.916 100.312 133.524C99.7147 133.123 99.2433 132.544 98.898 131.788C98.5527 131.032 98.38 130.136 98.38 129.1C98.38 128.064 98.5527 127.168 98.898 126.412C99.2433 125.656 99.7147 125.082 100.312 124.69C100.919 124.289 101.609 124.088 102.384 124.088C103.149 124.088 103.831 124.289 104.428 124.69C105.035 125.082 105.511 125.656 105.856 126.412C106.201 127.168 106.374 128.064 106.374 129.1C106.374 130.136 106.201 131.032 105.856 131.788C105.511 132.544 105.035 133.123 104.428 133.524C103.831 133.916 103.149 134.112 102.384 134.112ZM102.384 132.866C103.168 132.866 103.793 132.544 104.26 131.9C104.736 131.256 104.974 130.323 104.974 129.1C104.974 127.877 104.736 126.944 104.26 126.3C103.793 125.656 103.168 125.334 102.384 125.334C101.591 125.334 100.956 125.656 100.48 126.3C100.013 126.944 99.78 127.877 99.78 129.1C99.78 130.323 100.013 131.256 100.48 131.9C100.956 132.544 101.591 132.866 102.384 132.866ZM108.836 130.76C108.349 130.76 107.956 130.583 107.656 130.23C107.356 129.877 107.206 129.417 107.206 128.85C107.206 128.283 107.356 127.823 107.656 127.47C107.956 127.117 108.349 126.94 108.836 126.94C109.323 126.94 109.713 127.117 110.006 127.47C110.306 127.817 110.456 128.277 110.456 128.85C110.456 129.423 110.306 129.887 110.006 130.24C109.713 130.587 109.323 130.76 108.836 130.76ZM113.056 127H113.826L109.046 134H108.276L113.056 127ZM108.836 130.19C109.143 130.19 109.383 130.073 109.556 129.84C109.729 129.6 109.816 129.27 109.816 128.85C109.816 128.43 109.729 128.103 109.556 127.87C109.383 127.63 109.143 127.51 108.836 127.51C108.536 127.51 108.296 127.63 108.116 127.87C107.943 128.11 107.856 128.437 107.856 128.85C107.856 129.263 107.943 129.59 108.116 129.83C108.296 130.07 108.536 130.19 108.836 130.19ZM113.266 134.06C112.779 134.06 112.386 133.887 112.086 133.54C111.793 133.187 111.646 132.723 111.646 132.15C111.646 131.577 111.793 131.117 112.086 130.77C112.386 130.417 112.779 130.24 113.266 130.24C113.753 130.24 114.146 130.417 114.446 130.77C114.746 131.123 114.896 131.583 114.896 132.15C114.896 132.717 114.746 133.177 114.446 133.53C114.146 133.883 113.753 134.06 113.266 134.06ZM113.266 133.49C113.566 133.49 113.803 133.37 113.976 133.13C114.156 132.89 114.246 132.563 114.246 132.15C114.246 131.737 114.156 131.41 113.976 131.17C113.803 130.93 113.566 130.81 113.266 130.81C112.959 130.81 112.719 130.93 112.546 131.17C112.373 131.403 112.286 131.73 112.286 132.15C112.286 132.57 112.373 132.9 112.546 133.14C112.719 133.373 112.959 133.49 113.266 133.49Z" fill="#57A3B3"/>
<path d="M139.096 124.2V134H137.71V125.418H135.498V124.2H139.096ZM143.829 128.106C145.229 128.106 146.256 128.372 146.909 128.904C147.572 129.427 147.903 130.145 147.903 131.06C147.903 131.639 147.763 132.161 147.483 132.628C147.213 133.085 146.797 133.449 146.237 133.72C145.687 133.981 145.005 134.112 144.193 134.112C143.503 134.112 142.835 134.009 142.191 133.804C141.547 133.589 141.015 133.295 140.595 132.922L141.239 131.816C141.575 132.133 142.005 132.39 142.527 132.586C143.05 132.773 143.601 132.866 144.179 132.866C144.917 132.866 145.486 132.712 145.887 132.404C146.298 132.087 146.503 131.657 146.503 131.116C146.503 130.528 146.279 130.085 145.831 129.786C145.383 129.478 144.618 129.324 143.535 129.324H141.309L141.827 124.2H147.357V125.418H143.003L142.737 128.106H143.829ZM150.186 130.76C149.7 130.76 149.306 130.583 149.006 130.23C148.706 129.877 148.556 129.417 148.556 128.85C148.556 128.283 148.706 127.823 149.006 127.47C149.306 127.117 149.7 126.94 150.186 126.94C150.673 126.94 151.063 127.117 151.356 127.47C151.656 127.817 151.806 128.277 151.806 128.85C151.806 129.423 151.656 129.887 151.356 130.24C151.063 130.587 150.673 130.76 150.186 130.76ZM154.406 127H155.176L150.396 134H149.626L154.406 127ZM150.186 130.19C150.493 130.19 150.733 130.073 150.906 129.84C151.08 129.6 151.166 129.27 151.166 128.85C151.166 128.43 151.08 128.103 150.906 127.87C150.733 127.63 150.493 127.51 150.186 127.51C149.886 127.51 149.646 127.63 149.466 127.87C149.293 128.11 149.206 128.437 149.206 128.85C149.206 129.263 149.293 129.59 149.466 129.83C149.646 130.07 149.886 130.19 150.186 130.19ZM154.616 134.06C154.13 134.06 153.736 133.887 153.436 133.54C153.143 133.187 152.996 132.723 152.996 132.15C152.996 131.577 153.143 131.117 153.436 130.77C153.736 130.417 154.13 130.24 154.616 130.24C155.103 130.24 155.496 130.417 155.796 130.77C156.096 131.123 156.246 131.583 156.246 132.15C156.246 132.717 156.096 133.177 155.796 133.53C155.496 133.883 155.103 134.06 154.616 134.06ZM154.616 133.49C154.916 133.49 155.153 133.37 155.326 133.13C155.506 132.89 155.596 132.563 155.596 132.15C155.596 131.737 155.506 131.41 155.326 131.17C155.153 130.93 154.916 130.81 154.616 130.81C154.31 130.81 154.07 130.93 153.896 131.17C153.723 131.403 153.636 131.73 153.636 132.15C153.636 132.57 153.723 132.9 153.896 133.14C154.07 133.373 154.31 133.49 154.616 133.49Z" fill="#BDBDBD"/>
<path d="M182.888 132.782V134H175.846V133.048L179.836 129.198C180.321 128.731 180.648 128.33 180.816 127.994C180.984 127.649 181.068 127.303 181.068 126.958C181.068 126.445 180.886 126.048 180.522 125.768C180.167 125.479 179.654 125.334 178.982 125.334C177.899 125.334 177.064 125.689 176.476 126.398L175.524 125.572C175.907 125.105 176.406 124.741 177.022 124.48C177.647 124.219 178.343 124.088 179.108 124.088C180.135 124.088 180.951 124.335 181.558 124.83C182.165 125.315 182.468 125.978 182.468 126.818C182.468 127.341 182.356 127.835 182.132 128.302C181.908 128.769 181.483 129.301 180.858 129.898L177.862 132.782H182.888ZM187.792 134.112C187.018 134.112 186.327 133.916 185.72 133.524C185.123 133.123 184.652 132.544 184.306 131.788C183.961 131.032 183.788 130.136 183.788 129.1C183.788 128.064 183.961 127.168 184.306 126.412C184.652 125.656 185.123 125.082 185.72 124.69C186.327 124.289 187.018 124.088 187.792 124.088C188.558 124.088 189.239 124.289 189.836 124.69C190.443 125.082 190.919 125.656 191.264 126.412C191.61 127.168 191.782 128.064 191.782 129.1C191.782 130.136 191.61 131.032 191.264 131.788C190.919 132.544 190.443 133.123 189.836 133.524C189.239 133.916 188.558 134.112 187.792 134.112ZM187.792 132.866C188.576 132.866 189.202 132.544 189.668 131.9C190.144 131.256 190.382 130.323 190.382 129.1C190.382 127.877 190.144 126.944 189.668 126.3C189.202 125.656 188.576 125.334 187.792 125.334C186.999 125.334 186.364 125.656 185.888 126.3C185.422 126.944 185.188 127.877 185.188 129.1C185.188 130.323 185.422 131.256 185.888 131.9C186.364 132.544 186.999 132.866 187.792 132.866ZM194.244 130.76C193.757 130.76 193.364 130.583 193.064 130.23C192.764 129.877 192.614 129.417 192.614 128.85C192.614 128.283 192.764 127.823 193.064 127.47C193.364 127.117 193.757 126.94 194.244 126.94C194.731 126.94 195.121 127.117 195.414 127.47C195.714 127.817 195.864 128.277 195.864 128.85C195.864 129.423 195.714 129.887 195.414 130.24C195.121 130.587 194.731 130.76 194.244 130.76ZM198.464 127H199.234L194.454 134H193.684L198.464 127ZM194.244 130.19C194.551 130.19 194.791 130.073 194.964 129.84C195.137 129.6 195.224 129.27 195.224 128.85C195.224 128.43 195.137 128.103 194.964 127.87C194.791 127.63 194.551 127.51 194.244 127.51C193.944 127.51 193.704 127.63 193.524 127.87C193.351 128.11 193.264 128.437 193.264 128.85C193.264 129.263 193.351 129.59 193.524 129.83C193.704 130.07 193.944 130.19 194.244 130.19ZM198.674 134.06C198.187 134.06 197.794 133.887 197.494 133.54C197.201 133.187 197.054 132.723 197.054 132.15C197.054 131.577 197.201 131.117 197.494 130.77C197.794 130.417 198.187 130.24 198.674 130.24C199.161 130.24 199.554 130.417 199.854 130.77C200.154 131.123 200.304 131.583 200.304 132.15C200.304 132.717 200.154 133.177 199.854 133.53C199.554 133.883 199.161 134.06 198.674 134.06ZM198.674 133.49C198.974 133.49 199.211 133.37 199.384 133.13C199.564 132.89 199.654 132.563 199.654 132.15C199.654 131.737 199.564 131.41 199.384 131.17C199.211 130.93 198.974 130.81 198.674 130.81C198.367 130.81 198.127 130.93 197.954 131.17C197.781 131.403 197.694 131.73 197.694 132.15C197.694 132.57 197.781 132.9 197.954 133.14C198.127 133.373 198.367 133.49 198.674 133.49Z" fill="#BDBDBD"/>
<path d="M225.517 132.782V134H218.475V133.048L222.465 129.198C222.95 128.731 223.277 128.33 223.445 127.994C223.613 127.649 223.697 127.303 223.697 126.958C223.697 126.445 223.515 126.048 223.151 125.768C222.796 125.479 222.283 125.334 221.611 125.334C220.528 125.334 219.693 125.689 219.105 126.398L218.153 125.572C218.536 125.105 219.035 124.741 219.651 124.48C220.276 124.219 220.972 124.088 221.737 124.088C222.764 124.088 223.58 124.335 224.187 124.83C224.794 125.315 225.097 125.978 225.097 126.818C225.097 127.341 224.985 127.835 224.761 128.302C224.537 128.769 224.112 129.301 223.487 129.898L220.491 132.782H225.517ZM229.258 128.106C230.658 128.106 231.685 128.372 232.338 128.904C233.001 129.427 233.332 130.145 233.332 131.06C233.332 131.639 233.192 132.161 232.912 132.628C232.641 133.085 232.226 133.449 231.666 133.72C231.115 133.981 230.434 134.112 229.622 134.112C228.931 134.112 228.264 134.009 227.62 133.804C226.976 133.589 226.444 133.295 226.024 132.922L226.668 131.816C227.004 132.133 227.433 132.39 227.956 132.586C228.479 132.773 229.029 132.866 229.608 132.866C230.345 132.866 230.915 132.712 231.316 132.404C231.727 132.087 231.932 131.657 231.932 131.116C231.932 130.528 231.708 130.085 231.26 129.786C230.812 129.478 230.047 129.324 228.964 129.324H226.738L227.256 124.2H232.786V125.418H228.432L228.166 128.106H229.258ZM235.615 130.76C235.129 130.76 234.735 130.583 234.435 130.23C234.135 129.877 233.985 129.417 233.985 128.85C233.985 128.283 234.135 127.823 234.435 127.47C234.735 127.117 235.129 126.94 235.615 126.94C236.102 126.94 236.492 127.117 236.785 127.47C237.085 127.817 237.235 128.277 237.235 128.85C237.235 129.423 237.085 129.887 236.785 130.24C236.492 130.587 236.102 130.76 235.615 130.76ZM239.835 127H240.605L235.825 134H235.055L239.835 127ZM235.615 130.19C235.922 130.19 236.162 130.073 236.335 129.84C236.509 129.6 236.595 129.27 236.595 128.85C236.595 128.43 236.509 128.103 236.335 127.87C236.162 127.63 235.922 127.51 235.615 127.51C235.315 127.51 235.075 127.63 234.895 127.87C234.722 128.11 234.635 128.437 234.635 128.85C234.635 129.263 234.722 129.59 234.895 129.83C235.075 130.07 235.315 130.19 235.615 130.19ZM240.045 134.06C239.559 134.06 239.165 133.887 238.865 133.54C238.572 133.187 238.425 132.723 238.425 132.15C238.425 131.577 238.572 131.117 238.865 130.77C239.165 130.417 239.559 130.24 240.045 130.24C240.532 130.24 240.925 130.417 241.225 130.77C241.525 131.123 241.675 131.583 241.675 132.15C241.675 132.717 241.525 133.177 241.225 133.53C240.925 133.883 240.532 134.06 240.045 134.06ZM240.045 133.49C240.345 133.49 240.582 133.37 240.755 133.13C240.935 132.89 241.025 132.563 241.025 132.15C241.025 131.737 240.935 131.41 240.755 131.17C240.582 130.93 240.345 130.81 240.045 130.81C239.739 130.81 239.499 130.93 239.325 131.17C239.152 131.403 239.065 131.73 239.065 132.15C239.065 132.57 239.152 132.9 239.325 133.14C239.499 133.373 239.739 133.49 240.045 133.49Z" fill="#BDBDBD"/>
<path d="M263.745 128.316C264.707 128.409 265.439 128.708 265.943 129.212C266.447 129.707 266.699 130.341 266.699 131.116C266.699 131.676 266.559 132.185 266.279 132.642C265.999 133.09 265.579 133.449 265.019 133.72C264.469 133.981 263.792 134.112 262.989 134.112C262.289 134.112 261.617 134.009 260.973 133.804C260.329 133.589 259.802 133.295 259.391 132.922L260.035 131.816C260.371 132.133 260.801 132.39 261.323 132.586C261.846 132.773 262.401 132.866 262.989 132.866C263.717 132.866 264.282 132.712 264.683 132.404C265.094 132.096 265.299 131.671 265.299 131.13C265.299 130.589 265.099 130.169 264.697 129.87C264.296 129.571 263.689 129.422 262.877 129.422H262.093V128.442L264.557 125.418H259.839V124.2H266.307V125.152L263.745 128.316ZM271.799 134.112C271.024 134.112 270.334 133.916 269.727 133.524C269.13 133.123 268.658 132.544 268.313 131.788C267.968 131.032 267.795 130.136 267.795 129.1C267.795 128.064 267.968 127.168 268.313 126.412C268.658 125.656 269.13 125.082 269.727 124.69C270.334 124.289 271.024 124.088 271.799 124.088C272.564 124.088 273.246 124.289 273.843 124.69C274.45 125.082 274.926 125.656 275.271 126.412C275.616 127.168 275.789 128.064 275.789 129.1C275.789 130.136 275.616 131.032 275.271 131.788C274.926 132.544 274.45 133.123 273.843 133.524C273.246 133.916 272.564 134.112 271.799 134.112ZM271.799 132.866C272.583 132.866 273.208 132.544 273.675 131.9C274.151 131.256 274.389 130.323 274.389 129.1C274.389 127.877 274.151 126.944 273.675 126.3C273.208 125.656 272.583 125.334 271.799 125.334C271.006 125.334 270.371 125.656 269.895 126.3C269.428 126.944 269.195 127.877 269.195 129.1C269.195 130.323 269.428 131.256 269.895 131.9C270.371 132.544 271.006 132.866 271.799 132.866ZM278.251 130.76C277.764 130.76 277.371 130.583 277.071 130.23C276.771 129.877 276.621 129.417 276.621 128.85C276.621 128.283 276.771 127.823 277.071 127.47C277.371 127.117 277.764 126.94 278.251 126.94C278.738 126.94 279.128 127.117 279.421 127.47C279.721 127.817 279.871 128.277 279.871 128.85C279.871 129.423 279.721 129.887 279.421 130.24C279.128 130.587 278.738 130.76 278.251 130.76ZM282.471 127H283.241L278.461 134H277.691L282.471 127ZM278.251 130.19C278.558 130.19 278.798 130.073 278.971 129.84C279.144 129.6 279.231 129.27 279.231 128.85C279.231 128.43 279.144 128.103 278.971 127.87C278.798 127.63 278.558 127.51 278.251 127.51C277.951 127.51 277.711 127.63 277.531 127.87C277.358 128.11 277.271 128.437 277.271 128.85C277.271 129.263 277.358 129.59 277.531 129.83C277.711 130.07 277.951 130.19 278.251 130.19ZM282.681 134.06C282.194 134.06 281.801 133.887 281.501 133.54C281.208 133.187 281.061 132.723 281.061 132.15C281.061 131.577 281.208 131.117 281.501 130.77C281.801 130.417 282.194 130.24 282.681 130.24C283.168 130.24 283.561 130.417 283.861 130.77C284.161 131.123 284.311 131.583 284.311 132.15C284.311 132.717 284.161 133.177 283.861 133.53C283.561 133.883 283.168 134.06 282.681 134.06ZM282.681 133.49C282.981 133.49 283.218 133.37 283.391 133.13C283.571 132.89 283.661 132.563 283.661 132.15C283.661 131.737 283.571 131.41 283.391 131.17C283.218 130.93 282.981 130.81 282.681 130.81C282.374 130.81 282.134 130.93 281.961 131.17C281.788 131.403 281.701 131.73 281.701 132.15C281.701 132.57 281.788 132.9 281.961 133.14C282.134 133.373 282.374 133.49 282.681 133.49Z" fill="#BDBDBD"/>
<path d="M306.463 128.316C307.424 128.409 308.157 128.708 308.661 129.212C309.165 129.707 309.417 130.341 309.417 131.116C309.417 131.676 309.277 132.185 308.997 132.642C308.717 133.09 308.297 133.449 307.737 133.72C307.186 133.981 306.51 134.112 305.707 134.112C305.007 134.112 304.335 134.009 303.691 133.804C303.047 133.589 302.52 133.295 302.109 132.922L302.753 131.816C303.089 132.133 303.518 132.39 304.041 132.586C304.564 132.773 305.119 132.866 305.707 132.866C306.435 132.866 307 132.712 307.401 132.404C307.812 132.096 308.017 131.671 308.017 131.13C308.017 130.589 307.816 130.169 307.415 129.87C307.014 129.571 306.407 129.422 305.595 129.422H304.811V128.442L307.275 125.418H302.557V124.2H309.025V125.152L306.463 128.316ZM313.176 128.106C314.576 128.106 315.603 128.372 316.256 128.904C316.919 129.427 317.25 130.145 317.25 131.06C317.25 131.639 317.11 132.161 316.83 132.628C316.559 133.085 316.144 133.449 315.584 133.72C315.033 133.981 314.352 134.112 313.54 134.112C312.849 134.112 312.182 134.009 311.538 133.804C310.894 133.589 310.362 133.295 309.942 132.922L310.586 131.816C310.922 132.133 311.351 132.39 311.874 132.586C312.397 132.773 312.947 132.866 313.526 132.866C314.263 132.866 314.833 132.712 315.234 132.404C315.645 132.087 315.85 131.657 315.85 131.116C315.85 130.528 315.626 130.085 315.178 129.786C314.73 129.478 313.965 129.324 312.882 129.324H310.656L311.174 124.2H316.704V125.418H312.35L312.084 128.106H313.176ZM319.533 130.76C319.046 130.76 318.653 130.583 318.353 130.23C318.053 129.877 317.903 129.417 317.903 128.85C317.903 128.283 318.053 127.823 318.353 127.47C318.653 127.117 319.046 126.94 319.533 126.94C320.02 126.94 320.41 127.117 320.703 127.47C321.003 127.817 321.153 128.277 321.153 128.85C321.153 129.423 321.003 129.887 320.703 130.24C320.41 130.587 320.02 130.76 319.533 130.76ZM323.753 127H324.523L319.743 134H318.973L323.753 127ZM319.533 130.19C319.84 130.19 320.08 130.073 320.253 129.84C320.426 129.6 320.513 129.27 320.513 128.85C320.513 128.43 320.426 128.103 320.253 127.87C320.08 127.63 319.84 127.51 319.533 127.51C319.233 127.51 318.993 127.63 318.813 127.87C318.64 128.11 318.553 128.437 318.553 128.85C318.553 129.263 318.64 129.59 318.813 129.83C318.993 130.07 319.233 130.19 319.533 130.19ZM323.963 134.06C323.476 134.06 323.083 133.887 322.783 133.54C322.49 133.187 322.343 132.723 322.343 132.15C322.343 131.577 322.49 131.117 322.783 130.77C323.083 130.417 323.476 130.24 323.963 130.24C324.45 130.24 324.843 130.417 325.143 130.77C325.443 131.123 325.593 131.583 325.593 132.15C325.593 132.717 325.443 133.177 325.143 133.53C324.843 133.883 324.45 134.06 323.963 134.06ZM323.963 133.49C324.263 133.49 324.5 133.37 324.673 133.13C324.853 132.89 324.943 132.563 324.943 132.15C324.943 131.737 324.853 131.41 324.673 131.17C324.5 130.93 324.263 130.81 323.963 130.81C323.656 130.81 323.416 130.93 323.243 131.17C323.07 131.403 322.983 131.73 322.983 132.15C322.983 132.57 323.07 132.9 323.243 133.14C323.416 133.373 323.656 133.49 323.963 133.49Z" fill="#BDBDBD"/>
<path d="M121.92 159.14C120.912 159.14 120.156 158.879 119.652 158.356C119.157 157.824 118.91 156.993 118.91 155.864C118.91 155.677 118.914 155.477 118.924 155.262C118.942 155.038 118.961 154.819 118.98 154.604H121.92V155.584H120.156V155.864C120.156 156.452 120.221 156.914 120.352 157.25C120.482 157.577 120.674 157.805 120.926 157.936C121.187 158.067 121.509 158.132 121.892 158.132C122.312 158.132 122.676 158.053 122.984 157.894C123.292 157.735 123.53 157.446 123.698 157.026C123.866 156.606 123.95 156.004 123.95 155.22C123.95 154.193 123.772 153.437 123.418 152.952C123.072 152.467 122.47 152.224 121.612 152.224C121.164 152.224 120.734 152.285 120.324 152.406C119.922 152.518 119.535 152.681 119.162 152.896V151.734C119.442 151.585 119.81 151.459 120.268 151.356C120.725 151.244 121.224 151.188 121.766 151.188C122.587 151.188 123.25 151.356 123.754 151.692C124.267 152.019 124.64 152.485 124.874 153.092C125.107 153.689 125.224 154.399 125.224 155.22C125.224 156.041 125.116 156.746 124.902 157.334C124.687 157.922 124.337 158.37 123.852 158.678C123.376 158.986 122.732 159.14 121.92 159.14ZM122.738 150.11C122.15 150.11 121.735 149.993 121.492 149.76C121.249 149.517 121.128 149.247 121.128 148.948C121.128 148.808 121.151 148.659 121.198 148.5C121.235 148.332 121.287 148.197 121.352 148.094L122.402 148.276C122.346 148.388 122.318 148.533 122.318 148.71C122.318 148.831 122.355 148.939 122.43 149.032C122.505 149.116 122.631 149.158 122.808 149.158H126.35V150.11H122.738ZM129.539 159.14C128.755 159.14 128.148 158.963 127.719 158.608C127.289 158.244 126.991 157.754 126.823 157.138C126.655 156.513 126.571 155.803 126.571 155.01C126.571 153.647 126.762 152.672 127.145 152.084C127.537 151.487 128.097 151.188 128.825 151.188C129.151 151.188 129.427 151.244 129.651 151.356C129.884 151.468 130.047 151.655 130.141 151.916H130.197C130.29 151.645 130.458 151.459 130.701 151.356C130.943 151.244 131.228 151.188 131.555 151.188C132.161 151.188 132.628 151.351 132.955 151.678C133.291 151.995 133.459 152.485 133.459 153.148V159H132.213V153.162C132.213 152.798 132.133 152.551 131.975 152.42C131.816 152.289 131.615 152.224 131.373 152.224C131.102 152.224 130.901 152.289 130.771 152.42C130.649 152.551 130.575 152.765 130.547 153.064H129.763C129.725 152.737 129.627 152.518 129.469 152.406C129.31 152.285 129.133 152.224 128.937 152.224C128.563 152.224 128.283 152.443 128.097 152.882C127.91 153.311 127.817 154.025 127.817 155.024C127.817 155.668 127.863 156.219 127.957 156.676C128.059 157.133 128.246 157.488 128.517 157.74C128.787 157.983 129.179 158.104 129.693 158.104C129.879 158.104 130.033 158.095 130.155 158.076C130.276 158.057 130.393 158.034 130.505 158.006L130.631 158.958C130.491 159.023 130.323 159.07 130.127 159.098C129.931 159.126 129.735 159.14 129.539 159.14ZM137.669 159.14C137.119 159.14 136.605 159.089 136.129 158.986C135.663 158.874 135.266 158.743 134.939 158.594L135.303 157.586C135.602 157.707 135.957 157.824 136.367 157.936C136.787 158.048 137.231 158.104 137.697 158.104C138.192 158.104 138.603 158.011 138.929 157.824C139.256 157.637 139.419 157.367 139.419 157.012C139.419 156.695 139.289 156.433 139.027 156.228C138.766 156.023 138.346 155.831 137.767 155.654C137.179 155.467 136.68 155.271 136.269 155.066C135.868 154.851 135.56 154.599 135.345 154.31C135.14 154.011 135.037 153.643 135.037 153.204C135.037 152.625 135.275 152.145 135.751 151.762C136.227 151.379 136.988 151.188 138.033 151.188C138.481 151.188 138.901 151.23 139.293 151.314C139.695 151.389 140.007 151.496 140.231 151.636V152.686C139.998 152.574 139.676 152.467 139.265 152.364C138.855 152.261 138.43 152.21 137.991 152.21C137.366 152.21 136.923 152.308 136.661 152.504C136.409 152.691 136.283 152.905 136.283 153.148C136.283 153.353 136.339 153.526 136.451 153.666C136.573 153.806 136.773 153.941 137.053 154.072C137.343 154.203 137.73 154.352 138.215 154.52C138.663 154.669 139.074 154.842 139.447 155.038C139.821 155.234 140.115 155.481 140.329 155.78C140.553 156.069 140.665 156.443 140.665 156.9C140.665 157.292 140.567 157.661 140.371 158.006C140.185 158.342 139.872 158.617 139.433 158.832C138.995 159.037 138.407 159.14 137.669 159.14ZM144.309 159V153.554C144.309 153.097 144.202 152.761 143.987 152.546C143.782 152.331 143.432 152.224 142.937 152.224C142.601 152.224 142.284 152.271 141.985 152.364C141.696 152.448 141.416 152.569 141.145 152.728V151.608C141.332 151.515 141.598 151.421 141.943 151.328C142.288 151.235 142.699 151.188 143.175 151.188C143.903 151.188 144.482 151.351 144.911 151.678C145.34 152.005 145.555 152.569 145.555 153.372V159H144.309ZM147.715 159.14C147.547 159.14 147.383 159.121 147.225 159.084C147.066 159.056 146.907 159.005 146.749 158.93L146.889 158.062C146.954 158.081 147.029 158.099 147.113 158.118C147.197 158.137 147.276 158.146 147.351 158.146C147.631 158.146 147.771 157.959 147.771 157.586V156.284C147.771 155.705 147.878 155.29 148.093 155.038C148.307 154.777 148.615 154.599 149.017 154.506L149.031 154.464L147.421 153.876V153.414C147.421 153.031 147.542 152.672 147.785 152.336C148.037 151.991 148.401 151.715 148.877 151.51C149.353 151.295 149.922 151.188 150.585 151.188C151.163 151.188 151.695 151.281 152.181 151.468C152.666 151.645 153.053 151.93 153.343 152.322C153.641 152.705 153.791 153.209 153.791 153.834V159H152.545V153.96C152.545 153.335 152.353 152.891 151.971 152.63C151.588 152.359 151.121 152.224 150.571 152.224C149.992 152.224 149.535 152.345 149.199 152.588C148.863 152.821 148.695 153.12 148.695 153.484L150.291 154.24L150.179 154.912C149.833 154.912 149.553 155.024 149.339 155.248C149.124 155.472 149.017 155.831 149.017 156.326V157.684C149.017 158.253 148.891 158.641 148.639 158.846C148.387 159.042 148.079 159.14 147.715 159.14ZM158.012 159V153.554C158.012 153.097 157.905 152.761 157.69 152.546C157.485 152.331 157.135 152.224 156.64 152.224C156.304 152.224 155.987 152.271 155.688 152.364C155.399 152.448 155.119 152.569 154.848 152.728V151.608C155.035 151.515 155.301 151.421 155.646 151.328C155.991 151.235 156.402 151.188 156.878 151.188C157.606 151.188 158.185 151.351 158.614 151.678C159.043 152.005 159.258 152.569 159.258 153.372V159H158.012ZM164.512 159.14C163.354 159.14 162.533 158.883 162.048 158.37C161.562 157.847 161.32 157.11 161.32 156.158V151.328H162.566V156.172C162.566 156.825 162.72 157.311 163.028 157.628C163.336 157.945 163.83 158.104 164.512 158.104C165.193 158.104 165.688 157.945 165.996 157.628C166.304 157.311 166.458 156.825 166.458 156.172V155.836H165.366C164.768 155.836 164.358 155.71 164.134 155.458C163.919 155.206 163.812 154.926 163.812 154.618C163.812 154.478 163.83 154.333 163.868 154.184C163.905 154.035 163.956 153.909 164.022 153.806L165.03 153.988C164.974 154.1 164.946 154.235 164.946 154.394C164.946 154.515 164.978 154.627 165.044 154.73C165.118 154.833 165.244 154.884 165.422 154.884H166.458V151.328H167.704V154.884H168.6V155.836H167.704V156.158C167.704 157.11 167.461 157.847 166.976 158.37C166.49 158.883 165.669 159.14 164.512 159.14ZM161.543 150.11V149.564L162.565 149.116H166.331V147.982H167.507V149.564H167.493V150.11H161.543ZM171.591 159.14C171.339 159.14 171.096 159.098 170.863 159.014C170.629 158.93 170.438 158.781 170.289 158.566C170.139 158.351 170.065 158.053 170.065 157.67V151.328H171.311V157.516C171.311 157.731 171.357 157.885 171.451 157.978C171.544 158.071 171.693 158.118 171.899 158.118C171.983 158.118 172.071 158.109 172.165 158.09C172.258 158.071 172.347 158.048 172.431 158.02L172.599 158.93C172.421 159.014 172.249 159.07 172.081 159.098C171.913 159.126 171.749 159.14 171.591 159.14ZM175.413 159.14C175.161 159.14 174.918 159.098 174.685 159.014C174.451 158.93 174.26 158.781 174.111 158.566C173.961 158.351 173.887 158.053 173.887 157.67V151.328H175.133V157.516C175.133 157.731 175.179 157.885 175.273 157.978C175.366 158.071 175.515 158.118 175.721 158.118C175.805 158.118 175.893 158.109 175.987 158.09C176.08 158.071 176.169 158.048 176.253 158.02L176.421 158.93C176.243 159.014 176.071 159.07 175.903 159.098C175.735 159.126 175.571 159.14 175.413 159.14ZM180.531 159.14C179.43 159.14 178.641 158.888 178.165 158.384C177.689 157.88 177.451 157.161 177.451 156.228V151.328H178.697V156.242C178.697 157.483 179.309 158.104 180.531 158.104C181.166 158.104 181.633 157.95 181.931 157.642C182.239 157.334 182.393 156.867 182.393 156.242V151.328H183.639V156.228C183.639 157.161 183.397 157.88 182.911 158.384C182.435 158.888 181.642 159.14 180.531 159.14ZM188.771 159.14C187.669 159.14 186.881 158.888 186.405 158.384C185.929 157.88 185.691 157.161 185.691 156.228V151.328H186.937V156.242C186.937 157.483 187.548 158.104 188.771 158.104C189.405 158.104 189.872 157.95 190.171 157.642C190.479 157.334 190.633 156.867 190.633 156.242V151.328H191.879V156.228C191.879 157.161 191.636 157.88 191.151 158.384C190.675 158.888 189.881 159.14 188.771 159.14ZM196.632 159.14C195.754 159.14 195.073 158.93 194.588 158.51C194.112 158.081 193.874 157.441 193.874 156.592V155.738C193.874 155.271 193.939 154.903 194.07 154.632C194.2 154.361 194.34 154.128 194.49 153.932C194.648 153.717 194.784 153.531 194.896 153.372C195.017 153.213 195.078 153.022 195.078 152.798C195.078 152.602 195.026 152.462 194.924 152.378C194.83 152.294 194.709 152.252 194.56 152.252C194.448 152.252 194.326 152.271 194.196 152.308C194.074 152.345 193.953 152.392 193.832 152.448L193.552 151.552C193.72 151.44 193.925 151.361 194.168 151.314C194.42 151.267 194.639 151.244 194.826 151.244C195.348 151.244 195.717 151.379 195.932 151.65C196.146 151.911 196.254 152.247 196.254 152.658C196.254 153.003 196.193 153.288 196.072 153.512C195.96 153.736 195.824 153.955 195.666 154.17C195.507 154.403 195.376 154.627 195.274 154.842C195.171 155.057 195.12 155.337 195.12 155.682V156.508C195.12 156.937 195.19 157.269 195.33 157.502C195.47 157.735 195.656 157.899 195.89 157.992C196.123 158.076 196.37 158.118 196.632 158.118C197.593 158.118 198.074 157.67 198.074 156.774V151.328H199.32V156.844C199.32 157.563 199.091 158.127 198.634 158.538C198.186 158.939 197.518 159.14 196.632 159.14ZM197.314 150.11C196.726 150.11 196.31 149.993 196.068 149.76C195.825 149.517 195.704 149.247 195.704 148.948C195.704 148.808 195.727 148.659 195.774 148.5C195.811 148.332 195.862 148.197 195.928 148.094L196.978 148.276C196.922 148.388 196.894 148.533 196.894 148.71C196.894 148.831 196.931 148.939 197.006 149.032C197.08 149.116 197.206 149.158 197.384 149.158H200.926V150.11H197.314ZM196.94 146.156V145.666C197.126 145.619 197.327 145.545 197.542 145.442C197.747 145.339 197.85 145.185 197.85 144.98C197.85 144.765 197.742 144.658 197.528 144.658C197.378 144.658 197.224 144.705 197.066 144.798L196.814 144.154C196.982 144.042 197.173 143.967 197.388 143.93C197.593 143.893 197.756 143.874 197.878 143.874C198.12 143.874 198.34 143.939 198.536 144.07C198.732 144.191 198.83 144.401 198.83 144.7C198.83 144.775 198.82 144.859 198.802 144.952C198.783 145.045 198.75 145.134 198.704 145.218H200.468V146.156H196.94ZM203.602 159.14C202.781 159.14 202.132 158.925 201.656 158.496C201.189 158.067 200.956 157.385 200.956 156.452V151.328H202.202V156.382C202.202 157.521 202.757 158.09 203.868 158.09C204.521 158.09 205.025 157.88 205.38 157.46C205.744 157.04 205.926 156.475 205.926 155.766V151.328H207.172V159H206.136L206.08 157.866H206.01C205.842 158.239 205.548 158.547 205.128 158.79C204.717 159.023 204.209 159.14 203.602 159.14ZM212.412 159.14C211.311 159.14 210.522 158.888 210.046 158.384C209.57 157.88 209.332 157.161 209.332 156.228V151.328H210.578V156.242C210.578 157.483 211.189 158.104 212.412 158.104C213.047 158.104 213.513 157.95 213.812 157.642C214.12 157.334 214.274 156.867 214.274 156.242V151.328H215.52V156.228C215.52 157.161 215.277 157.88 214.792 158.384C214.316 158.888 213.523 159.14 212.412 159.14ZM213.523 150.11C212.935 150.11 212.519 149.993 212.277 149.76C212.034 149.517 211.913 149.247 211.913 148.948C211.913 148.808 211.936 148.659 211.983 148.5C212.02 148.332 212.071 148.197 212.137 148.094L213.187 148.276C213.131 148.388 213.103 148.533 213.103 148.71C213.103 148.831 213.14 148.939 213.215 149.032C213.289 149.116 213.415 149.158 213.593 149.158H217.135V150.11H213.523ZM220.007 159.14C219.186 159.14 218.537 158.925 218.061 158.496C217.595 158.067 217.361 157.385 217.361 156.452V151.328H218.607V156.382C218.607 157.521 219.163 158.09 220.273 158.09C220.927 158.09 221.431 157.88 221.785 157.46C222.149 157.04 222.331 156.475 222.331 155.766V151.328H223.577V159H222.541L222.485 157.866H222.415C222.247 158.239 221.953 158.547 221.533 158.79C221.123 159.023 220.614 159.14 220.007 159.14ZM227.347 159.14C227.086 159.14 226.838 159.098 226.605 159.014C226.372 158.93 226.18 158.781 226.031 158.566C225.882 158.351 225.807 158.053 225.807 157.67V152.196C225.807 151.935 225.83 151.725 225.877 151.566C225.924 151.398 225.998 151.235 226.101 151.076C226.213 150.917 226.367 150.717 226.563 150.474C226.796 150.185 226.969 149.947 227.081 149.76C227.193 149.573 227.249 149.368 227.249 149.144C227.249 148.603 226.918 148.332 226.255 148.332C225.966 148.332 225.7 148.374 225.457 148.458C225.224 148.542 225.028 148.626 224.869 148.71V147.646C225 147.571 225.196 147.501 225.457 147.436C225.728 147.361 226.045 147.324 226.409 147.324C227.025 147.324 227.52 147.464 227.893 147.744C228.276 148.015 228.467 148.435 228.467 149.004C228.467 149.377 228.397 149.704 228.257 149.984C228.117 150.264 227.954 150.516 227.767 150.74C227.608 150.945 227.473 151.118 227.361 151.258C227.258 151.389 227.179 151.524 227.123 151.664C227.076 151.804 227.053 151.991 227.053 152.224V157.516C227.053 157.731 227.1 157.885 227.193 157.978C227.286 158.071 227.431 158.118 227.627 158.118C227.73 158.118 227.828 158.109 227.921 158.09C228.014 158.071 228.098 158.048 228.173 158.02L228.341 158.93C228.164 159.014 227.991 159.07 227.823 159.098C227.664 159.126 227.506 159.14 227.347 159.14ZM232.055 159.14C231.309 159.14 230.721 158.967 230.291 158.622C229.871 158.267 229.573 157.791 229.395 157.194C229.227 156.597 229.143 155.939 229.143 155.22C229.143 154.165 229.288 153.349 229.577 152.77C229.867 152.182 230.268 151.771 230.781 151.538C231.304 151.305 231.906 151.188 232.587 151.188C233.707 151.188 234.519 151.431 235.023 151.916C235.537 152.401 235.793 153.059 235.793 153.89V159H234.561V154.002C234.561 153.423 234.417 152.985 234.127 152.686C233.838 152.378 233.339 152.224 232.629 152.224C232.2 152.224 231.813 152.303 231.467 152.462C231.131 152.621 230.865 152.915 230.669 153.344C230.483 153.773 230.389 154.403 230.389 155.234C230.389 155.775 230.441 156.265 230.543 156.704C230.655 157.133 230.847 157.474 231.117 157.726C231.388 157.978 231.766 158.104 232.251 158.104C232.391 158.104 232.522 158.095 232.643 158.076C232.765 158.057 232.881 158.029 232.993 157.992L233.119 158.958C232.97 159.023 232.797 159.07 232.601 159.098C232.415 159.126 232.233 159.14 232.055 159.14Z" fill="#49474A"/>
</svg>
