<svg width="334" height="162" viewBox="0 0 334 162" fill="none" xmlns="http://www.w3.org/2000/svg">
<rect y="105" width="40" height="15" fill="#175E7A"/>
<rect x="42" y="90" width="40" height="30" fill="#175E7A"/>
<rect x="84" y="75" width="40" height="45" fill="#175E7A"/>
<rect x="126" y="60" width="40" height="60" fill="#175E7A"/>
<rect x="168" y="45" width="40" height="75" fill="#175E7A"/>
<rect x="210" y="30" width="40" height="90" fill="#175E7A"/>
<rect x="252" y="15" width="40" height="105" fill="#57A3B3"/>
<rect x="294" width="40" height="120" fill="#F4F9FA"/>
<path d="M15.682 135.21C14.842 135.21 14.114 135.005 13.498 134.594C12.8914 134.183 12.4247 133.595 12.098 132.83C11.7714 132.065 11.608 131.159 11.608 130.114C11.608 129.069 11.7667 128.163 12.084 127.398C12.4107 126.623 12.8774 126.031 13.484 125.62C14.1 125.209 14.8327 125.004 15.682 125.004C16.5314 125.004 17.2594 125.209 17.866 125.62C18.482 126.031 18.9487 126.623 19.266 127.398C19.5927 128.163 19.756 129.069 19.756 130.114C19.756 131.159 19.5927 132.065 19.266 132.83C18.9394 133.595 18.468 134.183 17.852 134.594C17.2454 135.005 16.522 135.21 15.682 135.21ZM15.682 133.95C16.5127 133.95 17.1614 133.609 17.628 132.928C18.104 132.237 18.342 131.304 18.342 130.128C18.342 128.952 18.1087 128.019 17.642 127.328C17.1754 126.637 16.522 126.292 15.682 126.292C14.842 126.292 14.1887 126.637 13.722 127.328C13.2554 128.019 13.022 128.952 13.022 130.128C13.022 131.304 13.2554 132.237 13.722 132.928C14.198 133.609 14.8514 133.95 15.682 133.95ZM22.4843 131.53C22.151 131.53 21.8443 131.45 21.5643 131.29C21.2843 131.123 21.061 130.9 20.8943 130.62C20.7343 130.34 20.6543 130.033 20.6543 129.7C20.6543 129.367 20.7343 129.06 20.8943 128.78C21.061 128.493 21.2843 128.27 21.5643 128.11C21.8443 127.943 22.151 127.86 22.4843 127.86C22.8176 127.86 23.1243 127.943 23.4043 128.11C23.691 128.27 23.9143 128.493 24.0743 128.78C24.241 129.06 24.3243 129.367 24.3243 129.7C24.3243 130.033 24.241 130.34 24.0743 130.62C23.9143 130.9 23.691 131.123 23.4043 131.29C23.1243 131.45 22.8176 131.53 22.4843 131.53ZM26.0543 128.01H27.0443L23.1743 135H22.1843L26.0543 128.01ZM22.4843 130.79C22.791 130.79 23.0443 130.687 23.2443 130.48C23.451 130.273 23.5543 130.02 23.5543 129.72C23.5543 129.413 23.451 129.157 23.2443 128.95C23.0443 128.743 22.791 128.64 22.4843 128.64C22.1776 128.64 21.921 128.743 21.7143 128.95C21.5143 129.157 21.4143 129.413 21.4143 129.72C21.4143 130.02 21.5143 130.273 21.7143 130.48C21.921 130.687 22.1776 130.79 22.4843 130.79ZM26.7343 135.15C26.401 135.15 26.0943 135.07 25.8143 134.91C25.5343 134.743 25.311 134.52 25.1443 134.24C24.9843 133.96 24.9043 133.653 24.9043 133.32C24.9043 132.987 24.9843 132.68 25.1443 132.4C25.311 132.113 25.5343 131.89 25.8143 131.73C26.0943 131.563 26.401 131.48 26.7343 131.48C27.0676 131.48 27.3743 131.563 27.6543 131.73C27.941 131.89 28.1643 132.113 28.3243 132.4C28.491 132.68 28.5743 132.987 28.5743 133.32C28.5743 133.653 28.491 133.96 28.3243 134.24C28.1643 134.52 27.941 134.743 27.6543 134.91C27.3743 135.07 27.0676 135.15 26.7343 135.15ZM26.7243 134.41C27.031 134.41 27.2876 134.307 27.4943 134.1C27.701 133.893 27.8043 133.64 27.8043 133.34C27.8043 133.033 27.701 132.777 27.4943 132.57C27.2876 132.363 27.031 132.26 26.7243 132.26C26.4243 132.26 26.171 132.363 25.9643 132.57C25.7576 132.777 25.6543 133.033 25.6543 133.34C25.6543 133.64 25.7576 133.893 25.9643 134.1C26.171 134.307 26.4243 134.41 26.7243 134.41Z" fill="#BDBDBD"/>
<path d="M57.049 135.21C56.5357 135.21 56.0363 135.154 55.551 135.042C55.0657 134.939 54.655 134.795 54.319 134.608V133.334C54.7017 133.567 55.1357 133.749 55.621 133.88C56.1063 134.001 56.5683 134.062 57.007 134.062C57.8563 134.062 58.5003 133.885 58.939 133.53C59.3777 133.166 59.597 132.634 59.597 131.934C59.597 131.271 59.3917 130.767 58.981 130.422C58.5797 130.067 57.9777 129.89 57.175 129.89C56.839 129.89 56.4843 129.923 56.111 129.988C55.747 130.053 55.4203 130.142 55.131 130.254L54.501 129.89L54.865 125.214H60.339V126.418H56.167L55.957 128.938C56.5357 128.817 57.1237 128.756 57.721 128.756C58.757 128.756 59.569 129.045 60.157 129.624C60.745 130.203 61.039 130.973 61.039 131.934C61.039 132.989 60.7077 133.801 60.045 134.37C59.3823 134.93 58.3837 135.21 57.049 135.21ZM63.7734 131.53C63.44 131.53 63.1334 131.45 62.8534 131.29C62.5734 131.123 62.35 130.9 62.1834 130.62C62.0234 130.34 61.9434 130.033 61.9434 129.7C61.9434 129.367 62.0234 129.06 62.1834 128.78C62.35 128.493 62.5734 128.27 62.8534 128.11C63.1334 127.943 63.44 127.86 63.7734 127.86C64.1067 127.86 64.4134 127.943 64.6934 128.11C64.98 128.27 65.2034 128.493 65.3634 128.78C65.53 129.06 65.6134 129.367 65.6134 129.7C65.6134 130.033 65.53 130.34 65.3634 130.62C65.2034 130.9 64.98 131.123 64.6934 131.29C64.4134 131.45 64.1067 131.53 63.7734 131.53ZM67.3434 128.01H68.3334L64.4634 135H63.4734L67.3434 128.01ZM63.7734 130.79C64.08 130.79 64.3334 130.687 64.5334 130.48C64.74 130.273 64.8434 130.02 64.8434 129.72C64.8434 129.413 64.74 129.157 64.5334 128.95C64.3334 128.743 64.08 128.64 63.7734 128.64C63.4667 128.64 63.21 128.743 63.0034 128.95C62.8034 129.157 62.7034 129.413 62.7034 129.72C62.7034 130.02 62.8034 130.273 63.0034 130.48C63.21 130.687 63.4667 130.79 63.7734 130.79ZM68.0234 135.15C67.69 135.15 67.3834 135.07 67.1034 134.91C66.8234 134.743 66.6 134.52 66.4334 134.24C66.2734 133.96 66.1934 133.653 66.1934 133.32C66.1934 132.987 66.2734 132.68 66.4334 132.4C66.6 132.113 66.8234 131.89 67.1034 131.73C67.3834 131.563 67.69 131.48 68.0234 131.48C68.3567 131.48 68.6634 131.563 68.9434 131.73C69.23 131.89 69.4534 132.113 69.6134 132.4C69.78 132.68 69.8634 132.987 69.8634 133.32C69.8634 133.653 69.78 133.96 69.6134 134.24C69.4534 134.52 69.23 134.743 68.9434 134.91C68.6634 135.07 68.3567 135.15 68.0234 135.15ZM68.0134 134.41C68.32 134.41 68.5767 134.307 68.7834 134.1C68.99 133.893 69.0934 133.64 69.0934 133.34C69.0934 133.033 68.99 132.777 68.7834 132.57C68.5767 132.363 68.32 132.26 68.0134 132.26C67.7134 132.26 67.46 132.363 67.2534 132.57C67.0467 132.777 66.9434 133.033 66.9434 133.34C66.9434 133.64 67.0467 133.893 67.2534 134.1C67.46 134.307 67.7134 134.41 68.0134 134.41Z" fill="#BDBDBD"/>
<path d="M95.2841 126.754L93.1701 128.28V126.922L95.4801 125.214H96.7121V135H95.2841V126.754ZM102.12 135.21C101.28 135.21 100.552 135.005 99.936 134.594C99.3293 134.183 98.8627 133.595 98.536 132.83C98.2093 132.065 98.046 131.159 98.046 130.114C98.046 129.069 98.2047 128.163 98.522 127.398C98.8487 126.623 99.3153 126.031 99.922 125.62C100.538 125.209 101.271 125.004 102.12 125.004C102.969 125.004 103.697 125.209 104.304 125.62C104.92 126.031 105.387 126.623 105.704 127.398C106.031 128.163 106.194 129.069 106.194 130.114C106.194 131.159 106.031 132.065 105.704 132.83C105.377 133.595 104.906 134.183 104.29 134.594C103.683 135.005 102.96 135.21 102.12 135.21ZM102.12 133.95C102.951 133.95 103.599 133.609 104.066 132.928C104.542 132.237 104.78 131.304 104.78 130.128C104.78 128.952 104.547 128.019 104.08 127.328C103.613 126.637 102.96 126.292 102.12 126.292C101.28 126.292 100.627 126.637 100.16 127.328C99.6933 128.019 99.46 128.952 99.46 130.128C99.46 131.304 99.6933 132.237 100.16 132.928C100.636 133.609 101.289 133.95 102.12 133.95ZM108.922 131.53C108.589 131.53 108.282 131.45 108.002 131.29C107.722 131.123 107.499 130.9 107.332 130.62C107.172 130.34 107.092 130.033 107.092 129.7C107.092 129.367 107.172 129.06 107.332 128.78C107.499 128.493 107.722 128.27 108.002 128.11C108.282 127.943 108.589 127.86 108.922 127.86C109.256 127.86 109.562 127.943 109.842 128.11C110.129 128.27 110.352 128.493 110.512 128.78C110.679 129.06 110.762 129.367 110.762 129.7C110.762 130.033 110.679 130.34 110.512 130.62C110.352 130.9 110.129 131.123 109.842 131.29C109.562 131.45 109.256 131.53 108.922 131.53ZM112.492 128.01H113.482L109.612 135H108.622L112.492 128.01ZM108.922 130.79C109.229 130.79 109.482 130.687 109.682 130.48C109.889 130.273 109.992 130.02 109.992 129.72C109.992 129.413 109.889 129.157 109.682 128.95C109.482 128.743 109.229 128.64 108.922 128.64C108.616 128.64 108.359 128.743 108.152 128.95C107.952 129.157 107.852 129.413 107.852 129.72C107.852 130.02 107.952 130.273 108.152 130.48C108.359 130.687 108.616 130.79 108.922 130.79ZM113.172 135.15C112.839 135.15 112.532 135.07 112.252 134.91C111.972 134.743 111.749 134.52 111.582 134.24C111.422 133.96 111.342 133.653 111.342 133.32C111.342 132.987 111.422 132.68 111.582 132.4C111.749 132.113 111.972 131.89 112.252 131.73C112.532 131.563 112.839 131.48 113.172 131.48C113.506 131.48 113.812 131.563 114.092 131.73C114.379 131.89 114.602 132.113 114.762 132.4C114.929 132.68 115.012 132.987 115.012 133.32C115.012 133.653 114.929 133.96 114.762 134.24C114.602 134.52 114.379 134.743 114.092 134.91C113.812 135.07 113.506 135.15 113.172 135.15ZM113.162 134.41C113.469 134.41 113.726 134.307 113.932 134.1C114.139 133.893 114.242 133.64 114.242 133.34C114.242 133.033 114.139 132.777 113.932 132.57C113.726 132.363 113.469 132.26 113.162 132.26C112.862 132.26 112.609 132.363 112.402 132.57C112.196 132.777 112.092 133.033 112.092 133.34C112.092 133.64 112.196 133.893 112.402 134.1C112.609 134.307 112.862 134.41 113.162 134.41Z" fill="#BDBDBD"/>
<path d="M137.995 126.754L135.881 128.28V126.922L138.191 125.214H139.423V135H137.995V126.754ZM143.487 135.21C142.974 135.21 142.474 135.154 141.989 135.042C141.504 134.939 141.093 134.795 140.757 134.608V133.334C141.14 133.567 141.574 133.749 142.059 133.88C142.544 134.001 143.006 134.062 143.445 134.062C144.294 134.062 144.938 133.885 145.377 133.53C145.816 133.166 146.035 132.634 146.035 131.934C146.035 131.271 145.83 130.767 145.419 130.422C145.018 130.067 144.416 129.89 143.613 129.89C143.277 129.89 142.922 129.923 142.549 129.988C142.185 130.053 141.858 130.142 141.569 130.254L140.939 129.89L141.303 125.214H146.777V126.418H142.605L142.395 128.938C142.974 128.817 143.562 128.756 144.159 128.756C145.195 128.756 146.007 129.045 146.595 129.624C147.183 130.203 147.477 130.973 147.477 131.934C147.477 132.989 147.146 133.801 146.483 134.37C145.82 134.93 144.822 135.21 143.487 135.21ZM150.211 131.53C149.878 131.53 149.571 131.45 149.291 131.29C149.011 131.123 148.788 130.9 148.621 130.62C148.461 130.34 148.381 130.033 148.381 129.7C148.381 129.367 148.461 129.06 148.621 128.78C148.788 128.493 149.011 128.27 149.291 128.11C149.571 127.943 149.878 127.86 150.211 127.86C150.545 127.86 150.851 127.943 151.131 128.11C151.418 128.27 151.641 128.493 151.801 128.78C151.968 129.06 152.051 129.367 152.051 129.7C152.051 130.033 151.968 130.34 151.801 130.62C151.641 130.9 151.418 131.123 151.131 131.29C150.851 131.45 150.545 131.53 150.211 131.53ZM153.781 128.01H154.771L150.901 135H149.911L153.781 128.01ZM150.211 130.79C150.518 130.79 150.771 130.687 150.971 130.48C151.178 130.273 151.281 130.02 151.281 129.72C151.281 129.413 151.178 129.157 150.971 128.95C150.771 128.743 150.518 128.64 150.211 128.64C149.905 128.64 149.648 128.743 149.441 128.95C149.241 129.157 149.141 129.413 149.141 129.72C149.141 130.02 149.241 130.273 149.441 130.48C149.648 130.687 149.905 130.79 150.211 130.79ZM154.461 135.15C154.128 135.15 153.821 135.07 153.541 134.91C153.261 134.743 153.038 134.52 152.871 134.24C152.711 133.96 152.631 133.653 152.631 133.32C152.631 132.987 152.711 132.68 152.871 132.4C153.038 132.113 153.261 131.89 153.541 131.73C153.821 131.563 154.128 131.48 154.461 131.48C154.795 131.48 155.101 131.563 155.381 131.73C155.668 131.89 155.891 132.113 156.051 132.4C156.218 132.68 156.301 132.987 156.301 133.32C156.301 133.653 156.218 133.96 156.051 134.24C155.891 134.52 155.668 134.743 155.381 134.91C155.101 135.07 154.795 135.15 154.461 135.15ZM154.451 134.41C154.758 134.41 155.015 134.307 155.221 134.1C155.428 133.893 155.531 133.64 155.531 133.34C155.531 133.033 155.428 132.777 155.221 132.57C155.015 132.363 154.758 132.26 154.451 132.26C154.151 132.26 153.898 132.363 153.691 132.57C153.485 132.777 153.381 133.033 153.381 133.34C153.381 133.64 153.485 133.893 153.691 134.1C153.898 134.307 154.151 134.41 154.451 134.41Z" fill="#BDBDBD"/>
<path d="M175.646 134.062L177.76 132.032C177.946 131.845 178.208 131.603 178.544 131.304C179.076 130.819 179.482 130.427 179.762 130.128C180.042 129.829 180.27 129.512 180.448 129.176C180.625 128.831 180.714 128.462 180.714 128.07C180.714 127.491 180.546 127.053 180.21 126.754C179.874 126.446 179.384 126.292 178.74 126.292C178.301 126.292 177.848 126.371 177.382 126.53C176.924 126.689 176.495 126.922 176.094 127.23V125.858C176.878 125.289 177.834 125.004 178.964 125.004C179.972 125.004 180.756 125.275 181.316 125.816C181.876 126.348 182.156 127.076 182.156 128C182.156 128.448 182.058 128.877 181.862 129.288C181.675 129.699 181.409 130.105 181.064 130.506C180.718 130.898 180.252 131.379 179.664 131.948L177.76 133.81H182.52V135H175.646V134.062ZM187.644 135.21C186.804 135.21 186.076 135.005 185.46 134.594C184.854 134.183 184.387 133.595 184.06 132.83C183.734 132.065 183.57 131.159 183.57 130.114C183.57 129.069 183.729 128.163 184.046 127.398C184.373 126.623 184.84 126.031 185.446 125.62C186.062 125.209 186.795 125.004 187.644 125.004C188.494 125.004 189.222 125.209 189.828 125.62C190.444 126.031 190.911 126.623 191.228 127.398C191.555 128.163 191.718 129.069 191.718 130.114C191.718 131.159 191.555 132.065 191.228 132.83C190.902 133.595 190.43 134.183 189.814 134.594C189.208 135.005 188.484 135.21 187.644 135.21ZM187.644 133.95C188.475 133.95 189.124 133.609 189.59 132.928C190.066 132.237 190.304 131.304 190.304 130.128C190.304 128.952 190.071 128.019 189.604 127.328C189.138 126.637 188.484 126.292 187.644 126.292C186.804 126.292 186.151 126.637 185.684 127.328C185.218 128.019 184.984 128.952 184.984 130.128C184.984 131.304 185.218 132.237 185.684 132.928C186.16 133.609 186.814 133.95 187.644 133.95ZM194.447 131.53C194.113 131.53 193.807 131.45 193.527 131.29C193.247 131.123 193.023 130.9 192.857 130.62C192.697 130.34 192.617 130.033 192.617 129.7C192.617 129.367 192.697 129.06 192.857 128.78C193.023 128.493 193.247 128.27 193.527 128.11C193.807 127.943 194.113 127.86 194.447 127.86C194.78 127.86 195.087 127.943 195.367 128.11C195.653 128.27 195.877 128.493 196.037 128.78C196.203 129.06 196.287 129.367 196.287 129.7C196.287 130.033 196.203 130.34 196.037 130.62C195.877 130.9 195.653 131.123 195.367 131.29C195.087 131.45 194.78 131.53 194.447 131.53ZM198.017 128.01H199.007L195.137 135H194.147L198.017 128.01ZM194.447 130.79C194.753 130.79 195.007 130.687 195.207 130.48C195.413 130.273 195.517 130.02 195.517 129.72C195.517 129.413 195.413 129.157 195.207 128.95C195.007 128.743 194.753 128.64 194.447 128.64C194.14 128.64 193.883 128.743 193.677 128.95C193.477 129.157 193.377 129.413 193.377 129.72C193.377 130.02 193.477 130.273 193.677 130.48C193.883 130.687 194.14 130.79 194.447 130.79ZM198.697 135.15C198.363 135.15 198.057 135.07 197.777 134.91C197.497 134.743 197.273 134.52 197.107 134.24C196.947 133.96 196.867 133.653 196.867 133.32C196.867 132.987 196.947 132.68 197.107 132.4C197.273 132.113 197.497 131.89 197.777 131.73C198.057 131.563 198.363 131.48 198.697 131.48C199.03 131.48 199.337 131.563 199.617 131.73C199.903 131.89 200.127 132.113 200.287 132.4C200.453 132.68 200.537 132.987 200.537 133.32C200.537 133.653 200.453 133.96 200.287 134.24C200.127 134.52 199.903 134.743 199.617 134.91C199.337 135.07 199.03 135.15 198.697 135.15ZM198.687 134.41C198.993 134.41 199.25 134.307 199.457 134.1C199.663 133.893 199.767 133.64 199.767 133.34C199.767 133.033 199.663 132.777 199.457 132.57C199.25 132.363 198.993 132.26 198.687 132.26C198.387 132.26 198.133 132.363 197.927 132.57C197.72 132.777 197.617 133.033 197.617 133.34C197.617 133.64 197.72 133.893 197.927 134.1C198.133 134.307 198.387 134.41 198.687 134.41Z" fill="#BDBDBD"/>
<path d="M218.357 134.062L220.471 132.032C220.657 131.845 220.919 131.603 221.255 131.304C221.787 130.819 222.193 130.427 222.473 130.128C222.753 129.829 222.981 129.512 223.159 129.176C223.336 128.831 223.425 128.462 223.425 128.07C223.425 127.491 223.257 127.053 222.921 126.754C222.585 126.446 222.095 126.292 221.451 126.292C221.012 126.292 220.559 126.371 220.093 126.53C219.635 126.689 219.206 126.922 218.805 127.23V125.858C219.589 125.289 220.545 125.004 221.675 125.004C222.683 125.004 223.467 125.275 224.027 125.816C224.587 126.348 224.867 127.076 224.867 128C224.867 128.448 224.769 128.877 224.573 129.288C224.386 129.699 224.12 130.105 223.775 130.506C223.429 130.898 222.963 131.379 222.375 131.948L220.471 133.81H225.231V135H218.357V134.062ZM229.011 135.21C228.498 135.21 227.999 135.154 227.513 135.042C227.028 134.939 226.617 134.795 226.281 134.608V133.334C226.664 133.567 227.098 133.749 227.583 133.88C228.069 134.001 228.531 134.062 228.969 134.062C229.819 134.062 230.463 133.885 230.901 133.53C231.34 133.166 231.559 132.634 231.559 131.934C231.559 131.271 231.354 130.767 230.943 130.422C230.542 130.067 229.94 129.89 229.137 129.89C228.801 129.89 228.447 129.923 228.073 129.988C227.709 130.053 227.383 130.142 227.093 130.254L226.463 129.89L226.827 125.214H232.301V126.418H228.129L227.919 128.938C228.498 128.817 229.086 128.756 229.683 128.756C230.719 128.756 231.531 129.045 232.119 129.624C232.707 130.203 233.001 130.973 233.001 131.934C233.001 132.989 232.67 133.801 232.007 134.37C231.345 134.93 230.346 135.21 229.011 135.21ZM235.736 131.53C235.402 131.53 235.096 131.45 234.816 131.29C234.536 131.123 234.312 130.9 234.146 130.62C233.986 130.34 233.906 130.033 233.906 129.7C233.906 129.367 233.986 129.06 234.146 128.78C234.312 128.493 234.536 128.27 234.816 128.11C235.096 127.943 235.402 127.86 235.736 127.86C236.069 127.86 236.376 127.943 236.656 128.11C236.942 128.27 237.166 128.493 237.326 128.78C237.492 129.06 237.576 129.367 237.576 129.7C237.576 130.033 237.492 130.34 237.326 130.62C237.166 130.9 236.942 131.123 236.656 131.29C236.376 131.45 236.069 131.53 235.736 131.53ZM239.306 128.01H240.296L236.426 135H235.436L239.306 128.01ZM235.736 130.79C236.042 130.79 236.296 130.687 236.496 130.48C236.702 130.273 236.806 130.02 236.806 129.72C236.806 129.413 236.702 129.157 236.496 128.95C236.296 128.743 236.042 128.64 235.736 128.64C235.429 128.64 235.172 128.743 234.966 128.95C234.766 129.157 234.666 129.413 234.666 129.72C234.666 130.02 234.766 130.273 234.966 130.48C235.172 130.687 235.429 130.79 235.736 130.79ZM239.986 135.15C239.652 135.15 239.346 135.07 239.066 134.91C238.786 134.743 238.562 134.52 238.396 134.24C238.236 133.96 238.156 133.653 238.156 133.32C238.156 132.987 238.236 132.68 238.396 132.4C238.562 132.113 238.786 131.89 239.066 131.73C239.346 131.563 239.652 131.48 239.986 131.48C240.319 131.48 240.626 131.563 240.906 131.73C241.192 131.89 241.416 132.113 241.576 132.4C241.742 132.68 241.826 132.987 241.826 133.32C241.826 133.653 241.742 133.96 241.576 134.24C241.416 134.52 241.192 134.743 240.906 134.91C240.626 135.07 240.319 135.15 239.986 135.15ZM239.976 134.41C240.282 134.41 240.539 134.307 240.746 134.1C240.952 133.893 241.056 133.64 241.056 133.34C241.056 133.033 240.952 132.777 240.746 132.57C240.539 132.363 240.282 132.26 239.976 132.26C239.676 132.26 239.422 132.363 239.216 132.57C239.009 132.777 238.906 133.033 238.906 133.34C238.906 133.64 239.009 133.893 239.216 134.1C239.422 134.307 239.676 134.41 239.976 134.41Z" fill="#BDBDBD"/>
<path d="M262.676 135.21C262.106 135.21 261.56 135.163 261.038 135.07C260.524 134.986 260.076 134.855 259.694 134.678V133.502C260.562 133.894 261.495 134.09 262.494 134.09C263.352 134.09 263.987 133.936 264.398 133.628C264.818 133.311 265.028 132.863 265.028 132.284C265.028 131.687 264.813 131.262 264.384 131.01C263.954 130.749 263.301 130.618 262.424 130.618H261.276V129.47H262.396C263.096 129.47 263.66 129.33 264.09 129.05C264.519 128.761 264.734 128.341 264.734 127.79C264.734 127.249 264.556 126.838 264.202 126.558C263.847 126.278 263.334 126.138 262.662 126.138C262.139 126.138 261.668 126.199 261.248 126.32C260.828 126.441 260.394 126.642 259.946 126.922V125.746C260.767 125.251 261.728 125.004 262.83 125.004C263.922 125.004 264.752 125.247 265.322 125.732C265.891 126.217 266.176 126.889 266.176 127.748C266.176 128.271 266.036 128.728 265.756 129.12C265.476 129.512 265.056 129.815 264.496 130.03C265.13 130.179 265.616 130.45 265.952 130.842C266.297 131.234 266.47 131.729 266.47 132.326C266.47 133.213 266.166 133.917 265.56 134.44C264.953 134.953 263.992 135.21 262.676 135.21ZM271.597 135.21C270.757 135.21 270.029 135.005 269.413 134.594C268.806 134.183 268.339 133.595 268.013 132.83C267.686 132.065 267.523 131.159 267.523 130.114C267.523 129.069 267.681 128.163 267.999 127.398C268.325 126.623 268.792 126.031 269.399 125.62C270.015 125.209 270.747 125.004 271.597 125.004C272.446 125.004 273.174 125.209 273.781 125.62C274.397 126.031 274.863 126.623 275.181 127.398C275.507 128.163 275.671 129.069 275.671 130.114C275.671 131.159 275.507 132.065 275.181 132.83C274.854 133.595 274.383 134.183 273.767 134.594C273.16 135.005 272.437 135.21 271.597 135.21ZM271.597 133.95C272.427 133.95 273.076 133.609 273.543 132.928C274.019 132.237 274.257 131.304 274.257 130.128C274.257 128.952 274.023 128.019 273.557 127.328C273.09 126.637 272.437 126.292 271.597 126.292C270.757 126.292 270.103 126.637 269.637 127.328C269.17 128.019 268.937 128.952 268.937 130.128C268.937 131.304 269.17 132.237 269.637 132.928C270.113 133.609 270.766 133.95 271.597 133.95ZM278.399 131.53C278.065 131.53 277.759 131.45 277.479 131.29C277.199 131.123 276.975 130.9 276.809 130.62C276.649 130.34 276.569 130.033 276.569 129.7C276.569 129.367 276.649 129.06 276.809 128.78C276.975 128.493 277.199 128.27 277.479 128.11C277.759 127.943 278.065 127.86 278.399 127.86C278.732 127.86 279.039 127.943 279.319 128.11C279.605 128.27 279.829 128.493 279.989 128.78C280.155 129.06 280.239 129.367 280.239 129.7C280.239 130.033 280.155 130.34 279.989 130.62C279.829 130.9 279.605 131.123 279.319 131.29C279.039 131.45 278.732 131.53 278.399 131.53ZM281.969 128.01H282.959L279.089 135H278.099L281.969 128.01ZM278.399 130.79C278.705 130.79 278.959 130.687 279.159 130.48C279.365 130.273 279.469 130.02 279.469 129.72C279.469 129.413 279.365 129.157 279.159 128.95C278.959 128.743 278.705 128.64 278.399 128.64C278.092 128.64 277.835 128.743 277.629 128.95C277.429 129.157 277.329 129.413 277.329 129.72C277.329 130.02 277.429 130.273 277.629 130.48C277.835 130.687 278.092 130.79 278.399 130.79ZM282.649 135.15C282.315 135.15 282.009 135.07 281.729 134.91C281.449 134.743 281.225 134.52 281.059 134.24C280.899 133.96 280.819 133.653 280.819 133.32C280.819 132.987 280.899 132.68 281.059 132.4C281.225 132.113 281.449 131.89 281.729 131.73C282.009 131.563 282.315 131.48 282.649 131.48C282.982 131.48 283.289 131.563 283.569 131.73C283.855 131.89 284.079 132.113 284.239 132.4C284.405 132.68 284.489 132.987 284.489 133.32C284.489 133.653 284.405 133.96 284.239 134.24C284.079 134.52 283.855 134.743 283.569 134.91C283.289 135.07 282.982 135.15 282.649 135.15ZM282.639 134.41C282.945 134.41 283.202 134.307 283.409 134.1C283.615 133.893 283.719 133.64 283.719 133.34C283.719 133.033 283.615 132.777 283.409 132.57C283.202 132.363 282.945 132.26 282.639 132.26C282.339 132.26 282.085 132.363 281.879 132.57C281.672 132.777 281.569 133.033 281.569 133.34C281.569 133.64 281.672 133.893 281.879 134.1C282.085 134.307 282.339 134.41 282.639 134.41Z" fill="#57A3B3"/>
<path d="M305.386 135.21C304.817 135.21 304.271 135.163 303.748 135.07C303.235 134.986 302.787 134.855 302.404 134.678V133.502C303.272 133.894 304.206 134.09 305.204 134.09C306.063 134.09 306.698 133.936 307.108 133.628C307.528 133.311 307.738 132.863 307.738 132.284C307.738 131.687 307.524 131.262 307.094 131.01C306.665 130.749 306.012 130.618 305.134 130.618H303.986V129.47H305.106C305.806 129.47 306.371 129.33 306.8 129.05C307.23 128.761 307.444 128.341 307.444 127.79C307.444 127.249 307.267 126.838 306.912 126.558C306.558 126.278 306.044 126.138 305.372 126.138C304.85 126.138 304.378 126.199 303.958 126.32C303.538 126.441 303.104 126.642 302.656 126.922V125.746C303.478 125.251 304.439 125.004 305.54 125.004C306.632 125.004 307.463 125.247 308.032 125.732C308.602 126.217 308.886 126.889 308.886 127.748C308.886 128.271 308.746 128.728 308.466 129.12C308.186 129.512 307.766 129.815 307.206 130.03C307.841 130.179 308.326 130.45 308.662 130.842C309.008 131.234 309.18 131.729 309.18 132.326C309.18 133.213 308.877 133.917 308.27 134.44C307.664 134.953 306.702 135.21 305.386 135.21ZM312.964 135.21C312.45 135.21 311.951 135.154 311.466 135.042C310.98 134.939 310.57 134.795 310.234 134.608V133.334C310.616 133.567 311.05 133.749 311.536 133.88C312.021 134.001 312.483 134.062 312.922 134.062C313.771 134.062 314.415 133.885 314.854 133.53C315.292 133.166 315.512 132.634 315.512 131.934C315.512 131.271 315.306 130.767 314.896 130.422C314.494 130.067 313.892 129.89 313.09 129.89C312.754 129.89 312.399 129.923 312.026 129.988C311.662 130.053 311.335 130.142 311.046 130.254L310.416 129.89L310.78 125.214H316.254V126.418H312.082L311.872 128.938C312.45 128.817 313.038 128.756 313.636 128.756C314.672 128.756 315.484 129.045 316.072 129.624C316.66 130.203 316.954 130.973 316.954 131.934C316.954 132.989 316.622 133.801 315.96 134.37C315.297 134.93 314.298 135.21 312.964 135.21ZM319.688 131.53C319.355 131.53 319.048 131.45 318.768 131.29C318.488 131.123 318.265 130.9 318.098 130.62C317.938 130.34 317.858 130.033 317.858 129.7C317.858 129.367 317.938 129.06 318.098 128.78C318.265 128.493 318.488 128.27 318.768 128.11C319.048 127.943 319.355 127.86 319.688 127.86C320.021 127.86 320.328 127.943 320.608 128.11C320.895 128.27 321.118 128.493 321.278 128.78C321.445 129.06 321.528 129.367 321.528 129.7C321.528 130.033 321.445 130.34 321.278 130.62C321.118 130.9 320.895 131.123 320.608 131.29C320.328 131.45 320.021 131.53 319.688 131.53ZM323.258 128.01H324.248L320.378 135H319.388L323.258 128.01ZM319.688 130.79C319.995 130.79 320.248 130.687 320.448 130.48C320.655 130.273 320.758 130.02 320.758 129.72C320.758 129.413 320.655 129.157 320.448 128.95C320.248 128.743 319.995 128.64 319.688 128.64C319.381 128.64 319.125 128.743 318.918 128.95C318.718 129.157 318.618 129.413 318.618 129.72C318.618 130.02 318.718 130.273 318.918 130.48C319.125 130.687 319.381 130.79 319.688 130.79ZM323.938 135.15C323.605 135.15 323.298 135.07 323.018 134.91C322.738 134.743 322.515 134.52 322.348 134.24C322.188 133.96 322.108 133.653 322.108 133.32C322.108 132.987 322.188 132.68 322.348 132.4C322.515 132.113 322.738 131.89 323.018 131.73C323.298 131.563 323.605 131.48 323.938 131.48C324.271 131.48 324.578 131.563 324.858 131.73C325.145 131.89 325.368 132.113 325.528 132.4C325.695 132.68 325.778 132.987 325.778 133.32C325.778 133.653 325.695 133.96 325.528 134.24C325.368 134.52 325.145 134.743 324.858 134.91C324.578 135.07 324.271 135.15 323.938 135.15ZM323.928 134.41C324.235 134.41 324.491 134.307 324.698 134.1C324.905 133.893 325.008 133.64 325.008 133.34C325.008 133.033 324.905 132.777 324.698 132.57C324.491 132.363 324.235 132.26 323.928 132.26C323.628 132.26 323.375 132.363 323.168 132.57C322.961 132.777 322.858 133.033 322.858 133.34C322.858 133.64 322.961 133.893 323.168 134.1C323.375 134.307 323.628 134.41 323.928 134.41Z" fill="#BDBDBD"/>
<path d="M118.053 156.21C117.474 156.21 116.914 156.14 116.373 156C115.831 155.869 115.374 155.683 115.001 155.44V151.716H118.109V152.864H116.429V154.726C116.83 154.969 117.371 155.09 118.053 155.09C118.949 155.09 119.63 154.843 120.097 154.348C120.573 153.853 120.811 153.135 120.811 152.192C120.811 151.249 120.568 150.554 120.083 150.106C119.607 149.658 118.823 149.434 117.731 149.434C117.236 149.434 116.751 149.485 116.275 149.588C115.799 149.681 115.397 149.835 115.071 150.05V148.916C115.435 148.711 115.864 148.557 116.359 148.454C116.853 148.351 117.385 148.3 117.955 148.3C119.355 148.3 120.423 148.641 121.161 149.322C121.898 150.003 122.267 150.96 122.267 152.192C122.267 153.433 121.898 154.413 121.161 155.132C120.433 155.851 119.397 156.21 118.053 156.21ZM119.15 147.404C118.748 147.404 118.459 147.306 118.282 147.11C118.095 146.905 118.002 146.601 118.002 146.2V145.472H119.29V146.032C119.29 146.191 119.322 146.298 119.388 146.354C119.444 146.41 119.556 146.438 119.724 146.438H123.028V147.404H119.15ZM126.71 156.21C125.59 156.21 124.708 155.893 124.064 155.258C123.429 154.623 123.112 153.69 123.112 152.458C123.112 151.609 123.228 150.871 123.462 150.246C123.695 149.621 124.012 149.14 124.414 148.804C124.824 148.468 125.291 148.3 125.814 148.3C126.523 148.3 127.022 148.585 127.312 149.154C127.47 148.865 127.708 148.65 128.026 148.51C128.343 148.37 128.698 148.3 129.09 148.3C129.734 148.3 130.214 148.505 130.532 148.916C130.858 149.327 131.022 149.877 131.022 150.568V156H129.594V150.666C129.594 150.246 129.528 149.938 129.398 149.742C129.267 149.537 129.043 149.434 128.726 149.434C128.194 149.434 127.862 149.723 127.732 150.302H126.892C126.845 150.013 126.752 149.798 126.612 149.658C126.481 149.509 126.29 149.434 126.038 149.434C125.599 149.434 125.24 149.695 124.96 150.218C124.689 150.741 124.554 151.487 124.554 152.458C124.554 153.354 124.75 154.017 125.142 154.446C125.534 154.875 126.136 155.09 126.948 155.09C127.302 155.09 127.629 155.043 127.928 154.95V156.056C127.601 156.159 127.195 156.21 126.71 156.21ZM135.205 156.21C134.692 156.21 134.169 156.149 133.637 156.028C133.105 155.916 132.69 155.748 132.391 155.524V154.376C132.792 154.619 133.231 154.805 133.707 154.936C134.192 155.057 134.654 155.118 135.093 155.118C135.709 155.118 136.152 155.048 136.423 154.908C136.694 154.759 136.829 154.507 136.829 154.152C136.829 153.909 136.764 153.713 136.633 153.564C136.502 153.415 136.302 153.284 136.031 153.172C135.77 153.06 135.354 152.92 134.785 152.752C133.964 152.5 133.352 152.206 132.951 151.87C132.55 151.525 132.349 151.049 132.349 150.442C132.349 149.751 132.615 149.224 133.147 148.86C133.679 148.487 134.407 148.3 135.331 148.3C135.807 148.3 136.264 148.356 136.703 148.468C137.151 148.571 137.52 148.711 137.809 148.888V150.064C137.492 149.868 137.128 149.714 136.717 149.602C136.306 149.49 135.886 149.434 135.457 149.434C134.337 149.434 133.777 149.77 133.777 150.442C133.777 150.694 133.852 150.895 134.001 151.044C134.16 151.193 134.365 151.319 134.617 151.422C134.878 151.515 135.312 151.651 135.919 151.828C136.516 152.005 136.983 152.197 137.319 152.402C137.655 152.607 137.893 152.85 138.033 153.13C138.173 153.41 138.243 153.755 138.243 154.166C138.243 154.782 137.991 155.277 137.487 155.65C136.983 156.023 136.222 156.21 135.205 156.21ZM142.201 151.156C142.201 150.559 142.08 150.125 141.837 149.854C141.595 149.574 141.165 149.434 140.549 149.434C139.952 149.434 139.392 149.565 138.869 149.826V148.706C139.093 148.594 139.383 148.501 139.737 148.426C140.101 148.342 140.461 148.3 140.815 148.3C141.758 148.3 142.463 148.557 142.929 149.07C143.396 149.574 143.629 150.302 143.629 151.254V156H142.201V151.156ZM144.958 154.81H145.546C145.798 154.81 145.971 154.763 146.064 154.67C146.158 154.567 146.204 154.381 146.204 154.11V151.338L145.224 150.204C145.7 149.588 146.26 149.117 146.904 148.79C147.548 148.463 148.309 148.3 149.186 148.3C150.297 148.3 151.151 148.557 151.748 149.07C152.346 149.574 152.644 150.283 152.644 151.198V156H151.216V151.31C151.216 150.666 151.044 150.195 150.698 149.896C150.353 149.588 149.844 149.434 149.172 149.434C148.659 149.434 148.211 149.509 147.828 149.658C147.455 149.798 147.11 150.031 146.792 150.358L147.632 151.324V154.53C147.632 154.987 147.506 155.347 147.254 155.608C147.012 155.869 146.657 156 146.19 156H144.958V154.81ZM156.889 151.156C156.889 150.559 156.768 150.125 156.525 149.854C156.282 149.574 155.853 149.434 155.237 149.434C154.64 149.434 154.08 149.565 153.557 149.826V148.706C153.781 148.594 154.07 148.501 154.425 148.426C154.789 148.342 155.148 148.3 155.503 148.3C156.446 148.3 157.15 148.557 157.617 149.07C158.084 149.574 158.317 150.302 158.317 151.254V156H156.889V151.156ZM163.524 156.21C162.796 156.21 162.161 156.079 161.62 155.818C161.078 155.557 160.658 155.193 160.36 154.726C160.07 154.25 159.926 153.709 159.926 153.102V148.51H161.354V153.074C161.354 153.699 161.536 154.194 161.9 154.558C162.273 154.913 162.814 155.09 163.524 155.09C164.224 155.09 164.756 154.913 165.12 154.558C165.493 154.194 165.68 153.699 165.68 153.074V152.22H163.902V151.044H165.68V148.51H167.108V151.044H167.92V152.22H167.108V153.102C167.108 153.709 166.958 154.25 166.66 154.726C166.37 155.193 165.955 155.557 165.414 155.818C164.872 156.079 164.242 156.21 163.524 156.21ZM161.021 146.438H165.767V144.94H167.069V147.404H161.021V146.438ZM170.093 156C169.636 156 169.286 155.874 169.043 155.622C168.81 155.361 168.693 154.997 168.693 154.53V148.51H170.121V154.138C170.121 154.39 170.173 154.567 170.275 154.67C170.378 154.763 170.555 154.81 170.807 154.81H171.311V156H170.093ZM173.691 156C173.243 156 172.898 155.869 172.655 155.608C172.413 155.347 172.291 154.987 172.291 154.53V148.51H173.719V154.138C173.719 154.39 173.771 154.567 173.873 154.67C173.985 154.763 174.167 154.81 174.419 154.81H174.923V156H173.691ZM179.847 156.21C179.119 156.21 178.484 156.079 177.943 155.818C177.402 155.557 176.982 155.193 176.683 154.726C176.394 154.25 176.249 153.709 176.249 153.102V148.51H177.677V153.074C177.677 153.699 177.859 154.194 178.223 154.558C178.596 154.913 179.138 155.09 179.847 155.09C180.547 155.09 181.079 154.913 181.443 154.558C181.816 154.194 182.003 153.699 182.003 153.074V148.51H183.431V153.102C183.431 153.709 183.282 154.25 182.983 154.726C182.694 155.193 182.278 155.557 181.737 155.818C181.196 156.079 180.566 156.21 179.847 156.21ZM188.633 156.21C187.905 156.21 187.27 156.079 186.729 155.818C186.188 155.557 185.768 155.193 185.469 154.726C185.18 154.25 185.035 153.709 185.035 153.102V148.51H186.463V153.074C186.463 153.699 186.645 154.194 187.009 154.558C187.382 154.913 187.924 155.09 188.633 155.09C189.333 155.09 189.865 154.913 190.229 154.558C190.602 154.194 190.789 153.699 190.789 153.074V148.51H192.217V153.102C192.217 153.709 192.068 154.25 191.769 154.726C191.48 155.193 191.064 155.557 190.523 155.818C189.982 156.079 189.352 156.21 188.633 156.21ZM196.901 156.21C196.229 156.21 195.646 156.093 195.151 155.86C194.656 155.627 194.274 155.3 194.003 154.88C193.742 154.451 193.611 153.961 193.611 153.41V152.934C193.611 152.617 193.676 152.327 193.807 152.066C193.938 151.805 194.129 151.501 194.381 151.156C194.558 150.923 194.689 150.731 194.773 150.582C194.857 150.423 194.899 150.274 194.899 150.134C194.899 149.957 194.852 149.831 194.759 149.756C194.675 149.681 194.53 149.644 194.325 149.644H193.541V148.51H195.011C195.422 148.51 195.744 148.631 195.977 148.874C196.22 149.107 196.341 149.42 196.341 149.812C196.341 150.083 196.285 150.335 196.173 150.568C196.061 150.792 195.893 151.067 195.669 151.394C195.445 151.73 195.282 152.001 195.179 152.206C195.086 152.411 195.039 152.635 195.039 152.878V153.396C195.039 153.937 195.193 154.357 195.501 154.656C195.818 154.945 196.285 155.09 196.901 155.09C197.517 155.09 197.974 154.941 198.273 154.642C198.572 154.334 198.721 153.905 198.721 153.354V148.51H200.149V153.116C200.149 154.077 199.864 154.833 199.295 155.384C198.726 155.935 197.928 156.21 196.901 156.21ZM197.307 147.404C196.906 147.404 196.617 147.306 196.439 147.11C196.253 146.905 196.159 146.601 196.159 146.2V145.472H197.447V146.032C197.447 146.191 197.48 146.298 197.545 146.354C197.601 146.41 197.713 146.438 197.881 146.438H201.185V147.404H197.307ZM197.391 143.68C197.391 143.568 197.373 143.493 197.335 143.456C197.298 143.409 197.219 143.386 197.097 143.386H196.509V142.434H197.517C198.059 142.434 198.329 142.672 198.329 143.148V143.596H200.695V144.478H197.391V143.68ZM204.237 156.21C203.323 156.21 202.609 155.953 202.095 155.44C201.591 154.927 201.339 154.264 201.339 153.452V148.51H202.767V153.396C202.767 153.956 202.921 154.381 203.229 154.67C203.547 154.95 204.009 155.09 204.615 155.09C205.577 155.09 206.333 154.661 206.883 153.802V148.51H208.311V156H206.925V154.992C206.225 155.804 205.329 156.21 204.237 156.21ZM213.519 156.21C212.791 156.21 212.156 156.079 211.615 155.818C211.073 155.557 210.653 155.193 210.355 154.726C210.065 154.25 209.921 153.709 209.921 153.102V148.51H211.349V153.074C211.349 153.699 211.531 154.194 211.895 154.558C212.268 154.913 212.809 155.09 213.519 155.09C214.219 155.09 214.751 154.913 215.115 154.558C215.488 154.194 215.675 153.699 215.675 153.074V148.51H217.103V153.102C217.103 153.709 216.953 154.25 216.655 154.726C216.365 155.193 215.95 155.557 215.409 155.818C214.867 156.079 214.237 156.21 213.519 156.21ZM214.255 147.404C213.853 147.404 213.564 147.306 213.387 147.11C213.2 146.905 213.107 146.601 213.107 146.2V145.472H214.395V146.032C214.395 146.191 214.427 146.298 214.493 146.354C214.549 146.41 214.661 146.438 214.829 146.438H218.133V147.404H214.255ZM221.395 156.21C220.48 156.21 219.766 155.953 219.253 155.44C218.749 154.927 218.497 154.264 218.497 153.452V148.51H219.925V153.396C219.925 153.956 220.079 154.381 220.387 154.67C220.704 154.95 221.166 155.09 221.773 155.09C222.734 155.09 223.49 154.661 224.041 153.802V148.51H225.469V156H224.083V154.992C223.383 155.804 222.487 156.21 221.395 156.21ZM228.534 156C228.076 156 227.726 155.874 227.484 155.622C227.25 155.361 227.134 154.997 227.134 154.53V150.736C227.134 150.26 227.218 149.863 227.386 149.546C227.554 149.219 227.796 148.869 228.114 148.496C228.328 148.253 228.482 148.048 228.576 147.88C228.678 147.712 228.73 147.535 228.73 147.348C228.73 147.04 228.646 146.816 228.478 146.676C228.319 146.536 228.039 146.466 227.638 146.466C227.068 146.466 226.555 146.625 226.098 146.942V145.822C226.368 145.663 226.672 145.542 227.008 145.458C227.353 145.374 227.708 145.332 228.072 145.332C228.781 145.332 229.308 145.505 229.654 145.85C230.008 146.195 230.186 146.643 230.186 147.194C230.186 147.493 230.12 147.759 229.99 147.992C229.868 148.216 229.682 148.477 229.43 148.776C229.14 149.121 228.921 149.429 228.772 149.7C228.632 149.971 228.562 150.302 228.562 150.694V154.138C228.562 154.39 228.613 154.567 228.716 154.67C228.818 154.763 228.996 154.81 229.248 154.81H229.752V156H228.534ZM234.41 156.21C233.29 156.21 232.408 155.893 231.764 155.258C231.13 154.623 230.812 153.69 230.812 152.458C230.812 151.599 230.976 150.857 231.302 150.232C231.638 149.607 232.114 149.131 232.73 148.804C233.346 148.468 234.079 148.3 234.928 148.3C236.244 148.3 237.206 148.613 237.812 149.238C238.419 149.854 238.722 150.643 238.722 151.604V156H237.294V151.59C237.294 150.153 236.506 149.434 234.928 149.434C234.098 149.434 233.444 149.695 232.968 150.218C232.492 150.741 232.254 151.487 232.254 152.458C232.254 153.354 232.455 154.017 232.856 154.446C233.258 154.875 233.855 155.09 234.648 155.09C235.003 155.09 235.33 155.043 235.628 154.95V156.056C235.302 156.159 234.896 156.21 234.41 156.21Z" fill="#49474A"/>
</svg>
